<?xml version="1.0" encoding="UTF-8" standalone="no"?>
<!DOCTYPE svg PUBLIC "-//W3C//DTD SVG 1.1//EN"
 "http://www.w3.org/Graphics/SVG/1.1/DTD/svg11.dtd">
<!-- Generated by graphviz version 2.43.0 (0)
 -->
<!-- Title: Edge RAG Implementation Architecture Pages: 1 -->
<svg width="853pt" height="1961pt"
 viewBox="0.00 0.00 852.60 1960.60" xmlns="http://www.w3.org/2000/svg" xmlns:xlink="http://www.w3.org/1999/xlink">
<g id="graph0" class="graph" transform="scale(1 1) rotate(0) translate(28.8 1931.8)">
<title>Edge RAG Implementation Architecture</title>
<polygon fill="white" stroke="transparent" points="-28.8,28.8 -28.8,-1931.8 823.8,-1931.8 823.8,28.8 -28.8,28.8"/>
<text text-anchor="middle" x="397.5" y="-7.2" font-family="Sans-Serif" font-size="11.00" fill="#2d3436">Edge RAG Implementation Architecture</text>
<g id="clust1" class="cluster">
<title>cluster_Client Layer</title>
<path fill="#f5f5f5" stroke="#aeb6be" d="M20,-1362C20,-1362 113,-1362 113,-1362 119,-1362 125,-1368 125,-1374 125,-1374 125,-1698 125,-1698 125,-1704 119,-1710 113,-1710 113,-1710 20,-1710 20,-1710 14,-1710 8,-1704 8,-1698 8,-1698 8,-1374 8,-1374 8,-1368 14,-1362 20,-1362"/>
<text text-anchor="middle" x="52" y="-1696.4" font-family="Sans-Serif" font-size="12.00" fill="#2d3436">Client Layer</text>
</g>
<g id="clust2" class="cluster">
<title>cluster_Application Services (AKS&#45;HCI)</title>
<path fill="#e8f4fd" stroke="#aeb6be" d="M314,-1242C314,-1242 775,-1242 775,-1242 781,-1242 787,-1248 787,-1254 787,-1254 787,-1883 787,-1883 787,-1889 781,-1895 775,-1895 775,-1895 314,-1895 314,-1895 308,-1895 302,-1889 302,-1883 302,-1883 302,-1254 302,-1254 302,-1248 308,-1242 314,-1242"/>
<text text-anchor="middle" x="401" y="-1881.4" font-family="Sans-Serif" font-size="12.00" fill="#2d3436">Application Services (AKS&#45;HCI)</text>
</g>
<g id="clust3" class="cluster">
<title>cluster_Query Pipeline</title>
<path fill="#ebf3e7" stroke="#aeb6be" d="M322,-1461C322,-1461 591,-1461 591,-1461 597,-1461 603,-1467 603,-1473 603,-1473 603,-1854 603,-1854 603,-1860 597,-1866 591,-1866 591,-1866 322,-1866 322,-1866 316,-1866 310,-1860 310,-1854 310,-1854 310,-1473 310,-1473 310,-1467 316,-1461 322,-1461"/>
<text text-anchor="middle" x="361.5" y="-1852.4" font-family="Sans-Serif" font-size="12.00" fill="#2d3436">Query Pipeline</text>
</g>
<g id="clust4" class="cluster">
<title>cluster_Ingestion Pipeline</title>
<path fill="#ebf3e7" stroke="#aeb6be" d="M322,-1250C322,-1250 767,-1250 767,-1250 773,-1250 779,-1256 779,-1262 779,-1262 779,-1441 779,-1441 779,-1447 773,-1453 767,-1453 767,-1453 322,-1453 322,-1453 316,-1453 310,-1447 310,-1441 310,-1441 310,-1262 310,-1262 310,-1256 316,-1250 322,-1250"/>
<text text-anchor="middle" x="370.5" y="-1439.4" font-family="Sans-Serif" font-size="12.00" fill="#2d3436">Ingestion Pipeline</text>
</g>
<g id="clust5" class="cluster">
<title>cluster_AI/ML Layer (GPU Nodes)</title>
<path fill="#fff4e6" stroke="#aeb6be" d="M473,-697C473,-697 616,-697 616,-697 622,-697 628,-703 628,-709 628,-709 628,-1090 628,-1090 628,-1096 622,-1102 616,-1102 616,-1102 473,-1102 473,-1102 467,-1102 461,-1096 461,-1090 461,-1090 461,-709 461,-709 461,-703 467,-697 473,-697"/>
<text text-anchor="middle" x="544.5" y="-1088.4" font-family="Sans-Serif" font-size="12.00" fill="#2d3436">AI/ML Layer (GPU Nodes)</text>
</g>
<g id="clust6" class="cluster">
<title>cluster_Data Layer</title>
<path fill="#d4e9d7" stroke="#aeb6be" d="M674,-28C674,-28 767,-28 767,-28 773,-28 779,-34 779,-40 779,-40 779,-623 779,-623 779,-629 773,-635 767,-635 767,-635 674,-635 674,-635 668,-635 662,-629 662,-623 662,-623 662,-40 662,-40 662,-34 668,-28 674,-28"/>
<text text-anchor="middle" x="703.5" y="-621.4" font-family="Sans-Serif" font-size="12.00" fill="#2d3436">Data Layer</text>
</g>
<g id="clust7" class="cluster">
<title>cluster_Observability</title>
<path fill="#ffe6e6" stroke="#aeb6be" d="M674,-643C674,-643 767,-643 767,-643 773,-643 779,-649 779,-655 779,-655 779,-1036 779,-1036 779,-1042 773,-1048 767,-1048 767,-1048 674,-1048 674,-1048 668,-1048 662,-1042 662,-1036 662,-1036 662,-655 662,-655 662,-649 668,-643 674,-643"/>
<text text-anchor="middle" x="709.5" y="-1034.4" font-family="Sans-Serif" font-size="12.00" fill="#2d3436">Observability</text>
</g>
<!-- 0aa25786e17b439ba4234b7451e62009 -->
<g id="node1" class="node">
<title>0aa25786e17b439ba4234b7451e62009</title>
<image xlink:href="/workspaces/sov-cloud-brain-trek/.venv/lib/python3.12/site-packages/resources/programming/framework/react.png" width="101px" height="101px" preserveAspectRatio="xMinYMin meet" x="16" y="-1662.5"/>
<text text-anchor="middle" x="66.5" y="-1547.1" font-family="Sans-Serif" font-size="13.00" fill="#2d3436">Web UI</text>
</g>
<!-- 3121ee3c821e4573a0cebc1cc865e157 -->
<g id="node3" class="node">
<title>3121ee3c821e4573a0cebc1cc865e157</title>
<image xlink:href="/workspaces/sov-cloud-brain-trek/.venv/lib/python3.12/site-packages/resources/azure/network/load-balancers.png" width="101px" height="101px" preserveAspectRatio="xMinYMin meet" x="167" y="-1575.5"/>
<text text-anchor="middle" x="217.5" y="-1459.6" font-family="Sans-Serif" font-size="13.00" fill="#2d3436">API Gateway</text>
<text text-anchor="middle" x="217.5" y="-1445.6" font-family="Sans-Serif" font-size="13.00" fill="#2d3436">(Kong/NGINX)</text>
</g>
<!-- 0aa25786e17b439ba4234b7451e62009&#45;&gt;3121ee3c821e4573a0cebc1cc865e157 -->
<g id="edge1" class="edge">
<title>0aa25786e17b439ba4234b7451e62009&#45;&gt;3121ee3c821e4573a0cebc1cc865e157</title>
<path fill="none" stroke="#7b8894" d="M117.11,-1583.03C130.24,-1575.37 144.53,-1567.02 158.07,-1559.11"/>
<polygon fill="#7b8894" stroke="#7b8894" points="159.98,-1562.06 166.85,-1553.99 156.45,-1556.01 159.98,-1562.06"/>
</g>
<!-- ba3cbe20e4914679b0cd20b1776ba3e1 -->
<g id="node2" class="node">
<title>ba3cbe20e4914679b0cd20b1776ba3e1</title>
<image xlink:href="/workspaces/sov-cloud-brain-trek/.venv/lib/python3.12/site-packages/resources/programming/framework/react.png" width="101px" height="101px" preserveAspectRatio="xMinYMin meet" x="16" y="-1489.5"/>
<text text-anchor="middle" x="66.5" y="-1374.1" font-family="Sans-Serif" font-size="13.00" fill="#2d3436">API Client</text>
</g>
<!-- ba3cbe20e4914679b0cd20b1776ba3e1&#45;&gt;3121ee3c821e4573a0cebc1cc865e157 -->
<g id="edge2" class="edge">
<title>ba3cbe20e4914679b0cd20b1776ba3e1&#45;&gt;3121ee3c821e4573a0cebc1cc865e157</title>
<path fill="none" stroke="#7b8894" d="M117.11,-1467.64C130.24,-1475.21 144.53,-1483.46 158.07,-1491.28"/>
<polygon fill="#7b8894" stroke="#7b8894" points="156.44,-1494.37 166.85,-1496.34 159.94,-1488.31 156.44,-1494.37"/>
</g>
<!-- 8753aac149b24123a0a925fd3b282a0b -->
<g id="node4" class="node">
<title>8753aac149b24123a0a925fd3b282a0b</title>
<image xlink:href="/workspaces/sov-cloud-brain-trek/.venv/lib/python3.12/site-packages/resources/onprem/container/docker.png" width="101px" height="101px" preserveAspectRatio="xMinYMin meet" x="318" y="-1804.5"/>
<text text-anchor="middle" x="368.5" y="-1688.6" font-family="Sans-Serif" font-size="13.00" fill="#2d3436">Query</text>
<text text-anchor="middle" x="368.5" y="-1674.6" font-family="Sans-Serif" font-size="13.00" fill="#2d3436">Service</text>
</g>
<!-- 3121ee3c821e4573a0cebc1cc865e157&#45;&gt;8753aac149b24123a0a925fd3b282a0b -->
<g id="edge3" class="edge">
<title>3121ee3c821e4573a0cebc1cc865e157&#45;&gt;8753aac149b24123a0a925fd3b282a0b</title>
<path fill="none" stroke="#7b8894" d="M268.11,-1601.25C282.3,-1623.06 297.85,-1646.95 312.35,-1669.24"/>
<polygon fill="#7b8894" stroke="#7b8894" points="309.46,-1671.22 317.85,-1677.69 315.33,-1667.4 309.46,-1671.22"/>
</g>
<!-- 6f37cbc449b444ddb54a8b2fb3d17360 -->
<g id="node7" class="node">
<title>6f37cbc449b444ddb54a8b2fb3d17360</title>
<image xlink:href="/workspaces/sov-cloud-brain-trek/.venv/lib/python3.12/site-packages/resources/onprem/container/docker.png" width="101px" height="101px" preserveAspectRatio="xMinYMin meet" x="318" y="-1391.5"/>
<text text-anchor="middle" x="368.5" y="-1275.6" font-family="Sans-Serif" font-size="13.00" fill="#2d3436">Document</text>
<text text-anchor="middle" x="368.5" y="-1261.6" font-family="Sans-Serif" font-size="13.00" fill="#2d3436">Loader</text>
</g>
<!-- 3121ee3c821e4573a0cebc1cc865e157&#45;&gt;6f37cbc449b444ddb54a8b2fb3d17360 -->
<g id="edge10" class="edge">
<title>3121ee3c821e4573a0cebc1cc865e157&#45;&gt;6f37cbc449b444ddb54a8b2fb3d17360</title>
<path fill="none" stroke="#7b8894" d="M268.11,-1463.73C281.99,-1446.6 297.17,-1427.86 311.39,-1410.29"/>
<polygon fill="#7b8894" stroke="#7b8894" points="314.27,-1412.29 317.85,-1402.32 308.83,-1407.88 314.27,-1412.29"/>
</g>
<!-- 1adf87452dc04792b8695e5901482f76 -->
<g id="node6" class="node">
<title>1adf87452dc04792b8695e5901482f76</title>
<image xlink:href="/workspaces/sov-cloud-brain-trek/.venv/lib/python3.12/site-packages/resources/onprem/queue/kafka.png" width="101px" height="101px" preserveAspectRatio="xMinYMin meet" x="494" y="-1804.5"/>
<text text-anchor="middle" x="544.5" y="-1688.6" font-family="Sans-Serif" font-size="13.00" fill="#2d3436">Redis</text>
<text text-anchor="middle" x="544.5" y="-1674.6" font-family="Sans-Serif" font-size="13.00" fill="#2d3436">Cache</text>
</g>
<!-- 8753aac149b24123a0a925fd3b282a0b&#45;&gt;1adf87452dc04792b8695e5901482f76 -->
<g id="edge4" class="edge">
<title>8753aac149b24123a0a925fd3b282a0b&#45;&gt;1adf87452dc04792b8695e5901482f76</title>
<path fill="none" stroke="#7b8894" d="M419.36,-1754C439.47,-1754 462.84,-1754 483.84,-1754"/>
<polygon fill="#7b8894" stroke="#7b8894" points="483.93,-1757.5 493.93,-1754 483.93,-1750.5 483.93,-1757.5"/>
</g>
<!-- 177582a207e243629fe86c8ace54ead8 -->
<g id="node11" class="node">
<title>177582a207e243629fe86c8ace54ead8</title>
<image xlink:href="/workspaces/sov-cloud-brain-trek/.venv/lib/python3.12/site-packages/resources/azure/ml/machine-learning-service-workspaces.png" width="101px" height="101px" preserveAspectRatio="xMinYMin meet" x="494" y="-838.5"/>
<text text-anchor="middle" x="544.5" y="-722.6" font-family="Sans-Serif" font-size="13.00" fill="#2d3436">Embedding</text>
<text text-anchor="middle" x="544.5" y="-708.6" font-family="Sans-Serif" font-size="13.00" fill="#2d3436">E5&#45;large</text>
</g>
<!-- 8753aac149b24123a0a925fd3b282a0b&#45;&gt;177582a207e243629fe86c8ace54ead8 -->
<g id="edge5" class="edge">
<title>8753aac149b24123a0a925fd3b282a0b&#45;&gt;177582a207e243629fe86c8ace54ead8</title>
<path fill="none" stroke="#7b8894" d="M413.35,-1670.94C415.53,-1664.97 417.45,-1658.95 419,-1653 461.94,-1488.48 399.53,-1047.53 461,-889 467.19,-873.03 476.93,-857.68 487.58,-843.97"/>
<polygon fill="#7b8894" stroke="#7b8894" points="490.37,-846.08 493.93,-836.1 484.92,-841.69 490.37,-846.08"/>
</g>
<!-- ca8ffc1b53dc4ce6898165b9d3e48d8f -->
<g id="node15" class="node">
<title>ca8ffc1b53dc4ce6898165b9d3e48d8f</title>
<image xlink:href="/workspaces/sov-cloud-brain-trek/.venv/lib/python3.12/site-packages/resources/azure/security/key-vaults.png" width="101px" height="101px" preserveAspectRatio="xMinYMin meet" x="670" y="-1189.5"/>
<text text-anchor="middle" x="720.5" y="-1073.6" font-family="Sans-Serif" font-size="13.00" fill="#2d3436">Local</text>
<text text-anchor="middle" x="720.5" y="-1059.6" font-family="Sans-Serif" font-size="13.00" fill="#2d3436">Key Vault</text>
</g>
<!-- 8753aac149b24123a0a925fd3b282a0b&#45;&gt;ca8ffc1b53dc4ce6898165b9d3e48d8f -->
<g id="edge18" class="edge">
<title>8753aac149b24123a0a925fd3b282a0b&#45;&gt;ca8ffc1b53dc4ce6898165b9d3e48d8f</title>
<path fill="none" stroke="red" stroke-dasharray="1,5" d="M413.03,-1670.86C415.28,-1664.9 417.31,-1658.91 419,-1653 444.31,-1564.52 405.43,-1314.36 461,-1241 485.78,-1208.29 591.8,-1174 660.13,-1154.69"/>
<polygon fill="red" stroke="red" points="661.23,-1158.01 669.92,-1151.95 659.35,-1151.27 661.23,-1158.01"/>
</g>
<!-- 8e38c6941a074d83837fd84094ecdf7e -->
<g id="node16" class="node">
<title>8e38c6941a074d83837fd84094ecdf7e</title>
<image xlink:href="/workspaces/sov-cloud-brain-trek/.venv/lib/python3.12/site-packages/resources/onprem/compute/server.png" width="101px" height="101px" preserveAspectRatio="xMinYMin meet" x="670" y="-986.5"/>
<text text-anchor="middle" x="720.5" y="-870.6" font-family="Sans-Serif" font-size="13.00" fill="#2d3436">Prometheus</text>
<text text-anchor="middle" x="720.5" y="-856.6" font-family="Sans-Serif" font-size="13.00" fill="#2d3436">+ Grafana</text>
</g>
<!-- 8753aac149b24123a0a925fd3b282a0b&#45;&gt;8e38c6941a074d83837fd84094ecdf7e -->
<g id="edge19" class="edge">
<title>8753aac149b24123a0a925fd3b282a0b&#45;&gt;8e38c6941a074d83837fd84094ecdf7e</title>
<path fill="none" stroke="gray" stroke-dasharray="1,5" d="M413.15,-1670.89C415.37,-1664.93 417.36,-1658.93 419,-1653 448.61,-1545.96 390.76,-1241.02 461,-1155 509.92,-1095.09 568.65,-1155.61 628,-1106 653.92,-1084.33 646.14,-1067.84 662,-1038 663.75,-1034.71 665.54,-1031.37 667.36,-1028"/>
<polygon fill="gray" stroke="gray" points="670.54,-1029.49 672.24,-1019.03 664.39,-1026.14 670.54,-1029.49"/>
</g>
<!-- c867c2b773f747359bfdabe7e45dfc92 -->
<g id="node5" class="node">
<title>c867c2b773f747359bfdabe7e45dfc92</title>
<image xlink:href="/workspaces/sov-cloud-brain-trek/.venv/lib/python3.12/site-packages/resources/onprem/container/docker.png" width="101px" height="101px" preserveAspectRatio="xMinYMin meet" x="318" y="-1602.5"/>
<text text-anchor="middle" x="368.5" y="-1486.6" font-family="Sans-Serif" font-size="13.00" fill="#2d3436">Reranker</text>
<text text-anchor="middle" x="368.5" y="-1472.6" font-family="Sans-Serif" font-size="13.00" fill="#2d3436">Service</text>
</g>
<!-- 209f0a3bcd744899a7b95882e41dc741 -->
<g id="node10" class="node">
<title>209f0a3bcd744899a7b95882e41dc741</title>
<image xlink:href="/workspaces/sov-cloud-brain-trek/.venv/lib/python3.12/site-packages/resources/azure/ml/machine-learning-service-workspaces.png" width="101px" height="101px" preserveAspectRatio="xMinYMin meet" x="494" y="-1040.5"/>
<text text-anchor="middle" x="544.5" y="-924.6" font-family="Sans-Serif" font-size="13.00" fill="#2d3436">LLM</text>
<text text-anchor="middle" x="544.5" y="-910.6" font-family="Sans-Serif" font-size="13.00" fill="#2d3436">Phi&#45;3 / Mistral</text>
</g>
<!-- c867c2b773f747359bfdabe7e45dfc92&#45;&gt;209f0a3bcd744899a7b95882e41dc741 -->
<g id="edge8" class="edge">
<title>c867c2b773f747359bfdabe7e45dfc92&#45;&gt;209f0a3bcd744899a7b95882e41dc741</title>
<path fill="none" stroke="#7b8894" d="M416.63,-1468.9C417.47,-1466.59 418.27,-1464.29 419,-1462 468.17,-1308.14 401.46,-1251.15 461,-1101 467.61,-1084.33 477.38,-1067.95 487.91,-1053.09"/>
<polygon fill="#7b8894" stroke="#7b8894" points="490.74,-1055.14 493.82,-1045.01 485.09,-1051.01 490.74,-1055.14"/>
</g>
<!-- 023b0e690d3042c8b3be7a0f508345d5 -->
<g id="node8" class="node">
<title>023b0e690d3042c8b3be7a0f508345d5</title>
<image xlink:href="/workspaces/sov-cloud-brain-trek/.venv/lib/python3.12/site-packages/resources/onprem/container/docker.png" width="101px" height="101px" preserveAspectRatio="xMinYMin meet" x="494" y="-1391.5"/>
<text text-anchor="middle" x="544.5" y="-1275.6" font-family="Sans-Serif" font-size="13.00" fill="#2d3436">Text</text>
<text text-anchor="middle" x="544.5" y="-1261.6" font-family="Sans-Serif" font-size="13.00" fill="#2d3436">Chunker</text>
</g>
<!-- 6f37cbc449b444ddb54a8b2fb3d17360&#45;&gt;023b0e690d3042c8b3be7a0f508345d5 -->
<g id="edge11" class="edge">
<title>6f37cbc449b444ddb54a8b2fb3d17360&#45;&gt;023b0e690d3042c8b3be7a0f508345d5</title>
<path fill="none" stroke="#7b8894" d="M419.36,-1341C439.47,-1341 462.84,-1341 483.84,-1341"/>
<polygon fill="#7b8894" stroke="#7b8894" points="483.93,-1344.5 493.93,-1341 483.93,-1337.5 483.93,-1344.5"/>
</g>
<!-- 6998c5c2f1d84a688ee6d2fb6dad1704 -->
<g id="node13" class="node">
<title>6998c5c2f1d84a688ee6d2fb6dad1704</title>
<image xlink:href="/workspaces/sov-cloud-brain-trek/.venv/lib/python3.12/site-packages/resources/azure/storage/blob-storage.png" width="101px" height="101px" preserveAspectRatio="xMinYMin meet" x="670" y="-371.5"/>
<text text-anchor="middle" x="720.5" y="-255.6" font-family="Sans-Serif" font-size="13.00" fill="#2d3436">Document</text>
<text text-anchor="middle" x="720.5" y="-241.6" font-family="Sans-Serif" font-size="13.00" fill="#2d3436">Store</text>
</g>
<!-- 6f37cbc449b444ddb54a8b2fb3d17360&#45;&gt;6998c5c2f1d84a688ee6d2fb6dad1704 -->
<g id="edge15" class="edge">
<title>6f37cbc449b444ddb54a8b2fb3d17360&#45;&gt;6998c5c2f1d84a688ee6d2fb6dad1704</title>
<path fill="none" stroke="#7b8894" d="M371.94,-1257.88C378.27,-1082.08 399.25,-678.8 461,-558 506.59,-468.81 600.34,-396.38 661.52,-356"/>
<polygon fill="#7b8894" stroke="#7b8894" points="663.47,-358.91 669.93,-350.52 659.64,-353.05 663.47,-358.91"/>
</g>
<!-- a3b8ae0d96e246f5bd206719d55e638a -->
<g id="node14" class="node">
<title>a3b8ae0d96e246f5bd206719d55e638a</title>
<image xlink:href="/workspaces/sov-cloud-brain-trek/.venv/lib/python3.12/site-packages/resources/onprem/database/postgresql.png" width="101px" height="101px" preserveAspectRatio="xMinYMin meet" x="670" y="-169.5"/>
<text text-anchor="middle" x="720.5" y="-53.6" font-family="Sans-Serif" font-size="13.00" fill="#2d3436">Metadata</text>
<text text-anchor="middle" x="720.5" y="-39.6" font-family="Sans-Serif" font-size="13.00" fill="#2d3436">DB</text>
</g>
<!-- 6f37cbc449b444ddb54a8b2fb3d17360&#45;&gt;a3b8ae0d96e246f5bd206719d55e638a -->
<g id="edge16" class="edge">
<title>6f37cbc449b444ddb54a8b2fb3d17360&#45;&gt;a3b8ae0d96e246f5bd206719d55e638a</title>
<path fill="none" stroke="#7b8894" d="M370.12,-1257.78C372.78,-1052.77 386.87,-528.76 461,-373 505.55,-279.4 599.82,-201.08 661.36,-157.13"/>
<polygon fill="#7b8894" stroke="#7b8894" points="663.67,-159.79 669.82,-151.16 659.63,-154.07 663.67,-159.79"/>
</g>
<!-- ff6a5d56381e4cec9d9226c3850165c4 -->
<g id="node9" class="node">
<title>ff6a5d56381e4cec9d9226c3850165c4</title>
<image xlink:href="/workspaces/sov-cloud-brain-trek/.venv/lib/python3.12/site-packages/resources/onprem/container/docker.png" width="101px" height="101px" preserveAspectRatio="xMinYMin meet" x="670" y="-1391.5"/>
<text text-anchor="middle" x="720.5" y="-1275.6" font-family="Sans-Serif" font-size="13.00" fill="#2d3436">Embedding</text>
<text text-anchor="middle" x="720.5" y="-1261.6" font-family="Sans-Serif" font-size="13.00" fill="#2d3436">Service</text>
</g>
<!-- 023b0e690d3042c8b3be7a0f508345d5&#45;&gt;ff6a5d56381e4cec9d9226c3850165c4 -->
<g id="edge12" class="edge">
<title>023b0e690d3042c8b3be7a0f508345d5&#45;&gt;ff6a5d56381e4cec9d9226c3850165c4</title>
<path fill="none" stroke="#7b8894" d="M595.36,-1341C615.47,-1341 638.84,-1341 659.84,-1341"/>
<polygon fill="#7b8894" stroke="#7b8894" points="659.93,-1344.5 669.93,-1341 659.93,-1337.5 659.93,-1344.5"/>
</g>
<!-- ff6a5d56381e4cec9d9226c3850165c4&#45;&gt;177582a207e243629fe86c8ace54ead8 -->
<g id="edge13" class="edge">
<title>ff6a5d56381e4cec9d9226c3850165c4&#45;&gt;177582a207e243629fe86c8ace54ead8</title>
<path fill="none" stroke="#7b8894" d="M669.96,-1260.77C666.91,-1253.9 664.2,-1246.92 662,-1240 614.63,-1090.6 687.69,-1033.92 628,-889 621.55,-873.34 611.82,-858.2 601.28,-844.63"/>
<polygon fill="#7b8894" stroke="#7b8894" points="604,-842.42 595.01,-836.82 598.55,-846.81 604,-842.42"/>
</g>
<!-- 209f0a3bcd744899a7b95882e41dc741&#45;&gt;8753aac149b24123a0a925fd3b282a0b -->
<g id="edge9" class="edge">
<title>209f0a3bcd744899a7b95882e41dc741&#45;&gt;8753aac149b24123a0a925fd3b282a0b</title>
<path fill="none" stroke="#7b8894" d="M493.96,-1043.95C481,-1061.03 468.56,-1080.76 461,-1101 374.89,-1331.48 483.64,-1415.6 419,-1653 418.24,-1655.78 417.41,-1658.58 416.51,-1661.38"/>
<polygon fill="#7b8894" stroke="#7b8894" points="413.17,-1660.31 413.21,-1670.9 419.79,-1662.6 413.17,-1660.31"/>
</g>
<!-- 209f0a3bcd744899a7b95882e41dc741&#45;&gt;ca8ffc1b53dc4ce6898165b9d3e48d8f -->
<g id="edge17" class="edge">
<title>209f0a3bcd744899a7b95882e41dc741&#45;&gt;ca8ffc1b53dc4ce6898165b9d3e48d8f</title>
<path fill="none" stroke="red" stroke-dasharray="1,5" d="M595.36,-1032.7C616.2,-1050.54 640.54,-1071.38 662.12,-1089.86"/>
<polygon fill="red" stroke="red" points="660.06,-1092.71 669.93,-1096.55 664.61,-1087.39 660.06,-1092.71"/>
</g>
<!-- a2366668a3194c58ad3ef1506021790f -->
<g id="node17" class="node">
<title>a2366668a3194c58ad3ef1506021790f</title>
<image xlink:href="/workspaces/sov-cloud-brain-trek/.venv/lib/python3.12/site-packages/resources/onprem/compute/server.png" width="101px" height="101px" preserveAspectRatio="xMinYMin meet" x="670" y="-784.5"/>
<text text-anchor="middle" x="720.5" y="-668.6" font-family="Sans-Serif" font-size="13.00" fill="#2d3436">Jaeger</text>
<text text-anchor="middle" x="720.5" y="-654.6" font-family="Sans-Serif" font-size="13.00" fill="#2d3436">Tracing</text>
</g>
<!-- 209f0a3bcd744899a7b95882e41dc741&#45;&gt;a2366668a3194c58ad3ef1506021790f -->
<g id="edge20" class="edge">
<title>209f0a3bcd744899a7b95882e41dc741&#45;&gt;a2366668a3194c58ad3ef1506021790f</title>
<path fill="none" stroke="gray" stroke-dasharray="1,5" d="M595.04,-932.42C606.29,-918.52 617.9,-903.48 628,-889 636.51,-876.8 651.36,-852.22 666.64,-826.17"/>
<polygon fill="gray" stroke="gray" points="669.8,-827.69 671.83,-817.29 663.76,-824.16 669.8,-827.69"/>
</g>
<!-- 475b117f82bf4745895459f0bf6948e6 -->
<g id="node12" class="node">
<title>475b117f82bf4745895459f0bf6948e6</title>
<image xlink:href="/workspaces/sov-cloud-brain-trek/.venv/lib/python3.12/site-packages/resources/generic/storage/storage.png" width="101px" height="101px" preserveAspectRatio="xMinYMin meet" x="670" y="-573.5"/>
<text text-anchor="middle" x="720.5" y="-457.6" font-family="Sans-Serif" font-size="13.00" fill="#2d3436">Vector DB</text>
<text text-anchor="middle" x="720.5" y="-443.6" font-family="Sans-Serif" font-size="13.00" fill="#2d3436">(Qdrant)</text>
</g>
<!-- 177582a207e243629fe86c8ace54ead8&#45;&gt;475b117f82bf4745895459f0bf6948e6 -->
<g id="edge6" class="edge">
<title>177582a207e243629fe86c8ace54ead8&#45;&gt;475b117f82bf4745895459f0bf6948e6</title>
<path fill="none" stroke="#7b8894" d="M592.13,-704.87C614.22,-669.6 640.76,-628.98 663.89,-595"/>
<polygon fill="#7b8894" stroke="#7b8894" points="666.94,-596.75 669.69,-586.52 661.16,-592.8 666.94,-596.75"/>
</g>
<!-- 177582a207e243629fe86c8ace54ead8&#45;&gt;475b117f82bf4745895459f0bf6948e6 -->
<g id="edge14" class="edge">
<title>177582a207e243629fe86c8ace54ead8&#45;&gt;475b117f82bf4745895459f0bf6948e6</title>
<path fill="none" stroke="#7b8894" d="M595.13,-724.74C617.73,-691.84 644.48,-651.15 667.37,-614.88"/>
<polygon fill="#7b8894" stroke="#7b8894" points="670.43,-616.58 672.79,-606.25 664.51,-612.85 670.43,-616.58"/>
</g>
<!-- 475b117f82bf4745895459f0bf6948e6&#45;&gt;c867c2b773f747359bfdabe7e45dfc92 -->
<g id="edge7" class="edge">
<title>475b117f82bf4745895459f0bf6948e6&#45;&gt;c867c2b773f747359bfdabe7e45dfc92</title>
<path fill="none" stroke="#7b8894" d="M669.98,-538.8C608.87,-561.21 507.37,-608.57 461,-688 375.76,-834 463,-1279.44 419.43,-1459.06"/>
<polygon fill="#7b8894" stroke="#7b8894" points="415.99,-1458.39 416.82,-1468.96 422.76,-1460.18 415.99,-1458.39"/>
</g>
</g>
</svg>
