<?xml version="1.0" encoding="UTF-8" standalone="no"?>
<!DOCTYPE svg PUBLIC "-//W3C//DTD SVG 1.1//EN"
 "http://www.w3.org/Graphics/SVG/1.1/DTD/svg11.dtd">
<!-- Generated by graphviz version 2.43.0 (0)
 -->
<!-- Title: Encryption Key Hierarchy for Sovereign Cloud Pages: 1 -->
<svg width="1072pt" height="1307pt"
 viewBox="0.00 0.00 1071.60 1306.60" xmlns="http://www.w3.org/2000/svg" xmlns:xlink="http://www.w3.org/1999/xlink">
<g id="graph0" class="graph" transform="scale(1 1) rotate(0) translate(28.8 1277.8)">
<title>Encryption Key Hierarchy for Sovereign Cloud</title>
<polygon fill="white" stroke="transparent" points="-28.8,28.8 -28.8,-1277.8 1042.8,-1277.8 1042.8,28.8 -28.8,28.8"/>
<text text-anchor="middle" x="507" y="-7.2" font-family="Sans-Serif" font-size="11.00" fill="#2d3436">Encryption Key Hierarchy for Sovereign Cloud</text>
<g id="clust1" class="cluster">
<title>cluster_Root of Trust (HSM)</title>
<path fill="#ffe6e6" stroke="#aeb6be" stroke-width="2" d="M528,-758C528,-758 635,-758 635,-758 641,-758 647,-764 647,-770 647,-770 647,-1229 647,-1229 647,-1235 641,-1241 635,-1241 635,-1241 528,-1241 528,-1241 522,-1241 516,-1235 516,-1229 516,-1229 516,-770 516,-770 516,-764 522,-758 528,-758"/>
<text text-anchor="middle" x="581.5" y="-1227.4" font-family="Sans-Serif" font-size="12.00" fill="#2d3436">Root of Trust (HSM)</text>
</g>
<g id="clust2" class="cluster">
<title>cluster_Key Encryption Keys (KEKs)</title>
<path fill="#fff4e6" stroke="#aeb6be" d="M316,-534C316,-534 842,-534 842,-534 848,-534 854,-540 854,-546 854,-546 854,-696 854,-696 854,-702 848,-708 842,-708 842,-708 316,-708 316,-708 310,-708 304,-702 304,-696 304,-696 304,-546 304,-546 304,-540 310,-534 316,-534"/>
<text text-anchor="middle" x="393.5" y="-694.4" font-family="Sans-Serif" font-size="12.00" fill="#2d3436">Key Encryption Keys (KEKs)</text>
</g>
<g id="clust3" class="cluster">
<title>cluster_Data Encryption Keys (DEKs)</title>
<path fill="#e8f4fd" stroke="#aeb6be" d="M20,-273C20,-273 994,-273 994,-273 1000,-273 1006,-279 1006,-285 1006,-285 1006,-472 1006,-472 1006,-478 1000,-484 994,-484 994,-484 20,-484 20,-484 14,-484 8,-478 8,-472 8,-472 8,-285 8,-285 8,-279 14,-273 20,-273"/>
<text text-anchor="middle" x="101.5" y="-470.4" font-family="Sans-Serif" font-size="12.00" fill="#2d3436">Data Encryption Keys (DEKs)</text>
</g>
<g id="clust4" class="cluster">
<title>cluster_Storage DEKs</title>
<path fill="#ebf3e7" stroke="#aeb6be" d="M28,-281C28,-281 410,-281 410,-281 416,-281 422,-287 422,-293 422,-293 422,-443 422,-443 422,-449 416,-455 410,-455 410,-455 28,-455 28,-455 22,-455 16,-449 16,-443 16,-443 16,-293 16,-293 16,-287 22,-281 28,-281"/>
<text text-anchor="middle" x="65" y="-441.4" font-family="Sans-Serif" font-size="12.00" fill="#2d3436">Storage DEKs</text>
</g>
<g id="clust5" class="cluster">
<title>cluster_Database DEKs</title>
<path fill="#ebf3e7" stroke="#aeb6be" d="M460,-281C460,-281 698,-281 698,-281 704,-281 710,-287 710,-293 710,-293 710,-443 710,-443 710,-449 704,-455 698,-455 698,-455 460,-455 460,-455 454,-455 448,-449 448,-443 448,-443 448,-293 448,-293 448,-287 454,-281 460,-281"/>
<text text-anchor="middle" x="501.5" y="-441.4" font-family="Sans-Serif" font-size="12.00" fill="#2d3436">Database DEKs</text>
</g>
<g id="clust6" class="cluster">
<title>cluster_Compute DEKs</title>
<path fill="#ebf3e7" stroke="#aeb6be" d="M748,-281C748,-281 986,-281 986,-281 992,-281 998,-287 998,-293 998,-293 998,-443 998,-443 998,-449 992,-455 986,-455 986,-455 748,-455 748,-455 742,-455 736,-449 736,-443 736,-443 736,-293 736,-293 736,-287 742,-281 748,-281"/>
<text text-anchor="middle" x="788.5" y="-441.4" font-family="Sans-Serif" font-size="12.00" fill="#2d3436">Compute DEKs</text>
</g>
<g id="clust7" class="cluster">
<title>cluster_Protected Resources</title>
<path fill="#d4e9d7" stroke="#aeb6be" d="M316,-28C316,-28 698,-28 698,-28 704,-28 710,-34 710,-40 710,-40 710,-219 710,-219 710,-225 704,-231 698,-231 698,-231 316,-231 316,-231 310,-231 304,-225 304,-219 304,-219 304,-40 304,-40 304,-34 310,-28 316,-28"/>
<text text-anchor="middle" x="373" y="-217.4" font-family="Sans-Serif" font-size="12.00" fill="#2d3436">Protected Resources</text>
</g>
<!-- a620e76f60e14deea48a1bbafe4aab14 -->
<g id="node1" class="node">
<title>a620e76f60e14deea48a1bbafe4aab14</title>
<image xlink:href="/workspaces/sov-cloud-brain-trek/.venv/lib/python3.12/site-packages/resources/onprem/security/vault.png" width="101px" height="102.494px" preserveAspectRatio="xMinYMin meet" x="528.5" y="-1166.25"/>
<text text-anchor="middle" x="579" y="-1049.6" font-family="Sans-Serif" font-size="13.00" fill="#2d3436">Hardware</text>
<text text-anchor="middle" x="579" y="-1035.6" font-family="Sans-Serif" font-size="13.00" fill="#2d3436">Security Module</text>
<text text-anchor="middle" x="579" y="-1021.6" font-family="Sans-Serif" font-size="13.00" fill="#2d3436">(FIPS 140&#45;2 L3)</text>
</g>
<!-- 19e68ce5340845c49382ab3a72b6dbe5 -->
<g id="node2" class="node">
<title>19e68ce5340845c49382ab3a72b6dbe5</title>
<image xlink:href="/workspaces/sov-cloud-brain-trek/.venv/lib/python3.12/site-packages/resources/azure/security/key-vaults.png" width="101px" height="101px" preserveAspectRatio="xMinYMin meet" x="528.5" y="-899.5"/>
<text text-anchor="middle" x="579" y="-783.6" font-family="Sans-Serif" font-size="13.00" fill="#2d3436">Master Key</text>
<text text-anchor="middle" x="579" y="-769.6" font-family="Sans-Serif" font-size="13.00" fill="#2d3436">(Never Leaves HSM)</text>
</g>
<!-- a620e76f60e14deea48a1bbafe4aab14&#45;&gt;19e68ce5340845c49382ab3a72b6dbe5 -->
<g id="edge1" class="edge">
<title>a620e76f60e14deea48a1bbafe4aab14&#45;&gt;19e68ce5340845c49382ab3a72b6dbe5</title>
<path fill="none" stroke="red" stroke-width="2" d="M579,-1017.84C579,-1017.84 579,-942.31 579,-942.31"/>
<polygon fill="red" stroke="red" stroke-width="2" points="582.5,-942.31 579,-932.31 575.5,-942.31 582.5,-942.31"/>
<text text-anchor="middle" x="606.5" y="-971.6" font-family="Sans-Serif" font-size="13.00" fill="#2d3436">Protects</text>
</g>
<!-- 469336cb3a4a49d2bb2caa8699b5c9ef -->
<g id="node3" class="node">
<title>469336cb3a4a49d2bb2caa8699b5c9ef</title>
<image xlink:href="/workspaces/sov-cloud-brain-trek/.venv/lib/python3.12/site-packages/resources/azure/security/key-vaults.png" width="101px" height="101px" preserveAspectRatio="xMinYMin meet" x="312.5" y="-661"/>
<text text-anchor="middle" x="363" y="-545.6" font-family="Sans-Serif" font-size="13.00" fill="#2d3436">Storage KEK</text>
</g>
<!-- 19e68ce5340845c49382ab3a72b6dbe5&#45;&gt;469336cb3a4a49d2bb2caa8699b5c9ef -->
<g id="edge2" class="edge">
<title>19e68ce5340845c49382ab3a72b6dbe5&#45;&gt;469336cb3a4a49d2bb2caa8699b5c9ef</title>
<path fill="none" stroke="orange" d="M528.36,-849C464.51,-849 363,-849 363,-849 363,-849 363,-689.16 363,-689.16"/>
<polygon fill="orange" stroke="orange" points="366.5,-689.16 363,-679.16 359.5,-689.16 366.5,-689.16"/>
<text text-anchor="middle" x="445.5" y="-719.6" font-family="Sans-Serif" font-size="13.00" fill="#2d3436">Wraps</text>
</g>
<!-- 03d179fbb9cd474da3628c8fd39dfecc -->
<g id="node4" class="node">
<title>03d179fbb9cd474da3628c8fd39dfecc</title>
<image xlink:href="/workspaces/sov-cloud-brain-trek/.venv/lib/python3.12/site-packages/resources/azure/security/key-vaults.png" width="101px" height="101px" preserveAspectRatio="xMinYMin meet" x="456.5" y="-661"/>
<text text-anchor="middle" x="507" y="-545.6" font-family="Sans-Serif" font-size="13.00" fill="#2d3436">Database KEK</text>
</g>
<!-- 19e68ce5340845c49382ab3a72b6dbe5&#45;&gt;03d179fbb9cd474da3628c8fd39dfecc -->
<g id="edge3" class="edge">
<title>19e68ce5340845c49382ab3a72b6dbe5&#45;&gt;03d179fbb9cd474da3628c8fd39dfecc</title>
<path fill="none" stroke="orange" d="M543,-765.92C543,-765.92 543,-689.08 543,-689.08"/>
<polygon fill="orange" stroke="orange" points="546.5,-689.08 543,-679.08 539.5,-689.08 546.5,-689.08"/>
</g>
<!-- 50d2db2223b444f4b453f2d7b5b139b3 -->
<g id="node5" class="node">
<title>50d2db2223b444f4b453f2d7b5b139b3</title>
<image xlink:href="/workspaces/sov-cloud-brain-trek/.venv/lib/python3.12/site-packages/resources/azure/security/key-vaults.png" width="101px" height="101px" preserveAspectRatio="xMinYMin meet" x="600.5" y="-661"/>
<text text-anchor="middle" x="651" y="-545.6" font-family="Sans-Serif" font-size="13.00" fill="#2d3436">Compute KEK</text>
</g>
<!-- 19e68ce5340845c49382ab3a72b6dbe5&#45;&gt;50d2db2223b444f4b453f2d7b5b139b3 -->
<g id="edge4" class="edge">
<title>19e68ce5340845c49382ab3a72b6dbe5&#45;&gt;50d2db2223b444f4b453f2d7b5b139b3</title>
<path fill="none" stroke="orange" d="M615,-765.92C615,-765.92 615,-689.08 615,-689.08"/>
<polygon fill="orange" stroke="orange" points="618.5,-689.08 615,-679.08 611.5,-689.08 618.5,-689.08"/>
</g>
<!-- 1c62e2440d90451a862fbbe6d58d8ebe -->
<g id="node6" class="node">
<title>1c62e2440d90451a862fbbe6d58d8ebe</title>
<image xlink:href="/workspaces/sov-cloud-brain-trek/.venv/lib/python3.12/site-packages/resources/azure/security/key-vaults.png" width="101px" height="101px" preserveAspectRatio="xMinYMin meet" x="744.5" y="-661"/>
<text text-anchor="middle" x="795" y="-545.6" font-family="Sans-Serif" font-size="13.00" fill="#2d3436">Backup KEK</text>
</g>
<!-- 19e68ce5340845c49382ab3a72b6dbe5&#45;&gt;1c62e2440d90451a862fbbe6d58d8ebe -->
<g id="edge5" class="edge">
<title>19e68ce5340845c49382ab3a72b6dbe5&#45;&gt;1c62e2440d90451a862fbbe6d58d8ebe</title>
<path fill="none" stroke="orange" d="M629.64,-849C693.49,-849 795,-849 795,-849 795,-849 795,-689.16 795,-689.16"/>
<polygon fill="orange" stroke="orange" points="798.5,-689.16 795,-679.16 791.5,-689.16 798.5,-689.16"/>
</g>
<!-- 7a794e60a2004eb28f013d6c99d4a43f -->
<g id="node7" class="node">
<title>7a794e60a2004eb28f013d6c99d4a43f</title>
<image xlink:href="/workspaces/sov-cloud-brain-trek/.venv/lib/python3.12/site-packages/resources/generic/storage/storage.png" width="101px" height="101px" preserveAspectRatio="xMinYMin meet" x="24.5" y="-408"/>
<text text-anchor="middle" x="75" y="-292.6" font-family="Sans-Serif" font-size="13.00" fill="#2d3436">Blob DEK</text>
</g>
<!-- 469336cb3a4a49d2bb2caa8699b5c9ef&#45;&gt;7a794e60a2004eb28f013d6c99d4a43f -->
<g id="edge6" class="edge">
<title>469336cb3a4a49d2bb2caa8699b5c9ef&#45;&gt;7a794e60a2004eb28f013d6c99d4a43f</title>
<path fill="none" stroke="blue" d="M312.17,-633C229.5,-633 75,-633 75,-633 75,-633 75,-436.31 75,-436.31"/>
<polygon fill="blue" stroke="blue" points="78.5,-436.31 75,-426.31 71.5,-436.31 78.5,-436.31"/>
<text text-anchor="middle" x="181" y="-495.6" font-family="Sans-Serif" font-size="13.00" fill="#2d3436">Encrypts</text>
</g>
<!-- dbc4db35845649f9b0111f3201d083e6 -->
<g id="node8" class="node">
<title>dbc4db35845649f9b0111f3201d083e6</title>
<image xlink:href="/workspaces/sov-cloud-brain-trek/.venv/lib/python3.12/site-packages/resources/generic/storage/storage.png" width="101px" height="101px" preserveAspectRatio="xMinYMin meet" x="168.5" y="-408"/>
<text text-anchor="middle" x="219" y="-292.6" font-family="Sans-Serif" font-size="13.00" fill="#2d3436">File DEK</text>
</g>
<!-- 469336cb3a4a49d2bb2caa8699b5c9ef&#45;&gt;dbc4db35845649f9b0111f3201d083e6 -->
<g id="edge7" class="edge">
<title>469336cb3a4a49d2bb2caa8699b5c9ef&#45;&gt;dbc4db35845649f9b0111f3201d083e6</title>
<path fill="none" stroke="blue" d="M312.23,-587C270.77,-587 219,-587 219,-587 219,-587 219,-436.05 219,-436.05"/>
<polygon fill="blue" stroke="blue" points="222.5,-436.05 219,-426.05 215.5,-436.05 222.5,-436.05"/>
</g>
<!-- 11411942c59a4fbb91d9c650fb1ee8d1 -->
<g id="node9" class="node">
<title>11411942c59a4fbb91d9c650fb1ee8d1</title>
<image xlink:href="/workspaces/sov-cloud-brain-trek/.venv/lib/python3.12/site-packages/resources/generic/storage/storage.png" width="101px" height="101px" preserveAspectRatio="xMinYMin meet" x="312.5" y="-408"/>
<text text-anchor="middle" x="363" y="-292.6" font-family="Sans-Serif" font-size="13.00" fill="#2d3436">Disk DEK</text>
</g>
<!-- 469336cb3a4a49d2bb2caa8699b5c9ef&#45;&gt;11411942c59a4fbb91d9c650fb1ee8d1 -->
<g id="edge8" class="edge">
<title>469336cb3a4a49d2bb2caa8699b5c9ef&#45;&gt;11411942c59a4fbb91d9c650fb1ee8d1</title>
<path fill="none" stroke="blue" d="M363,-541.7C363,-541.7 363,-436.29 363,-436.29"/>
<polygon fill="blue" stroke="blue" points="366.5,-436.29 363,-426.29 359.5,-436.29 366.5,-436.29"/>
</g>
<!-- d7f7b3aeeb0a491fa398ab6391d76e89 -->
<g id="node10" class="node">
<title>d7f7b3aeeb0a491fa398ab6391d76e89</title>
<image xlink:href="/workspaces/sov-cloud-brain-trek/.venv/lib/python3.12/site-packages/resources/generic/storage/storage.png" width="101px" height="101px" preserveAspectRatio="xMinYMin meet" x="456.5" y="-408"/>
<text text-anchor="middle" x="507" y="-292.6" font-family="Sans-Serif" font-size="13.00" fill="#2d3436">SQL TDE Key</text>
</g>
<!-- 03d179fbb9cd474da3628c8fd39dfecc&#45;&gt;d7f7b3aeeb0a491fa398ab6391d76e89 -->
<g id="edge9" class="edge">
<title>03d179fbb9cd474da3628c8fd39dfecc&#45;&gt;d7f7b3aeeb0a491fa398ab6391d76e89</title>
<path fill="none" stroke="blue" d="M490.17,-541.7C490.17,-541.7 490.17,-436.29 490.17,-436.29"/>
<polygon fill="blue" stroke="blue" points="493.67,-436.29 490.17,-426.29 486.67,-436.29 493.67,-436.29"/>
</g>
<!-- 9bd9421cedab43cda1f0fbf7a516f21d -->
<g id="node11" class="node">
<title>9bd9421cedab43cda1f0fbf7a516f21d</title>
<image xlink:href="/workspaces/sov-cloud-brain-trek/.venv/lib/python3.12/site-packages/resources/generic/storage/storage.png" width="101px" height="101px" preserveAspectRatio="xMinYMin meet" x="600.5" y="-408"/>
<text text-anchor="middle" x="651" y="-292.6" font-family="Sans-Serif" font-size="13.00" fill="#2d3436">Cosmos DEK</text>
</g>
<!-- 03d179fbb9cd474da3628c8fd39dfecc&#45;&gt;9bd9421cedab43cda1f0fbf7a516f21d -->
<g id="edge10" class="edge">
<title>03d179fbb9cd474da3628c8fd39dfecc&#45;&gt;9bd9421cedab43cda1f0fbf7a516f21d</title>
<path fill="none" stroke="blue" d="M523.83,-541.84C523.83,-500.19 523.83,-455 523.83,-455 523.83,-455 625.75,-455 625.75,-455 625.75,-455 625.75,-436.01 625.75,-436.01"/>
<polygon fill="blue" stroke="blue" points="629.25,-436.01 625.75,-426.01 622.25,-436.01 629.25,-436.01"/>
</g>
<!-- df4532c4fc264ee9a8fdbed9cd041309 -->
<g id="node12" class="node">
<title>df4532c4fc264ee9a8fdbed9cd041309</title>
<image xlink:href="/workspaces/sov-cloud-brain-trek/.venv/lib/python3.12/site-packages/resources/generic/storage/storage.png" width="101px" height="101px" preserveAspectRatio="xMinYMin meet" x="744.5" y="-408"/>
<text text-anchor="middle" x="795" y="-292.6" font-family="Sans-Serif" font-size="13.00" fill="#2d3436">VM Disk Key</text>
</g>
<!-- 50d2db2223b444f4b453f2d7b5b139b3&#45;&gt;df4532c4fc264ee9a8fdbed9cd041309 -->
<g id="edge11" class="edge">
<title>50d2db2223b444f4b453f2d7b5b139b3&#45;&gt;df4532c4fc264ee9a8fdbed9cd041309</title>
<path fill="none" stroke="blue" d="M651,-541.7C651,-512.03 651,-484 651,-484 651,-484 795,-484 795,-484 795,-484 795,-436.3 795,-436.3"/>
<polygon fill="blue" stroke="blue" points="798.5,-436.3 795,-426.3 791.5,-436.3 798.5,-436.3"/>
</g>
<!-- 8dd61806669d40678f65c923f8b2fa40 -->
<g id="node13" class="node">
<title>8dd61806669d40678f65c923f8b2fa40</title>
<image xlink:href="/workspaces/sov-cloud-brain-trek/.venv/lib/python3.12/site-packages/resources/generic/storage/storage.png" width="101px" height="101px" preserveAspectRatio="xMinYMin meet" x="888.5" y="-408"/>
<text text-anchor="middle" x="939" y="-292.6" font-family="Sans-Serif" font-size="13.00" fill="#2d3436">AKS Secret Key</text>
</g>
<!-- 50d2db2223b444f4b453f2d7b5b139b3&#45;&gt;8dd61806669d40678f65c923f8b2fa40 -->
<g id="edge12" class="edge">
<title>50d2db2223b444f4b453f2d7b5b139b3&#45;&gt;8dd61806669d40678f65c923f8b2fa40</title>
<path fill="none" stroke="blue" d="M676.25,-541.99C676.25,-525.73 676.25,-513 676.25,-513 676.25,-513 939,-513 939,-513 939,-513 939,-436.16 939,-436.16"/>
<polygon fill="blue" stroke="blue" points="942.5,-436.16 939,-426.16 935.5,-436.16 942.5,-436.16"/>
</g>
<!-- 4d668feedf164bd399595e0a71deb816 -->
<g id="node14" class="node">
<title>4d668feedf164bd399595e0a71deb816</title>
<image xlink:href="/workspaces/sov-cloud-brain-trek/.venv/lib/python3.12/site-packages/resources/azure/storage/blob-storage.png" width="101px" height="101px" preserveAspectRatio="xMinYMin meet" x="312.5" y="-169.5"/>
<text text-anchor="middle" x="363" y="-53.6" font-family="Sans-Serif" font-size="13.00" fill="#2d3436">Azure Blob</text>
<text text-anchor="middle" x="363" y="-39.6" font-family="Sans-Serif" font-size="13.00" fill="#2d3436">Storage</text>
</g>
<!-- 7a794e60a2004eb28f013d6c99d4a43f&#45;&gt;4d668feedf164bd399595e0a71deb816 -->
<g id="edge13" class="edge">
<title>7a794e60a2004eb28f013d6c99d4a43f&#45;&gt;4d668feedf164bd399595e0a71deb816</title>
<path fill="none" stroke="green" stroke-dasharray="5,2" d="M75,-288.84C75,-218.38 75,-119 75,-119 75,-119 302.17,-119 302.17,-119"/>
<polygon fill="green" stroke="green" points="302.17,-122.5 312.17,-119 302.17,-115.5 302.17,-122.5"/>
<text text-anchor="middle" x="264.5" y="-242.6" font-family="Sans-Serif" font-size="13.00" fill="#2d3436">Protects Data</text>
</g>
<!-- 0299370400444ffd8c7afd574d7803c2 -->
<g id="node15" class="node">
<title>0299370400444ffd8c7afd574d7803c2</title>
<image xlink:href="/workspaces/sov-cloud-brain-trek/.venv/lib/python3.12/site-packages/resources/azure/database/sql-databases.png" width="101px" height="101px" preserveAspectRatio="xMinYMin meet" x="456.5" y="-169.5"/>
<text text-anchor="middle" x="507" y="-53.6" font-family="Sans-Serif" font-size="13.00" fill="#2d3436">SQL</text>
<text text-anchor="middle" x="507" y="-39.6" font-family="Sans-Serif" font-size="13.00" fill="#2d3436">Database</text>
</g>
<!-- d7f7b3aeeb0a491fa398ab6391d76e89&#45;&gt;0299370400444ffd8c7afd574d7803c2 -->
<g id="edge14" class="edge">
<title>d7f7b3aeeb0a491fa398ab6391d76e89&#45;&gt;0299370400444ffd8c7afd574d7803c2</title>
<path fill="none" stroke="green" stroke-dasharray="5,2" d="M507,-288.84C507,-288.84 507,-212.4 507,-212.4"/>
<polygon fill="green" stroke="green" points="510.5,-212.4 507,-202.4 503.5,-212.4 510.5,-212.4"/>
</g>
<!-- 31742baece24460db3d2c586e9c98d62 -->
<g id="node16" class="node">
<title>31742baece24460db3d2c586e9c98d62</title>
<image xlink:href="/workspaces/sov-cloud-brain-trek/.venv/lib/python3.12/site-packages/resources/azure/compute/vm.png" width="101px" height="101px" preserveAspectRatio="xMinYMin meet" x="600.5" y="-169.5"/>
<text text-anchor="middle" x="651" y="-53.6" font-family="Sans-Serif" font-size="13.00" fill="#2d3436">Virtual</text>
<text text-anchor="middle" x="651" y="-39.6" font-family="Sans-Serif" font-size="13.00" fill="#2d3436">Machines</text>
</g>
<!-- df4532c4fc264ee9a8fdbed9cd041309&#45;&gt;31742baece24460db3d2c586e9c98d62 -->
<g id="edge15" class="edge">
<title>df4532c4fc264ee9a8fdbed9cd041309&#45;&gt;31742baece24460db3d2c586e9c98d62</title>
<path fill="none" stroke="green" stroke-dasharray="5,2" d="M795,-288.84C795,-218.38 795,-119 795,-119 795,-119 711.77,-119 711.77,-119"/>
<polygon fill="green" stroke="green" points="711.77,-115.5 701.77,-119 711.77,-122.5 711.77,-115.5"/>
</g>
</g>
</svg>
