<?xml version="1.0" encoding="UTF-8" standalone="no"?>
<!DOCTYPE svg PUBLIC "-//W3C//DTD SVG 1.1//EN"
 "http://www.w3.org/Graphics/SVG/1.1/DTD/svg11.dtd">
<!-- Generated by graphviz version 2.43.0 (0)
 -->
<!-- Title: Enterprise Azure Arc Topology Pages: 1 -->
<svg width="3216pt" height="957pt"
 viewBox="0.00 0.00 3215.60 957.10" xmlns="http://www.w3.org/2000/svg" xmlns:xlink="http://www.w3.org/1999/xlink">
<g id="graph0" class="graph" transform="scale(1 1) rotate(0) translate(28.8 928.3)">
<title>Enterprise Azure Arc Topology</title>
<polygon fill="white" stroke="transparent" points="-28.8,28.8 -28.8,-928.3 3186.8,-928.3 3186.8,28.8 -28.8,28.8"/>
<text text-anchor="middle" x="1579" y="-7.2" font-family="Sans-Serif" font-size="11.00" fill="#2d3436">Enterprise Azure Arc Topology</text>
<g id="clust1" class="cluster">
<title>cluster_Azure Control Plane</title>
<path fill="#e8f4fd" stroke="#aeb6be" stroke-width="2" d="M164,-428C164,-428 546,-428 546,-428 552,-428 558,-434 558,-440 558,-440 558,-879.5 558,-879.5 558,-885.5 552,-891.5 546,-891.5 546,-891.5 164,-891.5 164,-891.5 158,-891.5 152,-885.5 152,-879.5 152,-879.5 152,-440 152,-440 152,-434 158,-428 164,-428"/>
<text text-anchor="middle" x="219" y="-877.9" font-family="Sans-Serif" font-size="12.00" fill="#2d3436">Azure Control Plane</text>
</g>
<g id="clust2" class="cluster">
<title>cluster_Management Hierarchy</title>
<path fill="#fff9e6" stroke="#aeb6be" d="M20,-28C20,-28 402,-28 402,-28 408,-28 414,-34 414,-40 414,-40 414,-386 414,-386 414,-392 408,-398 402,-398 402,-398 20,-398 20,-398 14,-398 8,-392 8,-386 8,-386 8,-40 8,-40 8,-34 14,-28 20,-28"/>
<text text-anchor="middle" x="87" y="-384.4" font-family="Sans-Serif" font-size="12.00" fill="#2d3436">Management Hierarchy</text>
</g>
<g id="clust3" class="cluster">
<title>cluster_On&#45;Premises Datacenter</title>
<path fill="#fff4e6" stroke="#aeb6be" d="M588,-434.5C588,-434.5 1850,-434.5 1850,-434.5 1856,-434.5 1862,-440.5 1862,-446.5 1862,-446.5 1862,-633.5 1862,-633.5 1862,-639.5 1856,-645.5 1850,-645.5 1850,-645.5 588,-645.5 588,-645.5 582,-645.5 576,-639.5 576,-633.5 576,-633.5 576,-446.5 576,-446.5 576,-440.5 582,-434.5 588,-434.5"/>
<text text-anchor="middle" x="657.5" y="-631.9" font-family="Sans-Serif" font-size="12.00" fill="#2d3436">On&#45;Premises Datacenter</text>
</g>
<g id="clust4" class="cluster">
<title>cluster_Azure Local Cluster</title>
<path fill="#ebf3e7" stroke="#aeb6be" d="M596,-442.5C596,-442.5 978,-442.5 978,-442.5 984,-442.5 990,-448.5 990,-454.5 990,-454.5 990,-604.5 990,-604.5 990,-610.5 984,-616.5 978,-616.5 978,-616.5 596,-616.5 596,-616.5 590,-616.5 584,-610.5 584,-604.5 584,-604.5 584,-454.5 584,-454.5 584,-448.5 590,-442.5 596,-442.5"/>
<text text-anchor="middle" x="649.5" y="-602.9" font-family="Sans-Serif" font-size="12.00" fill="#2d3436">Azure Local Cluster</text>
</g>
<g id="clust5" class="cluster">
<title>cluster_Legacy Servers</title>
<path fill="#ebf3e7" stroke="#aeb6be" d="M1028,-442.5C1028,-442.5 1410,-442.5 1410,-442.5 1416,-442.5 1422,-448.5 1422,-454.5 1422,-454.5 1422,-604.5 1422,-604.5 1422,-610.5 1416,-616.5 1410,-616.5 1410,-616.5 1028,-616.5 1028,-616.5 1022,-616.5 1016,-610.5 1016,-604.5 1016,-604.5 1016,-454.5 1016,-454.5 1016,-448.5 1022,-442.5 1028,-442.5"/>
<text text-anchor="middle" x="1070.5" y="-602.9" font-family="Sans-Serif" font-size="12.00" fill="#2d3436">Legacy Servers</text>
</g>
<g id="clust6" class="cluster">
<title>cluster_Kubernetes</title>
<path fill="#ebf3e7" stroke="#aeb6be" d="M1460,-442.5C1460,-442.5 1842,-442.5 1842,-442.5 1848,-442.5 1854,-448.5 1854,-454.5 1854,-454.5 1854,-604.5 1854,-604.5 1854,-610.5 1848,-616.5 1842,-616.5 1842,-616.5 1460,-616.5 1460,-616.5 1454,-616.5 1448,-610.5 1448,-604.5 1448,-604.5 1448,-454.5 1448,-454.5 1448,-448.5 1454,-442.5 1460,-442.5"/>
<text text-anchor="middle" x="1490" y="-602.9" font-family="Sans-Serif" font-size="12.00" fill="#2d3436">Kubernetes</text>
</g>
<g id="clust7" class="cluster">
<title>cluster_AWS (Multi&#45;Cloud)</title>
<path fill="#ff9900" stroke="#aeb6be" d="M1892,-442.5C1892,-442.5 2274,-442.5 2274,-442.5 2280,-442.5 2286,-448.5 2286,-454.5 2286,-454.5 2286,-604.5 2286,-604.5 2286,-610.5 2280,-616.5 2274,-616.5 2274,-616.5 1892,-616.5 1892,-616.5 1886,-616.5 1880,-610.5 1880,-604.5 1880,-604.5 1880,-454.5 1880,-454.5 1880,-448.5 1886,-442.5 1892,-442.5"/>
<text text-anchor="middle" x="1941.5" y="-602.9" font-family="Sans-Serif" font-size="12.00" fill="#2d3436">AWS (Multi&#45;Cloud)</text>
</g>
<g id="clust8" class="cluster">
<title>cluster_Google Cloud</title>
<path fill="#4285f4" stroke="#aeb6be" d="M2324,-442.5C2324,-442.5 2706,-442.5 2706,-442.5 2712,-442.5 2718,-448.5 2718,-454.5 2718,-454.5 2718,-604.5 2718,-604.5 2718,-610.5 2712,-616.5 2706,-616.5 2706,-616.5 2324,-616.5 2324,-616.5 2318,-616.5 2312,-610.5 2312,-604.5 2312,-604.5 2312,-454.5 2312,-454.5 2312,-448.5 2318,-442.5 2324,-442.5"/>
<text text-anchor="middle" x="2360" y="-602.9" font-family="Sans-Serif" font-size="12.00" fill="#2d3436">Google Cloud</text>
</g>
<g id="clust9" class="cluster">
<title>cluster_Edge Locations</title>
<path fill="#d4e9d7" stroke="#aeb6be" d="M2756,-442.5C2756,-442.5 3138,-442.5 3138,-442.5 3144,-442.5 3150,-448.5 3150,-454.5 3150,-454.5 3150,-604.5 3150,-604.5 3150,-610.5 3144,-616.5 3138,-616.5 3138,-616.5 2756,-616.5 2756,-616.5 2750,-616.5 2744,-610.5 2744,-604.5 2744,-604.5 2744,-454.5 2744,-454.5 2744,-448.5 2750,-442.5 2756,-442.5"/>
<text text-anchor="middle" x="2797.5" y="-602.9" font-family="Sans-Serif" font-size="12.00" fill="#2d3436">Edge Locations</text>
</g>
<!-- 0cf2a6d737e34665a277b409ffe717cc -->
<g id="node1" class="node">
<title>0cf2a6d737e34665a277b409ffe717cc</title>
<image xlink:href="/workspaces/sov-cloud-brain-trek/.venv/lib/python3.12/site-packages/resources/azure/integration/event-grid-domains.png" width="101px" height="101px" preserveAspectRatio="xMinYMin meet" x="448.5" y="-830"/>
<text text-anchor="middle" x="499" y="-714.1" font-family="Sans-Serif" font-size="13.00" fill="#2d3436">Azure Arc</text>
<text text-anchor="middle" x="499" y="-700.1" font-family="Sans-Serif" font-size="13.00" fill="#2d3436">Resource Bridge</text>
</g>
<!-- ce7dde29b2cb43ab90565f79d7012b0e -->
<g id="node2" class="node">
<title>ce7dde29b2cb43ab90565f79d7012b0e</title>
<image xlink:href="/workspaces/sov-cloud-brain-trek/.venv/lib/python3.12/site-packages/resources/azure/security/security-center.png" width="101px" height="101px" preserveAspectRatio="xMinYMin meet" x="160.5" y="-569.5"/>
<text text-anchor="middle" x="211" y="-453.6" font-family="Sans-Serif" font-size="13.00" fill="#2d3436">Azure Policy</text>
<text text-anchor="middle" x="211" y="-439.6" font-family="Sans-Serif" font-size="13.00" fill="#2d3436">(Governance)</text>
</g>
<!-- 0cf2a6d737e34665a277b409ffe717cc&#45;&gt;ce7dde29b2cb43ab90565f79d7012b0e -->
<g id="edge1" class="edge">
<title>0cf2a6d737e34665a277b409ffe717cc&#45;&gt;ce7dde29b2cb43ab90565f79d7012b0e</title>
<path fill="none" stroke="blue" d="M448.49,-749.18C388.89,-714.3 296.16,-659.08 283,-645.5 272.98,-635.17 263.85,-623.18 255.69,-610.79"/>
<polygon fill="blue" stroke="blue" points="258.53,-608.72 250.21,-602.16 252.62,-612.48 258.53,-608.72"/>
<text text-anchor="middle" x="337" y="-657.1" font-family="Sans-Serif" font-size="13.00" fill="#2d3436">Govern</text>
</g>
<!-- 764aa0d95abe49d78b9327d3dc603ef2 -->
<g id="node3" class="node">
<title>764aa0d95abe49d78b9327d3dc603ef2</title>
<image xlink:href="/workspaces/sov-cloud-brain-trek/.venv/lib/python3.12/site-packages/resources/azure/security/security-center.png" width="101px" height="101px" preserveAspectRatio="xMinYMin meet" x="304.5" y="-569.5"/>
<text text-anchor="middle" x="355" y="-453.6" font-family="Sans-Serif" font-size="13.00" fill="#2d3436">Defender</text>
<text text-anchor="middle" x="355" y="-439.6" font-family="Sans-Serif" font-size="13.00" fill="#2d3436">for Cloud</text>
</g>
<!-- 0cf2a6d737e34665a277b409ffe717cc&#45;&gt;764aa0d95abe49d78b9327d3dc603ef2 -->
<g id="edge2" class="edge">
<title>0cf2a6d737e34665a277b409ffe717cc&#45;&gt;764aa0d95abe49d78b9327d3dc603ef2</title>
<path fill="none" stroke="#7b8894" d="M453.24,-696.35C438.15,-669.27 421.29,-639 405.85,-611.28"/>
<polygon fill="#7b8894" stroke="#7b8894" points="408.81,-609.41 400.89,-602.38 402.7,-612.82 408.81,-609.41"/>
</g>
<!-- 277818cc42514313ae09eb64069d4f95 -->
<g id="node4" class="node">
<title>277818cc42514313ae09eb64069d4f95</title>
<image xlink:href="/workspaces/sov-cloud-brain-trek/.venv/lib/python3.12/site-packages/resources/azure/integration/event-grid-domains.png" width="101px" height="101px" preserveAspectRatio="xMinYMin meet" x="448.5" y="-569.5"/>
<text text-anchor="middle" x="499" y="-454.1" font-family="Sans-Serif" font-size="13.00" fill="#2d3436">Azure Monitor</text>
</g>
<!-- 0cf2a6d737e34665a277b409ffe717cc&#45;&gt;277818cc42514313ae09eb64069d4f95 -->
<g id="edge3" class="edge">
<title>0cf2a6d737e34665a277b409ffe717cc&#45;&gt;277818cc42514313ae09eb64069d4f95</title>
<path fill="none" stroke="#7b8894" d="M499,-696.35C499,-664.87 499,-629.08 499,-598"/>
<polygon fill="#7b8894" stroke="#7b8894" points="502.5,-597.65 499,-587.65 495.5,-597.65 502.5,-597.65"/>
</g>
<!-- 9ca1e339d1f1491cb4007db7100bbf0b -->
<g id="node10" class="node">
<title>9ca1e339d1f1491cb4007db7100bbf0b</title>
<image xlink:href="/workspaces/sov-cloud-brain-trek/.venv/lib/python3.12/site-packages/resources/onprem/compute/server.png" width="101px" height="101px" preserveAspectRatio="xMinYMin meet" x="880.5" y="-569.5"/>
<text text-anchor="middle" x="931" y="-454.1" font-family="Sans-Serif" font-size="13.00" fill="#2d3436">Node 1</text>
</g>
<!-- 0cf2a6d737e34665a277b409ffe717cc&#45;&gt;9ca1e339d1f1491cb4007db7100bbf0b -->
<g id="edge8" class="edge">
<title>0cf2a6d737e34665a277b409ffe717cc&#45;&gt;9ca1e339d1f1491cb4007db7100bbf0b</title>
<path fill="none" stroke="green" d="M549.57,-771.05C624.69,-757.71 766.78,-723.48 859,-645.5 874.82,-632.12 887.93,-614.33 898.42,-596.36"/>
<polygon fill="green" stroke="green" points="901.52,-597.98 903.36,-587.54 895.42,-594.56 901.52,-597.98"/>
<text text-anchor="middle" x="876" y="-657.1" font-family="Sans-Serif" font-size="13.00" fill="#2d3436">Arc Agent</text>
</g>
<!-- 4cdf45f16fbe4f33be11d78daa5c12a5 -->
<g id="node13" class="node">
<title>4cdf45f16fbe4f33be11d78daa5c12a5</title>
<image xlink:href="/workspaces/sov-cloud-brain-trek/.venv/lib/python3.12/site-packages/resources/onprem/compute/server.png" width="101px" height="101px" preserveAspectRatio="xMinYMin meet" x="1312.5" y="-569.5"/>
<text text-anchor="middle" x="1363" y="-454.1" font-family="Sans-Serif" font-size="13.00" fill="#2d3436">Windows</text>
</g>
<!-- 0cf2a6d737e34665a277b409ffe717cc&#45;&gt;4cdf45f16fbe4f33be11d78daa5c12a5 -->
<g id="edge9" class="edge">
<title>0cf2a6d737e34665a277b409ffe717cc&#45;&gt;4cdf45f16fbe4f33be11d78daa5c12a5</title>
<path fill="none" stroke="green" d="M549.57,-775.6C704.52,-765.86 1169.49,-730.09 1291,-645.5 1308.62,-633.23 1322.5,-615.17 1333.17,-596.55"/>
<polygon fill="green" stroke="green" points="1336.29,-598.13 1338,-587.68 1330.15,-594.79 1336.29,-598.13"/>
</g>
<!-- 934b8e6aafd946febd46aa8f069857a0 -->
<g id="node16" class="node">
<title>934b8e6aafd946febd46aa8f069857a0</title>
<image xlink:href="/workspaces/sov-cloud-brain-trek/.venv/lib/python3.12/site-packages/resources/azure/compute/kubernetes-services.png" width="101px" height="101px" preserveAspectRatio="xMinYMin meet" x="1744.5" y="-569.5"/>
<text text-anchor="middle" x="1795" y="-454.1" font-family="Sans-Serif" font-size="13.00" fill="#2d3436">OpenShift</text>
</g>
<!-- 0cf2a6d737e34665a277b409ffe717cc&#45;&gt;934b8e6aafd946febd46aa8f069857a0 -->
<g id="edge10" class="edge">
<title>0cf2a6d737e34665a277b409ffe717cc&#45;&gt;934b8e6aafd946febd46aa8f069857a0</title>
<path fill="none" stroke="green" d="M549.65,-773.63C777.56,-751.62 1697.93,-661.9 1723,-645.5 1741.15,-633.63 1755.25,-615.5 1765.96,-596.67"/>
<polygon fill="green" stroke="green" points="1769.13,-598.16 1770.8,-587.7 1762.97,-594.84 1769.13,-598.16"/>
</g>
<!-- 79a74cc12fbc453bbe574472cf894f80 -->
<g id="node19" class="node">
<title>79a74cc12fbc453bbe574472cf894f80</title>
<image xlink:href="/workspaces/sov-cloud-brain-trek/.venv/lib/python3.12/site-packages/resources/aws/compute/ec2.png" width="101px" height="101px" preserveAspectRatio="xMinYMin meet" x="1888.5" y="-569.5"/>
<text text-anchor="middle" x="1939" y="-454.1" font-family="Sans-Serif" font-size="13.00" fill="#2d3436">EC2</text>
</g>
<!-- 0cf2a6d737e34665a277b409ffe717cc&#45;&gt;79a74cc12fbc453bbe574472cf894f80 -->
<g id="edge11" class="edge">
<title>0cf2a6d737e34665a277b409ffe717cc&#45;&gt;79a74cc12fbc453bbe574472cf894f80</title>
<path fill="none" stroke="orange" d="M549.6,-773.96C711.84,-759.34 1233.64,-711.87 1665,-667.5 1753.52,-658.39 1789.14,-693.6 1864,-645.5 1882.52,-633.6 1897.1,-615.36 1908.28,-596.45"/>
<polygon fill="orange" stroke="orange" points="1911.33,-598.16 1913.18,-587.73 1905.23,-594.73 1911.33,-598.16"/>
<text text-anchor="middle" x="1882.5" y="-657.1" font-family="Sans-Serif" font-size="13.00" fill="#2d3436">Multi&#45;cloud</text>
</g>
<!-- e77e1ed07f9948108e8c7b6986cbea88 -->
<g id="node21" class="node">
<title>e77e1ed07f9948108e8c7b6986cbea88</title>
<image xlink:href="/workspaces/sov-cloud-brain-trek/.venv/lib/python3.12/site-packages/resources/azure/compute/kubernetes-services.png" width="101px" height="101px" preserveAspectRatio="xMinYMin meet" x="2176.5" y="-569.5"/>
<text text-anchor="middle" x="2227" y="-454.1" font-family="Sans-Serif" font-size="13.00" fill="#2d3436">EKS</text>
</g>
<!-- 0cf2a6d737e34665a277b409ffe717cc&#45;&gt;e77e1ed07f9948108e8c7b6986cbea88 -->
<g id="edge12" class="edge">
<title>0cf2a6d737e34665a277b409ffe717cc&#45;&gt;e77e1ed07f9948108e8c7b6986cbea88</title>
<path fill="none" stroke="orange" d="M549.69,-774.93C734.49,-761.82 1389.46,-714.7 1929,-667.5 2029.54,-658.71 2070.23,-700.26 2155,-645.5 2173.31,-633.68 2187.47,-615.45 2198.21,-596.52"/>
<polygon fill="orange" stroke="orange" points="2201.4,-597.97 2203.05,-587.5 2195.24,-594.66 2201.4,-597.97"/>
</g>
<!-- 52c808e877ad498cadd3879f8100d1ab -->
<g id="node22" class="node">
<title>52c808e877ad498cadd3879f8100d1ab</title>
<image xlink:href="/workspaces/sov-cloud-brain-trek/.venv/lib/python3.12/site-packages/resources/gcp/compute/compute-engine.png" width="101px" height="101px" preserveAspectRatio="xMinYMin meet" x="2320.5" y="-569.5"/>
<text text-anchor="middle" x="2371" y="-454.1" font-family="Sans-Serif" font-size="13.00" fill="#2d3436">GCE</text>
</g>
<!-- 0cf2a6d737e34665a277b409ffe717cc&#45;&gt;52c808e877ad498cadd3879f8100d1ab -->
<g id="edge13" class="edge">
<title>0cf2a6d737e34665a277b409ffe717cc&#45;&gt;52c808e877ad498cadd3879f8100d1ab</title>
<path fill="none" stroke="orange" d="M549.77,-775.36C745.52,-763.16 1470.1,-717.1 2066,-667.5 2168.33,-658.98 2209.2,-700.37 2296,-645.5 2314.7,-633.68 2329.36,-615.36 2340.56,-596.34"/>
<polygon fill="orange" stroke="orange" points="2343.64,-598.01 2345.47,-587.57 2337.53,-594.59 2343.64,-598.01"/>
</g>
<!-- 58fd441469f74c66bfe41d5467640e8f -->
<g id="node24" class="node">
<title>58fd441469f74c66bfe41d5467640e8f</title>
<image xlink:href="/workspaces/sov-cloud-brain-trek/.venv/lib/python3.12/site-packages/resources/azure/compute/kubernetes-services.png" width="101px" height="101px" preserveAspectRatio="xMinYMin meet" x="2608.5" y="-569.5"/>
<text text-anchor="middle" x="2659" y="-454.1" font-family="Sans-Serif" font-size="13.00" fill="#2d3436">GKE</text>
</g>
<!-- 0cf2a6d737e34665a277b409ffe717cc&#45;&gt;58fd441469f74c66bfe41d5467640e8f -->
<g id="edge14" class="edge">
<title>0cf2a6d737e34665a277b409ffe717cc&#45;&gt;58fd441469f74c66bfe41d5467640e8f</title>
<path fill="none" stroke="orange" d="M549.75,-778.11C852.12,-775.44 2408.91,-756.35 2587,-645.5 2605.59,-633.93 2619.87,-615.68 2630.62,-596.64"/>
<polygon fill="orange" stroke="orange" points="2633.85,-598.04 2635.47,-587.57 2627.67,-594.74 2633.85,-598.04"/>
</g>
<!-- 7e45df4dd4ca4b79828761c8342cd940 -->
<g id="node25" class="node">
<title>7e45df4dd4ca4b79828761c8342cd940</title>
<image xlink:href="/workspaces/sov-cloud-brain-trek/.venv/lib/python3.12/site-packages/resources/onprem/compute/server.png" width="101px" height="101px" preserveAspectRatio="xMinYMin meet" x="2752.5" y="-569.5"/>
<text text-anchor="middle" x="2803" y="-454.1" font-family="Sans-Serif" font-size="13.00" fill="#2d3436">Branch 1</text>
</g>
<!-- 0cf2a6d737e34665a277b409ffe717cc&#45;&gt;7e45df4dd4ca4b79828761c8342cd940 -->
<g id="edge15" class="edge">
<title>0cf2a6d737e34665a277b409ffe717cc&#45;&gt;7e45df4dd4ca4b79828761c8342cd940</title>
<path fill="none" stroke="purple" d="M549.73,-777.48C782.36,-772.44 1770.15,-747.19 2576,-667.5 2643.93,-660.78 2671.2,-683.36 2728,-645.5 2746.14,-633.41 2760.55,-615.3 2771.69,-596.58"/>
<polygon fill="purple" stroke="purple" points="2774.86,-598.08 2776.74,-587.66 2768.77,-594.63 2774.86,-598.08"/>
<text text-anchor="middle" x="2728" y="-657.1" font-family="Sans-Serif" font-size="13.00" fill="#2d3436">Edge</text>
</g>
<!-- 134f1077f15843908f611bcc308c2980 -->
<g id="node26" class="node">
<title>134f1077f15843908f611bcc308c2980</title>
<image xlink:href="/workspaces/sov-cloud-brain-trek/.venv/lib/python3.12/site-packages/resources/onprem/compute/server.png" width="101px" height="101px" preserveAspectRatio="xMinYMin meet" x="2896.5" y="-569.5"/>
<text text-anchor="middle" x="2947" y="-454.1" font-family="Sans-Serif" font-size="13.00" fill="#2d3436">Branch 2</text>
</g>
<!-- 0cf2a6d737e34665a277b409ffe717cc&#45;&gt;134f1077f15843908f611bcc308c2980 -->
<g id="edge16" class="edge">
<title>0cf2a6d737e34665a277b409ffe717cc&#45;&gt;134f1077f15843908f611bcc308c2980</title>
<path fill="none" stroke="purple" d="M549.63,-778.48C794.03,-777.86 1876.1,-769.24 2755,-667.5 2808.86,-661.27 2830.73,-676.81 2875,-645.5 2892.53,-633.1 2906.38,-615 2917.05,-596.37"/>
<polygon fill="purple" stroke="purple" points="2920.17,-597.96 2921.88,-587.51 2914.02,-594.61 2920.17,-597.96"/>
</g>
<!-- 80a56543a37c41ed8b8b073ed8d3c1dd -->
<g id="node27" class="node">
<title>80a56543a37c41ed8b8b073ed8d3c1dd</title>
<image xlink:href="/workspaces/sov-cloud-brain-trek/.venv/lib/python3.12/site-packages/resources/onprem/compute/server.png" width="101px" height="101px" preserveAspectRatio="xMinYMin meet" x="3040.5" y="-569.5"/>
<text text-anchor="middle" x="3091" y="-454.1" font-family="Sans-Serif" font-size="13.00" fill="#2d3436">Factory</text>
</g>
<!-- 0cf2a6d737e34665a277b409ffe717cc&#45;&gt;80a56543a37c41ed8b8b073ed8d3c1dd -->
<g id="edge17" class="edge">
<title>0cf2a6d737e34665a277b409ffe717cc&#45;&gt;80a56543a37c41ed8b8b073ed8d3c1dd</title>
<path fill="none" stroke="purple" d="M549.75,-777.5C799.54,-772.3 1923.25,-745.46 2840,-667.5 2919.87,-660.71 2952.22,-689.84 3019,-645.5 3037.07,-633.51 3051.13,-615.33 3061.85,-596.5"/>
<polygon fill="purple" stroke="purple" points="3065.02,-598 3066.69,-587.53 3058.86,-594.67 3065.02,-598"/>
</g>
<!-- cae34a5f3747408bac562b877fb3c889 -->
<g id="node6" class="node">
<title>cae34a5f3747408bac562b877fb3c889</title>
<image xlink:href="/workspaces/sov-cloud-brain-trek/.venv/lib/python3.12/site-packages/resources/azure/devops/repos.png" width="101px" height="101px" preserveAspectRatio="xMinYMin meet" x="160.5" y="-351"/>
<text text-anchor="middle" x="211" y="-235.6" font-family="Sans-Serif" font-size="13.00" fill="#2d3436">Root MG</text>
</g>
<!-- ce7dde29b2cb43ab90565f79d7012b0e&#45;&gt;cae34a5f3747408bac562b877fb3c889 -->
<g id="edge4" class="edge">
<title>ce7dde29b2cb43ab90565f79d7012b0e&#45;&gt;cae34a5f3747408bac562b877fb3c889</title>
<path fill="none" stroke="#7b8894" stroke-dasharray="5,2" d="M211,-435.84C211,-417.27 211,-397.61 211,-379.23"/>
<polygon fill="#7b8894" stroke="#7b8894" points="214.5,-379.16 211,-369.16 207.5,-379.16 214.5,-379.16"/>
</g>
<!-- 2b5452d695a240d2abfb388d16ad0d4a -->
<g id="node5" class="node">
<title>2b5452d695a240d2abfb388d16ad0d4a</title>
<image xlink:href="/workspaces/sov-cloud-brain-trek/.venv/lib/python3.12/site-packages/resources/azure/security/key-vaults.png" width="101px" height="101px" preserveAspectRatio="xMinYMin meet" x="232.5" y="-830"/>
<text text-anchor="middle" x="283" y="-714.6" font-family="Sans-Serif" font-size="13.00" fill="#2d3436">Key Vault</text>
</g>
<!-- 1a72c42872614333bf707e043504b43d -->
<g id="node7" class="node">
<title>1a72c42872614333bf707e043504b43d</title>
<image xlink:href="/workspaces/sov-cloud-brain-trek/.venv/lib/python3.12/site-packages/resources/azure/devops/repos.png" width="101px" height="101px" preserveAspectRatio="xMinYMin meet" x="16.5" y="-155"/>
<text text-anchor="middle" x="67" y="-39.6" font-family="Sans-Serif" font-size="13.00" fill="#2d3436">Production</text>
</g>
<!-- cae34a5f3747408bac562b877fb3c889&#45;&gt;1a72c42872614333bf707e043504b43d -->
<g id="edge5" class="edge">
<title>cae34a5f3747408bac562b877fb3c889&#45;&gt;1a72c42872614333bf707e043504b43d</title>
<path fill="none" stroke="#7b8894" d="M160.84,-231.92C148.7,-215.57 135.65,-197.99 123.25,-181.28"/>
<polygon fill="#7b8894" stroke="#7b8894" points="126,-179.11 117.23,-173.17 120.38,-183.28 126,-179.11"/>
</g>
<!-- cf10a27bcad447e8be5c414f26f4d056 -->
<g id="node8" class="node">
<title>cf10a27bcad447e8be5c414f26f4d056</title>
<image xlink:href="/workspaces/sov-cloud-brain-trek/.venv/lib/python3.12/site-packages/resources/azure/devops/repos.png" width="101px" height="101px" preserveAspectRatio="xMinYMin meet" x="160.5" y="-155"/>
<text text-anchor="middle" x="211" y="-39.6" font-family="Sans-Serif" font-size="13.00" fill="#2d3436">Development</text>
</g>
<!-- cae34a5f3747408bac562b877fb3c889&#45;&gt;cf10a27bcad447e8be5c414f26f4d056 -->
<g id="edge6" class="edge">
<title>cae34a5f3747408bac562b877fb3c889&#45;&gt;cf10a27bcad447e8be5c414f26f4d056</title>
<path fill="none" stroke="#7b8894" d="M211,-231.92C211,-216.31 211,-199.58 211,-183.57"/>
<polygon fill="#7b8894" stroke="#7b8894" points="214.5,-183.17 211,-173.17 207.5,-183.17 214.5,-183.17"/>
</g>
<!-- 36e04a12451147b6806fae4e9874ffa0 -->
<g id="node9" class="node">
<title>36e04a12451147b6806fae4e9874ffa0</title>
<image xlink:href="/workspaces/sov-cloud-brain-trek/.venv/lib/python3.12/site-packages/resources/azure/devops/repos.png" width="101px" height="101px" preserveAspectRatio="xMinYMin meet" x="304.5" y="-155"/>
<text text-anchor="middle" x="355" y="-39.6" font-family="Sans-Serif" font-size="13.00" fill="#2d3436">Sovereign</text>
</g>
<!-- cae34a5f3747408bac562b877fb3c889&#45;&gt;36e04a12451147b6806fae4e9874ffa0 -->
<g id="edge7" class="edge">
<title>cae34a5f3747408bac562b877fb3c889&#45;&gt;36e04a12451147b6806fae4e9874ffa0</title>
<path fill="none" stroke="#7b8894" d="M261.16,-231.92C273.3,-215.57 286.35,-197.99 298.75,-181.28"/>
<polygon fill="#7b8894" stroke="#7b8894" points="301.62,-183.28 304.77,-173.17 296,-179.11 301.62,-183.28"/>
</g>
<!-- 90549d63bb82449ea1b9bff00f2846b2 -->
<g id="node11" class="node">
<title>90549d63bb82449ea1b9bff00f2846b2</title>
<image xlink:href="/workspaces/sov-cloud-brain-trek/.venv/lib/python3.12/site-packages/resources/onprem/compute/server.png" width="101px" height="101px" preserveAspectRatio="xMinYMin meet" x="736.5" y="-569.5"/>
<text text-anchor="middle" x="787" y="-454.1" font-family="Sans-Serif" font-size="13.00" fill="#2d3436">Node 2</text>
</g>
<!-- 7c6e9aea4e6144ff9a88a905fc254d06 -->
<g id="node12" class="node">
<title>7c6e9aea4e6144ff9a88a905fc254d06</title>
<image xlink:href="/workspaces/sov-cloud-brain-trek/.venv/lib/python3.12/site-packages/resources/onprem/compute/server.png" width="101px" height="101px" preserveAspectRatio="xMinYMin meet" x="592.5" y="-569.5"/>
<text text-anchor="middle" x="643" y="-454.1" font-family="Sans-Serif" font-size="13.00" fill="#2d3436">Node 3</text>
</g>
<!-- c19b12a976c8465db7d2e196082e1781 -->
<g id="node14" class="node">
<title>c19b12a976c8465db7d2e196082e1781</title>
<image xlink:href="/workspaces/sov-cloud-brain-trek/.venv/lib/python3.12/site-packages/resources/onprem/compute/server.png" width="101px" height="101px" preserveAspectRatio="xMinYMin meet" x="1168.5" y="-569.5"/>
<text text-anchor="middle" x="1219" y="-454.1" font-family="Sans-Serif" font-size="13.00" fill="#2d3436">Linux</text>
</g>
<!-- e58ea724caf64e31befa5670156fca80 -->
<g id="node15" class="node">
<title>e58ea724caf64e31befa5670156fca80</title>
<image xlink:href="/workspaces/sov-cloud-brain-trek/.venv/lib/python3.12/site-packages/resources/onprem/compute/server.png" width="101px" height="101px" preserveAspectRatio="xMinYMin meet" x="1024.5" y="-569.5"/>
<text text-anchor="middle" x="1075" y="-454.1" font-family="Sans-Serif" font-size="13.00" fill="#2d3436">SQL</text>
</g>
<!-- 3c8035ca4bed4c1eaf74e135b6e27bd8 -->
<g id="node17" class="node">
<title>3c8035ca4bed4c1eaf74e135b6e27bd8</title>
<image xlink:href="/workspaces/sov-cloud-brain-trek/.venv/lib/python3.12/site-packages/resources/onprem/container/docker.png" width="101px" height="101px" preserveAspectRatio="xMinYMin meet" x="1600.5" y="-569.5"/>
<text text-anchor="middle" x="1651" y="-454.1" font-family="Sans-Serif" font-size="13.00" fill="#2d3436">App 1</text>
</g>
<!-- 405ca24145b740e5a15c200ae66e9328 -->
<g id="node18" class="node">
<title>405ca24145b740e5a15c200ae66e9328</title>
<image xlink:href="/workspaces/sov-cloud-brain-trek/.venv/lib/python3.12/site-packages/resources/onprem/container/docker.png" width="101px" height="101px" preserveAspectRatio="xMinYMin meet" x="1456.5" y="-569.5"/>
<text text-anchor="middle" x="1507" y="-454.1" font-family="Sans-Serif" font-size="13.00" fill="#2d3436">App 2</text>
</g>
<!-- 41afcb6032c34af0bc331cf4b9b717d4 -->
<g id="node20" class="node">
<title>41afcb6032c34af0bc331cf4b9b717d4</title>
<image xlink:href="/workspaces/sov-cloud-brain-trek/.venv/lib/python3.12/site-packages/resources/aws/compute/ec2.png" width="101px" height="101px" preserveAspectRatio="xMinYMin meet" x="2032.5" y="-569.5"/>
<text text-anchor="middle" x="2083" y="-454.1" font-family="Sans-Serif" font-size="13.00" fill="#2d3436">EC2</text>
</g>
<!-- 482dfea2ea344b01ac278dbb5d6999c3 -->
<g id="node23" class="node">
<title>482dfea2ea344b01ac278dbb5d6999c3</title>
<image xlink:href="/workspaces/sov-cloud-brain-trek/.venv/lib/python3.12/site-packages/resources/gcp/compute/compute-engine.png" width="101px" height="101px" preserveAspectRatio="xMinYMin meet" x="2464.5" y="-569.5"/>
<text text-anchor="middle" x="2515" y="-454.1" font-family="Sans-Serif" font-size="13.00" fill="#2d3436">GCE</text>
</g>
</g>
</svg>
