<?xml version="1.0" encoding="UTF-8" standalone="no"?>
<!DOCTYPE svg PUBLIC "-//W3C//DTD SVG 1.1//EN"
 "http://www.w3.org/Graphics/SVG/1.1/DTD/svg11.dtd">
<!-- Generated by graphviz version 2.43.0 (0)
 -->
<!-- Title: Software&#45;Defined Networking (SDN) Architecture Pages: 1 -->
<svg width="1304pt" height="1607pt"
 viewBox="0.00 0.00 1303.60 1606.60" xmlns="http://www.w3.org/2000/svg" xmlns:xlink="http://www.w3.org/1999/xlink">
<g id="graph0" class="graph" transform="scale(1 1) rotate(0) translate(28.8 1577.8)">
<title>Software&#45;Defined Networking (SDN) Architecture</title>
<polygon fill="white" stroke="transparent" points="-28.8,28.8 -28.8,-1577.8 1274.8,-1577.8 1274.8,28.8 -28.8,28.8"/>
<text text-anchor="middle" x="623" y="-7.2" font-family="Sans-Serif" font-size="11.00" fill="#2d3436">Software&#45;Defined Networking (SDN) Architecture</text>
<g id="clust1" class="cluster">
<title>cluster_SDN Control Plane</title>
<path fill="#e8f4fd" stroke="#aeb6be" stroke-width="2" d="M573,-741C573,-741 674,-741 674,-741 680,-741 686,-747 686,-753 686,-753 686,-1337 686,-1337 686,-1343 680,-1349 674,-1349 674,-1349 573,-1349 573,-1349 567,-1349 561,-1343 561,-1337 561,-1337 561,-753 561,-753 561,-747 567,-741 573,-741"/>
<text text-anchor="middle" x="623.5" y="-1335.4" font-family="Sans-Serif" font-size="12.00" fill="#2d3436">SDN Control Plane</text>
</g>
<g id="clust2" class="cluster">
<title>cluster_Physical Network</title>
<path fill="#fff4e6" stroke="#aeb6be" d="M713,-755.5C713,-755.5 944,-755.5 944,-755.5 950,-755.5 956,-761.5 956,-767.5 956,-767.5 956,-917.5 956,-917.5 956,-923.5 950,-929.5 944,-929.5 944,-929.5 713,-929.5 713,-929.5 707,-929.5 701,-923.5 701,-917.5 701,-917.5 701,-767.5 701,-767.5 701,-761.5 707,-755.5 713,-755.5"/>
<text text-anchor="middle" x="760.5" y="-915.9" font-family="Sans-Serif" font-size="12.00" fill="#2d3436">Physical Network</text>
</g>
<g id="clust3" class="cluster">
<title>cluster_Hyper&#45;V Hosts</title>
<path fill="#f3e8ff" stroke="#aeb6be" d="M20,-491C20,-491 1226,-491 1226,-491 1232,-491 1238,-497 1238,-503 1238,-503 1238,-690 1238,-690 1238,-696 1232,-702 1226,-702 1226,-702 20,-702 20,-702 14,-702 8,-696 8,-690 8,-690 8,-503 8,-503 8,-497 14,-491 20,-491"/>
<text text-anchor="middle" x="58.5" y="-688.4" font-family="Sans-Serif" font-size="12.00" fill="#2d3436">Hyper&#45;V Hosts</text>
</g>
<g id="clust4" class="cluster">
<title>cluster_Host 1</title>
<path fill="#ebf3e7" stroke="#aeb6be" d="M28,-499C28,-499 396,-499 396,-499 402,-499 408,-505 408,-511 408,-511 408,-661 408,-661 408,-667 402,-673 396,-673 396,-673 28,-673 28,-673 22,-673 16,-667 16,-661 16,-661 16,-511 16,-511 16,-505 22,-499 28,-499"/>
<text text-anchor="middle" x="43.5" y="-659.4" font-family="Sans-Serif" font-size="12.00" fill="#2d3436">Host 1</text>
</g>
<g id="clust5" class="cluster">
<title>cluster_Host 2</title>
<path fill="#ebf3e7" stroke="#aeb6be" d="M439,-499C439,-499 807,-499 807,-499 813,-499 819,-505 819,-511 819,-511 819,-661 819,-661 819,-667 813,-673 807,-673 807,-673 439,-673 439,-673 433,-673 427,-667 427,-661 427,-661 427,-511 427,-511 427,-505 433,-499 439,-499"/>
<text text-anchor="middle" x="454.5" y="-659.4" font-family="Sans-Serif" font-size="12.00" fill="#2d3436">Host 2</text>
</g>
<g id="clust6" class="cluster">
<title>cluster_Host 3</title>
<path fill="#ebf3e7" stroke="#aeb6be" d="M850,-499C850,-499 1218,-499 1218,-499 1224,-499 1230,-505 1230,-511 1230,-511 1230,-661 1230,-661 1230,-667 1224,-673 1218,-673 1218,-673 850,-673 850,-673 844,-673 838,-667 838,-661 838,-661 838,-511 838,-511 838,-505 844,-499 850,-499"/>
<text text-anchor="middle" x="865.5" y="-659.4" font-family="Sans-Serif" font-size="12.00" fill="#2d3436">Host 3</text>
</g>
<g id="clust7" class="cluster">
<title>cluster_Virtual Networks (Overlay)</title>
<path fill="#d4e9d7" stroke="#aeb6be" d="M612,-257C612,-257 980,-257 980,-257 986,-257 992,-263 992,-269 992,-269 992,-448 992,-448 992,-454 986,-460 980,-460 980,-460 612,-460 612,-460 606,-460 600,-454 600,-448 600,-448 600,-269 600,-269 600,-263 606,-257 612,-257"/>
<text text-anchor="middle" x="687.5" y="-446.4" font-family="Sans-Serif" font-size="12.00" fill="#2d3436">Virtual Networks (Overlay)</text>
</g>
<g id="clust8" class="cluster">
<title>cluster_Network Security</title>
<path fill="#ffe6e6" stroke="#aeb6be" d="M612,-28C612,-28 843,-28 843,-28 849,-28 855,-34 855,-40 855,-40 855,-219 855,-219 855,-225 849,-231 843,-231 843,-231 612,-231 612,-231 606,-231 600,-225 600,-219 600,-219 600,-40 600,-40 600,-34 606,-28 612,-28"/>
<text text-anchor="middle" x="659.5" y="-217.4" font-family="Sans-Serif" font-size="12.00" fill="#2d3436">Network Security</text>
</g>
<!-- a6993704104d46558814141a677211a2 -->
<g id="node1" class="node">
<title>a6993704104d46558814141a677211a2</title>
<image xlink:href="/workspaces/sov-cloud-brain-trek/.venv/lib/python3.12/site-packages/resources/onprem/network/internet.png" width="101px" height="101px" preserveAspectRatio="xMinYMin meet" x="572.5" y="-1516.5"/>
<text text-anchor="middle" x="623" y="-1400.6" font-family="Sans-Serif" font-size="13.00" fill="#2d3436">External</text>
<text text-anchor="middle" x="623" y="-1386.6" font-family="Sans-Serif" font-size="13.00" fill="#2d3436">Network</text>
</g>
<!-- e637812c7cc54d58b740046f72603d60 -->
<g id="node4" class="node">
<title>e637812c7cc54d58b740046f72603d60</title>
<image xlink:href="/workspaces/sov-cloud-brain-trek/.venv/lib/python3.12/site-packages/resources/generic/network/router.png" width="101px" height="101px" preserveAspectRatio="xMinYMin meet" x="572.5" y="-1287.5"/>
<text text-anchor="middle" x="623" y="-1171.6" font-family="Sans-Serif" font-size="13.00" fill="#2d3436">SDN</text>
<text text-anchor="middle" x="623" y="-1157.6" font-family="Sans-Serif" font-size="13.00" fill="#2d3436">Gateway</text>
</g>
<!-- a6993704104d46558814141a677211a2&#45;&gt;e637812c7cc54d58b740046f72603d60 -->
<g id="edge1" class="edge">
<title>a6993704104d46558814141a677211a2&#45;&gt;e637812c7cc54d58b740046f72603d60</title>
<path fill="none" stroke="#7b8894" d="M623,-1382.73C623,-1365.76 623,-1347.78 623,-1330.47"/>
<polygon fill="#7b8894" stroke="#7b8894" points="626.5,-1330.37 623,-1320.37 619.5,-1330.37 626.5,-1330.37"/>
</g>
<!-- 3b2342c920f34f7e98f2c1d8a8ba43e7 -->
<g id="node2" class="node">
<title>3b2342c920f34f7e98f2c1d8a8ba43e7</title>
<image xlink:href="/workspaces/sov-cloud-brain-trek/.venv/lib/python3.12/site-packages/resources/onprem/compute/server.png" width="101px" height="101px" preserveAspectRatio="xMinYMin meet" x="572.5" y="-882.5"/>
<text text-anchor="middle" x="623" y="-766.6" font-family="Sans-Serif" font-size="13.00" fill="#2d3436">Network</text>
<text text-anchor="middle" x="623" y="-752.6" font-family="Sans-Serif" font-size="13.00" fill="#2d3436">Controller</text>
</g>
<!-- 20efd296a1044975b25b854562755765 -->
<g id="node7" class="node">
<title>20efd296a1044975b25b854562755765</title>
<image xlink:href="/workspaces/sov-cloud-brain-trek/.venv/lib/python3.12/site-packages/resources/generic/network/switch.png" width="101px" height="101px" preserveAspectRatio="xMinYMin meet" x="298.5" y="-626"/>
<text text-anchor="middle" x="349" y="-510.6" font-family="Sans-Serif" font-size="13.00" fill="#2d3436">vSwitch</text>
</g>
<!-- 3b2342c920f34f7e98f2c1d8a8ba43e7&#45;&gt;20efd296a1044975b25b854562755765 -->
<g id="edge4" class="edge">
<title>3b2342c920f34f7e98f2c1d8a8ba43e7&#45;&gt;20efd296a1044975b25b854562755765</title>
<path fill="none" stroke="blue" stroke-dasharray="5,2" d="M572.46,-808.32C527.58,-786.23 462.42,-749.12 418,-702 404.57,-687.75 392.87,-670.39 383.11,-653.18"/>
<polygon fill="blue" stroke="blue" points="386.06,-651.29 378.18,-644.21 379.93,-654.66 386.06,-651.29"/>
<text text-anchor="middle" x="460.5" y="-713.6" font-family="Sans-Serif" font-size="13.00" fill="#2d3436">Control</text>
</g>
<!-- 49cea0488fe949669126eef43e4785c7 -->
<g id="node10" class="node">
<title>49cea0488fe949669126eef43e4785c7</title>
<image xlink:href="/workspaces/sov-cloud-brain-trek/.venv/lib/python3.12/site-packages/resources/generic/network/switch.png" width="101px" height="101px" preserveAspectRatio="xMinYMin meet" x="709.5" y="-626"/>
<text text-anchor="middle" x="760" y="-510.6" font-family="Sans-Serif" font-size="13.00" fill="#2d3436">vSwitch</text>
</g>
<!-- 3b2342c920f34f7e98f2c1d8a8ba43e7&#45;&gt;49cea0488fe949669126eef43e4785c7 -->
<g id="edge5" class="edge">
<title>3b2342c920f34f7e98f2c1d8a8ba43e7&#45;&gt;49cea0488fe949669126eef43e4785c7</title>
<path fill="none" stroke="blue" stroke-dasharray="5,2" d="M667.29,-748.72C683.87,-717.93 702.62,-683.09 718.9,-652.85"/>
<polygon fill="blue" stroke="blue" points="721.98,-654.51 723.64,-644.04 715.82,-651.19 721.98,-654.51"/>
</g>
<!-- 5934d40b96864ed3adafc74a852f8b00 -->
<g id="node13" class="node">
<title>5934d40b96864ed3adafc74a852f8b00</title>
<image xlink:href="/workspaces/sov-cloud-brain-trek/.venv/lib/python3.12/site-packages/resources/generic/network/switch.png" width="101px" height="101px" preserveAspectRatio="xMinYMin meet" x="1120.5" y="-626"/>
<text text-anchor="middle" x="1171" y="-510.6" font-family="Sans-Serif" font-size="13.00" fill="#2d3436">vSwitch</text>
</g>
<!-- 3b2342c920f34f7e98f2c1d8a8ba43e7&#45;&gt;5934d40b96864ed3adafc74a852f8b00 -->
<g id="edge6" class="edge">
<title>3b2342c920f34f7e98f2c1d8a8ba43e7&#45;&gt;5934d40b96864ed3adafc74a852f8b00</title>
<path fill="none" stroke="blue" stroke-dasharray="5,2" d="M673.65,-754.24C679.33,-749.16 685.45,-744.62 692,-741 712.07,-729.89 1083.87,-714.65 1103,-702 1120.84,-690.2 1134.38,-672.08 1144.5,-653.26"/>
<polygon fill="blue" stroke="blue" points="1147.65,-654.78 1149.05,-644.28 1141.4,-651.62 1147.65,-654.78"/>
</g>
<!-- b19d5dc7ee474f4f972a2fca14fbb153 -->
<g id="node3" class="node">
<title>b19d5dc7ee474f4f972a2fca14fbb153</title>
<image xlink:href="/workspaces/sov-cloud-brain-trek/.venv/lib/python3.12/site-packages/resources/azure/network/load-balancers.png" width="101px" height="101px" preserveAspectRatio="xMinYMin meet" x="572.5" y="-1085"/>
<text text-anchor="middle" x="623" y="-969.6" font-family="Sans-Serif" font-size="13.00" fill="#2d3436">SLB MUX</text>
</g>
<!-- b19d5dc7ee474f4f972a2fca14fbb153&#45;&gt;3b2342c920f34f7e98f2c1d8a8ba43e7 -->
<g id="edge3" class="edge">
<title>b19d5dc7ee474f4f972a2fca14fbb153&#45;&gt;3b2342c920f34f7e98f2c1d8a8ba43e7</title>
<path fill="none" stroke="#7b8894" d="M623,-965.9C623,-952.94 623,-939.17 623,-925.59"/>
<polygon fill="#7b8894" stroke="#7b8894" points="626.5,-925.26 623,-915.26 619.5,-925.26 626.5,-925.26"/>
</g>
<!-- e637812c7cc54d58b740046f72603d60&#45;&gt;b19d5dc7ee474f4f972a2fca14fbb153 -->
<g id="edge2" class="edge">
<title>e637812c7cc54d58b740046f72603d60&#45;&gt;b19d5dc7ee474f4f972a2fca14fbb153</title>
<path fill="none" stroke="#7b8894" d="M623,-1153.87C623,-1140.43 623,-1126.53 623,-1113.2"/>
<polygon fill="#7b8894" stroke="#7b8894" points="626.5,-1113.13 623,-1103.13 619.5,-1113.13 626.5,-1113.13"/>
</g>
<!-- fb31a17e661b43029356cb6044b29625 -->
<g id="node5" class="node">
<title>fb31a17e661b43029356cb6044b29625</title>
<image xlink:href="/workspaces/sov-cloud-brain-trek/.venv/lib/python3.12/site-packages/resources/generic/network/switch.png" width="101px" height="101px" preserveAspectRatio="xMinYMin meet" x="709.5" y="-882.5"/>
<text text-anchor="middle" x="760" y="-767.1" font-family="Sans-Serif" font-size="13.00" fill="#2d3436">ToR Switch 1</text>
</g>
<!-- fb31a17e661b43029356cb6044b29625&#45;&gt;20efd296a1044975b25b854562755765 -->
<g id="edge7" class="edge">
<title>fb31a17e661b43029356cb6044b29625&#45;&gt;20efd296a1044975b25b854562755765</title>
<path fill="none" stroke="#7b8894" d="M720.61,-763.24C713.09,-754.65 704.54,-746.84 695,-741 617.9,-693.82 583.64,-721.62 494,-710 477.16,-707.82 432.14,-711.4 418,-702 400.12,-690.12 386.46,-671.98 376.19,-653.16"/>
<polygon fill="#7b8894" stroke="#7b8894" points="379.26,-651.47 371.57,-644.18 373.04,-654.67 379.26,-651.47"/>
</g>
<!-- fb31a17e661b43029356cb6044b29625&#45;&gt;49cea0488fe949669126eef43e4785c7 -->
<g id="edge8" class="edge">
<title>fb31a17e661b43029356cb6044b29625&#45;&gt;49cea0488fe949669126eef43e4785c7</title>
<path fill="none" stroke="#7b8894" d="M760,-763.47C760,-729.96 760,-689.31 760,-654.48"/>
<polygon fill="#7b8894" stroke="#7b8894" points="763.5,-654.35 760,-644.35 756.5,-654.35 763.5,-654.35"/>
</g>
<!-- 873be456b79c44f3b44ef46e9ba3c1c9 -->
<g id="node6" class="node">
<title>873be456b79c44f3b44ef46e9ba3c1c9</title>
<image xlink:href="/workspaces/sov-cloud-brain-trek/.venv/lib/python3.12/site-packages/resources/generic/network/switch.png" width="101px" height="101px" preserveAspectRatio="xMinYMin meet" x="846.5" y="-882.5"/>
<text text-anchor="middle" x="897" y="-767.1" font-family="Sans-Serif" font-size="13.00" fill="#2d3436">ToR Switch 2</text>
</g>
<!-- 873be456b79c44f3b44ef46e9ba3c1c9&#45;&gt;49cea0488fe949669126eef43e4785c7 -->
<g id="edge9" class="edge">
<title>873be456b79c44f3b44ef46e9ba3c1c9&#45;&gt;49cea0488fe949669126eef43e4785c7</title>
<path fill="none" stroke="#7b8894" d="M860.65,-763.47C842.45,-729.67 820.35,-688.61 801.5,-653.58"/>
<polygon fill="#7b8894" stroke="#7b8894" points="804.35,-651.5 796.52,-644.35 798.18,-654.81 804.35,-651.5"/>
</g>
<!-- 873be456b79c44f3b44ef46e9ba3c1c9&#45;&gt;5934d40b96864ed3adafc74a852f8b00 -->
<g id="edge10" class="edge">
<title>873be456b79c44f3b44ef46e9ba3c1c9&#45;&gt;5934d40b96864ed3adafc74a852f8b00</title>
<path fill="none" stroke="#7b8894" d="M947.86,-808.44C993.01,-786.43 1058.52,-749.37 1103,-702 1116.36,-687.77 1127.94,-670.42 1137.56,-653.21"/>
<polygon fill="#7b8894" stroke="#7b8894" points="1140.74,-654.7 1142.42,-644.24 1134.58,-651.37 1140.74,-654.7"/>
</g>
<!-- b192707ec79e4e669a6c1825d07b99cc -->
<g id="node16" class="node">
<title>b192707ec79e4e669a6c1825d07b99cc</title>
<image xlink:href="/workspaces/sov-cloud-brain-trek/.venv/lib/python3.12/site-packages/resources/azure/network/virtual-networks.png" width="101px" height="101px" preserveAspectRatio="xMinYMin meet" x="608.5" y="-398.5"/>
<text text-anchor="middle" x="659" y="-282.6" font-family="Sans-Serif" font-size="13.00" fill="#2d3436">Tenant 1</text>
<text text-anchor="middle" x="659" y="-268.6" font-family="Sans-Serif" font-size="13.00" fill="#2d3436">VNet</text>
</g>
<!-- 20efd296a1044975b25b854562755765&#45;&gt;b192707ec79e4e669a6c1825d07b99cc -->
<g id="edge11" class="edge">
<title>20efd296a1044975b25b854562755765&#45;&gt;b192707ec79e4e669a6c1825d07b99cc</title>
<path fill="none" stroke="#7b8894" d="M399.63,-508.6C405.54,-502.36 411.71,-496.37 418,-491 473.82,-443.38 547.7,-402.5 598.88,-377"/>
<polygon fill="#7b8894" stroke="#7b8894" points="600.74,-379.98 608.16,-372.42 597.65,-373.71 600.74,-379.98"/>
<text text-anchor="middle" x="463.5" y="-471.6" font-family="Sans-Serif" font-size="13.00" fill="#2d3436">VXLAN</text>
</g>
<!-- bf153b29dffe48118abffd1b9d62ae70 -->
<g id="node8" class="node">
<title>bf153b29dffe48118abffd1b9d62ae70</title>
<image xlink:href="/workspaces/sov-cloud-brain-trek/.venv/lib/python3.12/site-packages/resources/generic/virtualization/vmware.png" width="101px" height="101px" preserveAspectRatio="xMinYMin meet" x="161.5" y="-626"/>
<text text-anchor="middle" x="212" y="-510.6" font-family="Sans-Serif" font-size="13.00" fill="#2d3436">VM</text>
</g>
<!-- dbd6973a62364f19bfb8498bb133ab71 -->
<g id="node9" class="node">
<title>dbd6973a62364f19bfb8498bb133ab71</title>
<image xlink:href="/workspaces/sov-cloud-brain-trek/.venv/lib/python3.12/site-packages/resources/generic/virtualization/vmware.png" width="101px" height="101px" preserveAspectRatio="xMinYMin meet" x="24.5" y="-626"/>
<text text-anchor="middle" x="75" y="-510.6" font-family="Sans-Serif" font-size="13.00" fill="#2d3436">VM</text>
</g>
<!-- 49cea0488fe949669126eef43e4785c7&#45;&gt;b192707ec79e4e669a6c1825d07b99cc -->
<g id="edge12" class="edge">
<title>49cea0488fe949669126eef43e4785c7&#45;&gt;b192707ec79e4e669a6c1825d07b99cc</title>
<path fill="none" stroke="#7b8894" d="M729.7,-506.84C720.39,-486.07 709.99,-462.85 700.09,-440.75"/>
<polygon fill="#7b8894" stroke="#7b8894" points="703.17,-439.05 695.89,-431.36 696.78,-441.91 703.17,-439.05"/>
</g>
<!-- 8b94fe34171649ecbaaa05580b973f3c -->
<g id="node17" class="node">
<title>8b94fe34171649ecbaaa05580b973f3c</title>
<image xlink:href="/workspaces/sov-cloud-brain-trek/.venv/lib/python3.12/site-packages/resources/azure/network/virtual-networks.png" width="101px" height="101px" preserveAspectRatio="xMinYMin meet" x="745.5" y="-398.5"/>
<text text-anchor="middle" x="796" y="-282.6" font-family="Sans-Serif" font-size="13.00" fill="#2d3436">Tenant 2</text>
<text text-anchor="middle" x="796" y="-268.6" font-family="Sans-Serif" font-size="13.00" fill="#2d3436">VNet</text>
</g>
<!-- 49cea0488fe949669126eef43e4785c7&#45;&gt;8b94fe34171649ecbaaa05580b973f3c -->
<g id="edge13" class="edge">
<title>49cea0488fe949669126eef43e4785c7&#45;&gt;8b94fe34171649ecbaaa05580b973f3c</title>
<path fill="none" stroke="#7b8894" d="M770.8,-506.84C774.09,-486.25 777.76,-463.27 781.26,-441.34"/>
<polygon fill="#7b8894" stroke="#7b8894" points="784.73,-441.78 782.85,-431.36 777.82,-440.68 784.73,-441.78"/>
</g>
<!-- 35891e6772db4c09ba3dbd92dbcc3344 -->
<g id="node11" class="node">
<title>35891e6772db4c09ba3dbd92dbcc3344</title>
<image xlink:href="/workspaces/sov-cloud-brain-trek/.venv/lib/python3.12/site-packages/resources/generic/virtualization/vmware.png" width="101px" height="101px" preserveAspectRatio="xMinYMin meet" x="572.5" y="-626"/>
<text text-anchor="middle" x="623" y="-510.6" font-family="Sans-Serif" font-size="13.00" fill="#2d3436">VM</text>
</g>
<!-- 7e0f213cd3de4f2b95c7367835b1b9d3 -->
<g id="node12" class="node">
<title>7e0f213cd3de4f2b95c7367835b1b9d3</title>
<image xlink:href="/workspaces/sov-cloud-brain-trek/.venv/lib/python3.12/site-packages/resources/generic/virtualization/vmware.png" width="101px" height="101px" preserveAspectRatio="xMinYMin meet" x="435.5" y="-626"/>
<text text-anchor="middle" x="486" y="-510.6" font-family="Sans-Serif" font-size="13.00" fill="#2d3436">VM</text>
</g>
<!-- f8cdb7291c1b49de98ba68025527562d -->
<g id="node18" class="node">
<title>f8cdb7291c1b49de98ba68025527562d</title>
<image xlink:href="/workspaces/sov-cloud-brain-trek/.venv/lib/python3.12/site-packages/resources/azure/network/virtual-networks.png" width="101px" height="101px" preserveAspectRatio="xMinYMin meet" x="882.5" y="-398.5"/>
<text text-anchor="middle" x="933" y="-282.6" font-family="Sans-Serif" font-size="13.00" fill="#2d3436">Shared</text>
<text text-anchor="middle" x="933" y="-268.6" font-family="Sans-Serif" font-size="13.00" fill="#2d3436">Services</text>
</g>
<!-- 5934d40b96864ed3adafc74a852f8b00&#45;&gt;f8cdb7291c1b49de98ba68025527562d -->
<g id="edge14" class="edge">
<title>5934d40b96864ed3adafc74a852f8b00&#45;&gt;f8cdb7291c1b49de98ba68025527562d</title>
<path fill="none" stroke="#7b8894" d="M1120.23,-509.59C1114.58,-503.16 1108.78,-496.85 1103,-491 1068.23,-455.79 1025.46,-420.1 991.52,-393.31"/>
<polygon fill="#7b8894" stroke="#7b8894" points="993.56,-390.46 983.53,-387.04 989.24,-395.97 993.56,-390.46"/>
</g>
<!-- 937fa70b295a45de996fa2961c22faa8 -->
<g id="node14" class="node">
<title>937fa70b295a45de996fa2961c22faa8</title>
<image xlink:href="/workspaces/sov-cloud-brain-trek/.venv/lib/python3.12/site-packages/resources/generic/virtualization/vmware.png" width="101px" height="101px" preserveAspectRatio="xMinYMin meet" x="983.5" y="-626"/>
<text text-anchor="middle" x="1034" y="-510.6" font-family="Sans-Serif" font-size="13.00" fill="#2d3436">VM</text>
</g>
<!-- a6a7362e41ce4462948ef5de989f26c0 -->
<g id="node15" class="node">
<title>a6a7362e41ce4462948ef5de989f26c0</title>
<image xlink:href="/workspaces/sov-cloud-brain-trek/.venv/lib/python3.12/site-packages/resources/generic/virtualization/vmware.png" width="101px" height="101px" preserveAspectRatio="xMinYMin meet" x="846.5" y="-626"/>
<text text-anchor="middle" x="897" y="-510.6" font-family="Sans-Serif" font-size="13.00" fill="#2d3436">VM</text>
</g>
<!-- 8525726949a540f0a3a3859569c3f013 -->
<g id="node19" class="node">
<title>8525726949a540f0a3a3859569c3f013</title>
<image xlink:href="/workspaces/sov-cloud-brain-trek/.venv/lib/python3.12/site-packages/resources/generic/network/firewall.png" width="101px" height="101px" preserveAspectRatio="xMinYMin meet" x="608.5" y="-169.5"/>
<text text-anchor="middle" x="659" y="-53.6" font-family="Sans-Serif" font-size="13.00" fill="#2d3436">Distributed</text>
<text text-anchor="middle" x="659" y="-39.6" font-family="Sans-Serif" font-size="13.00" fill="#2d3436">Firewall</text>
</g>
<!-- b192707ec79e4e669a6c1825d07b99cc&#45;&gt;8525726949a540f0a3a3859569c3f013 -->
<g id="edge15" class="edge">
<title>b192707ec79e4e669a6c1825d07b99cc&#45;&gt;8525726949a540f0a3a3859569c3f013</title>
<path fill="none" stroke="#7b8894" d="M659,-264.73C659,-247.76 659,-229.78 659,-212.47"/>
<polygon fill="#7b8894" stroke="#7b8894" points="662.5,-212.37 659,-202.37 655.5,-212.37 662.5,-212.37"/>
</g>
<!-- d9d61b2392a84036ade7b4d455d3a089 -->
<g id="node20" class="node">
<title>d9d61b2392a84036ade7b4d455d3a089</title>
<image xlink:href="/workspaces/sov-cloud-brain-trek/.venv/lib/python3.12/site-packages/resources/generic/network/firewall.png" width="101px" height="101px" preserveAspectRatio="xMinYMin meet" x="745.5" y="-169.5"/>
<text text-anchor="middle" x="796" y="-53.6" font-family="Sans-Serif" font-size="13.00" fill="#2d3436">Network</text>
<text text-anchor="middle" x="796" y="-39.6" font-family="Sans-Serif" font-size="13.00" fill="#2d3436">ACLs</text>
</g>
<!-- 8b94fe34171649ecbaaa05580b973f3c&#45;&gt;d9d61b2392a84036ade7b4d455d3a089 -->
<g id="edge16" class="edge">
<title>8b94fe34171649ecbaaa05580b973f3c&#45;&gt;d9d61b2392a84036ade7b4d455d3a089</title>
<path fill="none" stroke="#7b8894" d="M796,-264.73C796,-247.76 796,-229.78 796,-212.47"/>
<polygon fill="#7b8894" stroke="#7b8894" points="799.5,-212.37 796,-202.37 792.5,-212.37 799.5,-212.37"/>
</g>
</g>
</svg>
