<?xml version="1.0" encoding="UTF-8" standalone="no"?>
<!DOCTYPE svg PUBLIC "-//W3C//DTD SVG 1.1//EN"
 "http://www.w3.org/Graphics/SVG/1.1/DTD/svg11.dtd">
<!-- Generated by graphviz version 2.43.0 (0)
 -->
<!-- Title: Storage Spaces Direct (S2D) Architecture Pages: 1 -->
<svg width="1715pt" height="1380pt"
 viewBox="0.00 0.00 1714.60 1379.60" xmlns="http://www.w3.org/2000/svg" xmlns:xlink="http://www.w3.org/1999/xlink">
<g id="graph0" class="graph" transform="scale(1 1) rotate(0) translate(28.8 1350.8)">
<title>Storage Spaces Direct (S2D) Architecture</title>
<polygon fill="white" stroke="transparent" points="-28.8,28.8 -28.8,-1350.8 1685.8,-1350.8 1685.8,28.8 -28.8,28.8"/>
<text text-anchor="middle" x="828.5" y="-7.2" font-family="Sans-Serif" font-size="11.00" fill="#2d3436">Storage Spaces Direct (S2D) Architecture</text>
<g id="clust1" class="cluster">
<title>cluster_Physical Storage Layer</title>
<path fill="#fff4e6" stroke="#aeb6be" d="M20,-1074C20,-1074 1637,-1074 1637,-1074 1643,-1074 1649,-1080 1649,-1086 1649,-1086 1649,-1302 1649,-1302 1649,-1308 1643,-1314 1637,-1314 1637,-1314 20,-1314 20,-1314 14,-1314 8,-1308 8,-1302 8,-1302 8,-1086 8,-1086 8,-1080 14,-1074 20,-1074"/>
<text text-anchor="middle" x="84.5" y="-1300.4" font-family="Sans-Serif" font-size="12.00" fill="#2d3436">Physical Storage Layer</text>
</g>
<g id="clust2" class="cluster">
<title>cluster_Node 1</title>
<path fill="#ebf3e7" stroke="#aeb6be" d="M1124,-1082C1124,-1082 1629,-1082 1629,-1082 1635,-1082 1641,-1088 1641,-1094 1641,-1094 1641,-1273 1641,-1273 1641,-1279 1635,-1285 1629,-1285 1629,-1285 1124,-1285 1124,-1285 1118,-1285 1112,-1279 1112,-1273 1112,-1273 1112,-1094 1112,-1094 1112,-1088 1118,-1082 1124,-1082"/>
<text text-anchor="middle" x="1141.5" y="-1271.4" font-family="Sans-Serif" font-size="12.00" fill="#2d3436">Node 1</text>
</g>
<g id="clust3" class="cluster">
<title>cluster_Node 2</title>
<path fill="#ebf3e7" stroke="#aeb6be" d="M576,-1082C576,-1082 1081,-1082 1081,-1082 1087,-1082 1093,-1088 1093,-1094 1093,-1094 1093,-1273 1093,-1273 1093,-1279 1087,-1285 1081,-1285 1081,-1285 576,-1285 576,-1285 570,-1285 564,-1279 564,-1273 564,-1273 564,-1094 564,-1094 564,-1088 570,-1082 576,-1082"/>
<text text-anchor="middle" x="593.5" y="-1271.4" font-family="Sans-Serif" font-size="12.00" fill="#2d3436">Node 2</text>
</g>
<g id="clust4" class="cluster">
<title>cluster_Node 3</title>
<path fill="#ebf3e7" stroke="#aeb6be" d="M28,-1082C28,-1082 533,-1082 533,-1082 539,-1082 545,-1088 545,-1094 545,-1094 545,-1273 545,-1273 545,-1279 539,-1285 533,-1285 533,-1285 28,-1285 28,-1285 22,-1285 16,-1279 16,-1273 16,-1273 16,-1094 16,-1094 16,-1088 22,-1082 28,-1082"/>
<text text-anchor="middle" x="45.5" y="-1271.4" font-family="Sans-Serif" font-size="12.00" fill="#2d3436">Node 3</text>
</g>
<g id="clust5" class="cluster">
<title>cluster_Storage Bus Layer (SBL)</title>
<path fill="#e8f4fd" stroke="#aeb6be" d="M896,-863C896,-863 1034,-863 1034,-863 1040,-863 1046,-869 1046,-875 1046,-875 1046,-1054 1046,-1054 1046,-1060 1040,-1066 1034,-1066 1034,-1066 896,-1066 896,-1066 890,-1066 884,-1060 884,-1054 884,-1054 884,-875 884,-875 884,-869 890,-863 896,-863"/>
<text text-anchor="middle" x="965" y="-1052.4" font-family="Sans-Serif" font-size="12.00" fill="#2d3436">Storage Bus Layer (SBL)</text>
</g>
<g id="clust6" class="cluster">
<title>cluster_Storage Pool</title>
<path fill="#f3e8ff" stroke="#aeb6be" d="M918,-647C918,-647 1012,-647 1012,-647 1018,-647 1024,-653 1024,-659 1024,-659 1024,-838 1024,-838 1024,-844 1018,-850 1012,-850 1012,-850 918,-850 918,-850 912,-850 906,-844 906,-838 906,-838 906,-659 906,-659 906,-653 912,-647 918,-647"/>
<text text-anchor="middle" x="952" y="-836.4" font-family="Sans-Serif" font-size="12.00" fill="#2d3436">Storage Pool</text>
</g>
<g id="clust7" class="cluster">
<title>cluster_Virtual Disks (Resiliency)</title>
<path fill="#d4e9d7" stroke="#aeb6be" d="M781,-431C781,-431 1149,-431 1149,-431 1155,-431 1161,-437 1161,-443 1161,-443 1161,-622 1161,-622 1161,-628 1155,-634 1149,-634 1149,-634 781,-634 781,-634 775,-634 769,-628 769,-622 769,-622 769,-443 769,-443 769,-437 775,-431 781,-431"/>
<text text-anchor="middle" x="849.5" y="-620.4" font-family="Sans-Serif" font-size="12.00" fill="#2d3436">Virtual Disks (Resiliency)</text>
</g>
<g id="clust8" class="cluster">
<title>cluster_Cluster Shared Volumes</title>
<path fill="#ffe6e6" stroke="#aeb6be" d="M781,-215C781,-215 1149,-215 1149,-215 1155,-215 1161,-221 1161,-227 1161,-227 1161,-406 1161,-406 1161,-412 1155,-418 1149,-418 1149,-418 781,-418 781,-418 775,-418 769,-412 769,-406 769,-406 769,-227 769,-227 769,-221 775,-215 781,-215"/>
<text text-anchor="middle" x="848.5" y="-404.4" font-family="Sans-Serif" font-size="12.00" fill="#2d3436">Cluster Shared Volumes</text>
</g>
<g id="clust9" class="cluster">
<title>cluster_Virtual Machines</title>
<path fill="#e6e6e6" stroke="#aeb6be" d="M781,-28C781,-28 1149,-28 1149,-28 1155,-28 1161,-34 1161,-40 1161,-40 1161,-190 1161,-190 1161,-196 1155,-202 1149,-202 1149,-202 781,-202 781,-202 775,-202 769,-196 769,-190 769,-190 769,-40 769,-40 769,-34 775,-28 781,-28"/>
<text text-anchor="middle" x="827" y="-188.4" font-family="Sans-Serif" font-size="12.00" fill="#2d3436">Virtual Machines</text>
</g>
<!-- f63de31bdc55420eb75aa36d5c4cdcd0 -->
<g id="node1" class="node">
<title>f63de31bdc55420eb75aa36d5c4cdcd0</title>
<image xlink:href="/workspaces/sov-cloud-brain-trek/.venv/lib/python3.12/site-packages/resources/generic/storage/storage.png" width="101px" height="101px" preserveAspectRatio="xMinYMin meet" x="1531.5" y="-1223.5"/>
<text text-anchor="middle" x="1582" y="-1107.6" font-family="Sans-Serif" font-size="13.00" fill="#2d3436">NVMe</text>
<text text-anchor="middle" x="1582" y="-1093.6" font-family="Sans-Serif" font-size="13.00" fill="#2d3436">Cache</text>
</g>
<!-- b317ff22f4b1430aa66ac35b9cdded55 -->
<g id="node13" class="node">
<title>b317ff22f4b1430aa66ac35b9cdded55</title>
<image xlink:href="/workspaces/sov-cloud-brain-trek/.venv/lib/python3.12/site-packages/resources/generic/network/switch.png" width="101px" height="101px" preserveAspectRatio="xMinYMin meet" x="914.5" y="-1004.5"/>
<text text-anchor="middle" x="965" y="-888.6" font-family="Sans-Serif" font-size="13.00" fill="#2d3436">Software</text>
<text text-anchor="middle" x="965" y="-874.6" font-family="Sans-Serif" font-size="13.00" fill="#2d3436">Storage Bus</text>
</g>
<!-- f63de31bdc55420eb75aa36d5c4cdcd0&#45;&gt;b317ff22f4b1430aa66ac35b9cdded55 -->
<g id="edge1" class="edge">
<title>f63de31bdc55420eb75aa36d5c4cdcd0&#45;&gt;b317ff22f4b1430aa66ac35b9cdded55</title>
<path fill="none" stroke="#7b8894" stroke-dasharray="5,2" d="M1532.73,-1089.8C1526.96,-1083.88 1520.72,-1078.49 1514,-1074 1360.2,-971.29 1133.01,-955.45 1025.55,-954.14"/>
<polygon fill="#7b8894" stroke="#7b8894" points="1025.56,-950.64 1015.53,-954.05 1025.5,-957.64 1025.56,-950.64"/>
</g>
<!-- d37de5b0a15845aba965384a6892afbc -->
<g id="node2" class="node">
<title>d37de5b0a15845aba965384a6892afbc</title>
<image xlink:href="/workspaces/sov-cloud-brain-trek/.venv/lib/python3.12/site-packages/resources/generic/storage/storage.png" width="101px" height="101px" preserveAspectRatio="xMinYMin meet" x="1394.5" y="-1223.5"/>
<text text-anchor="middle" x="1445" y="-1107.6" font-family="Sans-Serif" font-size="13.00" fill="#2d3436">NVMe</text>
<text text-anchor="middle" x="1445" y="-1093.6" font-family="Sans-Serif" font-size="13.00" fill="#2d3436">Cache</text>
</g>
<!-- d37de5b0a15845aba965384a6892afbc&#45;&gt;b317ff22f4b1430aa66ac35b9cdded55 -->
<g id="edge2" class="edge">
<title>d37de5b0a15845aba965384a6892afbc&#45;&gt;b317ff22f4b1430aa66ac35b9cdded55</title>
<path fill="none" stroke="#7b8894" stroke-dasharray="5,2" d="M1394.96,-1089.82C1389.39,-1083.98 1383.39,-1078.59 1377,-1074 1269.05,-996.49 1111.34,-969.22 1025.74,-959.81"/>
<polygon fill="#7b8894" stroke="#7b8894" points="1025.98,-956.31 1015.67,-958.74 1025.25,-963.27 1025.98,-956.31"/>
</g>
<!-- be01a8d6d40c43879284ee742f549b08 -->
<g id="node3" class="node">
<title>be01a8d6d40c43879284ee742f549b08</title>
<image xlink:href="/workspaces/sov-cloud-brain-trek/.venv/lib/python3.12/site-packages/resources/generic/storage/storage.png" width="101px" height="101px" preserveAspectRatio="xMinYMin meet" x="1257.5" y="-1223.5"/>
<text text-anchor="middle" x="1308" y="-1107.6" font-family="Sans-Serif" font-size="13.00" fill="#2d3436">SSD</text>
<text text-anchor="middle" x="1308" y="-1093.6" font-family="Sans-Serif" font-size="13.00" fill="#2d3436">Capacity</text>
</g>
<!-- f8d5f5731a7b435c890d96e125bb7d04 -->
<g id="node4" class="node">
<title>f8d5f5731a7b435c890d96e125bb7d04</title>
<image xlink:href="/workspaces/sov-cloud-brain-trek/.venv/lib/python3.12/site-packages/resources/generic/storage/storage.png" width="101px" height="101px" preserveAspectRatio="xMinYMin meet" x="1120.5" y="-1223.5"/>
<text text-anchor="middle" x="1171" y="-1107.6" font-family="Sans-Serif" font-size="13.00" fill="#2d3436">SSD</text>
<text text-anchor="middle" x="1171" y="-1093.6" font-family="Sans-Serif" font-size="13.00" fill="#2d3436">Capacity</text>
</g>
<!-- 4766ddfee03443a982d96505493b088a -->
<g id="node5" class="node">
<title>4766ddfee03443a982d96505493b088a</title>
<image xlink:href="/workspaces/sov-cloud-brain-trek/.venv/lib/python3.12/site-packages/resources/generic/storage/storage.png" width="101px" height="101px" preserveAspectRatio="xMinYMin meet" x="983.5" y="-1223.5"/>
<text text-anchor="middle" x="1034" y="-1107.6" font-family="Sans-Serif" font-size="13.00" fill="#2d3436">NVMe</text>
<text text-anchor="middle" x="1034" y="-1093.6" font-family="Sans-Serif" font-size="13.00" fill="#2d3436">Cache</text>
</g>
<!-- 4766ddfee03443a982d96505493b088a&#45;&gt;b317ff22f4b1430aa66ac35b9cdded55 -->
<g id="edge3" class="edge">
<title>4766ddfee03443a982d96505493b088a&#45;&gt;b317ff22f4b1430aa66ac35b9cdded55</title>
<path fill="none" stroke="#7b8894" stroke-dasharray="5,2" d="M1007.91,-1089.96C1003.45,-1075.92 998.78,-1061.25 994.24,-1046.97"/>
<polygon fill="#7b8894" stroke="#7b8894" points="997.49,-1045.62 991.12,-1037.15 990.82,-1047.74 997.49,-1045.62"/>
</g>
<!-- 706d91ed892b465688444c4b81ff5135 -->
<g id="node6" class="node">
<title>706d91ed892b465688444c4b81ff5135</title>
<image xlink:href="/workspaces/sov-cloud-brain-trek/.venv/lib/python3.12/site-packages/resources/generic/storage/storage.png" width="101px" height="101px" preserveAspectRatio="xMinYMin meet" x="846.5" y="-1223.5"/>
<text text-anchor="middle" x="897" y="-1107.6" font-family="Sans-Serif" font-size="13.00" fill="#2d3436">NVMe</text>
<text text-anchor="middle" x="897" y="-1093.6" font-family="Sans-Serif" font-size="13.00" fill="#2d3436">Cache</text>
</g>
<!-- 706d91ed892b465688444c4b81ff5135&#45;&gt;b317ff22f4b1430aa66ac35b9cdded55 -->
<g id="edge4" class="edge">
<title>706d91ed892b465688444c4b81ff5135&#45;&gt;b317ff22f4b1430aa66ac35b9cdded55</title>
<path fill="none" stroke="#7b8894" stroke-dasharray="5,2" d="M922.71,-1089.96C927.11,-1075.92 931.71,-1061.25 936.18,-1046.97"/>
<polygon fill="#7b8894" stroke="#7b8894" points="939.61,-1047.74 939.26,-1037.15 932.93,-1045.65 939.61,-1047.74"/>
</g>
<!-- 0b8fa9c28e9f4972843bcb5ff464cc7b -->
<g id="node7" class="node">
<title>0b8fa9c28e9f4972843bcb5ff464cc7b</title>
<image xlink:href="/workspaces/sov-cloud-brain-trek/.venv/lib/python3.12/site-packages/resources/generic/storage/storage.png" width="101px" height="101px" preserveAspectRatio="xMinYMin meet" x="709.5" y="-1223.5"/>
<text text-anchor="middle" x="760" y="-1107.6" font-family="Sans-Serif" font-size="13.00" fill="#2d3436">SSD</text>
<text text-anchor="middle" x="760" y="-1093.6" font-family="Sans-Serif" font-size="13.00" fill="#2d3436">Capacity</text>
</g>
<!-- f31b2d9b634745a692ee02d44e49b897 -->
<g id="node8" class="node">
<title>f31b2d9b634745a692ee02d44e49b897</title>
<image xlink:href="/workspaces/sov-cloud-brain-trek/.venv/lib/python3.12/site-packages/resources/generic/storage/storage.png" width="101px" height="101px" preserveAspectRatio="xMinYMin meet" x="572.5" y="-1223.5"/>
<text text-anchor="middle" x="623" y="-1107.6" font-family="Sans-Serif" font-size="13.00" fill="#2d3436">SSD</text>
<text text-anchor="middle" x="623" y="-1093.6" font-family="Sans-Serif" font-size="13.00" fill="#2d3436">Capacity</text>
</g>
<!-- 5092493e1a7b42129aeaebd435fa3792 -->
<g id="node9" class="node">
<title>5092493e1a7b42129aeaebd435fa3792</title>
<image xlink:href="/workspaces/sov-cloud-brain-trek/.venv/lib/python3.12/site-packages/resources/generic/storage/storage.png" width="101px" height="101px" preserveAspectRatio="xMinYMin meet" x="435.5" y="-1223.5"/>
<text text-anchor="middle" x="486" y="-1107.6" font-family="Sans-Serif" font-size="13.00" fill="#2d3436">NVMe</text>
<text text-anchor="middle" x="486" y="-1093.6" font-family="Sans-Serif" font-size="13.00" fill="#2d3436">Cache</text>
</g>
<!-- 5092493e1a7b42129aeaebd435fa3792&#45;&gt;b317ff22f4b1430aa66ac35b9cdded55 -->
<g id="edge5" class="edge">
<title>5092493e1a7b42129aeaebd435fa3792&#45;&gt;b317ff22f4b1430aa66ac35b9cdded55</title>
<path fill="none" stroke="#7b8894" stroke-dasharray="5,2" d="M536.89,-1089.83C542.52,-1083.98 548.56,-1078.59 555,-1074 662.54,-997.24 819.1,-969.68 904.28,-960.02"/>
<polygon fill="#7b8894" stroke="#7b8894" points="904.74,-963.49 914.3,-958.93 903.98,-956.53 904.74,-963.49"/>
</g>
<!-- 2f5ba224dc224711823d059e7b1624e6 -->
<g id="node10" class="node">
<title>2f5ba224dc224711823d059e7b1624e6</title>
<image xlink:href="/workspaces/sov-cloud-brain-trek/.venv/lib/python3.12/site-packages/resources/generic/storage/storage.png" width="101px" height="101px" preserveAspectRatio="xMinYMin meet" x="298.5" y="-1223.5"/>
<text text-anchor="middle" x="349" y="-1107.6" font-family="Sans-Serif" font-size="13.00" fill="#2d3436">NVMe</text>
<text text-anchor="middle" x="349" y="-1093.6" font-family="Sans-Serif" font-size="13.00" fill="#2d3436">Cache</text>
</g>
<!-- 2f5ba224dc224711823d059e7b1624e6&#45;&gt;b317ff22f4b1430aa66ac35b9cdded55 -->
<g id="edge6" class="edge">
<title>2f5ba224dc224711823d059e7b1624e6&#45;&gt;b317ff22f4b1430aa66ac35b9cdded55</title>
<path fill="none" stroke="#7b8894" stroke-dasharray="5,2" d="M399.11,-1089.8C404.93,-1083.88 411.24,-1078.49 418,-1074 571.22,-972.34 796.74,-955.95 904,-954.31"/>
<polygon fill="#7b8894" stroke="#7b8894" points="904.36,-957.81 914.32,-954.2 904.28,-950.81 904.36,-957.81"/>
</g>
<!-- 18f7fc4390da4aebbc42c1e509993a41 -->
<g id="node11" class="node">
<title>18f7fc4390da4aebbc42c1e509993a41</title>
<image xlink:href="/workspaces/sov-cloud-brain-trek/.venv/lib/python3.12/site-packages/resources/generic/storage/storage.png" width="101px" height="101px" preserveAspectRatio="xMinYMin meet" x="161.5" y="-1223.5"/>
<text text-anchor="middle" x="212" y="-1107.6" font-family="Sans-Serif" font-size="13.00" fill="#2d3436">SSD</text>
<text text-anchor="middle" x="212" y="-1093.6" font-family="Sans-Serif" font-size="13.00" fill="#2d3436">Capacity</text>
</g>
<!-- ebe2d8da90fc471aa30e02f43f96c3bf -->
<g id="node12" class="node">
<title>ebe2d8da90fc471aa30e02f43f96c3bf</title>
<image xlink:href="/workspaces/sov-cloud-brain-trek/.venv/lib/python3.12/site-packages/resources/generic/storage/storage.png" width="101px" height="101px" preserveAspectRatio="xMinYMin meet" x="24.5" y="-1223.5"/>
<text text-anchor="middle" x="75" y="-1107.6" font-family="Sans-Serif" font-size="13.00" fill="#2d3436">SSD</text>
<text text-anchor="middle" x="75" y="-1093.6" font-family="Sans-Serif" font-size="13.00" fill="#2d3436">Capacity</text>
</g>
<!-- c186221db5564744af950541c92897dd -->
<g id="node14" class="node">
<title>c186221db5564744af950541c92897dd</title>
<image xlink:href="/workspaces/sov-cloud-brain-trek/.venv/lib/python3.12/site-packages/resources/generic/storage/storage.png" width="101px" height="101px" preserveAspectRatio="xMinYMin meet" x="914.5" y="-788.5"/>
<text text-anchor="middle" x="965" y="-672.6" font-family="Sans-Serif" font-size="13.00" fill="#2d3436">Unified</text>
<text text-anchor="middle" x="965" y="-658.6" font-family="Sans-Serif" font-size="13.00" fill="#2d3436">Storage Pool</text>
</g>
<!-- b317ff22f4b1430aa66ac35b9cdded55&#45;&gt;c186221db5564744af950541c92897dd -->
<g id="edge7" class="edge">
<title>b317ff22f4b1430aa66ac35b9cdded55&#45;&gt;c186221db5564744af950541c92897dd</title>
<path fill="none" stroke="#7b8894" d="M965,-870.87C965,-857.91 965,-844.43 965,-831.26"/>
<polygon fill="#7b8894" stroke="#7b8894" points="968.5,-831.26 965,-821.26 961.5,-831.26 968.5,-831.26"/>
</g>
<!-- 458f5b5108da47569fce0d0cbaaec8ad -->
<g id="node15" class="node">
<title>458f5b5108da47569fce0d0cbaaec8ad</title>
<image xlink:href="/workspaces/sov-cloud-brain-trek/.venv/lib/python3.12/site-packages/resources/generic/storage/storage.png" width="101px" height="101px" preserveAspectRatio="xMinYMin meet" x="1051.5" y="-572.5"/>
<text text-anchor="middle" x="1102" y="-456.6" font-family="Sans-Serif" font-size="13.00" fill="#2d3436">2&#45;Way</text>
<text text-anchor="middle" x="1102" y="-442.6" font-family="Sans-Serif" font-size="13.00" fill="#2d3436">Mirror</text>
</g>
<!-- c186221db5564744af950541c92897dd&#45;&gt;458f5b5108da47569fce0d0cbaaec8ad -->
<g id="edge8" class="edge">
<title>c186221db5564744af950541c92897dd&#45;&gt;458f5b5108da47569fce0d0cbaaec8ad</title>
<path fill="none" stroke="#7b8894" d="M1015.67,-662.13C1021.9,-652.7 1028.14,-643.15 1034,-634 1038.2,-627.44 1042.5,-620.64 1046.8,-613.78"/>
<polygon fill="#7b8894" stroke="#7b8894" points="1049.91,-615.41 1052.24,-605.07 1043.98,-611.7 1049.91,-615.41"/>
</g>
<!-- d93302e427754dfba44ec5d6d2b17b60 -->
<g id="node16" class="node">
<title>d93302e427754dfba44ec5d6d2b17b60</title>
<image xlink:href="/workspaces/sov-cloud-brain-trek/.venv/lib/python3.12/site-packages/resources/generic/storage/storage.png" width="101px" height="101px" preserveAspectRatio="xMinYMin meet" x="914.5" y="-572.5"/>
<text text-anchor="middle" x="965" y="-456.6" font-family="Sans-Serif" font-size="13.00" fill="#2d3436">3&#45;Way</text>
<text text-anchor="middle" x="965" y="-442.6" font-family="Sans-Serif" font-size="13.00" fill="#2d3436">Mirror</text>
</g>
<!-- c186221db5564744af950541c92897dd&#45;&gt;d93302e427754dfba44ec5d6d2b17b60 -->
<g id="edge9" class="edge">
<title>c186221db5564744af950541c92897dd&#45;&gt;d93302e427754dfba44ec5d6d2b17b60</title>
<path fill="none" stroke="#7b8894" d="M965,-654.87C965,-641.91 965,-628.43 965,-615.26"/>
<polygon fill="#7b8894" stroke="#7b8894" points="968.5,-615.26 965,-605.26 961.5,-615.26 968.5,-615.26"/>
</g>
<!-- 90560b6777a64f468dec2150be15fb70 -->
<g id="node17" class="node">
<title>90560b6777a64f468dec2150be15fb70</title>
<image xlink:href="/workspaces/sov-cloud-brain-trek/.venv/lib/python3.12/site-packages/resources/generic/storage/storage.png" width="101px" height="101px" preserveAspectRatio="xMinYMin meet" x="777.5" y="-572.5"/>
<text text-anchor="middle" x="828" y="-456.6" font-family="Sans-Serif" font-size="13.00" fill="#2d3436">Parity</text>
<text text-anchor="middle" x="828" y="-442.6" font-family="Sans-Serif" font-size="13.00" fill="#2d3436">(Erasure)</text>
</g>
<!-- c186221db5564744af950541c92897dd&#45;&gt;90560b6777a64f468dec2150be15fb70 -->
<g id="edge10" class="edge">
<title>c186221db5564744af950541c92897dd&#45;&gt;90560b6777a64f468dec2150be15fb70</title>
<path fill="none" stroke="#7b8894" d="M914.45,-660.94C908.53,-651.88 902.61,-642.75 897,-634 892.78,-627.42 888.45,-620.6 884.11,-613.72"/>
<polygon fill="#7b8894" stroke="#7b8894" points="886.91,-611.59 878.62,-604.99 880.98,-615.32 886.91,-611.59"/>
</g>
<!-- 0c9aa4e5eda84e6cacfb034bcca53724 -->
<g id="node18" class="node">
<title>0c9aa4e5eda84e6cacfb034bcca53724</title>
<image xlink:href="/workspaces/sov-cloud-brain-trek/.venv/lib/python3.12/site-packages/resources/azure/storage/blob-storage.png" width="101px" height="101px" preserveAspectRatio="xMinYMin meet" x="1051.5" y="-356.5"/>
<text text-anchor="middle" x="1102" y="-240.6" font-family="Sans-Serif" font-size="13.00" fill="#2d3436">CSV1</text>
<text text-anchor="middle" x="1102" y="-226.6" font-family="Sans-Serif" font-size="13.00" fill="#2d3436">VMs</text>
</g>
<!-- 458f5b5108da47569fce0d0cbaaec8ad&#45;&gt;0c9aa4e5eda84e6cacfb034bcca53724 -->
<g id="edge11" class="edge">
<title>458f5b5108da47569fce0d0cbaaec8ad&#45;&gt;0c9aa4e5eda84e6cacfb034bcca53724</title>
<path fill="none" stroke="#7b8894" d="M1102,-438.87C1102,-425.91 1102,-412.43 1102,-399.26"/>
<polygon fill="#7b8894" stroke="#7b8894" points="1105.5,-399.26 1102,-389.26 1098.5,-399.26 1105.5,-399.26"/>
</g>
<!-- c4f1a1db14134393a6ccd4266cf0d497 -->
<g id="node19" class="node">
<title>c4f1a1db14134393a6ccd4266cf0d497</title>
<image xlink:href="/workspaces/sov-cloud-brain-trek/.venv/lib/python3.12/site-packages/resources/azure/storage/blob-storage.png" width="101px" height="101px" preserveAspectRatio="xMinYMin meet" x="914.5" y="-356.5"/>
<text text-anchor="middle" x="965" y="-240.6" font-family="Sans-Serif" font-size="13.00" fill="#2d3436">CSV2</text>
<text text-anchor="middle" x="965" y="-226.6" font-family="Sans-Serif" font-size="13.00" fill="#2d3436">Data</text>
</g>
<!-- d93302e427754dfba44ec5d6d2b17b60&#45;&gt;c4f1a1db14134393a6ccd4266cf0d497 -->
<g id="edge12" class="edge">
<title>d93302e427754dfba44ec5d6d2b17b60&#45;&gt;c4f1a1db14134393a6ccd4266cf0d497</title>
<path fill="none" stroke="#7b8894" d="M965,-438.87C965,-425.91 965,-412.43 965,-399.26"/>
<polygon fill="#7b8894" stroke="#7b8894" points="968.5,-399.26 965,-389.26 961.5,-399.26 968.5,-399.26"/>
</g>
<!-- 399f3afe48b3474db548336157d95358 -->
<g id="node20" class="node">
<title>399f3afe48b3474db548336157d95358</title>
<image xlink:href="/workspaces/sov-cloud-brain-trek/.venv/lib/python3.12/site-packages/resources/azure/storage/blob-storage.png" width="101px" height="101px" preserveAspectRatio="xMinYMin meet" x="777.5" y="-356.5"/>
<text text-anchor="middle" x="828" y="-240.6" font-family="Sans-Serif" font-size="13.00" fill="#2d3436">CSV3</text>
<text text-anchor="middle" x="828" y="-226.6" font-family="Sans-Serif" font-size="13.00" fill="#2d3436">Backup</text>
</g>
<!-- 90560b6777a64f468dec2150be15fb70&#45;&gt;399f3afe48b3474db548336157d95358 -->
<g id="edge13" class="edge">
<title>90560b6777a64f468dec2150be15fb70&#45;&gt;399f3afe48b3474db548336157d95358</title>
<path fill="none" stroke="#7b8894" d="M828,-438.87C828,-425.91 828,-412.43 828,-399.26"/>
<polygon fill="#7b8894" stroke="#7b8894" points="831.5,-399.26 828,-389.26 824.5,-399.26 831.5,-399.26"/>
</g>
<!-- d4d7b82a04484d139da2218df8a14765 -->
<g id="node21" class="node">
<title>d4d7b82a04484d139da2218df8a14765</title>
<image xlink:href="/workspaces/sov-cloud-brain-trek/.venv/lib/python3.12/site-packages/resources/generic/virtualization/vmware.png" width="101px" height="101px" preserveAspectRatio="xMinYMin meet" x="1051.5" y="-155"/>
<text text-anchor="middle" x="1102" y="-39.6" font-family="Sans-Serif" font-size="13.00" fill="#2d3436">VM 1</text>
</g>
<!-- 0c9aa4e5eda84e6cacfb034bcca53724&#45;&gt;d4d7b82a04484d139da2218df8a14765 -->
<g id="edge14" class="edge">
<title>0c9aa4e5eda84e6cacfb034bcca53724&#45;&gt;d4d7b82a04484d139da2218df8a14765</title>
<path fill="none" stroke="#7b8894" d="M1102,-222.99C1102,-209.93 1102,-196.45 1102,-183.49"/>
<polygon fill="#7b8894" stroke="#7b8894" points="1105.5,-183.22 1102,-173.22 1098.5,-183.22 1105.5,-183.22"/>
</g>
<!-- 03bfa4851fba4986a8f9c2bbb40c5f4c -->
<g id="node22" class="node">
<title>03bfa4851fba4986a8f9c2bbb40c5f4c</title>
<image xlink:href="/workspaces/sov-cloud-brain-trek/.venv/lib/python3.12/site-packages/resources/generic/virtualization/vmware.png" width="101px" height="101px" preserveAspectRatio="xMinYMin meet" x="914.5" y="-155"/>
<text text-anchor="middle" x="965" y="-39.6" font-family="Sans-Serif" font-size="13.00" fill="#2d3436">VM 2</text>
</g>
<!-- c4f1a1db14134393a6ccd4266cf0d497&#45;&gt;03bfa4851fba4986a8f9c2bbb40c5f4c -->
<g id="edge15" class="edge">
<title>c4f1a1db14134393a6ccd4266cf0d497&#45;&gt;03bfa4851fba4986a8f9c2bbb40c5f4c</title>
<path fill="none" stroke="#7b8894" d="M965,-222.99C965,-209.93 965,-196.45 965,-183.49"/>
<polygon fill="#7b8894" stroke="#7b8894" points="968.5,-183.22 965,-173.22 961.5,-183.22 968.5,-183.22"/>
</g>
<!-- b2092e15cd784684aae847991c3f4c47 -->
<g id="node23" class="node">
<title>b2092e15cd784684aae847991c3f4c47</title>
<image xlink:href="/workspaces/sov-cloud-brain-trek/.venv/lib/python3.12/site-packages/resources/generic/virtualization/vmware.png" width="101px" height="101px" preserveAspectRatio="xMinYMin meet" x="777.5" y="-155"/>
<text text-anchor="middle" x="828" y="-39.6" font-family="Sans-Serif" font-size="13.00" fill="#2d3436">VM 3</text>
</g>
<!-- 399f3afe48b3474db548336157d95358&#45;&gt;b2092e15cd784684aae847991c3f4c47 -->
<g id="edge16" class="edge">
<title>399f3afe48b3474db548336157d95358&#45;&gt;b2092e15cd784684aae847991c3f4c47</title>
<path fill="none" stroke="#7b8894" d="M828,-222.99C828,-209.93 828,-196.45 828,-183.49"/>
<polygon fill="#7b8894" stroke="#7b8894" points="831.5,-183.22 828,-173.22 824.5,-183.22 831.5,-183.22"/>
</g>
</g>
</svg>
