<?xml version="1.0" encoding="UTF-8" standalone="no"?>
<!DOCTYPE svg PUBLIC "-//W3C//DTD SVG 1.1//EN"
 "http://www.w3.org/Graphics/SVG/1.1/DTD/svg11.dtd">
<!-- Generated by graphviz version 2.43.0 (0)
 -->
<!-- Title: Air&#45;Gapped Azure Local Architecture Pages: 1 -->
<svg width="2159pt" height="883pt"
 viewBox="0.00 0.00 2158.60 882.60" xmlns="http://www.w3.org/2000/svg" xmlns:xlink="http://www.w3.org/1999/xlink">
<g id="graph0" class="graph" transform="scale(1 1) rotate(0) translate(28.8 853.8)">
<title>Air&#45;Gapped Azure Local Architecture</title>
<polygon fill="white" stroke="transparent" points="-28.8,28.8 -28.8,-853.8 2129.8,-853.8 2129.8,28.8 -28.8,28.8"/>
<text text-anchor="middle" x="1050.5" y="-7.2" font-family="Sans-Serif" font-size="11.00" fill="#2d3436">Air&#45;Gapped Azure Local Architecture</text>
<g id="clust1" class="cluster">
<title>cluster_External (NO CONNECTIVITY)</title>
<path fill="#ffe6e6" stroke="#aeb6be" stroke-dasharray="5,2" d="M20,-556C20,-556 258,-556 258,-556 264,-556 270,-562 270,-568 270,-568 270,-747 270,-747 270,-753 264,-759 258,-759 258,-759 20,-759 20,-759 14,-759 8,-753 8,-747 8,-747 8,-568 8,-568 8,-562 14,-556 20,-556"/>
<text text-anchor="middle" x="103.5" y="-745.4" font-family="Sans-Serif" font-size="12.00" fill="#2d3436">External (NO CONNECTIVITY)</text>
</g>
<g id="clust2" class="cluster">
<title>cluster_Secure Facility (SCIF/Air&#45;Gapped)</title>
<path fill="#e8f4fd" stroke="#aeb6be" stroke-width="2" d="M310,-28C310,-28 1858,-28 1858,-28 1864,-28 1870,-34 1870,-40 1870,-40 1870,-805 1870,-805 1870,-811 1864,-817 1858,-817 1858,-817 310,-817 310,-817 304,-817 298,-811 298,-805 298,-805 298,-40 298,-40 298,-34 304,-28 310,-28"/>
<text text-anchor="middle" x="404" y="-803.4" font-family="Sans-Serif" font-size="12.00" fill="#2d3436">Secure Facility (SCIF/Air&#45;Gapped)</text>
</g>
<g id="clust3" class="cluster">
<title>cluster_Management Zone</title>
<path fill="#fff4e6" stroke="#aeb6be" d="M1324,-36C1324,-36 1850,-36 1850,-36 1856,-36 1862,-42 1862,-48 1862,-48 1862,-487 1862,-487 1862,-493 1856,-499 1850,-499 1850,-499 1324,-499 1324,-499 1318,-499 1312,-493 1312,-487 1312,-487 1312,-48 1312,-48 1312,-42 1318,-36 1324,-36"/>
<text text-anchor="middle" x="1377.5" y="-485.4" font-family="Sans-Serif" font-size="12.00" fill="#2d3436">Management Zone</text>
</g>
<g id="clust4" class="cluster">
<title>cluster_Compute Zone (Azure Local)</title>
<path fill="#d4e9d7" stroke="#aeb6be" d="M318,-288C318,-288 1004,-288 1004,-288 1010,-288 1016,-294 1016,-300 1016,-300 1016,-776 1016,-776 1016,-782 1010,-788 1004,-788 1004,-788 318,-788 318,-788 312,-788 306,-782 306,-776 306,-776 306,-300 306,-300 306,-294 312,-288 318,-288"/>
<text text-anchor="middle" x="400" y="-774.4" font-family="Sans-Serif" font-size="12.00" fill="#2d3436">Compute Zone (Azure Local)</text>
</g>
<g id="clust5" class="cluster">
<title>cluster_Cluster Nodes</title>
<path fill="#ece8f6" stroke="#aeb6be" d="M470,-570.5C470,-570.5 996,-570.5 996,-570.5 1002,-570.5 1008,-576.5 1008,-582.5 1008,-582.5 1008,-732.5 1008,-732.5 1008,-738.5 1002,-744.5 996,-744.5 996,-744.5 470,-744.5 470,-744.5 464,-744.5 458,-738.5 458,-732.5 458,-732.5 458,-582.5 458,-582.5 458,-576.5 464,-570.5 470,-570.5"/>
<text text-anchor="middle" x="508" y="-730.9" font-family="Sans-Serif" font-size="12.00" fill="#2d3436">Cluster Nodes</text>
</g>
<g id="clust6" class="cluster">
<title>cluster_Storage</title>
<path fill="#ece8f6" stroke="#aeb6be" d="M326,-556C326,-556 420,-556 420,-556 426,-556 432,-562 432,-568 432,-568 432,-747 432,-747 432,-753 426,-759 420,-759 420,-759 326,-759 326,-759 320,-759 314,-753 314,-747 314,-747 314,-568 314,-568 314,-562 320,-556 326,-556"/>
<text text-anchor="middle" x="346" y="-745.4" font-family="Sans-Serif" font-size="12.00" fill="#2d3436">Storage</text>
</g>
<g id="clust7" class="cluster">
<title>cluster_Workloads</title>
<path fill="#ece8f6" stroke="#aeb6be" d="M326,-296C326,-296 708,-296 708,-296 714,-296 720,-302 720,-308 720,-308 720,-487 720,-487 720,-493 714,-499 708,-499 708,-499 326,-499 326,-499 320,-499 314,-493 314,-487 314,-487 314,-308 314,-308 314,-302 320,-296 326,-296"/>
<text text-anchor="middle" x="353.5" y="-485.4" font-family="Sans-Serif" font-size="12.00" fill="#2d3436">Workloads</text>
</g>
<g id="clust8" class="cluster">
<title>cluster_Security Zone</title>
<path fill="#f3e8ff" stroke="#aeb6be" d="M892,-36C892,-36 1274,-36 1274,-36 1280,-36 1286,-42 1286,-48 1286,-48 1286,-227 1286,-227 1286,-233 1280,-239 1274,-239 1274,-239 892,-239 892,-239 886,-239 880,-233 880,-227 880,-227 880,-48 880,-48 880,-42 886,-36 892,-36"/>
<text text-anchor="middle" x="930" y="-225.4" font-family="Sans-Serif" font-size="12.00" fill="#2d3436">Security Zone</text>
</g>
<g id="clust9" class="cluster">
<title>cluster_Isolated Network</title>
<path fill="#ebf3e7" stroke="#aeb6be" d="M1036,-296C1036,-296 1274,-296 1274,-296 1280,-296 1286,-302 1286,-308 1286,-308 1286,-487 1286,-487 1286,-493 1280,-499 1274,-499 1274,-499 1036,-499 1036,-499 1030,-499 1024,-493 1024,-487 1024,-487 1024,-308 1024,-308 1024,-302 1030,-296 1036,-296"/>
<text text-anchor="middle" x="1083" y="-485.4" font-family="Sans-Serif" font-size="12.00" fill="#2d3436">Isolated Network</text>
</g>
<g id="clust10" class="cluster">
<title>cluster_Update Station (Offline Transfer)</title>
<path fill="#fff9c4" stroke="#aeb6be" d="M1895,-296C1895,-296 2081,-296 2081,-296 2087,-296 2093,-302 2093,-308 2093,-308 2093,-747 2093,-747 2093,-753 2087,-759 2081,-759 2081,-759 1895,-759 1895,-759 1889,-759 1883,-753 1883,-747 1883,-747 1883,-308 1883,-308 1883,-302 1889,-296 1895,-296"/>
<text text-anchor="middle" x="1988" y="-745.4" font-family="Sans-Serif" font-size="12.00" fill="#2d3436">Update Station (Offline Transfer)</text>
</g>
<!-- 1265e75efdfe4ec9a0b6267ec9036315 -->
<g id="node1" class="node">
<title>1265e75efdfe4ec9a0b6267ec9036315</title>
<image xlink:href="/workspaces/sov-cloud-brain-trek/.venv/lib/python3.12/site-packages/resources/onprem/network/internet.png" width="101px" height="101px" preserveAspectRatio="xMinYMin meet" x="160.5" y="-697.5"/>
<text text-anchor="middle" x="211" y="-581.6" font-family="Sans-Serif" font-size="13.00" fill="#2d3436">Internet</text>
<text text-anchor="middle" x="211" y="-567.6" font-family="Sans-Serif" font-size="13.00" fill="#2d3436">❌ Blocked</text>
</g>
<!-- ebff07fa2fc34212965d6c287eaad3a7 -->
<g id="node3" class="node">
<title>ebff07fa2fc34212965d6c287eaad3a7</title>
<image xlink:href="/workspaces/sov-cloud-brain-trek/.venv/lib/python3.12/site-packages/resources/generic/network/firewall.png" width="101px" height="101px" preserveAspectRatio="xMinYMin meet" x="160.5" y="-437.5"/>
<text text-anchor="middle" x="211" y="-321.6" font-family="Sans-Serif" font-size="13.00" fill="#2d3436">AIR GAP</text>
<text text-anchor="middle" x="211" y="-307.6" font-family="Sans-Serif" font-size="13.00" fill="#2d3436">🔒 Physical Isolation</text>
</g>
<!-- 1265e75efdfe4ec9a0b6267ec9036315&#45;&gt;ebff07fa2fc34212965d6c287eaad3a7 -->
<g id="edge16" class="edge">
<title>1265e75efdfe4ec9a0b6267ec9036315&#45;&gt;ebff07fa2fc34212965d6c287eaad3a7</title>
<path fill="none" stroke="red" stroke-dasharray="5,2" d="M211,-563.66C211,-537.11 211,-507.52 211,-480.31"/>
<polygon fill="red" stroke="red" points="214.5,-480 211,-470 207.5,-480 214.5,-480"/>
<text text-anchor="middle" x="250.5" y="-517.6" font-family="Sans-Serif" font-size="13.00" fill="#2d3436">❌ BLOCKED</text>
</g>
<!-- bac41d27d5f64d1bad79a632710a384e -->
<g id="node2" class="node">
<title>bac41d27d5f64d1bad79a632710a384e</title>
<image xlink:href="/workspaces/sov-cloud-brain-trek/.venv/lib/python3.12/site-packages/resources/onprem/compute/server.png" width="101px" height="101px" preserveAspectRatio="xMinYMin meet" x="16.5" y="-697.5"/>
<text text-anchor="middle" x="67" y="-581.6" font-family="Sans-Serif" font-size="13.00" fill="#2d3436">Azure Cloud</text>
<text text-anchor="middle" x="67" y="-567.6" font-family="Sans-Serif" font-size="13.00" fill="#2d3436">❌ No Access</text>
</g>
<!-- f7bc7da963aa493fa7188c8956a31d5d -->
<g id="node4" class="node">
<title>f7bc7da963aa493fa7188c8956a31d5d</title>
<image xlink:href="/workspaces/sov-cloud-brain-trek/.venv/lib/python3.12/site-packages/resources/onprem/compute/server.png" width="101px" height="101px" preserveAspectRatio="xMinYMin meet" x="1608.5" y="-177.5"/>
<text text-anchor="middle" x="1659" y="-61.6" font-family="Sans-Serif" font-size="13.00" fill="#2d3436">Windows</text>
<text text-anchor="middle" x="1659" y="-47.6" font-family="Sans-Serif" font-size="13.00" fill="#2d3436">Admin Center</text>
</g>
<!-- 23c901ea269445ebbf4765fd5f714c88 -->
<g id="node21" class="node">
<title>23c901ea269445ebbf4765fd5f714c88</title>
<image xlink:href="/workspaces/sov-cloud-brain-trek/.venv/lib/python3.12/site-packages/resources/generic/network/switch.png" width="101px" height="101px" preserveAspectRatio="xMinYMin meet" x="1176.5" y="-437.5"/>
<text text-anchor="middle" x="1227" y="-322.1" font-family="Sans-Serif" font-size="13.00" fill="#2d3436">Mgmt Switch</text>
</g>
<!-- f7bc7da963aa493fa7188c8956a31d5d&#45;&gt;23c901ea269445ebbf4765fd5f714c88 -->
<g id="edge2" class="edge">
<title>f7bc7da963aa493fa7188c8956a31d5d&#45;&gt;23c901ea269445ebbf4765fd5f714c88</title>
<path fill="none" stroke="#7b8894" d="M1608.33,-141.96C1535.03,-163.99 1397.73,-212.24 1302,-288 1293.57,-294.67 1285.57,-302.48 1278.15,-310.74"/>
<polygon fill="#7b8894" stroke="#7b8894" points="1275.4,-308.58 1271.5,-318.43 1280.69,-313.16 1275.4,-308.58"/>
</g>
<!-- f653c01ebb6f4bb1bd6ffe8703732d3a -->
<g id="node5" class="node">
<title>f653c01ebb6f4bb1bd6ffe8703732d3a</title>
<image xlink:href="/workspaces/sov-cloud-brain-trek/.venv/lib/python3.12/site-packages/resources/onprem/security/vault.png" width="101px" height="102.494px" preserveAspectRatio="xMinYMin meet" x="1320.5" y="-438.247"/>
<text text-anchor="middle" x="1371" y="-321.6" font-family="Sans-Serif" font-size="13.00" fill="#2d3436">Internal</text>
<text text-anchor="middle" x="1371" y="-307.6" font-family="Sans-Serif" font-size="13.00" fill="#2d3436">PKI/CA</text>
</g>
<!-- f635a59a9e274797a656b15861a232f4 -->
<g id="node19" class="node">
<title>f635a59a9e274797a656b15861a232f4</title>
<image xlink:href="/workspaces/sov-cloud-brain-trek/.venv/lib/python3.12/site-packages/resources/onprem/security/vault.png" width="101px" height="102.494px" preserveAspectRatio="xMinYMin meet" x="1176.5" y="-178.247"/>
<text text-anchor="middle" x="1227" y="-61.6" font-family="Sans-Serif" font-size="13.00" fill="#2d3436">HSM</text>
<text text-anchor="middle" x="1227" y="-47.6" font-family="Sans-Serif" font-size="13.00" fill="#2d3436">(Key Storage)</text>
</g>
<!-- f653c01ebb6f4bb1bd6ffe8703732d3a&#45;&gt;f635a59a9e274797a656b15861a232f4 -->
<g id="edge15" class="edge">
<title>f653c01ebb6f4bb1bd6ffe8703732d3a&#45;&gt;f635a59a9e274797a656b15861a232f4</title>
<path fill="none" stroke="#7b8894" d="M1325.04,-303.66C1309.96,-276.64 1293.13,-246.48 1277.72,-218.87"/>
<polygon fill="#7b8894" stroke="#7b8894" points="1280.7,-217.03 1272.77,-210 1274.59,-220.44 1280.7,-217.03"/>
</g>
<!-- fd366bb086c3427e901fcac4fd8b756a -->
<g id="node6" class="node">
<title>fd366bb086c3427e901fcac4fd8b756a</title>
<image xlink:href="/workspaces/sov-cloud-brain-trek/.venv/lib/python3.12/site-packages/resources/onprem/compute/server.png" width="101px" height="101px" preserveAspectRatio="xMinYMin meet" x="1752.5" y="-437.5"/>
<text text-anchor="middle" x="1803" y="-321.6" font-family="Sans-Serif" font-size="13.00" fill="#2d3436">Local NTP</text>
<text text-anchor="middle" x="1803" y="-307.6" font-family="Sans-Serif" font-size="13.00" fill="#2d3436">Server</text>
</g>
<!-- 77495bccea1b44e8aa4b5351a356d3b7 -->
<g id="node7" class="node">
<title>77495bccea1b44e8aa4b5351a356d3b7</title>
<image xlink:href="/workspaces/sov-cloud-brain-trek/.venv/lib/python3.12/site-packages/resources/onprem/compute/server.png" width="101px" height="101px" preserveAspectRatio="xMinYMin meet" x="1464.5" y="-437.5"/>
<text text-anchor="middle" x="1515" y="-322.1" font-family="Sans-Serif" font-size="13.00" fill="#2d3436">Local DNS</text>
</g>
<!-- 9dce7a9be5784aadaa28499aba6ab04b -->
<g id="node8" class="node">
<title>9dce7a9be5784aadaa28499aba6ab04b</title>
<image xlink:href="/workspaces/sov-cloud-brain-trek/.venv/lib/python3.12/site-packages/resources/onprem/client/users.png" width="101px" height="101px" preserveAspectRatio="xMinYMin meet" x="1608.5" y="-437.5"/>
<text text-anchor="middle" x="1659" y="-322.1" font-family="Sans-Serif" font-size="13.00" fill="#2d3436">Administrators</text>
</g>
<!-- 9dce7a9be5784aadaa28499aba6ab04b&#45;&gt;f7bc7da963aa493fa7188c8956a31d5d -->
<g id="edge1" class="edge">
<title>9dce7a9be5784aadaa28499aba6ab04b&#45;&gt;f7bc7da963aa493fa7188c8956a31d5d</title>
<path fill="none" stroke="#7b8894" d="M1659,-318.21C1659,-288.31 1659,-252.68 1659,-220.4"/>
<polygon fill="#7b8894" stroke="#7b8894" points="1662.5,-220.04 1659,-210.04 1655.5,-220.04 1662.5,-220.04"/>
</g>
<!-- 43992edf16204139bc675a5cd70ee6e4 -->
<g id="node9" class="node">
<title>43992edf16204139bc675a5cd70ee6e4</title>
<image xlink:href="/workspaces/sov-cloud-brain-trek/.venv/lib/python3.12/site-packages/resources/onprem/compute/server.png" width="101px" height="101px" preserveAspectRatio="xMinYMin meet" x="898.5" y="-697.5"/>
<text text-anchor="middle" x="949" y="-582.1" font-family="Sans-Serif" font-size="13.00" fill="#2d3436">Node 1</text>
</g>
<!-- 43992edf16204139bc675a5cd70ee6e4&#45;&gt;f653c01ebb6f4bb1bd6ffe8703732d3a -->
<g id="edge10" class="edge">
<title>43992edf16204139bc675a5cd70ee6e4&#45;&gt;f653c01ebb6f4bb1bd6ffe8703732d3a</title>
<path fill="none" stroke="#7b8894" stroke-dasharray="1,5" d="M999.75,-634.3C1071.95,-615.64 1205.58,-573.42 1296,-499 1303.54,-492.79 1310.63,-485.63 1317.2,-478"/>
<polygon fill="#7b8894" stroke="#7b8894" points="1319.95,-480.18 1323.61,-470.23 1314.55,-475.72 1319.95,-480.18"/>
<text text-anchor="middle" x="1298.5" y="-517.6" font-family="Sans-Serif" font-size="13.00" fill="#2d3436">Certs</text>
</g>
<!-- 43992edf16204139bc675a5cd70ee6e4&#45;&gt;fd366bb086c3427e901fcac4fd8b756a -->
<g id="edge11" class="edge">
<title>43992edf16204139bc675a5cd70ee6e4&#45;&gt;fd366bb086c3427e901fcac4fd8b756a</title>
<path fill="none" stroke="#7b8894" stroke-dasharray="1,5" d="M999.58,-641.69C1152.9,-627.84 1609.37,-580.54 1731,-499 1739.59,-493.24 1747.38,-486.08 1754.39,-478.19"/>
<polygon fill="#7b8894" stroke="#7b8894" points="1757.44,-480 1761.14,-470.07 1752.06,-475.52 1757.44,-480"/>
</g>
<!-- 43992edf16204139bc675a5cd70ee6e4&#45;&gt;77495bccea1b44e8aa4b5351a356d3b7 -->
<g id="edge12" class="edge">
<title>43992edf16204139bc675a5cd70ee6e4&#45;&gt;77495bccea1b44e8aa4b5351a356d3b7</title>
<path fill="none" stroke="#7b8894" stroke-dasharray="1,5" d="M999.74,-642.52C1095.49,-633.62 1305.56,-602.82 1443,-499 1455.67,-489.43 1466.75,-476.93 1476.18,-463.78"/>
<polygon fill="#7b8894" stroke="#7b8894" points="1479.06,-465.76 1481.83,-455.53 1473.29,-461.8 1479.06,-465.76"/>
</g>
<!-- c0b32115734e4938a1ca05d887715751 -->
<g id="node20" class="node">
<title>c0b32115734e4938a1ca05d887715751</title>
<image xlink:href="/workspaces/sov-cloud-brain-trek/.venv/lib/python3.12/site-packages/resources/generic/network/switch.png" width="101px" height="101px" preserveAspectRatio="xMinYMin meet" x="1032.5" y="-437.5"/>
<text text-anchor="middle" x="1083" y="-321.6" font-family="Sans-Serif" font-size="13.00" fill="#2d3436">Core Switch</text>
<text text-anchor="middle" x="1083" y="-307.6" font-family="Sans-Serif" font-size="13.00" fill="#2d3436">(Isolated)</text>
</g>
<!-- 43992edf16204139bc675a5cd70ee6e4&#45;&gt;c0b32115734e4938a1ca05d887715751 -->
<g id="edge4" class="edge">
<title>43992edf16204139bc675a5cd70ee6e4&#45;&gt;c0b32115734e4938a1ca05d887715751</title>
<path fill="none" stroke="#7b8894" d="M984.21,-578.21C999.94,-547.92 1018.72,-511.76 1035.66,-479.14"/>
<polygon fill="#7b8894" stroke="#7b8894" points="1038.89,-480.53 1040.39,-470.04 1032.67,-477.3 1038.89,-480.53"/>
</g>
<!-- a0c77d820bea4b31b07f692d94dc6812 -->
<g id="node10" class="node">
<title>a0c77d820bea4b31b07f692d94dc6812</title>
<image xlink:href="/workspaces/sov-cloud-brain-trek/.venv/lib/python3.12/site-packages/resources/onprem/compute/server.png" width="101px" height="101px" preserveAspectRatio="xMinYMin meet" x="610.5" y="-697.5"/>
<text text-anchor="middle" x="661" y="-582.1" font-family="Sans-Serif" font-size="13.00" fill="#2d3436">Node 2</text>
</g>
<!-- a0c77d820bea4b31b07f692d94dc6812&#45;&gt;c0b32115734e4938a1ca05d887715751 -->
<g id="edge5" class="edge">
<title>a0c77d820bea4b31b07f692d94dc6812&#45;&gt;c0b32115734e4938a1ca05d887715751</title>
<path fill="none" stroke="#7b8894" d="M705.05,-578.49C713.37,-569.75 722.73,-561.83 733,-556 792.69,-522.12 832.72,-578.27 886,-535 896.26,-526.67 887.76,-517.33 896,-507 929.58,-464.92 982.32,-433.29 1023.24,-413.25"/>
<polygon fill="#7b8894" stroke="#7b8894" points="1024.8,-416.39 1032.31,-408.91 1021.77,-410.07 1024.8,-416.39"/>
</g>
<!-- ad4ccce21bea4ac886d565186c785520 -->
<g id="node11" class="node">
<title>ad4ccce21bea4ac886d565186c785520</title>
<image xlink:href="/workspaces/sov-cloud-brain-trek/.venv/lib/python3.12/site-packages/resources/onprem/compute/server.png" width="101px" height="101px" preserveAspectRatio="xMinYMin meet" x="754.5" y="-697.5"/>
<text text-anchor="middle" x="805" y="-582.1" font-family="Sans-Serif" font-size="13.00" fill="#2d3436">Node 3</text>
</g>
<!-- ad4ccce21bea4ac886d565186c785520&#45;&gt;c0b32115734e4938a1ca05d887715751 -->
<g id="edge6" class="edge">
<title>ad4ccce21bea4ac886d565186c785520&#45;&gt;c0b32115734e4938a1ca05d887715751</title>
<path fill="none" stroke="#7b8894" d="M855.75,-579.24C862.64,-571.18 869.82,-563.25 877,-556 923.07,-509.49 981.34,-462.94 1024.14,-430.67"/>
<polygon fill="#7b8894" stroke="#7b8894" points="1026.31,-433.42 1032.21,-424.62 1022.11,-427.82 1026.31,-433.42"/>
</g>
<!-- 757470f4509d46f4a057ec97bd7671f0 -->
<g id="node12" class="node">
<title>757470f4509d46f4a057ec97bd7671f0</title>
<image xlink:href="/workspaces/sov-cloud-brain-trek/.venv/lib/python3.12/site-packages/resources/onprem/compute/server.png" width="101px" height="101px" preserveAspectRatio="xMinYMin meet" x="466.5" y="-697.5"/>
<text text-anchor="middle" x="517" y="-582.1" font-family="Sans-Serif" font-size="13.00" fill="#2d3436">Node 4</text>
</g>
<!-- 757470f4509d46f4a057ec97bd7671f0&#45;&gt;c0b32115734e4938a1ca05d887715751 -->
<g id="edge7" class="edge">
<title>757470f4509d46f4a057ec97bd7671f0&#45;&gt;c0b32115734e4938a1ca05d887715751</title>
<path fill="none" stroke="#7b8894" d="M560.31,-578.36C568.78,-569.51 578.38,-561.6 589,-556 644.99,-526.5 822.06,-572.55 873,-535 883.76,-527.07 875.35,-517.2 884,-507 921.34,-462.94 979.33,-430.89 1023.1,-411.23"/>
<polygon fill="#7b8894" stroke="#7b8894" points="1024.74,-414.33 1032.49,-407.1 1021.93,-407.92 1024.74,-414.33"/>
</g>
<!-- 48e2a64b8f93420d9e270c62e0492dc0 -->
<g id="node13" class="node">
<title>48e2a64b8f93420d9e270c62e0492dc0</title>
<image xlink:href="/workspaces/sov-cloud-brain-trek/.venv/lib/python3.12/site-packages/resources/generic/storage/storage.png" width="101px" height="101px" preserveAspectRatio="xMinYMin meet" x="322.5" y="-697.5"/>
<text text-anchor="middle" x="373" y="-581.6" font-family="Sans-Serif" font-size="13.00" fill="#2d3436">Storage Spaces</text>
<text text-anchor="middle" x="373" y="-567.6" font-family="Sans-Serif" font-size="13.00" fill="#2d3436">Direct</text>
</g>
<!-- c7257f688a6b42e8a3618a54e1a5108e -->
<g id="node14" class="node">
<title>c7257f688a6b42e8a3618a54e1a5108e</title>
<image xlink:href="/workspaces/sov-cloud-brain-trek/.venv/lib/python3.12/site-packages/resources/generic/virtualization/vmware.png" width="101px" height="101px" preserveAspectRatio="xMinYMin meet" x="610.5" y="-437.5"/>
<text text-anchor="middle" x="661" y="-321.6" font-family="Sans-Serif" font-size="13.00" fill="#2d3436">Classified</text>
<text text-anchor="middle" x="661" y="-307.6" font-family="Sans-Serif" font-size="13.00" fill="#2d3436">VM</text>
</g>
<!-- 48e2a64b8f93420d9e270c62e0492dc0&#45;&gt;c7257f688a6b42e8a3618a54e1a5108e -->
<g id="edge9" class="edge">
<title>48e2a64b8f93420d9e270c62e0492dc0&#45;&gt;c7257f688a6b42e8a3618a54e1a5108e</title>
<path fill="none" stroke="#7b8894" d="M423.69,-577.5C431.29,-569.65 439.45,-562.23 448,-556 502.61,-516.17 536.86,-542.01 589,-499 596.51,-492.81 603.5,-485.62 609.95,-477.94"/>
<polygon fill="#7b8894" stroke="#7b8894" points="612.7,-480.11 616.21,-470.12 607.23,-475.74 612.7,-480.11"/>
</g>
<!-- 67d17e2d6c35444a88923ae0aac648da -->
<g id="node18" class="node">
<title>67d17e2d6c35444a88923ae0aac648da</title>
<image xlink:href="/workspaces/sov-cloud-brain-trek/.venv/lib/python3.12/site-packages/resources/generic/storage/storage.png" width="101px" height="101px" preserveAspectRatio="xMinYMin meet" x="888.5" y="-177.5"/>
<text text-anchor="middle" x="939" y="-61.6" font-family="Sans-Serif" font-size="13.00" fill="#2d3436">Local Backup</text>
<text text-anchor="middle" x="939" y="-47.6" font-family="Sans-Serif" font-size="13.00" fill="#2d3436">(Tape/Disk)</text>
</g>
<!-- 48e2a64b8f93420d9e270c62e0492dc0&#45;&gt;67d17e2d6c35444a88923ae0aac648da -->
<g id="edge14" class="edge">
<title>48e2a64b8f93420d9e270c62e0492dc0&#45;&gt;67d17e2d6c35444a88923ae0aac648da</title>
<path fill="none" stroke="#7b8894" d="M423.57,-575.08C431.08,-567.82 439.27,-561.21 448,-556 475.46,-539.63 704.14,-517.8 730,-499 824.38,-430.39 881.83,-305.36 912.01,-219.56"/>
<polygon fill="#7b8894" stroke="#7b8894" points="915.32,-220.67 915.29,-210.08 908.71,-218.38 915.32,-220.67"/>
</g>
<!-- 2939fd1b1de44eddab5ec9d0274dc6a8 -->
<g id="node15" class="node">
<title>2939fd1b1de44eddab5ec9d0274dc6a8</title>
<image xlink:href="/workspaces/sov-cloud-brain-trek/.venv/lib/python3.12/site-packages/resources/generic/virtualization/vmware.png" width="101px" height="101px" preserveAspectRatio="xMinYMin meet" x="466.5" y="-437.5"/>
<text text-anchor="middle" x="517" y="-321.6" font-family="Sans-Serif" font-size="13.00" fill="#2d3436">Classified</text>
<text text-anchor="middle" x="517" y="-307.6" font-family="Sans-Serif" font-size="13.00" fill="#2d3436">VM</text>
</g>
<!-- 0d00a0166dab4266ad308c21648a7f37 -->
<g id="node16" class="node">
<title>0d00a0166dab4266ad308c21648a7f37</title>
<image xlink:href="/workspaces/sov-cloud-brain-trek/.venv/lib/python3.12/site-packages/resources/generic/virtualization/vmware.png" width="101px" height="101px" preserveAspectRatio="xMinYMin meet" x="322.5" y="-437.5"/>
<text text-anchor="middle" x="373" y="-321.6" font-family="Sans-Serif" font-size="13.00" fill="#2d3436">Classified</text>
<text text-anchor="middle" x="373" y="-307.6" font-family="Sans-Serif" font-size="13.00" fill="#2d3436">VM</text>
</g>
<!-- 341f3465e35f49b19e0f20efccdd24ae -->
<g id="node17" class="node">
<title>341f3465e35f49b19e0f20efccdd24ae</title>
<image xlink:href="/workspaces/sov-cloud-brain-trek/.venv/lib/python3.12/site-packages/resources/onprem/compute/server.png" width="101px" height="101px" preserveAspectRatio="xMinYMin meet" x="1032.5" y="-177.5"/>
<text text-anchor="middle" x="1083" y="-62.1" font-family="Sans-Serif" font-size="13.00" fill="#2d3436">Local SIEM</text>
</g>
<!-- c0b32115734e4938a1ca05d887715751&#45;&gt;48e2a64b8f93420d9e270c62e0492dc0 -->
<g id="edge8" class="edge">
<title>c0b32115734e4938a1ca05d887715751&#45;&gt;48e2a64b8f93420d9e270c62e0492dc0</title>
<path fill="none" stroke="#7b8894" d="M1032.28,-418.93C971.8,-454.04 866.5,-509.74 768,-535 698.97,-552.71 511.51,-523.68 448,-556 442.29,-558.91 436.85,-562.46 431.7,-566.46"/>
<polygon fill="#7b8894" stroke="#7b8894" points="429.24,-563.95 423.85,-573.08 433.75,-569.31 429.24,-563.95"/>
</g>
<!-- c0b32115734e4938a1ca05d887715751&#45;&gt;341f3465e35f49b19e0f20efccdd24ae -->
<g id="edge13" class="edge">
<title>c0b32115734e4938a1ca05d887715751&#45;&gt;341f3465e35f49b19e0f20efccdd24ae</title>
<path fill="none" stroke="#7b8894" d="M1083,-303.66C1083,-272.39 1083,-236.89 1083,-206.03"/>
<polygon fill="#7b8894" stroke="#7b8894" points="1086.5,-205.76 1083,-195.76 1079.5,-205.76 1086.5,-205.76"/>
</g>
<!-- 23c901ea269445ebbf4765fd5f714c88&#45;&gt;43992edf16204139bc675a5cd70ee6e4 -->
<g id="edge3" class="edge">
<title>23c901ea269445ebbf4765fd5f714c88&#45;&gt;43992edf16204139bc675a5cd70ee6e4</title>
<path fill="none" stroke="#7b8894" d="M1188.94,-455.59C1178.91,-470.69 1167.38,-486.05 1155,-499 1111.44,-544.54 1052.02,-585.2 1008.19,-612.15"/>
<polygon fill="#7b8894" stroke="#7b8894" points="1006.36,-609.16 999.64,-617.35 1010,-615.14 1006.36,-609.16"/>
</g>
<!-- a7047264fcd54fe6a4e6ccb901bb9a3a -->
<g id="node22" class="node">
<title>a7047264fcd54fe6a4e6ccb901bb9a3a</title>
<image xlink:href="/workspaces/sov-cloud-brain-trek/.venv/lib/python3.12/site-packages/resources/onprem/compute/server.png" width="101px" height="101px" preserveAspectRatio="xMinYMin meet" x="1896.5" y="-437.5"/>
<text text-anchor="middle" x="1947" y="-321.6" font-family="Sans-Serif" font-size="13.00" fill="#2d3436">Staging PC</text>
<text text-anchor="middle" x="1947" y="-307.6" font-family="Sans-Serif" font-size="13.00" fill="#2d3436">(Malware Scan)</text>
</g>
<!-- a7047264fcd54fe6a4e6ccb901bb9a3a&#45;&gt;f7bc7da963aa493fa7188c8956a31d5d -->
<g id="edge18" class="edge">
<title>a7047264fcd54fe6a4e6ccb901bb9a3a&#45;&gt;f7bc7da963aa493fa7188c8956a31d5d</title>
<path fill="none" stroke="green" d="M1896.38,-314.97C1888.6,-305.55 1880.37,-296.29 1872,-288 1824.63,-241.05 1763.04,-196.23 1718.28,-166.03"/>
<polygon fill="green" stroke="green" points="1720.1,-163.03 1709.84,-160.38 1716.2,-168.85 1720.1,-163.03"/>
<text text-anchor="middle" x="1885" y="-264.6" font-family="Sans-Serif" font-size="13.00" fill="#2d3436">Scanned</text>
<text text-anchor="middle" x="1885" y="-250.6" font-family="Sans-Serif" font-size="13.00" fill="#2d3436">Updates</text>
</g>
<!-- a4eb8bd253154b3ebcdb6eb2c4101e86 -->
<g id="node23" class="node">
<title>a4eb8bd253154b3ebcdb6eb2c4101e86</title>
<image xlink:href="/workspaces/sov-cloud-brain-trek/.venv/lib/python3.12/site-packages/resources/generic/storage/storage.png" width="101px" height="101px" preserveAspectRatio="xMinYMin meet" x="1896.5" y="-697.5"/>
<text text-anchor="middle" x="1947" y="-581.6" font-family="Sans-Serif" font-size="13.00" fill="#2d3436">USB/DVD</text>
<text text-anchor="middle" x="1947" y="-567.6" font-family="Sans-Serif" font-size="13.00" fill="#2d3436">Media</text>
</g>
<!-- a4eb8bd253154b3ebcdb6eb2c4101e86&#45;&gt;a7047264fcd54fe6a4e6ccb901bb9a3a -->
<g id="edge17" class="edge">
<title>a4eb8bd253154b3ebcdb6eb2c4101e86&#45;&gt;a7047264fcd54fe6a4e6ccb901bb9a3a</title>
<path fill="none" stroke="orange" d="M1947,-563.66C1947,-537.11 1947,-507.52 1947,-480.31"/>
<polygon fill="orange" stroke="orange" points="1950.5,-480 1947,-470 1943.5,-480 1950.5,-480"/>
<text text-anchor="middle" x="1973.5" y="-524.6" font-family="Sans-Serif" font-size="13.00" fill="#2d3436">Manual</text>
<text text-anchor="middle" x="1973.5" y="-510.6" font-family="Sans-Serif" font-size="13.00" fill="#2d3436">Transfer</text>
</g>
</g>
</svg>
