<?xml version="1.0" encoding="UTF-8" standalone="no"?>
<!DOCTYPE svg PUBLIC "-//W3C//DTD SVG 1.1//EN"
 "http://www.w3.org/Graphics/SVG/1.1/DTD/svg11.dtd">
<!-- Generated by graphviz version 2.43.0 (0)
 -->
<!-- Title: API Gateway Patterns for Sovereignty Pages: 1 -->
<svg width="1680pt" height="790pt"
 viewBox="0.00 0.00 1680.00 790.00" xmlns="http://www.w3.org/2000/svg" xmlns:xlink="http://www.w3.org/1999/xlink">
<g id="graph0" class="graph" transform="scale(1 1) rotate(0) translate(36 754)">
<title>API Gateway Patterns for Sovereignty</title>
<polygon fill="white" stroke="transparent" points="-36,36 -36,-754 1644,-754 1644,36 -36,36"/>
<text text-anchor="middle" x="804" y="-7.8" font-family="Sans-Serif" font-size="14.00" fill="#2d3436">API Gateway Patterns for Sovereignty</text>
<g id="clust1" class="cluster">
<title>cluster_External Clients</title>
<path fill="#e5f5fd" stroke="#aeb6be" d="M20,-340C20,-340 113,-340 113,-340 119,-340 125,-346 125,-352 125,-352 125,-698 125,-698 125,-704 119,-710 113,-710 113,-710 20,-710 20,-710 14,-710 8,-704 8,-698 8,-698 8,-352 8,-352 8,-346 14,-340 20,-340"/>
<text text-anchor="middle" x="62.5" y="-696.4" font-family="Sans-Serif" font-size="12.00" fill="#2d3436">External Clients</text>
</g>
<g id="clust2" class="cluster">
<title>cluster_Security Perimeter</title>
<path fill="#ffe4e1" stroke="#aeb6be" d="M194,-431C194,-431 635,-431 635,-431 641,-431 647,-437 647,-443 647,-443 647,-622 647,-622 647,-628 641,-634 635,-634 635,-634 194,-634 194,-634 188,-634 182,-628 182,-622 182,-622 182,-443 182,-443 182,-437 188,-431 194,-431"/>
<text text-anchor="middle" x="246" y="-620.4" font-family="Sans-Serif" font-size="12.00" fill="#2d3436">Security Perimeter</text>
</g>
<g id="clust3" class="cluster">
<title>cluster_API Management Zone</title>
<path fill="#e8f4fd" stroke="#aeb6be" d="M542,-220C542,-220 884,-220 884,-220 890,-220 896,-226 896,-232 896,-232 896,-411 896,-411 896,-417 890,-423 884,-423 884,-423 542,-423 542,-423 536,-423 530,-417 530,-411 530,-411 530,-232 530,-232 530,-226 536,-220 542,-220"/>
<text text-anchor="middle" x="607" y="-409.4" font-family="Sans-Serif" font-size="12.00" fill="#2d3436">API Management Zone</text>
</g>
<g id="clust4" class="cluster">
<title>cluster_Backend Services (Private)</title>
<path fill="#d4e9d7" stroke="#aeb6be" d="M965,-31C965,-31 1588,-31 1588,-31 1594,-31 1600,-37 1600,-43 1600,-43 1600,-621 1600,-621 1600,-627 1594,-633 1588,-633 1588,-633 965,-633 965,-633 959,-633 953,-627 953,-621 953,-621 953,-43 953,-43 953,-37 959,-31 965,-31"/>
<text text-anchor="middle" x="1041" y="-619.4" font-family="Sans-Serif" font-size="12.00" fill="#2d3436">Backend Services (Private)</text>
</g>
<g id="clust5" class="cluster">
<title>cluster_Microservices</title>
<path fill="#ebf3e7" stroke="#aeb6be" d="M1313,-39C1313,-39 1580,-39 1580,-39 1586,-39 1592,-45 1592,-51 1592,-51 1592,-592 1592,-592 1592,-598 1586,-604 1580,-604 1580,-604 1313,-604 1313,-604 1307,-604 1301,-598 1301,-592 1301,-592 1301,-51 1301,-51 1301,-45 1307,-39 1313,-39"/>
<text text-anchor="middle" x="1350" y="-590.4" font-family="Sans-Serif" font-size="12.00" fill="#2d3436">Microservices</text>
</g>
<!-- 07006806ddfe42438e7de935939df0de -->
<g id="node1" class="node">
<title>07006806ddfe42438e7de935939df0de</title>
<image xlink:href="/workspaces/sov-cloud-brain-trek/.venv/lib/python3.12/site-packages/resources/generic/device/mobile.png" width="101px" height="101px" preserveAspectRatio="xMinYMin meet" x="16" y="-662.5"/>
<text text-anchor="middle" x="66.5" y="-547.1" font-family="Sans-Serif" font-size="13.00" fill="#2d3436">Mobile Apps</text>
</g>
<!-- d76039e35ba04b77b31625b2145a9635 -->
<g id="node3" class="node">
<title>d76039e35ba04b77b31625b2145a9635</title>
<image xlink:href="/workspaces/sov-cloud-brain-trek/.venv/lib/python3.12/site-packages/resources/azure/identity/active-directory.png" width="101px" height="101px" preserveAspectRatio="xMinYMin meet" x="190" y="-572.5"/>
<text text-anchor="middle" x="240.5" y="-456.6" font-family="Sans-Serif" font-size="13.00" fill="#2d3436">Microsoft Entra</text>
<text text-anchor="middle" x="240.5" y="-442.6" font-family="Sans-Serif" font-size="13.00" fill="#2d3436">(OAuth 2.0)</text>
</g>
<!-- 07006806ddfe42438e7de935939df0de&#45;&gt;d76039e35ba04b77b31625b2145a9635 -->
<g id="edge1" class="edge">
<title>07006806ddfe42438e7de935939df0de&#45;&gt;d76039e35ba04b77b31625b2145a9635</title>
<path fill="none" stroke="#7b8894" d="M117.3,-574.25C117.3,-574.25 179.94,-574.25 179.94,-574.25"/>
<polygon fill="#7b8894" stroke="#7b8894" points="179.94,-577.75 189.94,-574.25 179.94,-570.75 179.94,-577.75"/>
</g>
<!-- 5182d848f22045a0a12c455048ddc60a -->
<g id="node2" class="node">
<title>5182d848f22045a0a12c455048ddc60a</title>
<image xlink:href="/workspaces/sov-cloud-brain-trek/.venv/lib/python3.12/site-packages/resources/onprem/network/internet.png" width="101px" height="101px" preserveAspectRatio="xMinYMin meet" x="16" y="-467.5"/>
<text text-anchor="middle" x="66.5" y="-352.1" font-family="Sans-Serif" font-size="13.00" fill="#2d3436">Partner APIs</text>
</g>
<!-- 5182d848f22045a0a12c455048ddc60a&#45;&gt;d76039e35ba04b77b31625b2145a9635 -->
<g id="edge2" class="edge">
<title>5182d848f22045a0a12c455048ddc60a&#45;&gt;d76039e35ba04b77b31625b2145a9635</title>
<path fill="none" stroke="#7b8894" d="M117.3,-462.25C117.3,-462.25 179.94,-462.25 179.94,-462.25"/>
<polygon fill="#7b8894" stroke="#7b8894" points="179.94,-465.75 189.94,-462.25 179.94,-458.75 179.94,-465.75"/>
</g>
<!-- d19997c0f4114f299f38e169f9313fcf -->
<g id="node4" class="node">
<title>d19997c0f4114f299f38e169f9313fcf</title>
<image xlink:href="/workspaces/sov-cloud-brain-trek/.venv/lib/python3.12/site-packages/resources/azure/network/application-gateway.png" width="101px" height="101px" preserveAspectRatio="xMinYMin meet" x="364" y="-572.5"/>
<text text-anchor="middle" x="414.5" y="-456.6" font-family="Sans-Serif" font-size="13.00" fill="#2d3436">WAF v2</text>
<text text-anchor="middle" x="414.5" y="-442.6" font-family="Sans-Serif" font-size="13.00" fill="#2d3436">(OWASP)</text>
</g>
<!-- d76039e35ba04b77b31625b2145a9635&#45;&gt;d19997c0f4114f299f38e169f9313fcf -->
<g id="edge3" class="edge">
<title>d76039e35ba04b77b31625b2145a9635&#45;&gt;d19997c0f4114f299f38e169f9313fcf</title>
<path fill="none" stroke="#7b8894" d="M291.3,-522C291.3,-522 353.94,-522 353.94,-522"/>
<polygon fill="#7b8894" stroke="#7b8894" points="353.94,-525.5 363.94,-522 353.94,-518.5 353.94,-525.5"/>
</g>
<!-- 4fbed19103584369bab9bf43c3484f71 -->
<g id="node5" class="node">
<title>4fbed19103584369bab9bf43c3484f71</title>
<image xlink:href="/workspaces/sov-cloud-brain-trek/.venv/lib/python3.12/site-packages/resources/azure/network/firewall.png" width="101px" height="101px" preserveAspectRatio="xMinYMin meet" x="538" y="-571.5"/>
<text text-anchor="middle" x="588.5" y="-456.1" font-family="Sans-Serif" font-size="13.00" fill="#2d3436">Azure Firewall</text>
</g>
<!-- d19997c0f4114f299f38e169f9313fcf&#45;&gt;4fbed19103584369bab9bf43c3484f71 -->
<g id="edge4" class="edge">
<title>d19997c0f4114f299f38e169f9313fcf&#45;&gt;4fbed19103584369bab9bf43c3484f71</title>
<path fill="none" stroke="#7b8894" d="M465.3,-521C465.3,-521 527.94,-521 527.94,-521"/>
<polygon fill="#7b8894" stroke="#7b8894" points="527.94,-524.5 537.94,-521 527.94,-517.5 527.94,-524.5"/>
</g>
<!-- 7fe36dae567c4180a4b7b4aa30ea1f0a -->
<g id="node6" class="node">
<title>7fe36dae567c4180a4b7b4aa30ea1f0a</title>
<image xlink:href="/workspaces/sov-cloud-brain-trek/.venv/lib/python3.12/site-packages/resources/azure/integration/api-management.png" width="101px" height="101px" preserveAspectRatio="xMinYMin meet" x="787" y="-361.5"/>
<text text-anchor="middle" x="837.5" y="-245.6" font-family="Sans-Serif" font-size="13.00" fill="#2d3436">Azure APIM</text>
<text text-anchor="middle" x="837.5" y="-231.6" font-family="Sans-Serif" font-size="13.00" fill="#2d3436">(Internal Mode)</text>
</g>
<!-- 4fbed19103584369bab9bf43c3484f71&#45;&gt;7fe36dae567c4180a4b7b4aa30ea1f0a -->
<g id="edge5" class="edge">
<title>4fbed19103584369bab9bf43c3484f71&#45;&gt;7fe36dae567c4180a4b7b4aa30ea1f0a</title>
<path fill="none" stroke="#7b8894" d="M639.29,-513.5C712.24,-513.5 838,-513.5 838,-513.5 838,-513.5 838,-404.24 838,-404.24"/>
<polygon fill="#7b8894" stroke="#7b8894" points="841.5,-404.24 838,-394.24 834.5,-404.24 841.5,-404.24"/>
</g>
<!-- d618f0678eee469ea233a3afde1f3dc8 -->
<g id="node9" class="node">
<title>d618f0678eee469ea233a3afde1f3dc8</title>
<image xlink:href="/workspaces/sov-cloud-brain-trek/.venv/lib/python3.12/site-packages/resources/azure/network/private-endpoint.png" width="101px" height="101px" preserveAspectRatio="xMinYMin meet" x="961" y="-361.5"/>
<text text-anchor="middle" x="1011.5" y="-245.6" font-family="Sans-Serif" font-size="13.00" fill="#2d3436">Private</text>
<text text-anchor="middle" x="1011.5" y="-231.6" font-family="Sans-Serif" font-size="13.00" fill="#2d3436">Endpoints</text>
</g>
<!-- 7fe36dae567c4180a4b7b4aa30ea1f0a&#45;&gt;d618f0678eee469ea233a3afde1f3dc8 -->
<g id="edge7" class="edge">
<title>7fe36dae567c4180a4b7b4aa30ea1f0a&#45;&gt;d618f0678eee469ea233a3afde1f3dc8</title>
<path fill="none" stroke="#7b8894" d="M888.3,-311C888.3,-311 950.94,-311 950.94,-311"/>
<polygon fill="#7b8894" stroke="#7b8894" points="950.94,-314.5 960.94,-311 950.94,-307.5 950.94,-314.5"/>
</g>
<!-- 6d94208333a84d9ca896a96d8d973754 -->
<g id="node7" class="node">
<title>6d94208333a84d9ca896a96d8d973754</title>
<image xlink:href="/workspaces/sov-cloud-brain-trek/.venv/lib/python3.12/site-packages/resources/azure/security/key-vaults.png" width="101px" height="101px" preserveAspectRatio="xMinYMin meet" x="538" y="-361.5"/>
<text text-anchor="middle" x="588.5" y="-245.6" font-family="Sans-Serif" font-size="13.00" fill="#2d3436">Key Vault</text>
<text text-anchor="middle" x="588.5" y="-231.6" font-family="Sans-Serif" font-size="13.00" fill="#2d3436">(Certificates)</text>
</g>
<!-- 6d94208333a84d9ca896a96d8d973754&#45;&gt;7fe36dae567c4180a4b7b4aa30ea1f0a -->
<g id="edge6" class="edge">
<title>6d94208333a84d9ca896a96d8d973754&#45;&gt;7fe36dae567c4180a4b7b4aa30ea1f0a</title>
<path fill="none" stroke="#7b8894" stroke-dasharray="5,2" d="M639.19,-311C639.19,-311 776.88,-311 776.88,-311"/>
<polygon fill="#7b8894" stroke="#7b8894" points="776.88,-314.5 786.88,-311 776.88,-307.5 776.88,-314.5"/>
<text text-anchor="middle" x="713" y="-314.6" font-family="Sans-Serif" font-size="13.00" fill="#2d3436">mTLS Certs</text>
</g>
<!-- ce4280305044495da75d45f43814d429 -->
<g id="node8" class="node">
<title>ce4280305044495da75d45f43814d429</title>
<image xlink:href="/workspaces/sov-cloud-brain-trek/.venv/lib/python3.12/site-packages/resources/azure/network/virtual-networks.png" width="101px" height="101px" preserveAspectRatio="xMinYMin meet" x="1135" y="-361.5"/>
<text text-anchor="middle" x="1185.5" y="-246.1" font-family="Sans-Serif" font-size="13.00" fill="#2d3436">Private VNet</text>
</g>
<!-- b644d1e5193347feba80acaf7c6da37f -->
<g id="node10" class="node">
<title>b644d1e5193347feba80acaf7c6da37f</title>
<image xlink:href="/workspaces/sov-cloud-brain-trek/.venv/lib/python3.12/site-packages/resources/azure/compute/kubernetes-services.png" width="101px" height="101px" preserveAspectRatio="xMinYMin meet" x="1309" y="-361.5"/>
<text text-anchor="middle" x="1359.5" y="-246.1" font-family="Sans-Serif" font-size="13.00" fill="#2d3436">AKS Cluster</text>
</g>
<!-- ce4280305044495da75d45f43814d429&#45;&gt;b644d1e5193347feba80acaf7c6da37f -->
<g id="edge9" class="edge">
<title>ce4280305044495da75d45f43814d429&#45;&gt;b644d1e5193347feba80acaf7c6da37f</title>
<path fill="none" stroke="#7b8894" d="M1236.3,-311C1236.3,-311 1298.94,-311 1298.94,-311"/>
<polygon fill="#7b8894" stroke="#7b8894" points="1298.94,-314.5 1308.94,-311 1298.94,-307.5 1298.94,-314.5"/>
</g>
<!-- d618f0678eee469ea233a3afde1f3dc8&#45;&gt;ce4280305044495da75d45f43814d429 -->
<g id="edge8" class="edge">
<title>d618f0678eee469ea233a3afde1f3dc8&#45;&gt;ce4280305044495da75d45f43814d429</title>
<path fill="none" stroke="#7b8894" d="M1062.3,-311C1062.3,-311 1124.94,-311 1124.94,-311"/>
<polygon fill="#7b8894" stroke="#7b8894" points="1124.94,-314.5 1134.94,-311 1124.94,-307.5 1124.94,-314.5"/>
</g>
<!-- 24a6a910453d4c128b03c3f2321be75e -->
<g id="node11" class="node">
<title>24a6a910453d4c128b03c3f2321be75e</title>
<image xlink:href="/workspaces/sov-cloud-brain-trek/.venv/lib/python3.12/site-packages/resources/azure/compute/kubernetes-services.png" width="101px" height="101px" preserveAspectRatio="xMinYMin meet" x="1483" y="-166.5"/>
<text text-anchor="middle" x="1533.5" y="-51.1" font-family="Sans-Serif" font-size="13.00" fill="#2d3436">Service A</text>
</g>
<!-- b644d1e5193347feba80acaf7c6da37f&#45;&gt;24a6a910453d4c128b03c3f2321be75e -->
<g id="edge10" class="edge">
<title>b644d1e5193347feba80acaf7c6da37f&#45;&gt;24a6a910453d4c128b03c3f2321be75e</title>
<path fill="none" stroke="#7b8894" d="M1360,-242.25C1360,-186.11 1360,-116 1360,-116 1360,-116 1472.85,-116 1472.85,-116"/>
<polygon fill="#7b8894" stroke="#7b8894" points="1472.85,-119.5 1482.85,-116 1472.85,-112.5 1472.85,-119.5"/>
</g>
<!-- 73ae0bb3f4044b70a0e1455b327390aa -->
<g id="node12" class="node">
<title>73ae0bb3f4044b70a0e1455b327390aa</title>
<image xlink:href="/workspaces/sov-cloud-brain-trek/.venv/lib/python3.12/site-packages/resources/azure/compute/kubernetes-services.png" width="101px" height="101px" preserveAspectRatio="xMinYMin meet" x="1483" y="-361.5"/>
<text text-anchor="middle" x="1533.5" y="-246.1" font-family="Sans-Serif" font-size="13.00" fill="#2d3436">Service B</text>
</g>
<!-- b644d1e5193347feba80acaf7c6da37f&#45;&gt;73ae0bb3f4044b70a0e1455b327390aa -->
<g id="edge11" class="edge">
<title>b644d1e5193347feba80acaf7c6da37f&#45;&gt;73ae0bb3f4044b70a0e1455b327390aa</title>
<path fill="none" stroke="#7b8894" d="M1410.3,-311C1410.3,-311 1472.94,-311 1472.94,-311"/>
<polygon fill="#7b8894" stroke="#7b8894" points="1472.94,-314.5 1482.94,-311 1472.94,-307.5 1472.94,-314.5"/>
</g>
<!-- b20caf43c8ef43ba910a5995cac37341 -->
<g id="node13" class="node">
<title>b20caf43c8ef43ba910a5995cac37341</title>
<image xlink:href="/workspaces/sov-cloud-brain-trek/.venv/lib/python3.12/site-packages/resources/azure/compute/kubernetes-services.png" width="101px" height="101px" preserveAspectRatio="xMinYMin meet" x="1483" y="-556.5"/>
<text text-anchor="middle" x="1533.5" y="-441.1" font-family="Sans-Serif" font-size="13.00" fill="#2d3436">Service C</text>
</g>
<!-- b644d1e5193347feba80acaf7c6da37f&#45;&gt;b20caf43c8ef43ba910a5995cac37341 -->
<g id="edge12" class="edge">
<title>b644d1e5193347feba80acaf7c6da37f&#45;&gt;b20caf43c8ef43ba910a5995cac37341</title>
<path fill="none" stroke="#7b8894" d="M1360,-379.56C1360,-412.85 1360,-445.75 1360,-445.75 1360,-445.75 1472.85,-445.75 1472.85,-445.75"/>
<polygon fill="#7b8894" stroke="#7b8894" points="1472.85,-449.25 1482.85,-445.75 1472.85,-442.25 1472.85,-449.25"/>
</g>
</g>
</svg>
