<?xml version="1.0" encoding="UTF-8" standalone="no"?>
<!DOCTYPE svg PUBLIC "-//W3C//DTD SVG 1.1//EN"
 "http://www.w3.org/Graphics/SVG/1.1/DTD/svg11.dtd">
<!-- Generated by graphviz version 2.43.0 (0)
 -->
<!-- Title: Azure Local Multi&#45;Site Replication Topology Pages: 1 -->
<svg width="1504pt" height="1192pt"
 viewBox="0.00 0.00 1504.11 1192.00" xmlns="http://www.w3.org/2000/svg" xmlns:xlink="http://www.w3.org/1999/xlink">
<g id="graph0" class="graph" transform="scale(1 1) rotate(0) translate(36 1156)">
<title>Azure Local Multi&#45;Site Replication Topology</title>
<polygon fill="white" stroke="transparent" points="-36,36 -36,-1156 1468.11,-1156 1468.11,36 -36,36"/>
<text text-anchor="middle" x="716.05" y="-7.4" font-family="Sans-Serif" font-size="12.00" fill="#2d3436">Azure Local Multi&#45;Site Replication Topology</text>
<g id="clust1" class="cluster">
<title>cluster_Azure Cloud Control Plane</title>
<path fill="#e6f3ff" stroke="#aeb6be" stroke-width="2" d="M20,-555C20,-555 402,-555 402,-555 408,-555 414,-561 414,-567 414,-567 414,-738 414,-738 414,-744 408,-750 402,-750 402,-750 20,-750 20,-750 14,-750 8,-744 8,-738 8,-738 8,-567 8,-567 8,-561 14,-555 20,-555"/>
<text text-anchor="middle" x="93.5" y="-736.4" font-family="Sans-Serif" font-size="12.00" fill="#2d3436">Azure Cloud Control Plane</text>
</g>
<g id="clust2" class="cluster">
<title>cluster_Site 1: Primary Datacenter
(Active)</title>
<path fill="#e6ffe6" stroke="#aeb6be" d="M136,-854C136,-854 958,-854 958,-854 964,-854 970,-860 970,-866 970,-866 970,-1100 970,-1100 970,-1106 964,-1112 958,-1112 958,-1112 136,-1112 136,-1112 130,-1112 124,-1106 124,-1100 124,-1100 124,-866 124,-866 124,-860 130,-854 136,-854"/>
<text text-anchor="middle" x="212" y="-1098.4" font-family="Sans-Serif" font-size="12.00" fill="#2d3436">Site 1: Primary Datacenter</text>
<text text-anchor="middle" x="212" y="-1085.4" font-family="Sans-Serif" font-size="12.00" fill="#2d3436">(Active)</text>
</g>
<g id="clust3" class="cluster">
<title>cluster_Azure Local Cluster</title>
<path fill="#ebf3e7" stroke="#aeb6be" d="M280,-862C280,-862 950,-862 950,-862 956,-862 962,-868 962,-874 962,-874 962,-1045 962,-1045 962,-1051 956,-1057 950,-1057 950,-1057 280,-1057 280,-1057 274,-1057 268,-1051 268,-1045 268,-1045 268,-874 268,-874 268,-868 274,-862 280,-862"/>
<text text-anchor="middle" x="333.5" y="-1043.4" font-family="Sans-Serif" font-size="12.00" fill="#2d3436">Azure Local Cluster</text>
</g>
<g id="clust4" class="cluster">
<title>cluster_Site 2: DR Datacenter
(Standby)</title>
<path fill="#fff3e6" stroke="#aeb6be" d="M540,-547C540,-547 1362,-547 1362,-547 1368,-547 1374,-553 1374,-559 1374,-559 1374,-793 1374,-793 1374,-799 1368,-805 1362,-805 1362,-805 540,-805 540,-805 534,-805 528,-799 528,-793 528,-793 528,-559 528,-559 528,-553 534,-547 540,-547"/>
<text text-anchor="middle" x="601" y="-791.4" font-family="Sans-Serif" font-size="12.00" fill="#2d3436">Site 2: DR Datacenter</text>
<text text-anchor="middle" x="601" y="-778.4" font-family="Sans-Serif" font-size="12.00" fill="#2d3436">(Standby)</text>
</g>
<g id="clust5" class="cluster">
<title>cluster_Azure Local Cluster</title>
<path fill="#ebf3e7" stroke="#aeb6be" d="M684,-555C684,-555 1354,-555 1354,-555 1360,-555 1366,-561 1366,-567 1366,-567 1366,-738 1366,-738 1366,-744 1360,-750 1354,-750 1354,-750 684,-750 684,-750 678,-750 672,-744 672,-738 672,-738 672,-567 672,-567 672,-561 678,-555 684,-555"/>
<text text-anchor="middle" x="737.5" y="-736.4" font-family="Sans-Serif" font-size="12.00" fill="#2d3436">Azure Local Cluster</text>
</g>
<g id="clust6" class="cluster">
<title>cluster_Site 3: Edge Location
(Branch)</title>
<path fill="#f3e6ff" stroke="#aeb6be" d="M273,-29C273,-29 807,-29 807,-29 813,-29 819,-35 819,-41 819,-41 819,-275 819,-275 819,-281 813,-287 807,-287 807,-287 273,-287 273,-287 267,-287 261,-281 261,-275 261,-275 261,-41 261,-41 261,-35 267,-29 273,-29"/>
<text text-anchor="middle" x="332.5" y="-273.4" font-family="Sans-Serif" font-size="12.00" fill="#2d3436">Site 3: Edge Location</text>
<text text-anchor="middle" x="332.5" y="-260.4" font-family="Sans-Serif" font-size="12.00" fill="#2d3436">(Branch)</text>
</g>
<g id="clust7" class="cluster">
<title>cluster_Azure Local (2&#45;node)</title>
<path fill="#ebf3e7" stroke="#aeb6be" d="M417,-37C417,-37 799,-37 799,-37 805,-37 811,-43 811,-49 811,-49 811,-220 811,-220 811,-226 805,-232 799,-232 799,-232 417,-232 417,-232 411,-232 405,-226 405,-220 405,-220 405,-49 405,-49 405,-43 411,-37 417,-37"/>
<text text-anchor="middle" x="475" y="-218.4" font-family="Sans-Serif" font-size="12.00" fill="#2d3436">Azure Local (2&#45;node)</text>
</g>
<!-- c43e5b1a30e545dd9ef161b4c2528b04 -->
<g id="node1" class="node">
<title>c43e5b1a30e545dd9ef161b4c2528b04</title>
<image xlink:href="/workspaces/sov-cloud-brain-trek/.venv/lib/python3.12/site-packages/resources/azure/identity/active-directory.png" width="101px" height="101px" preserveAspectRatio="xMinYMin meet" x="304.5" y="-682"/>
<text text-anchor="middle" x="355" y="-566.6" font-family="Sans-Serif" font-size="13.00" fill="#2d3436">Entra ID</text>
</g>
<!-- a181f1fe7c6f4dd4a072e3ec063cf9b3 -->
<g id="node2" class="node">
<title>a181f1fe7c6f4dd4a072e3ec063cf9b3</title>
<image xlink:href="/workspaces/sov-cloud-brain-trek/.venv/lib/python3.12/site-packages/resources/azure/integration/event-grid-domains.png" width="101px" height="101px" preserveAspectRatio="xMinYMin meet" x="160.5" y="-682"/>
<text text-anchor="middle" x="211" y="-566.6" font-family="Sans-Serif" font-size="13.00" fill="#2d3436">Azure Arc</text>
</g>
<!-- 9969f171440d437f9ccb907ce124cef2 -->
<g id="node8" class="node">
<title>9969f171440d437f9ccb907ce124cef2</title>
<image xlink:href="/workspaces/sov-cloud-brain-trek/.venv/lib/python3.12/site-packages/resources/generic/network/switch.png" width="101px" height="101px" preserveAspectRatio="xMinYMin meet" x="708.5" y="-989"/>
<text text-anchor="middle" x="759" y="-873.6" font-family="Sans-Serif" font-size="13.00" fill="#2d3436">25GbE ToR</text>
</g>
<!-- a181f1fe7c6f4dd4a072e3ec063cf9b3&#45;&gt;9969f171440d437f9ccb907ce124cef2 -->
<g id="edge3" class="edge">
<title>a181f1fe7c6f4dd4a072e3ec063cf9b3&#45;&gt;9969f171440d437f9ccb907ce124cef2</title>
<path fill="none" stroke="blue" stroke-dasharray="5,2" d="M221.01,-700.37C230.36,-737.85 248.37,-781.47 283,-805 303.13,-818.68 701.57,-798.34 721,-813 736.21,-824.48 745.53,-841.91 751.18,-860.12"/>
<polygon fill="blue" stroke="blue" points="747.86,-861.27 753.88,-869.99 754.62,-859.42 747.86,-861.27"/>
</g>
<!-- eea3d38ef1ba475fa7f82305971d16a9 -->
<g id="node14" class="node">
<title>eea3d38ef1ba475fa7f82305971d16a9</title>
<image xlink:href="/workspaces/sov-cloud-brain-trek/.venv/lib/python3.12/site-packages/resources/generic/network/switch.png" width="101px" height="101px" preserveAspectRatio="xMinYMin meet" x="680.5" y="-682"/>
<text text-anchor="middle" x="731" y="-566.6" font-family="Sans-Serif" font-size="13.00" fill="#2d3436">25GbE ToR</text>
</g>
<!-- a181f1fe7c6f4dd4a072e3ec063cf9b3&#45;&gt;eea3d38ef1ba475fa7f82305971d16a9 -->
<g id="edge4" class="edge">
<title>a181f1fe7c6f4dd4a072e3ec063cf9b3&#45;&gt;eea3d38ef1ba475fa7f82305971d16a9</title>
<path fill="none" stroke="blue" stroke-dasharray="5,2" d="M220.62,-700.07C231.61,-747.92 254.98,-807.07 304.5,-829.5 375.55,-861.68 584.45,-861.68 655.5,-829.5 700.22,-809.24 718.84,-756.3 726.41,-710.25"/>
<polygon fill="blue" stroke="blue" points="729.89,-710.65 727.9,-700.24 722.96,-709.61 729.89,-710.65"/>
</g>
<!-- 704a152454d44a06981dc7206e410778 -->
<g id="node16" class="node">
<title>704a152454d44a06981dc7206e410778</title>
<image xlink:href="/workspaces/sov-cloud-brain-trek/.venv/lib/python3.12/site-packages/resources/onprem/compute/server.png" width="101px" height="101px" preserveAspectRatio="xMinYMin meet" x="701.5" y="-164"/>
<text text-anchor="middle" x="752" y="-48.6" font-family="Sans-Serif" font-size="13.00" fill="#2d3436">Node 1</text>
</g>
<!-- a181f1fe7c6f4dd4a072e3ec063cf9b3&#45;&gt;704a152454d44a06981dc7206e410778 -->
<g id="edge5" class="edge">
<title>a181f1fe7c6f4dd4a072e3ec063cf9b3&#45;&gt;704a152454d44a06981dc7206e410778</title>
<path fill="none" stroke="blue" stroke-dasharray="5,2" d="M261.85,-567.56C268.67,-560.34 275.8,-553.31 283,-547 441.63,-408 545.23,-449.24 680,-287 702.83,-259.51 719.34,-223.76 730.75,-191.94"/>
<polygon fill="blue" stroke="blue" points="734.15,-192.79 734.12,-182.2 727.54,-190.5 734.15,-192.79"/>
</g>
<!-- 2c8dac0199bc4a3c84522f37eeca39ae -->
<g id="node3" class="node">
<title>2c8dac0199bc4a3c84522f37eeca39ae</title>
<image xlink:href="/workspaces/sov-cloud-brain-trek/.venv/lib/python3.12/site-packages/resources/azure/storage/blob-storage.png" width="101px" height="101px" preserveAspectRatio="xMinYMin meet" x="16.5" y="-682"/>
<text text-anchor="middle" x="67" y="-566.6" font-family="Sans-Serif" font-size="13.00" fill="#2d3436">Witness Storage</text>
</g>
<!-- c29329b7734842ad809cd5fc9237409a -->
<g id="node4" class="node">
<title>c29329b7734842ad809cd5fc9237409a</title>
<image xlink:href="/workspaces/sov-cloud-brain-trek/.venv/lib/python3.12/site-packages/resources/onprem/compute/server.png" width="101px" height="101px" preserveAspectRatio="xMinYMin meet" x="852.5" y="-989"/>
<text text-anchor="middle" x="903" y="-873.6" font-family="Sans-Serif" font-size="13.00" fill="#2d3436">Node 1</text>
</g>
<!-- 6a8131f5507347f2a7b1dd0dc8f966e1 -->
<g id="node5" class="node">
<title>6a8131f5507347f2a7b1dd0dc8f966e1</title>
<image xlink:href="/workspaces/sov-cloud-brain-trek/.venv/lib/python3.12/site-packages/resources/onprem/compute/server.png" width="101px" height="101px" preserveAspectRatio="xMinYMin meet" x="276.5" y="-989"/>
<text text-anchor="middle" x="327" y="-873.6" font-family="Sans-Serif" font-size="13.00" fill="#2d3436">Node 2</text>
</g>
<!-- 6a8131f5507347f2a7b1dd0dc8f966e1&#45;&gt;2c8dac0199bc4a3c84522f37eeca39ae -->
<g id="edge6" class="edge">
<title>6a8131f5507347f2a7b1dd0dc8f966e1&#45;&gt;2c8dac0199bc4a3c84522f37eeca39ae</title>
<path fill="none" stroke="#7b8894" stroke-dasharray="1,5" d="M288.28,-869.91C283.28,-864.08 277.85,-858.64 272,-854 222.65,-814.85 184.48,-848.59 139,-805 112.45,-779.56 95.3,-742.84 84.43,-709.81"/>
<polygon fill="#7b8894" stroke="#7b8894" points="87.73,-708.64 81.39,-700.16 81.05,-710.75 87.73,-708.64"/>
<text text-anchor="middle" x="276" y="-823.6" font-family="Sans-Serif" font-size="13.00" fill="#2d3436">Witness</text>
</g>
<!-- 524205293f024a9b9e08cce5a30831e3 -->
<g id="node6" class="node">
<title>524205293f024a9b9e08cce5a30831e3</title>
<image xlink:href="/workspaces/sov-cloud-brain-trek/.venv/lib/python3.12/site-packages/resources/onprem/compute/server.png" width="101px" height="101px" preserveAspectRatio="xMinYMin meet" x="564.5" y="-989"/>
<text text-anchor="middle" x="615" y="-873.6" font-family="Sans-Serif" font-size="13.00" fill="#2d3436">Node 3</text>
</g>
<!-- 2fa5b6b2ced94b35b1ac7c6f82220a7a -->
<g id="node7" class="node">
<title>2fa5b6b2ced94b35b1ac7c6f82220a7a</title>
<image xlink:href="/workspaces/sov-cloud-brain-trek/.venv/lib/python3.12/site-packages/resources/generic/storage/storage.png" width="101px" height="101px" preserveAspectRatio="xMinYMin meet" x="420.5" y="-989"/>
<text text-anchor="middle" x="471" y="-873.6" font-family="Sans-Serif" font-size="13.00" fill="#2d3436">S2D Storage</text>
</g>
<!-- 53d2afb66c9a4ea8a72c17655a010ab1 -->
<g id="node13" class="node">
<title>53d2afb66c9a4ea8a72c17655a010ab1</title>
<image xlink:href="/workspaces/sov-cloud-brain-trek/.venv/lib/python3.12/site-packages/resources/generic/storage/storage.png" width="101px" height="101px" preserveAspectRatio="xMinYMin meet" x="824.5" y="-682"/>
<text text-anchor="middle" x="875" y="-566.6" font-family="Sans-Serif" font-size="13.00" fill="#2d3436">S2D Storage</text>
</g>
<!-- 2fa5b6b2ced94b35b1ac7c6f82220a7a&#45;&gt;53d2afb66c9a4ea8a72c17655a010ab1 -->
<g id="edge1" class="edge">
<title>2fa5b6b2ced94b35b1ac7c6f82220a7a&#45;&gt;53d2afb66c9a4ea8a72c17655a010ab1</title>
<path fill="none" stroke="green" stroke-width="2" d="M521.46,-869.99C528.16,-863.91 535.37,-858.4 543,-854 644.89,-795.29 711.63,-879.02 803,-805 832.03,-781.48 849.51,-744.23 859.96,-710.35"/>
<polygon fill="green" stroke="green" stroke-width="2" points="863.42,-711.01 862.86,-700.43 856.7,-709.05 863.42,-711.01"/>
<text text-anchor="middle" x="847" y="-830.6" font-family="Sans-Serif" font-size="13.00" fill="#2d3436">Sync Replication</text>
<text text-anchor="middle" x="847" y="-816.6" font-family="Sans-Serif" font-size="13.00" fill="#2d3436">&lt;5ms RTT</text>
</g>
<!-- 5180e158b6dc45bf81cc95c99716af35 -->
<g id="node18" class="node">
<title>5180e158b6dc45bf81cc95c99716af35</title>
<image xlink:href="/workspaces/sov-cloud-brain-trek/.venv/lib/python3.12/site-packages/resources/generic/storage/storage.png" width="101px" height="101px" preserveAspectRatio="xMinYMin meet" x="413.5" y="-164"/>
<text text-anchor="middle" x="464" y="-48.6" font-family="Sans-Serif" font-size="13.00" fill="#2d3436">Storage</text>
</g>
<!-- 2fa5b6b2ced94b35b1ac7c6f82220a7a&#45;&gt;5180e158b6dc45bf81cc95c99716af35 -->
<g id="edge2" class="edge">
<title>2fa5b6b2ced94b35b1ac7c6f82220a7a&#45;&gt;5180e158b6dc45bf81cc95c99716af35</title>
<path fill="none" stroke="orange" stroke-dasharray="5,2" d="M470.42,-869.8C469.14,-718.36 466.03,-352.97 464.66,-192.4"/>
<polygon fill="orange" stroke="orange" points="468.16,-192.1 464.58,-182.13 461.16,-192.16 468.16,-192.1"/>
<text text-anchor="middle" x="526" y="-523.6" font-family="Sans-Serif" font-size="13.00" fill="#2d3436">Async Replication</text>
</g>
<!-- 6f0063dc29964292a7859daed7710734 -->
<g id="node20" class="node">
<title>6f0063dc29964292a7859daed7710734</title>
<image xlink:href="/workspaces/sov-cloud-brain-trek/.venv/lib/python3.12/site-packages/resources/azure/network/expressroute-circuits.png" width="101px" height="101px" preserveAspectRatio="xMinYMin meet" x="701.5" y="-458.5"/>
<text text-anchor="middle" x="752" y="-342.6" font-family="Sans-Serif" font-size="13.00" fill="#2d3436">ExpressRoute</text>
<text text-anchor="middle" x="752" y="-328.6" font-family="Sans-Serif" font-size="13.00" fill="#2d3436">Global Reach</text>
</g>
<!-- 9969f171440d437f9ccb907ce124cef2&#45;&gt;6f0063dc29964292a7859daed7710734 -->
<g id="edge8" class="edge">
<title>9969f171440d437f9ccb907ce124cef2&#45;&gt;6f0063dc29964292a7859daed7710734</title>
<path fill="none" stroke="#7b8894" d="M808.61,-869.63C815.51,-863.53 823,-858.11 831,-854 939.17,-798.45 1293.96,-894.75 1376,-805 1453.37,-720.37 1447.8,-636.41 1376,-547 1305.69,-459.44 956.39,-424.06 813.29,-413.1"/>
<polygon fill="#7b8894" stroke="#7b8894" points="813.18,-409.58 802.94,-412.32 812.65,-416.56 813.18,-409.58"/>
</g>
<!-- e31b24d34d414361a8235d6a412f39a4 -->
<g id="node9" class="node">
<title>e31b24d34d414361a8235d6a412f39a4</title>
<image xlink:href="/workspaces/sov-cloud-brain-trek/.venv/lib/python3.12/site-packages/resources/azure/compute/vm-scale-set.png" width="101px" height="101px" preserveAspectRatio="xMinYMin meet" x="132.5" y="-989"/>
<text text-anchor="middle" x="183" y="-873.6" font-family="Sans-Serif" font-size="13.00" fill="#2d3436">Production VMs</text>
</g>
<!-- 6669e6013faf4c4e955ed2f0e0a590c0 -->
<g id="node10" class="node">
<title>6669e6013faf4c4e955ed2f0e0a590c0</title>
<image xlink:href="/workspaces/sov-cloud-brain-trek/.venv/lib/python3.12/site-packages/resources/onprem/compute/server.png" width="101px" height="101px" preserveAspectRatio="xMinYMin meet" x="1256.5" y="-682"/>
<text text-anchor="middle" x="1307" y="-566.6" font-family="Sans-Serif" font-size="13.00" fill="#2d3436">Node 1</text>
</g>
<!-- f88a14dddd1d49bfa15953f6b2d6b3be -->
<g id="node11" class="node">
<title>f88a14dddd1d49bfa15953f6b2d6b3be</title>
<image xlink:href="/workspaces/sov-cloud-brain-trek/.venv/lib/python3.12/site-packages/resources/onprem/compute/server.png" width="101px" height="101px" preserveAspectRatio="xMinYMin meet" x="1112.5" y="-682"/>
<text text-anchor="middle" x="1163" y="-566.6" font-family="Sans-Serif" font-size="13.00" fill="#2d3436">Node 2</text>
</g>
<!-- f88a14dddd1d49bfa15953f6b2d6b3be&#45;&gt;2c8dac0199bc4a3c84522f37eeca39ae -->
<g id="edge7" class="edge">
<title>f88a14dddd1d49bfa15953f6b2d6b3be&#45;&gt;2c8dac0199bc4a3c84522f37eeca39ae</title>
<path fill="none" stroke="#7b8894" stroke-dasharray="1,5" d="M1149.1,-700.25C1138.78,-732.41 1121.08,-767.78 1091,-787 1001.86,-843.95 228.14,-843.95 139,-787 111.85,-769.65 94.79,-739.16 84.14,-709.75"/>
<polygon fill="#7b8894" stroke="#7b8894" points="87.44,-708.59 80.9,-700.25 80.82,-710.85 87.44,-708.59"/>
<text text-anchor="middle" x="527" y="-823.6" font-family="Sans-Serif" font-size="13.00" fill="#2d3436">Witness</text>
</g>
<!-- 18996a4a39d449e7beeea9aa6f4faa60 -->
<g id="node12" class="node">
<title>18996a4a39d449e7beeea9aa6f4faa60</title>
<image xlink:href="/workspaces/sov-cloud-brain-trek/.venv/lib/python3.12/site-packages/resources/onprem/compute/server.png" width="101px" height="101px" preserveAspectRatio="xMinYMin meet" x="968.5" y="-682"/>
<text text-anchor="middle" x="1019" y="-566.6" font-family="Sans-Serif" font-size="13.00" fill="#2d3436">Node 3</text>
</g>
<!-- eea3d38ef1ba475fa7f82305971d16a9&#45;&gt;6f0063dc29964292a7859daed7710734 -->
<g id="edge9" class="edge">
<title>eea3d38ef1ba475fa7f82305971d16a9&#45;&gt;6f0063dc29964292a7859daed7710734</title>
<path fill="none" stroke="#7b8894" d="M737.41,-562.84C739.26,-543.38 741.3,-521.81 743.26,-501.14"/>
<polygon fill="#7b8894" stroke="#7b8894" points="746.76,-501.36 744.22,-491.08 739.79,-500.7 746.76,-501.36"/>
</g>
<!-- 89713b68fb234edfb53d5cbbb82e045b -->
<g id="node15" class="node">
<title>89713b68fb234edfb53d5cbbb82e045b</title>
<image xlink:href="/workspaces/sov-cloud-brain-trek/.venv/lib/python3.12/site-packages/resources/azure/compute/vm-scale-set.png" width="101px" height="101px" preserveAspectRatio="xMinYMin meet" x="536.5" y="-682"/>
<text text-anchor="middle" x="587" y="-566.6" font-family="Sans-Serif" font-size="13.00" fill="#2d3436">Replica VMs</text>
</g>
<!-- 524185c6f9ea4dc1a02607fb35e767d5 -->
<g id="node17" class="node">
<title>524185c6f9ea4dc1a02607fb35e767d5</title>
<image xlink:href="/workspaces/sov-cloud-brain-trek/.venv/lib/python3.12/site-packages/resources/onprem/compute/server.png" width="101px" height="101px" preserveAspectRatio="xMinYMin meet" x="557.5" y="-164"/>
<text text-anchor="middle" x="608" y="-48.6" font-family="Sans-Serif" font-size="13.00" fill="#2d3436">Node 2</text>
</g>
<!-- 76f8c7dd221c4b79920d723d40c68b06 -->
<g id="node19" class="node">
<title>76f8c7dd221c4b79920d723d40c68b06</title>
<image xlink:href="/workspaces/sov-cloud-brain-trek/.venv/lib/python3.12/site-packages/resources/azure/compute/vm.png" width="101px" height="101px" preserveAspectRatio="xMinYMin meet" x="269.5" y="-164"/>
<text text-anchor="middle" x="320" y="-48.6" font-family="Sans-Serif" font-size="13.00" fill="#2d3436">Edge Workloads</text>
</g>
<!-- 6f0063dc29964292a7859daed7710734&#45;&gt;704a152454d44a06981dc7206e410778 -->
<g id="edge10" class="edge">
<title>6f0063dc29964292a7859daed7710734&#45;&gt;704a152454d44a06981dc7206e410778</title>
<path fill="none" stroke="#7b8894" d="M752,-324.74C752,-283.31 752,-233.34 752,-192.51"/>
<polygon fill="#7b8894" stroke="#7b8894" points="755.5,-192.34 752,-182.34 748.5,-192.34 755.5,-192.34"/>
</g>
</g>
</svg>
