<?xml version="1.0" encoding="UTF-8" standalone="no"?>
<!DOCTYPE svg PUBLIC "-//W3C//DTD SVG 1.1//EN"
 "http://www.w3.org/Graphics/SVG/1.1/DTD/svg11.dtd">
<!-- Generated by graphviz version 2.43.0 (0)
 -->
<!-- Title: Critical Infrastructure Architecture Pages: 1 -->
<svg width="1701pt" height="1335pt"
 viewBox="0.00 0.00 1701.00 1334.50" xmlns="http://www.w3.org/2000/svg" xmlns:xlink="http://www.w3.org/1999/xlink">
<g id="graph0" class="graph" transform="scale(1 1) rotate(0) translate(36 1298.5)">
<title>Critical Infrastructure Architecture</title>
<polygon fill="white" stroke="transparent" points="-36,36 -36,-1298.5 1665,-1298.5 1665,36 -36,36"/>
<text text-anchor="middle" x="814.5" y="-7.8" font-family="Sans-Serif" font-size="14.00" fill="#2d3436">Critical Infrastructure Architecture</text>
<g id="clust1" class="cluster">
<title>cluster_OT Environment (Purdue Model)</title>
<path fill="#ffe4e1" stroke="#aeb6be" d="M20,-31C20,-31 203,-31 203,-31 209,-31 215,-37 215,-43 215,-43 215,-1242.5 215,-1242.5 215,-1248.5 209,-1254.5 203,-1254.5 203,-1254.5 20,-1254.5 20,-1254.5 14,-1254.5 8,-1248.5 8,-1242.5 8,-1242.5 8,-43 8,-43 8,-37 14,-31 20,-31"/>
<text text-anchor="middle" x="111.5" y="-1240.9" font-family="Sans-Serif" font-size="12.00" fill="#2d3436">OT Environment (Purdue Model)</text>
</g>
<g id="clust2" class="cluster">
<title>cluster_Level 0&#45;2: Process Control</title>
<path fill="#ebf3e7" stroke="#aeb6be" d="M49,-545.5C49,-545.5 195,-545.5 195,-545.5 201,-545.5 207,-551.5 207,-557.5 207,-557.5 207,-1213.5 207,-1213.5 207,-1219.5 201,-1225.5 195,-1225.5 195,-1225.5 49,-1225.5 49,-1225.5 43,-1225.5 37,-1219.5 37,-1213.5 37,-1213.5 37,-557.5 37,-557.5 37,-551.5 43,-545.5 49,-545.5"/>
<text text-anchor="middle" x="122" y="-1211.9" font-family="Sans-Serif" font-size="12.00" fill="#2d3436">Level 0&#45;2: Process Control</text>
</g>
<g id="clust3" class="cluster">
<title>cluster_Level 3: Site Operations</title>
<path fill="#ebf3e7" stroke="#aeb6be" d="M60,-39C60,-39 195,-39 195,-39 201,-39 207,-45 207,-51 207,-51 207,-467.5 207,-467.5 207,-473.5 201,-479.5 195,-479.5 195,-479.5 60,-479.5 60,-479.5 54,-479.5 48,-473.5 48,-467.5 48,-467.5 48,-51 48,-51 48,-45 54,-39 60,-39"/>
<text text-anchor="middle" x="127.5" y="-465.9" font-family="Sans-Serif" font-size="12.00" fill="#2d3436">Level 3: Site Operations</text>
</g>
<g id="clust4" class="cluster">
<title>cluster_IT/OT Convergence Zone</title>
<path fill="#fff4e6" stroke="#aeb6be" d="M235,-798.5C235,-798.5 488,-798.5 488,-798.5 494,-798.5 500,-804.5 500,-810.5 500,-810.5 500,-1228 500,-1228 500,-1234 494,-1240 488,-1240 488,-1240 235,-1240 235,-1240 229,-1240 223,-1234 223,-1228 223,-1228 223,-810.5 223,-810.5 223,-804.5 229,-798.5 235,-798.5"/>
<text text-anchor="middle" x="306" y="-1226.4" font-family="Sans-Serif" font-size="12.00" fill="#2d3436">IT/OT Convergence Zone</text>
</g>
<g id="clust5" class="cluster">
<title>cluster_Azure Sovereign Cloud</title>
<path fill="#e8f4fd" stroke="#aeb6be" d="M520,-283C520,-283 1609,-283 1609,-283 1615,-283 1621,-289 1621,-295 1621,-295 1621,-1213.5 1621,-1213.5 1621,-1219.5 1615,-1225.5 1609,-1225.5 1609,-1225.5 520,-1225.5 520,-1225.5 514,-1225.5 508,-1219.5 508,-1213.5 508,-1213.5 508,-295 508,-295 508,-289 514,-283 520,-283"/>
<text text-anchor="middle" x="583.5" y="-1211.9" font-family="Sans-Serif" font-size="12.00" fill="#2d3436">Azure Sovereign Cloud</text>
</g>
<g id="clust6" class="cluster">
<title>cluster_IoT &amp; Analytics</title>
<path fill="#ebf3e7" stroke="#aeb6be" d="M871,-305.5C871,-305.5 998,-305.5 998,-305.5 1004,-305.5 1010,-311.5 1010,-317.5 1010,-317.5 1010,-975 1010,-975 1010,-981 1004,-987 998,-987 998,-987 871,-987 871,-987 865,-987 859,-981 859,-975 859,-975 859,-317.5 859,-317.5 859,-311.5 865,-305.5 871,-305.5"/>
<text text-anchor="middle" x="911.5" y="-973.4" font-family="Sans-Serif" font-size="12.00" fill="#2d3436">IoT &amp; Analytics</text>
</g>
<g id="clust7" class="cluster">
<title>cluster_Applications</title>
<path fill="#ebf3e7" stroke="#aeb6be" d="M528,-531C528,-531 781,-531 781,-531 787,-531 793,-537 793,-543 793,-543 793,-722 793,-722 793,-728 787,-734 781,-734 781,-734 528,-734 528,-734 522,-734 516,-728 516,-722 516,-722 516,-543 516,-543 516,-537 522,-531 528,-531"/>
<text text-anchor="middle" x="560.5" y="-720.4" font-family="Sans-Serif" font-size="12.00" fill="#2d3436">Applications</text>
</g>
<g id="clust8" class="cluster">
<title>cluster_Data &amp; Security</title>
<path fill="#ebf3e7" stroke="#aeb6be" d="M1030,-291C1030,-291 1601,-291 1601,-291 1607,-291 1613,-297 1613,-303 1613,-303 1613,-482 1613,-482 1613,-488 1607,-494 1601,-494 1601,-494 1030,-494 1030,-494 1024,-494 1018,-488 1018,-482 1018,-482 1018,-303 1018,-303 1018,-297 1024,-291 1030,-291"/>
<text text-anchor="middle" x="1073" y="-480.4" font-family="Sans-Serif" font-size="12.00" fill="#2d3436">Data &amp; Security</text>
</g>
<!-- 78d03e2edd654218b4b23501962fc25a -->
<g id="node1" class="node">
<title>78d03e2edd654218b4b23501962fc25a</title>
<image xlink:href="/workspaces/sov-cloud-brain-trek/.venv/lib/python3.12/site-packages/resources/generic/compute/rack.png" width="101px" height="101px" preserveAspectRatio="xMinYMin meet" x="55.5" y="-1178.5"/>
<text text-anchor="middle" x="106" y="-1063.1" font-family="Sans-Serif" font-size="13.00" fill="#2d3436">PLCs/RTUs</text>
</g>
<!-- d97e1314c6f54c0b8c66c954b65def62 -->
<g id="node2" class="node">
<title>d97e1314c6f54c0b8c66c954b65def62</title>
<image xlink:href="/workspaces/sov-cloud-brain-trek/.venv/lib/python3.12/site-packages/resources/generic/device/tablet.png" width="101px" height="101px" preserveAspectRatio="xMinYMin meet" x="97.5" y="-925.5"/>
<text text-anchor="middle" x="148" y="-810.1" font-family="Sans-Serif" font-size="13.00" fill="#2d3436">SCADA/HMI</text>
</g>
<!-- 78d03e2edd654218b4b23501962fc25a&#45;&gt;d97e1314c6f54c0b8c66c954b65def62 -->
<g id="edge1" class="edge">
<title>78d03e2edd654218b4b23501962fc25a&#45;&gt;d97e1314c6f54c0b8c66c954b65def62</title>
<path fill="none" stroke="#7b8894" d="M127,-1059.2C127,-1059.2 127,-953.79 127,-953.79"/>
<polygon fill="#7b8894" stroke="#7b8894" points="130.5,-953.79 127,-943.79 123.5,-953.79 130.5,-953.79"/>
</g>
<!-- 83b4e19c8fec4e919cd156091877eaf7 -->
<g id="node3" class="node">
<title>83b4e19c8fec4e919cd156091877eaf7</title>
<image xlink:href="/workspaces/sov-cloud-brain-trek/.venv/lib/python3.12/site-packages/resources/generic/compute/rack.png" width="101px" height="101px" preserveAspectRatio="xMinYMin meet" x="97.5" y="-672.5"/>
<text text-anchor="middle" x="148" y="-557.1" font-family="Sans-Serif" font-size="13.00" fill="#2d3436">Local Historian</text>
</g>
<!-- d97e1314c6f54c0b8c66c954b65def62&#45;&gt;83b4e19c8fec4e919cd156091877eaf7 -->
<g id="edge2" class="edge">
<title>d97e1314c6f54c0b8c66c954b65def62&#45;&gt;83b4e19c8fec4e919cd156091877eaf7</title>
<path fill="none" stroke="#7b8894" d="M148,-806.2C148,-806.2 148,-700.79 148,-700.79"/>
<polygon fill="#7b8894" stroke="#7b8894" points="151.5,-700.79 148,-690.79 144.5,-700.79 151.5,-700.79"/>
</g>
<!-- c4ae602b921447148ed025c60a99fe9b -->
<g id="node4" class="node">
<title>c4ae602b921447148ed025c60a99fe9b</title>
<image xlink:href="/workspaces/sov-cloud-brain-trek/.venv/lib/python3.12/site-packages/resources/generic/compute/rack.png" width="101px" height="101px" preserveAspectRatio="xMinYMin meet" x="97.5" y="-432.5"/>
<text text-anchor="middle" x="148" y="-317.1" font-family="Sans-Serif" font-size="13.00" fill="#2d3436">OT DMZ</text>
</g>
<!-- 83b4e19c8fec4e919cd156091877eaf7&#45;&gt;c4ae602b921447148ed025c60a99fe9b -->
<g id="edge3" class="edge">
<title>83b4e19c8fec4e919cd156091877eaf7&#45;&gt;c4ae602b921447148ed025c60a99fe9b</title>
<path fill="none" stroke="#7b8894" d="M148,-553.23C148,-553.23 148,-460.78 148,-460.78"/>
<polygon fill="#7b8894" stroke="#7b8894" points="151.5,-460.78 148,-450.78 144.5,-460.78 151.5,-460.78"/>
</g>
<!-- 253ae6537c20486481eac7b0c9b5be9b -->
<g id="node5" class="node">
<title>253ae6537c20486481eac7b0c9b5be9b</title>
<image xlink:href="/workspaces/sov-cloud-brain-trek/.venv/lib/python3.12/site-packages/resources/generic/compute/rack.png" width="101px" height="101px" preserveAspectRatio="xMinYMin meet" x="97.5" y="-180.5"/>
<text text-anchor="middle" x="148" y="-64.6" font-family="Sans-Serif" font-size="13.00" fill="#2d3436">Edge Gateway</text>
<text text-anchor="middle" x="148" y="-50.6" font-family="Sans-Serif" font-size="13.00" fill="#2d3436">(Azure IoT Edge)</text>
</g>
<!-- c4ae602b921447148ed025c60a99fe9b&#45;&gt;253ae6537c20486481eac7b0c9b5be9b -->
<g id="edge4" class="edge">
<title>c4ae602b921447148ed025c60a99fe9b&#45;&gt;253ae6537c20486481eac7b0c9b5be9b</title>
<path fill="none" stroke="#7b8894" d="M148,-313.47C148,-313.47 148,-223.33 148,-223.33"/>
<polygon fill="#7b8894" stroke="#7b8894" points="151.5,-223.33 148,-213.33 144.5,-223.33 151.5,-223.33"/>
</g>
<!-- 0ad82e4f4479479ea960ecdc65111db9 -->
<g id="node6" class="node">
<title>0ad82e4f4479479ea960ecdc65111db9</title>
<image xlink:href="/workspaces/sov-cloud-brain-trek/.venv/lib/python3.12/site-packages/resources/azure/network/firewall.png" width="101px" height="101px" preserveAspectRatio="xMinYMin meet" x="390.5" y="-1178.5"/>
<text text-anchor="middle" x="441" y="-1062.6" font-family="Sans-Serif" font-size="13.00" fill="#2d3436">Industrial</text>
<text text-anchor="middle" x="441" y="-1048.6" font-family="Sans-Serif" font-size="13.00" fill="#2d3436">Firewall</text>
</g>
<!-- 253ae6537c20486481eac7b0c9b5be9b&#45;&gt;0ad82e4f4479479ea960ecdc65111db9 -->
<g id="edge5" class="edge">
<title>253ae6537c20486481eac7b0c9b5be9b&#45;&gt;0ad82e4f4479479ea960ecdc65111db9</title>
<path fill="none" stroke="#7b8894" d="M198.78,-157C208.13,-157 215,-157 215,-157 215,-157 215,-1052 215,-1052 215,-1052 380.28,-1052 380.28,-1052"/>
<polygon fill="#7b8894" stroke="#7b8894" points="380.28,-1055.5 390.28,-1052 380.28,-1048.5 380.28,-1055.5"/>
</g>
<!-- 12084b59e5e54b85a09ca3bff0fd534d -->
<g id="node7" class="node">
<title>12084b59e5e54b85a09ca3bff0fd534d</title>
<image xlink:href="/workspaces/sov-cloud-brain-trek/.venv/lib/python3.12/site-packages/resources/azure/network/virtual-network-gateways.png" width="101px" height="101px" preserveAspectRatio="xMinYMin meet" x="390.5" y="-925.5"/>
<text text-anchor="middle" x="441" y="-810.1" font-family="Sans-Serif" font-size="13.00" fill="#2d3436">Secure VPN</text>
</g>
<!-- 0ad82e4f4479479ea960ecdc65111db9&#45;&gt;12084b59e5e54b85a09ca3bff0fd534d -->
<g id="edge6" class="edge">
<title>0ad82e4f4479479ea960ecdc65111db9&#45;&gt;12084b59e5e54b85a09ca3bff0fd534d</title>
<path fill="none" stroke="#7b8894" d="M424.17,-1044.81C424.17,-1044.81 424.17,-953.88 424.17,-953.88"/>
<polygon fill="#7b8894" stroke="#7b8894" points="427.67,-953.88 424.17,-943.88 420.67,-953.88 427.67,-953.88"/>
</g>
<!-- dfc4dff543f04401a13b235772e081cd -->
<g id="node9" class="node">
<title>dfc4dff543f04401a13b235772e081cd</title>
<image xlink:href="/workspaces/sov-cloud-brain-trek/.venv/lib/python3.12/site-packages/resources/azure/network/virtual-networks.png" width="101px" height="101px" preserveAspectRatio="xMinYMin meet" x="900.5" y="-1178.5"/>
<text text-anchor="middle" x="951" y="-1063.1" font-family="Sans-Serif" font-size="13.00" fill="#2d3436">Industrial VNet</text>
</g>
<!-- 12084b59e5e54b85a09ca3bff0fd534d&#45;&gt;dfc4dff543f04401a13b235772e081cd -->
<g id="edge7" class="edge">
<title>12084b59e5e54b85a09ca3bff0fd534d&#45;&gt;dfc4dff543f04401a13b235772e081cd</title>
<path fill="none" stroke="#7b8894" d="M457.83,-943.53C457.83,-973.08 457.83,-1001 457.83,-1001 457.83,-1001 934.17,-1001 934.17,-1001 934.17,-1001 934.17,-1049.3 934.17,-1049.3"/>
<polygon fill="#7b8894" stroke="#7b8894" points="930.67,-1049.3 934.17,-1059.3 937.67,-1049.3 930.67,-1049.3"/>
</g>
<!-- 92665acad4a2477998f3d4c2f783b051 -->
<g id="node8" class="node">
<title>92665acad4a2477998f3d4c2f783b051</title>
<image xlink:href="/workspaces/sov-cloud-brain-trek/.venv/lib/python3.12/site-packages/resources/azure/compute/vm.png" width="101px" height="101px" preserveAspectRatio="xMinYMin meet" x="231.5" y="-1178.5"/>
<text text-anchor="middle" x="282" y="-1063.1" font-family="Sans-Serif" font-size="13.00" fill="#2d3436">Azure Bastion</text>
</g>
<!-- 92665acad4a2477998f3d4c2f783b051&#45;&gt;d97e1314c6f54c0b8c66c954b65def62 -->
<g id="edge8" class="edge">
<title>92665acad4a2477998f3d4c2f783b051&#45;&gt;d97e1314c6f54c0b8c66c954b65def62</title>
<path fill="none" stroke="#7b8894" stroke-dasharray="1,5" d="M231.28,-1128C204.66,-1128 177.5,-1128 177.5,-1128 177.5,-1128 177.5,-953.8 177.5,-953.8"/>
<polygon fill="#7b8894" stroke="#7b8894" points="181,-953.8 177.5,-943.8 174,-953.8 181,-953.8"/>
<text text-anchor="middle" x="218.5" y="-998.6" font-family="Sans-Serif" font-size="13.00" fill="#2d3436">Secure Access</text>
</g>
<!-- 29c288ff2c3f456b90673fa5bed2b89e -->
<g id="node14" class="node">
<title>29c288ff2c3f456b90673fa5bed2b89e</title>
<image xlink:href="/workspaces/sov-cloud-brain-trek/.venv/lib/python3.12/site-packages/resources/azure/compute/vm.png" width="101px" height="101px" preserveAspectRatio="xMinYMin meet" x="524.5" y="-672.5"/>
<text text-anchor="middle" x="575" y="-556.6" font-family="Sans-Serif" font-size="13.00" fill="#2d3436">Industrial</text>
<text text-anchor="middle" x="575" y="-542.6" font-family="Sans-Serif" font-size="13.00" fill="#2d3436">Apps</text>
</g>
<!-- 92665acad4a2477998f3d4c2f783b051&#45;&gt;29c288ff2c3f456b90673fa5bed2b89e -->
<g id="edge9" class="edge">
<title>92665acad4a2477998f3d4c2f783b051&#45;&gt;29c288ff2c3f456b90673fa5bed2b89e</title>
<path fill="none" stroke="#7b8894" stroke-dasharray="1,5" d="M282,-1059.23C282,-937.55 282,-697 282,-697 282,-697 514.3,-697 514.3,-697"/>
<polygon fill="#7b8894" stroke="#7b8894" points="514.3,-700.5 524.3,-697 514.3,-693.5 514.3,-700.5"/>
<text text-anchor="middle" x="656.5" y="-871.6" font-family="Sans-Serif" font-size="13.00" fill="#2d3436">Secure Access</text>
</g>
<!-- 374d21b5d3ca4dc6844243f5d2c32251 -->
<g id="node10" class="node">
<title>374d21b5d3ca4dc6844243f5d2c32251</title>
<image xlink:href="/workspaces/sov-cloud-brain-trek/.venv/lib/python3.12/site-packages/resources/azure/iot/iot-hub.png" width="101px" height="101px" preserveAspectRatio="xMinYMin meet" x="900.5" y="-925.5"/>
<text text-anchor="middle" x="951" y="-809.6" font-family="Sans-Serif" font-size="13.00" fill="#2d3436">IoT Hub</text>
<text text-anchor="middle" x="951" y="-795.6" font-family="Sans-Serif" font-size="13.00" fill="#2d3436">(Device Twin)</text>
</g>
<!-- dfc4dff543f04401a13b235772e081cd&#45;&gt;374d21b5d3ca4dc6844243f5d2c32251 -->
<g id="edge10" class="edge">
<title>dfc4dff543f04401a13b235772e081cd&#45;&gt;374d21b5d3ca4dc6844243f5d2c32251</title>
<path fill="none" stroke="#7b8894" d="M967.83,-1059.2C967.83,-1059.2 967.83,-968.2 967.83,-968.2"/>
<polygon fill="#7b8894" stroke="#7b8894" points="971.33,-968.2 967.83,-958.2 964.33,-968.2 971.33,-968.2"/>
</g>
<!-- 53a17b3dcc5644d99b1c58c85593630b -->
<g id="node11" class="node">
<title>53a17b3dcc5644d99b1c58c85593630b</title>
<image xlink:href="/workspaces/sov-cloud-brain-trek/.venv/lib/python3.12/site-packages/resources/azure/analytics/stream-analytics-jobs.png" width="101px" height="101px" preserveAspectRatio="xMinYMin meet" x="900.5" y="-672.5"/>
<text text-anchor="middle" x="951" y="-556.6" font-family="Sans-Serif" font-size="13.00" fill="#2d3436">Stream</text>
<text text-anchor="middle" x="951" y="-542.6" font-family="Sans-Serif" font-size="13.00" fill="#2d3436">Analytics</text>
</g>
<!-- 374d21b5d3ca4dc6844243f5d2c32251&#45;&gt;53a17b3dcc5644d99b1c58c85593630b -->
<g id="edge11" class="edge">
<title>374d21b5d3ca4dc6844243f5d2c32251&#45;&gt;53a17b3dcc5644d99b1c58c85593630b</title>
<path fill="none" stroke="#7b8894" d="M951,-791.81C951,-791.81 951,-715.24 951,-715.24"/>
<polygon fill="#7b8894" stroke="#7b8894" points="954.5,-715.24 951,-705.24 947.5,-715.24 954.5,-715.24"/>
</g>
<!-- 1da33ae4033b4d1785ebaa1373098561 -->
<g id="node12" class="node">
<title>1da33ae4033b4d1785ebaa1373098561</title>
<image xlink:href="/workspaces/sov-cloud-brain-trek/.venv/lib/python3.12/site-packages/resources/azure/iot/time-series-insights-environments.png" width="101px" height="101px" preserveAspectRatio="xMinYMin meet" x="867.5" y="-432.5"/>
<text text-anchor="middle" x="918" y="-331.1" font-family="Sans-Serif" font-size="13.00" fill="#2d3436">Time Series</text>
<text text-anchor="middle" x="918" y="-317.1" font-family="Sans-Serif" font-size="13.00" fill="#2d3436">Insights</text>
</g>
<!-- 53a17b3dcc5644d99b1c58c85593630b&#45;&gt;1da33ae4033b4d1785ebaa1373098561 -->
<g id="edge12" class="edge">
<title>53a17b3dcc5644d99b1c58c85593630b&#45;&gt;1da33ae4033b4d1785ebaa1373098561</title>
<path fill="none" stroke="#7b8894" d="M934.5,-538.73C934.5,-538.73 934.5,-460.81 934.5,-460.81"/>
<polygon fill="#7b8894" stroke="#7b8894" points="938,-460.81 934.5,-450.81 931,-460.81 938,-460.81"/>
</g>
<!-- 58d750bc350f4249a3202c95fb6b9aab -->
<g id="node13" class="node">
<title>58d750bc350f4249a3202c95fb6b9aab</title>
<image xlink:href="/workspaces/sov-cloud-brain-trek/.venv/lib/python3.12/site-packages/resources/azure/compute/kubernetes-services.png" width="101px" height="101px" preserveAspectRatio="xMinYMin meet" x="683.5" y="-672.5"/>
<text text-anchor="middle" x="734" y="-556.6" font-family="Sans-Serif" font-size="13.00" fill="#2d3436">AKS</text>
<text text-anchor="middle" x="734" y="-542.6" font-family="Sans-Serif" font-size="13.00" fill="#2d3436">(Analytics)</text>
</g>
<!-- 53a17b3dcc5644d99b1c58c85593630b&#45;&gt;58d750bc350f4249a3202c95fb6b9aab -->
<g id="edge14" class="edge">
<title>53a17b3dcc5644d99b1c58c85593630b&#45;&gt;58d750bc350f4249a3202c95fb6b9aab</title>
<path fill="none" stroke="#7b8894" d="M900.4,-622C900.4,-622 794.68,-622 794.68,-622"/>
<polygon fill="#7b8894" stroke="#7b8894" points="794.68,-618.5 784.68,-622 794.68,-625.5 794.68,-618.5"/>
</g>
<!-- 9f68e79f2f4441efb10287cadb54a7af -->
<g id="node15" class="node">
<title>9f68e79f2f4441efb10287cadb54a7af</title>
<image xlink:href="/workspaces/sov-cloud-brain-trek/.venv/lib/python3.12/site-packages/resources/azure/storage/storage-accounts.png" width="101px" height="101px" preserveAspectRatio="xMinYMin meet" x="1344.5" y="-432.5"/>
<text text-anchor="middle" x="1395" y="-316.6" font-family="Sans-Serif" font-size="13.00" fill="#2d3436">Cold Storage</text>
<text text-anchor="middle" x="1395" y="-302.6" font-family="Sans-Serif" font-size="13.00" fill="#2d3436">(Telemetry)</text>
</g>
<!-- 53a17b3dcc5644d99b1c58c85593630b&#45;&gt;9f68e79f2f4441efb10287cadb54a7af -->
<g id="edge13" class="edge">
<title>53a17b3dcc5644d99b1c58c85593630b&#45;&gt;9f68e79f2f4441efb10287cadb54a7af</title>
<path fill="none" stroke="#7b8894" d="M985,-538.53C985,-497.61 985,-457 985,-457 985,-457 1334.31,-457 1334.31,-457"/>
<polygon fill="#7b8894" stroke="#7b8894" points="1334.31,-460.5 1344.31,-457 1334.31,-453.5 1334.31,-460.5"/>
</g>
<!-- 6ce5866d35874e81a907acc8ace8e4f3 -->
<g id="node16" class="node">
<title>6ce5866d35874e81a907acc8ace8e4f3</title>
<image xlink:href="/workspaces/sov-cloud-brain-trek/.venv/lib/python3.12/site-packages/resources/azure/database/sql-databases.png" width="101px" height="101px" preserveAspectRatio="xMinYMin meet" x="1026.5" y="-432.5"/>
<text text-anchor="middle" x="1077" y="-317.1" font-family="Sans-Serif" font-size="13.00" fill="#2d3436">SQL DB</text>
</g>
<!-- 58d750bc350f4249a3202c95fb6b9aab&#45;&gt;6ce5866d35874e81a907acc8ace8e4f3 -->
<g id="edge15" class="edge">
<title>58d750bc350f4249a3202c95fb6b9aab&#45;&gt;6ce5866d35874e81a907acc8ace8e4f3</title>
<path fill="none" stroke="#7b8894" d="M734,-538.98C734,-518.35 734,-502 734,-502 734,-502 1077,-502 1077,-502 1077,-502 1077,-460.76 1077,-460.76"/>
<polygon fill="#7b8894" stroke="#7b8894" points="1080.5,-460.76 1077,-450.76 1073.5,-460.76 1080.5,-460.76"/>
</g>
<!-- 54dee8cd4b634d2d9ededa99a0d53106 -->
<g id="node17" class="node">
<title>54dee8cd4b634d2d9ededa99a0d53106</title>
<image xlink:href="/workspaces/sov-cloud-brain-trek/.venv/lib/python3.12/site-packages/resources/azure/security/key-vaults.png" width="101px" height="101px" preserveAspectRatio="xMinYMin meet" x="1185.5" y="-432.5"/>
<text text-anchor="middle" x="1236" y="-317.1" font-family="Sans-Serif" font-size="13.00" fill="#2d3436">Key Vault</text>
</g>
<!-- 54dee8cd4b634d2d9ededa99a0d53106&#45;&gt;253ae6537c20486481eac7b0c9b5be9b -->
<g id="edge16" class="edge">
<title>54dee8cd4b634d2d9ededa99a0d53106&#45;&gt;253ae6537c20486481eac7b0c9b5be9b</title>
<path fill="none" stroke="#7b8894" stroke-dasharray="5,2" d="M1236,-313.15C1236,-230.24 1236,-102 1236,-102 1236,-102 208.66,-102 208.66,-102"/>
<polygon fill="#7b8894" stroke="#7b8894" points="208.66,-98.5 198.66,-102 208.66,-105.5 208.66,-98.5"/>
<text text-anchor="middle" x="840" y="-252.6" font-family="Sans-Serif" font-size="13.00" fill="#2d3436">Secrets</text>
</g>
<!-- 2cf6d1e7ca6d4d36af5a32cedfdda221 -->
<g id="node18" class="node">
<title>2cf6d1e7ca6d4d36af5a32cedfdda221</title>
<image xlink:href="/workspaces/sov-cloud-brain-trek/.venv/lib/python3.12/site-packages/resources/azure/security/sentinel.png" width="101px" height="101px" preserveAspectRatio="xMinYMin meet" x="1503.5" y="-432.5"/>
<text text-anchor="middle" x="1554" y="-316.6" font-family="Sans-Serif" font-size="13.00" fill="#2d3436">Sentinel</text>
<text text-anchor="middle" x="1554" y="-302.6" font-family="Sans-Serif" font-size="13.00" fill="#2d3436">(OT Workbooks)</text>
</g>
<!-- 2cf6d1e7ca6d4d36af5a32cedfdda221&#45;&gt;dfc4dff543f04401a13b235772e081cd -->
<g id="edge17" class="edge">
<title>2cf6d1e7ca6d4d36af5a32cedfdda221&#45;&gt;dfc4dff543f04401a13b235772e081cd</title>
<path fill="none" stroke="#7b8894" stroke-dasharray="1,5" d="M1554,-465.04C1554,-659.49 1554,-1128 1554,-1128 1554,-1128 1011.63,-1128 1011.63,-1128"/>
<polygon fill="#7b8894" stroke="#7b8894" points="1011.63,-1124.5 1001.63,-1128 1011.63,-1131.5 1011.63,-1124.5"/>
<text text-anchor="middle" x="1344" y="-745.6" font-family="Sans-Serif" font-size="13.00" fill="#2d3436">OT Threat Detection</text>
</g>
</g>
</svg>
