<?xml version="1.0" encoding="UTF-8" standalone="no"?>
<!DOCTYPE svg PUBLIC "-//W3C//DTD SVG 1.1//EN"
 "http://www.w3.org/Graphics/SVG/1.1/DTD/svg11.dtd">
<!-- Generated by graphviz version 2.43.0 (0)
 -->
<!-- Title: Data Mesh for Sovereignty Pages: 1 -->
<svg width="1155pt" height="1039pt"
 viewBox="0.00 0.00 1154.50 1038.50" xmlns="http://www.w3.org/2000/svg" xmlns:xlink="http://www.w3.org/1999/xlink">
<g id="graph0" class="graph" transform="scale(1 1) rotate(0) translate(36 1002.5)">
<title>Data Mesh for Sovereignty</title>
<polygon fill="white" stroke="transparent" points="-36,36 -36,-1002.5 1118.5,-1002.5 1118.5,36 -36,36"/>
<text text-anchor="middle" x="541.25" y="-7.8" font-family="Sans-Serif" font-size="14.00" fill="#2d3436">Data Mesh for Sovereignty</text>
<g id="clust1" class="cluster">
<title>cluster_Federated Governance</title>
<path fill="#f3e8ff" stroke="#aeb6be" d="M254,-755.5C254,-755.5 666,-755.5 666,-755.5 672,-755.5 678,-761.5 678,-767.5 678,-767.5 678,-946.5 678,-946.5 678,-952.5 672,-958.5 666,-958.5 666,-958.5 254,-958.5 254,-958.5 248,-958.5 242,-952.5 242,-946.5 242,-946.5 242,-767.5 242,-767.5 242,-761.5 248,-755.5 254,-755.5"/>
<text text-anchor="middle" x="318.5" y="-944.9" font-family="Sans-Serif" font-size="12.00" fill="#2d3436">Federated Governance</text>
</g>
<g id="clust2" class="cluster">
<title>cluster_Domain Data Products</title>
<path fill="#e5f5fd" stroke="#aeb6be" d="M20,-31C20,-31 925,-31 925,-31 931,-31 937,-37 937,-43 937,-43 937,-693.5 937,-693.5 937,-699.5 931,-705.5 925,-705.5 925,-705.5 20,-705.5 20,-705.5 14,-705.5 8,-699.5 8,-693.5 8,-693.5 8,-43 8,-43 8,-37 14,-31 20,-31"/>
<text text-anchor="middle" x="83" y="-691.9" font-family="Sans-Serif" font-size="12.00" fill="#2d3436">Domain Data Products</text>
</g>
<g id="clust3" class="cluster">
<title>cluster_Sales Domain (EU)</title>
<path fill="#e8f4fd" stroke="#aeb6be" d="M28,-263.5C28,-263.5 281,-263.5 281,-263.5 287,-263.5 293,-269.5 293,-275.5 293,-275.5 293,-650 293,-650 293,-656 287,-662 281,-662 281,-662 28,-662 28,-662 22,-662 16,-656 16,-650 16,-650 16,-275.5 16,-275.5 16,-269.5 22,-263.5 28,-263.5"/>
<text text-anchor="middle" x="80" y="-648.4" font-family="Sans-Serif" font-size="12.00" fill="#2d3436">Sales Domain (EU)</text>
</g>
<g id="clust4" class="cluster">
<title>cluster_Customer Domain (EU)</title>
<path fill="#fff4e6" stroke="#aeb6be" d="M346,-263.5C346,-263.5 599,-263.5 599,-263.5 605,-263.5 611,-269.5 611,-275.5 611,-275.5 611,-650 611,-650 611,-656 605,-662 599,-662 599,-662 346,-662 346,-662 340,-662 334,-656 334,-650 334,-650 334,-275.5 334,-275.5 334,-269.5 340,-263.5 346,-263.5"/>
<text text-anchor="middle" x="411.5" y="-648.4" font-family="Sans-Serif" font-size="12.00" fill="#2d3436">Customer Domain (EU)</text>
</g>
<g id="clust5" class="cluster">
<title>cluster_Analytics Domain (EU)</title>
<path fill="#d4e9d7" stroke="#aeb6be" d="M664,-39C664,-39 917,-39 917,-39 923,-39 929,-45 929,-51 929,-51 929,-664.5 929,-664.5 929,-670.5 923,-676.5 917,-676.5 917,-676.5 664,-676.5 664,-676.5 658,-676.5 652,-670.5 652,-664.5 652,-664.5 652,-51 652,-51 652,-45 658,-39 664,-39"/>
<text text-anchor="middle" x="726.5" y="-662.9" font-family="Sans-Serif" font-size="12.00" fill="#2d3436">Analytics Domain (EU)</text>
</g>
<!-- 92a9c9fb02ab41aeb6b3ad8ab7da6e94 -->
<g id="node1" class="node">
<title>92a9c9fb02ab41aeb6b3ad8ab7da6e94</title>
<image xlink:href="/workspaces/sov-cloud-brain-trek/.venv/lib/python3.12/site-packages/resources/azure/integration/azure-data-catalog.png" width="101px" height="101px" preserveAspectRatio="xMinYMin meet" x="250.5" y="-897"/>
<text text-anchor="middle" x="301" y="-781.1" font-family="Sans-Serif" font-size="13.00" fill="#2d3436">Microsoft Purview</text>
<text text-anchor="middle" x="301" y="-767.1" font-family="Sans-Serif" font-size="13.00" fill="#2d3436">(Data Catalog)</text>
</g>
<!-- 33d285667ea34f5287fde4b6e81c6d2c -->
<g id="node5" class="node">
<title>33d285667ea34f5287fde4b6e81c6d2c</title>
<image xlink:href="/workspaces/sov-cloud-brain-trek/.venv/lib/python3.12/site-packages/resources/azure/database/sql-databases.png" width="101px" height="101px" preserveAspectRatio="xMinYMin meet" x="24.5" y="-615"/>
<text text-anchor="middle" x="75" y="-499.6" font-family="Sans-Serif" font-size="13.00" fill="#2d3436">Sales DB</text>
</g>
<!-- 92a9c9fb02ab41aeb6b3ad8ab7da6e94&#45;&gt;33d285667ea34f5287fde4b6e81c6d2c -->
<g id="edge1" class="edge">
<title>92a9c9fb02ab41aeb6b3ad8ab7da6e94&#45;&gt;33d285667ea34f5287fde4b6e81c6d2c</title>
<path fill="none" stroke="#7b8894" stroke-dasharray="1,5" d="M250.39,-846C179.22,-846 58.17,-846 58.17,-846 58.17,-846 58.17,-643 58.17,-643"/>
<polygon fill="#7b8894" stroke="#7b8894" points="61.67,-643 58.17,-633 54.67,-643 61.67,-643"/>
<text text-anchor="middle" x="51" y="-717.1" font-family="Sans-Serif" font-size="13.00" fill="#2d3436">Catalog</text>
</g>
<!-- 4ecdd50f76d44d87bf5d884c37bd6cee -->
<g id="node8" class="node">
<title>4ecdd50f76d44d87bf5d884c37bd6cee</title>
<image xlink:href="/workspaces/sov-cloud-brain-trek/.venv/lib/python3.12/site-packages/resources/azure/database/cosmos-db.png" width="101px" height="101px" preserveAspectRatio="xMinYMin meet" x="342.5" y="-615"/>
<text text-anchor="middle" x="393" y="-499.6" font-family="Sans-Serif" font-size="13.00" fill="#2d3436">Customer DB</text>
</g>
<!-- 92a9c9fb02ab41aeb6b3ad8ab7da6e94&#45;&gt;4ecdd50f76d44d87bf5d884c37bd6cee -->
<g id="edge2" class="edge">
<title>92a9c9fb02ab41aeb6b3ad8ab7da6e94&#45;&gt;4ecdd50f76d44d87bf5d884c37bd6cee</title>
<path fill="none" stroke="#7b8894" stroke-dasharray="1,5" d="M345.5,-763.42C345.5,-763.42 345.5,-643.23 345.5,-643.23"/>
<polygon fill="#7b8894" stroke="#7b8894" points="349,-643.23 345.5,-633.23 342,-643.23 349,-643.23"/>
<text text-anchor="middle" x="371" y="-717.1" font-family="Sans-Serif" font-size="13.00" fill="#2d3436">Catalog</text>
</g>
<!-- a3b63cbd7d28440f8e6f368311a5ab3d -->
<g id="node11" class="node">
<title>a3b63cbd7d28440f8e6f368311a5ab3d</title>
<image xlink:href="/workspaces/sov-cloud-brain-trek/.venv/lib/python3.12/site-packages/resources/azure/database/data-lake.png" width="101px" height="101px" preserveAspectRatio="xMinYMin meet" x="660.5" y="-615"/>
<text text-anchor="middle" x="711" y="-499.1" font-family="Sans-Serif" font-size="13.00" fill="#2d3436">Data Lake</text>
<text text-anchor="middle" x="711" y="-485.1" font-family="Sans-Serif" font-size="13.00" fill="#2d3436">(Aggregated)</text>
</g>
<!-- 92a9c9fb02ab41aeb6b3ad8ab7da6e94&#45;&gt;a3b63cbd7d28440f8e6f368311a5ab3d -->
<g id="edge3" class="edge">
<title>92a9c9fb02ab41aeb6b3ad8ab7da6e94&#45;&gt;a3b63cbd7d28440f8e6f368311a5ab3d</title>
<path fill="none" stroke="#7b8894" stroke-dasharray="1,5" d="M348.5,-763.4C348.5,-704.91 348.5,-637 348.5,-637 348.5,-637 650.21,-637 650.21,-637"/>
<polygon fill="#7b8894" stroke="#7b8894" points="650.21,-640.5 660.21,-637 650.21,-633.5 650.21,-640.5"/>
<text text-anchor="middle" x="691" y="-717.1" font-family="Sans-Serif" font-size="13.00" fill="#2d3436">Catalog</text>
</g>
<!-- f3c1d0ac68c14422bbe1b7a459e78d71 -->
<g id="node2" class="node">
<title>f3c1d0ac68c14422bbe1b7a459e78d71</title>
<image xlink:href="/workspaces/sov-cloud-brain-trek/.venv/lib/python3.12/site-packages/resources/azure/general/tags.png" width="101px" height="101px" preserveAspectRatio="xMinYMin meet" x="568.5" y="-897"/>
<text text-anchor="middle" x="619" y="-781.1" font-family="Sans-Serif" font-size="13.00" fill="#2d3436">Data Policies</text>
<text text-anchor="middle" x="619" y="-767.1" font-family="Sans-Serif" font-size="13.00" fill="#2d3436">(Residency)</text>
</g>
<!-- fa75cda68b784a15b89776e174dd6c13 -->
<g id="node4" class="node">
<title>fa75cda68b784a15b89776e174dd6c13</title>
<image xlink:href="/workspaces/sov-cloud-brain-trek/.venv/lib/python3.12/site-packages/resources/azure/network/virtual-networks.png" width="101px" height="101px" preserveAspectRatio="xMinYMin meet" x="183.5" y="-615"/>
<text text-anchor="middle" x="234" y="-499.6" font-family="Sans-Serif" font-size="13.00" fill="#2d3436">EU VNet</text>
</g>
<!-- f3c1d0ac68c14422bbe1b7a459e78d71&#45;&gt;fa75cda68b784a15b89776e174dd6c13 -->
<g id="edge4" class="edge">
<title>f3c1d0ac68c14422bbe1b7a459e78d71&#45;&gt;fa75cda68b784a15b89776e174dd6c13</title>
<path fill="none" stroke="#7b8894" stroke-dasharray="1,5" d="M579.83,-763.43C579.83,-724.27 579.83,-686 579.83,-686 579.83,-686 267.5,-686 267.5,-686 267.5,-686 267.5,-643.06 267.5,-643.06"/>
<polygon fill="#7b8894" stroke="#7b8894" points="271,-643.06 267.5,-633.06 264,-643.06 271,-643.06"/>
<text text-anchor="middle" x="257" y="-717.1" font-family="Sans-Serif" font-size="13.00" fill="#2d3436">Policies</text>
</g>
<!-- 49b0a97197804278bdfed73f38b49856 -->
<g id="node7" class="node">
<title>49b0a97197804278bdfed73f38b49856</title>
<image xlink:href="/workspaces/sov-cloud-brain-trek/.venv/lib/python3.12/site-packages/resources/azure/network/virtual-networks.png" width="101px" height="101px" preserveAspectRatio="xMinYMin meet" x="501.5" y="-615"/>
<text text-anchor="middle" x="552" y="-499.6" font-family="Sans-Serif" font-size="13.00" fill="#2d3436">EU VNet</text>
</g>
<!-- f3c1d0ac68c14422bbe1b7a459e78d71&#45;&gt;49b0a97197804278bdfed73f38b49856 -->
<g id="edge5" class="edge">
<title>f3c1d0ac68c14422bbe1b7a459e78d71&#45;&gt;49b0a97197804278bdfed73f38b49856</title>
<path fill="none" stroke="#7b8894" stroke-dasharray="1,5" d="M591.17,-763.42C591.17,-763.42 591.17,-643.23 591.17,-643.23"/>
<polygon fill="#7b8894" stroke="#7b8894" points="594.67,-643.23 591.17,-633.23 587.67,-643.23 594.67,-643.23"/>
<text text-anchor="middle" x="577" y="-717.1" font-family="Sans-Serif" font-size="13.00" fill="#2d3436">Policies</text>
</g>
<!-- 755dae172c164d2089a425e40d379873 -->
<g id="node10" class="node">
<title>755dae172c164d2089a425e40d379873</title>
<image xlink:href="/workspaces/sov-cloud-brain-trek/.venv/lib/python3.12/site-packages/resources/azure/network/virtual-networks.png" width="101px" height="101px" preserveAspectRatio="xMinYMin meet" x="819.5" y="-615"/>
<text text-anchor="middle" x="870" y="-499.6" font-family="Sans-Serif" font-size="13.00" fill="#2d3436">EU VNet</text>
</g>
<!-- f3c1d0ac68c14422bbe1b7a459e78d71&#45;&gt;755dae172c164d2089a425e40d379873 -->
<g id="edge6" class="edge">
<title>f3c1d0ac68c14422bbe1b7a459e78d71&#45;&gt;755dae172c164d2089a425e40d379873</title>
<path fill="none" stroke="#7b8894" stroke-dasharray="1,5" d="M669.79,-846C743.14,-846 870,-846 870,-846 870,-846 870,-643 870,-643"/>
<polygon fill="#7b8894" stroke="#7b8894" points="873.5,-643 870,-633 866.5,-643 873.5,-643"/>
<text text-anchor="middle" x="897" y="-717.1" font-family="Sans-Serif" font-size="13.00" fill="#2d3436">Policies</text>
</g>
<!-- 852eedb1206b4e119cfbb95e1ea6c599 -->
<g id="node3" class="node">
<title>852eedb1206b4e119cfbb95e1ea6c599</title>
<image xlink:href="/workspaces/sov-cloud-brain-trek/.venv/lib/python3.12/site-packages/resources/azure/security/key-vaults.png" width="101px" height="101px" preserveAspectRatio="xMinYMin meet" x="409.5" y="-897"/>
<text text-anchor="middle" x="460" y="-781.1" font-family="Sans-Serif" font-size="13.00" fill="#2d3436">Key Vault</text>
<text text-anchor="middle" x="460" y="-767.1" font-family="Sans-Serif" font-size="13.00" fill="#2d3436">(CMK)</text>
</g>
<!-- 852eedb1206b4e119cfbb95e1ea6c599&#45;&gt;33d285667ea34f5287fde4b6e81c6d2c -->
<g id="edge7" class="edge">
<title>852eedb1206b4e119cfbb95e1ea6c599&#45;&gt;33d285667ea34f5287fde4b6e81c6d2c</title>
<path fill="none" stroke="#7b8894" stroke-dasharray="5,2" d="M420.83,-763.43C420.83,-741.59 420.83,-724 420.83,-724 420.83,-724 91.83,-724 91.83,-724 91.83,-724 91.83,-643.07 91.83,-643.07"/>
<polygon fill="#7b8894" stroke="#7b8894" points="95.33,-643.07 91.83,-633.07 88.33,-643.07 95.33,-643.07"/>
<text text-anchor="middle" x="154.5" y="-717.1" font-family="Sans-Serif" font-size="13.00" fill="#2d3436">CMK</text>
</g>
<!-- 852eedb1206b4e119cfbb95e1ea6c599&#45;&gt;4ecdd50f76d44d87bf5d884c37bd6cee -->
<g id="edge8" class="edge">
<title>852eedb1206b4e119cfbb95e1ea6c599&#45;&gt;4ecdd50f76d44d87bf5d884c37bd6cee</title>
<path fill="none" stroke="#7b8894" stroke-dasharray="5,2" d="M432.17,-763.42C432.17,-763.42 432.17,-643.23 432.17,-643.23"/>
<polygon fill="#7b8894" stroke="#7b8894" points="435.67,-643.23 432.17,-633.23 428.67,-643.23 435.67,-643.23"/>
<text text-anchor="middle" x="474.5" y="-717.1" font-family="Sans-Serif" font-size="13.00" fill="#2d3436">CMK</text>
</g>
<!-- 852eedb1206b4e119cfbb95e1ea6c599&#45;&gt;a3b63cbd7d28440f8e6f368311a5ab3d -->
<g id="edge9" class="edge">
<title>852eedb1206b4e119cfbb95e1ea6c599&#45;&gt;a3b63cbd7d28440f8e6f368311a5ab3d</title>
<path fill="none" stroke="#7b8894" stroke-dasharray="5,2" d="M506,-763.32C506,-706.71 506,-642 506,-642 506,-642 650.33,-642 650.33,-642"/>
<polygon fill="#7b8894" stroke="#7b8894" points="650.33,-645.5 660.33,-642 650.33,-638.5 650.33,-645.5"/>
<text text-anchor="middle" x="794.5" y="-717.1" font-family="Sans-Serif" font-size="13.00" fill="#2d3436">CMK</text>
</g>
<!-- cb7b62b9f4b64b2fbe987f756c1f769a -->
<g id="node6" class="node">
<title>cb7b62b9f4b64b2fbe987f756c1f769a</title>
<image xlink:href="/workspaces/sov-cloud-brain-trek/.venv/lib/python3.12/site-packages/resources/azure/integration/api-management.png" width="101px" height="101px" preserveAspectRatio="xMinYMin meet" x="143.5" y="-390.5"/>
<text text-anchor="middle" x="194" y="-275.1" font-family="Sans-Serif" font-size="13.00" fill="#2d3436">Sales API</text>
</g>
<!-- 33d285667ea34f5287fde4b6e81c6d2c&#45;&gt;cb7b62b9f4b64b2fbe987f756c1f769a -->
<g id="edge10" class="edge">
<title>33d285667ea34f5287fde4b6e81c6d2c&#45;&gt;cb7b62b9f4b64b2fbe987f756c1f769a</title>
<path fill="none" stroke="#7b8894" d="M125.71,-564C145.49,-564 163.5,-564 163.5,-564 163.5,-564 163.5,-418.73 163.5,-418.73"/>
<polygon fill="#7b8894" stroke="#7b8894" points="167,-418.73 163.5,-408.73 160,-418.73 167,-418.73"/>
</g>
<!-- 3df554115d424763b740d1187f4c9780 -->
<g id="node14" class="node">
<title>3df554115d424763b740d1187f4c9780</title>
<image xlink:href="/workspaces/sov-cloud-brain-trek/.venv/lib/python3.12/site-packages/resources/azure/integration/api-management.png" width="101px" height="101px" preserveAspectRatio="xMinYMin meet" x="981.5" y="-166"/>
<text text-anchor="middle" x="1032" y="-50.1" font-family="Sans-Serif" font-size="13.00" fill="#2d3436">Data Mesh</text>
<text text-anchor="middle" x="1032" y="-36.1" font-family="Sans-Serif" font-size="13.00" fill="#2d3436">Data Products API</text>
</g>
<!-- cb7b62b9f4b64b2fbe987f756c1f769a&#45;&gt;3df554115d424763b740d1187f4c9780 -->
<g id="edge12" class="edge">
<title>cb7b62b9f4b64b2fbe987f756c1f769a&#45;&gt;3df554115d424763b740d1187f4c9780</title>
<path fill="none" stroke="#7b8894" d="M194,-271.12C194,-230.9 194,-188 194,-188 194,-188 971.47,-188 971.47,-188"/>
<polygon fill="#7b8894" stroke="#7b8894" points="971.47,-191.5 981.47,-188 971.47,-184.5 971.47,-191.5"/>
</g>
<!-- e6c1d7fbf4764841affa676370efe134 -->
<g id="node9" class="node">
<title>e6c1d7fbf4764841affa676370efe134</title>
<image xlink:href="/workspaces/sov-cloud-brain-trek/.venv/lib/python3.12/site-packages/resources/azure/integration/api-management.png" width="101px" height="101px" preserveAspectRatio="xMinYMin meet" x="461.5" y="-390.5"/>
<text text-anchor="middle" x="512" y="-275.1" font-family="Sans-Serif" font-size="13.00" fill="#2d3436">Customer API</text>
</g>
<!-- 4ecdd50f76d44d87bf5d884c37bd6cee&#45;&gt;e6c1d7fbf4764841affa676370efe134 -->
<g id="edge11" class="edge">
<title>4ecdd50f76d44d87bf5d884c37bd6cee&#45;&gt;e6c1d7fbf4764841affa676370efe134</title>
<path fill="none" stroke="#7b8894" d="M443.71,-564C463.49,-564 481.5,-564 481.5,-564 481.5,-564 481.5,-418.73 481.5,-418.73"/>
<polygon fill="#7b8894" stroke="#7b8894" points="485,-418.73 481.5,-408.73 478,-418.73 485,-418.73"/>
</g>
<!-- e6c1d7fbf4764841affa676370efe134&#45;&gt;3df554115d424763b740d1187f4c9780 -->
<g id="edge13" class="edge">
<title>e6c1d7fbf4764841affa676370efe134&#45;&gt;3df554115d424763b740d1187f4c9780</title>
<path fill="none" stroke="#7b8894" d="M512,-271.23C512,-232.98 512,-193 512,-193 512,-193 971.19,-193 971.19,-193"/>
<polygon fill="#7b8894" stroke="#7b8894" points="971.19,-196.5 981.19,-193 971.19,-189.5 971.19,-196.5"/>
</g>
<!-- 22387a39564042279e04ad1ef80bec54 -->
<g id="node12" class="node">
<title>22387a39564042279e04ad1ef80bec54</title>
<image xlink:href="/workspaces/sov-cloud-brain-trek/.venv/lib/python3.12/site-packages/resources/azure/analytics/databricks.png" width="101px" height="101px" preserveAspectRatio="xMinYMin meet" x="660.5" y="-390.5"/>
<text text-anchor="middle" x="711" y="-275.1" font-family="Sans-Serif" font-size="13.00" fill="#2d3436">Databricks</text>
</g>
<!-- a3b63cbd7d28440f8e6f368311a5ab3d&#45;&gt;22387a39564042279e04ad1ef80bec54 -->
<g id="edge15" class="edge">
<title>a3b63cbd7d28440f8e6f368311a5ab3d&#45;&gt;22387a39564042279e04ad1ef80bec54</title>
<path fill="none" stroke="#7b8894" d="M711,-481.22C711,-481.22 711,-418.82 711,-418.82"/>
<polygon fill="#7b8894" stroke="#7b8894" points="714.5,-418.82 711,-408.82 707.5,-418.82 714.5,-418.82"/>
</g>
<!-- e40d8974dcfb428483d81b8d1936e6fd -->
<g id="node13" class="node">
<title>e40d8974dcfb428483d81b8d1936e6fd</title>
<image xlink:href="/workspaces/sov-cloud-brain-trek/.venv/lib/python3.12/site-packages/resources/azure/analytics/synapse-analytics.png" width="101px" height="101px" preserveAspectRatio="xMinYMin meet" x="660.5" y="-166"/>
<text text-anchor="middle" x="711" y="-50.6" font-family="Sans-Serif" font-size="13.00" fill="#2d3436">Synapse</text>
</g>
<!-- 22387a39564042279e04ad1ef80bec54&#45;&gt;e40d8974dcfb428483d81b8d1936e6fd -->
<g id="edge16" class="edge">
<title>22387a39564042279e04ad1ef80bec54&#45;&gt;e40d8974dcfb428483d81b8d1936e6fd</title>
<path fill="none" stroke="#7b8894" d="M711,-271.42C711,-271.42 711,-194.04 711,-194.04"/>
<polygon fill="#7b8894" stroke="#7b8894" points="714.5,-194.04 711,-184.04 707.5,-194.04 714.5,-194.04"/>
</g>
<!-- 3df554115d424763b740d1187f4c9780&#45;&gt;a3b63cbd7d28440f8e6f368311a5ab3d -->
<g id="edge14" class="edge">
<title>3df554115d424763b740d1187f4c9780&#45;&gt;a3b63cbd7d28440f8e6f368311a5ab3d</title>
<path fill="none" stroke="#7b8894" d="M1032,-198.63C1032,-308.42 1032,-488 1032,-488 1032,-488 771.51,-488 771.51,-488"/>
<polygon fill="#7b8894" stroke="#7b8894" points="771.51,-484.5 761.51,-488 771.51,-491.5 771.51,-484.5"/>
</g>
</g>
</svg>
