<?xml version="1.0" encoding="UTF-8" standalone="no"?>
<!DOCTYPE svg PUBLIC "-//W3C//DTD SVG 1.1//EN"
 "http://www.w3.org/Graphics/SVG/1.1/DTD/svg11.dtd">
<!-- Generated by graphviz version 2.43.0 (0)
 -->
<!-- Title: Disaster Recovery Topology Pages: 1 -->
<svg width="781pt" height="2574pt"
 viewBox="0.00 0.00 781.00 2574.00" xmlns="http://www.w3.org/2000/svg" xmlns:xlink="http://www.w3.org/1999/xlink">
<g id="graph0" class="graph" transform="scale(1 1) rotate(0) translate(36 2538)">
<title>Disaster Recovery Topology</title>
<polygon fill="white" stroke="transparent" points="-36,36 -36,-2538 745,-2538 745,36 -36,36"/>
<text text-anchor="middle" x="354.5" y="-7.8" font-family="Sans-Serif" font-size="14.00" fill="#2d3436">Disaster Recovery Topology</text>
<g id="clust1" class="cluster">
<title>cluster_Primary Region: EU West</title>
<path fill="#d4e9d7" stroke="#aeb6be" d="M257,-1371C257,-1371 670,-1371 670,-1371 676,-1371 682,-1377 682,-1383 682,-1383 682,-2482 682,-2482 682,-2488 676,-2494 670,-2494 670,-2494 257,-2494 257,-2494 251,-2494 245,-2488 245,-2482 245,-2482 245,-1383 245,-1383 245,-1377 251,-1371 257,-1371"/>
<text text-anchor="middle" x="327" y="-2480.4" font-family="Sans-Serif" font-size="12.00" fill="#2d3436">Primary Region: EU West</text>
</g>
<g id="clust2" class="cluster">
<title>cluster_Production Workloads</title>
<path fill="#ebf3e7" stroke="#aeb6be" d="M265,-2038C265,-2038 662,-2038 662,-2038 668,-2038 674,-2044 674,-2050 674,-2050 674,-2453 674,-2453 674,-2459 668,-2465 662,-2465 662,-2465 265,-2465 265,-2465 259,-2465 253,-2459 253,-2453 253,-2453 253,-2050 253,-2050 253,-2044 259,-2038 265,-2038"/>
<text text-anchor="middle" x="326" y="-2451.4" font-family="Sans-Serif" font-size="12.00" fill="#2d3436">Production Workloads</text>
</g>
<g id="clust3" class="cluster">
<title>cluster_Primary Data</title>
<path fill="#ebf3e7" stroke="#aeb6be" d="M265,-1379C265,-1379 358,-1379 358,-1379 364,-1379 370,-1385 370,-1391 370,-1391 370,-2018 370,-2018 370,-2024 364,-2030 358,-2030 358,-2030 265,-2030 265,-2030 259,-2030 253,-2024 253,-2018 253,-2018 253,-1391 253,-1391 253,-1385 259,-1379 265,-1379"/>
<text text-anchor="middle" x="300.5" y="-2016.4" font-family="Sans-Serif" font-size="12.00" fill="#2d3436">Primary Data</text>
</g>
<g id="clust4" class="cluster">
<title>cluster_Secondary Region: EU North</title>
<path fill="#fff4e6" stroke="#aeb6be" d="M535,-31C535,-31 697,-31 697,-31 703,-31 709,-37 709,-43 709,-43 709,-1351 709,-1351 709,-1357 703,-1363 697,-1363 697,-1363 535,-1363 535,-1363 529,-1363 523,-1357 523,-1351 523,-1351 523,-43 523,-43 523,-37 529,-31 535,-31"/>
<text text-anchor="middle" x="616" y="-1349.4" font-family="Sans-Serif" font-size="12.00" fill="#2d3436">Secondary Region: EU North</text>
</g>
<g id="clust5" class="cluster">
<title>cluster_DR Workloads</title>
<path fill="#ebf3e7" stroke="#aeb6be" d="M569,-39C569,-39 662,-39 662,-39 668,-39 674,-45 674,-51 674,-51 674,-650 674,-650 674,-656 668,-662 662,-662 662,-662 569,-662 569,-662 563,-662 557,-656 557,-650 557,-650 557,-51 557,-51 557,-45 563,-39 569,-39"/>
<text text-anchor="middle" x="607" y="-648.4" font-family="Sans-Serif" font-size="12.00" fill="#2d3436">DR Workloads</text>
</g>
<g id="clust6" class="cluster">
<title>cluster_DR Data</title>
<path fill="#ebf3e7" stroke="#aeb6be" d="M569,-683C569,-683 662,-683 662,-683 668,-683 674,-689 674,-695 674,-695 674,-1322 674,-1322 674,-1328 668,-1334 662,-1334 662,-1334 569,-1334 569,-1334 563,-1334 557,-1328 557,-1322 557,-1322 557,-695 557,-695 557,-689 563,-683 569,-683"/>
<text text-anchor="middle" x="590" y="-1320.4" font-family="Sans-Serif" font-size="12.00" fill="#2d3436">DR Data</text>
</g>
<g id="clust7" class="cluster">
<title>cluster_On&#45;Premises (Optional)</title>
<path fill="#e8f4fd" stroke="#aeb6be" d="M12,-293C12,-293 143,-293 143,-293 149,-293 155,-299 155,-305 155,-305 155,-456 155,-456 155,-462 149,-468 143,-468 143,-468 12,-468 12,-468 6,-468 0,-462 0,-456 0,-456 0,-305 0,-305 0,-299 6,-293 12,-293"/>
<text text-anchor="middle" x="77.5" y="-454.4" font-family="Sans-Serif" font-size="12.00" fill="#2d3436">On&#45;Premises (Optional)</text>
</g>
<!-- 896530a5d3f843ab8e87a664957aa55d -->
<g id="node1" class="node">
<title>896530a5d3f843ab8e87a664957aa55d</title>
<image xlink:href="/workspaces/sov-cloud-brain-trek/.venv/lib/python3.12/site-packages/resources/azure/network/traffic-manager-profiles.png" width="101px" height="101px" preserveAspectRatio="xMinYMin meet" x="27" y="-644.5"/>
<text text-anchor="middle" x="77.5" y="-528.6" font-family="Sans-Serif" font-size="13.00" fill="#2d3436">Traffic Manager</text>
<text text-anchor="middle" x="77.5" y="-514.6" font-family="Sans-Serif" font-size="13.00" fill="#2d3436">(Priority Routing)</text>
</g>
<!-- 7356fb96ab2f453bb3cc1b76951c22d0 -->
<g id="node2" class="node">
<title>7356fb96ab2f453bb3cc1b76951c22d0</title>
<image xlink:href="/workspaces/sov-cloud-brain-trek/.venv/lib/python3.12/site-packages/resources/azure/network/virtual-networks.png" width="101px" height="101px" preserveAspectRatio="xMinYMin meet" x="261" y="-2178.5"/>
<text text-anchor="middle" x="311.5" y="-2063.1" font-family="Sans-Serif" font-size="13.00" fill="#2d3436">Primary VNet</text>
</g>
<!-- 896530a5d3f843ab8e87a664957aa55d&#45;&gt;7356fb96ab2f453bb3cc1b76951c22d0 -->
<g id="edge1" class="edge">
<title>896530a5d3f843ab8e87a664957aa55d&#45;&gt;7356fb96ab2f453bb3cc1b76951c22d0</title>
<path fill="none" stroke="green" d="M78,-677.15C78,-999.77 78,-2150.83 78,-2150.83 78,-2150.83 250.83,-2150.83 250.83,-2150.83"/>
<polygon fill="green" stroke="green" points="250.83,-2154.33 260.83,-2150.83 250.83,-2147.33 250.83,-2154.33"/>
<text text-anchor="middle" x="204" y="-1384.6" font-family="Sans-Serif" font-size="13.00" fill="#2d3436">Active</text>
</g>
<!-- 99037edd65024014be3cd1e6bed00a71 -->
<g id="node9" class="node">
<title>99037edd65024014be3cd1e6bed00a71</title>
<image xlink:href="/workspaces/sov-cloud-brain-trek/.venv/lib/python3.12/site-packages/resources/azure/network/virtual-networks.png" width="101px" height="101px" preserveAspectRatio="xMinYMin meet" x="565" y="-166.5"/>
<text text-anchor="middle" x="615.5" y="-51.1" font-family="Sans-Serif" font-size="13.00" fill="#2d3436">DR VNet</text>
</g>
<!-- 896530a5d3f843ab8e87a664957aa55d&#45;&gt;99037edd65024014be3cd1e6bed00a71 -->
<g id="edge2" class="edge">
<title>896530a5d3f843ab8e87a664957aa55d&#45;&gt;99037edd65024014be3cd1e6bed00a71</title>
<path fill="none" stroke="orange" stroke-dasharray="5,2" d="M128.26,-551.67C168.14,-551.67 217,-551.67 217,-551.67 217,-551.67 217,-138.83 217,-138.83 217,-138.83 554.62,-138.83 554.62,-138.83"/>
<polygon fill="orange" stroke="orange" points="554.62,-142.33 564.62,-138.83 554.62,-135.33 554.62,-142.33"/>
<text text-anchor="middle" x="311.5" y="-502.6" font-family="Sans-Serif" font-size="13.00" fill="#2d3436">Standby</text>
</g>
<!-- 087ebf1a6ece4aa985921759a120c749 -->
<g id="node3" class="node">
<title>087ebf1a6ece4aa985921759a120c749</title>
<image xlink:href="/workspaces/sov-cloud-brain-trek/.venv/lib/python3.12/site-packages/resources/azure/compute/kubernetes-services.png" width="101px" height="101px" preserveAspectRatio="xMinYMin meet" x="565" y="-2403.5"/>
<text text-anchor="middle" x="615.5" y="-2287.6" font-family="Sans-Serif" font-size="13.00" fill="#2d3436">AKS</text>
<text text-anchor="middle" x="615.5" y="-2273.6" font-family="Sans-Serif" font-size="13.00" fill="#2d3436">(Active)</text>
</g>
<!-- 7356fb96ab2f453bb3cc1b76951c22d0&#45;&gt;087ebf1a6ece4aa985921759a120c749 -->
<g id="edge3" class="edge">
<title>7356fb96ab2f453bb3cc1b76951c22d0&#45;&gt;087ebf1a6ece4aa985921759a120c749</title>
<path fill="none" stroke="#7b8894" d="M312,-2196.73C312,-2262.9 312,-2353 312,-2353 312,-2353 554.7,-2353 554.7,-2353"/>
<polygon fill="#7b8894" stroke="#7b8894" points="554.7,-2356.5 564.7,-2353 554.7,-2349.5 554.7,-2356.5"/>
</g>
<!-- 213c4d2ab4ed457ca739d3899cdd69ac -->
<g id="node4" class="node">
<title>213c4d2ab4ed457ca739d3899cdd69ac</title>
<image xlink:href="/workspaces/sov-cloud-brain-trek/.venv/lib/python3.12/site-packages/resources/azure/compute/vm.png" width="101px" height="101px" preserveAspectRatio="xMinYMin meet" x="565" y="-2179.5"/>
<text text-anchor="middle" x="615.5" y="-2063.6" font-family="Sans-Serif" font-size="13.00" fill="#2d3436">VMs</text>
<text text-anchor="middle" x="615.5" y="-2049.6" font-family="Sans-Serif" font-size="13.00" fill="#2d3436">(Active)</text>
</g>
<!-- 7356fb96ab2f453bb3cc1b76951c22d0&#45;&gt;213c4d2ab4ed457ca739d3899cdd69ac -->
<g id="edge4" class="edge">
<title>7356fb96ab2f453bb3cc1b76951c22d0&#45;&gt;213c4d2ab4ed457ca739d3899cdd69ac</title>
<path fill="none" stroke="#7b8894" d="M362.04,-2128C362.04,-2128 554.84,-2128 554.84,-2128"/>
<polygon fill="#7b8894" stroke="#7b8894" points="554.84,-2131.5 564.84,-2128 554.84,-2124.5 554.84,-2131.5"/>
</g>
<!-- 8ac01bd754824aee983dea7cbaaee24d -->
<g id="node5" class="node">
<title>8ac01bd754824aee983dea7cbaaee24d</title>
<image xlink:href="/workspaces/sov-cloud-brain-trek/.venv/lib/python3.12/site-packages/resources/azure/database/sql-databases.png" width="101px" height="101px" preserveAspectRatio="xMinYMin meet" x="261" y="-1968.5"/>
<text text-anchor="middle" x="311.5" y="-1852.6" font-family="Sans-Serif" font-size="13.00" fill="#2d3436">SQL Primary</text>
<text text-anchor="middle" x="311.5" y="-1838.6" font-family="Sans-Serif" font-size="13.00" fill="#2d3436">(Read&#45;Write)</text>
</g>
<!-- e3ed8657b7234209a3d87ef282f80cab -->
<g id="node12" class="node">
<title>e3ed8657b7234209a3d87ef282f80cab</title>
<image xlink:href="/workspaces/sov-cloud-brain-trek/.venv/lib/python3.12/site-packages/resources/azure/database/sql-databases.png" width="101px" height="101px" preserveAspectRatio="xMinYMin meet" x="565" y="-1272.5"/>
<text text-anchor="middle" x="615.5" y="-1156.6" font-family="Sans-Serif" font-size="13.00" fill="#2d3436">SQL Secondary</text>
<text text-anchor="middle" x="615.5" y="-1142.6" font-family="Sans-Serif" font-size="13.00" fill="#2d3436">(Read&#45;Only)</text>
</g>
<!-- 8ac01bd754824aee983dea7cbaaee24d&#45;&gt;e3ed8657b7234209a3d87ef282f80cab -->
<g id="edge5" class="edge">
<title>8ac01bd754824aee983dea7cbaaee24d&#45;&gt;e3ed8657b7234209a3d87ef282f80cab</title>
<path fill="none" stroke="blue" stroke-dasharray="5,2" d="M362.12,-1918C448.71,-1918 616,-1918 616,-1918 616,-1918 616,-1315.26 616,-1315.26"/>
<polygon fill="blue" stroke="blue" points="619.5,-1315.26 616,-1305.26 612.5,-1315.26 619.5,-1315.26"/>
<text text-anchor="middle" x="450.5" y="-1573.6" font-family="Sans-Serif" font-size="13.00" fill="#2d3436">Geo&#45;Replication</text>
</g>
<!-- 0f6a705d3b8543b8a48990d498ad09c6 -->
<g id="node6" class="node">
<title>0f6a705d3b8543b8a48990d498ad09c6</title>
<image xlink:href="/workspaces/sov-cloud-brain-trek/.venv/lib/python3.12/site-packages/resources/azure/storage/storage-accounts.png" width="101px" height="101px" preserveAspectRatio="xMinYMin meet" x="261" y="-1744.5"/>
<text text-anchor="middle" x="311.5" y="-1628.6" font-family="Sans-Serif" font-size="13.00" fill="#2d3436">Storage Primary</text>
<text text-anchor="middle" x="311.5" y="-1614.6" font-family="Sans-Serif" font-size="13.00" fill="#2d3436">(RA&#45;GRS)</text>
</g>
<!-- b9835f1821e34d2f885a3ac5cb43f6f8 -->
<g id="node13" class="node">
<title>b9835f1821e34d2f885a3ac5cb43f6f8</title>
<image xlink:href="/workspaces/sov-cloud-brain-trek/.venv/lib/python3.12/site-packages/resources/azure/storage/storage-accounts.png" width="101px" height="101px" preserveAspectRatio="xMinYMin meet" x="565" y="-1048.5"/>
<text text-anchor="middle" x="615.5" y="-932.6" font-family="Sans-Serif" font-size="13.00" fill="#2d3436">Storage Secondary</text>
<text text-anchor="middle" x="615.5" y="-918.6" font-family="Sans-Serif" font-size="13.00" fill="#2d3436">(GRS Target)</text>
</g>
<!-- 0f6a705d3b8543b8a48990d498ad09c6&#45;&gt;b9835f1821e34d2f885a3ac5cb43f6f8 -->
<g id="edge6" class="edge">
<title>0f6a705d3b8543b8a48990d498ad09c6&#45;&gt;b9835f1821e34d2f885a3ac5cb43f6f8</title>
<path fill="none" stroke="blue" stroke-dasharray="5,2" d="M362.06,-1694C422.33,-1694 515,-1694 515,-1694 515,-1694 515,-1041 515,-1041 515,-1041 554.96,-1041 554.96,-1041"/>
<polygon fill="blue" stroke="blue" points="554.96,-1044.5 564.96,-1041 554.96,-1037.5 554.96,-1044.5"/>
<text text-anchor="middle" x="450.5" y="-1192.6" font-family="Sans-Serif" font-size="13.00" fill="#2d3436">RA&#45;GRS</text>
</g>
<!-- bf9899d06f34443fb8b9ac0c23af46e1 -->
<g id="node7" class="node">
<title>bf9899d06f34443fb8b9ac0c23af46e1</title>
<image xlink:href="/workspaces/sov-cloud-brain-trek/.venv/lib/python3.12/site-packages/resources/azure/security/key-vaults.png" width="101px" height="101px" preserveAspectRatio="xMinYMin meet" x="261" y="-1520.5"/>
<text text-anchor="middle" x="311.5" y="-1404.6" font-family="Sans-Serif" font-size="13.00" fill="#2d3436">Key Vault</text>
<text text-anchor="middle" x="311.5" y="-1390.6" font-family="Sans-Serif" font-size="13.00" fill="#2d3436">(Primary)</text>
</g>
<!-- 411b6fa4fd174b67bc2dcd6d1f6319ac -->
<g id="node14" class="node">
<title>411b6fa4fd174b67bc2dcd6d1f6319ac</title>
<image xlink:href="/workspaces/sov-cloud-brain-trek/.venv/lib/python3.12/site-packages/resources/azure/security/key-vaults.png" width="101px" height="101px" preserveAspectRatio="xMinYMin meet" x="565" y="-824.5"/>
<text text-anchor="middle" x="615.5" y="-708.6" font-family="Sans-Serif" font-size="13.00" fill="#2d3436">Key Vault</text>
<text text-anchor="middle" x="615.5" y="-694.6" font-family="Sans-Serif" font-size="13.00" fill="#2d3436">(Secondary)</text>
</g>
<!-- bf9899d06f34443fb8b9ac0c23af46e1&#45;&gt;411b6fa4fd174b67bc2dcd6d1f6319ac -->
<g id="edge7" class="edge">
<title>bf9899d06f34443fb8b9ac0c23af46e1&#45;&gt;411b6fa4fd174b67bc2dcd6d1f6319ac</title>
<path fill="none" stroke="#7b8894" stroke-dasharray="1,5" d="M362.28,-1470C406.64,-1470 464,-1470 464,-1470 464,-1470 464,-846 464,-846 464,-846 554.63,-846 554.63,-846"/>
<polygon fill="#7b8894" stroke="#7b8894" points="554.63,-849.5 564.63,-846 554.63,-842.5 554.63,-849.5"/>
<text text-anchor="middle" x="450.5" y="-946.6" font-family="Sans-Serif" font-size="13.00" fill="#2d3436">Backup</text>
</g>
<!-- d65646a3b5c54f55882603d550f0b666 -->
<g id="node8" class="node">
<title>d65646a3b5c54f55882603d550f0b666</title>
<image xlink:href="/workspaces/sov-cloud-brain-trek/.venv/lib/python3.12/site-packages/resources/azure/devops/repos.png" width="101px" height="101px" preserveAspectRatio="xMinYMin meet" x="261" y="-968.5"/>
<text text-anchor="middle" x="311.5" y="-852.6" font-family="Sans-Serif" font-size="13.00" fill="#2d3436">Azure Site</text>
<text text-anchor="middle" x="311.5" y="-838.6" font-family="Sans-Serif" font-size="13.00" fill="#2d3436">Recovery</text>
</g>
<!-- d65646a3b5c54f55882603d550f0b666&#45;&gt;213c4d2ab4ed457ca739d3899cdd69ac -->
<g id="edge8" class="edge">
<title>d65646a3b5c54f55882603d550f0b666&#45;&gt;213c4d2ab4ed457ca739d3899cdd69ac</title>
<path fill="none" stroke="purple" stroke-dasharray="5,2" d="M362.25,-958C387.62,-958 413,-958 413,-958 413,-958 413,-2052.75 413,-2052.75 413,-2052.75 554.92,-2052.75 554.92,-2052.75"/>
<polygon fill="purple" stroke="purple" points="554.92,-2056.25 564.92,-2052.75 554.92,-2049.25 554.92,-2056.25"/>
<text text-anchor="middle" x="450.5" y="-1461.6" font-family="Sans-Serif" font-size="13.00" fill="#2d3436">VM Replication</text>
</g>
<!-- 69060adb98034485b817fbc5c14e248c -->
<g id="node11" class="node">
<title>69060adb98034485b817fbc5c14e248c</title>
<image xlink:href="/workspaces/sov-cloud-brain-trek/.venv/lib/python3.12/site-packages/resources/azure/compute/vm.png" width="101px" height="101px" preserveAspectRatio="xMinYMin meet" x="565" y="-600.5"/>
<text text-anchor="middle" x="615.5" y="-484.6" font-family="Sans-Serif" font-size="13.00" fill="#2d3436">VMs</text>
<text text-anchor="middle" x="615.5" y="-470.6" font-family="Sans-Serif" font-size="13.00" fill="#2d3436">(Replicated)</text>
</g>
<!-- d65646a3b5c54f55882603d550f0b666&#45;&gt;69060adb98034485b817fbc5c14e248c -->
<g id="edge9" class="edge">
<title>d65646a3b5c54f55882603d550f0b666&#45;&gt;69060adb98034485b817fbc5c14e248c</title>
<path fill="none" stroke="purple" stroke-dasharray="5,2" d="M312,-834.98C312,-738.49 312,-592.33 312,-592.33 312,-592.33 554.7,-592.33 554.7,-592.33"/>
<polygon fill="purple" stroke="purple" points="554.7,-595.83 564.7,-592.33 554.7,-588.83 554.7,-595.83"/>
<text text-anchor="middle" x="450.5" y="-626.6" font-family="Sans-Serif" font-size="13.00" fill="#2d3436">VM Replication</text>
</g>
<!-- c3f5bd6713f24b599e2a1a1131efd734 -->
<g id="node10" class="node">
<title>c3f5bd6713f24b599e2a1a1131efd734</title>
<image xlink:href="/workspaces/sov-cloud-brain-trek/.venv/lib/python3.12/site-packages/resources/azure/compute/kubernetes-services.png" width="101px" height="101px" preserveAspectRatio="xMinYMin meet" x="565" y="-376.5"/>
<text text-anchor="middle" x="615.5" y="-260.6" font-family="Sans-Serif" font-size="13.00" fill="#2d3436">AKS</text>
<text text-anchor="middle" x="615.5" y="-246.6" font-family="Sans-Serif" font-size="13.00" fill="#2d3436">(Standby)</text>
</g>
<!-- 44bce5552bad41afa7abe58f6218786c -->
<g id="node15" class="node">
<title>44bce5552bad41afa7abe58f6218786c</title>
<image xlink:href="/workspaces/sov-cloud-brain-trek/.venv/lib/python3.12/site-packages/resources/azure/network/expressroute-circuits.png" width="101px" height="101px" preserveAspectRatio="xMinYMin meet" x="27" y="-420.5"/>
<text text-anchor="middle" x="77.5" y="-305.1" font-family="Sans-Serif" font-size="13.00" fill="#2d3436">ExpressRoute</text>
</g>
<!-- 44bce5552bad41afa7abe58f6218786c&#45;&gt;7356fb96ab2f453bb3cc1b76951c22d0 -->
<g id="edge10" class="edge">
<title>44bce5552bad41afa7abe58f6218786c&#45;&gt;7356fb96ab2f453bb3cc1b76951c22d0</title>
<path fill="none" stroke="#7b8894" d="M128.05,-423.75C150.95,-423.75 173,-423.75 173,-423.75 173,-423.75 173,-2105.17 173,-2105.17 173,-2105.17 250.71,-2105.17 250.71,-2105.17"/>
<polygon fill="#7b8894" stroke="#7b8894" points="250.71,-2108.67 260.71,-2105.17 250.71,-2101.67 250.71,-2108.67"/>
</g>
<!-- 44bce5552bad41afa7abe58f6218786c&#45;&gt;99037edd65024014be3cd1e6bed00a71 -->
<g id="edge11" class="edge">
<title>44bce5552bad41afa7abe58f6218786c&#45;&gt;99037edd65024014be3cd1e6bed00a71</title>
<path fill="none" stroke="#7b8894" d="M78,-301.21C78,-219.23 78,-93.17 78,-93.17 78,-93.17 554.93,-93.17 554.93,-93.17"/>
<polygon fill="#7b8894" stroke="#7b8894" points="554.93,-96.67 564.93,-93.17 554.93,-89.67 554.93,-96.67"/>
</g>
</g>
</svg>
