<?xml version="1.0" encoding="UTF-8" standalone="no"?>
<!DOCTYPE svg PUBLIC "-//W3C//DTD SVG 1.1//EN"
 "http://www.w3.org/Graphics/SVG/1.1/DTD/svg11.dtd">
<!-- Generated by graphviz version 2.43.0 (0)
 -->
<!-- Title: Production Edge RAG Architecture Pages: 1 -->
<svg width="1009pt" height="1699pt"
 viewBox="0.00 0.00 1009.20 1699.20" xmlns="http://www.w3.org/2000/svg" xmlns:xlink="http://www.w3.org/1999/xlink">
<g id="graph0" class="graph" transform="scale(1 1) rotate(0) translate(21.6 1677.6)">
<title>Production Edge RAG Architecture</title>
<polygon fill="white" stroke="transparent" points="-21.6,21.6 -21.6,-1677.6 987.6,-1677.6 987.6,21.6 -21.6,21.6"/>
<text text-anchor="middle" x="483" y="-7.2" font-family="Sans-Serif" font-size="11.00" fill="#2d3436">Production Edge RAG Architecture</text>
<g id="clust1" class="cluster">
<title>cluster_Client Applications</title>
<path fill="#f5f5f5" stroke="#aeb6be" d="M104,-1474C104,-1474 472,-1474 472,-1474 478,-1474 484,-1480 484,-1486 484,-1486 484,-1636 484,-1636 484,-1642 478,-1648 472,-1648 472,-1648 104,-1648 104,-1648 98,-1648 92,-1642 92,-1636 92,-1636 92,-1486 92,-1486 92,-1480 98,-1474 104,-1474"/>
<text text-anchor="middle" x="155" y="-1634.4" font-family="Sans-Serif" font-size="12.00" fill="#2d3436">Client Applications</text>
</g>
<g id="clust2" class="cluster">
<title>cluster_Azure Local Edge Infrastructure</title>
<path fill="#e6f3ff" stroke="#aeb6be" stroke-width="2" d="M20,-28C20,-28 820,-28 820,-28 826,-28 832,-34 832,-40 832,-40 832,-1219 832,-1219 832,-1225 826,-1231 820,-1231 820,-1231 20,-1231 20,-1231 14,-1231 8,-1225 8,-1219 8,-1219 8,-40 8,-40 8,-34 14,-28 20,-28"/>
<text text-anchor="middle" x="111" y="-1217.4" font-family="Sans-Serif" font-size="12.00" fill="#2d3436">Azure Local Edge Infrastructure</text>
</g>
<g id="clust3" class="cluster">
<title>cluster_RAG Processing Cluster (AKS&#45;HCI)</title>
<path fill="#cce5ff" stroke="#aeb6be" d="M28,-36C28,-36 412,-36 412,-36 418,-36 424,-42 424,-48 424,-48 424,-990 424,-990 424,-996 418,-1002 412,-1002 412,-1002 28,-1002 28,-1002 22,-1002 16,-996 16,-990 16,-990 16,-48 16,-48 16,-42 22,-36 28,-36"/>
<text text-anchor="middle" x="123.5" y="-988.4" font-family="Sans-Serif" font-size="12.00" fill="#2d3436">RAG Processing Cluster (AKS&#45;HCI)</text>
</g>
<g id="clust4" class="cluster">
<title>cluster_LLM Inference (GPU Nodes)</title>
<path fill="#ece8f6" stroke="#aeb6be" d="M36,-770C36,-770 404,-770 404,-770 410,-770 416,-776 416,-782 416,-782 416,-961 416,-961 416,-967 410,-973 404,-973 404,-973 36,-973 36,-973 30,-973 24,-967 24,-961 24,-961 24,-782 24,-782 24,-776 30,-770 36,-770"/>
<text text-anchor="middle" x="114.5" y="-959.4" font-family="Sans-Serif" font-size="12.00" fill="#2d3436">LLM Inference (GPU Nodes)</text>
</g>
<g id="clust5" class="cluster">
<title>cluster_Embedding Service</title>
<path fill="#ece8f6" stroke="#aeb6be" d="M39,-528C39,-528 270,-528 270,-528 276,-528 282,-534 282,-540 282,-540 282,-719 282,-719 282,-725 276,-731 270,-731 270,-731 39,-731 39,-731 33,-731 27,-725 27,-719 27,-719 27,-540 27,-540 27,-534 33,-528 39,-528"/>
<text text-anchor="middle" x="93" y="-717.4" font-family="Sans-Serif" font-size="12.00" fill="#2d3436">Embedding Service</text>
</g>
<g id="clust6" class="cluster">
<title>cluster_Vector Store (HA)</title>
<path fill="#ece8f6" stroke="#aeb6be" d="M212,-44C212,-44 309,-44 309,-44 315,-44 321,-50 321,-56 321,-56 321,-477 321,-477 321,-483 315,-489 309,-489 309,-489 212,-489 212,-489 206,-489 200,-483 200,-477 200,-477 200,-56 200,-56 200,-50 206,-44 212,-44"/>
<text text-anchor="middle" x="260.5" y="-475.4" font-family="Sans-Serif" font-size="12.00" fill="#2d3436">Vector Store (HA)</text>
</g>
<g id="clust7" class="cluster">
<title>cluster_Data Tier</title>
<path fill="#e6ffe6" stroke="#aeb6be" d="M444,-44C444,-44 812,-44 812,-44 818,-44 824,-50 824,-56 824,-56 824,-235 824,-235 824,-241 818,-247 812,-247 812,-247 444,-247 444,-247 438,-247 432,-241 432,-235 432,-235 432,-56 432,-56 432,-50 438,-44 444,-44"/>
<text text-anchor="middle" x="467.5" y="-233.4" font-family="Sans-Serif" font-size="12.00" fill="#2d3436">Data Tier</text>
</g>
<g id="clust8" class="cluster">
<title>cluster_Azure Monitoring</title>
<path fill="#fff3e6" stroke="#aeb6be" d="M852,-300.5C852,-300.5 946,-300.5 946,-300.5 952,-300.5 958,-306.5 958,-312.5 958,-312.5 958,-704.5 958,-704.5 958,-710.5 952,-716.5 946,-716.5 946,-716.5 852,-716.5 852,-716.5 846,-716.5 840,-710.5 840,-704.5 840,-704.5 840,-312.5 840,-312.5 840,-306.5 846,-300.5 852,-300.5"/>
<text text-anchor="middle" x="899" y="-702.9" font-family="Sans-Serif" font-size="12.00" fill="#2d3436">Azure Monitoring</text>
</g>
<!-- fbbcdce0601d4479aebecc84da0779d7 -->
<g id="node1" class="node">
<title>fbbcdce0601d4479aebecc84da0779d7</title>
<image xlink:href="/workspaces/sov-cloud-brain-trek/.venv/lib/python3.12/site-packages/resources/programming/framework/react.png" width="101px" height="101px" preserveAspectRatio="xMinYMin meet" x="100.5" y="-1601"/>
<text text-anchor="middle" x="151" y="-1485.6" font-family="Sans-Serif" font-size="13.00" fill="#2d3436">Web App</text>
</g>
<!-- 0ac2ec576d4f4f5ebaeb6a692f8ad3ed -->
<g id="node4" class="node">
<title>0ac2ec576d4f4f5ebaeb6a692f8ad3ed</title>
<image xlink:href="/workspaces/sov-cloud-brain-trek/.venv/lib/python3.12/site-packages/resources/azure/integration/api-management.png" width="101px" height="101px" preserveAspectRatio="xMinYMin meet" x="237.5" y="-1398.5"/>
<text text-anchor="middle" x="288" y="-1282.6" font-family="Sans-Serif" font-size="13.00" fill="#2d3436">API Gateway</text>
<text text-anchor="middle" x="288" y="-1268.6" font-family="Sans-Serif" font-size="13.00" fill="#2d3436">(Rate Limiting)</text>
</g>
<!-- fbbcdce0601d4479aebecc84da0779d7&#45;&gt;0ac2ec576d4f4f5ebaeb6a692f8ad3ed -->
<g id="edge1" class="edge">
<title>fbbcdce0601d4479aebecc84da0779d7&#45;&gt;0ac2ec576d4f4f5ebaeb6a692f8ad3ed</title>
<path fill="none" stroke="#7b8894" d="M197.19,-1481.9C208.17,-1465.83 220.01,-1448.5 231.4,-1431.84"/>
<polygon fill="#7b8894" stroke="#7b8894" points="234.55,-1433.42 237.3,-1423.19 228.77,-1429.47 234.55,-1433.42"/>
</g>
<!-- 5b7fdb7de7d846339d9a9450455832cb -->
<g id="node2" class="node">
<title>5b7fdb7de7d846339d9a9450455832cb</title>
<image xlink:href="/workspaces/sov-cloud-brain-trek/.venv/lib/python3.12/site-packages/resources/programming/framework/react.png" width="101px" height="101px" preserveAspectRatio="xMinYMin meet" x="237.5" y="-1601"/>
<text text-anchor="middle" x="288" y="-1485.6" font-family="Sans-Serif" font-size="13.00" fill="#2d3436">Mobile</text>
</g>
<!-- 5b7fdb7de7d846339d9a9450455832cb&#45;&gt;0ac2ec576d4f4f5ebaeb6a692f8ad3ed -->
<g id="edge2" class="edge">
<title>5b7fdb7de7d846339d9a9450455832cb&#45;&gt;0ac2ec576d4f4f5ebaeb6a692f8ad3ed</title>
<path fill="none" stroke="#7b8894" d="M288,-1481.9C288,-1468.94 288,-1455.17 288,-1441.59"/>
<polygon fill="#7b8894" stroke="#7b8894" points="291.5,-1441.26 288,-1431.26 284.5,-1441.26 291.5,-1441.26"/>
</g>
<!-- af1c8db54c4f4d2b80a18ff182388b1d -->
<g id="node3" class="node">
<title>af1c8db54c4f4d2b80a18ff182388b1d</title>
<image xlink:href="/workspaces/sov-cloud-brain-trek/.venv/lib/python3.12/site-packages/resources/programming/framework/react.png" width="101px" height="101px" preserveAspectRatio="xMinYMin meet" x="374.5" y="-1601"/>
<text text-anchor="middle" x="425" y="-1485.6" font-family="Sans-Serif" font-size="13.00" fill="#2d3436">API Client</text>
</g>
<!-- af1c8db54c4f4d2b80a18ff182388b1d&#45;&gt;0ac2ec576d4f4f5ebaeb6a692f8ad3ed -->
<g id="edge3" class="edge">
<title>af1c8db54c4f4d2b80a18ff182388b1d&#45;&gt;0ac2ec576d4f4f5ebaeb6a692f8ad3ed</title>
<path fill="none" stroke="#7b8894" d="M378.81,-1481.9C367.83,-1465.83 355.99,-1448.5 344.6,-1431.84"/>
<polygon fill="#7b8894" stroke="#7b8894" points="347.23,-1429.47 338.7,-1423.19 341.45,-1433.42 347.23,-1429.47"/>
</g>
<!-- bc0f3509c88e47ec89117ad510a3f3f9 -->
<g id="node5" class="node">
<title>bc0f3509c88e47ec89117ad510a3f3f9</title>
<image xlink:href="/workspaces/sov-cloud-brain-trek/.venv/lib/python3.12/site-packages/resources/azure/network/load-balancers.png" width="101px" height="101px" preserveAspectRatio="xMinYMin meet" x="237.5" y="-1169.5"/>
<text text-anchor="middle" x="288" y="-1053.6" font-family="Sans-Serif" font-size="13.00" fill="#2d3436">Load Balancer</text>
<text text-anchor="middle" x="288" y="-1039.6" font-family="Sans-Serif" font-size="13.00" fill="#2d3436">(HA Proxy)</text>
</g>
<!-- 0ac2ec576d4f4f5ebaeb6a692f8ad3ed&#45;&gt;bc0f3509c88e47ec89117ad510a3f3f9 -->
<g id="edge4" class="edge">
<title>0ac2ec576d4f4f5ebaeb6a692f8ad3ed&#45;&gt;bc0f3509c88e47ec89117ad510a3f3f9</title>
<path fill="none" stroke="#7b8894" d="M288,-1264.73C288,-1247.76 288,-1229.78 288,-1212.47"/>
<polygon fill="#7b8894" stroke="#7b8894" points="291.5,-1212.37 288,-1202.37 284.5,-1212.37 291.5,-1212.37"/>
</g>
<!-- 4783a2f8a86842eba138721984a4d6e6 -->
<g id="node6" class="node">
<title>4783a2f8a86842eba138721984a4d6e6</title>
<image xlink:href="/workspaces/sov-cloud-brain-trek/.venv/lib/python3.12/site-packages/resources/azure/compute/container-instances.png" width="101px" height="101px" preserveAspectRatio="xMinYMin meet" x="169.5" y="-911.5"/>
<text text-anchor="middle" x="220" y="-795.6" font-family="Sans-Serif" font-size="13.00" fill="#2d3436">Phi&#45;3</text>
<text text-anchor="middle" x="220" y="-781.6" font-family="Sans-Serif" font-size="13.00" fill="#2d3436">Primary</text>
</g>
<!-- bc0f3509c88e47ec89117ad510a3f3f9&#45;&gt;4783a2f8a86842eba138721984a4d6e6 -->
<g id="edge5" class="edge">
<title>bc0f3509c88e47ec89117ad510a3f3f9&#45;&gt;4783a2f8a86842eba138721984a4d6e6</title>
<path fill="none" stroke="#7b8894" d="M266.2,-1035.94C259.25,-1009.76 251.51,-980.63 244.38,-953.8"/>
<polygon fill="#7b8894" stroke="#7b8894" points="247.74,-952.8 241.79,-944.03 240.97,-954.59 247.74,-952.8"/>
</g>
<!-- 8e5190dc4e524817b209522fe705b5b7 -->
<g id="node7" class="node">
<title>8e5190dc4e524817b209522fe705b5b7</title>
<image xlink:href="/workspaces/sov-cloud-brain-trek/.venv/lib/python3.12/site-packages/resources/azure/compute/container-instances.png" width="101px" height="101px" preserveAspectRatio="xMinYMin meet" x="306.5" y="-911.5"/>
<text text-anchor="middle" x="357" y="-795.6" font-family="Sans-Serif" font-size="13.00" fill="#2d3436">Phi&#45;3</text>
<text text-anchor="middle" x="357" y="-781.6" font-family="Sans-Serif" font-size="13.00" fill="#2d3436">Replica</text>
</g>
<!-- bc0f3509c88e47ec89117ad510a3f3f9&#45;&gt;8e5190dc4e524817b209522fe705b5b7 -->
<g id="edge6" class="edge">
<title>bc0f3509c88e47ec89117ad510a3f3f9&#45;&gt;8e5190dc4e524817b209522fe705b5b7</title>
<path fill="none" stroke="#7b8894" d="M310.12,-1035.94C317.17,-1009.76 325.03,-980.63 332.26,-953.8"/>
<polygon fill="#7b8894" stroke="#7b8894" points="335.67,-954.6 334.89,-944.03 328.91,-952.78 335.67,-954.6"/>
</g>
<!-- 5fe2942ce15c4cea9aed9cc39cbac0d7 -->
<g id="node9" class="node">
<title>5fe2942ce15c4cea9aed9cc39cbac0d7</title>
<image xlink:href="/workspaces/sov-cloud-brain-trek/.venv/lib/python3.12/site-packages/resources/onprem/container/docker.png" width="101px" height="101px" preserveAspectRatio="xMinYMin meet" x="172.5" y="-669.5"/>
<text text-anchor="middle" x="223" y="-553.6" font-family="Sans-Serif" font-size="13.00" fill="#2d3436">E5&#45;Large</text>
<text text-anchor="middle" x="223" y="-539.6" font-family="Sans-Serif" font-size="13.00" fill="#2d3436">#1</text>
</g>
<!-- 4783a2f8a86842eba138721984a4d6e6&#45;&gt;5fe2942ce15c4cea9aed9cc39cbac0d7 -->
<g id="edge7" class="edge">
<title>4783a2f8a86842eba138721984a4d6e6&#45;&gt;5fe2942ce15c4cea9aed9cc39cbac0d7</title>
<path fill="none" stroke="#7b8894" stroke-dasharray="5,2" d="M221.03,-777.74C221.29,-756.66 221.58,-733.84 221.85,-712.29"/>
<polygon fill="#7b8894" stroke="#7b8894" points="225.35,-712.19 221.97,-702.15 218.35,-712.11 225.35,-712.19"/>
<text text-anchor="middle" x="240" y="-742.6" font-family="Sans-Serif" font-size="13.00" fill="#2d3436">query</text>
</g>
<!-- bfa7e5963830466e908a0cb05e247c5e -->
<g id="node14" class="node">
<title>bfa7e5963830466e908a0cb05e247c5e</title>
<image xlink:href="/workspaces/sov-cloud-brain-trek/.venv/lib/python3.12/site-packages/resources/onprem/queue/kafka.png" width="101px" height="101px" preserveAspectRatio="xMinYMin meet" x="714.5" y="-185.5"/>
<text text-anchor="middle" x="765" y="-69.6" font-family="Sans-Serif" font-size="13.00" fill="#2d3436">Redis Cache</text>
<text text-anchor="middle" x="765" y="-55.6" font-family="Sans-Serif" font-size="13.00" fill="#2d3436">(Sessions)</text>
</g>
<!-- 4783a2f8a86842eba138721984a4d6e6&#45;&gt;bfa7e5963830466e908a0cb05e247c5e -->
<g id="edge11" class="edge">
<title>4783a2f8a86842eba138721984a4d6e6&#45;&gt;bfa7e5963830466e908a0cb05e247c5e</title>
<path fill="none" stroke="#7b8894" d="M265.48,-777.89C274.01,-762.34 282.82,-746.19 291,-731 339.37,-641.21 336.22,-609.14 398,-528 508.47,-382.91 581.9,-388.45 697,-247 702.28,-240.51 707.45,-233.58 712.44,-226.47"/>
<polygon fill="#7b8894" stroke="#7b8894" points="715.45,-228.28 718.21,-218.05 709.67,-224.32 715.45,-228.28"/>
</g>
<!-- 608d2a43eb144fd58865fa3c0079cedb -->
<g id="node16" class="node">
<title>608d2a43eb144fd58865fa3c0079cedb</title>
<image xlink:href="/workspaces/sov-cloud-brain-trek/.venv/lib/python3.12/site-packages/resources/azure/security/key-vaults.png" width="101px" height="101px" preserveAspectRatio="xMinYMin meet" x="432.5" y="-669.5"/>
<text text-anchor="middle" x="483" y="-553.6" font-family="Sans-Serif" font-size="13.00" fill="#2d3436">Local Vault</text>
<text text-anchor="middle" x="483" y="-539.6" font-family="Sans-Serif" font-size="13.00" fill="#2d3436">(Keys/Secrets)</text>
</g>
<!-- 4783a2f8a86842eba138721984a4d6e6&#45;&gt;608d2a43eb144fd58865fa3c0079cedb -->
<g id="edge12" class="edge">
<title>4783a2f8a86842eba138721984a4d6e6&#45;&gt;608d2a43eb144fd58865fa3c0079cedb</title>
<path fill="none" stroke="red" stroke-dasharray="1,5" d="M270.87,-783.62C276.5,-778.45 282.55,-773.8 289,-770 333.14,-744 360.4,-781.44 403,-753 419.13,-742.23 432.51,-727.01 443.41,-710.69"/>
<polygon fill="red" stroke="red" points="446.48,-712.39 448.89,-702.07 440.57,-708.63 446.48,-712.39"/>
</g>
<!-- 68d17cf242564a5e93e546194daff943 -->
<g id="node17" class="node">
<title>68d17cf242564a5e93e546194daff943</title>
<image xlink:href="/workspaces/sov-cloud-brain-trek/.venv/lib/python3.12/site-packages/resources/azure/analytics/event-hubs.png" width="101px" height="101px" preserveAspectRatio="xMinYMin meet" x="848.5" y="-669.5"/>
<text text-anchor="middle" x="899" y="-554.1" font-family="Sans-Serif" font-size="13.00" fill="#2d3436">Event Hub</text>
</g>
<!-- 4783a2f8a86842eba138721984a4d6e6&#45;&gt;68d17cf242564a5e93e546194daff943 -->
<g id="edge13" class="edge">
<title>4783a2f8a86842eba138721984a4d6e6&#45;&gt;68d17cf242564a5e93e546194daff943</title>
<path fill="none" stroke="orange" stroke-dasharray="1,5" d="M270.9,-782.46C276.5,-777.62 282.53,-773.36 289,-770 330.26,-748.59 660.76,-757.72 707,-753 767.04,-746.87 792.09,-766.36 841,-731 853.36,-722.06 863.3,-709.69 871.22,-696.44"/>
<polygon fill="orange" stroke="orange" points="874.32,-698.07 876.13,-687.63 868.2,-694.66 874.32,-698.07"/>
</g>
<!-- 13df52c56dca4217b9909fcceecfbef0 -->
<g id="node8" class="node">
<title>13df52c56dca4217b9909fcceecfbef0</title>
<image xlink:href="/workspaces/sov-cloud-brain-trek/.venv/lib/python3.12/site-packages/resources/azure/compute/container-instances.png" width="101px" height="101px" preserveAspectRatio="xMinYMin meet" x="32.5" y="-911.5"/>
<text text-anchor="middle" x="83" y="-795.6" font-family="Sans-Serif" font-size="13.00" fill="#2d3436">Mistral</text>
<text text-anchor="middle" x="83" y="-781.6" font-family="Sans-Serif" font-size="13.00" fill="#2d3436">(Fallback)</text>
</g>
<!-- 4c550ff6962b425bbc34aa59c83023e3 -->
<g id="node11" class="node">
<title>4c550ff6962b425bbc34aa59c83023e3</title>
<image xlink:href="/workspaces/sov-cloud-brain-trek/.venv/lib/python3.12/site-packages/resources/generic/storage/storage.png" width="101px" height="101px" preserveAspectRatio="xMinYMin meet" x="209.5" y="-427.5"/>
<text text-anchor="middle" x="260" y="-311.6" font-family="Sans-Serif" font-size="13.00" fill="#2d3436">Qdrant</text>
<text text-anchor="middle" x="260" y="-297.6" font-family="Sans-Serif" font-size="13.00" fill="#2d3436">Primary</text>
</g>
<!-- 5fe2942ce15c4cea9aed9cc39cbac0d7&#45;&gt;4c550ff6962b425bbc34aa59c83023e3 -->
<g id="edge8" class="edge">
<title>5fe2942ce15c4cea9aed9cc39cbac0d7&#45;&gt;4c550ff6962b425bbc34aa59c83023e3</title>
<path fill="none" stroke="#7b8894" d="M235.68,-535.74C238.93,-514.66 242.45,-491.84 245.77,-470.29"/>
<polygon fill="#7b8894" stroke="#7b8894" points="249.27,-470.57 247.34,-460.15 242.35,-469.5 249.27,-470.57"/>
<text text-anchor="middle" x="286.5" y="-500.6" font-family="Sans-Serif" font-size="13.00" fill="#2d3436">vector search</text>
</g>
<!-- 57a85165eebf46669802c9c71890cc21 -->
<g id="node10" class="node">
<title>57a85165eebf46669802c9c71890cc21</title>
<image xlink:href="/workspaces/sov-cloud-brain-trek/.venv/lib/python3.12/site-packages/resources/onprem/container/docker.png" width="101px" height="101px" preserveAspectRatio="xMinYMin meet" x="35.5" y="-669.5"/>
<text text-anchor="middle" x="86" y="-553.6" font-family="Sans-Serif" font-size="13.00" fill="#2d3436">E5&#45;Large</text>
<text text-anchor="middle" x="86" y="-539.6" font-family="Sans-Serif" font-size="13.00" fill="#2d3436">#2</text>
</g>
<!-- 890199debb0b4e58accd30360cb1eeef -->
<g id="node12" class="node">
<title>890199debb0b4e58accd30360cb1eeef</title>
<image xlink:href="/workspaces/sov-cloud-brain-trek/.venv/lib/python3.12/site-packages/resources/generic/storage/storage.png" width="101px" height="101px" preserveAspectRatio="xMinYMin meet" x="209.5" y="-185.5"/>
<text text-anchor="middle" x="260" y="-69.6" font-family="Sans-Serif" font-size="13.00" fill="#2d3436">Qdrant</text>
<text text-anchor="middle" x="260" y="-55.6" font-family="Sans-Serif" font-size="13.00" fill="#2d3436">Replica</text>
</g>
<!-- 4c550ff6962b425bbc34aa59c83023e3&#45;&gt;890199debb0b4e58accd30360cb1eeef -->
<g id="edge9" class="edge">
<title>4c550ff6962b425bbc34aa59c83023e3&#45;&gt;890199debb0b4e58accd30360cb1eeef</title>
<path fill="none" stroke="green" d="M260,-293.74C260,-272.66 260,-249.84 260,-228.29"/>
<polygon fill="green" stroke="green" points="263.5,-228.15 260,-218.15 256.5,-228.15 263.5,-228.15"/>
<text text-anchor="middle" x="275.5" y="-258.6" font-family="Sans-Serif" font-size="13.00" fill="#2d3436">sync</text>
</g>
<!-- 50c20f9d33f0434b8af3cb0148e65bff -->
<g id="node13" class="node">
<title>50c20f9d33f0434b8af3cb0148e65bff</title>
<image xlink:href="/workspaces/sov-cloud-brain-trek/.venv/lib/python3.12/site-packages/resources/generic/storage/storage.png" width="101px" height="101px" preserveAspectRatio="xMinYMin meet" x="577.5" y="-185.5"/>
<text text-anchor="middle" x="628" y="-69.6" font-family="Sans-Serif" font-size="13.00" fill="#2d3436">Document</text>
<text text-anchor="middle" x="628" y="-55.6" font-family="Sans-Serif" font-size="13.00" fill="#2d3436">Storage</text>
</g>
<!-- 4c550ff6962b425bbc34aa59c83023e3&#45;&gt;50c20f9d33f0434b8af3cb0148e65bff -->
<g id="edge10" class="edge">
<title>4c550ff6962b425bbc34aa59c83023e3&#45;&gt;50c20f9d33f0434b8af3cb0148e65bff</title>
<path fill="none" stroke="#7b8894" d="M306.6,-293.77C319.27,-278.3 334.44,-264.13 352,-255 372.52,-244.33 540.04,-258.69 560,-247 569.33,-241.53 577.55,-234.23 584.75,-225.98"/>
<polygon fill="#7b8894" stroke="#7b8894" points="587.51,-228.13 591.07,-218.15 582.06,-223.73 587.51,-228.13"/>
<text text-anchor="middle" x="367.5" y="-258.6" font-family="Sans-Serif" font-size="13.00" fill="#2d3436">docs</text>
</g>
<!-- 44da43d565ee494a94524cc94eaf7f3d -->
<g id="node15" class="node">
<title>44da43d565ee494a94524cc94eaf7f3d</title>
<image xlink:href="/workspaces/sov-cloud-brain-trek/.venv/lib/python3.12/site-packages/resources/onprem/queue/kafka.png" width="101px" height="101px" preserveAspectRatio="xMinYMin meet" x="440.5" y="-185.5"/>
<text text-anchor="middle" x="491" y="-70.1" font-family="Sans-Serif" font-size="13.00" fill="#2d3436">Message Queue</text>
</g>
<!-- 2265ab3fd30144e999803adec9ad90c7 -->
<g id="node18" class="node">
<title>2265ab3fd30144e999803adec9ad90c7</title>
<image xlink:href="/workspaces/sov-cloud-brain-trek/.venv/lib/python3.12/site-packages/resources/azure/ml/machine-learning-service-workspaces.png" width="101px" height="101px" preserveAspectRatio="xMinYMin meet" x="848.5" y="-427.5"/>
<text text-anchor="middle" x="899" y="-312.1" font-family="Sans-Serif" font-size="13.00" fill="#2d3436">Log Analytics</text>
</g>
<!-- 68d17cf242564a5e93e546194daff943&#45;&gt;2265ab3fd30144e999803adec9ad90c7 -->
<g id="edge14" class="edge">
<title>68d17cf242564a5e93e546194daff943&#45;&gt;2265ab3fd30144e999803adec9ad90c7</title>
<path fill="none" stroke="#7b8894" d="M899,-550.19C899,-520.8 899,-486.22 899,-455.79"/>
<polygon fill="#7b8894" stroke="#7b8894" points="902.5,-455.64 899,-445.64 895.5,-455.64 902.5,-455.64"/>
</g>
</g>
</svg>
