<?xml version="1.0" encoding="UTF-8" standalone="no"?>
<!DOCTYPE svg PUBLIC "-//W3C//DTD SVG 1.1//EN"
 "http://www.w3.org/Graphics/SVG/1.1/DTD/svg11.dtd">
<!-- Generated by graphviz version 2.43.0 (0)
 -->
<!-- Title: Event&#45;Driven Architecture for Sovereignty Pages: 1 -->
<svg width="1124pt" height="986pt"
 viewBox="0.00 0.00 1124.00 986.00" xmlns="http://www.w3.org/2000/svg" xmlns:xlink="http://www.w3.org/1999/xlink">
<g id="graph0" class="graph" transform="scale(1 1) rotate(0) translate(36 950)">
<title>Event&#45;Driven Architecture for Sovereignty</title>
<polygon fill="white" stroke="transparent" points="-36,36 -36,-950 1088,-950 1088,36 -36,36"/>
<text text-anchor="middle" x="526" y="-7.8" font-family="Sans-Serif" font-size="14.00" fill="#2d3436">Event&#45;Driven Architecture for Sovereignty</text>
<g id="clust1" class="cluster">
<title>cluster_Event Sources</title>
<path fill="#e8f4fd" stroke="#aeb6be" d="M20,-69C20,-69 113,-69 113,-69 119,-69 125,-75 125,-81 125,-81 125,-680 125,-680 125,-686 119,-692 113,-692 113,-692 20,-692 20,-692 14,-692 8,-686 8,-680 8,-680 8,-81 8,-81 8,-75 14,-69 20,-69"/>
<text text-anchor="middle" x="58.5" y="-678.4" font-family="Sans-Serif" font-size="12.00" fill="#2d3436">Event Sources</text>
</g>
<g id="clust2" class="cluster">
<title>cluster_Event Routing</title>
<path fill="#fff4e6" stroke="#aeb6be" d="M194,-297C194,-297 461,-297 461,-297 467,-297 473,-303 473,-309 473,-309 473,-712 473,-712 473,-718 467,-724 461,-724 461,-724 194,-724 194,-724 188,-724 182,-718 182,-712 182,-712 182,-309 182,-309 182,-303 188,-297 194,-297"/>
<text text-anchor="middle" x="231.5" y="-710.4" font-family="Sans-Serif" font-size="12.00" fill="#2d3436">Event Routing</text>
</g>
<g id="clust3" class="cluster">
<title>cluster_Event Processing</title>
<path fill="#f3e8ff" stroke="#aeb6be" d="M542,-31C542,-31 635,-31 635,-31 641,-31 647,-37 647,-43 647,-43 647,-894 647,-894 647,-900 641,-906 635,-906 635,-906 542,-906 542,-906 536,-906 530,-900 530,-894 530,-894 530,-43 530,-43 530,-37 536,-31 542,-31"/>
<text text-anchor="middle" x="588.5" y="-892.4" font-family="Sans-Serif" font-size="12.00" fill="#2d3436">Event Processing</text>
</g>
<g id="clust4" class="cluster">
<title>cluster_Event Stores (Regional)</title>
<path fill="#d4e9d7" stroke="#aeb6be" d="M716,-367C716,-367 1032,-367 1032,-367 1038,-367 1044,-373 1044,-379 1044,-379 1044,-558 1044,-558 1044,-564 1038,-570 1032,-570 1032,-570 716,-570 716,-570 710,-570 704,-564 704,-558 704,-558 704,-379 704,-379 704,-373 710,-367 716,-367"/>
<text text-anchor="middle" x="781.5" y="-556.4" font-family="Sans-Serif" font-size="12.00" fill="#2d3436">Event Stores (Regional)</text>
</g>
<!-- 324aebd43edc49e6a6f91356e1059728 -->
<g id="node1" class="node">
<title>324aebd43edc49e6a6f91356e1059728</title>
<image xlink:href="/workspaces/sov-cloud-brain-trek/.venv/lib/python3.12/site-packages/resources/azure/analytics/event-hubs.png" width="101px" height="101px" preserveAspectRatio="xMinYMin meet" x="16" y="-196.5"/>
<text text-anchor="middle" x="66.5" y="-81.1" font-family="Sans-Serif" font-size="13.00" fill="#2d3436">IoT Events</text>
</g>
<!-- 8caa5f277fc74c3a9e3bc924c916a86d -->
<g id="node4" class="node">
<title>8caa5f277fc74c3a9e3bc924c916a86d</title>
<image xlink:href="/workspaces/sov-cloud-brain-trek/.venv/lib/python3.12/site-packages/resources/azure/integration/event-grid-domains.png" width="101px" height="101px" preserveAspectRatio="xMinYMin meet" x="190" y="-438.5"/>
<text text-anchor="middle" x="240.5" y="-322.6" font-family="Sans-Serif" font-size="13.00" fill="#2d3436">Event Grid</text>
<text text-anchor="middle" x="240.5" y="-308.6" font-family="Sans-Serif" font-size="13.00" fill="#2d3436">(Regional)</text>
</g>
<!-- 324aebd43edc49e6a6f91356e1059728&#45;&gt;8caa5f277fc74c3a9e3bc924c916a86d -->
<g id="edge1" class="edge">
<title>324aebd43edc49e6a6f91356e1059728&#45;&gt;8caa5f277fc74c3a9e3bc924c916a86d</title>
<path fill="none" stroke="#7b8894" d="M117.44,-209.75C168.95,-209.75 241,-209.75 241,-209.75 241,-209.75 241,-294.88 241,-294.88"/>
<polygon fill="#7b8894" stroke="#7b8894" points="237.5,-294.88 241,-304.88 244.5,-294.88 237.5,-294.88"/>
</g>
<!-- c6d3677c69e847998371bc38e92fbbed -->
<g id="node8" class="node">
<title>c6d3677c69e847998371bc38e92fbbed</title>
<image xlink:href="/workspaces/sov-cloud-brain-trek/.venv/lib/python3.12/site-packages/resources/azure/analytics/stream-analytics-jobs.png" width="101px" height="101px" preserveAspectRatio="xMinYMin meet" x="538" y="-172.5"/>
<text text-anchor="middle" x="588.5" y="-56.6" font-family="Sans-Serif" font-size="13.00" fill="#2d3436">Stream</text>
<text text-anchor="middle" x="588.5" y="-42.6" font-family="Sans-Serif" font-size="13.00" fill="#2d3436">Analytics</text>
</g>
<!-- 324aebd43edc49e6a6f91356e1059728&#45;&gt;c6d3677c69e847998371bc38e92fbbed -->
<g id="edge9" class="edge">
<title>324aebd43edc49e6a6f91356e1059728&#45;&gt;c6d3677c69e847998371bc38e92fbbed</title>
<path fill="none" stroke="#7b8894" d="M117.03,-141.25C117.03,-141.25 527.95,-141.25 527.95,-141.25"/>
<polygon fill="#7b8894" stroke="#7b8894" points="527.95,-144.75 537.95,-141.25 527.95,-137.75 527.95,-144.75"/>
</g>
<!-- c521a078a1b44a9abf2f744d69486001 -->
<g id="node2" class="node">
<title>c521a078a1b44a9abf2f744d69486001</title>
<image xlink:href="/workspaces/sov-cloud-brain-trek/.venv/lib/python3.12/site-packages/resources/azure/integration/event-grid-domains.png" width="101px" height="101px" preserveAspectRatio="xMinYMin meet" x="16" y="-406.5"/>
<text text-anchor="middle" x="66.5" y="-290.6" font-family="Sans-Serif" font-size="13.00" fill="#2d3436">Application</text>
<text text-anchor="middle" x="66.5" y="-276.6" font-family="Sans-Serif" font-size="13.00" fill="#2d3436">Events</text>
</g>
<!-- c521a078a1b44a9abf2f744d69486001&#45;&gt;8caa5f277fc74c3a9e3bc924c916a86d -->
<g id="edge2" class="edge">
<title>c521a078a1b44a9abf2f744d69486001&#45;&gt;8caa5f277fc74c3a9e3bc924c916a86d</title>
<path fill="none" stroke="#7b8894" d="M117.3,-372C117.3,-372 179.94,-372 179.94,-372"/>
<polygon fill="#7b8894" stroke="#7b8894" points="179.94,-375.5 189.94,-372 179.94,-368.5 179.94,-375.5"/>
</g>
<!-- 73a78ce9229b47198e559ff62528e756 -->
<g id="node3" class="node">
<title>73a78ce9229b47198e559ff62528e756</title>
<image xlink:href="/workspaces/sov-cloud-brain-trek/.venv/lib/python3.12/site-packages/resources/azure/storage/storage-accounts.png" width="101px" height="101px" preserveAspectRatio="xMinYMin meet" x="16" y="-630.5"/>
<text text-anchor="middle" x="66.5" y="-514.6" font-family="Sans-Serif" font-size="13.00" fill="#2d3436">Storage</text>
<text text-anchor="middle" x="66.5" y="-500.6" font-family="Sans-Serif" font-size="13.00" fill="#2d3436">Events</text>
</g>
<!-- 73a78ce9229b47198e559ff62528e756&#45;&gt;8caa5f277fc74c3a9e3bc924c916a86d -->
<g id="edge3" class="edge">
<title>73a78ce9229b47198e559ff62528e756&#45;&gt;8caa5f277fc74c3a9e3bc924c916a86d</title>
<path fill="none" stroke="#7b8894" d="M117.2,-513C163.24,-513 224,-513 224,-513 224,-513 224,-481.03 224,-481.03"/>
<polygon fill="#7b8894" stroke="#7b8894" points="227.5,-481.03 224,-471.03 220.5,-481.03 227.5,-481.03"/>
</g>
<!-- 7eb4d62d8b4f4009882ac53de43e992e -->
<g id="node5" class="node">
<title>7eb4d62d8b4f4009882ac53de43e992e</title>
<image xlink:href="/workspaces/sov-cloud-brain-trek/.venv/lib/python3.12/site-packages/resources/azure/integration/service-bus.png" width="101px" height="101px" preserveAspectRatio="xMinYMin meet" x="364" y="-438.5"/>
<text text-anchor="middle" x="414.5" y="-322.6" font-family="Sans-Serif" font-size="13.00" fill="#2d3436">Service Bus</text>
<text text-anchor="middle" x="414.5" y="-308.6" font-family="Sans-Serif" font-size="13.00" fill="#2d3436">(Ordered)</text>
</g>
<!-- 8caa5f277fc74c3a9e3bc924c916a86d&#45;&gt;7eb4d62d8b4f4009882ac53de43e992e -->
<g id="edge4" class="edge">
<title>8caa5f277fc74c3a9e3bc924c916a86d&#45;&gt;7eb4d62d8b4f4009882ac53de43e992e</title>
<path fill="none" stroke="#7b8894" d="M291.3,-388C291.3,-388 353.94,-388 353.94,-388"/>
<polygon fill="#7b8894" stroke="#7b8894" points="353.94,-391.5 363.94,-388 353.94,-384.5 353.94,-391.5"/>
</g>
<!-- a06454ea549c4a64850897e1a5a9e355 -->
<g id="node6" class="node">
<title>a06454ea549c4a64850897e1a5a9e355</title>
<image xlink:href="/workspaces/sov-cloud-brain-trek/.venv/lib/python3.12/site-packages/resources/azure/storage/queues-storage.png" width="101px" height="101px" preserveAspectRatio="xMinYMin meet" x="364" y="-662.5"/>
<text text-anchor="middle" x="414.5" y="-546.6" font-family="Sans-Serif" font-size="13.00" fill="#2d3436">Storage</text>
<text text-anchor="middle" x="414.5" y="-532.6" font-family="Sans-Serif" font-size="13.00" fill="#2d3436">Queues</text>
</g>
<!-- 8caa5f277fc74c3a9e3bc924c916a86d&#45;&gt;a06454ea549c4a64850897e1a5a9e355 -->
<g id="edge5" class="edge">
<title>8caa5f277fc74c3a9e3bc924c916a86d&#45;&gt;a06454ea549c4a64850897e1a5a9e355</title>
<path fill="none" stroke="#7b8894" d="M258,-471.1C258,-529.04 258,-596 258,-596 258,-596 353.69,-596 353.69,-596"/>
<polygon fill="#7b8894" stroke="#7b8894" points="353.69,-599.5 363.69,-596 353.69,-592.5 353.69,-599.5"/>
</g>
<!-- 6a1f4d381df7406097a9d5eaacd2fed1 -->
<g id="node7" class="node">
<title>6a1f4d381df7406097a9d5eaacd2fed1</title>
<image xlink:href="/workspaces/sov-cloud-brain-trek/.venv/lib/python3.12/site-packages/resources/azure/compute/function-apps.png" width="101px" height="101px" preserveAspectRatio="xMinYMin meet" x="538" y="-396.5"/>
<text text-anchor="middle" x="588.5" y="-280.6" font-family="Sans-Serif" font-size="13.00" fill="#2d3436">Azure Functions</text>
<text text-anchor="middle" x="588.5" y="-266.6" font-family="Sans-Serif" font-size="13.00" fill="#2d3436">(Serverless)</text>
</g>
<!-- 7eb4d62d8b4f4009882ac53de43e992e&#45;&gt;6a1f4d381df7406097a9d5eaacd2fed1 -->
<g id="edge6" class="edge">
<title>7eb4d62d8b4f4009882ac53de43e992e&#45;&gt;6a1f4d381df7406097a9d5eaacd2fed1</title>
<path fill="none" stroke="#7b8894" d="M465.3,-367C465.3,-367 527.94,-367 527.94,-367"/>
<polygon fill="#7b8894" stroke="#7b8894" points="527.94,-370.5 537.94,-367 527.94,-363.5 527.94,-370.5"/>
</g>
<!-- 601d403d28d14b0a870cb06aab2daf51 -->
<g id="node10" class="node">
<title>601d403d28d14b0a870cb06aab2daf51</title>
<image xlink:href="/workspaces/sov-cloud-brain-trek/.venv/lib/python3.12/site-packages/resources/azure/compute/kubernetes-services.png" width="101px" height="101px" preserveAspectRatio="xMinYMin meet" x="538" y="-620.5"/>
<text text-anchor="middle" x="588.5" y="-504.6" font-family="Sans-Serif" font-size="13.00" fill="#2d3436">AKS</text>
<text text-anchor="middle" x="588.5" y="-490.6" font-family="Sans-Serif" font-size="13.00" fill="#2d3436">(Complex Processing)</text>
</g>
<!-- 7eb4d62d8b4f4009882ac53de43e992e&#45;&gt;601d403d28d14b0a870cb06aab2daf51 -->
<g id="edge7" class="edge">
<title>7eb4d62d8b4f4009882ac53de43e992e&#45;&gt;601d403d28d14b0a870cb06aab2daf51</title>
<path fill="none" stroke="#7b8894" d="M415,-471.45C415,-483.54 415,-492 415,-492 415,-492 527.85,-492 527.85,-492"/>
<polygon fill="#7b8894" stroke="#7b8894" points="527.85,-495.5 537.85,-492 527.85,-488.5 527.85,-495.5"/>
</g>
<!-- 9e895eeaa2db4e398ed8a9379e0b0d24 -->
<g id="node9" class="node">
<title>9e895eeaa2db4e398ed8a9379e0b0d24</title>
<image xlink:href="/workspaces/sov-cloud-brain-trek/.venv/lib/python3.12/site-packages/resources/azure/integration/logic-apps.png" width="101px" height="101px" preserveAspectRatio="xMinYMin meet" x="538" y="-844.5"/>
<text text-anchor="middle" x="588.5" y="-728.6" font-family="Sans-Serif" font-size="13.00" fill="#2d3436">Logic Apps</text>
<text text-anchor="middle" x="588.5" y="-714.6" font-family="Sans-Serif" font-size="13.00" fill="#2d3436">(Workflows)</text>
</g>
<!-- a06454ea549c4a64850897e1a5a9e355&#45;&gt;9e895eeaa2db4e398ed8a9379e0b0d24 -->
<g id="edge8" class="edge">
<title>a06454ea549c4a64850897e1a5a9e355&#45;&gt;9e895eeaa2db4e398ed8a9379e0b0d24</title>
<path fill="none" stroke="#7b8894" d="M465.44,-674C516.95,-674 589,-674 589,-674 589,-674 589,-700.98 589,-700.98"/>
<polygon fill="#7b8894" stroke="#7b8894" points="585.5,-700.98 589,-710.98 592.5,-700.98 585.5,-700.98"/>
</g>
<!-- a5da1a5c96fa4b248921335d2d7668f7 -->
<g id="node11" class="node">
<title>a5da1a5c96fa4b248921335d2d7668f7</title>
<image xlink:href="/workspaces/sov-cloud-brain-trek/.venv/lib/python3.12/site-packages/resources/azure/database/cosmos-db.png" width="101px" height="101px" preserveAspectRatio="xMinYMin meet" x="712" y="-508.5"/>
<text text-anchor="middle" x="762.5" y="-392.6" font-family="Sans-Serif" font-size="13.00" fill="#2d3436">Cosmos DB</text>
<text text-anchor="middle" x="762.5" y="-378.6" font-family="Sans-Serif" font-size="13.00" fill="#2d3436">(Event Store)</text>
</g>
<!-- 6a1f4d381df7406097a9d5eaacd2fed1&#45;&gt;a5da1a5c96fa4b248921335d2d7668f7 -->
<g id="edge10" class="edge">
<title>6a1f4d381df7406097a9d5eaacd2fed1&#45;&gt;a5da1a5c96fa4b248921335d2d7668f7</title>
<path fill="none" stroke="#7b8894" d="M639.3,-402C639.3,-402 701.94,-402 701.94,-402"/>
<polygon fill="#7b8894" stroke="#7b8894" points="701.94,-405.5 711.94,-402 701.94,-398.5 701.94,-405.5"/>
</g>
<!-- c6d3677c69e847998371bc38e92fbbed&#45;&gt;a5da1a5c96fa4b248921335d2d7668f7 -->
<g id="edge11" class="edge">
<title>c6d3677c69e847998371bc38e92fbbed&#45;&gt;a5da1a5c96fa4b248921335d2d7668f7</title>
<path fill="none" stroke="#7b8894" d="M639.44,-122C690.95,-122 763,-122 763,-122 763,-122 763,-364.94 763,-364.94"/>
<polygon fill="#7b8894" stroke="#7b8894" points="759.5,-364.94 763,-374.94 766.5,-364.94 759.5,-364.94"/>
</g>
<!-- 9e895eeaa2db4e398ed8a9379e0b0d24&#45;&gt;a5da1a5c96fa4b248921335d2d7668f7 -->
<g id="edge12" class="edge">
<title>9e895eeaa2db4e398ed8a9379e0b0d24&#45;&gt;a5da1a5c96fa4b248921335d2d7668f7</title>
<path fill="none" stroke="#7b8894" d="M639.44,-794C690.95,-794 763,-794 763,-794 763,-794 763,-551.06 763,-551.06"/>
<polygon fill="#7b8894" stroke="#7b8894" points="766.5,-551.06 763,-541.06 759.5,-551.06 766.5,-551.06"/>
</g>
<!-- 601d403d28d14b0a870cb06aab2daf51&#45;&gt;a5da1a5c96fa4b248921335d2d7668f7 -->
<g id="edge13" class="edge">
<title>601d403d28d14b0a870cb06aab2daf51&#45;&gt;a5da1a5c96fa4b248921335d2d7668f7</title>
<path fill="none" stroke="#7b8894" d="M639.3,-514C639.3,-514 701.94,-514 701.94,-514"/>
<polygon fill="#7b8894" stroke="#7b8894" points="701.94,-517.5 711.94,-514 701.94,-510.5 701.94,-517.5"/>
</g>
<!-- 5c67658a0646424d8c04df3d68b3fe06 -->
<g id="node12" class="node">
<title>5c67658a0646424d8c04df3d68b3fe06</title>
<image xlink:href="/workspaces/sov-cloud-brain-trek/.venv/lib/python3.12/site-packages/resources/azure/storage/storage-accounts.png" width="101px" height="101px" preserveAspectRatio="xMinYMin meet" x="935" y="-508.5"/>
<text text-anchor="middle" x="985.5" y="-392.6" font-family="Sans-Serif" font-size="13.00" fill="#2d3436">Blob Storage</text>
<text text-anchor="middle" x="985.5" y="-378.6" font-family="Sans-Serif" font-size="13.00" fill="#2d3436">(Archive)</text>
</g>
<!-- a5da1a5c96fa4b248921335d2d7668f7&#45;&gt;5c67658a0646424d8c04df3d68b3fe06 -->
<g id="edge14" class="edge">
<title>a5da1a5c96fa4b248921335d2d7668f7&#45;&gt;5c67658a0646424d8c04df3d68b3fe06</title>
<path fill="none" stroke="#7b8894" stroke-dasharray="5,2" d="M813.1,-458C813.1,-458 924.71,-458 924.71,-458"/>
<polygon fill="#7b8894" stroke="#7b8894" points="924.71,-461.5 934.71,-458 924.71,-454.5 924.71,-461.5"/>
<text text-anchor="middle" x="874" y="-461.6" font-family="Sans-Serif" font-size="13.00" fill="#2d3436">Archive</text>
</g>
</g>
</svg>
