<?xml version="1.0" encoding="UTF-8" standalone="no"?>
<!DOCTYPE svg PUBLIC "-//W3C//DTD SVG 1.1//EN"
 "http://www.w3.org/Graphics/SVG/1.1/DTD/svg11.dtd">
<!-- Generated by graphviz version 2.43.0 (0)
 -->
<!-- Title: Financial Services Sovereign Architecture Pages: 1 -->
<svg width="1098pt" height="2052pt"
 viewBox="0.00 0.00 1098.00 2051.50" xmlns="http://www.w3.org/2000/svg" xmlns:xlink="http://www.w3.org/1999/xlink">
<g id="graph0" class="graph" transform="scale(1 1) rotate(0) translate(36 2015.5)">
<title>Financial Services Sovereign Architecture</title>
<polygon fill="white" stroke="transparent" points="-36,36 -36,-2015.5 1062,-2015.5 1062,36 -36,36"/>
<text text-anchor="middle" x="513" y="-7.8" font-family="Sans-Serif" font-size="14.00" fill="#2d3436">Financial Services Sovereign Architecture</text>
<g id="clust1" class="cluster">
<title>cluster_Security &amp; Compliance</title>
<path fill="#f3e8ff" stroke="#aeb6be" d="M259,-1529.5C259,-1529.5 671,-1529.5 671,-1529.5 677,-1529.5 683,-1535.5 683,-1541.5 683,-1541.5 683,-1959.5 683,-1959.5 683,-1965.5 677,-1971.5 671,-1971.5 671,-1971.5 259,-1971.5 259,-1971.5 253,-1971.5 247,-1965.5 247,-1959.5 247,-1959.5 247,-1541.5 247,-1541.5 247,-1535.5 253,-1529.5 259,-1529.5"/>
<text text-anchor="middle" x="323" y="-1957.9" font-family="Sans-Serif" font-size="12.00" fill="#2d3436">Security &amp; Compliance</text>
</g>
<g id="clust2" class="cluster">
<title>cluster_PCI Zone &#45; Cardholder Data Environment</title>
<path fill="#ffe4e1" stroke="#aeb6be" d="M20,-31C20,-31 289,-31 289,-31 295,-31 301,-37 301,-43 301,-43 301,-1480.5 301,-1480.5 301,-1486.5 295,-1492.5 289,-1492.5 289,-1492.5 20,-1492.5 20,-1492.5 14,-1492.5 8,-1486.5 8,-1480.5 8,-1480.5 8,-43 8,-43 8,-37 14,-31 20,-31"/>
<text text-anchor="middle" x="138" y="-1478.9" font-family="Sans-Serif" font-size="12.00" fill="#2d3436">PCI Zone &#45; Cardholder Data Environment</text>
</g>
<g id="clust3" class="cluster">
<title>cluster_Payment Processing</title>
<path fill="#ebf3e7" stroke="#aeb6be" d="M161,-293.5C161,-293.5 273,-293.5 273,-293.5 279,-293.5 285,-299.5 285,-305.5 285,-305.5 285,-709 285,-709 285,-715 279,-721 273,-721 273,-721 161,-721 161,-721 155,-721 149,-715 149,-709 149,-709 149,-305.5 149,-305.5 149,-299.5 155,-293.5 161,-293.5"/>
<text text-anchor="middle" x="217" y="-707.4" font-family="Sans-Serif" font-size="12.00" fill="#2d3436">Payment Processing</text>
</g>
<g id="clust4" class="cluster">
<title>cluster_Card Data Storage</title>
<path fill="#ebf3e7" stroke="#aeb6be" d="M28,-39C28,-39 281,-39 281,-39 287,-39 293,-45 293,-51 293,-51 293,-230 293,-230 293,-236 287,-242 281,-242 281,-242 28,-242 28,-242 22,-242 16,-236 16,-230 16,-230 16,-51 16,-51 16,-45 22,-39 28,-39"/>
<text text-anchor="middle" x="80" y="-228.4" font-family="Sans-Serif" font-size="12.00" fill="#2d3436">Card Data Storage</text>
</g>
<g id="clust5" class="cluster">
<title>cluster_General Workload Zone</title>
<path fill="#e8f4fd" stroke="#aeb6be" d="M321,-271C321,-271 749,-271 749,-271 755,-271 761,-277 761,-283 761,-283 761,-723.5 761,-723.5 761,-729.5 755,-735.5 749,-735.5 749,-735.5 321,-735.5 321,-735.5 315,-735.5 309,-729.5 309,-723.5 309,-723.5 309,-283 309,-283 309,-277 315,-271 321,-271"/>
<text text-anchor="middle" x="388" y="-721.9" font-family="Sans-Serif" font-size="12.00" fill="#2d3436">General Workload Zone</text>
</g>
<g id="clust6" class="cluster">
<title>cluster_Analytics</title>
<path fill="#ebf3e7" stroke="#aeb6be" d="M647,-279C647,-279 741,-279 741,-279 747,-279 753,-285 753,-291 753,-291 753,-694.5 753,-694.5 753,-700.5 747,-706.5 741,-706.5 741,-706.5 647,-706.5 647,-706.5 641,-706.5 635,-700.5 635,-694.5 635,-694.5 635,-291 635,-291 635,-285 641,-279 647,-279"/>
<text text-anchor="middle" x="670" y="-692.9" font-family="Sans-Serif" font-size="12.00" fill="#2d3436">Analytics</text>
</g>
<g id="clust7" class="cluster">
<title>cluster_Applications</title>
<path fill="#ebf3e7" stroke="#aeb6be" d="M329,-293.5C329,-293.5 582,-293.5 582,-293.5 588,-293.5 594,-299.5 594,-305.5 594,-305.5 594,-455.5 594,-455.5 594,-461.5 588,-467.5 582,-467.5 582,-467.5 329,-467.5 329,-467.5 323,-467.5 317,-461.5 317,-455.5 317,-455.5 317,-305.5 317,-305.5 317,-299.5 323,-293.5 329,-293.5"/>
<text text-anchor="middle" x="361.5" y="-453.9" font-family="Sans-Serif" font-size="12.00" fill="#2d3436">Applications</text>
</g>
<!-- a504265dc2be4873a5cc4b2ef64ff9bc -->
<g id="node1" class="node">
<title>a504265dc2be4873a5cc4b2ef64ff9bc</title>
<image xlink:href="/workspaces/sov-cloud-brain-trek/.venv/lib/python3.12/site-packages/resources/azure/network/front-doors.png" width="101px" height="101px" preserveAspectRatio="xMinYMin meet" x="96.5" y="-1671"/>
<text text-anchor="middle" x="147" y="-1555.1" font-family="Sans-Serif" font-size="13.00" fill="#2d3436">Azure Front Door</text>
<text text-anchor="middle" x="147" y="-1541.1" font-family="Sans-Serif" font-size="13.00" fill="#2d3436">(DDoS Protection)</text>
</g>
<!-- ca246936137d42dc9301ad66e79cce27 -->
<g id="node8" class="node">
<title>ca246936137d42dc9301ad66e79cce27</title>
<image xlink:href="/workspaces/sov-cloud-brain-trek/.venv/lib/python3.12/site-packages/resources/azure/network/application-gateway.png" width="101px" height="101px" preserveAspectRatio="xMinYMin meet" x="191.5" y="-1431"/>
<text text-anchor="middle" x="242" y="-1315.1" font-family="Sans-Serif" font-size="13.00" fill="#2d3436">WAF</text>
<text text-anchor="middle" x="242" y="-1301.1" font-family="Sans-Serif" font-size="13.00" fill="#2d3436">(OWASP Rules)</text>
</g>
<!-- a504265dc2be4873a5cc4b2ef64ff9bc&#45;&gt;ca246936137d42dc9301ad66e79cce27 -->
<g id="edge1" class="edge">
<title>a504265dc2be4873a5cc4b2ef64ff9bc&#45;&gt;ca246936137d42dc9301ad66e79cce27</title>
<path fill="none" stroke="#7b8894" d="M182,-1537.4C182,-1467.88 182,-1380 182,-1380 182,-1380 182.94,-1380 182.94,-1380"/>
<polygon fill="#7b8894" stroke="#7b8894" points="181.38,-1383.5 191.38,-1380 181.37,-1376.5 181.38,-1383.5"/>
</g>
<!-- f0317660e5f24b169c8074f292014ce1 -->
<g id="node2" class="node">
<title>f0317660e5f24b169c8074f292014ce1</title>
<image xlink:href="/workspaces/sov-cloud-brain-trek/.venv/lib/python3.12/site-packages/resources/azure/identity/active-directory.png" width="101px" height="101px" preserveAspectRatio="xMinYMin meet" x="255.5" y="-1910"/>
<text text-anchor="middle" x="306" y="-1794.1" font-family="Sans-Serif" font-size="13.00" fill="#2d3436">Microsoft Entra</text>
<text text-anchor="middle" x="306" y="-1780.1" font-family="Sans-Serif" font-size="13.00" fill="#2d3436">(PIM Enabled)</text>
</g>
<!-- c316fcbf109e4226a51e367066a5676a -->
<g id="node3" class="node">
<title>c316fcbf109e4226a51e367066a5676a</title>
<image xlink:href="/workspaces/sov-cloud-brain-trek/.venv/lib/python3.12/site-packages/resources/azure/identity/conditional-access.png" width="101px" height="101px" preserveAspectRatio="xMinYMin meet" x="255.5" y="-1671"/>
<text text-anchor="middle" x="306" y="-1555.1" font-family="Sans-Serif" font-size="13.00" fill="#2d3436">Conditional Access</text>
<text text-anchor="middle" x="306" y="-1541.1" font-family="Sans-Serif" font-size="13.00" fill="#2d3436">(Risk&#45;based)</text>
</g>
<!-- f0317660e5f24b169c8074f292014ce1&#45;&gt;c316fcbf109e4226a51e367066a5676a -->
<g id="edge2" class="edge">
<title>f0317660e5f24b169c8074f292014ce1&#45;&gt;c316fcbf109e4226a51e367066a5676a</title>
<path fill="none" stroke="#7b8894" d="M306,-1776.24C306,-1776.24 306,-1713.86 306,-1713.86"/>
<polygon fill="#7b8894" stroke="#7b8894" points="309.5,-1713.86 306,-1703.86 302.5,-1713.86 309.5,-1713.86"/>
</g>
<!-- c316fcbf109e4226a51e367066a5676a&#45;&gt;ca246936137d42dc9301ad66e79cce27 -->
<g id="edge3" class="edge">
<title>c316fcbf109e4226a51e367066a5676a&#45;&gt;ca246936137d42dc9301ad66e79cce27</title>
<path fill="none" stroke="#7b8894" d="M274,-1537.23C274,-1537.23 274,-1473.62 274,-1473.62"/>
<polygon fill="#7b8894" stroke="#7b8894" points="277.5,-1473.62 274,-1463.62 270.5,-1473.62 277.5,-1473.62"/>
</g>
<!-- 05633defb94f45be938a3de090d2df30 -->
<g id="node4" class="node">
<title>05633defb94f45be938a3de090d2df30</title>
<image xlink:href="/workspaces/sov-cloud-brain-trek/.venv/lib/python3.12/site-packages/resources/azure/security/sentinel.png" width="101px" height="101px" preserveAspectRatio="xMinYMin meet" x="414.5" y="-1910"/>
<text text-anchor="middle" x="465" y="-1794.1" font-family="Sans-Serif" font-size="13.00" fill="#2d3436">Sentinel</text>
<text text-anchor="middle" x="465" y="-1780.1" font-family="Sans-Serif" font-size="13.00" fill="#2d3436">(SOC Integration)</text>
</g>
<!-- 2e48013447574e2cbf4c6ab72eda6df2 -->
<g id="node6" class="node">
<title>2e48013447574e2cbf4c6ab72eda6df2</title>
<image xlink:href="/workspaces/sov-cloud-brain-trek/.venv/lib/python3.12/site-packages/resources/azure/network/virtual-networks.png" width="101px" height="101px" preserveAspectRatio="xMinYMin meet" x="191.5" y="-927"/>
<text text-anchor="middle" x="242" y="-811.1" font-family="Sans-Serif" font-size="13.00" fill="#2d3436">PCI VNet</text>
<text text-anchor="middle" x="242" y="-797.1" font-family="Sans-Serif" font-size="13.00" fill="#2d3436">(Isolated)</text>
</g>
<!-- 05633defb94f45be938a3de090d2df30&#45;&gt;2e48013447574e2cbf4c6ab72eda6df2 -->
<g id="edge15" class="edge">
<title>05633defb94f45be938a3de090d2df30&#45;&gt;2e48013447574e2cbf4c6ab72eda6df2</title>
<path fill="none" stroke="#7b8894" stroke-dasharray="1,5" d="M420.5,-1776.49C420.5,-1539.39 420.5,-876 420.5,-876 420.5,-876 302.67,-876 302.67,-876"/>
<polygon fill="#7b8894" stroke="#7b8894" points="302.67,-872.5 292.67,-876 302.67,-879.5 302.67,-872.5"/>
<text text-anchor="middle" x="461" y="-1377.1" font-family="Sans-Serif" font-size="13.00" fill="#2d3436">SIEM</text>
</g>
<!-- d147ac43bca1434b8efb7bbabedf97bf -->
<g id="node13" class="node">
<title>d147ac43bca1434b8efb7bbabedf97bf</title>
<image xlink:href="/workspaces/sov-cloud-brain-trek/.venv/lib/python3.12/site-packages/resources/azure/network/virtual-networks.png" width="101px" height="101px" preserveAspectRatio="xMinYMin meet" x="484.5" y="-659.5"/>
<text text-anchor="middle" x="535" y="-544.1" font-family="Sans-Serif" font-size="13.00" fill="#2d3436">General VNet</text>
</g>
<!-- 05633defb94f45be938a3de090d2df30&#45;&gt;d147ac43bca1434b8efb7bbabedf97bf -->
<g id="edge16" class="edge">
<title>05633defb94f45be938a3de090d2df30&#45;&gt;d147ac43bca1434b8efb7bbabedf97bf</title>
<path fill="none" stroke="#7b8894" stroke-dasharray="1,5" d="M500,-1776.48C500,-1776.48 500,-687.83 500,-687.83"/>
<polygon fill="#7b8894" stroke="#7b8894" points="503.5,-687.83 500,-677.83 496.5,-687.83 503.5,-687.83"/>
<text text-anchor="middle" x="581" y="-1251.1" font-family="Sans-Serif" font-size="13.00" fill="#2d3436">SIEM</text>
</g>
<!-- 126f3f23b35f417cb81ae009b0aae46d -->
<g id="node5" class="node">
<title>126f3f23b35f417cb81ae009b0aae46d</title>
<image xlink:href="/workspaces/sov-cloud-brain-trek/.venv/lib/python3.12/site-packages/resources/azure/security/key-vaults.png" width="101px" height="101px" preserveAspectRatio="xMinYMin meet" x="573.5" y="-1910"/>
<text text-anchor="middle" x="624" y="-1794.1" font-family="Sans-Serif" font-size="13.00" fill="#2d3436">Managed HSM</text>
<text text-anchor="middle" x="624" y="-1780.1" font-family="Sans-Serif" font-size="13.00" fill="#2d3436">(FIPS 140&#45;2 L3)</text>
</g>
<!-- b291c8670ae045888be0dbc906d7b339 -->
<g id="node11" class="node">
<title>b291c8670ae045888be0dbc906d7b339</title>
<image xlink:href="/workspaces/sov-cloud-brain-trek/.venv/lib/python3.12/site-packages/resources/azure/database/sql-databases.png" width="101px" height="101px" preserveAspectRatio="xMinYMin meet" x="24.5" y="-180.5"/>
<text text-anchor="middle" x="75" y="-64.6" font-family="Sans-Serif" font-size="13.00" fill="#2d3436">Card Data SQL</text>
<text text-anchor="middle" x="75" y="-50.6" font-family="Sans-Serif" font-size="13.00" fill="#2d3436">(TDE + Always Encrypted)</text>
</g>
<!-- 126f3f23b35f417cb81ae009b0aae46d&#45;&gt;b291c8670ae045888be0dbc906d7b339 -->
<g id="edge10" class="edge">
<title>126f3f23b35f417cb81ae009b0aae46d&#45;&gt;b291c8670ae045888be0dbc906d7b339</title>
<path fill="none" stroke="#7b8894" stroke-dasharray="5,2" d="M579.5,-1776.12C579.5,-1669.92 579.5,-1500 579.5,-1500 579.5,-1500 106.17,-1500 106.17,-1500 106.17,-1500 106.17,-223.13 106.17,-223.13"/>
<polygon fill="#7b8894" stroke="#7b8894" points="109.67,-223.13 106.17,-213.13 102.67,-223.13 109.67,-223.13"/>
<text text-anchor="middle" x="865.5" y="-999.1" font-family="Sans-Serif" font-size="13.00" fill="#2d3436">HSM Keys</text>
</g>
<!-- e92c03ffcda346eabd1f1908fe2066b4 -->
<g id="node12" class="node">
<title>e92c03ffcda346eabd1f1908fe2066b4</title>
<image xlink:href="/workspaces/sov-cloud-brain-trek/.venv/lib/python3.12/site-packages/resources/azure/storage/storage-accounts.png" width="101px" height="101px" preserveAspectRatio="xMinYMin meet" x="183.5" y="-180.5"/>
<text text-anchor="middle" x="234" y="-64.6" font-family="Sans-Serif" font-size="13.00" fill="#2d3436">Tokenized</text>
<text text-anchor="middle" x="234" y="-50.6" font-family="Sans-Serif" font-size="13.00" fill="#2d3436">Storage</text>
</g>
<!-- 126f3f23b35f417cb81ae009b0aae46d&#45;&gt;e92c03ffcda346eabd1f1908fe2066b4 -->
<g id="edge11" class="edge">
<title>126f3f23b35f417cb81ae009b0aae46d&#45;&gt;e92c03ffcda346eabd1f1908fe2066b4</title>
<path fill="none" stroke="#7b8894" stroke-dasharray="5,2" d="M614.5,-1776.37C614.5,-1431.34 614.5,-130 614.5,-130 614.5,-130 294.53,-130 294.53,-130"/>
<polygon fill="#7b8894" stroke="#7b8894" points="294.53,-126.5 284.53,-130 294.53,-133.5 294.53,-126.5"/>
<text text-anchor="middle" x="993.5" y="-999.1" font-family="Sans-Serif" font-size="13.00" fill="#2d3436">HSM Keys</text>
</g>
<!-- 5004597270d44772beb4038ee080ef32 -->
<g id="node9" class="node">
<title>5004597270d44772beb4038ee080ef32</title>
<image xlink:href="/workspaces/sov-cloud-brain-trek/.venv/lib/python3.12/site-packages/resources/azure/compute/kubernetes-services.png" width="101px" height="101px" preserveAspectRatio="xMinYMin meet" x="172.5" y="-659.5"/>
<text text-anchor="middle" x="223" y="-543.6" font-family="Sans-Serif" font-size="13.00" fill="#2d3436">Payment AKS</text>
<text text-anchor="middle" x="223" y="-529.6" font-family="Sans-Serif" font-size="13.00" fill="#2d3436">(Hardened)</text>
</g>
<!-- 2e48013447574e2cbf4c6ab72eda6df2&#45;&gt;5004597270d44772beb4038ee080ef32 -->
<g id="edge6" class="edge">
<title>2e48013447574e2cbf4c6ab72eda6df2&#45;&gt;5004597270d44772beb4038ee080ef32</title>
<path fill="none" stroke="#7b8894" d="M232.5,-793.33C232.5,-793.33 232.5,-702.12 232.5,-702.12"/>
<polygon fill="#7b8894" stroke="#7b8894" points="236,-702.12 232.5,-692.12 229,-702.12 236,-702.12"/>
</g>
<!-- 2e48013447574e2cbf4c6ab72eda6df2&#45;&gt;d147ac43bca1434b8efb7bbabedf97bf -->
<g id="edge12" class="edge">
<title>2e48013447574e2cbf4c6ab72eda6df2&#45;&gt;d147ac43bca1434b8efb7bbabedf97bf</title>
<path fill="none" stroke="#7b8894" stroke-dasharray="1,5" d="M288.5,-793.33C288.5,-714.8 288.5,-609 288.5,-609 288.5,-609 474.22,-609 474.22,-609"/>
<polygon fill="#7b8894" stroke="#7b8894" points="474.22,-612.5 484.22,-609 474.22,-605.5 474.22,-612.5"/>
<text text-anchor="middle" x="420" y="-747.1" font-family="Sans-Serif" font-size="13.00" fill="#2d3436">Peering</text>
</g>
<!-- d935deb20dd54eb89efd320843e50918 -->
<g id="node7" class="node">
<title>d935deb20dd54eb89efd320843e50918</title>
<image xlink:href="/workspaces/sov-cloud-brain-trek/.venv/lib/python3.12/site-packages/resources/azure/network/firewall.png" width="101px" height="101px" preserveAspectRatio="xMinYMin meet" x="191.5" y="-1179"/>
<text text-anchor="middle" x="242" y="-1063.1" font-family="Sans-Serif" font-size="13.00" fill="#2d3436">Firewall</text>
<text text-anchor="middle" x="242" y="-1049.1" font-family="Sans-Serif" font-size="13.00" fill="#2d3436">(IDS/IPS)</text>
</g>
<!-- d935deb20dd54eb89efd320843e50918&#45;&gt;2e48013447574e2cbf4c6ab72eda6df2 -->
<g id="edge5" class="edge">
<title>d935deb20dd54eb89efd320843e50918&#45;&gt;2e48013447574e2cbf4c6ab72eda6df2</title>
<path fill="none" stroke="#7b8894" d="M242,-1045.29C242,-1045.29 242,-969.63 242,-969.63"/>
<polygon fill="#7b8894" stroke="#7b8894" points="245.5,-969.63 242,-959.63 238.5,-969.63 245.5,-969.63"/>
</g>
<!-- ca246936137d42dc9301ad66e79cce27&#45;&gt;d935deb20dd54eb89efd320843e50918 -->
<g id="edge4" class="edge">
<title>ca246936137d42dc9301ad66e79cce27&#45;&gt;d935deb20dd54eb89efd320843e50918</title>
<path fill="none" stroke="#7b8894" d="M242,-1297.29C242,-1297.29 242,-1221.63 242,-1221.63"/>
<polygon fill="#7b8894" stroke="#7b8894" points="245.5,-1221.63 242,-1211.63 238.5,-1221.63 245.5,-1221.63"/>
</g>
<!-- d43f51403d034162b8e3c471be6b4a17 -->
<g id="node10" class="node">
<title>d43f51403d034162b8e3c471be6b4a17</title>
<image xlink:href="/workspaces/sov-cloud-brain-trek/.venv/lib/python3.12/site-packages/resources/azure/integration/api-management.png" width="101px" height="101px" preserveAspectRatio="xMinYMin meet" x="166.5" y="-420.5"/>
<text text-anchor="middle" x="217" y="-305.1" font-family="Sans-Serif" font-size="13.00" fill="#2d3436">Payment API</text>
</g>
<!-- 5004597270d44772beb4038ee080ef32&#45;&gt;d43f51403d034162b8e3c471be6b4a17 -->
<g id="edge7" class="edge">
<title>5004597270d44772beb4038ee080ef32&#45;&gt;d43f51403d034162b8e3c471be6b4a17</title>
<path fill="none" stroke="#7b8894" d="M220,-525.74C220,-525.74 220,-448.72 220,-448.72"/>
<polygon fill="#7b8894" stroke="#7b8894" points="223.5,-448.72 220,-438.72 216.5,-448.72 223.5,-448.72"/>
</g>
<!-- d43f51403d034162b8e3c471be6b4a17&#45;&gt;b291c8670ae045888be0dbc906d7b339 -->
<g id="edge8" class="edge">
<title>d43f51403d034162b8e3c471be6b4a17&#45;&gt;b291c8670ae045888be0dbc906d7b339</title>
<path fill="none" stroke="#7b8894" d="M166.42,-370C141.12,-370 115.83,-370 115.83,-370 115.83,-370 115.83,-223.27 115.83,-223.27"/>
<polygon fill="#7b8894" stroke="#7b8894" points="119.33,-223.27 115.83,-213.27 112.33,-223.27 119.33,-223.27"/>
</g>
<!-- d43f51403d034162b8e3c471be6b4a17&#45;&gt;e92c03ffcda346eabd1f1908fe2066b4 -->
<g id="edge9" class="edge">
<title>d43f51403d034162b8e3c471be6b4a17&#45;&gt;e92c03ffcda346eabd1f1908fe2066b4</title>
<path fill="none" stroke="#7b8894" d="M225.5,-301.23C225.5,-301.23 225.5,-223.26 225.5,-223.26"/>
<polygon fill="#7b8894" stroke="#7b8894" points="229,-223.26 225.5,-213.26 222,-223.26 229,-223.26"/>
</g>
<!-- aaa6799318944e2a8a03a41c76bf138c -->
<g id="node16" class="node">
<title>aaa6799318944e2a8a03a41c76bf138c</title>
<image xlink:href="/workspaces/sov-cloud-brain-trek/.venv/lib/python3.12/site-packages/resources/azure/compute/kubernetes-services.png" width="101px" height="101px" preserveAspectRatio="xMinYMin meet" x="484.5" y="-420.5"/>
<text text-anchor="middle" x="535" y="-305.1" font-family="Sans-Serif" font-size="13.00" fill="#2d3436">App AKS</text>
</g>
<!-- d147ac43bca1434b8efb7bbabedf97bf&#45;&gt;aaa6799318944e2a8a03a41c76bf138c -->
<g id="edge13" class="edge">
<title>d147ac43bca1434b8efb7bbabedf97bf&#45;&gt;aaa6799318944e2a8a03a41c76bf138c</title>
<path fill="none" stroke="#7b8894" d="M535,-540.19C535,-540.19 535,-448.74 535,-448.74"/>
<polygon fill="#7b8894" stroke="#7b8894" points="538.5,-448.74 535,-438.74 531.5,-448.74 538.5,-448.74"/>
</g>
<!-- 98574e521de64c8d8c048ea02a657f7d -->
<g id="node14" class="node">
<title>98574e521de64c8d8c048ea02a657f7d</title>
<image xlink:href="/workspaces/sov-cloud-brain-trek/.venv/lib/python3.12/site-packages/resources/azure/analytics/databricks.png" width="101px" height="101px" preserveAspectRatio="xMinYMin meet" x="643.5" y="-420.5"/>
<text text-anchor="middle" x="694" y="-304.6" font-family="Sans-Serif" font-size="13.00" fill="#2d3436">Databricks</text>
<text text-anchor="middle" x="694" y="-290.6" font-family="Sans-Serif" font-size="13.00" fill="#2d3436">(Fraud Detection)</text>
</g>
<!-- 890141bedd574f0b805bef2bdaf7a3cf -->
<g id="node15" class="node">
<title>890141bedd574f0b805bef2bdaf7a3cf</title>
<image xlink:href="/workspaces/sov-cloud-brain-trek/.venv/lib/python3.12/site-packages/resources/azure/integration/event-grid-domains.png" width="101px" height="101px" preserveAspectRatio="xMinYMin meet" x="643.5" y="-659.5"/>
<text text-anchor="middle" x="694" y="-544.1" font-family="Sans-Serif" font-size="13.00" fill="#2d3436">Event Grid</text>
</g>
<!-- 890141bedd574f0b805bef2bdaf7a3cf&#45;&gt;98574e521de64c8d8c048ea02a657f7d -->
<g id="edge14" class="edge">
<title>890141bedd574f0b805bef2bdaf7a3cf&#45;&gt;98574e521de64c8d8c048ea02a657f7d</title>
<path fill="none" stroke="#7b8894" d="M694,-540.19C694,-540.19 694,-463.14 694,-463.14"/>
<polygon fill="#7b8894" stroke="#7b8894" points="697.5,-463.14 694,-453.14 690.5,-463.14 697.5,-463.14"/>
</g>
<!-- 6ece9908d3984777af42b374bb5c4a69 -->
<g id="node17" class="node">
<title>6ece9908d3984777af42b374bb5c4a69</title>
<image xlink:href="/workspaces/sov-cloud-brain-trek/.venv/lib/python3.12/site-packages/resources/azure/database/sql-databases.png" width="101px" height="101px" preserveAspectRatio="xMinYMin meet" x="325.5" y="-420.5"/>
<text text-anchor="middle" x="376" y="-305.1" font-family="Sans-Serif" font-size="13.00" fill="#2d3436">App SQL</text>
</g>
</g>
</svg>
