<?xml version="1.0" encoding="UTF-8" standalone="no"?>
<!DOCTYPE svg PUBLIC "-//W3C//DTD SVG 1.1//EN"
 "http://www.w3.org/Graphics/SVG/1.1/DTD/svg11.dtd">
<!-- Generated by graphviz version 2.43.0 (0)
 -->
<!-- Title: Government Cloud Architecture (FedRAMP High) Pages: 1 -->
<svg width="990pt" height="1827pt"
 viewBox="0.00 0.00 989.50 1827.00" xmlns="http://www.w3.org/2000/svg" xmlns:xlink="http://www.w3.org/1999/xlink">
<g id="graph0" class="graph" transform="scale(1 1) rotate(0) translate(36 1791)">
<title>Government Cloud Architecture (FedRAMP High)</title>
<polygon fill="white" stroke="transparent" points="-36,36 -36,-1791 953.5,-1791 953.5,36 -36,36"/>
<text text-anchor="middle" x="458.75" y="-7.8" font-family="Sans-Serif" font-size="14.00" fill="#2d3436">Government Cloud Architecture (FedRAMP High)</text>
<g id="clust1" class="cluster">
<title>cluster_Azure Government (US Gov Virginia)</title>
<path fill="#e8f4fd" stroke="#aeb6be" d="M121.5,-31C121.5,-31 897.5,-31 897.5,-31 903.5,-31 909.5,-37 909.5,-43 909.5,-43 909.5,-1495 909.5,-1495 909.5,-1501 903.5,-1507 897.5,-1507 897.5,-1507 121.5,-1507 121.5,-1507 115.5,-1507 109.5,-1501 109.5,-1495 109.5,-1495 109.5,-43 109.5,-43 109.5,-37 115.5,-31 121.5,-31"/>
<text text-anchor="middle" x="226" y="-1493.4" font-family="Sans-Serif" font-size="12.00" fill="#2d3436">Azure Government (US Gov Virginia)</text>
</g>
<g id="clust2" class="cluster">
<title>cluster_Security &amp; Governance</title>
<path fill="#f3e8ff" stroke="#aeb6be" d="M129.5,-783C129.5,-783 700.5,-783 700.5,-783 706.5,-783 712.5,-789 712.5,-795 712.5,-795 712.5,-974 712.5,-974 712.5,-980 706.5,-986 700.5,-986 700.5,-986 129.5,-986 129.5,-986 123.5,-986 117.5,-980 117.5,-974 117.5,-974 117.5,-795 117.5,-795 117.5,-789 123.5,-783 129.5,-783"/>
<text text-anchor="middle" x="194.5" y="-972.4" font-family="Sans-Serif" font-size="12.00" fill="#2d3436">Security &amp; Governance</text>
</g>
<g id="clust3" class="cluster">
<title>cluster_Network Security Boundary</title>
<path fill="#ebf3e7" stroke="#aeb6be" d="M732.5,-797.5C732.5,-797.5 889.5,-797.5 889.5,-797.5 895.5,-797.5 901.5,-803.5 901.5,-809.5 901.5,-809.5 901.5,-1466 901.5,-1466 901.5,-1472 895.5,-1478 889.5,-1478 889.5,-1478 732.5,-1478 732.5,-1478 726.5,-1478 720.5,-1472 720.5,-1466 720.5,-1466 720.5,-809.5 720.5,-809.5 720.5,-803.5 726.5,-797.5 732.5,-797.5"/>
<text text-anchor="middle" x="811" y="-1464.4" font-family="Sans-Serif" font-size="12.00" fill="#2d3436">Network Security Boundary</text>
</g>
<g id="clust4" class="cluster">
<title>cluster_IL4 Workload Zone</title>
<path fill="#fff4e6" stroke="#aeb6be" d="M129.5,-39C129.5,-39 382.5,-39 382.5,-39 388.5,-39 394.5,-45 394.5,-51 394.5,-51 394.5,-706.5 394.5,-706.5 394.5,-712.5 388.5,-718.5 382.5,-718.5 382.5,-718.5 129.5,-718.5 129.5,-718.5 123.5,-718.5 117.5,-712.5 117.5,-706.5 117.5,-706.5 117.5,-51 117.5,-51 117.5,-45 123.5,-39 129.5,-39"/>
<text text-anchor="middle" x="182" y="-704.9" font-family="Sans-Serif" font-size="12.00" fill="#2d3436">IL4 Workload Zone</text>
</g>
<g id="clust5" class="cluster">
<title>cluster_IL5 Workload Zone</title>
<path fill="#ffe4e1" stroke="#aeb6be" d="M587.5,-278C587.5,-278 840.5,-278 840.5,-278 846.5,-278 852.5,-284 852.5,-290 852.5,-290 852.5,-721 852.5,-721 852.5,-727 846.5,-733 840.5,-733 840.5,-733 587.5,-733 587.5,-733 581.5,-733 575.5,-727 575.5,-721 575.5,-721 575.5,-290 575.5,-290 575.5,-284 581.5,-278 587.5,-278"/>
<text text-anchor="middle" x="640" y="-719.4" font-family="Sans-Serif" font-size="12.00" fill="#2d3436">IL5 Workload Zone</text>
</g>
<g id="clust6" class="cluster">
<title>cluster_Government Data Center</title>
<path fill="#d4e9d7" stroke="#aeb6be" d="M606.5,-1544C606.5,-1544 859.5,-1544 859.5,-1544 865.5,-1544 871.5,-1550 871.5,-1556 871.5,-1556 871.5,-1735 871.5,-1735 871.5,-1741 865.5,-1747 859.5,-1747 859.5,-1747 606.5,-1747 606.5,-1747 600.5,-1747 594.5,-1741 594.5,-1735 594.5,-1735 594.5,-1556 594.5,-1556 594.5,-1550 600.5,-1544 606.5,-1544"/>
<text text-anchor="middle" x="678" y="-1733.4" font-family="Sans-Serif" font-size="12.00" fill="#2d3436">Government Data Center</text>
</g>
<!-- 617846a69c0b477292d5e695487072d6 -->
<g id="node1" class="node">
<title>617846a69c0b477292d5e695487072d6</title>
<image xlink:href="/workspaces/sov-cloud-brain-trek/.venv/lib/python3.12/site-packages/resources/onprem/network/internet.png" width="101px" height="101px" preserveAspectRatio="xMinYMin meet" x="0" y="-1177.5"/>
<text text-anchor="middle" x="50.5" y="-1061.6" font-family="Sans-Serif" font-size="13.00" fill="#2d3436">Internet</text>
<text text-anchor="middle" x="50.5" y="-1047.6" font-family="Sans-Serif" font-size="13.00" fill="#2d3436">(Blocked)</text>
</g>
<!-- 0653927196a74654a0d3f76485c629d2 -->
<g id="node8" class="node">
<title>0653927196a74654a0d3f76485c629d2</title>
<image xlink:href="/workspaces/sov-cloud-brain-trek/.venv/lib/python3.12/site-packages/resources/azure/network/virtual-networks.png" width="101px" height="101px" preserveAspectRatio="xMinYMin meet" x="762" y="-924.5"/>
<text text-anchor="middle" x="812.5" y="-809.1" font-family="Sans-Serif" font-size="13.00" fill="#2d3436">Hub VNet</text>
</g>
<!-- 617846a69c0b477292d5e695487072d6&#45;&gt;0653927196a74654a0d3f76485c629d2 -->
<g id="edge1" class="edge">
<title>617846a69c0b477292d5e695487072d6&#45;&gt;0653927196a74654a0d3f76485c629d2</title>
<path fill="none" stroke="red" stroke-dasharray="5,2" d="M50.5,-1043.71C50.5,-1019.77 50.5,-1000 50.5,-1000 50.5,-1000 795.67,-1000 795.67,-1000 795.67,-1000 795.67,-952.53 795.67,-952.53"/>
<polygon fill="red" stroke="red" points="799.17,-952.53 795.67,-942.53 792.17,-952.53 799.17,-952.53"/>
<text text-anchor="middle" x="85.5" y="-997.6" font-family="Sans-Serif" font-size="13.00" fill="#2d3436">❌ Blocked</text>
</g>
<!-- 35a8a2f4c4a24174b8d1b323f0a03ed0 -->
<g id="node2" class="node">
<title>35a8a2f4c4a24174b8d1b323f0a03ed0</title>
<image xlink:href="/workspaces/sov-cloud-brain-trek/.venv/lib/python3.12/site-packages/resources/azure/identity/active-directory.png" width="101px" height="101px" preserveAspectRatio="xMinYMin meet" x="603" y="-924.5"/>
<text text-anchor="middle" x="653.5" y="-808.6" font-family="Sans-Serif" font-size="13.00" fill="#2d3436">Entra ID</text>
<text text-anchor="middle" x="653.5" y="-794.6" font-family="Sans-Serif" font-size="13.00" fill="#2d3436">(Gov Tenant)</text>
</g>
<!-- a71570e14a634dedbe00437becfdde43 -->
<g id="node3" class="node">
<title>a71570e14a634dedbe00437becfdde43</title>
<image xlink:href="/workspaces/sov-cloud-brain-trek/.venv/lib/python3.12/site-packages/resources/azure/security/sentinel.png" width="101px" height="101px" preserveAspectRatio="xMinYMin meet" x="444" y="-924.5"/>
<text text-anchor="middle" x="494.5" y="-808.6" font-family="Sans-Serif" font-size="13.00" fill="#2d3436">Sentinel</text>
<text text-anchor="middle" x="494.5" y="-794.6" font-family="Sans-Serif" font-size="13.00" fill="#2d3436">(NIST 800&#45;53)</text>
</g>
<!-- 4e5549ad098e4c98859ea8544ae073b3 -->
<g id="node9" class="node">
<title>4e5549ad098e4c98859ea8544ae073b3</title>
<image xlink:href="/workspaces/sov-cloud-brain-trek/.venv/lib/python3.12/site-packages/resources/azure/network/virtual-networks.png" width="101px" height="101px" preserveAspectRatio="xMinYMin meet" x="243" y="-671.5"/>
<text text-anchor="middle" x="293.5" y="-556.1" font-family="Sans-Serif" font-size="13.00" fill="#2d3436">IL4 VNet</text>
</g>
<!-- a71570e14a634dedbe00437becfdde43&#45;&gt;4e5549ad098e4c98859ea8544ae073b3 -->
<g id="edge16" class="edge">
<title>a71570e14a634dedbe00437becfdde43&#45;&gt;4e5549ad098e4c98859ea8544ae073b3</title>
<path fill="none" stroke="#7b8894" stroke-dasharray="1,5" d="M511.33,-790.81C511.33,-717.07 511.33,-621 511.33,-621 511.33,-621 354.02,-621 354.02,-621"/>
<polygon fill="#7b8894" stroke="#7b8894" points="354.02,-617.5 344.02,-621 354.02,-624.5 354.02,-617.5"/>
<text text-anchor="middle" x="627" y="-744.6" font-family="Sans-Serif" font-size="13.00" fill="#2d3436">Audit</text>
</g>
<!-- 18ff699b596640f2bb72118bddc1b1cb -->
<g id="node13" class="node">
<title>18ff699b596640f2bb72118bddc1b1cb</title>
<image xlink:href="/workspaces/sov-cloud-brain-trek/.venv/lib/python3.12/site-packages/resources/azure/network/virtual-networks.png" width="101px" height="101px" preserveAspectRatio="xMinYMin meet" x="743" y="-671.5"/>
<text text-anchor="middle" x="793.5" y="-555.6" font-family="Sans-Serif" font-size="13.00" fill="#2d3436">IL5 VNet</text>
<text text-anchor="middle" x="793.5" y="-541.6" font-family="Sans-Serif" font-size="13.00" fill="#2d3436">(Isolated)</text>
</g>
<!-- a71570e14a634dedbe00437becfdde43&#45;&gt;18ff699b596640f2bb72118bddc1b1cb -->
<g id="edge17" class="edge">
<title>a71570e14a634dedbe00437becfdde43&#45;&gt;18ff699b596640f2bb72118bddc1b1cb</title>
<path fill="none" stroke="#7b8894" stroke-dasharray="1,5" d="M477.67,-790.71C477.67,-766.77 477.67,-747 477.67,-747 477.67,-747 755.67,-747 755.67,-747 755.67,-747 755.67,-714.34 755.67,-714.34"/>
<polygon fill="#7b8894" stroke="#7b8894" points="759.17,-714.34 755.67,-704.34 752.17,-714.34 759.17,-714.34"/>
<text text-anchor="middle" x="725" y="-744.6" font-family="Sans-Serif" font-size="13.00" fill="#2d3436">Audit</text>
</g>
<!-- 0896ed3653574a7896fbd3bca199b8cb -->
<g id="node4" class="node">
<title>0896ed3653574a7896fbd3bca199b8cb</title>
<image xlink:href="/workspaces/sov-cloud-brain-trek/.venv/lib/python3.12/site-packages/resources/azure/general/tags.png" width="101px" height="101px" preserveAspectRatio="xMinYMin meet" x="285" y="-924.5"/>
<text text-anchor="middle" x="335.5" y="-808.6" font-family="Sans-Serif" font-size="13.00" fill="#2d3436">Azure Policy</text>
<text text-anchor="middle" x="335.5" y="-794.6" font-family="Sans-Serif" font-size="13.00" fill="#2d3436">(FedRAMP High)</text>
</g>
<!-- 0896ed3653574a7896fbd3bca199b8cb&#45;&gt;4e5549ad098e4c98859ea8544ae073b3 -->
<g id="edge14" class="edge">
<title>0896ed3653574a7896fbd3bca199b8cb&#45;&gt;4e5549ad098e4c98859ea8544ae073b3</title>
<path fill="none" stroke="#7b8894" stroke-dasharray="1,5" d="M304.67,-790.81C304.67,-790.81 304.67,-699.88 304.67,-699.88"/>
<polygon fill="#7b8894" stroke="#7b8894" points="308.17,-699.88 304.67,-689.88 301.17,-699.88 308.17,-699.88"/>
<text text-anchor="middle" x="365" y="-744.6" font-family="Sans-Serif" font-size="13.00" fill="#2d3436">Compliance</text>
</g>
<!-- 0896ed3653574a7896fbd3bca199b8cb&#45;&gt;18ff699b596640f2bb72118bddc1b1cb -->
<g id="edge15" class="edge">
<title>0896ed3653574a7896fbd3bca199b8cb&#45;&gt;18ff699b596640f2bb72118bddc1b1cb</title>
<path fill="none" stroke="#7b8894" stroke-dasharray="1,5" d="M365,-790.79C365,-756.66 365,-725 365,-725 365,-725 749.33,-725 749.33,-725 749.33,-725 749.33,-714.45 749.33,-714.45"/>
<polygon fill="#7b8894" stroke="#7b8894" points="752.83,-714.45 749.33,-704.45 745.83,-714.45 752.83,-714.45"/>
<text text-anchor="middle" x="507" y="-744.6" font-family="Sans-Serif" font-size="13.00" fill="#2d3436">Compliance</text>
</g>
<!-- cefbd21b9641441ca33ad0a4542ce577 -->
<g id="node5" class="node">
<title>cefbd21b9641441ca33ad0a4542ce577</title>
<image xlink:href="/workspaces/sov-cloud-brain-trek/.venv/lib/python3.12/site-packages/resources/azure/security/key-vaults.png" width="101px" height="101px" preserveAspectRatio="xMinYMin meet" x="126" y="-924.5"/>
<text text-anchor="middle" x="176.5" y="-808.6" font-family="Sans-Serif" font-size="13.00" fill="#2d3436">Key Vault</text>
<text text-anchor="middle" x="176.5" y="-794.6" font-family="Sans-Serif" font-size="13.00" fill="#2d3436">(FIPS 140&#45;2)</text>
</g>
<!-- 575ff224d06a459c8bd6890319ca6811 -->
<g id="node11" class="node">
<title>575ff224d06a459c8bd6890319ca6811</title>
<image xlink:href="/workspaces/sov-cloud-brain-trek/.venv/lib/python3.12/site-packages/resources/azure/database/sql-databases.png" width="101px" height="101px" preserveAspectRatio="xMinYMin meet" x="126" y="-180.5"/>
<text text-anchor="middle" x="176.5" y="-64.6" font-family="Sans-Serif" font-size="13.00" fill="#2d3436">IL4 SQL</text>
<text text-anchor="middle" x="176.5" y="-50.6" font-family="Sans-Serif" font-size="13.00" fill="#2d3436">(Encrypted)</text>
</g>
<!-- cefbd21b9641441ca33ad0a4542ce577&#45;&gt;575ff224d06a459c8bd6890319ca6811 -->
<g id="edge12" class="edge">
<title>cefbd21b9641441ca33ad0a4542ce577&#45;&gt;575ff224d06a459c8bd6890319ca6811</title>
<path fill="none" stroke="#7b8894" stroke-dasharray="1,5" d="M159.67,-790.82C159.67,-790.82 159.67,-223.21 159.67,-223.21"/>
<polygon fill="#7b8894" stroke="#7b8894" points="163.17,-223.21 159.67,-213.21 156.17,-223.21 163.17,-223.21"/>
<text text-anchor="middle" x="209" y="-491.6" font-family="Sans-Serif" font-size="13.00" fill="#2d3436">HSM Keys</text>
</g>
<!-- 464d8cf6e7ed4a8fa7aa469517c0b4bf -->
<g id="node15" class="node">
<title>464d8cf6e7ed4a8fa7aa469517c0b4bf</title>
<image xlink:href="/workspaces/sov-cloud-brain-trek/.venv/lib/python3.12/site-packages/resources/azure/database/sql-databases.png" width="101px" height="101px" preserveAspectRatio="xMinYMin meet" x="584" y="-419.5"/>
<text text-anchor="middle" x="634.5" y="-303.6" font-family="Sans-Serif" font-size="13.00" fill="#2d3436">IL5 SQL</text>
<text text-anchor="middle" x="634.5" y="-289.6" font-family="Sans-Serif" font-size="13.00" fill="#2d3436">(CMK + HSM)</text>
</g>
<!-- cefbd21b9641441ca33ad0a4542ce577&#45;&gt;464d8cf6e7ed4a8fa7aa469517c0b4bf -->
<g id="edge13" class="edge">
<title>cefbd21b9641441ca33ad0a4542ce577&#45;&gt;464d8cf6e7ed4a8fa7aa469517c0b4bf</title>
<path fill="none" stroke="#7b8894" stroke-dasharray="1,5" d="M193.33,-790.83C193.33,-679.26 193.33,-495 193.33,-495 193.33,-495 617.67,-495 617.67,-495 617.67,-495 617.67,-462.34 617.67,-462.34"/>
<polygon fill="#7b8894" stroke="#7b8894" points="621.17,-462.34 617.67,-452.34 614.17,-462.34 621.17,-462.34"/>
<text text-anchor="middle" x="493" y="-617.6" font-family="Sans-Serif" font-size="13.00" fill="#2d3436">HSM Keys</text>
</g>
<!-- 6bb69d5f9e84458089077573e81a132b -->
<g id="node6" class="node">
<title>6bb69d5f9e84458089077573e81a132b</title>
<image xlink:href="/workspaces/sov-cloud-brain-trek/.venv/lib/python3.12/site-packages/resources/azure/network/expressroute-circuits.png" width="101px" height="101px" preserveAspectRatio="xMinYMin meet" x="762" y="-1416.5"/>
<text text-anchor="middle" x="812.5" y="-1300.6" font-family="Sans-Serif" font-size="13.00" fill="#2d3436">ExpressRoute</text>
<text text-anchor="middle" x="812.5" y="-1286.6" font-family="Sans-Serif" font-size="13.00" fill="#2d3436">(Dedicated)</text>
</g>
<!-- 91a0e4b7e5ec4276910cceeead50fc73 -->
<g id="node7" class="node">
<title>91a0e4b7e5ec4276910cceeead50fc73</title>
<image xlink:href="/workspaces/sov-cloud-brain-trek/.venv/lib/python3.12/site-packages/resources/azure/network/firewall.png" width="101px" height="101px" preserveAspectRatio="xMinYMin meet" x="762" y="-1177.5"/>
<text text-anchor="middle" x="812.5" y="-1061.6" font-family="Sans-Serif" font-size="13.00" fill="#2d3436">Firewall</text>
<text text-anchor="middle" x="812.5" y="-1047.6" font-family="Sans-Serif" font-size="13.00" fill="#2d3436">(Threat Intel)</text>
</g>
<!-- 6bb69d5f9e84458089077573e81a132b&#45;&gt;91a0e4b7e5ec4276910cceeead50fc73 -->
<g id="edge3" class="edge">
<title>6bb69d5f9e84458089077573e81a132b&#45;&gt;91a0e4b7e5ec4276910cceeead50fc73</title>
<path fill="none" stroke="#7b8894" d="M812.5,-1282.74C812.5,-1282.74 812.5,-1220.36 812.5,-1220.36"/>
<polygon fill="#7b8894" stroke="#7b8894" points="816,-1220.36 812.5,-1210.36 809,-1220.36 816,-1220.36"/>
</g>
<!-- 91a0e4b7e5ec4276910cceeead50fc73&#45;&gt;0653927196a74654a0d3f76485c629d2 -->
<g id="edge4" class="edge">
<title>91a0e4b7e5ec4276910cceeead50fc73&#45;&gt;0653927196a74654a0d3f76485c629d2</title>
<path fill="none" stroke="#7b8894" d="M829.33,-1043.81C829.33,-1043.81 829.33,-952.88 829.33,-952.88"/>
<polygon fill="#7b8894" stroke="#7b8894" points="832.83,-952.88 829.33,-942.88 825.83,-952.88 832.83,-952.88"/>
</g>
<!-- 0653927196a74654a0d3f76485c629d2&#45;&gt;4e5549ad098e4c98859ea8544ae073b3 -->
<g id="edge5" class="edge">
<title>0653927196a74654a0d3f76485c629d2&#45;&gt;4e5549ad098e4c98859ea8544ae073b3</title>
<path fill="none" stroke="#7b8894" d="M789.33,-805.43C789.33,-785.51 789.33,-769 789.33,-769 789.33,-769 324.33,-769 324.33,-769 324.33,-769 324.33,-699.8 324.33,-699.8"/>
<polygon fill="#7b8894" stroke="#7b8894" points="327.83,-699.8 324.33,-689.8 320.83,-699.8 327.83,-699.8"/>
</g>
<!-- 0653927196a74654a0d3f76485c629d2&#45;&gt;18ff699b596640f2bb72118bddc1b1cb -->
<g id="edge6" class="edge">
<title>0653927196a74654a0d3f76485c629d2&#45;&gt;18ff699b596640f2bb72118bddc1b1cb</title>
<path fill="none" stroke="#7b8894" stroke-dasharray="5,2" d="M816.67,-805.2C816.67,-805.2 816.67,-714.2 816.67,-714.2"/>
<polygon fill="#7b8894" stroke="#7b8894" points="820.17,-714.2 816.67,-704.2 813.17,-714.2 820.17,-714.2"/>
<text text-anchor="middle" x="839" y="-744.6" font-family="Sans-Serif" font-size="13.00" fill="#2d3436">Isolated</text>
</g>
<!-- 1fe00bdd75ad4f08ac8e954b37884280 -->
<g id="node10" class="node">
<title>1fe00bdd75ad4f08ac8e954b37884280</title>
<image xlink:href="/workspaces/sov-cloud-brain-trek/.venv/lib/python3.12/site-packages/resources/azure/compute/kubernetes-services.png" width="101px" height="101px" preserveAspectRatio="xMinYMin meet" x="243" y="-419.5"/>
<text text-anchor="middle" x="293.5" y="-303.6" font-family="Sans-Serif" font-size="13.00" fill="#2d3436">IL4 AKS</text>
<text text-anchor="middle" x="293.5" y="-289.6" font-family="Sans-Serif" font-size="13.00" fill="#2d3436">(CUI Data)</text>
</g>
<!-- 4e5549ad098e4c98859ea8544ae073b3&#45;&gt;1fe00bdd75ad4f08ac8e954b37884280 -->
<g id="edge7" class="edge">
<title>4e5549ad098e4c98859ea8544ae073b3&#45;&gt;1fe00bdd75ad4f08ac8e954b37884280</title>
<path fill="none" stroke="#7b8894" d="M293.5,-552.47C293.5,-552.47 293.5,-462.33 293.5,-462.33"/>
<polygon fill="#7b8894" stroke="#7b8894" points="297,-462.33 293.5,-452.33 290,-462.33 297,-462.33"/>
</g>
<!-- 1fe00bdd75ad4f08ac8e954b37884280&#45;&gt;575ff224d06a459c8bd6890319ca6811 -->
<g id="edge8" class="edge">
<title>1fe00bdd75ad4f08ac8e954b37884280&#45;&gt;575ff224d06a459c8bd6890319ca6811</title>
<path fill="none" stroke="#7b8894" d="M264,-285.56C264,-245.04 264,-205 264,-205 264,-205 237.15,-205 237.15,-205"/>
<polygon fill="#7b8894" stroke="#7b8894" points="237.15,-201.5 227.15,-205 237.15,-208.5 237.15,-201.5"/>
</g>
<!-- 003c2cd7262946be9a23740c81041dc5 -->
<g id="node12" class="node">
<title>003c2cd7262946be9a23740c81041dc5</title>
<image xlink:href="/workspaces/sov-cloud-brain-trek/.venv/lib/python3.12/site-packages/resources/azure/storage/storage-accounts.png" width="101px" height="101px" preserveAspectRatio="xMinYMin meet" x="285" y="-180.5"/>
<text text-anchor="middle" x="335.5" y="-65.1" font-family="Sans-Serif" font-size="13.00" fill="#2d3436">IL4 Storage</text>
</g>
<!-- 1fe00bdd75ad4f08ac8e954b37884280&#45;&gt;003c2cd7262946be9a23740c81041dc5 -->
<g id="edge9" class="edge">
<title>1fe00bdd75ad4f08ac8e954b37884280&#45;&gt;003c2cd7262946be9a23740c81041dc5</title>
<path fill="none" stroke="#7b8894" d="M314.5,-285.74C314.5,-285.74 314.5,-208.72 314.5,-208.72"/>
<polygon fill="#7b8894" stroke="#7b8894" points="318,-208.72 314.5,-198.72 311,-208.72 318,-208.72"/>
</g>
<!-- c809d365704645eaaee5caf6b08ea3b7 -->
<g id="node14" class="node">
<title>c809d365704645eaaee5caf6b08ea3b7</title>
<image xlink:href="/workspaces/sov-cloud-brain-trek/.venv/lib/python3.12/site-packages/resources/azure/compute/vm.png" width="101px" height="101px" preserveAspectRatio="xMinYMin meet" x="743" y="-419.5"/>
<text text-anchor="middle" x="793.5" y="-303.6" font-family="Sans-Serif" font-size="13.00" fill="#2d3436">IL5 VMs</text>
<text text-anchor="middle" x="793.5" y="-289.6" font-family="Sans-Serif" font-size="13.00" fill="#2d3436">(National Security)</text>
</g>
<!-- 18ff699b596640f2bb72118bddc1b1cb&#45;&gt;c809d365704645eaaee5caf6b08ea3b7 -->
<g id="edge10" class="edge">
<title>18ff699b596640f2bb72118bddc1b1cb&#45;&gt;c809d365704645eaaee5caf6b08ea3b7</title>
<path fill="none" stroke="#7b8894" d="M793.5,-537.79C793.5,-537.79 793.5,-462.13 793.5,-462.13"/>
<polygon fill="#7b8894" stroke="#7b8894" points="797,-462.13 793.5,-452.13 790,-462.13 797,-462.13"/>
</g>
<!-- ad37df48a2ba4b4fa329b2baab2e0e1d -->
<g id="node16" class="node">
<title>ad37df48a2ba4b4fa329b2baab2e0e1d</title>
<image xlink:href="/workspaces/sov-cloud-brain-trek/.venv/lib/python3.12/site-packages/resources/azure/network/private-endpoint.png" width="101px" height="101px" preserveAspectRatio="xMinYMin meet" x="584" y="-671.5"/>
<text text-anchor="middle" x="634.5" y="-555.6" font-family="Sans-Serif" font-size="13.00" fill="#2d3436">Private</text>
<text text-anchor="middle" x="634.5" y="-541.6" font-family="Sans-Serif" font-size="13.00" fill="#2d3436">Endpoints</text>
</g>
<!-- ad37df48a2ba4b4fa329b2baab2e0e1d&#45;&gt;464d8cf6e7ed4a8fa7aa469517c0b4bf -->
<g id="edge11" class="edge">
<title>ad37df48a2ba4b4fa329b2baab2e0e1d&#45;&gt;464d8cf6e7ed4a8fa7aa469517c0b4bf</title>
<path fill="none" stroke="#7b8894" d="M651.33,-537.79C651.33,-537.79 651.33,-462.13 651.33,-462.13"/>
<polygon fill="#7b8894" stroke="#7b8894" points="654.83,-462.13 651.33,-452.13 647.83,-462.13 654.83,-462.13"/>
</g>
<!-- 328052d70973473ba8c769d552d41337 -->
<g id="node17" class="node">
<title>328052d70973473ba8c769d552d41337</title>
<image xlink:href="/workspaces/sov-cloud-brain-trek/.venv/lib/python3.12/site-packages/resources/generic/compute/rack.png" width="101px" height="101px" preserveAspectRatio="xMinYMin meet" x="762" y="-1685.5"/>
<text text-anchor="middle" x="812.5" y="-1569.6" font-family="Sans-Serif" font-size="13.00" fill="#2d3436">Agency</text>
<text text-anchor="middle" x="812.5" y="-1555.6" font-family="Sans-Serif" font-size="13.00" fill="#2d3436">Data Center</text>
</g>
<!-- 328052d70973473ba8c769d552d41337&#45;&gt;6bb69d5f9e84458089077573e81a132b -->
<g id="edge2" class="edge">
<title>328052d70973473ba8c769d552d41337&#45;&gt;6bb69d5f9e84458089077573e81a132b</title>
<path fill="none" stroke="#7b8894" d="M812.5,-1551.73C812.5,-1551.73 812.5,-1459.34 812.5,-1459.34"/>
<polygon fill="#7b8894" stroke="#7b8894" points="816,-1459.34 812.5,-1449.34 809,-1459.34 816,-1459.34"/>
</g>
<!-- 5684f6808a2447cc8ecf2773b455caa6 -->
<g id="node18" class="node">
<title>5684f6808a2447cc8ecf2773b455caa6</title>
<image xlink:href="/workspaces/sov-cloud-brain-trek/.venv/lib/python3.12/site-packages/resources/generic/compute/rack.png" width="101px" height="101px" preserveAspectRatio="xMinYMin meet" x="603" y="-1685.5"/>
<text text-anchor="middle" x="653.5" y="-1569.6" font-family="Sans-Serif" font-size="13.00" fill="#2d3436">Classified</text>
<text text-anchor="middle" x="653.5" y="-1555.6" font-family="Sans-Serif" font-size="13.00" fill="#2d3436">Network</text>
</g>
</g>
</svg>
