<?xml version="1.0" encoding="UTF-8" standalone="no"?>
<!DOCTYPE svg PUBLIC "-//W3C//DTD SVG 1.1//EN"
 "http://www.w3.org/Graphics/SVG/1.1/DTD/svg11.dtd">
<!-- Generated by graphviz version 2.43.0 (0)
 -->
<!-- Title: Healthcare Sovereign Cloud Architecture Pages: 1 -->
<svg width="869pt" height="1771pt"
 viewBox="0.00 0.00 869.00 1771.00" xmlns="http://www.w3.org/2000/svg" xmlns:xlink="http://www.w3.org/1999/xlink">
<g id="graph0" class="graph" transform="scale(1 1) rotate(0) translate(36 1735)">
<title>Healthcare Sovereign Cloud Architecture</title>
<polygon fill="white" stroke="transparent" points="-36,36 -36,-1735 833,-1735 833,36 -36,36"/>
<text text-anchor="middle" x="398.5" y="-7.8" font-family="Sans-Serif" font-size="14.00" fill="#2d3436">Healthcare Sovereign Cloud Architecture</text>
<g id="clust1" class="cluster">
<title>cluster_Security &amp; Identity</title>
<path fill="#f3e8ff" stroke="#aeb6be" d="M193,-1488C193,-1488 605,-1488 605,-1488 611,-1488 617,-1494 617,-1500 617,-1500 617,-1679 617,-1679 617,-1685 611,-1691 605,-1691 605,-1691 193,-1691 193,-1691 187,-1691 181,-1685 181,-1679 181,-1679 181,-1500 181,-1500 181,-1494 187,-1488 193,-1488"/>
<text text-anchor="middle" x="244.5" y="-1677.4" font-family="Sans-Serif" font-size="12.00" fill="#2d3436">Security &amp; Identity</text>
</g>
<g id="clust2" class="cluster">
<title>cluster_Network Security Layer</title>
<path fill="#ffe4e1" stroke="#aeb6be" d="M163,-1012C163,-1012 296,-1012 296,-1012 302,-1012 308,-1018 308,-1024 308,-1024 308,-1426 308,-1426 308,-1432 302,-1438 296,-1438 296,-1438 163,-1438 163,-1438 157,-1438 151,-1432 151,-1426 151,-1426 151,-1024 151,-1024 151,-1018 157,-1012 163,-1012"/>
<text text-anchor="middle" x="229.5" y="-1424.4" font-family="Sans-Serif" font-size="12.00" fill="#2d3436">Network Security Layer</text>
</g>
<g id="clust3" class="cluster">
<title>cluster_HIPAA Workload Zone</title>
<path fill="#e8f4fd" stroke="#aeb6be" d="M20,-31C20,-31 289,-31 289,-31 295,-31 301,-37 301,-43 301,-43 301,-950 301,-950 301,-956 295,-962 289,-962 289,-962 20,-962 20,-962 14,-962 8,-956 8,-950 8,-950 8,-43 8,-43 8,-37 14,-31 20,-31"/>
<text text-anchor="middle" x="81.5" y="-948.4" font-family="Sans-Serif" font-size="12.00" fill="#2d3436">HIPAA Workload Zone</text>
</g>
<g id="clust4" class="cluster">
<title>cluster_Compute</title>
<path fill="#ebf3e7" stroke="#aeb6be" d="M28,-519C28,-519 281,-519 281,-519 287,-519 293,-525 293,-531 293,-531 293,-710 293,-710 293,-716 287,-722 281,-722 281,-722 28,-722 28,-722 22,-722 16,-716 16,-710 16,-710 16,-531 16,-531 16,-525 22,-519 28,-519"/>
<text text-anchor="middle" x="51.5" y="-708.4" font-family="Sans-Serif" font-size="12.00" fill="#2d3436">Compute</text>
</g>
<g id="clust5" class="cluster">
<title>cluster_Integration</title>
<path fill="#ebf3e7" stroke="#aeb6be" d="M28,-279C28,-279 122,-279 122,-279 128,-279 134,-285 134,-291 134,-291 134,-470 134,-470 134,-476 128,-482 122,-482 122,-482 28,-482 28,-482 22,-482 16,-476 16,-470 16,-470 16,-291 16,-291 16,-285 22,-279 28,-279"/>
<text text-anchor="middle" x="57.5" y="-468.4" font-family="Sans-Serif" font-size="12.00" fill="#2d3436">Integration</text>
</g>
<g id="clust6" class="cluster">
<title>cluster_AI/ML</title>
<path fill="#ebf3e7" stroke="#aeb6be" d="M28,-39C28,-39 122,-39 122,-39 128,-39 134,-45 134,-51 134,-51 134,-230 134,-230 134,-236 128,-242 122,-242 122,-242 28,-242 28,-242 22,-242 16,-236 16,-230 16,-230 16,-51 16,-51 16,-45 22,-39 28,-39"/>
<text text-anchor="middle" x="41" y="-228.4" font-family="Sans-Serif" font-size="12.00" fill="#2d3436">AI/ML</text>
</g>
<g id="clust7" class="cluster">
<title>cluster_PHI Data Layer (Encrypted)</title>
<path fill="#d4e9d7" stroke="#aeb6be" d="M342,-271C342,-271 770,-271 770,-271 776,-271 782,-277 782,-283 782,-283 782,-710 782,-710 782,-716 776,-722 770,-722 770,-722 342,-722 342,-722 336,-722 330,-716 330,-710 330,-710 330,-283 330,-283 330,-277 336,-271 342,-271"/>
<text text-anchor="middle" x="420" y="-708.4" font-family="Sans-Serif" font-size="12.00" fill="#2d3436">PHI Data Layer (Encrypted)</text>
</g>
<g id="clust8" class="cluster">
<title>cluster_Databases</title>
<path fill="#ebf3e7" stroke="#aeb6be" d="M350,-279C350,-279 603,-279 603,-279 609,-279 615,-285 615,-291 615,-291 615,-470 615,-470 615,-476 609,-482 603,-482 603,-482 350,-482 350,-482 344,-482 338,-476 338,-470 338,-470 338,-291 338,-291 338,-285 344,-279 350,-279"/>
<text text-anchor="middle" x="378" y="-468.4" font-family="Sans-Serif" font-size="12.00" fill="#2d3436">Databases</text>
</g>
<g id="clust9" class="cluster">
<title>cluster_Storage</title>
<path fill="#ebf3e7" stroke="#aeb6be" d="M668,-279C668,-279 762,-279 762,-279 768,-279 774,-285 774,-291 774,-291 774,-470 774,-470 774,-476 768,-482 762,-482 762,-482 668,-482 668,-482 662,-482 656,-476 656,-470 656,-470 656,-291 656,-291 656,-285 662,-279 668,-279"/>
<text text-anchor="middle" x="688" y="-468.4" font-family="Sans-Serif" font-size="12.00" fill="#2d3436">Storage</text>
</g>
<!-- ef0acab769134241a58d865234bfecd7 -->
<g id="node1" class="node">
<title>ef0acab769134241a58d865234bfecd7</title>
<image xlink:href="/workspaces/sov-cloud-brain-trek/.venv/lib/python3.12/site-packages/resources/azure/identity/active-directory.png" width="101px" height="101px" preserveAspectRatio="xMinYMin meet" x="189.5" y="-1629.5"/>
<text text-anchor="middle" x="240" y="-1513.6" font-family="Sans-Serif" font-size="13.00" fill="#2d3436">Microsoft Entra</text>
<text text-anchor="middle" x="240" y="-1499.6" font-family="Sans-Serif" font-size="13.00" fill="#2d3436">(MFA Required)</text>
</g>
<!-- 7c271ba9682b4a08855c8ccd83f6ff84 -->
<g id="node4" class="node">
<title>7c271ba9682b4a08855c8ccd83f6ff84</title>
<image xlink:href="/workspaces/sov-cloud-brain-trek/.venv/lib/python3.12/site-packages/resources/azure/network/application-gateway.png" width="101px" height="101px" preserveAspectRatio="xMinYMin meet" x="189.5" y="-1391"/>
<text text-anchor="middle" x="240" y="-1275.6" font-family="Sans-Serif" font-size="13.00" fill="#2d3436">WAF v2</text>
</g>
<!-- ef0acab769134241a58d865234bfecd7&#45;&gt;7c271ba9682b4a08855c8ccd83f6ff84 -->
<g id="edge1" class="edge">
<title>ef0acab769134241a58d865234bfecd7&#45;&gt;7c271ba9682b4a08855c8ccd83f6ff84</title>
<path fill="none" stroke="#7b8894" d="M240,-1495.92C240,-1495.92 240,-1419.08 240,-1419.08"/>
<polygon fill="#7b8894" stroke="#7b8894" points="243.5,-1419.08 240,-1409.08 236.5,-1419.08 243.5,-1419.08"/>
<text text-anchor="middle" x="273.5" y="-1449.6" font-family="Sans-Serif" font-size="13.00" fill="#2d3436">Zero Trust</text>
</g>
<!-- dffae91c18814e6483226ced8b4c6def -->
<g id="node2" class="node">
<title>dffae91c18814e6483226ced8b4c6def</title>
<image xlink:href="/workspaces/sov-cloud-brain-trek/.venv/lib/python3.12/site-packages/resources/azure/security/sentinel.png" width="101px" height="101px" preserveAspectRatio="xMinYMin meet" x="348.5" y="-1629.5"/>
<text text-anchor="middle" x="399" y="-1513.6" font-family="Sans-Serif" font-size="13.00" fill="#2d3436">Microsoft Sentinel</text>
<text text-anchor="middle" x="399" y="-1499.6" font-family="Sans-Serif" font-size="13.00" fill="#2d3436">HIPAA Workbook</text>
</g>
<!-- b4c57c98394745b7ae9557bb7efd6814 -->
<g id="node6" class="node">
<title>b4c57c98394745b7ae9557bb7efd6814</title>
<image xlink:href="/workspaces/sov-cloud-brain-trek/.venv/lib/python3.12/site-packages/resources/azure/network/virtual-networks.png" width="101px" height="101px" preserveAspectRatio="xMinYMin meet" x="189.5" y="-900.5"/>
<text text-anchor="middle" x="240" y="-784.6" font-family="Sans-Serif" font-size="13.00" fill="#2d3436">Isolated VNet</text>
<text text-anchor="middle" x="240" y="-770.6" font-family="Sans-Serif" font-size="13.00" fill="#2d3436">(No Internet)</text>
</g>
<!-- dffae91c18814e6483226ced8b4c6def&#45;&gt;b4c57c98394745b7ae9557bb7efd6814 -->
<g id="edge4" class="edge">
<title>dffae91c18814e6483226ced8b4c6def&#45;&gt;b4c57c98394745b7ae9557bb7efd6814</title>
<path fill="none" stroke="#7b8894" stroke-dasharray="1,5" d="M396,-1495.73C396,-1304.45 396,-850 396,-850 396,-850 300.65,-850 300.65,-850"/>
<polygon fill="#7b8894" stroke="#7b8894" points="300.65,-846.5 290.65,-850 300.65,-853.5 300.65,-846.5"/>
<text text-anchor="middle" x="426" y="-1225.6" font-family="Sans-Serif" font-size="13.00" fill="#2d3436">Audit Logs</text>
</g>
<!-- 1c6ec692c9f04a7ab494bef44ffbe566 -->
<g id="node3" class="node">
<title>1c6ec692c9f04a7ab494bef44ffbe566</title>
<image xlink:href="/workspaces/sov-cloud-brain-trek/.venv/lib/python3.12/site-packages/resources/azure/security/key-vaults.png" width="101px" height="101px" preserveAspectRatio="xMinYMin meet" x="507.5" y="-1629.5"/>
<text text-anchor="middle" x="558" y="-1513.6" font-family="Sans-Serif" font-size="13.00" fill="#2d3436">Key Vault</text>
<text text-anchor="middle" x="558" y="-1499.6" font-family="Sans-Serif" font-size="13.00" fill="#2d3436">(HSM&#45;backed)</text>
</g>
<!-- ed53d6a7956248bead591301b5339d2b -->
<g id="node12" class="node">
<title>ed53d6a7956248bead591301b5339d2b</title>
<image xlink:href="/workspaces/sov-cloud-brain-trek/.venv/lib/python3.12/site-packages/resources/azure/database/sql-databases.png" width="101px" height="101px" preserveAspectRatio="xMinYMin meet" x="346.5" y="-420.5"/>
<text text-anchor="middle" x="397" y="-304.6" font-family="Sans-Serif" font-size="13.00" fill="#2d3436">SQL Server</text>
<text text-anchor="middle" x="397" y="-290.6" font-family="Sans-Serif" font-size="13.00" fill="#2d3436">(TDE + CMK)</text>
</g>
<!-- 1c6ec692c9f04a7ab494bef44ffbe566&#45;&gt;ed53d6a7956248bead591301b5339d2b -->
<g id="edge9" class="edge">
<title>1c6ec692c9f04a7ab494bef44ffbe566&#45;&gt;ed53d6a7956248bead591301b5339d2b</title>
<path fill="none" stroke="#7b8894" stroke-dasharray="5,2" d="M557,-1495.81C557,-1241.24 557,-490 557,-490 557,-490 411.17,-490 411.17,-490 411.17,-490 411.17,-463.02 411.17,-463.02"/>
<polygon fill="#7b8894" stroke="#7b8894" points="414.67,-463.02 411.17,-453.02 407.67,-463.02 414.67,-463.02"/>
<text text-anchor="middle" x="546.5" y="-973.6" font-family="Sans-Serif" font-size="13.00" fill="#2d3436">CMK</text>
</g>
<!-- 88bd72d6a01e46f5a9638cc292074d57 -->
<g id="node13" class="node">
<title>88bd72d6a01e46f5a9638cc292074d57</title>
<image xlink:href="/workspaces/sov-cloud-brain-trek/.venv/lib/python3.12/site-packages/resources/azure/database/cosmos-db.png" width="101px" height="101px" preserveAspectRatio="xMinYMin meet" x="505.5" y="-420.5"/>
<text text-anchor="middle" x="556" y="-304.6" font-family="Sans-Serif" font-size="13.00" fill="#2d3436">Cosmos DB</text>
<text text-anchor="middle" x="556" y="-290.6" font-family="Sans-Serif" font-size="13.00" fill="#2d3436">(PHI Documents)</text>
</g>
<!-- 1c6ec692c9f04a7ab494bef44ffbe566&#45;&gt;88bd72d6a01e46f5a9638cc292074d57 -->
<g id="edge10" class="edge">
<title>1c6ec692c9f04a7ab494bef44ffbe566&#45;&gt;88bd72d6a01e46f5a9638cc292074d57</title>
<path fill="none" stroke="#7b8894" stroke-dasharray="5,2" d="M581.75,-1495.9C581.75,-1495.9 581.75,-463.28 581.75,-463.28"/>
<polygon fill="#7b8894" stroke="#7b8894" points="585.25,-463.28 581.75,-453.28 578.25,-463.28 585.25,-463.28"/>
<text text-anchor="middle" x="664.5" y="-973.6" font-family="Sans-Serif" font-size="13.00" fill="#2d3436">CMK</text>
</g>
<!-- 02f45a4544bb417eade233b49c3eeb74 -->
<g id="node14" class="node">
<title>02f45a4544bb417eade233b49c3eeb74</title>
<image xlink:href="/workspaces/sov-cloud-brain-trek/.venv/lib/python3.12/site-packages/resources/azure/storage/storage-accounts.png" width="101px" height="101px" preserveAspectRatio="xMinYMin meet" x="664.5" y="-420.5"/>
<text text-anchor="middle" x="715" y="-304.6" font-family="Sans-Serif" font-size="13.00" fill="#2d3436">Blob Storage</text>
<text text-anchor="middle" x="715" y="-290.6" font-family="Sans-Serif" font-size="13.00" fill="#2d3436">(CMK Encrypted)</text>
</g>
<!-- 1c6ec692c9f04a7ab494bef44ffbe566&#45;&gt;02f45a4544bb417eade233b49c3eeb74 -->
<g id="edge11" class="edge">
<title>1c6ec692c9f04a7ab494bef44ffbe566&#45;&gt;02f45a4544bb417eade233b49c3eeb74</title>
<path fill="none" stroke="#7b8894" stroke-dasharray="5,2" d="M608.75,-1579C660.06,-1579 731.83,-1579 731.83,-1579 731.83,-1579 731.83,-463.1 731.83,-463.1"/>
<polygon fill="#7b8894" stroke="#7b8894" points="735.33,-463.1 731.83,-453.1 728.33,-463.1 735.33,-463.1"/>
<text text-anchor="middle" x="782.5" y="-973.6" font-family="Sans-Serif" font-size="13.00" fill="#2d3436">CMK</text>
</g>
<!-- 017fe76e3a7d4c36868b2622b56f602e -->
<g id="node5" class="node">
<title>017fe76e3a7d4c36868b2622b56f602e</title>
<image xlink:href="/workspaces/sov-cloud-brain-trek/.venv/lib/python3.12/site-packages/resources/azure/network/firewall.png" width="101px" height="101px" preserveAspectRatio="xMinYMin meet" x="189.5" y="-1153.5"/>
<text text-anchor="middle" x="240" y="-1037.6" font-family="Sans-Serif" font-size="13.00" fill="#2d3436">Azure Firewall</text>
<text text-anchor="middle" x="240" y="-1023.6" font-family="Sans-Serif" font-size="13.00" fill="#2d3436">Premium</text>
</g>
<!-- 7c271ba9682b4a08855c8ccd83f6ff84&#45;&gt;017fe76e3a7d4c36868b2622b56f602e -->
<g id="edge2" class="edge">
<title>7c271ba9682b4a08855c8ccd83f6ff84&#45;&gt;017fe76e3a7d4c36868b2622b56f602e</title>
<path fill="none" stroke="#7b8894" d="M240,-1271.81C240,-1271.81 240,-1196.28 240,-1196.28"/>
<polygon fill="#7b8894" stroke="#7b8894" points="243.5,-1196.28 240,-1186.28 236.5,-1196.28 243.5,-1196.28"/>
</g>
<!-- 017fe76e3a7d4c36868b2622b56f602e&#45;&gt;b4c57c98394745b7ae9557bb7efd6814 -->
<g id="edge3" class="edge">
<title>017fe76e3a7d4c36868b2622b56f602e&#45;&gt;b4c57c98394745b7ae9557bb7efd6814</title>
<path fill="none" stroke="#7b8894" d="M240,-1019.81C240,-1019.81 240,-943.24 240,-943.24"/>
<polygon fill="#7b8894" stroke="#7b8894" points="243.5,-943.24 240,-933.24 236.5,-943.24 243.5,-943.24"/>
</g>
<!-- f8a92fe4187148849443a43d49b0a30c -->
<g id="node7" class="node">
<title>f8a92fe4187148849443a43d49b0a30c</title>
<image xlink:href="/workspaces/sov-cloud-brain-trek/.venv/lib/python3.12/site-packages/resources/azure/compute/kubernetes-services.png" width="101px" height="101px" preserveAspectRatio="xMinYMin meet" x="24.5" y="-660.5"/>
<text text-anchor="middle" x="75" y="-544.6" font-family="Sans-Serif" font-size="13.00" fill="#2d3436">AKS</text>
<text text-anchor="middle" x="75" y="-530.6" font-family="Sans-Serif" font-size="13.00" fill="#2d3436">(Private Cluster)</text>
</g>
<!-- b4c57c98394745b7ae9557bb7efd6814&#45;&gt;f8a92fe4187148849443a43d49b0a30c -->
<g id="edge5" class="edge">
<title>b4c57c98394745b7ae9557bb7efd6814&#45;&gt;f8a92fe4187148849443a43d49b0a30c</title>
<path fill="none" stroke="#7b8894" d="M213.25,-766.63C213.25,-726.93 213.25,-688 213.25,-688 213.25,-688 135.69,-688 135.69,-688"/>
<polygon fill="#7b8894" stroke="#7b8894" points="135.69,-684.5 125.69,-688 135.69,-691.5 135.69,-684.5"/>
</g>
<!-- 0c4438b0519e4482b923827632384106 -->
<g id="node8" class="node">
<title>0c4438b0519e4482b923827632384106</title>
<image xlink:href="/workspaces/sov-cloud-brain-trek/.venv/lib/python3.12/site-packages/resources/azure/compute/vm.png" width="101px" height="101px" preserveAspectRatio="xMinYMin meet" x="183.5" y="-660.5"/>
<text text-anchor="middle" x="234" y="-545.1" font-family="Sans-Serif" font-size="13.00" fill="#2d3436">EHR Application</text>
</g>
<!-- b4c57c98394745b7ae9557bb7efd6814&#45;&gt;0c4438b0519e4482b923827632384106 -->
<g id="edge6" class="edge">
<title>b4c57c98394745b7ae9557bb7efd6814&#45;&gt;0c4438b0519e4482b923827632384106</title>
<path fill="none" stroke="#7b8894" d="M237,-766.73C237,-766.73 237,-688.81 237,-688.81"/>
<polygon fill="#7b8894" stroke="#7b8894" points="240.5,-688.81 237,-678.81 233.5,-688.81 240.5,-688.81"/>
</g>
<!-- d65123b0008342b184a041ab7b4811ee -->
<g id="node11" class="node">
<title>d65123b0008342b184a041ab7b4811ee</title>
<image xlink:href="/workspaces/sov-cloud-brain-trek/.venv/lib/python3.12/site-packages/resources/azure/network/private-endpoint.png" width="101px" height="101px" preserveAspectRatio="xMinYMin meet" x="342.5" y="-660.5"/>
<text text-anchor="middle" x="393" y="-544.6" font-family="Sans-Serif" font-size="13.00" fill="#2d3436">Private</text>
<text text-anchor="middle" x="393" y="-530.6" font-family="Sans-Serif" font-size="13.00" fill="#2d3436">Endpoints</text>
</g>
<!-- b4c57c98394745b7ae9557bb7efd6814&#45;&gt;d65123b0008342b184a041ab7b4811ee -->
<g id="edge12" class="edge">
<title>b4c57c98394745b7ae9557bb7efd6814&#45;&gt;d65123b0008342b184a041ab7b4811ee</title>
<path fill="none" stroke="#7b8894" d="M260.75,-766.99C260.75,-725.08 260.75,-683 260.75,-683 260.75,-683 332.25,-683 332.25,-683"/>
<polygon fill="#7b8894" stroke="#7b8894" points="332.25,-686.5 342.25,-683 332.25,-679.5 332.25,-686.5"/>
</g>
<!-- c14beec84f4a41a1bafda0c7f25312ce -->
<g id="node9" class="node">
<title>c14beec84f4a41a1bafda0c7f25312ce</title>
<image xlink:href="/workspaces/sov-cloud-brain-trek/.venv/lib/python3.12/site-packages/resources/azure/integration/api-management.png" width="101px" height="101px" preserveAspectRatio="xMinYMin meet" x="24.5" y="-420.5"/>
<text text-anchor="middle" x="75" y="-304.6" font-family="Sans-Serif" font-size="13.00" fill="#2d3436">FHIR API</text>
<text text-anchor="middle" x="75" y="-290.6" font-family="Sans-Serif" font-size="13.00" fill="#2d3436">Management</text>
</g>
<!-- f8a92fe4187148849443a43d49b0a30c&#45;&gt;c14beec84f4a41a1bafda0c7f25312ce -->
<g id="edge7" class="edge">
<title>f8a92fe4187148849443a43d49b0a30c&#45;&gt;c14beec84f4a41a1bafda0c7f25312ce</title>
<path fill="none" stroke="#7b8894" d="M75,-526.73C75,-526.73 75,-463.12 75,-463.12"/>
<polygon fill="#7b8894" stroke="#7b8894" points="78.5,-463.12 75,-453.12 71.5,-463.12 78.5,-463.12"/>
</g>
<!-- 3906a7029258415daf1669f6c8333f13 -->
<g id="node10" class="node">
<title>3906a7029258415daf1669f6c8333f13</title>
<image xlink:href="/workspaces/sov-cloud-brain-trek/.venv/lib/python3.12/site-packages/resources/azure/ml/machine-learning-service-workspaces.png" width="101px" height="101px" preserveAspectRatio="xMinYMin meet" x="24.5" y="-180.5"/>
<text text-anchor="middle" x="75" y="-64.6" font-family="Sans-Serif" font-size="13.00" fill="#2d3436">Azure ML</text>
<text text-anchor="middle" x="75" y="-50.6" font-family="Sans-Serif" font-size="13.00" fill="#2d3436">(PHI Processing)</text>
</g>
<!-- c14beec84f4a41a1bafda0c7f25312ce&#45;&gt;3906a7029258415daf1669f6c8333f13 -->
<g id="edge8" class="edge">
<title>c14beec84f4a41a1bafda0c7f25312ce&#45;&gt;3906a7029258415daf1669f6c8333f13</title>
<path fill="none" stroke="#7b8894" d="M75,-286.73C75,-286.73 75,-223.12 75,-223.12"/>
<polygon fill="#7b8894" stroke="#7b8894" points="78.5,-223.12 75,-213.12 71.5,-223.12 78.5,-223.12"/>
</g>
<!-- d65123b0008342b184a041ab7b4811ee&#45;&gt;ed53d6a7956248bead591301b5339d2b -->
<g id="edge13" class="edge">
<title>d65123b0008342b184a041ab7b4811ee&#45;&gt;ed53d6a7956248bead591301b5339d2b</title>
<path fill="none" stroke="#7b8894" d="M378.83,-526.73C378.83,-526.73 378.83,-463.12 378.83,-463.12"/>
<polygon fill="#7b8894" stroke="#7b8894" points="382.33,-463.12 378.83,-453.12 375.33,-463.12 382.33,-463.12"/>
</g>
<!-- d65123b0008342b184a041ab7b4811ee&#45;&gt;88bd72d6a01e46f5a9638cc292074d57 -->
<g id="edge14" class="edge">
<title>d65123b0008342b184a041ab7b4811ee&#45;&gt;88bd72d6a01e46f5a9638cc292074d57</title>
<path fill="none" stroke="#7b8894" d="M443.67,-582C483.48,-582 532.25,-582 532.25,-582 532.25,-582 532.25,-463.18 532.25,-463.18"/>
<polygon fill="#7b8894" stroke="#7b8894" points="535.75,-463.18 532.25,-453.18 528.75,-463.18 535.75,-463.18"/>
</g>
<!-- d65123b0008342b184a041ab7b4811ee&#45;&gt;02f45a4544bb417eade233b49c3eeb74 -->
<g id="edge15" class="edge">
<title>d65123b0008342b184a041ab7b4811ee&#45;&gt;02f45a4544bb417eade233b49c3eeb74</title>
<path fill="none" stroke="#7b8894" d="M443.73,-637C530.51,-637 698.17,-637 698.17,-637 698.17,-637 698.17,-463.02 698.17,-463.02"/>
<polygon fill="#7b8894" stroke="#7b8894" points="701.67,-463.02 698.17,-453.02 694.67,-463.02 701.67,-463.02"/>
</g>
</g>
</svg>
