<?xml version="1.0" encoding="UTF-8" standalone="no"?>
<!DOCTYPE svg PUBLIC "-//W3C//DTD SVG 1.1//EN"
 "http://www.w3.org/Graphics/SVG/1.1/DTD/svg11.dtd">
<!-- Generated by graphviz version 2.43.0 (0)
 -->
<!-- Title: Hybrid Identity Architecture Pages: 1 -->
<svg width="1403pt" height="1126pt"
 viewBox="0.00 0.00 1403.00 1126.00" xmlns="http://www.w3.org/2000/svg" xmlns:xlink="http://www.w3.org/1999/xlink">
<g id="graph0" class="graph" transform="scale(1 1) rotate(0) translate(36 1090)">
<title>Hybrid Identity Architecture</title>
<polygon fill="white" stroke="transparent" points="-36,36 -36,-1090 1367,-1090 1367,36 -36,36"/>
<text text-anchor="middle" x="665.5" y="-7.8" font-family="Sans-Serif" font-size="14.00" fill="#2d3436">Hybrid Identity Architecture</text>
<g id="clust1" class="cluster">
<title>cluster_End Users</title>
<path fill="#e5f5fd" stroke="#aeb6be" d="M20,-619C20,-619 113,-619 113,-619 119,-619 125,-625 125,-631 125,-631 125,-1034 125,-1034 125,-1040 119,-1046 113,-1046 113,-1046 20,-1046 20,-1046 14,-1046 8,-1040 8,-1034 8,-1034 8,-631 8,-631 8,-625 14,-619 20,-619"/>
<text text-anchor="middle" x="46.5" y="-1032.4" font-family="Sans-Serif" font-size="12.00" fill="#2d3436">End Users</text>
</g>
<g id="clust2" class="cluster">
<title>cluster_Microsoft Entra ID</title>
<path fill="#e8f4fd" stroke="#aeb6be" d="M368,-619C368,-619 635,-619 635,-619 641,-619 647,-625 647,-631 647,-631 647,-1034 647,-1034 647,-1040 641,-1046 635,-1046 635,-1046 368,-1046 368,-1046 362,-1046 356,-1040 356,-1034 356,-1034 356,-631 356,-631 356,-625 362,-619 368,-619"/>
<text text-anchor="middle" x="417.5" y="-1032.4" font-family="Sans-Serif" font-size="12.00" fill="#2d3436">Microsoft Entra ID</text>
</g>
<g id="clust3" class="cluster">
<title>cluster_Azure Sovereign Cloud</title>
<path fill="#d4e9d7" stroke="#aeb6be" d="M542,-241C542,-241 864,-241 864,-241 870,-241 876,-247 876,-253 876,-253 876,-599 876,-599 876,-605 870,-611 864,-611 864,-611 542,-611 542,-611 536,-611 530,-605 530,-599 530,-599 530,-253 530,-253 530,-247 536,-241 542,-241"/>
<text text-anchor="middle" x="605.5" y="-597.4" font-family="Sans-Serif" font-size="12.00" fill="#2d3436">Azure Sovereign Cloud</text>
</g>
<g id="clust4" class="cluster">
<title>cluster_On&#45;Premises Data Center</title>
<path fill="#fff4e6" stroke="#aeb6be" d="M771,-619C771,-619 1311,-619 1311,-619 1317,-619 1323,-625 1323,-631 1323,-631 1323,-810 1323,-810 1323,-816 1317,-822 1311,-822 1311,-822 771,-822 771,-822 765,-822 759,-816 759,-810 759,-810 759,-631 759,-631 759,-625 765,-619 771,-619"/>
<text text-anchor="middle" x="843" y="-808.4" font-family="Sans-Serif" font-size="12.00" fill="#2d3436">On&#45;Premises Data Center</text>
</g>
<!-- c1ec11530c634a8cbd9d70d9aef56bc0 -->
<g id="node1" class="node">
<title>c1ec11530c634a8cbd9d70d9aef56bc0</title>
<image xlink:href="/workspaces/sov-cloud-brain-trek/.venv/lib/python3.12/site-packages/resources/generic/device/mobile.png" width="101px" height="101px" preserveAspectRatio="xMinYMin meet" x="16" y="-984.5"/>
<text text-anchor="middle" x="66.5" y="-868.6" font-family="Sans-Serif" font-size="13.00" fill="#2d3436">Mobile</text>
<text text-anchor="middle" x="66.5" y="-854.6" font-family="Sans-Serif" font-size="13.00" fill="#2d3436">Users</text>
</g>
<!-- 900aaf5fec1d4a73b7f166e7c6ca1479 -->
<g id="node3" class="node">
<title>900aaf5fec1d4a73b7f166e7c6ca1479</title>
<image xlink:href="/workspaces/sov-cloud-brain-trek/.venv/lib/python3.12/site-packages/resources/onprem/network/internet.png" width="101px" height="101px" preserveAspectRatio="xMinYMin meet" x="190" y="-760.5"/>
<text text-anchor="middle" x="240.5" y="-645.1" font-family="Sans-Serif" font-size="13.00" fill="#2d3436">Internet</text>
</g>
<!-- c1ec11530c634a8cbd9d70d9aef56bc0&#45;&gt;900aaf5fec1d4a73b7f166e7c6ca1479 -->
<g id="edge1" class="edge">
<title>c1ec11530c634a8cbd9d70d9aef56bc0&#45;&gt;900aaf5fec1d4a73b7f166e7c6ca1479</title>
<path fill="none" stroke="#7b8894" d="M117.44,-934C168.95,-934 241,-934 241,-934 241,-934 241,-788.73 241,-788.73"/>
<polygon fill="#7b8894" stroke="#7b8894" points="244.5,-788.73 241,-778.73 237.5,-788.73 244.5,-788.73"/>
</g>
<!-- e9fbe9a48d424eed87d411b2fd92ed09 -->
<g id="node2" class="node">
<title>e9fbe9a48d424eed87d411b2fd92ed09</title>
<image xlink:href="/workspaces/sov-cloud-brain-trek/.venv/lib/python3.12/site-packages/resources/generic/device/tablet.png" width="101px" height="101px" preserveAspectRatio="xMinYMin meet" x="16" y="-760.5"/>
<text text-anchor="middle" x="66.5" y="-644.6" font-family="Sans-Serif" font-size="13.00" fill="#2d3436">Corporate</text>
<text text-anchor="middle" x="66.5" y="-630.6" font-family="Sans-Serif" font-size="13.00" fill="#2d3436">Devices</text>
</g>
<!-- e9fbe9a48d424eed87d411b2fd92ed09&#45;&gt;900aaf5fec1d4a73b7f166e7c6ca1479 -->
<g id="edge2" class="edge">
<title>e9fbe9a48d424eed87d411b2fd92ed09&#45;&gt;900aaf5fec1d4a73b7f166e7c6ca1479</title>
<path fill="none" stroke="#7b8894" d="M117.3,-710C117.3,-710 179.94,-710 179.94,-710"/>
<polygon fill="#7b8894" stroke="#7b8894" points="179.94,-713.5 189.94,-710 179.94,-706.5 179.94,-713.5"/>
</g>
<!-- 903671eccd5e46fca16a3535d4bc7fc4 -->
<g id="node4" class="node">
<title>903671eccd5e46fca16a3535d4bc7fc4</title>
<image xlink:href="/workspaces/sov-cloud-brain-trek/.venv/lib/python3.12/site-packages/resources/azure/identity/active-directory.png" width="101px" height="101px" preserveAspectRatio="xMinYMin meet" x="364" y="-760.5"/>
<text text-anchor="middle" x="414.5" y="-644.6" font-family="Sans-Serif" font-size="13.00" fill="#2d3436">Microsoft</text>
<text text-anchor="middle" x="414.5" y="-630.6" font-family="Sans-Serif" font-size="13.00" fill="#2d3436">Entra ID</text>
</g>
<!-- 900aaf5fec1d4a73b7f166e7c6ca1479&#45;&gt;903671eccd5e46fca16a3535d4bc7fc4 -->
<g id="edge3" class="edge">
<title>900aaf5fec1d4a73b7f166e7c6ca1479&#45;&gt;903671eccd5e46fca16a3535d4bc7fc4</title>
<path fill="none" stroke="#7b8894" d="M291.3,-710C291.3,-710 353.94,-710 353.94,-710"/>
<polygon fill="#7b8894" stroke="#7b8894" points="353.94,-713.5 363.94,-710 353.94,-706.5 353.94,-713.5"/>
</g>
<!-- d0d4a2e8231340d6b689743988e040cb -->
<g id="node5" class="node">
<title>d0d4a2e8231340d6b689743988e040cb</title>
<image xlink:href="/workspaces/sov-cloud-brain-trek/.venv/lib/python3.12/site-packages/resources/azure/identity/conditional-access.png" width="101px" height="101px" preserveAspectRatio="xMinYMin meet" x="538" y="-830.5"/>
<text text-anchor="middle" x="588.5" y="-714.6" font-family="Sans-Serif" font-size="13.00" fill="#2d3436">Conditional</text>
<text text-anchor="middle" x="588.5" y="-700.6" font-family="Sans-Serif" font-size="13.00" fill="#2d3436">Access</text>
</g>
<!-- 903671eccd5e46fca16a3535d4bc7fc4&#45;&gt;d0d4a2e8231340d6b689743988e040cb -->
<g id="edge4" class="edge">
<title>903671eccd5e46fca16a3535d4bc7fc4&#45;&gt;d0d4a2e8231340d6b689743988e040cb</title>
<path fill="none" stroke="#7b8894" d="M465.3,-745C465.3,-745 527.94,-745 527.94,-745"/>
<polygon fill="#7b8894" stroke="#7b8894" points="527.94,-748.5 537.94,-745 527.94,-741.5 527.94,-748.5"/>
</g>
<!-- ac1e71d95d584bde8ef594db48852aa5 -->
<g id="node7" class="node">
<title>ac1e71d95d584bde8ef594db48852aa5</title>
<image xlink:href="/workspaces/sov-cloud-brain-trek/.venv/lib/python3.12/site-packages/resources/azure/network/virtual-networks.png" width="101px" height="101px" preserveAspectRatio="xMinYMin meet" x="538" y="-563.5"/>
<text text-anchor="middle" x="588.5" y="-448.1" font-family="Sans-Serif" font-size="13.00" fill="#2d3436">Azure VNet</text>
</g>
<!-- d0d4a2e8231340d6b689743988e040cb&#45;&gt;ac1e71d95d584bde8ef594db48852aa5 -->
<g id="edge5" class="edge">
<title>d0d4a2e8231340d6b689743988e040cb&#45;&gt;ac1e71d95d584bde8ef594db48852aa5</title>
<path fill="none" stroke="#7b8894" d="M589,-696.98C589,-696.98 589,-591.62 589,-591.62"/>
<polygon fill="#7b8894" stroke="#7b8894" points="592.5,-591.62 589,-581.62 585.5,-591.62 592.5,-591.62"/>
</g>
<!-- 27369ab308c249dc9350473914e42c62 -->
<g id="node6" class="node">
<title>27369ab308c249dc9350473914e42c62</title>
<image xlink:href="/workspaces/sov-cloud-brain-trek/.venv/lib/python3.12/site-packages/resources/azure/identity/managed-identities.png" width="101px" height="101px" preserveAspectRatio="xMinYMin meet" x="364" y="-984.5"/>
<text text-anchor="middle" x="414.5" y="-868.6" font-family="Sans-Serif" font-size="13.00" fill="#2d3436">Managed</text>
<text text-anchor="middle" x="414.5" y="-854.6" font-family="Sans-Serif" font-size="13.00" fill="#2d3436">Identities</text>
</g>
<!-- 59556cec395844df823af8204e6f28f5 -->
<g id="node8" class="node">
<title>59556cec395844df823af8204e6f28f5</title>
<image xlink:href="/workspaces/sov-cloud-brain-trek/.venv/lib/python3.12/site-packages/resources/azure/security/key-vaults.png" width="101px" height="101px" preserveAspectRatio="xMinYMin meet" x="538" y="-368.5"/>
<text text-anchor="middle" x="588.5" y="-253.1" font-family="Sans-Serif" font-size="13.00" fill="#2d3436">Key Vault</text>
</g>
<!-- 27369ab308c249dc9350473914e42c62&#45;&gt;59556cec395844df823af8204e6f28f5 -->
<g id="edge9" class="edge">
<title>27369ab308c249dc9350473914e42c62&#45;&gt;59556cec395844df823af8204e6f28f5</title>
<path fill="none" stroke="#7b8894" d="M465.15,-857C484.5,-857 502,-857 502,-857 502,-857 502,-318 502,-318 502,-318 527.93,-318 527.93,-318"/>
<polygon fill="#7b8894" stroke="#7b8894" points="527.93,-321.5 537.93,-318 527.93,-314.5 527.93,-321.5"/>
</g>
<!-- 02b06ff9f1f743d5826f0f940aac5f29 -->
<g id="node9" class="node">
<title>02b06ff9f1f743d5826f0f940aac5f29</title>
<image xlink:href="/workspaces/sov-cloud-brain-trek/.venv/lib/python3.12/site-packages/resources/azure/compute/vm.png" width="101px" height="101px" preserveAspectRatio="xMinYMin meet" x="767" y="-550.5"/>
<text text-anchor="middle" x="817.5" y="-435.1" font-family="Sans-Serif" font-size="13.00" fill="#2d3436">Workloads</text>
</g>
<!-- ac1e71d95d584bde8ef594db48852aa5&#45;&gt;02b06ff9f1f743d5826f0f940aac5f29 -->
<g id="edge10" class="edge">
<title>ac1e71d95d584bde8ef594db48852aa5&#45;&gt;02b06ff9f1f743d5826f0f940aac5f29</title>
<path fill="none" stroke="#7b8894" d="M639.04,-506.5C639.04,-506.5 756.7,-506.5 756.7,-506.5"/>
<polygon fill="#7b8894" stroke="#7b8894" points="756.7,-510 766.7,-506.5 756.7,-503 756.7,-510"/>
</g>
<!-- 44780fbb6aaa4a14a3ca996ca22357b7 -->
<g id="node10" class="node">
<title>44780fbb6aaa4a14a3ca996ca22357b7</title>
<image xlink:href="/workspaces/sov-cloud-brain-trek/.venv/lib/python3.12/site-packages/resources/azure/network/virtual-network-gateways.png" width="101px" height="101px" preserveAspectRatio="xMinYMin meet" x="767" y="-214.5"/>
<text text-anchor="middle" x="817.5" y="-99.1" font-family="Sans-Serif" font-size="13.00" fill="#2d3436">VPN/ExpressRoute</text>
</g>
<!-- ac1e71d95d584bde8ef594db48852aa5&#45;&gt;44780fbb6aaa4a14a3ca996ca22357b7 -->
<g id="edge11" class="edge">
<title>ac1e71d95d584bde8ef594db48852aa5&#45;&gt;44780fbb6aaa4a14a3ca996ca22357b7</title>
<path fill="none" stroke="#7b8894" d="M589,-444.21C589,-424.87 589,-409 589,-409 589,-409 818,-409 818,-409 818,-409 818,-242.57 818,-242.57"/>
<polygon fill="#7b8894" stroke="#7b8894" points="821.5,-242.57 818,-232.57 814.5,-242.57 821.5,-242.57"/>
<text text-anchor="middle" x="703" y="-328.6" font-family="Sans-Serif" font-size="13.00" fill="#2d3436">S2S VPN</text>
</g>
<!-- 0270d119bc00455ea18bbb837cca7740 -->
<g id="node12" class="node">
<title>0270d119bc00455ea18bbb837cca7740</title>
<image xlink:href="/workspaces/sov-cloud-brain-trek/.venv/lib/python3.12/site-packages/resources/onprem/identity/dex.png" width="101px" height="98.2383px" preserveAspectRatio="xMinYMin meet" x="941" y="-759.119"/>
<text text-anchor="middle" x="991.5" y="-644.6" font-family="Sans-Serif" font-size="13.00" fill="#2d3436">Active Directory</text>
<text text-anchor="middle" x="991.5" y="-630.6" font-family="Sans-Serif" font-size="13.00" fill="#2d3436">Domain Services</text>
</g>
<!-- 44780fbb6aaa4a14a3ca996ca22357b7&#45;&gt;0270d119bc00455ea18bbb837cca7740 -->
<g id="edge12" class="edge">
<title>44780fbb6aaa4a14a3ca996ca22357b7&#45;&gt;0270d119bc00455ea18bbb837cca7740</title>
<path fill="none" stroke="#7b8894" d="M868.44,-164C919.95,-164 992,-164 992,-164 992,-164 992,-616.78 992,-616.78"/>
<polygon fill="#7b8894" stroke="#7b8894" points="988.5,-616.78 992,-626.78 995.5,-616.78 988.5,-616.78"/>
</g>
<!-- 78dc2fd2b79740cd8828ce4bcc963993 -->
<g id="node11" class="node">
<title>78dc2fd2b79740cd8828ce4bcc963993</title>
<image xlink:href="/workspaces/sov-cloud-brain-trek/.venv/lib/python3.12/site-packages/resources/generic/compute/rack.png" width="101px" height="101px" preserveAspectRatio="xMinYMin meet" x="1214" y="-760.5"/>
<text text-anchor="middle" x="1264.5" y="-644.6" font-family="Sans-Serif" font-size="13.00" fill="#2d3436">Entra Connect</text>
<text text-anchor="middle" x="1264.5" y="-630.6" font-family="Sans-Serif" font-size="13.00" fill="#2d3436">Sync Server</text>
</g>
<!-- 78dc2fd2b79740cd8828ce4bcc963993&#45;&gt;903671eccd5e46fca16a3535d4bc7fc4 -->
<g id="edge7" class="edge">
<title>78dc2fd2b79740cd8828ce4bcc963993&#45;&gt;903671eccd5e46fca16a3535d4bc7fc4</title>
<path fill="none" stroke="blue" d="M1265,-626.94C1265,-613.69 1265,-604.25 1265,-604.25 1265,-604.25 415,-604.25 415,-604.25 415,-604.25 415,-616.94 415,-616.94"/>
<polygon fill="blue" stroke="blue" points="411.5,-616.94 415,-626.94 418.5,-616.94 411.5,-616.94"/>
<text text-anchor="middle" x="817.5" y="-26.6" font-family="Sans-Serif" font-size="13.00" fill="#2d3436">Sync</text>
</g>
<!-- 0270d119bc00455ea18bbb837cca7740&#45;&gt;78dc2fd2b79740cd8828ce4bcc963993 -->
<g id="edge6" class="edge">
<title>0270d119bc00455ea18bbb837cca7740&#45;&gt;78dc2fd2b79740cd8828ce4bcc963993</title>
<path fill="none" stroke="#7b8894" stroke-dasharray="5,2" d="M1042.21,-710C1042.21,-710 1203.6,-710 1203.6,-710"/>
<polygon fill="#7b8894" stroke="#7b8894" points="1203.6,-713.5 1213.6,-710 1203.6,-706.5 1203.6,-713.5"/>
<text text-anchor="middle" x="1128" y="-727.6" font-family="Sans-Serif" font-size="13.00" fill="#2d3436">Password Hash</text>
<text text-anchor="middle" x="1128" y="-713.6" font-family="Sans-Serif" font-size="13.00" fill="#2d3436">Sync</text>
</g>
<!-- d25a5e359f3045f88b62f8c3a8f52c1e -->
<g id="node13" class="node">
<title>d25a5e359f3045f88b62f8c3a8f52c1e</title>
<image xlink:href="/workspaces/sov-cloud-brain-trek/.venv/lib/python3.12/site-packages/resources/generic/compute/rack.png" width="101px" height="101px" preserveAspectRatio="xMinYMin meet" x="767" y="-760.5"/>
<text text-anchor="middle" x="817.5" y="-644.6" font-family="Sans-Serif" font-size="13.00" fill="#2d3436">Domain</text>
<text text-anchor="middle" x="817.5" y="-630.6" font-family="Sans-Serif" font-size="13.00" fill="#2d3436">Controllers</text>
</g>
<!-- d25a5e359f3045f88b62f8c3a8f52c1e&#45;&gt;0270d119bc00455ea18bbb837cca7740 -->
<g id="edge8" class="edge">
<title>d25a5e359f3045f88b62f8c3a8f52c1e&#45;&gt;0270d119bc00455ea18bbb837cca7740</title>
<path fill="none" stroke="#7b8894" d="M868.3,-710C868.3,-710 930.94,-710 930.94,-710"/>
<polygon fill="#7b8894" stroke="#7b8894" points="930.94,-713.5 940.94,-710 930.94,-706.5 930.94,-713.5"/>
</g>
</g>
</svg>
