<?xml version="1.0" encoding="UTF-8" standalone="no"?>
<!DOCTYPE svg PUBLIC "-//W3C//DTD SVG 1.1//EN"
 "http://www.w3.org/Graphics/SVG/1.1/DTD/svg11.dtd">
<!-- Generated by graphviz version 2.43.0 (0)
 -->
<!-- Title: MLOps Pipeline for Edge RAG Pages: 1 -->
<svg width="1975pt" height="917pt"
 viewBox="0.00 0.00 1974.60 916.60" xmlns="http://www.w3.org/2000/svg" xmlns:xlink="http://www.w3.org/1999/xlink">
<g id="graph0" class="graph" transform="scale(1 1) rotate(0) translate(28.8 887.8)">
<title>MLOps Pipeline for Edge RAG</title>
<polygon fill="white" stroke="transparent" points="-28.8,28.8 -28.8,-887.8 1945.8,-887.8 1945.8,28.8 -28.8,28.8"/>
<text text-anchor="middle" x="958.5" y="-7.2" font-family="Sans-Serif" font-size="11.00" fill="#2d3436">MLOps Pipeline for Edge RAG</text>
<g id="clust1" class="cluster">
<title>cluster_Version Control</title>
<path fill="#f5f5f5" stroke="#aeb6be" d="M892,-28C892,-28 985,-28 985,-28 991,-28 997,-34 997,-40 997,-40 997,-421 997,-421 997,-427 991,-433 985,-433 985,-433 892,-433 892,-433 886,-433 880,-427 880,-421 880,-421 880,-40 880,-40 880,-34 886,-28 892,-28"/>
<text text-anchor="middle" x="933.5" y="-419.4" font-family="Sans-Serif" font-size="12.00" fill="#2d3436">Version Control</text>
</g>
<g id="clust2" class="cluster">
<title>cluster_CI/CD Pipeline</title>
<path fill="#e8f4fd" stroke="#aeb6be" d="M1044,-230C1044,-230 1441,-230 1441,-230 1447,-230 1453,-236 1453,-242 1453,-242 1453,-421 1453,-421 1453,-427 1447,-433 1441,-433 1441,-433 1044,-433 1044,-433 1038,-433 1032,-427 1032,-421 1032,-421 1032,-242 1032,-242 1032,-236 1038,-230 1044,-230"/>
<text text-anchor="middle" x="1081.5" y="-419.4" font-family="Sans-Serif" font-size="12.00" fill="#2d3436">CI/CD Pipeline</text>
</g>
<g id="clust3" class="cluster">
<title>cluster_Model Training</title>
<path fill="#fff4e6" stroke="#aeb6be" d="M1500,-520C1500,-520 1897,-520 1897,-520 1903,-520 1909,-526 1909,-532 1909,-532 1909,-711 1909,-711 1909,-717 1903,-723 1897,-723 1897,-723 1500,-723 1500,-723 1494,-723 1488,-717 1488,-711 1488,-711 1488,-532 1488,-532 1488,-526 1494,-520 1500,-520"/>
<text text-anchor="middle" x="1539.5" y="-709.4" font-family="Sans-Serif" font-size="12.00" fill="#2d3436">Model Training</text>
</g>
<g id="clust4" class="cluster">
<title>cluster_Edge Deployment (AKS&#45;HCI)</title>
<path fill="#d4e9d7" stroke="#aeb6be" d="M172,-405C172,-405 612,-405 612,-405 618,-405 624,-411 624,-417 624,-417 624,-835 624,-835 624,-841 618,-847 612,-847 612,-847 172,-847 172,-847 166,-847 160,-841 160,-835 160,-835 160,-417 160,-417 160,-411 166,-405 172,-405"/>
<text text-anchor="middle" x="252.5" y="-833.4" font-family="Sans-Serif" font-size="12.00" fill="#2d3436">Edge Deployment (AKS&#45;HCI)</text>
</g>
<g id="clust5" class="cluster">
<title>cluster_Canary Deployment</title>
<path fill="#ebf3e7" stroke="#aeb6be" d="M332,-413C332,-413 444,-413 444,-413 450,-413 456,-419 456,-425 456,-425 456,-806 456,-806 456,-812 450,-818 444,-818 444,-818 332,-818 332,-818 326,-818 320,-812 320,-806 320,-806 320,-425 320,-425 320,-419 326,-413 332,-413"/>
<text text-anchor="middle" x="388" y="-804.4" font-family="Sans-Serif" font-size="12.00" fill="#2d3436">Canary Deployment</text>
</g>
<g id="clust6" class="cluster">
<title>cluster_Model Serving</title>
<path fill="#ebf3e7" stroke="#aeb6be" d="M511,-413C511,-413 604,-413 604,-413 610,-413 616,-419 616,-425 616,-425 616,-806 616,-806 616,-812 610,-818 604,-818 604,-818 511,-818 511,-818 505,-818 499,-812 499,-806 499,-806 499,-425 499,-425 499,-419 505,-413 511,-413"/>
<text text-anchor="middle" x="549.5" y="-804.4" font-family="Sans-Serif" font-size="12.00" fill="#2d3436">Model Serving</text>
</g>
<g id="clust7" class="cluster">
<title>cluster_Monitoring &amp; Feedback</title>
<path fill="#f3e8ff" stroke="#aeb6be" d="M693,-441C693,-441 985,-441 985,-441 991,-441 997,-447 997,-453 997,-453 997,-806 997,-806 997,-812 991,-818 985,-818 985,-818 693,-818 693,-818 687,-818 681,-812 681,-806 681,-806 681,-453 681,-453 681,-447 687,-441 693,-441"/>
<text text-anchor="middle" x="758" y="-804.4" font-family="Sans-Serif" font-size="12.00" fill="#2d3436">Monitoring &amp; Feedback</text>
</g>
<g id="clust8" class="cluster">
<title>cluster_Data Pipeline</title>
<path fill="#ffe6e6" stroke="#aeb6be" d="M20,-194C20,-194 434,-194 434,-194 440,-194 446,-200 446,-206 446,-206 446,-385 446,-385 446,-391 440,-397 434,-397 434,-397 20,-397 20,-397 14,-397 8,-391 8,-385 8,-385 8,-206 8,-206 8,-200 14,-194 20,-194"/>
<text text-anchor="middle" x="55.5" y="-383.4" font-family="Sans-Serif" font-size="12.00" fill="#2d3436">Data Pipeline</text>
</g>
<!-- bcff398e185a47d88f96f7bb6b5ab3dc -->
<g id="node1" class="node">
<title>bcff398e185a47d88f96f7bb6b5ab3dc</title>
<image xlink:href="/workspaces/sov-cloud-brain-trek/.venv/lib/python3.12/site-packages/resources/onprem/vcs/git.png" width="101px" height="101px" preserveAspectRatio="xMinYMin meet" x="888" y="-371.5"/>
<text text-anchor="middle" x="938.5" y="-255.6" font-family="Sans-Serif" font-size="13.00" fill="#2d3436">Model Code</text>
<text text-anchor="middle" x="938.5" y="-241.6" font-family="Sans-Serif" font-size="13.00" fill="#2d3436">&amp; Config</text>
</g>
<!-- eb6d440d2a11449d823c4a0f5f0109b6 -->
<g id="node3" class="node">
<title>eb6d440d2a11449d823c4a0f5f0109b6</title>
<image xlink:href="/workspaces/sov-cloud-brain-trek/.venv/lib/python3.12/site-packages/resources/azure/devops/pipelines.png" width="101px" height="101px" preserveAspectRatio="xMinYMin meet" x="1040" y="-371.5"/>
<text text-anchor="middle" x="1090.5" y="-255.6" font-family="Sans-Serif" font-size="13.00" fill="#2d3436">Build</text>
<text text-anchor="middle" x="1090.5" y="-241.6" font-family="Sans-Serif" font-size="13.00" fill="#2d3436">Pipeline</text>
</g>
<!-- bcff398e185a47d88f96f7bb6b5ab3dc&#45;&gt;eb6d440d2a11449d823c4a0f5f0109b6 -->
<g id="edge1" class="edge">
<title>bcff398e185a47d88f96f7bb6b5ab3dc&#45;&gt;eb6d440d2a11449d823c4a0f5f0109b6</title>
<path fill="none" stroke="#7b8894" d="M989.03,-321C1002.02,-321 1016.16,-321 1029.63,-321"/>
<polygon fill="#7b8894" stroke="#7b8894" points="1029.76,-324.5 1039.76,-321 1029.76,-317.5 1029.76,-324.5"/>
</g>
<!-- d86afaf745c7498182146d0ba65f25c1 -->
<g id="node2" class="node">
<title>d86afaf745c7498182146d0ba65f25c1</title>
<image xlink:href="/workspaces/sov-cloud-brain-trek/.venv/lib/python3.12/site-packages/resources/generic/storage/storage.png" width="101px" height="101px" preserveAspectRatio="xMinYMin meet" x="888" y="-169.5"/>
<text text-anchor="middle" x="938.5" y="-53.6" font-family="Sans-Serif" font-size="13.00" fill="#2d3436">Data Version</text>
<text text-anchor="middle" x="938.5" y="-39.6" font-family="Sans-Serif" font-size="13.00" fill="#2d3436">(DVC)</text>
</g>
<!-- d86afaf745c7498182146d0ba65f25c1&#45;&gt;eb6d440d2a11449d823c4a0f5f0109b6 -->
<g id="edge2" class="edge">
<title>d86afaf745c7498182146d0ba65f25c1&#45;&gt;eb6d440d2a11449d823c4a0f5f0109b6</title>
<path fill="none" stroke="#7b8894" d="M989.03,-185.7C1003.36,-204.99 1019.09,-226.18 1033.76,-245.94"/>
<polygon fill="#7b8894" stroke="#7b8894" points="1030.99,-248.08 1039.76,-254.02 1036.61,-243.91 1030.99,-248.08"/>
</g>
<!-- c03c31864189482385db6e0d3591bf31 -->
<g id="node4" class="node">
<title>c03c31864189482385db6e0d3591bf31</title>
<image xlink:href="/workspaces/sov-cloud-brain-trek/.venv/lib/python3.12/site-packages/resources/onprem/ci/gitlabci.png" width="101px" height="112.836px" preserveAspectRatio="xMinYMin meet" x="1192" y="-377.418"/>
<text text-anchor="middle" x="1242.5" y="-255.6" font-family="Sans-Serif" font-size="13.00" fill="#2d3436">Model</text>
<text text-anchor="middle" x="1242.5" y="-241.6" font-family="Sans-Serif" font-size="13.00" fill="#2d3436">Validation</text>
</g>
<!-- eb6d440d2a11449d823c4a0f5f0109b6&#45;&gt;c03c31864189482385db6e0d3591bf31 -->
<g id="edge3" class="edge">
<title>eb6d440d2a11449d823c4a0f5f0109b6&#45;&gt;c03c31864189482385db6e0d3591bf31</title>
<path fill="none" stroke="#7b8894" d="M1141.03,-321C1154.02,-321 1168.16,-321 1181.63,-321"/>
<polygon fill="#7b8894" stroke="#7b8894" points="1181.76,-324.5 1191.76,-321 1181.76,-317.5 1181.76,-324.5"/>
</g>
<!-- 13111af9377a4d5595ac605918ec7438 -->
<g id="node5" class="node">
<title>13111af9377a4d5595ac605918ec7438</title>
<image xlink:href="/workspaces/sov-cloud-brain-trek/.venv/lib/python3.12/site-packages/resources/onprem/container/docker.png" width="101px" height="101px" preserveAspectRatio="xMinYMin meet" x="1344" y="-371.5"/>
<text text-anchor="middle" x="1394.5" y="-255.6" font-family="Sans-Serif" font-size="13.00" fill="#2d3436">Model</text>
<text text-anchor="middle" x="1394.5" y="-241.6" font-family="Sans-Serif" font-size="13.00" fill="#2d3436">Registry</text>
</g>
<!-- c03c31864189482385db6e0d3591bf31&#45;&gt;13111af9377a4d5595ac605918ec7438 -->
<g id="edge4" class="edge">
<title>c03c31864189482385db6e0d3591bf31&#45;&gt;13111af9377a4d5595ac605918ec7438</title>
<path fill="none" stroke="#7b8894" d="M1293.03,-321C1306.02,-321 1320.16,-321 1333.63,-321"/>
<polygon fill="#7b8894" stroke="#7b8894" points="1333.76,-324.5 1343.76,-321 1333.76,-317.5 1333.76,-324.5"/>
</g>
<!-- aef4e08590a248649f6c2bc0ef2561f4 -->
<g id="node6" class="node">
<title>aef4e08590a248649f6c2bc0ef2561f4</title>
<image xlink:href="/workspaces/sov-cloud-brain-trek/.venv/lib/python3.12/site-packages/resources/azure/ml/machine-learning-service-workspaces.png" width="101px" height="101px" preserveAspectRatio="xMinYMin meet" x="1496" y="-661.5"/>
<text text-anchor="middle" x="1546.5" y="-545.6" font-family="Sans-Serif" font-size="13.00" fill="#2d3436">Fine&#45;Tuning</text>
<text text-anchor="middle" x="1546.5" y="-531.6" font-family="Sans-Serif" font-size="13.00" fill="#2d3436">Phi&#45;3 / Mistral</text>
</g>
<!-- 13111af9377a4d5595ac605918ec7438&#45;&gt;aef4e08590a248649f6c2bc0ef2561f4 -->
<g id="edge5" class="edge">
<title>13111af9377a4d5595ac605918ec7438&#45;&gt;aef4e08590a248649f6c2bc0ef2561f4</title>
<path fill="none" stroke="#7b8894" d="M1438.48,-404.1C1457,-439.9 1478.72,-481.89 1497.74,-518.66"/>
<polygon fill="#7b8894" stroke="#7b8894" points="1494.81,-520.61 1502.51,-527.89 1501.02,-517.4 1494.81,-520.61"/>
</g>
<!-- afcbab5309304222b07f6f40b7a23c62 -->
<g id="node7" class="node">
<title>afcbab5309304222b07f6f40b7a23c62</title>
<image xlink:href="/workspaces/sov-cloud-brain-trek/.venv/lib/python3.12/site-packages/resources/azure/ml/machine-learning-service-workspaces.png" width="101px" height="101px" preserveAspectRatio="xMinYMin meet" x="1648" y="-661.5"/>
<text text-anchor="middle" x="1698.5" y="-545.6" font-family="Sans-Serif" font-size="13.00" fill="#2d3436">Evaluation</text>
<text text-anchor="middle" x="1698.5" y="-531.6" font-family="Sans-Serif" font-size="13.00" fill="#2d3436">&amp; Benchmarks</text>
</g>
<!-- aef4e08590a248649f6c2bc0ef2561f4&#45;&gt;afcbab5309304222b07f6f40b7a23c62 -->
<g id="edge6" class="edge">
<title>aef4e08590a248649f6c2bc0ef2561f4&#45;&gt;afcbab5309304222b07f6f40b7a23c62</title>
<path fill="none" stroke="#7b8894" d="M1597.03,-611C1610.02,-611 1624.16,-611 1637.63,-611"/>
<polygon fill="#7b8894" stroke="#7b8894" points="1637.76,-614.5 1647.76,-611 1637.76,-607.5 1637.76,-614.5"/>
</g>
<!-- 5b36f20ba6cd4b84a5450dc4aed815b6 -->
<g id="node8" class="node">
<title>5b36f20ba6cd4b84a5450dc4aed815b6</title>
<image xlink:href="/workspaces/sov-cloud-brain-trek/.venv/lib/python3.12/site-packages/resources/azure/storage/blob-storage.png" width="101px" height="101px" preserveAspectRatio="xMinYMin meet" x="1800" y="-661.5"/>
<text text-anchor="middle" x="1850.5" y="-545.6" font-family="Sans-Serif" font-size="13.00" fill="#2d3436">Model</text>
<text text-anchor="middle" x="1850.5" y="-531.6" font-family="Sans-Serif" font-size="13.00" fill="#2d3436">Artifacts</text>
</g>
<!-- afcbab5309304222b07f6f40b7a23c62&#45;&gt;5b36f20ba6cd4b84a5450dc4aed815b6 -->
<g id="edge7" class="edge">
<title>afcbab5309304222b07f6f40b7a23c62&#45;&gt;5b36f20ba6cd4b84a5450dc4aed815b6</title>
<path fill="none" stroke="#7b8894" d="M1749.03,-611C1762.02,-611 1776.16,-611 1789.63,-611"/>
<polygon fill="#7b8894" stroke="#7b8894" points="1789.76,-614.5 1799.76,-611 1789.76,-607.5 1789.76,-614.5"/>
</g>
<!-- ca506bb43030446a882c64ab5d39af38 -->
<g id="node9" class="node">
<title>ca506bb43030446a882c64ab5d39af38</title>
<image xlink:href="/workspaces/sov-cloud-brain-trek/.venv/lib/python3.12/site-packages/resources/azure/compute/kubernetes-services.png" width="101px" height="101px" preserveAspectRatio="xMinYMin meet" x="168" y="-756.5"/>
<text text-anchor="middle" x="218.5" y="-641.1" font-family="Sans-Serif" font-size="13.00" fill="#2d3436">Kubernetes</text>
</g>
<!-- 5b36f20ba6cd4b84a5450dc4aed815b6&#45;&gt;ca506bb43030446a882c64ab5d39af38 -->
<g id="edge8" class="edge">
<title>5b36f20ba6cd4b84a5450dc4aed815b6&#45;&gt;ca506bb43030446a882c64ab5d39af38</title>
<path fill="none" stroke="green" d="M1832.05,-694.16C1812.49,-761.42 1773.33,-845 1699.5,-845 386.5,-845 386.5,-845 386.5,-845 341.45,-845 302.09,-814.75 272.91,-782.47"/>
<polygon fill="green" stroke="green" points="275.31,-779.9 266.09,-774.69 270.05,-784.51 275.31,-779.9"/>
<text text-anchor="middle" x="1090.5" y="-848.6" font-family="Sans-Serif" font-size="13.00" fill="#2d3436">Deploy</text>
</g>
<!-- 9721fba15e5f40d5b2b41c928abac625 -->
<g id="node10" class="node">
<title>9721fba15e5f40d5b2b41c928abac625</title>
<image xlink:href="/workspaces/sov-cloud-brain-trek/.venv/lib/python3.12/site-packages/resources/onprem/container/docker.png" width="101px" height="101px" preserveAspectRatio="xMinYMin meet" x="337" y="-554.5"/>
<text text-anchor="middle" x="387.5" y="-438.6" font-family="Sans-Serif" font-size="13.00" fill="#2d3436">Production</text>
<text text-anchor="middle" x="387.5" y="-424.6" font-family="Sans-Serif" font-size="13.00" fill="#2d3436">(90%)</text>
</g>
<!-- ca506bb43030446a882c64ab5d39af38&#45;&gt;9721fba15e5f40d5b2b41c928abac625 -->
<g id="edge9" class="edge">
<title>ca506bb43030446a882c64ab5d39af38&#45;&gt;9721fba15e5f40d5b2b41c928abac625</title>
<path fill="none" stroke="#7b8894" d="M269.15,-645.94C288.33,-622.74 310.37,-596.08 330.14,-572.17"/>
<polygon fill="#7b8894" stroke="#7b8894" points="333.08,-574.11 336.75,-564.18 327.68,-569.65 333.08,-574.11"/>
</g>
<!-- c73502759412497db767bc9ef1febc33 -->
<g id="node11" class="node">
<title>c73502759412497db767bc9ef1febc33</title>
<image xlink:href="/workspaces/sov-cloud-brain-trek/.venv/lib/python3.12/site-packages/resources/onprem/container/docker.png" width="101px" height="101px" preserveAspectRatio="xMinYMin meet" x="337" y="-756.5"/>
<text text-anchor="middle" x="387.5" y="-640.6" font-family="Sans-Serif" font-size="13.00" fill="#2d3436">Canary</text>
<text text-anchor="middle" x="387.5" y="-626.6" font-family="Sans-Serif" font-size="13.00" fill="#2d3436">(10%)</text>
</g>
<!-- ca506bb43030446a882c64ab5d39af38&#45;&gt;c73502759412497db767bc9ef1febc33 -->
<g id="edge10" class="edge">
<title>ca506bb43030446a882c64ab5d39af38&#45;&gt;c73502759412497db767bc9ef1febc33</title>
<path fill="none" stroke="#7b8894" d="M269.15,-706C287.16,-706 307.7,-706 326.51,-706"/>
<polygon fill="#7b8894" stroke="#7b8894" points="326.75,-709.5 336.75,-706 326.75,-702.5 326.75,-709.5"/>
</g>
<!-- 012af725a8a64458b04ee50cb20d56e3 -->
<g id="node12" class="node">
<title>012af725a8a64458b04ee50cb20d56e3</title>
<image xlink:href="/workspaces/sov-cloud-brain-trek/.venv/lib/python3.12/site-packages/resources/onprem/container/docker.png" width="101px" height="101px" preserveAspectRatio="xMinYMin meet" x="507" y="-756.5"/>
<text text-anchor="middle" x="557.5" y="-640.6" font-family="Sans-Serif" font-size="13.00" fill="#2d3436">LLM</text>
<text text-anchor="middle" x="557.5" y="-626.6" font-family="Sans-Serif" font-size="13.00" fill="#2d3436">Service</text>
</g>
<!-- 9721fba15e5f40d5b2b41c928abac625&#45;&gt;012af725a8a64458b04ee50cb20d56e3 -->
<g id="edge11" class="edge">
<title>9721fba15e5f40d5b2b41c928abac625&#45;&gt;012af725a8a64458b04ee50cb20d56e3</title>
<path fill="none" stroke="#7b8894" d="M438.22,-563.79C457.78,-587.3 480.33,-614.41 500.46,-638.62"/>
<polygon fill="#7b8894" stroke="#7b8894" points="497.82,-640.92 506.9,-646.37 503.2,-636.44 497.82,-640.92"/>
</g>
<!-- 7522fb635aec49019c7d4c021fe474dd -->
<g id="node13" class="node">
<title>7522fb635aec49019c7d4c021fe474dd</title>
<image xlink:href="/workspaces/sov-cloud-brain-trek/.venv/lib/python3.12/site-packages/resources/onprem/container/docker.png" width="101px" height="101px" preserveAspectRatio="xMinYMin meet" x="507" y="-554.5"/>
<text text-anchor="middle" x="557.5" y="-438.6" font-family="Sans-Serif" font-size="13.00" fill="#2d3436">Embedding</text>
<text text-anchor="middle" x="557.5" y="-424.6" font-family="Sans-Serif" font-size="13.00" fill="#2d3436">Service</text>
</g>
<!-- 9721fba15e5f40d5b2b41c928abac625&#45;&gt;7522fb635aec49019c7d4c021fe474dd -->
<g id="edge13" class="edge">
<title>9721fba15e5f40d5b2b41c928abac625&#45;&gt;7522fb635aec49019c7d4c021fe474dd</title>
<path fill="none" stroke="#7b8894" d="M438.45,-504C456.73,-504 477.61,-504 496.67,-504"/>
<polygon fill="#7b8894" stroke="#7b8894" points="496.74,-507.5 506.74,-504 496.74,-500.5 496.74,-507.5"/>
</g>
<!-- c73502759412497db767bc9ef1febc33&#45;&gt;012af725a8a64458b04ee50cb20d56e3 -->
<g id="edge12" class="edge">
<title>c73502759412497db767bc9ef1febc33&#45;&gt;012af725a8a64458b04ee50cb20d56e3</title>
<path fill="none" stroke="#7b8894" d="M438.45,-706C456.73,-706 477.61,-706 496.67,-706"/>
<polygon fill="#7b8894" stroke="#7b8894" points="496.74,-709.5 506.74,-706 496.74,-702.5 496.74,-709.5"/>
</g>
<!-- 396a24b5b76b49b79f61c23413921dcb -->
<g id="node14" class="node">
<title>396a24b5b76b49b79f61c23413921dcb</title>
<image xlink:href="/workspaces/sov-cloud-brain-trek/.venv/lib/python3.12/site-packages/resources/onprem/monitoring/prometheus.png" width="101px" height="101px" preserveAspectRatio="xMinYMin meet" x="689" y="-568.5"/>
<text text-anchor="middle" x="739.5" y="-453.1" font-family="Sans-Serif" font-size="13.00" fill="#2d3436">Metrics</text>
</g>
<!-- 012af725a8a64458b04ee50cb20d56e3&#45;&gt;396a24b5b76b49b79f61c23413921dcb -->
<g id="edge14" class="edge">
<title>012af725a8a64458b04ee50cb20d56e3&#45;&gt;396a24b5b76b49b79f61c23413921dcb</title>
<path fill="none" stroke="#7b8894" stroke-dasharray="1,5" d="M608.16,-654.13C630.98,-630.29 658.17,-601.9 681.79,-577.23"/>
<polygon fill="#7b8894" stroke="#7b8894" points="684.61,-579.34 689,-569.7 679.56,-574.5 684.61,-579.34"/>
</g>
<!-- 5a75fa569c6d44438ea38a99b3da13dd -->
<g id="node16" class="node">
<title>5a75fa569c6d44438ea38a99b3da13dd</title>
<image xlink:href="/workspaces/sov-cloud-brain-trek/.venv/lib/python3.12/site-packages/resources/generic/storage/storage.png" width="101px" height="101px" preserveAspectRatio="xMinYMin meet" x="689" y="-756.5"/>
<text text-anchor="middle" x="739.5" y="-640.6" font-family="Sans-Serif" font-size="13.00" fill="#2d3436">User</text>
<text text-anchor="middle" x="739.5" y="-626.6" font-family="Sans-Serif" font-size="13.00" fill="#2d3436">Feedback</text>
</g>
<!-- 012af725a8a64458b04ee50cb20d56e3&#45;&gt;5a75fa569c6d44438ea38a99b3da13dd -->
<g id="edge17" class="edge">
<title>012af725a8a64458b04ee50cb20d56e3&#45;&gt;5a75fa569c6d44438ea38a99b3da13dd</title>
<path fill="none" stroke="#7b8894" stroke-dasharray="5,2" d="M608.16,-706C630,-706 655.83,-706 678.72,-706"/>
<polygon fill="#7b8894" stroke="#7b8894" points="679,-709.5 689,-706 679,-702.5 679,-709.5"/>
<text text-anchor="middle" x="648.5" y="-709.6" font-family="Sans-Serif" font-size="13.00" fill="#2d3436">Logs</text>
</g>
<!-- 7522fb635aec49019c7d4c021fe474dd&#45;&gt;396a24b5b76b49b79f61c23413921dcb -->
<g id="edge15" class="edge">
<title>7522fb635aec49019c7d4c021fe474dd&#45;&gt;396a24b5b76b49b79f61c23413921dcb</title>
<path fill="none" stroke="#7b8894" stroke-dasharray="1,5" d="M608.16,-507.86C630.1,-509.57 656.07,-511.59 679.03,-513.37"/>
<polygon fill="#7b8894" stroke="#7b8894" points="678.76,-516.86 689,-514.15 679.3,-509.88 678.76,-516.86"/>
</g>
<!-- e16ce622424843c2989db23a476b9977 -->
<g id="node15" class="node">
<title>e16ce622424843c2989db23a476b9977</title>
<image xlink:href="/workspaces/sov-cloud-brain-trek/.venv/lib/python3.12/site-packages/resources/onprem/monitoring/grafana.png" width="101px" height="104.945px" preserveAspectRatio="xMinYMin meet" x="888" y="-570.473"/>
<text text-anchor="middle" x="938.5" y="-453.1" font-family="Sans-Serif" font-size="13.00" fill="#2d3436">Dashboards</text>
</g>
<!-- 396a24b5b76b49b79f61c23413921dcb&#45;&gt;e16ce622424843c2989db23a476b9977 -->
<g id="edge16" class="edge">
<title>396a24b5b76b49b79f61c23413921dcb&#45;&gt;e16ce622424843c2989db23a476b9977</title>
<path fill="none" stroke="#7b8894" d="M790.21,-518C816.81,-518 849.76,-518 877.74,-518"/>
<polygon fill="#7b8894" stroke="#7b8894" points="877.8,-521.5 887.8,-518 877.8,-514.5 877.8,-521.5"/>
</g>
<!-- 5a75fa569c6d44438ea38a99b3da13dd&#45;&gt;d86afaf745c7498182146d0ba65f25c1 -->
<g id="edge18" class="edge">
<title>5a75fa569c6d44438ea38a99b3da13dd&#45;&gt;d86afaf745c7498182146d0ba65f25c1</title>
<path fill="none" stroke="orange" stroke-dasharray="5,2" d="M783.05,-622.86C785.55,-616.88 787.9,-610.89 790,-605 849.04,-439.49 815.87,-383.6 880,-220 881.14,-217.09 882.36,-214.16 883.63,-211.22"/>
<polygon fill="orange" stroke="orange" points="886.94,-212.41 887.88,-201.85 880.56,-209.51 886.94,-212.41"/>
<text text-anchor="middle" x="839" y="-520.6" font-family="Sans-Serif" font-size="13.00" fill="#2d3436">Retrain</text>
</g>
<!-- e7d29c8b18814c54baeb00d413d80db1 -->
<g id="node17" class="node">
<title>e7d29c8b18814c54baeb00d413d80db1</title>
<image xlink:href="/workspaces/sov-cloud-brain-trek/.venv/lib/python3.12/site-packages/resources/generic/storage/storage.png" width="101px" height="101px" preserveAspectRatio="xMinYMin meet" x="16" y="-335.5"/>
<text text-anchor="middle" x="66.5" y="-219.6" font-family="Sans-Serif" font-size="13.00" fill="#2d3436">New</text>
<text text-anchor="middle" x="66.5" y="-205.6" font-family="Sans-Serif" font-size="13.00" fill="#2d3436">Documents</text>
</g>
<!-- 74efedd8f80b4781afca96dbab1f08ba -->
<g id="node18" class="node">
<title>74efedd8f80b4781afca96dbab1f08ba</title>
<image xlink:href="/workspaces/sov-cloud-brain-trek/.venv/lib/python3.12/site-packages/resources/onprem/container/docker.png" width="101px" height="101px" preserveAspectRatio="xMinYMin meet" x="168" y="-343.5"/>
<text text-anchor="middle" x="218.5" y="-228.1" font-family="Sans-Serif" font-size="13.00" fill="#2d3436">Preprocessing</text>
</g>
<!-- e7d29c8b18814c54baeb00d413d80db1&#45;&gt;74efedd8f80b4781afca96dbab1f08ba -->
<g id="edge19" class="edge">
<title>e7d29c8b18814c54baeb00d413d80db1&#45;&gt;74efedd8f80b4781afca96dbab1f08ba</title>
<path fill="none" stroke="#7b8894" d="M117.03,-287.64C130.02,-288.33 144.16,-289.09 157.63,-289.81"/>
<polygon fill="#7b8894" stroke="#7b8894" points="157.59,-293.31 167.76,-290.35 157.97,-286.32 157.59,-293.31"/>
</g>
<!-- 09f7f7d8af2849218a9d65dfe834dd7b -->
<g id="node19" class="node">
<title>09f7f7d8af2849218a9d65dfe834dd7b</title>
<image xlink:href="/workspaces/sov-cloud-brain-trek/.venv/lib/python3.12/site-packages/resources/onprem/container/docker.png" width="101px" height="101px" preserveAspectRatio="xMinYMin meet" x="337" y="-348.5"/>
<text text-anchor="middle" x="387.5" y="-233.1" font-family="Sans-Serif" font-size="13.00" fill="#2d3436">Vectorization</text>
</g>
<!-- 74efedd8f80b4781afca96dbab1f08ba&#45;&gt;09f7f7d8af2849218a9d65dfe834dd7b -->
<g id="edge20" class="edge">
<title>74efedd8f80b4781afca96dbab1f08ba&#45;&gt;09f7f7d8af2849218a9d65dfe834dd7b</title>
<path fill="none" stroke="#7b8894" d="M269.15,-294.49C287.16,-295.03 307.7,-295.64 326.51,-296.2"/>
<polygon fill="#7b8894" stroke="#7b8894" points="326.65,-299.71 336.75,-296.51 326.86,-292.71 326.65,-299.71"/>
</g>
<!-- 09f7f7d8af2849218a9d65dfe834dd7b&#45;&gt;7522fb635aec49019c7d4c021fe474dd -->
<g id="edge21" class="edge">
<title>09f7f7d8af2849218a9d65dfe834dd7b&#45;&gt;7522fb635aec49019c7d4c021fe474dd</title>
<path fill="none" stroke="#7b8894" d="M438.22,-358.97C457.78,-382.95 480.33,-410.6 500.46,-435.28"/>
<polygon fill="#7b8894" stroke="#7b8894" points="497.87,-437.65 506.9,-443.19 503.3,-433.22 497.87,-437.65"/>
</g>
</g>
</svg>
