<?xml version="1.0" encoding="UTF-8" standalone="no"?>
<!DOCTYPE svg PUBLIC "-//W3C//DTD SVG 1.1//EN"
 "http://www.w3.org/Graphics/SVG/1.1/DTD/svg11.dtd">
<!-- Generated by graphviz version 2.43.0 (0)
 -->
<!-- Title: Multi&#45;Region Sovereign Deployment Pages: 1 -->
<svg width="1636pt" height="1286pt"
 viewBox="0.00 0.00 1636.00 1286.00" xmlns="http://www.w3.org/2000/svg" xmlns:xlink="http://www.w3.org/1999/xlink">
<g id="graph0" class="graph" transform="scale(1 1) rotate(0) translate(36 1250)">
<title>Multi&#45;Region Sovereign Deployment</title>
<polygon fill="white" stroke="transparent" points="-36,36 -36,-1250 1600,-1250 1600,36 -36,36"/>
<text text-anchor="middle" x="782" y="-7.8" font-family="Sans-Serif" font-size="14.00" fill="#2d3436">Multi&#45;Region Sovereign Deployment</text>
<g id="clust1" class="cluster">
<title>cluster_Region 1: EU West (Primary)</title>
<path fill="#e8f4fd" stroke="#aeb6be" d="M20,-256.5C20,-256.5 766,-256.5 766,-256.5 772,-256.5 778,-262.5 778,-268.5 778,-268.5 778,-752 778,-752 778,-758 772,-764 766,-764 766,-764 20,-764 20,-764 14,-764 8,-758 8,-752 8,-752 8,-268.5 8,-268.5 8,-262.5 14,-256.5 20,-256.5"/>
<text text-anchor="middle" x="100.5" y="-750.4" font-family="Sans-Serif" font-size="12.00" fill="#2d3436">Region 1: EU West (Primary)</text>
</g>
<g id="clust2" class="cluster">
<title>cluster_Hub VNet EU</title>
<path fill="#ebf3e7" stroke="#aeb6be" d="M28,-546.5C28,-546.5 122,-546.5 122,-546.5 128,-546.5 134,-552.5 134,-558.5 134,-558.5 134,-708.5 134,-708.5 134,-714.5 128,-720.5 122,-720.5 122,-720.5 28,-720.5 28,-720.5 22,-720.5 16,-714.5 16,-708.5 16,-708.5 16,-558.5 16,-558.5 16,-552.5 22,-546.5 28,-546.5"/>
<text text-anchor="middle" x="63" y="-706.9" font-family="Sans-Serif" font-size="12.00" fill="#2d3436">Hub VNet EU</text>
</g>
<g id="clust3" class="cluster">
<title>cluster_Workload VNet EU</title>
<path fill="#ebf3e7" stroke="#aeb6be" d="M28,-264.5C28,-264.5 281,-264.5 281,-264.5 287,-264.5 293,-270.5 293,-276.5 293,-276.5 293,-426.5 293,-426.5 293,-432.5 287,-438.5 281,-438.5 281,-438.5 28,-438.5 28,-438.5 22,-438.5 16,-432.5 16,-426.5 16,-426.5 16,-276.5 16,-276.5 16,-270.5 22,-264.5 28,-264.5"/>
<text text-anchor="middle" x="79" y="-424.9" font-family="Sans-Serif" font-size="12.00" fill="#2d3436">Workload VNet EU</text>
</g>
<g id="clust4" class="cluster">
<title>cluster_Data Layer EU</title>
<path fill="#ebf3e7" stroke="#aeb6be" d="M187,-532C187,-532 758,-532 758,-532 764,-532 770,-538 770,-544 770,-544 770,-723 770,-723 770,-729 764,-735 758,-735 758,-735 187,-735 187,-735 181,-735 175,-729 175,-723 175,-723 175,-544 175,-544 175,-538 181,-532 187,-532"/>
<text text-anchor="middle" x="226.5" y="-721.4" font-family="Sans-Serif" font-size="12.00" fill="#2d3436">Data Layer EU</text>
</g>
<g id="clust5" class="cluster">
<title>cluster_Region 2: EU North (Secondary)</title>
<path fill="#fff4e6" stroke="#aeb6be" d="M798,-31C798,-31 1544,-31 1544,-31 1550,-31 1556,-37 1556,-43 1556,-43 1556,-470 1556,-470 1556,-476 1550,-482 1544,-482 1544,-482 798,-482 798,-482 792,-482 786,-476 786,-470 786,-470 786,-43 786,-43 786,-37 792,-31 798,-31"/>
<text text-anchor="middle" x="889" y="-468.4" font-family="Sans-Serif" font-size="12.00" fill="#2d3436">Region 2: EU North (Secondary)</text>
</g>
<g id="clust6" class="cluster">
<title>cluster_Hub VNet EU North</title>
<path fill="#ebf3e7" stroke="#aeb6be" d="M1429,-264.5C1429,-264.5 1536,-264.5 1536,-264.5 1542,-264.5 1548,-270.5 1548,-276.5 1548,-276.5 1548,-426.5 1548,-426.5 1548,-432.5 1542,-438.5 1536,-438.5 1536,-438.5 1429,-438.5 1429,-438.5 1423,-438.5 1417,-432.5 1417,-426.5 1417,-426.5 1417,-276.5 1417,-276.5 1417,-270.5 1423,-264.5 1429,-264.5"/>
<text text-anchor="middle" x="1482.5" y="-424.9" font-family="Sans-Serif" font-size="12.00" fill="#2d3436">Hub VNet EU North</text>
</g>
<g id="clust7" class="cluster">
<title>cluster_Workload VNet EU North</title>
<path fill="#ebf3e7" stroke="#aeb6be" d="M1283,-39C1283,-39 1536,-39 1536,-39 1542,-39 1548,-45 1548,-51 1548,-51 1548,-201 1548,-201 1548,-207 1542,-213 1536,-213 1536,-213 1283,-213 1283,-213 1277,-213 1271,-207 1271,-201 1271,-201 1271,-51 1271,-51 1271,-45 1277,-39 1283,-39"/>
<text text-anchor="middle" x="1353" y="-199.4" font-family="Sans-Serif" font-size="12.00" fill="#2d3436">Workload VNet EU North</text>
</g>
<g id="clust8" class="cluster">
<title>cluster_Data Layer EU North</title>
<path fill="#ebf3e7" stroke="#aeb6be" d="M806,-250C806,-250 1377,-250 1377,-250 1383,-250 1389,-256 1389,-262 1389,-262 1389,-441 1389,-441 1389,-447 1383,-453 1377,-453 1377,-453 806,-453 806,-453 800,-453 794,-447 794,-441 794,-441 794,-262 794,-262 794,-256 800,-250 806,-250"/>
<text text-anchor="middle" x="864" y="-439.4" font-family="Sans-Serif" font-size="12.00" fill="#2d3436">Data Layer EU North</text>
</g>
<!-- 180b6a0b4b004cd0a9b2a735686ddb4e -->
<g id="node1" class="node">
<title>180b6a0b4b004cd0a9b2a735686ddb4e</title>
<image xlink:href="/workspaces/sov-cloud-brain-trek/.venv/lib/python3.12/site-packages/resources/azure/network/front-doors.png" width="101px" height="101px" preserveAspectRatio="xMinYMin meet" x="571.5" y="-1181.5"/>
<text text-anchor="middle" x="622" y="-1065.6" font-family="Sans-Serif" font-size="13.00" fill="#2d3436">Azure Front Door</text>
<text text-anchor="middle" x="622" y="-1051.6" font-family="Sans-Serif" font-size="13.00" fill="#2d3436">Global Load Balancer</text>
</g>
<!-- e2d99380a99246f7a67a8451b6b0847d -->
<g id="node2" class="node">
<title>e2d99380a99246f7a67a8451b6b0847d</title>
<image xlink:href="/workspaces/sov-cloud-brain-trek/.venv/lib/python3.12/site-packages/resources/azure/network/traffic-manager-profiles.png" width="101px" height="101px" preserveAspectRatio="xMinYMin meet" x="571.5" y="-942.5"/>
<text text-anchor="middle" x="622" y="-826.6" font-family="Sans-Serif" font-size="13.00" fill="#2d3436">Traffic Manager</text>
<text text-anchor="middle" x="622" y="-812.6" font-family="Sans-Serif" font-size="13.00" fill="#2d3436">DNS&#45;based Routing</text>
</g>
<!-- 180b6a0b4b004cd0a9b2a735686ddb4e&#45;&gt;e2d99380a99246f7a67a8451b6b0847d -->
<g id="edge1" class="edge">
<title>180b6a0b4b004cd0a9b2a735686ddb4e&#45;&gt;e2d99380a99246f7a67a8451b6b0847d</title>
<path fill="none" stroke="#7b8894" d="M622,-1047.74C622,-1047.74 622,-985.36 622,-985.36"/>
<polygon fill="#7b8894" stroke="#7b8894" points="625.5,-985.36 622,-975.36 618.5,-985.36 625.5,-985.36"/>
</g>
<!-- 224f7ce01160433684035da44130be66 -->
<g id="node3" class="node">
<title>224f7ce01160433684035da44130be66</title>
<image xlink:href="/workspaces/sov-cloud-brain-trek/.venv/lib/python3.12/site-packages/resources/azure/network/firewall.png" width="101px" height="101px" preserveAspectRatio="xMinYMin meet" x="24.5" y="-673.5"/>
<text text-anchor="middle" x="75" y="-558.1" font-family="Sans-Serif" font-size="13.00" fill="#2d3436">Firewall EU</text>
</g>
<!-- e2d99380a99246f7a67a8451b6b0847d&#45;&gt;224f7ce01160433684035da44130be66 -->
<g id="edge2" class="edge">
<title>e2d99380a99246f7a67a8451b6b0847d&#45;&gt;224f7ce01160433684035da44130be66</title>
<path fill="none" stroke="#7b8894" d="M571.03,-892C435.24,-892 75,-892 75,-892 75,-892 75,-701.58 75,-701.58"/>
<polygon fill="#7b8894" stroke="#7b8894" points="78.5,-701.58 75,-691.58 71.5,-701.58 78.5,-701.58"/>
</g>
<!-- d3a176630dae4f00aa3de7d4f8a74784 -->
<g id="node10" class="node">
<title>d3a176630dae4f00aa3de7d4f8a74784</title>
<image xlink:href="/workspaces/sov-cloud-brain-trek/.venv/lib/python3.12/site-packages/resources/azure/network/firewall.png" width="101px" height="101px" preserveAspectRatio="xMinYMin meet" x="1438.5" y="-391.5"/>
<text text-anchor="middle" x="1489" y="-276.1" font-family="Sans-Serif" font-size="13.00" fill="#2d3436">Firewall EU&#45;N</text>
</g>
<!-- e2d99380a99246f7a67a8451b6b0847d&#45;&gt;d3a176630dae4f00aa3de7d4f8a74784 -->
<g id="edge3" class="edge">
<title>e2d99380a99246f7a67a8451b6b0847d&#45;&gt;d3a176630dae4f00aa3de7d4f8a74784</title>
<path fill="none" stroke="#7b8894" d="M672.68,-892C858.12,-892 1489,-892 1489,-892 1489,-892 1489,-419.67 1489,-419.67"/>
<polygon fill="#7b8894" stroke="#7b8894" points="1492.5,-419.67 1489,-409.67 1485.5,-419.67 1492.5,-419.67"/>
</g>
<!-- 00d1448f2bbf4781a3abe2a0a344be80 -->
<g id="node4" class="node">
<title>00d1448f2bbf4781a3abe2a0a344be80</title>
<image xlink:href="/workspaces/sov-cloud-brain-trek/.venv/lib/python3.12/site-packages/resources/azure/compute/kubernetes-services.png" width="101px" height="101px" preserveAspectRatio="xMinYMin meet" x="24.5" y="-391.5"/>
<text text-anchor="middle" x="75" y="-276.1" font-family="Sans-Serif" font-size="13.00" fill="#2d3436">AKS EU</text>
</g>
<!-- 224f7ce01160433684035da44130be66&#45;&gt;00d1448f2bbf4781a3abe2a0a344be80 -->
<g id="edge4" class="edge">
<title>224f7ce01160433684035da44130be66&#45;&gt;00d1448f2bbf4781a3abe2a0a344be80</title>
<path fill="none" stroke="#7b8894" d="M91.83,-554.38C91.83,-554.38 91.83,-419.93 91.83,-419.93"/>
<polygon fill="#7b8894" stroke="#7b8894" points="95.33,-419.93 91.83,-409.93 88.33,-419.93 95.33,-419.93"/>
</g>
<!-- b5bfcf6e70154f998945b437a6f2f72c -->
<g id="node5" class="node">
<title>b5bfcf6e70154f998945b437a6f2f72c</title>
<image xlink:href="/workspaces/sov-cloud-brain-trek/.venv/lib/python3.12/site-packages/resources/azure/compute/vm.png" width="101px" height="101px" preserveAspectRatio="xMinYMin meet" x="183.5" y="-391.5"/>
<text text-anchor="middle" x="234" y="-276.1" font-family="Sans-Serif" font-size="13.00" fill="#2d3436">VMs EU</text>
</g>
<!-- 224f7ce01160433684035da44130be66&#45;&gt;b5bfcf6e70154f998945b437a6f2f72c -->
<g id="edge5" class="edge">
<title>224f7ce01160433684035da44130be66&#45;&gt;b5bfcf6e70154f998945b437a6f2f72c</title>
<path fill="none" stroke="#7b8894" d="M58.17,-554.29C58.17,-549.78 58.17,-547 58.17,-547 58.17,-547 217.17,-547 217.17,-547 217.17,-547 217.17,-419.6 217.17,-419.6"/>
<polygon fill="#7b8894" stroke="#7b8894" points="220.67,-419.59 217.17,-409.6 213.67,-419.6 220.67,-419.59"/>
</g>
<!-- 14220a4516324931b92b81e4fad08f70 -->
<g id="node6" class="node">
<title>14220a4516324931b92b81e4fad08f70</title>
<image xlink:href="/workspaces/sov-cloud-brain-trek/.venv/lib/python3.12/site-packages/resources/azure/security/key-vaults.png" width="101px" height="101px" preserveAspectRatio="xMinYMin meet" x="660.5" y="-673.5"/>
<text text-anchor="middle" x="711" y="-558.1" font-family="Sans-Serif" font-size="13.00" fill="#2d3436">Key Vault EU</text>
</g>
<!-- cac8fe6de4c749c9974c32d6def45a0b -->
<g id="node7" class="node">
<title>cac8fe6de4c749c9974c32d6def45a0b</title>
<image xlink:href="/workspaces/sov-cloud-brain-trek/.venv/lib/python3.12/site-packages/resources/azure/storage/storage-accounts.png" width="101px" height="101px" preserveAspectRatio="xMinYMin meet" x="183.5" y="-673.5"/>
<text text-anchor="middle" x="234" y="-558.1" font-family="Sans-Serif" font-size="13.00" fill="#2d3436">Storage EU</text>
</g>
<!-- 6f4e590860dd44408865b238d22cd0ad -->
<g id="node14" class="node">
<title>6f4e590860dd44408865b238d22cd0ad</title>
<image xlink:href="/workspaces/sov-cloud-brain-trek/.venv/lib/python3.12/site-packages/resources/azure/storage/storage-accounts.png" width="101px" height="101px" preserveAspectRatio="xMinYMin meet" x="802.5" y="-391.5"/>
<text text-anchor="middle" x="853" y="-275.6" font-family="Sans-Serif" font-size="13.00" fill="#2d3436">Storage EU&#45;N</text>
<text text-anchor="middle" x="853" y="-261.6" font-family="Sans-Serif" font-size="13.00" fill="#2d3436">(GRS)</text>
</g>
<!-- cac8fe6de4c749c9974c32d6def45a0b&#45;&gt;6f4e590860dd44408865b238d22cd0ad -->
<g id="edge9" class="edge">
<title>cac8fe6de4c749c9974c32d6def45a0b&#45;&gt;6f4e590860dd44408865b238d22cd0ad</title>
<path fill="none" stroke="green" stroke-dasharray="5,2" d="M250.83,-554.36C250.83,-494.1 250.83,-416 250.83,-416 250.83,-416 792.44,-416 792.44,-416"/>
<polygon fill="green" stroke="green" points="792.44,-419.5 802.44,-416 792.44,-412.5 792.44,-419.5"/>
<text text-anchor="middle" x="282" y="-493.6" font-family="Sans-Serif" font-size="13.00" fill="#2d3436">GRS</text>
</g>
<!-- 9213929ce62e494cad4e6519af13203a -->
<g id="node8" class="node">
<title>9213929ce62e494cad4e6519af13203a</title>
<image xlink:href="/workspaces/sov-cloud-brain-trek/.venv/lib/python3.12/site-packages/resources/azure/database/sql-databases.png" width="101px" height="101px" preserveAspectRatio="xMinYMin meet" x="342.5" y="-673.5"/>
<text text-anchor="middle" x="393" y="-557.6" font-family="Sans-Serif" font-size="13.00" fill="#2d3436">SQL EU</text>
<text text-anchor="middle" x="393" y="-543.6" font-family="Sans-Serif" font-size="13.00" fill="#2d3436">(Primary)</text>
</g>
<!-- 5931c552389d42bbaf230a95171e0a8a -->
<g id="node15" class="node">
<title>5931c552389d42bbaf230a95171e0a8a</title>
<image xlink:href="/workspaces/sov-cloud-brain-trek/.venv/lib/python3.12/site-packages/resources/azure/database/sql-databases.png" width="101px" height="101px" preserveAspectRatio="xMinYMin meet" x="961.5" y="-391.5"/>
<text text-anchor="middle" x="1012" y="-275.6" font-family="Sans-Serif" font-size="13.00" fill="#2d3436">SQL EU&#45;N</text>
<text text-anchor="middle" x="1012" y="-261.6" font-family="Sans-Serif" font-size="13.00" fill="#2d3436">(Replica)</text>
</g>
<!-- 9213929ce62e494cad4e6519af13203a&#45;&gt;5931c552389d42bbaf230a95171e0a8a -->
<g id="edge8" class="edge">
<title>9213929ce62e494cad4e6519af13203a&#45;&gt;5931c552389d42bbaf230a95171e0a8a</title>
<path fill="none" stroke="blue" stroke-dasharray="5,2" d="M443.66,-544C591.49,-544 1012,-544 1012,-544 1012,-544 1012,-434.15 1012,-434.15"/>
<polygon fill="blue" stroke="blue" points="1015.5,-434.15 1012,-424.15 1008.5,-434.15 1015.5,-434.15"/>
<text text-anchor="middle" x="648.5" y="-493.6" font-family="Sans-Serif" font-size="13.00" fill="#2d3436">Geo&#45;Replication</text>
</g>
<!-- 89e1492e1fbf4756818b0f0e3716cce7 -->
<g id="node9" class="node">
<title>89e1492e1fbf4756818b0f0e3716cce7</title>
<image xlink:href="/workspaces/sov-cloud-brain-trek/.venv/lib/python3.12/site-packages/resources/azure/database/cosmos-db.png" width="101px" height="101px" preserveAspectRatio="xMinYMin meet" x="501.5" y="-673.5"/>
<text text-anchor="middle" x="552" y="-558.1" font-family="Sans-Serif" font-size="13.00" fill="#2d3436">Cosmos DB EU</text>
</g>
<!-- 3aa92e6051844c938f57241f295ab15e -->
<g id="node16" class="node">
<title>3aa92e6051844c938f57241f295ab15e</title>
<image xlink:href="/workspaces/sov-cloud-brain-trek/.venv/lib/python3.12/site-packages/resources/azure/database/cosmos-db.png" width="101px" height="101px" preserveAspectRatio="xMinYMin meet" x="1120.5" y="-391.5"/>
<text text-anchor="middle" x="1171" y="-276.1" font-family="Sans-Serif" font-size="13.00" fill="#2d3436">Cosmos DB EU&#45;N</text>
</g>
<!-- 89e1492e1fbf4756818b0f0e3716cce7&#45;&gt;3aa92e6051844c938f57241f295ab15e -->
<g id="edge10" class="edge">
<title>89e1492e1fbf4756818b0f0e3716cce7&#45;&gt;3aa92e6051844c938f57241f295ab15e</title>
<path fill="none" stroke="purple" stroke-dasharray="5,2" d="M552,-554.32C552,-550.99 552,-549 552,-549 552,-549 1171,-549 1171,-549 1171,-549 1171,-419.68 1171,-419.68"/>
<polygon fill="purple" stroke="purple" points="1174.5,-419.68 1171,-409.68 1167.5,-419.68 1174.5,-419.68"/>
<text text-anchor="middle" x="890.5" y="-493.6" font-family="Sans-Serif" font-size="13.00" fill="#2d3436">Multi&#45;region</text>
</g>
<!-- e2f6de775aa649a3929652eb629b7dec -->
<g id="node11" class="node">
<title>e2f6de775aa649a3929652eb629b7dec</title>
<image xlink:href="/workspaces/sov-cloud-brain-trek/.venv/lib/python3.12/site-packages/resources/azure/compute/kubernetes-services.png" width="101px" height="101px" preserveAspectRatio="xMinYMin meet" x="1279.5" y="-166"/>
<text text-anchor="middle" x="1330" y="-50.6" font-family="Sans-Serif" font-size="13.00" fill="#2d3436">AKS EU&#45;N</text>
</g>
<!-- d3a176630dae4f00aa3de7d4f8a74784&#45;&gt;e2f6de775aa649a3929652eb629b7dec -->
<g id="edge6" class="edge">
<title>d3a176630dae4f00aa3de7d4f8a74784&#45;&gt;e2f6de775aa649a3929652eb629b7dec</title>
<path fill="none" stroke="#7b8894" d="M1472.17,-272.29C1472.17,-267.78 1472.17,-265 1472.17,-265 1472.17,-265 1330,-265 1330,-265 1330,-265 1330,-194.12 1330,-194.12"/>
<polygon fill="#7b8894" stroke="#7b8894" points="1333.5,-194.12 1330,-184.12 1326.5,-194.12 1333.5,-194.12"/>
</g>
<!-- c57bf5cb18ed4d1389c46981ae79876d -->
<g id="node12" class="node">
<title>c57bf5cb18ed4d1389c46981ae79876d</title>
<image xlink:href="/workspaces/sov-cloud-brain-trek/.venv/lib/python3.12/site-packages/resources/azure/compute/vm.png" width="101px" height="101px" preserveAspectRatio="xMinYMin meet" x="1438.5" y="-166"/>
<text text-anchor="middle" x="1489" y="-50.6" font-family="Sans-Serif" font-size="13.00" fill="#2d3436">VMs EU&#45;N</text>
</g>
<!-- d3a176630dae4f00aa3de7d4f8a74784&#45;&gt;c57bf5cb18ed4d1389c46981ae79876d -->
<g id="edge7" class="edge">
<title>d3a176630dae4f00aa3de7d4f8a74784&#45;&gt;c57bf5cb18ed4d1389c46981ae79876d</title>
<path fill="none" stroke="#7b8894" d="M1505.83,-272.42C1505.83,-272.42 1505.83,-194.14 1505.83,-194.14"/>
<polygon fill="#7b8894" stroke="#7b8894" points="1509.33,-194.14 1505.83,-184.14 1502.33,-194.14 1509.33,-194.14"/>
</g>
<!-- b1e991a795ad4a6ea14cf31146bb4812 -->
<g id="node13" class="node">
<title>b1e991a795ad4a6ea14cf31146bb4812</title>
<image xlink:href="/workspaces/sov-cloud-brain-trek/.venv/lib/python3.12/site-packages/resources/azure/security/key-vaults.png" width="101px" height="101px" preserveAspectRatio="xMinYMin meet" x="1279.5" y="-391.5"/>
<text text-anchor="middle" x="1330" y="-276.1" font-family="Sans-Serif" font-size="13.00" fill="#2d3436">Key Vault EU&#45;N</text>
</g>
<!-- ea740dd060414f80a3e6d63b80d23b15 -->
<g id="node17" class="node">
<title>ea740dd060414f80a3e6d63b80d23b15</title>
<image xlink:href="/workspaces/sov-cloud-brain-trek/.venv/lib/python3.12/site-packages/resources/azure/integration/event-grid-domains.png" width="101px" height="101px" preserveAspectRatio="xMinYMin meet" x="730.5" y="-1181.5"/>
<text text-anchor="middle" x="781" y="-1065.6" font-family="Sans-Serif" font-size="13.00" fill="#2d3436">Async</text>
<text text-anchor="middle" x="781" y="-1051.6" font-family="Sans-Serif" font-size="13.00" fill="#2d3436">Replication</text>
</g>
</g>
</svg>
