<?xml version="1.0" encoding="UTF-8" standalone="no"?>
<!DOCTYPE svg PUBLIC "-//W3C//DTD SVG 1.1//EN"
 "http://www.w3.org/Graphics/SVG/1.1/DTD/svg11.dtd">
<!-- Generated by graphviz version 2.43.0 (0)
 -->
<!-- Title: Observability Stack for Sovereign Cloud Pages: 1 -->
<svg width="683pt" height="1286pt"
 viewBox="0.00 0.00 683.00 1286.00" xmlns="http://www.w3.org/2000/svg" xmlns:xlink="http://www.w3.org/1999/xlink">
<g id="graph0" class="graph" transform="scale(1 1) rotate(0) translate(36 1250)">
<title>Observability Stack for Sovereign Cloud</title>
<polygon fill="white" stroke="transparent" points="-36,36 -36,-1250 647,-1250 647,36 -36,36"/>
<text text-anchor="middle" x="305.5" y="-7.8" font-family="Sans-Serif" font-size="14.00" fill="#2d3436">Observability Stack for Sovereign Cloud</text>
<g id="clust1" class="cluster">
<title>cluster_Telemetry Sources</title>
<path fill="#e8f4fd" stroke="#aeb6be" d="M20,-1003C20,-1003 591,-1003 591,-1003 597,-1003 603,-1009 603,-1015 603,-1015 603,-1194 603,-1194 603,-1200 597,-1206 591,-1206 591,-1206 20,-1206 20,-1206 14,-1206 8,-1200 8,-1194 8,-1194 8,-1015 8,-1015 8,-1009 14,-1003 20,-1003"/>
<text text-anchor="middle" x="71.5" y="-1192.4" font-family="Sans-Serif" font-size="12.00" fill="#2d3436">Telemetry Sources</text>
</g>
<g id="clust2" class="cluster">
<title>cluster_Collection &amp; Ingestion</title>
<path fill="#fff4e6" stroke="#aeb6be" d="M20,-763C20,-763 273,-763 273,-763 279,-763 285,-769 285,-775 285,-775 285,-954 285,-954 285,-960 279,-966 273,-966 273,-966 20,-966 20,-966 14,-966 8,-960 8,-954 8,-954 8,-775 8,-775 8,-769 14,-763 20,-763"/>
<text text-anchor="middle" x="81" y="-952.4" font-family="Sans-Serif" font-size="12.00" fill="#2d3436">Collection &amp; Ingestion</text>
</g>
<g id="clust3" class="cluster">
<title>cluster_Central Analytics (Regional)</title>
<path fill="#f3e8ff" stroke="#aeb6be" d="M116,-270C116,-270 273,-270 273,-270 279,-270 285,-276 285,-282 285,-282 285,-714 285,-714 285,-720 279,-726 273,-726 273,-726 116,-726 116,-726 110,-726 104,-720 104,-714 104,-714 104,-282 104,-282 104,-276 110,-270 116,-270"/>
<text text-anchor="middle" x="194.5" y="-712.4" font-family="Sans-Serif" font-size="12.00" fill="#2d3436">Central Analytics (Regional)</text>
</g>
<g id="clust4" class="cluster">
<title>cluster_Long&#45;term Storage (Regional)</title>
<path fill="#d4e9d7" stroke="#aeb6be" d="M305,-31C305,-31 475,-31 475,-31 481,-31 487,-37 487,-43 487,-43 487,-461 487,-461 487,-467 481,-473 475,-473 475,-473 305,-473 305,-473 299,-473 293,-467 293,-461 293,-461 293,-43 293,-43 293,-37 299,-31 305,-31"/>
<text text-anchor="middle" x="390" y="-459.4" font-family="Sans-Serif" font-size="12.00" fill="#2d3436">Long&#45;term Storage (Regional)</text>
</g>
<!-- f38e11732efc4810aa9c00b923b037ba -->
<g id="node1" class="node">
<title>f38e11732efc4810aa9c00b923b037ba</title>
<image xlink:href="/workspaces/sov-cloud-brain-trek/.venv/lib/python3.12/site-packages/resources/azure/compute/kubernetes-services.png" width="101px" height="101px" preserveAspectRatio="xMinYMin meet" x="16.5" y="-1144.5"/>
<text text-anchor="middle" x="67" y="-1028.6" font-family="Sans-Serif" font-size="13.00" fill="#2d3436">AKS</text>
<text text-anchor="middle" x="67" y="-1014.6" font-family="Sans-Serif" font-size="13.00" fill="#2d3436">Containers</text>
</g>
<!-- bf76dafe8bdd45f9b84309574b2275de -->
<g id="node5" class="node">
<title>bf76dafe8bdd45f9b84309574b2275de</title>
<image xlink:href="/workspaces/sov-cloud-brain-trek/.venv/lib/python3.12/site-packages/resources/azure/devops/application-insights.png" width="101px" height="101px" preserveAspectRatio="xMinYMin meet" x="175.5" y="-904.5"/>
<text text-anchor="middle" x="226" y="-788.6" font-family="Sans-Serif" font-size="13.00" fill="#2d3436">Application</text>
<text text-anchor="middle" x="226" y="-774.6" font-family="Sans-Serif" font-size="13.00" fill="#2d3436">Insights</text>
</g>
<!-- f38e11732efc4810aa9c00b923b037ba&#45;&gt;bf76dafe8bdd45f9b84309574b2275de -->
<g id="edge1" class="edge">
<title>f38e11732efc4810aa9c00b923b037ba&#45;&gt;bf76dafe8bdd45f9b84309574b2275de</title>
<path fill="none" stroke="#7b8894" d="M67,-1010.98C67,-990.35 67,-974 67,-974 67,-974 209.17,-974 209.17,-974 209.17,-974 209.17,-947.02 209.17,-947.02"/>
<polygon fill="#7b8894" stroke="#7b8894" points="212.67,-947.02 209.17,-937.02 205.67,-947.02 212.67,-947.02"/>
</g>
<!-- 5af1cf45ffab4ddfbdd7c02375a60aa7 -->
<g id="node2" class="node">
<title>5af1cf45ffab4ddfbdd7c02375a60aa7</title>
<image xlink:href="/workspaces/sov-cloud-brain-trek/.venv/lib/python3.12/site-packages/resources/azure/compute/vm.png" width="101px" height="101px" preserveAspectRatio="xMinYMin meet" x="175.5" y="-1144.5"/>
<text text-anchor="middle" x="226" y="-1028.6" font-family="Sans-Serif" font-size="13.00" fill="#2d3436">Virtual</text>
<text text-anchor="middle" x="226" y="-1014.6" font-family="Sans-Serif" font-size="13.00" fill="#2d3436">Machines</text>
</g>
<!-- 5af1cf45ffab4ddfbdd7c02375a60aa7&#45;&gt;bf76dafe8bdd45f9b84309574b2275de -->
<g id="edge2" class="edge">
<title>5af1cf45ffab4ddfbdd7c02375a60aa7&#45;&gt;bf76dafe8bdd45f9b84309574b2275de</title>
<path fill="none" stroke="#7b8894" d="M242.83,-1010.73C242.83,-1010.73 242.83,-947.12 242.83,-947.12"/>
<polygon fill="#7b8894" stroke="#7b8894" points="246.33,-947.12 242.83,-937.12 239.33,-947.12 246.33,-947.12"/>
</g>
<!-- 259fba96959143d7b3aa49a965686e52 -->
<g id="node3" class="node">
<title>259fba96959143d7b3aa49a965686e52</title>
<image xlink:href="/workspaces/sov-cloud-brain-trek/.venv/lib/python3.12/site-packages/resources/azure/compute/function-apps.png" width="101px" height="101px" preserveAspectRatio="xMinYMin meet" x="334.5" y="-1144.5"/>
<text text-anchor="middle" x="385" y="-1028.6" font-family="Sans-Serif" font-size="13.00" fill="#2d3436">Azure</text>
<text text-anchor="middle" x="385" y="-1014.6" font-family="Sans-Serif" font-size="13.00" fill="#2d3436">Functions</text>
</g>
<!-- 259fba96959143d7b3aa49a965686e52&#45;&gt;bf76dafe8bdd45f9b84309574b2275de -->
<g id="edge3" class="edge">
<title>259fba96959143d7b3aa49a965686e52&#45;&gt;bf76dafe8bdd45f9b84309574b2275de</title>
<path fill="none" stroke="#7b8894" d="M368.5,-1010.73C368.5,-941.42 368.5,-854 368.5,-854 368.5,-854 286.64,-854 286.64,-854"/>
<polygon fill="#7b8894" stroke="#7b8894" points="286.64,-850.5 276.64,-854 286.64,-857.5 286.64,-850.5"/>
</g>
<!-- 0901dede68c242d0a0297bbcc2648c19 -->
<g id="node4" class="node">
<title>0901dede68c242d0a0297bbcc2648c19</title>
<image xlink:href="/workspaces/sov-cloud-brain-trek/.venv/lib/python3.12/site-packages/resources/azure/network/virtual-networks.png" width="101px" height="101px" preserveAspectRatio="xMinYMin meet" x="493.5" y="-1144.5"/>
<text text-anchor="middle" x="544" y="-1028.6" font-family="Sans-Serif" font-size="13.00" fill="#2d3436">Network</text>
<text text-anchor="middle" x="544" y="-1014.6" font-family="Sans-Serif" font-size="13.00" fill="#2d3436">Flow Logs</text>
</g>
<!-- fc88ba40e04c4a7abadc83caa7c7114a -->
<g id="node7" class="node">
<title>fc88ba40e04c4a7abadc83caa7c7114a</title>
<image xlink:href="/workspaces/sov-cloud-brain-trek/.venv/lib/python3.12/site-packages/resources/azure/analytics/log-analytics-workspaces.png" width="101px" height="101px" preserveAspectRatio="xMinYMin meet" x="175.5" y="-664.5"/>
<text text-anchor="middle" x="226" y="-548.6" font-family="Sans-Serif" font-size="13.00" fill="#2d3436">Log Analytics</text>
<text text-anchor="middle" x="226" y="-534.6" font-family="Sans-Serif" font-size="13.00" fill="#2d3436">Workspace (EU)</text>
</g>
<!-- 0901dede68c242d0a0297bbcc2648c19&#45;&gt;fc88ba40e04c4a7abadc83caa7c7114a -->
<g id="edge4" class="edge">
<title>0901dede68c242d0a0297bbcc2648c19&#45;&gt;fc88ba40e04c4a7abadc83caa7c7114a</title>
<path fill="none" stroke="#7b8894" d="M544,-1010.91C544,-880.14 544,-641 544,-641 544,-641 286.74,-641 286.74,-641"/>
<polygon fill="#7b8894" stroke="#7b8894" points="286.74,-637.5 276.74,-641 286.74,-644.5 286.74,-637.5"/>
</g>
<!-- bf76dafe8bdd45f9b84309574b2275de&#45;&gt;fc88ba40e04c4a7abadc83caa7c7114a -->
<g id="edge5" class="edge">
<title>bf76dafe8bdd45f9b84309574b2275de&#45;&gt;fc88ba40e04c4a7abadc83caa7c7114a</title>
<path fill="none" stroke="#7b8894" d="M226,-770.73C226,-770.73 226,-707.12 226,-707.12"/>
<polygon fill="#7b8894" stroke="#7b8894" points="229.5,-707.12 226,-697.12 222.5,-707.12 229.5,-707.12"/>
</g>
<!-- 4f57faf8f1d344b18e48e04d4d252439 -->
<g id="node6" class="node">
<title>4f57faf8f1d344b18e48e04d4d252439</title>
<image xlink:href="/workspaces/sov-cloud-brain-trek/.venv/lib/python3.12/site-packages/resources/azure/integration/event-grid-domains.png" width="101px" height="101px" preserveAspectRatio="xMinYMin meet" x="16.5" y="-904.5"/>
<text text-anchor="middle" x="67" y="-788.6" font-family="Sans-Serif" font-size="13.00" fill="#2d3436">Event Grid</text>
<text text-anchor="middle" x="67" y="-774.6" font-family="Sans-Serif" font-size="13.00" fill="#2d3436">(Alerts)</text>
</g>
<!-- ba090bd36b0b484da4ebdcadf94facff -->
<g id="node8" class="node">
<title>ba090bd36b0b484da4ebdcadf94facff</title>
<image xlink:href="/workspaces/sov-cloud-brain-trek/.venv/lib/python3.12/site-packages/resources/azure/security/sentinel.png" width="101px" height="101px" preserveAspectRatio="xMinYMin meet" x="127.5" y="-411.5"/>
<text text-anchor="middle" x="178" y="-295.6" font-family="Sans-Serif" font-size="13.00" fill="#2d3436">Microsoft</text>
<text text-anchor="middle" x="178" y="-281.6" font-family="Sans-Serif" font-size="13.00" fill="#2d3436">Sentinel</text>
</g>
<!-- 4f57faf8f1d344b18e48e04d4d252439&#45;&gt;ba090bd36b0b484da4ebdcadf94facff -->
<g id="edge7" class="edge">
<title>4f57faf8f1d344b18e48e04d4d252439&#45;&gt;ba090bd36b0b484da4ebdcadf94facff</title>
<path fill="none" stroke="#7b8894" stroke-dasharray="1,5" d="M117.62,-854C135.61,-854 151.5,-854 151.5,-854 151.5,-854 151.5,-454.07 151.5,-454.07"/>
<polygon fill="#7b8894" stroke="#7b8894" points="155,-454.07 151.5,-444.07 148,-454.07 155,-454.07"/>
<text text-anchor="middle" x="91.5" y="-610.6" font-family="Sans-Serif" font-size="13.00" fill="#2d3436">Alerts</text>
</g>
<!-- fc88ba40e04c4a7abadc83caa7c7114a&#45;&gt;ba090bd36b0b484da4ebdcadf94facff -->
<g id="edge6" class="edge">
<title>fc88ba40e04c4a7abadc83caa7c7114a&#45;&gt;ba090bd36b0b484da4ebdcadf94facff</title>
<path fill="none" stroke="#7b8894" d="M202,-530.81C202,-530.81 202,-454.24 202,-454.24"/>
<polygon fill="#7b8894" stroke="#7b8894" points="205.5,-454.24 202,-444.24 198.5,-454.24 205.5,-454.24"/>
</g>
<!-- b061802aeaab4f12a217672810fc0d46 -->
<g id="node9" class="node">
<title>b061802aeaab4f12a217672810fc0d46</title>
<image xlink:href="/workspaces/sov-cloud-brain-trek/.venv/lib/python3.12/site-packages/resources/azure/storage/storage-accounts.png" width="101px" height="101px" preserveAspectRatio="xMinYMin meet" x="301.5" y="-411.5"/>
<text text-anchor="middle" x="352" y="-295.6" font-family="Sans-Serif" font-size="13.00" fill="#2d3436">Blob Storage</text>
<text text-anchor="middle" x="352" y="-281.6" font-family="Sans-Serif" font-size="13.00" fill="#2d3436">(7+ Years)</text>
</g>
<!-- fc88ba40e04c4a7abadc83caa7c7114a&#45;&gt;b061802aeaab4f12a217672810fc0d46 -->
<g id="edge8" class="edge">
<title>fc88ba40e04c4a7abadc83caa7c7114a&#45;&gt;b061802aeaab4f12a217672810fc0d46</title>
<path fill="none" stroke="#7b8894" stroke-dasharray="5,2" d="M276.58,-586C297.95,-586 318,-586 318,-586 318,-586 318,-454.14 318,-454.14"/>
<polygon fill="#7b8894" stroke="#7b8894" points="321.5,-454.14 318,-444.14 314.5,-454.14 321.5,-454.14"/>
<text text-anchor="middle" x="342.5" y="-484.6" font-family="Sans-Serif" font-size="13.00" fill="#2d3436">Export</text>
</g>
<!-- f0d21b4595d7484fa2338add3f96fe89 -->
<g id="node10" class="node">
<title>f0d21b4595d7484fa2338add3f96fe89</title>
<image xlink:href="/workspaces/sov-cloud-brain-trek/.venv/lib/python3.12/site-packages/resources/azure/analytics/databricks.png" width="101px" height="101px" preserveAspectRatio="xMinYMin meet" x="301.5" y="-172.5"/>
<text text-anchor="middle" x="352" y="-56.6" font-family="Sans-Serif" font-size="13.00" fill="#2d3436">Databricks</text>
<text text-anchor="middle" x="352" y="-42.6" font-family="Sans-Serif" font-size="13.00" fill="#2d3436">(Analysis)</text>
</g>
<!-- b061802aeaab4f12a217672810fc0d46&#45;&gt;f0d21b4595d7484fa2338add3f96fe89 -->
<g id="edge9" class="edge">
<title>b061802aeaab4f12a217672810fc0d46&#45;&gt;f0d21b4595d7484fa2338add3f96fe89</title>
<path fill="none" stroke="#7b8894" d="M352,-277.74C352,-277.74 352,-215.36 352,-215.36"/>
<polygon fill="#7b8894" stroke="#7b8894" points="355.5,-215.36 352,-205.36 348.5,-215.36 355.5,-215.36"/>
</g>
</g>
</svg>
