<?xml version="1.0" encoding="UTF-8" standalone="no"?>
<!DOCTYPE svg PUBLIC "-//W3C//DTD SVG 1.1//EN"
 "http://www.w3.org/Graphics/SVG/1.1/DTD/svg11.dtd">
<!-- Generated by graphviz version 2.43.0 (0)
 -->
<!-- Title: Sovereign Landing Zone Architecture Pages: 1 -->
<svg width="1394pt" height="1539pt"
 viewBox="0.00 0.00 1394.00 1539.00" xmlns="http://www.w3.org/2000/svg" xmlns:xlink="http://www.w3.org/1999/xlink">
<g id="graph0" class="graph" transform="scale(1 1) rotate(0) translate(36 1503)">
<title>Sovereign Landing Zone Architecture</title>
<polygon fill="white" stroke="transparent" points="-36,36 -36,-1503 1358,-1503 1358,36 -36,36"/>
<text text-anchor="middle" x="661" y="-7.8" font-family="Sans-Serif" font-size="14.00" fill="#2d3436">Sovereign Landing Zone Architecture</text>
<g id="clust1" class="cluster">
<title>cluster_Management Group Hierarchy</title>
<path fill="#e5f5fd" stroke="#aeb6be" d="M330,-1022.5C330,-1022.5 1235,-1022.5 1235,-1022.5 1241,-1022.5 1247,-1028.5 1247,-1034.5 1247,-1034.5 1247,-1447 1247,-1447 1247,-1453 1241,-1459 1235,-1459 1235,-1459 330,-1459 330,-1459 324,-1459 318,-1453 318,-1447 318,-1447 318,-1034.5 318,-1034.5 318,-1028.5 324,-1022.5 330,-1022.5"/>
<text text-anchor="middle" x="416.5" y="-1445.4" font-family="Sans-Serif" font-size="12.00" fill="#2d3436">Management Group Hierarchy</text>
</g>
<g id="clust2" class="cluster">
<title>cluster_Platform</title>
<path fill="#ebf3e7" stroke="#aeb6be" d="M815,-1030.5C815,-1030.5 1227,-1030.5 1227,-1030.5 1233,-1030.5 1239,-1036.5 1239,-1042.5 1239,-1042.5 1239,-1192.5 1239,-1192.5 1239,-1198.5 1233,-1204.5 1227,-1204.5 1227,-1204.5 815,-1204.5 815,-1204.5 809,-1204.5 803,-1198.5 803,-1192.5 803,-1192.5 803,-1042.5 803,-1042.5 803,-1036.5 809,-1030.5 815,-1030.5"/>
<text text-anchor="middle" x="837" y="-1190.9" font-family="Sans-Serif" font-size="12.00" fill="#2d3436">Platform</text>
</g>
<g id="clust3" class="cluster">
<title>cluster_Landing Zones</title>
<path fill="#ebf3e7" stroke="#aeb6be" d="M338,-1030.5C338,-1030.5 750,-1030.5 750,-1030.5 756,-1030.5 762,-1036.5 762,-1042.5 762,-1042.5 762,-1192.5 762,-1192.5 762,-1198.5 756,-1204.5 750,-1204.5 750,-1204.5 338,-1204.5 338,-1204.5 332,-1204.5 326,-1198.5 326,-1192.5 326,-1192.5 326,-1042.5 326,-1042.5 326,-1036.5 332,-1030.5 338,-1030.5"/>
<text text-anchor="middle" x="378" y="-1190.9" font-family="Sans-Serif" font-size="12.00" fill="#2d3436">Landing Zones</text>
</g>
<g id="clust4" class="cluster">
<title>cluster_Identity Subscription</title>
<path fill="#e8f4fd" stroke="#aeb6be" d="M1187,-536C1187,-536 1302,-536 1302,-536 1308,-536 1314,-542 1314,-548 1314,-548 1314,-967 1314,-967 1314,-973 1308,-979 1302,-979 1302,-979 1187,-979 1187,-979 1181,-979 1175,-973 1175,-967 1175,-967 1175,-548 1175,-548 1175,-542 1181,-536 1187,-536"/>
<text text-anchor="middle" x="1244.5" y="-965.4" font-family="Sans-Serif" font-size="12.00" fill="#2d3436">Identity Subscription</text>
</g>
<g id="clust5" class="cluster">
<title>cluster_Management Subscription</title>
<path fill="#fff4e6" stroke="#aeb6be" d="M721,-536C721,-536 1133,-536 1133,-536 1139,-536 1145,-542 1145,-548 1145,-548 1145,-727 1145,-727 1145,-733 1139,-739 1133,-739 1133,-739 721,-739 721,-739 715,-739 709,-733 709,-727 709,-727 709,-548 709,-548 709,-542 715,-536 721,-536"/>
<text text-anchor="middle" x="795.5" y="-725.4" font-family="Sans-Serif" font-size="12.00" fill="#2d3436">Management Subscription</text>
</g>
<g id="clust6" class="cluster">
<title>cluster_Connectivity Subscription</title>
<path fill="#f3e8ff" stroke="#aeb6be" d="M20,-536C20,-536 273,-536 273,-536 279,-536 285,-542 285,-548 285,-548 285,-1207 285,-1207 285,-1213 279,-1219 273,-1219 273,-1219 20,-1219 20,-1219 14,-1219 8,-1213 8,-1207 8,-1207 8,-548 8,-548 8,-542 14,-536 20,-536"/>
<text text-anchor="middle" x="91.5" y="-1205.4" font-family="Sans-Serif" font-size="12.00" fill="#2d3436">Connectivity Subscription</text>
</g>
<g id="clust7" class="cluster">
<title>cluster_Sovereign Workload Subscription</title>
<path fill="#d4e9d7" stroke="#aeb6be" d="M243,-31C243,-31 814,-31 814,-31 820,-31 826,-37 826,-43 826,-43 826,-474 826,-474 826,-480 820,-486 814,-486 814,-486 243,-486 243,-486 237,-486 231,-480 231,-474 231,-474 231,-43 231,-43 231,-37 237,-31 243,-31"/>
<text text-anchor="middle" x="337.5" y="-472.4" font-family="Sans-Serif" font-size="12.00" fill="#2d3436">Sovereign Workload Subscription</text>
</g>
<!-- 0709be26eb6a4c769c033fa85fb6135c -->
<g id="node1" class="node">
<title>0709be26eb6a4c769c033fa85fb6135c</title>
<image xlink:href="/workspaces/sov-cloud-brain-trek/.venv/lib/python3.12/site-packages/resources/azure/general/managementgroups.png" width="101px" height="101px" preserveAspectRatio="xMinYMin meet" x="731.5" y="-1397.5"/>
<text text-anchor="middle" x="782" y="-1281.6" font-family="Sans-Serif" font-size="13.00" fill="#2d3436">Root</text>
<text text-anchor="middle" x="782" y="-1267.6" font-family="Sans-Serif" font-size="13.00" fill="#2d3436">Management Group</text>
</g>
<!-- 87938815cbb842c5a07136185d3c021e -->
<g id="node2" class="node">
<title>87938815cbb842c5a07136185d3c021e</title>
<image xlink:href="/workspaces/sov-cloud-brain-trek/.venv/lib/python3.12/site-packages/resources/azure/general/managementgroups.png" width="101px" height="101px" preserveAspectRatio="xMinYMin meet" x="1129.5" y="-1157.5"/>
<text text-anchor="middle" x="1180" y="-1042.1" font-family="Sans-Serif" font-size="13.00" fill="#2d3436">Identity</text>
</g>
<!-- 0709be26eb6a4c769c033fa85fb6135c&#45;&gt;87938815cbb842c5a07136185d3c021e -->
<g id="edge1" class="edge">
<title>0709be26eb6a4c769c033fa85fb6135c&#45;&gt;87938815cbb842c5a07136185d3c021e</title>
<path fill="none" stroke="#7b8894" stroke-dasharray="5,2" d="M832.81,-1374C940.11,-1374 1180,-1374 1180,-1374 1180,-1374 1180,-1185.76 1180,-1185.76"/>
<polygon fill="#7b8894" stroke="#7b8894" points="1183.5,-1185.76 1180,-1175.76 1176.5,-1185.76 1183.5,-1185.76"/>
</g>
<!-- 32daeb676e084e6a871cdd5fe69ba314 -->
<g id="node3" class="node">
<title>32daeb676e084e6a871cdd5fe69ba314</title>
<image xlink:href="/workspaces/sov-cloud-brain-trek/.venv/lib/python3.12/site-packages/resources/azure/general/managementgroups.png" width="101px" height="101px" preserveAspectRatio="xMinYMin meet" x="970.5" y="-1157.5"/>
<text text-anchor="middle" x="1021" y="-1042.1" font-family="Sans-Serif" font-size="13.00" fill="#2d3436">Management</text>
</g>
<!-- 0709be26eb6a4c769c033fa85fb6135c&#45;&gt;32daeb676e084e6a871cdd5fe69ba314 -->
<g id="edge2" class="edge">
<title>0709be26eb6a4c769c033fa85fb6135c&#45;&gt;32daeb676e084e6a871cdd5fe69ba314</title>
<path fill="none" stroke="#7b8894" stroke-dasharray="5,2" d="M832.69,-1319C902.84,-1319 1021,-1319 1021,-1319 1021,-1319 1021,-1185.54 1021,-1185.54"/>
<polygon fill="#7b8894" stroke="#7b8894" points="1024.5,-1185.54 1021,-1175.54 1017.5,-1185.54 1024.5,-1185.54"/>
</g>
<!-- 8c2fabc5e3cf4b7b9f1845c3ed221244 -->
<g id="node4" class="node">
<title>8c2fabc5e3cf4b7b9f1845c3ed221244</title>
<image xlink:href="/workspaces/sov-cloud-brain-trek/.venv/lib/python3.12/site-packages/resources/azure/general/managementgroups.png" width="101px" height="101px" preserveAspectRatio="xMinYMin meet" x="811.5" y="-1157.5"/>
<text text-anchor="middle" x="862" y="-1042.1" font-family="Sans-Serif" font-size="13.00" fill="#2d3436">Connectivity</text>
</g>
<!-- 0709be26eb6a4c769c033fa85fb6135c&#45;&gt;8c2fabc5e3cf4b7b9f1845c3ed221244 -->
<g id="edge3" class="edge">
<title>0709be26eb6a4c769c033fa85fb6135c&#45;&gt;8c2fabc5e3cf4b7b9f1845c3ed221244</title>
<path fill="none" stroke="#7b8894" stroke-dasharray="5,2" d="M822,-1263.73C822,-1263.73 822,-1185.81 822,-1185.81"/>
<polygon fill="#7b8894" stroke="#7b8894" points="825.5,-1185.81 822,-1175.81 818.5,-1185.81 825.5,-1185.81"/>
</g>
<!-- 89903e90b3614793b3ba50af9722e573 -->
<g id="node5" class="node">
<title>89903e90b3614793b3ba50af9722e573</title>
<image xlink:href="/workspaces/sov-cloud-brain-trek/.venv/lib/python3.12/site-packages/resources/azure/general/managementgroups.png" width="101px" height="101px" preserveAspectRatio="xMinYMin meet" x="334.5" y="-1157.5"/>
<text text-anchor="middle" x="385" y="-1042.1" font-family="Sans-Serif" font-size="13.00" fill="#2d3436">Corp</text>
</g>
<!-- 0709be26eb6a4c769c033fa85fb6135c&#45;&gt;89903e90b3614793b3ba50af9722e573 -->
<g id="edge4" class="edge">
<title>0709be26eb6a4c769c033fa85fb6135c&#45;&gt;89903e90b3614793b3ba50af9722e573</title>
<path fill="none" stroke="#7b8894" stroke-dasharray="5,2" d="M731.32,-1374C624.29,-1374 385,-1374 385,-1374 385,-1374 385,-1185.76 385,-1185.76"/>
<polygon fill="#7b8894" stroke="#7b8894" points="388.5,-1185.76 385,-1175.76 381.5,-1185.76 388.5,-1185.76"/>
</g>
<!-- 94ac89c7f5e84d4e905c24bc954c74e3 -->
<g id="node6" class="node">
<title>94ac89c7f5e84d4e905c24bc954c74e3</title>
<image xlink:href="/workspaces/sov-cloud-brain-trek/.venv/lib/python3.12/site-packages/resources/azure/general/managementgroups.png" width="101px" height="101px" preserveAspectRatio="xMinYMin meet" x="493.5" y="-1157.5"/>
<text text-anchor="middle" x="544" y="-1042.1" font-family="Sans-Serif" font-size="13.00" fill="#2d3436">Online</text>
</g>
<!-- 0709be26eb6a4c769c033fa85fb6135c&#45;&gt;94ac89c7f5e84d4e905c24bc954c74e3 -->
<g id="edge5" class="edge">
<title>0709be26eb6a4c769c033fa85fb6135c&#45;&gt;94ac89c7f5e84d4e905c24bc954c74e3</title>
<path fill="none" stroke="#7b8894" stroke-dasharray="5,2" d="M731.23,-1319C661.34,-1319 544,-1319 544,-1319 544,-1319 544,-1185.54 544,-1185.54"/>
<polygon fill="#7b8894" stroke="#7b8894" points="547.5,-1185.54 544,-1175.54 540.5,-1185.54 547.5,-1185.54"/>
</g>
<!-- 5ecc35eb5532416d819b74df97670e7f -->
<g id="node7" class="node">
<title>5ecc35eb5532416d819b74df97670e7f</title>
<image xlink:href="/workspaces/sov-cloud-brain-trek/.venv/lib/python3.12/site-packages/resources/azure/general/managementgroups.png" width="101px" height="101px" preserveAspectRatio="xMinYMin meet" x="652.5" y="-1157.5"/>
<text text-anchor="middle" x="703" y="-1042.1" font-family="Sans-Serif" font-size="13.00" fill="#2d3436">Sovereign</text>
</g>
<!-- 0709be26eb6a4c769c033fa85fb6135c&#45;&gt;5ecc35eb5532416d819b74df97670e7f -->
<g id="edge6" class="edge">
<title>0709be26eb6a4c769c033fa85fb6135c&#45;&gt;5ecc35eb5532416d819b74df97670e7f</title>
<path fill="none" stroke="#7b8894" stroke-dasharray="5,2" d="M742.5,-1263.73C742.5,-1263.73 742.5,-1185.81 742.5,-1185.81"/>
<polygon fill="#7b8894" stroke="#7b8894" points="746,-1185.81 742.5,-1175.81 739,-1185.81 746,-1185.81"/>
</g>
<!-- f7a832bfa8f4412491387eb6021b6d82 -->
<g id="node8" class="node">
<title>f7a832bfa8f4412491387eb6021b6d82</title>
<image xlink:href="/workspaces/sov-cloud-brain-trek/.venv/lib/python3.12/site-packages/resources/azure/identity/active-directory.png" width="101px" height="101px" preserveAspectRatio="xMinYMin meet" x="1188.5" y="-917.5"/>
<text text-anchor="middle" x="1239" y="-801.6" font-family="Sans-Serif" font-size="13.00" fill="#2d3436">Microsoft</text>
<text text-anchor="middle" x="1239" y="-787.6" font-family="Sans-Serif" font-size="13.00" fill="#2d3436">Entra ID</text>
</g>
<!-- 87938815cbb842c5a07136185d3c021e&#45;&gt;f7a832bfa8f4412491387eb6021b6d82 -->
<g id="edge7" class="edge">
<title>87938815cbb842c5a07136185d3c021e&#45;&gt;f7a832bfa8f4412491387eb6021b6d82</title>
<path fill="none" stroke="#7b8894" d="M1209.5,-1038.23C1209.5,-1038.23 1209.5,-960.26 1209.5,-960.26"/>
<polygon fill="#7b8894" stroke="#7b8894" points="1213,-960.26 1209.5,-950.26 1206,-960.26 1213,-960.26"/>
</g>
<!-- c58179af15dc4821bf91e5342a332ba1 -->
<g id="node10" class="node">
<title>c58179af15dc4821bf91e5342a332ba1</title>
<image xlink:href="/workspaces/sov-cloud-brain-trek/.venv/lib/python3.12/site-packages/resources/azure/security/sentinel.png" width="101px" height="101px" preserveAspectRatio="xMinYMin meet" x="876.5" y="-677.5"/>
<text text-anchor="middle" x="927" y="-561.6" font-family="Sans-Serif" font-size="13.00" fill="#2d3436">Microsoft</text>
<text text-anchor="middle" x="927" y="-547.6" font-family="Sans-Serif" font-size="13.00" fill="#2d3436">Sentinel</text>
</g>
<!-- 32daeb676e084e6a871cdd5fe69ba314&#45;&gt;c58179af15dc4821bf91e5342a332ba1 -->
<g id="edge8" class="edge">
<title>32daeb676e084e6a871cdd5fe69ba314&#45;&gt;c58179af15dc4821bf91e5342a332ba1</title>
<path fill="none" stroke="#7b8894" d="M974,-1038.48C974,-1038.48 974,-720.25 974,-720.25"/>
<polygon fill="#7b8894" stroke="#7b8894" points="977.5,-720.25 974,-710.25 970.5,-720.25 977.5,-720.25"/>
</g>
<!-- 54e5c549ab904d8f87789b7b5f7755cb -->
<g id="node13" class="node">
<title>54e5c549ab904d8f87789b7b5f7755cb</title>
<image xlink:href="/workspaces/sov-cloud-brain-trek/.venv/lib/python3.12/site-packages/resources/azure/network/virtual-networks.png" width="101px" height="101px" preserveAspectRatio="xMinYMin meet" x="175.5" y="-917.5"/>
<text text-anchor="middle" x="226" y="-802.1" font-family="Sans-Serif" font-size="13.00" fill="#2d3436">Hub VNet</text>
</g>
<!-- 8c2fabc5e3cf4b7b9f1845c3ed221244&#45;&gt;54e5c549ab904d8f87789b7b5f7755cb -->
<g id="edge9" class="edge">
<title>8c2fabc5e3cf4b7b9f1845c3ed221244&#45;&gt;54e5c549ab904d8f87789b7b5f7755cb</title>
<path fill="none" stroke="#7b8894" d="M815,-1038.23C815,-967.31 815,-867 815,-867 815,-867 286.73,-867 286.73,-867"/>
<polygon fill="#7b8894" stroke="#7b8894" points="286.73,-863.5 276.73,-867 286.73,-870.5 286.73,-863.5"/>
</g>
<!-- 3a4ac4e38fa34c80aebbbb709497e888 -->
<g id="node17" class="node">
<title>3a4ac4e38fa34c80aebbbb709497e888</title>
<image xlink:href="/workspaces/sov-cloud-brain-trek/.venv/lib/python3.12/site-packages/resources/azure/network/virtual-networks.png" width="101px" height="101px" preserveAspectRatio="xMinYMin meet" x="675.5" y="-424.5"/>
<text text-anchor="middle" x="726" y="-309.1" font-family="Sans-Serif" font-size="13.00" fill="#2d3436">Spoke VNet</text>
</g>
<!-- 5ecc35eb5532416d819b74df97670e7f&#45;&gt;3a4ac4e38fa34c80aebbbb709497e888 -->
<g id="edge10" class="edge">
<title>5ecc35eb5532416d819b74df97670e7f&#45;&gt;3a4ac4e38fa34c80aebbbb709497e888</title>
<path fill="none" stroke="#7b8894" d="M703.5,-1038.37C703.5,-1038.37 703.5,-452.58 703.5,-452.58"/>
<polygon fill="#7b8894" stroke="#7b8894" points="707,-452.58 703.5,-442.58 700,-452.58 707,-452.58"/>
</g>
<!-- 75143228a8eb4bc4a00a1318688a3460 -->
<g id="node9" class="node">
<title>75143228a8eb4bc4a00a1318688a3460</title>
<image xlink:href="/workspaces/sov-cloud-brain-trek/.venv/lib/python3.12/site-packages/resources/azure/identity/conditional-access.png" width="101px" height="101px" preserveAspectRatio="xMinYMin meet" x="1194.5" y="-677.5"/>
<text text-anchor="middle" x="1245" y="-561.6" font-family="Sans-Serif" font-size="13.00" fill="#2d3436">Conditional</text>
<text text-anchor="middle" x="1245" y="-547.6" font-family="Sans-Serif" font-size="13.00" fill="#2d3436">Access</text>
</g>
<!-- f7a832bfa8f4412491387eb6021b6d82&#45;&gt;75143228a8eb4bc4a00a1318688a3460 -->
<g id="edge11" class="edge">
<title>f7a832bfa8f4412491387eb6021b6d82&#45;&gt;75143228a8eb4bc4a00a1318688a3460</title>
<path fill="none" stroke="#7b8894" d="M1242,-783.73C1242,-783.73 1242,-720.12 1242,-720.12"/>
<polygon fill="#7b8894" stroke="#7b8894" points="1245.5,-720.12 1242,-710.12 1238.5,-720.12 1245.5,-720.12"/>
</g>
<!-- c58179af15dc4821bf91e5342a332ba1&#45;&gt;3a4ac4e38fa34c80aebbbb709497e888 -->
<g id="edge20" class="edge">
<title>c58179af15dc4821bf91e5342a332ba1&#45;&gt;3a4ac4e38fa34c80aebbbb709497e888</title>
<path fill="none" stroke="#7b8894" stroke-dasharray="1,5" d="M876.38,-548C823.14,-548 747,-548 747,-548 747,-548 747,-452.77 747,-452.77"/>
<polygon fill="#7b8894" stroke="#7b8894" points="750.5,-452.77 747,-442.77 743.5,-452.77 750.5,-452.77"/>
<text text-anchor="middle" x="849.5" y="-497.6" font-family="Sans-Serif" font-size="13.00" fill="#2d3436">Monitor</text>
</g>
<!-- f948e0c2cb554b0b9671f7560411d825 -->
<g id="node11" class="node">
<title>f948e0c2cb554b0b9671f7560411d825</title>
<image xlink:href="/workspaces/sov-cloud-brain-trek/.venv/lib/python3.12/site-packages/resources/generic/blank/blank.png" width="101px" height="101px" preserveAspectRatio="xMinYMin meet" x="1035.5" y="-677.5"/>
<text text-anchor="middle" x="1086" y="-561.6" font-family="Sans-Serif" font-size="13.00" fill="#2d3436">Azure</text>
<text text-anchor="middle" x="1086" y="-547.6" font-family="Sans-Serif" font-size="13.00" fill="#2d3436">Policy</text>
</g>
<!-- f948e0c2cb554b0b9671f7560411d825&#45;&gt;3a4ac4e38fa34c80aebbbb709497e888 -->
<g id="edge12" class="edge">
<title>f948e0c2cb554b0b9671f7560411d825&#45;&gt;3a4ac4e38fa34c80aebbbb709497e888</title>
<path fill="none" stroke="#7b8894" stroke-dasharray="1,5" d="M1086,-543.81C1086,-470.07 1086,-374 1086,-374 1086,-374 786.82,-374 786.82,-374"/>
<polygon fill="#7b8894" stroke="#7b8894" points="786.82,-370.5 776.82,-374 786.82,-377.5 786.82,-370.5"/>
<text text-anchor="middle" x="1052" y="-497.6" font-family="Sans-Serif" font-size="13.00" fill="#2d3436">Governance</text>
</g>
<!-- 67a7589a770f4db88f712729da836eda -->
<g id="node12" class="node">
<title>67a7589a770f4db88f712729da836eda</title>
<image xlink:href="/workspaces/sov-cloud-brain-trek/.venv/lib/python3.12/site-packages/resources/azure/integration/logic-apps.png" width="101px" height="101px" preserveAspectRatio="xMinYMin meet" x="717.5" y="-677.5"/>
<text text-anchor="middle" x="768" y="-562.1" font-family="Sans-Serif" font-size="13.00" fill="#2d3436">Automation</text>
</g>
<!-- fbfe69743ad547369cc76f8901365cee -->
<g id="node14" class="node">
<title>fbfe69743ad547369cc76f8901365cee</title>
<image xlink:href="/workspaces/sov-cloud-brain-trek/.venv/lib/python3.12/site-packages/resources/azure/network/firewall.png" width="101px" height="101px" preserveAspectRatio="xMinYMin meet" x="175.5" y="-677.5"/>
<text text-anchor="middle" x="226" y="-561.6" font-family="Sans-Serif" font-size="13.00" fill="#2d3436">Azure</text>
<text text-anchor="middle" x="226" y="-547.6" font-family="Sans-Serif" font-size="13.00" fill="#2d3436">Firewall</text>
</g>
<!-- 54e5c549ab904d8f87789b7b5f7755cb&#45;&gt;fbfe69743ad547369cc76f8901365cee -->
<g id="edge13" class="edge">
<title>54e5c549ab904d8f87789b7b5f7755cb&#45;&gt;fbfe69743ad547369cc76f8901365cee</title>
<path fill="none" stroke="#7b8894" d="M226,-798.23C226,-798.23 226,-720.26 226,-720.26"/>
<polygon fill="#7b8894" stroke="#7b8894" points="229.5,-720.26 226,-710.26 222.5,-720.26 229.5,-720.26"/>
</g>
<!-- fbfe69743ad547369cc76f8901365cee&#45;&gt;3a4ac4e38fa34c80aebbbb709497e888 -->
<g id="edge14" class="edge">
<title>fbfe69743ad547369cc76f8901365cee&#45;&gt;3a4ac4e38fa34c80aebbbb709497e888</title>
<path fill="none" stroke="#7b8894" d="M276.93,-553C397.33,-553 689.5,-553 689.5,-553 689.5,-553 689.5,-452.69 689.5,-452.69"/>
<polygon fill="#7b8894" stroke="#7b8894" points="693,-452.69 689.5,-442.69 686,-452.69 693,-452.69"/>
</g>
<!-- 18a4b366d2e541eb8b4e7a52ca25bdac -->
<g id="node15" class="node">
<title>18a4b366d2e541eb8b4e7a52ca25bdac</title>
<image xlink:href="/workspaces/sov-cloud-brain-trek/.venv/lib/python3.12/site-packages/resources/azure/network/expressroute-circuits.png" width="101px" height="101px" preserveAspectRatio="xMinYMin meet" x="175.5" y="-1157.5"/>
<text text-anchor="middle" x="226" y="-1042.1" font-family="Sans-Serif" font-size="13.00" fill="#2d3436">ExpressRoute</text>
</g>
<!-- 18a4b366d2e541eb8b4e7a52ca25bdac&#45;&gt;54e5c549ab904d8f87789b7b5f7755cb -->
<g id="edge15" class="edge">
<title>18a4b366d2e541eb8b4e7a52ca25bdac&#45;&gt;54e5c549ab904d8f87789b7b5f7755cb</title>
<path fill="none" stroke="#7b8894" d="M226,-1038.23C226,-1038.23 226,-945.78 226,-945.78"/>
<polygon fill="#7b8894" stroke="#7b8894" points="229.5,-945.78 226,-935.78 222.5,-945.78 229.5,-945.78"/>
</g>
<!-- 5174c8dde60949089a3695a6e92ca9ad -->
<g id="node16" class="node">
<title>5174c8dde60949089a3695a6e92ca9ad</title>
<image xlink:href="/workspaces/sov-cloud-brain-trek/.venv/lib/python3.12/site-packages/resources/azure/network/application-gateway.png" width="101px" height="101px" preserveAspectRatio="xMinYMin meet" x="16.5" y="-1157.5"/>
<text text-anchor="middle" x="67" y="-1041.6" font-family="Sans-Serif" font-size="13.00" fill="#2d3436">Application</text>
<text text-anchor="middle" x="67" y="-1027.6" font-family="Sans-Serif" font-size="13.00" fill="#2d3436">Gateway</text>
</g>
<!-- f146e51e47a04b73a70d7eea4fb2804b -->
<g id="node19" class="node">
<title>f146e51e47a04b73a70d7eea4fb2804b</title>
<image xlink:href="/workspaces/sov-cloud-brain-trek/.venv/lib/python3.12/site-packages/resources/azure/compute/vm.png" width="101px" height="101px" preserveAspectRatio="xMinYMin meet" x="557.5" y="-172.5"/>
<text text-anchor="middle" x="608" y="-56.6" font-family="Sans-Serif" font-size="13.00" fill="#2d3436">Workload</text>
<text text-anchor="middle" x="608" y="-42.6" font-family="Sans-Serif" font-size="13.00" fill="#2d3436">VMs</text>
</g>
<!-- 3a4ac4e38fa34c80aebbbb709497e888&#45;&gt;f146e51e47a04b73a70d7eea4fb2804b -->
<g id="edge16" class="edge">
<title>3a4ac4e38fa34c80aebbbb709497e888&#45;&gt;f146e51e47a04b73a70d7eea4fb2804b</title>
<path fill="none" stroke="#7b8894" d="M696,-305.31C696,-255.56 696,-197 696,-197 696,-197 668.68,-197 668.68,-197"/>
<polygon fill="#7b8894" stroke="#7b8894" points="668.68,-193.5 658.68,-197 668.68,-200.5 668.68,-193.5"/>
</g>
<!-- 72fa1a5db4a54c0a99739ba3d2c05f99 -->
<g id="node20" class="node">
<title>72fa1a5db4a54c0a99739ba3d2c05f99</title>
<image xlink:href="/workspaces/sov-cloud-brain-trek/.venv/lib/python3.12/site-packages/resources/azure/compute/kubernetes-services.png" width="101px" height="101px" preserveAspectRatio="xMinYMin meet" x="716.5" y="-172.5"/>
<text text-anchor="middle" x="767" y="-57.1" font-family="Sans-Serif" font-size="13.00" fill="#2d3436">AKS</text>
</g>
<!-- 3a4ac4e38fa34c80aebbbb709497e888&#45;&gt;72fa1a5db4a54c0a99739ba3d2c05f99 -->
<g id="edge17" class="edge">
<title>3a4ac4e38fa34c80aebbbb709497e888&#45;&gt;72fa1a5db4a54c0a99739ba3d2c05f99</title>
<path fill="none" stroke="#7b8894" d="M746.5,-305.47C746.5,-305.47 746.5,-200.51 746.5,-200.51"/>
<polygon fill="#7b8894" stroke="#7b8894" points="750,-200.51 746.5,-190.51 743,-200.51 750,-200.51"/>
</g>
<!-- fec4e1dd85954c098e63219e31a7bdea -->
<g id="node18" class="node">
<title>fec4e1dd85954c098e63219e31a7bdea</title>
<image xlink:href="/workspaces/sov-cloud-brain-trek/.venv/lib/python3.12/site-packages/resources/azure/security/key-vaults.png" width="101px" height="101px" preserveAspectRatio="xMinYMin meet" x="307.5" y="-424.5"/>
<text text-anchor="middle" x="358" y="-308.6" font-family="Sans-Serif" font-size="13.00" fill="#2d3436">Key Vault</text>
<text text-anchor="middle" x="358" y="-294.6" font-family="Sans-Serif" font-size="13.00" fill="#2d3436">(CMK)</text>
</g>
<!-- 37dd6f2955f243aa8c87bf36fd01a97b -->
<g id="node21" class="node">
<title>37dd6f2955f243aa8c87bf36fd01a97b</title>
<image xlink:href="/workspaces/sov-cloud-brain-trek/.venv/lib/python3.12/site-packages/resources/azure/storage/storage-accounts.png" width="101px" height="101px" preserveAspectRatio="xMinYMin meet" x="239.5" y="-172.5"/>
<text text-anchor="middle" x="290" y="-56.6" font-family="Sans-Serif" font-size="13.00" fill="#2d3436">Encrypted</text>
<text text-anchor="middle" x="290" y="-42.6" font-family="Sans-Serif" font-size="13.00" fill="#2d3436">Storage</text>
</g>
<!-- fec4e1dd85954c098e63219e31a7bdea&#45;&gt;37dd6f2955f243aa8c87bf36fd01a97b -->
<g id="edge18" class="edge">
<title>fec4e1dd85954c098e63219e31a7bdea&#45;&gt;37dd6f2955f243aa8c87bf36fd01a97b</title>
<path fill="none" stroke="#7b8894" stroke-dasharray="1,5" d="M324,-290.79C324,-290.79 324,-215.13 324,-215.13"/>
<polygon fill="#7b8894" stroke="#7b8894" points="327.5,-215.13 324,-205.13 320.5,-215.13 327.5,-215.13"/>
<text text-anchor="middle" x="341.5" y="-244.6" font-family="Sans-Serif" font-size="13.00" fill="#2d3436">CMK</text>
</g>
<!-- 51ca18de0bf443fa870819aa623aa9ef -->
<g id="node22" class="node">
<title>51ca18de0bf443fa870819aa623aa9ef</title>
<image xlink:href="/workspaces/sov-cloud-brain-trek/.venv/lib/python3.12/site-packages/resources/azure/database/sql-databases.png" width="101px" height="101px" preserveAspectRatio="xMinYMin meet" x="398.5" y="-172.5"/>
<text text-anchor="middle" x="449" y="-57.1" font-family="Sans-Serif" font-size="13.00" fill="#2d3436">SQL DB</text>
</g>
<!-- fec4e1dd85954c098e63219e31a7bdea&#45;&gt;51ca18de0bf443fa870819aa623aa9ef -->
<g id="edge19" class="edge">
<title>fec4e1dd85954c098e63219e31a7bdea&#45;&gt;51ca18de0bf443fa870819aa623aa9ef</title>
<path fill="none" stroke="#7b8894" stroke-dasharray="1,5" d="M403.5,-290.79C403.5,-290.79 403.5,-200.83 403.5,-200.83"/>
<polygon fill="#7b8894" stroke="#7b8894" points="407,-200.83 403.5,-190.83 400,-200.83 407,-200.83"/>
<text text-anchor="middle" x="448.5" y="-244.6" font-family="Sans-Serif" font-size="13.00" fill="#2d3436">CMK</text>
</g>
</g>
</svg>
