<?xml version="1.0" encoding="UTF-8" standalone="no"?>
<!DOCTYPE svg PUBLIC "-//W3C//DTD SVG 1.1//EN"
 "http://www.w3.org/Graphics/SVG/1.1/DTD/svg11.dtd">
<!-- Generated by graphviz version 2.43.0 (0)
 -->
<!-- Title: Zero Trust Architecture &#45; Sovereign Cloud Pages: 1 -->
<svg width="2095pt" height="1036pt"
 viewBox="0.00 0.00 2094.60 1035.60" xmlns="http://www.w3.org/2000/svg" xmlns:xlink="http://www.w3.org/1999/xlink">
<g id="graph0" class="graph" transform="scale(1 1) rotate(0) translate(28.8 1006.8)">
<title>Zero Trust Architecture &#45; Sovereign Cloud</title>
<polygon fill="white" stroke="transparent" points="-28.8,28.8 -28.8,-1006.8 2065.8,-1006.8 2065.8,28.8 -28.8,28.8"/>
<text text-anchor="middle" x="1018.5" y="-7.2" font-family="Sans-Serif" font-size="11.00" fill="#2d3436">Zero Trust Architecture &#45; Sovereign Cloud</text>
<g id="clust1" class="cluster">
<title>cluster_Identity &amp; Devices
(Never Trust)</title>
<path fill="#ffe6e6" stroke="#aeb6be" d="M16,-183C16,-183 117,-183 117,-183 123,-183 129,-189 129,-195 129,-195 129,-958 129,-958 129,-964 123,-970 117,-970 117,-970 16,-970 16,-970 10,-970 4,-964 4,-958 4,-958 4,-195 4,-195 4,-189 10,-183 16,-183"/>
<text text-anchor="middle" x="66.5" y="-956.4" font-family="Sans-Serif" font-size="12.00" fill="#2d3436">Identity &amp; Devices</text>
<text text-anchor="middle" x="66.5" y="-943.4" font-family="Sans-Serif" font-size="12.00" fill="#2d3436">(Never Trust)</text>
</g>
<g id="clust2" class="cluster">
<title>cluster_Verify Explicitly
(Identity Provider)</title>
<path fill="#e6f3ff" stroke="#aeb6be" stroke-width="2" d="M286,-526C286,-526 699,-526 699,-526 705,-526 711,-532 711,-538 711,-538 711,-730 711,-730 711,-736 705,-742 699,-742 699,-742 286,-742 286,-742 280,-742 274,-736 274,-730 274,-730 274,-538 274,-538 274,-532 280,-526 286,-526"/>
<text text-anchor="middle" x="335.5" y="-728.4" font-family="Sans-Serif" font-size="12.00" fill="#2d3436">Verify Explicitly</text>
<text text-anchor="middle" x="335.5" y="-715.4" font-family="Sans-Serif" font-size="12.00" fill="#2d3436">(Identity Provider)</text>
</g>
<g id="clust3" class="cluster">
<title>cluster_Assume Breach
(Network Security)</title>
<path fill="#fff3e6" stroke="#aeb6be" d="M820,-461C820,-461 1233,-461 1233,-461 1239,-461 1245,-467 1245,-473 1245,-473 1245,-665 1245,-665 1245,-671 1239,-677 1233,-677 1233,-677 820,-677 820,-677 814,-677 808,-671 808,-665 808,-665 808,-473 808,-473 808,-467 814,-461 820,-461"/>
<text text-anchor="middle" x="872" y="-663.4" font-family="Sans-Serif" font-size="12.00" fill="#2d3436">Assume Breach</text>
<text text-anchor="middle" x="872" y="-650.4" font-family="Sans-Serif" font-size="12.00" fill="#2d3436">(Network Security)</text>
</g>
<g id="clust4" class="cluster">
<title>cluster_Least Privilege Access
(Applications)</title>
<path fill="#e6ffe6" stroke="#aeb6be" d="M1388,-245C1388,-245 1641,-245 1641,-245 1647,-245 1653,-251 1653,-257 1653,-257 1653,-658 1653,-658 1653,-664 1647,-670 1641,-670 1641,-670 1388,-670 1388,-670 1382,-670 1376,-664 1376,-658 1376,-658 1376,-257 1376,-257 1376,-251 1382,-245 1388,-245"/>
<text text-anchor="middle" x="1450" y="-656.4" font-family="Sans-Serif" font-size="12.00" fill="#2d3436">Least Privilege Access</text>
<text text-anchor="middle" x="1450" y="-643.4" font-family="Sans-Serif" font-size="12.00" fill="#2d3436">(Applications)</text>
</g>
<g id="clust5" class="cluster">
<title>cluster_Data Protection
(Encrypt Everything)</title>
<path fill="#f3e6ff" stroke="#aeb6be" d="M1764,-28C1764,-28 2017,-28 2017,-28 2023,-28 2029,-34 2029,-40 2029,-40 2029,-441 2029,-441 2029,-447 2023,-453 2017,-453 2017,-453 1764,-453 1764,-453 1758,-453 1752,-447 1752,-441 1752,-441 1752,-40 1752,-40 1752,-34 1758,-28 1764,-28"/>
<text text-anchor="middle" x="1821.5" y="-439.4" font-family="Sans-Serif" font-size="12.00" fill="#2d3436">Data Protection</text>
<text text-anchor="middle" x="1821.5" y="-426.4" font-family="Sans-Serif" font-size="12.00" fill="#2d3436">(Encrypt Everything)</text>
</g>
<g id="clust6" class="cluster">
<title>cluster_Continuous Monitoring
(SecOps)</title>
<path fill="#e6e6e6" stroke="#aeb6be" d="M1764,-461C1764,-461 2017,-461 2017,-461 2023,-461 2029,-467 2029,-473 2029,-473 2029,-665 2029,-665 2029,-671 2023,-677 2017,-677 2017,-677 1764,-677 1764,-677 1758,-677 1752,-671 1752,-665 1752,-665 1752,-473 1752,-473 1752,-467 1758,-461 1764,-461"/>
<text text-anchor="middle" x="1827.5" y="-663.4" font-family="Sans-Serif" font-size="12.00" fill="#2d3436">Continuous Monitoring</text>
<text text-anchor="middle" x="1827.5" y="-650.4" font-family="Sans-Serif" font-size="12.00" fill="#2d3436">(SecOps)</text>
</g>
<!-- 6b5a206c5f144879ad8a8158e5f2d7bf -->
<g id="node1" class="node">
<title>6b5a206c5f144879ad8a8158e5f2d7bf</title>
<image xlink:href="/workspaces/sov-cloud-brain-trek/.venv/lib/python3.12/site-packages/resources/onprem/client/users.png" width="101px" height="101px" preserveAspectRatio="xMinYMin meet" x="16" y="-700.5"/>
<text text-anchor="middle" x="66.5" y="-585.1" font-family="Sans-Serif" font-size="13.00" fill="#2d3436">Users</text>
</g>
<!-- ce6533817ebf416d96f0998c9343c407 -->
<g id="node5" class="node">
<title>ce6533817ebf416d96f0998c9343c407</title>
<image xlink:href="/workspaces/sov-cloud-brain-trek/.venv/lib/python3.12/site-packages/resources/azure/identity/active-directory.png" width="101px" height="101px" preserveAspectRatio="xMinYMin meet" x="282" y="-667.5"/>
<text text-anchor="middle" x="332.5" y="-551.6" font-family="Sans-Serif" font-size="13.00" fill="#2d3436">Microsoft</text>
<text text-anchor="middle" x="332.5" y="-537.6" font-family="Sans-Serif" font-size="13.00" fill="#2d3436">Entra ID</text>
</g>
<!-- 6b5a206c5f144879ad8a8158e5f2d7bf&#45;&gt;ce6533817ebf416d96f0998c9343c407 -->
<g id="edge1" class="edge">
<title>6b5a206c5f144879ad8a8158e5f2d7bf&#45;&gt;ce6533817ebf416d96f0998c9343c407</title>
<path fill="none" stroke="blue" d="M117.16,-643.79C160.99,-638.31 224.99,-630.31 271.64,-624.48"/>
<polygon fill="blue" stroke="blue" points="272.13,-627.95 281.62,-623.24 271.26,-621 272.13,-627.95"/>
<text text-anchor="middle" x="201.5" y="-642.6" font-family="Sans-Serif" font-size="13.00" fill="#2d3436">1. Authenticate</text>
</g>
<!-- c49bc22b486b46d0b98c59c8f79860e3 -->
<g id="node2" class="node">
<title>c49bc22b486b46d0b98c59c8f79860e3</title>
<image xlink:href="/workspaces/sov-cloud-brain-trek/.venv/lib/python3.12/site-packages/resources/onprem/client/client.png" width="101px" height="101px" preserveAspectRatio="xMinYMin meet" x="16" y="-505.5"/>
<text text-anchor="middle" x="66.5" y="-389.6" font-family="Sans-Serif" font-size="13.00" fill="#2d3436">Managed</text>
<text text-anchor="middle" x="66.5" y="-375.6" font-family="Sans-Serif" font-size="13.00" fill="#2d3436">Device</text>
</g>
<!-- 5f91f2e1b8084bf085ec3bbeaaed47f5 -->
<g id="node6" class="node">
<title>5f91f2e1b8084bf085ec3bbeaaed47f5</title>
<image xlink:href="/workspaces/sov-cloud-brain-trek/.venv/lib/python3.12/site-packages/resources/azure/identity/conditional-access.png" width="101px" height="101px" preserveAspectRatio="xMinYMin meet" x="442" y="-667.5"/>
<text text-anchor="middle" x="492.5" y="-551.6" font-family="Sans-Serif" font-size="13.00" fill="#2d3436">Conditional</text>
<text text-anchor="middle" x="492.5" y="-537.6" font-family="Sans-Serif" font-size="13.00" fill="#2d3436">Access</text>
</g>
<!-- c49bc22b486b46d0b98c59c8f79860e3&#45;&gt;5f91f2e1b8084bf085ec3bbeaaed47f5 -->
<g id="edge2" class="edge">
<title>c49bc22b486b46d0b98c59c8f79860e3&#45;&gt;5f91f2e1b8084bf085ec3bbeaaed47f5</title>
<path fill="none" stroke="#7b8894" stroke-dasharray="5,2" d="M117.04,-455.44C181.65,-457.89 296.61,-468.79 383,-513 401.56,-522.5 419.11,-536.21 434.47,-550.56"/>
<polygon fill="#7b8894" stroke="#7b8894" points="432.2,-553.23 441.83,-557.65 437.05,-548.19 432.2,-553.23"/>
</g>
<!-- 20e3b4e8d670476ebfd0d12c87ef11c3 -->
<g id="node3" class="node">
<title>20e3b4e8d670476ebfd0d12c87ef11c3</title>
<image xlink:href="/workspaces/sov-cloud-brain-trek/.venv/lib/python3.12/site-packages/resources/generic/device/mobile.png" width="101px" height="101px" preserveAspectRatio="xMinYMin meet" x="16" y="-310.5"/>
<text text-anchor="middle" x="66.5" y="-195.1" font-family="Sans-Serif" font-size="13.00" fill="#2d3436">BYOD</text>
</g>
<!-- 20e3b4e8d670476ebfd0d12c87ef11c3&#45;&gt;5f91f2e1b8084bf085ec3bbeaaed47f5 -->
<g id="edge3" class="edge">
<title>20e3b4e8d670476ebfd0d12c87ef11c3&#45;&gt;5f91f2e1b8084bf085ec3bbeaaed47f5</title>
<path fill="none" stroke="#7b8894" stroke-dasharray="5,2" d="M117.19,-284.7C182.97,-318.99 300.3,-385.84 383,-465 402.21,-483.39 420.25,-505.6 435.89,-527.29"/>
<polygon fill="#7b8894" stroke="#7b8894" points="433.13,-529.44 441.77,-535.57 438.84,-525.39 433.13,-529.44"/>
</g>
<!-- 7e9d13b3b7844d06bf3d8fb719debb65 -->
<g id="node4" class="node">
<title>7e9d13b3b7844d06bf3d8fb719debb65</title>
<image xlink:href="/workspaces/sov-cloud-brain-trek/.venv/lib/python3.12/site-packages/resources/generic/device/tablet.png" width="101px" height="101px" preserveAspectRatio="xMinYMin meet" x="16" y="-895.5"/>
<text text-anchor="middle" x="66.5" y="-779.6" font-family="Sans-Serif" font-size="13.00" fill="#2d3436">Partner</text>
<text text-anchor="middle" x="66.5" y="-765.6" font-family="Sans-Serif" font-size="13.00" fill="#2d3436">Device</text>
</g>
<!-- 7e9d13b3b7844d06bf3d8fb719debb65&#45;&gt;5f91f2e1b8084bf085ec3bbeaaed47f5 -->
<g id="edge4" class="edge">
<title>7e9d13b3b7844d06bf3d8fb719debb65&#45;&gt;5f91f2e1b8084bf085ec3bbeaaed47f5</title>
<path fill="none" stroke="#7b8894" stroke-dasharray="5,2" d="M117.09,-832.3C181.76,-814.31 296.78,-777.31 383,-722 401.11,-710.38 418.76,-695.42 434.38,-680.46"/>
<polygon fill="#7b8894" stroke="#7b8894" points="437.18,-682.62 441.88,-673.13 432.28,-677.61 437.18,-682.62"/>
</g>
<!-- ce6533817ebf416d96f0998c9343c407&#45;&gt;5f91f2e1b8084bf085ec3bbeaaed47f5 -->
<g id="edge5" class="edge">
<title>ce6533817ebf416d96f0998c9343c407&#45;&gt;5f91f2e1b8084bf085ec3bbeaaed47f5</title>
<path fill="none" stroke="#7b8894" d="M383.06,-617C398.43,-617 415.53,-617 431.52,-617"/>
<polygon fill="#7b8894" stroke="#7b8894" points="431.85,-620.5 441.85,-617 431.85,-613.5 431.85,-620.5"/>
</g>
<!-- e1f6588f92ad4f6fa570df744fdd82c0 -->
<g id="node17" class="node">
<title>e1f6588f92ad4f6fa570df744fdd82c0</title>
<image xlink:href="/workspaces/sov-cloud-brain-trek/.venv/lib/python3.12/site-packages/resources/azure/security/sentinel.png" width="101px" height="101px" preserveAspectRatio="xMinYMin meet" x="1920" y="-602.5"/>
<text text-anchor="middle" x="1970.5" y="-486.6" font-family="Sans-Serif" font-size="13.00" fill="#2d3436">Microsoft</text>
<text text-anchor="middle" x="1970.5" y="-472.6" font-family="Sans-Serif" font-size="13.00" fill="#2d3436">Sentinel</text>
</g>
<!-- ce6533817ebf416d96f0998c9343c407&#45;&gt;e1f6588f92ad4f6fa570df744fdd82c0 -->
<g id="edge16" class="edge">
<title>ce6533817ebf416d96f0998c9343c407&#45;&gt;e1f6588f92ad4f6fa570df744fdd82c0</title>
<path fill="none" stroke="red" stroke-dasharray="1,5" d="M372.58,-700.01C399.19,-743.16 439.12,-787 491.5,-787 491.5,-787 491.5,-787 1811.5,-787 1883.31,-787 1924.61,-710.5 1946.84,-644.79"/>
<polygon fill="red" stroke="red" points="1950.2,-645.78 1949.98,-635.18 1943.55,-643.6 1950.2,-645.78"/>
</g>
<!-- b24b026c2f13445a92492be1a12353e8 -->
<g id="node7" class="node">
<title>b24b026c2f13445a92492be1a12353e8</title>
<image xlink:href="/workspaces/sov-cloud-brain-trek/.venv/lib/python3.12/site-packages/resources/azure/identity/managed-identities.png" width="101px" height="101px" preserveAspectRatio="xMinYMin meet" x="602" y="-667.5"/>
<text text-anchor="middle" x="652.5" y="-551.6" font-family="Sans-Serif" font-size="13.00" fill="#2d3436">MFA /</text>
<text text-anchor="middle" x="652.5" y="-537.6" font-family="Sans-Serif" font-size="13.00" fill="#2d3436">Passwordless</text>
</g>
<!-- 5f91f2e1b8084bf085ec3bbeaaed47f5&#45;&gt;b24b026c2f13445a92492be1a12353e8 -->
<g id="edge6" class="edge">
<title>5f91f2e1b8084bf085ec3bbeaaed47f5&#45;&gt;b24b026c2f13445a92492be1a12353e8</title>
<path fill="none" stroke="#7b8894" d="M543.06,-617C558.43,-617 575.53,-617 591.52,-617"/>
<polygon fill="#7b8894" stroke="#7b8894" points="591.85,-620.5 601.85,-617 591.85,-613.5 591.85,-620.5"/>
</g>
<!-- faf68a4563b54f7084e21b57eea58402 -->
<g id="node8" class="node">
<title>faf68a4563b54f7084e21b57eea58402</title>
<image xlink:href="/workspaces/sov-cloud-brain-trek/.venv/lib/python3.12/site-packages/resources/azure/network/application-gateway.png" width="101px" height="101px" preserveAspectRatio="xMinYMin meet" x="816" y="-609.5"/>
<text text-anchor="middle" x="866.5" y="-494.1" font-family="Sans-Serif" font-size="13.00" fill="#2d3436">WAF / DDoS</text>
</g>
<!-- b24b026c2f13445a92492be1a12353e8&#45;&gt;faf68a4563b54f7084e21b57eea58402 -->
<g id="edge7" class="edge">
<title>b24b026c2f13445a92492be1a12353e8&#45;&gt;faf68a4563b54f7084e21b57eea58402</title>
<path fill="none" stroke="green" d="M703.2,-603.4C733.93,-595 773.54,-584.16 805.93,-575.3"/>
<polygon fill="green" stroke="green" points="807.02,-578.63 815.74,-572.61 805.17,-571.88 807.02,-578.63"/>
<text text-anchor="middle" x="759.5" y="-597.6" font-family="Sans-Serif" font-size="13.00" fill="#2d3436">2. Token</text>
</g>
<!-- 98eafd28171d47b68b25fc15e8a7c93c -->
<g id="node9" class="node">
<title>98eafd28171d47b68b25fc15e8a7c93c</title>
<image xlink:href="/workspaces/sov-cloud-brain-trek/.venv/lib/python3.12/site-packages/resources/azure/network/firewall.png" width="101px" height="101px" preserveAspectRatio="xMinYMin meet" x="976" y="-602.5"/>
<text text-anchor="middle" x="1026.5" y="-486.6" font-family="Sans-Serif" font-size="13.00" fill="#2d3436">Azure Firewall</text>
<text text-anchor="middle" x="1026.5" y="-472.6" font-family="Sans-Serif" font-size="13.00" fill="#2d3436">(L7 Filtering)</text>
</g>
<!-- faf68a4563b54f7084e21b57eea58402&#45;&gt;98eafd28171d47b68b25fc15e8a7c93c -->
<g id="edge8" class="edge">
<title>faf68a4563b54f7084e21b57eea58402&#45;&gt;98eafd28171d47b68b25fc15e8a7c93c</title>
<path fill="none" stroke="#7b8894" d="M917.06,-556.8C932.43,-556.12 949.53,-555.37 965.52,-554.66"/>
<polygon fill="#7b8894" stroke="#7b8894" points="966.01,-558.14 975.85,-554.2 965.7,-551.15 966.01,-558.14"/>
</g>
<!-- ef389a7825454276b10f1e3f2652d1e9 -->
<g id="node10" class="node">
<title>ef389a7825454276b10f1e3f2652d1e9</title>
<image xlink:href="/workspaces/sov-cloud-brain-trek/.venv/lib/python3.12/site-packages/resources/azure/network/virtual-networks.png" width="101px" height="101px" preserveAspectRatio="xMinYMin meet" x="1136" y="-602.5"/>
<text text-anchor="middle" x="1186.5" y="-486.6" font-family="Sans-Serif" font-size="13.00" fill="#2d3436">Micro&#45;</text>
<text text-anchor="middle" x="1186.5" y="-472.6" font-family="Sans-Serif" font-size="13.00" fill="#2d3436">Segmentation</text>
</g>
<!-- 98eafd28171d47b68b25fc15e8a7c93c&#45;&gt;ef389a7825454276b10f1e3f2652d1e9 -->
<g id="edge9" class="edge">
<title>98eafd28171d47b68b25fc15e8a7c93c&#45;&gt;ef389a7825454276b10f1e3f2652d1e9</title>
<path fill="none" stroke="#7b8894" d="M1077.06,-552C1092.43,-552 1109.53,-552 1125.52,-552"/>
<polygon fill="#7b8894" stroke="#7b8894" points="1125.85,-555.5 1135.85,-552 1125.85,-548.5 1125.85,-555.5"/>
</g>
<!-- 98eafd28171d47b68b25fc15e8a7c93c&#45;&gt;e1f6588f92ad4f6fa570df744fdd82c0 -->
<g id="edge17" class="edge">
<title>98eafd28171d47b68b25fc15e8a7c93c&#45;&gt;e1f6588f92ad4f6fa570df744fdd82c0</title>
<path fill="none" stroke="red" stroke-dasharray="1,5" d="M1077.08,-634.65C1104.12,-668.56 1141.15,-700 1185.5,-700 1185.5,-700 1185.5,-700 1811.5,-700 1852.39,-700 1887.05,-673.28 1913.41,-642.54"/>
<polygon fill="red" stroke="red" points="1916.25,-644.59 1919.92,-634.65 1910.86,-640.13 1916.25,-644.59"/>
</g>
<!-- 212918b9209b4dac9694b46b44e2dc73 -->
<g id="node11" class="node">
<title>212918b9209b4dac9694b46b44e2dc73</title>
<image xlink:href="/workspaces/sov-cloud-brain-trek/.venv/lib/python3.12/site-packages/resources/azure/integration/api-management.png" width="101px" height="101px" preserveAspectRatio="xMinYMin meet" x="1384" y="-595.5"/>
<text text-anchor="middle" x="1434.5" y="-479.6" font-family="Sans-Serif" font-size="13.00" fill="#2d3436">API Gateway</text>
<text text-anchor="middle" x="1434.5" y="-465.6" font-family="Sans-Serif" font-size="13.00" fill="#2d3436">(Token Validation)</text>
</g>
<!-- ef389a7825454276b10f1e3f2652d1e9&#45;&gt;212918b9209b4dac9694b46b44e2dc73 -->
<g id="edge10" class="edge">
<title>ef389a7825454276b10f1e3f2652d1e9&#45;&gt;212918b9209b4dac9694b46b44e2dc73</title>
<path fill="none" stroke="purple" d="M1237.28,-550.58C1276.71,-549.46 1331.92,-547.89 1373.74,-546.7"/>
<polygon fill="purple" stroke="purple" points="1373.9,-550.2 1383.79,-546.41 1373.7,-543.2 1373.9,-550.2"/>
<text text-anchor="middle" x="1310.5" y="-566.6" font-family="Sans-Serif" font-size="13.00" fill="#2d3436">3. Authorized</text>
<text text-anchor="middle" x="1310.5" y="-552.6" font-family="Sans-Serif" font-size="13.00" fill="#2d3436">Request</text>
</g>
<!-- eab6235b0f4d42f0b82af2cc4e45d3b5 -->
<g id="node12" class="node">
<title>eab6235b0f4d42f0b82af2cc4e45d3b5</title>
<image xlink:href="/workspaces/sov-cloud-brain-trek/.venv/lib/python3.12/site-packages/resources/azure/compute/kubernetes-services.png" width="101px" height="101px" preserveAspectRatio="xMinYMin meet" x="1544" y="-386.5"/>
<text text-anchor="middle" x="1594.5" y="-270.6" font-family="Sans-Serif" font-size="13.00" fill="#2d3436">AKS</text>
<text text-anchor="middle" x="1594.5" y="-256.6" font-family="Sans-Serif" font-size="13.00" fill="#2d3436">(Workload ID)</text>
</g>
<!-- 212918b9209b4dac9694b46b44e2dc73&#45;&gt;eab6235b0f4d42f0b82af2cc4e45d3b5 -->
<g id="edge11" class="edge">
<title>212918b9209b4dac9694b46b44e2dc73&#45;&gt;eab6235b0f4d42f0b82af2cc4e45d3b5</title>
<path fill="none" stroke="#7b8894" d="M1485.06,-479.44C1501.74,-457.37 1520.47,-432.6 1537.61,-409.93"/>
<polygon fill="#7b8894" stroke="#7b8894" points="1540.61,-411.77 1543.85,-401.68 1535.02,-407.55 1540.61,-411.77"/>
</g>
<!-- 670ae3942ada4bf9b949e67e4a7cbe76 -->
<g id="node13" class="node">
<title>670ae3942ada4bf9b949e67e4a7cbe76</title>
<image xlink:href="/workspaces/sov-cloud-brain-trek/.venv/lib/python3.12/site-packages/resources/azure/compute/vm.png" width="101px" height="101px" preserveAspectRatio="xMinYMin meet" x="1544" y="-595.5"/>
<text text-anchor="middle" x="1594.5" y="-479.6" font-family="Sans-Serif" font-size="13.00" fill="#2d3436">VMs</text>
<text text-anchor="middle" x="1594.5" y="-465.6" font-family="Sans-Serif" font-size="13.00" fill="#2d3436">(JIT Access)</text>
</g>
<!-- 212918b9209b4dac9694b46b44e2dc73&#45;&gt;670ae3942ada4bf9b949e67e4a7cbe76 -->
<g id="edge12" class="edge">
<title>212918b9209b4dac9694b46b44e2dc73&#45;&gt;670ae3942ada4bf9b949e67e4a7cbe76</title>
<path fill="none" stroke="#7b8894" d="M1485.06,-545C1500.43,-545 1517.53,-545 1533.52,-545"/>
<polygon fill="#7b8894" stroke="#7b8894" points="1533.85,-548.5 1543.85,-545 1533.85,-541.5 1533.85,-548.5"/>
</g>
<!-- b82a326002314fdbbbe2dde91151956a -->
<g id="node14" class="node">
<title>b82a326002314fdbbbe2dde91151956a</title>
<image xlink:href="/workspaces/sov-cloud-brain-trek/.venv/lib/python3.12/site-packages/resources/azure/security/key-vaults.png" width="101px" height="101px" preserveAspectRatio="xMinYMin meet" x="1760" y="-378.5"/>
<text text-anchor="middle" x="1810.5" y="-262.6" font-family="Sans-Serif" font-size="13.00" fill="#2d3436">Key Vault</text>
<text text-anchor="middle" x="1810.5" y="-248.6" font-family="Sans-Serif" font-size="13.00" fill="#2d3436">(CMK/BYOK)</text>
</g>
<!-- eab6235b0f4d42f0b82af2cc4e45d3b5&#45;&gt;b82a326002314fdbbbe2dde91151956a -->
<g id="edge13" class="edge">
<title>eab6235b0f4d42f0b82af2cc4e45d3b5&#45;&gt;b82a326002314fdbbbe2dde91151956a</title>
<path fill="none" stroke="orange" d="M1645.13,-334.14C1676.22,-332.98 1716.47,-331.48 1749.37,-330.25"/>
<polygon fill="orange" stroke="orange" points="1749.9,-333.73 1759.77,-329.86 1749.64,-326.74 1749.9,-333.73"/>
<text text-anchor="middle" x="1702.5" y="-349.6" font-family="Sans-Serif" font-size="13.00" fill="#2d3436">4. Least</text>
<text text-anchor="middle" x="1702.5" y="-335.6" font-family="Sans-Serif" font-size="13.00" fill="#2d3436">Privilege</text>
</g>
<!-- 697b4ab0a6fd4d7bbc6b20c82cc5d9e6 -->
<g id="node18" class="node">
<title>697b4ab0a6fd4d7bbc6b20c82cc5d9e6</title>
<image xlink:href="/workspaces/sov-cloud-brain-trek/.venv/lib/python3.12/site-packages/resources/azure/security/security-center.png" width="101px" height="101px" preserveAspectRatio="xMinYMin meet" x="1760" y="-602.5"/>
<text text-anchor="middle" x="1810.5" y="-486.6" font-family="Sans-Serif" font-size="13.00" fill="#2d3436">Defender</text>
<text text-anchor="middle" x="1810.5" y="-472.6" font-family="Sans-Serif" font-size="13.00" fill="#2d3436">for Cloud</text>
</g>
<!-- eab6235b0f4d42f0b82af2cc4e45d3b5&#45;&gt;697b4ab0a6fd4d7bbc6b20c82cc5d9e6 -->
<g id="edge18" class="edge">
<title>eab6235b0f4d42f0b82af2cc4e45d3b5&#45;&gt;697b4ab0a6fd4d7bbc6b20c82cc5d9e6</title>
<path fill="none" stroke="red" stroke-dasharray="1,5" d="M1645.13,-386.1C1677.16,-418.42 1718.92,-460.58 1752.34,-494.3"/>
<polygon fill="red" stroke="red" points="1750.24,-497.16 1759.77,-501.8 1755.21,-492.23 1750.24,-497.16"/>
</g>
<!-- eb9ac3d71af44db5a4ab929f2a30a35e -->
<g id="node15" class="node">
<title>eb9ac3d71af44db5a4ab929f2a30a35e</title>
<image xlink:href="/workspaces/sov-cloud-brain-trek/.venv/lib/python3.12/site-packages/resources/azure/database/sql-databases.png" width="101px" height="101px" preserveAspectRatio="xMinYMin meet" x="1920" y="-169.5"/>
<text text-anchor="middle" x="1970.5" y="-53.6" font-family="Sans-Serif" font-size="13.00" fill="#2d3436">SQL</text>
<text text-anchor="middle" x="1970.5" y="-39.6" font-family="Sans-Serif" font-size="13.00" fill="#2d3436">(TDE + AE)</text>
</g>
<!-- b82a326002314fdbbbe2dde91151956a&#45;&gt;eb9ac3d71af44db5a4ab929f2a30a35e -->
<g id="edge14" class="edge">
<title>b82a326002314fdbbbe2dde91151956a&#45;&gt;eb9ac3d71af44db5a4ab929f2a30a35e</title>
<path fill="none" stroke="#7b8894" d="M1861.06,-262.44C1877.74,-240.37 1896.47,-215.6 1913.61,-192.93"/>
<polygon fill="#7b8894" stroke="#7b8894" points="1916.61,-194.77 1919.85,-184.68 1911.02,-190.55 1916.61,-194.77"/>
</g>
<!-- ce3cf0e3dd8a4e70a30de432cbc9e3f4 -->
<g id="node16" class="node">
<title>ce3cf0e3dd8a4e70a30de432cbc9e3f4</title>
<image xlink:href="/workspaces/sov-cloud-brain-trek/.venv/lib/python3.12/site-packages/resources/azure/storage/blob-storage.png" width="101px" height="101px" preserveAspectRatio="xMinYMin meet" x="1920" y="-378.5"/>
<text text-anchor="middle" x="1970.5" y="-262.6" font-family="Sans-Serif" font-size="13.00" fill="#2d3436">Storage</text>
<text text-anchor="middle" x="1970.5" y="-248.6" font-family="Sans-Serif" font-size="13.00" fill="#2d3436">(Encryption)</text>
</g>
<!-- b82a326002314fdbbbe2dde91151956a&#45;&gt;ce3cf0e3dd8a4e70a30de432cbc9e3f4 -->
<g id="edge15" class="edge">
<title>b82a326002314fdbbbe2dde91151956a&#45;&gt;ce3cf0e3dd8a4e70a30de432cbc9e3f4</title>
<path fill="none" stroke="#7b8894" d="M1861.06,-328C1876.43,-328 1893.53,-328 1909.52,-328"/>
<polygon fill="#7b8894" stroke="#7b8894" points="1909.85,-331.5 1919.85,-328 1909.85,-324.5 1909.85,-331.5"/>
</g>
<!-- 697b4ab0a6fd4d7bbc6b20c82cc5d9e6&#45;&gt;e1f6588f92ad4f6fa570df744fdd82c0 -->
<g id="edge19" class="edge">
<title>697b4ab0a6fd4d7bbc6b20c82cc5d9e6&#45;&gt;e1f6588f92ad4f6fa570df744fdd82c0</title>
<path fill="none" stroke="#7b8894" d="M1861.06,-552C1876.43,-552 1893.53,-552 1909.52,-552"/>
<polygon fill="#7b8894" stroke="#7b8894" points="1909.85,-555.5 1919.85,-552 1909.85,-548.5 1909.85,-555.5"/>
</g>
</g>
</svg>
