<?xml version="1.0" encoding="UTF-8" standalone="no"?>
<!DOCTYPE svg PUBLIC "-//W3C//DTD SVG 1.1//EN"
 "http://www.w3.org/Graphics/SVG/1.1/DTD/svg11.dtd">
<!-- Generated by graphviz version 2.43.0 (0)
 -->
<!-- Title: Azure Local Architecture Stack Pages: 1 -->
<svg width="526pt" height="1627pt"
 viewBox="0.00 0.00 526.00 1627.00" xmlns="http://www.w3.org/2000/svg" xmlns:xlink="http://www.w3.org/1999/xlink">
<g id="graph0" class="graph" transform="scale(1 1) rotate(0) translate(36 1591)">
<title>Azure Local Architecture Stack</title>
<polygon fill="white" stroke="transparent" points="-36,36 -36,-1591 490,-1591 490,36 -36,36"/>
<text text-anchor="middle" x="227" y="-7.8" font-family="Sans-Serif" font-size="14.00" fill="#2d3436">Azure Local Architecture Stack</text>
<g id="clust1" class="cluster">
<title>cluster_Azure Cloud</title>
<path fill="#e5f5fd" stroke="#aeb6be" d="M107,-1168C107,-1168 345,-1168 345,-1168 351,-1168 357,-1174 357,-1180 357,-1180 357,-1535 357,-1535 357,-1541 351,-1547 345,-1547 345,-1547 107,-1547 107,-1547 101,-1547 95,-1541 95,-1535 95,-1535 95,-1180 95,-1180 95,-1174 101,-1168 107,-1168"/>
<text text-anchor="middle" x="139" y="-1533.4" font-family="Sans-Serif" font-size="12.00" fill="#2d3436">Azure Cloud</text>
</g>
<g id="clust2" class="cluster">
<title>cluster_On&#45;Premises &#45; Azure Local Cluster</title>
<path fill="#e5f5fd" stroke="#aeb6be" d="M20,-31C20,-31 434,-31 434,-31 440,-31 446,-37 446,-43 446,-43 446,-1115 446,-1115 446,-1121 440,-1127 434,-1127 434,-1127 20,-1127 20,-1127 14,-1127 8,-1121 8,-1115 8,-1115 8,-43 8,-43 8,-37 14,-31 20,-31"/>
<text text-anchor="middle" x="117" y="-1113.4" font-family="Sans-Serif" font-size="12.00" fill="#2d3436">On&#45;Premises &#45; Azure Local Cluster</text>
</g>
<g id="clust3" class="cluster">
<title>cluster_Management Layer</title>
<path fill="#ebf3e7" stroke="#aeb6be" d="M172,-703C172,-703 282,-703 282,-703 288,-703 294,-709 294,-715 294,-715 294,-1086 294,-1086 294,-1092 288,-1098 282,-1098 282,-1098 172,-1098 172,-1098 166,-1098 160,-1092 160,-1086 160,-1086 160,-715 160,-715 160,-709 166,-703 172,-703"/>
<text text-anchor="middle" x="227" y="-1084.4" font-family="Sans-Serif" font-size="12.00" fill="#2d3436">Management Layer</text>
</g>
<g id="clust4" class="cluster">
<title>cluster_Workload Layer</title>
<path fill="#ebf3e7" stroke="#aeb6be" d="M28,-464C28,-464 426,-464 426,-464 432,-464 438,-470 438,-476 438,-476 438,-663 438,-663 438,-669 432,-675 426,-675 426,-675 28,-675 28,-675 22,-675 16,-669 16,-663 16,-663 16,-476 16,-476 16,-470 22,-464 28,-464"/>
<text text-anchor="middle" x="71" y="-661.4" font-family="Sans-Serif" font-size="12.00" fill="#2d3436">Workload Layer</text>
</g>
<g id="clust5" class="cluster">
<title>cluster_Virtual Machines</title>
<path fill="#ece8f6" stroke="#aeb6be" d="M36,-472C36,-472 274,-472 274,-472 280,-472 286,-478 286,-484 286,-484 286,-634 286,-634 286,-640 280,-646 274,-646 274,-646 36,-646 36,-646 30,-646 24,-640 24,-634 24,-634 24,-484 24,-484 24,-478 30,-472 36,-472"/>
<text text-anchor="middle" x="82" y="-632.4" font-family="Sans-Serif" font-size="12.00" fill="#2d3436">Virtual Machines</text>
</g>
<g id="clust6" class="cluster">
<title>cluster_Kubernetes</title>
<path fill="#ece8f6" stroke="#aeb6be" d="M324,-472C324,-472 418,-472 418,-472 424,-472 430,-478 430,-484 430,-484 430,-634 430,-634 430,-640 424,-646 418,-646 418,-646 324,-646 324,-646 318,-646 312,-640 312,-634 312,-634 312,-484 312,-484 312,-478 318,-472 324,-472"/>
<text text-anchor="middle" x="354" y="-632.4" font-family="Sans-Serif" font-size="12.00" fill="#2d3436">Kubernetes</text>
</g>
<g id="clust7" class="cluster">
<title>cluster_Platform Layer</title>
<path fill="#ebf3e7" stroke="#aeb6be" d="M44,-241C44,-241 426,-241 426,-241 432,-241 438,-247 438,-253 438,-253 438,-432 438,-432 438,-438 432,-444 426,-444 426,-444 44,-444 44,-444 38,-444 32,-438 32,-432 32,-432 32,-253 32,-253 32,-247 38,-241 44,-241"/>
<text text-anchor="middle" x="84.5" y="-430.4" font-family="Sans-Serif" font-size="12.00" fill="#2d3436">Platform Layer</text>
</g>
<g id="clust8" class="cluster">
<title>cluster_Hardware Layer</title>
<path fill="#ebf3e7" stroke="#aeb6be" d="M44,-39C44,-39 426,-39 426,-39 432,-39 438,-45 438,-51 438,-51 438,-201 438,-201 438,-207 432,-213 426,-213 426,-213 44,-213 44,-213 38,-213 32,-207 32,-201 32,-201 32,-51 32,-51 32,-45 38,-39 44,-39"/>
<text text-anchor="middle" x="88" y="-199.4" font-family="Sans-Serif" font-size="12.00" fill="#2d3436">Hardware Layer</text>
</g>
<!-- 88708d9956ad43ebb912a41b0e8b6d95 -->
<g id="node1" class="node">
<title>88708d9956ad43ebb912a41b0e8b6d95</title>
<image xlink:href="/workspaces/sov-cloud-brain-trek/.venv/lib/python3.12/site-packages/resources/azure/devops/repos.png" width="101px" height="101px" preserveAspectRatio="xMinYMin meet" x="107.5" y="-1295"/>
<text text-anchor="middle" x="158" y="-1179.2" font-family="Sans-Serif" font-size="11.00" fill="#2d3436">Azure Arc</text>
</g>
<!-- f5007d0e40224bb1a49cad7d9c8334b2 -->
<g id="node5" class="node">
<title>f5007d0e40224bb1a49cad7d9c8334b2</title>
<image xlink:href="/workspaces/sov-cloud-brain-trek/.venv/lib/python3.12/site-packages/resources/azure/devops/repos.png" width="101px" height="101px" preserveAspectRatio="xMinYMin meet" x="176.5" y="-1051"/>
<text text-anchor="middle" x="227" y="-935.2" font-family="Sans-Serif" font-size="11.00" fill="#2d3436">Arc Agent</text>
</g>
<!-- 88708d9956ad43ebb912a41b0e8b6d95&#45;&gt;f5007d0e40224bb1a49cad7d9c8334b2 -->
<g id="edge2" class="edge">
<title>88708d9956ad43ebb912a41b0e8b6d95&#45;&gt;f5007d0e40224bb1a49cad7d9c8334b2</title>
<path fill="none" stroke="#7b8894" d="M192.5,-1175.88C192.5,-1175.88 192.5,-1079.02 192.5,-1079.02"/>
<polygon fill="#7b8894" stroke="#7b8894" points="196,-1079.02 192.5,-1069.02 189,-1079.02 196,-1079.02"/>
<text text-anchor="middle" x="214" y="-1138.6" font-family="Sans-Serif" font-size="13.00" fill="#2d3436">Policies</text>
</g>
<!-- c56e9b5658aa4cfe897338f9440a0f50 -->
<g id="node2" class="node">
<title>c56e9b5658aa4cfe897338f9440a0f50</title>
<image xlink:href="/workspaces/sov-cloud-brain-trek/.venv/lib/python3.12/site-packages/resources/azure/general/resourcegroups.png" width="101px" height="101px" preserveAspectRatio="xMinYMin meet" x="103.5" y="-1500"/>
<text text-anchor="middle" x="154" y="-1384.2" font-family="Sans-Serif" font-size="11.00" fill="#2d3436">Azure Portal</text>
</g>
<!-- c56e9b5658aa4cfe897338f9440a0f50&#45;&gt;88708d9956ad43ebb912a41b0e8b6d95 -->
<g id="edge1" class="edge">
<title>c56e9b5658aa4cfe897338f9440a0f50&#45;&gt;88708d9956ad43ebb912a41b0e8b6d95</title>
<path fill="none" stroke="#7b8894" d="M156,-1380.95C156,-1380.95 156,-1323.33 156,-1323.33"/>
<polygon fill="#7b8894" stroke="#7b8894" points="159.5,-1323.33 156,-1313.33 152.5,-1323.33 159.5,-1323.33"/>
<text text-anchor="middle" x="199" y="-1343.6" font-family="Sans-Serif" font-size="13.00" fill="#2d3436">Management</text>
</g>
<!-- 60d0147fe56c42f7bde93890065e5e1a -->
<g id="node3" class="node">
<title>60d0147fe56c42f7bde93890065e5e1a</title>
<image xlink:href="/workspaces/sov-cloud-brain-trek/.venv/lib/python3.12/site-packages/resources/azure/identity/active-directory.png" width="101px" height="101px" preserveAspectRatio="xMinYMin meet" x="247.5" y="-1500"/>
<text text-anchor="middle" x="298" y="-1384.2" font-family="Sans-Serif" font-size="11.00" fill="#2d3436">Entra ID</text>
</g>
<!-- 60d0147fe56c42f7bde93890065e5e1a&#45;&gt;f5007d0e40224bb1a49cad7d9c8334b2 -->
<g id="edge3" class="edge">
<title>60d0147fe56c42f7bde93890065e5e1a&#45;&gt;f5007d0e40224bb1a49cad7d9c8334b2</title>
<path fill="none" stroke="#7b8894" d="M262.5,-1380.82C262.5,-1380.82 262.5,-1079.17 262.5,-1079.17"/>
<polygon fill="#7b8894" stroke="#7b8894" points="266,-1079.17 262.5,-1069.17 259,-1079.17 266,-1079.17"/>
<text text-anchor="middle" x="322.5" y="-1241.1" font-family="Sans-Serif" font-size="13.00" fill="#2d3436">Identity</text>
</g>
<!-- 557c258e91634a32bda4e1bed9807c29 -->
<g id="node4" class="node">
<title>557c258e91634a32bda4e1bed9807c29</title>
<image xlink:href="/workspaces/sov-cloud-brain-trek/.venv/lib/python3.12/site-packages/resources/azure/general/resourcegroups.png" width="101px" height="101px" preserveAspectRatio="xMinYMin meet" x="176.5" y="-844.5"/>
<text text-anchor="middle" x="227" y="-726.2" font-family="Sans-Serif" font-size="11.00" fill="#2d3436">Windows Admin</text>
<text text-anchor="middle" x="227" y="-714.2" font-family="Sans-Serif" font-size="11.00" fill="#2d3436">Center</text>
</g>
<!-- be938e6bf69d4dc1966827eecc5d8724 -->
<g id="node6" class="node">
<title>be938e6bf69d4dc1966827eecc5d8724</title>
<image xlink:href="/workspaces/sov-cloud-brain-trek/.venv/lib/python3.12/site-packages/resources/azure/compute/vm.png" width="101px" height="101px" preserveAspectRatio="xMinYMin meet" x="32.5" y="-599"/>
<text text-anchor="middle" x="83" y="-483.2" font-family="Sans-Serif" font-size="11.00" fill="#2d3436">VM 1</text>
</g>
<!-- 557c258e91634a32bda4e1bed9807c29&#45;&gt;be938e6bf69d4dc1966827eecc5d8724 -->
<g id="edge5" class="edge">
<title>557c258e91634a32bda4e1bed9807c29&#45;&gt;be938e6bf69d4dc1966827eecc5d8724</title>
<path fill="none" stroke="#7b8894" d="M176.25,-794C148.82,-794 120.5,-794 120.5,-794 120.5,-794 120.5,-627.21 120.5,-627.21"/>
<polygon fill="#7b8894" stroke="#7b8894" points="124,-627.21 120.5,-617.21 117,-627.21 124,-627.21"/>
</g>
<!-- fc0634356bbc4aa3be4294734e608ab0 -->
<g id="node7" class="node">
<title>fc0634356bbc4aa3be4294734e608ab0</title>
<image xlink:href="/workspaces/sov-cloud-brain-trek/.venv/lib/python3.12/site-packages/resources/azure/compute/vm.png" width="101px" height="101px" preserveAspectRatio="xMinYMin meet" x="176.5" y="-599"/>
<text text-anchor="middle" x="227" y="-483.2" font-family="Sans-Serif" font-size="11.00" fill="#2d3436">VM 2</text>
</g>
<!-- 557c258e91634a32bda4e1bed9807c29&#45;&gt;fc0634356bbc4aa3be4294734e608ab0 -->
<g id="edge6" class="edge">
<title>557c258e91634a32bda4e1bed9807c29&#45;&gt;fc0634356bbc4aa3be4294734e608ab0</title>
<path fill="none" stroke="#7b8894" d="M227,-710.88C227,-710.88 227,-627.24 227,-627.24"/>
<polygon fill="#7b8894" stroke="#7b8894" points="230.5,-627.24 227,-617.24 223.5,-627.24 230.5,-627.24"/>
</g>
<!-- da21f13e53b249b6ba96841e8da688b0 -->
<g id="node8" class="node">
<title>da21f13e53b249b6ba96841e8da688b0</title>
<image xlink:href="/workspaces/sov-cloud-brain-trek/.venv/lib/python3.12/site-packages/resources/azure/compute/kubernetes-services.png" width="101px" height="101px" preserveAspectRatio="xMinYMin meet" x="320.5" y="-599"/>
<text text-anchor="middle" x="371" y="-483.2" font-family="Sans-Serif" font-size="11.00" fill="#2d3436">AKS Hybrid</text>
</g>
<!-- 557c258e91634a32bda4e1bed9807c29&#45;&gt;da21f13e53b249b6ba96841e8da688b0 -->
<g id="edge7" class="edge">
<title>557c258e91634a32bda4e1bed9807c29&#45;&gt;da21f13e53b249b6ba96841e8da688b0</title>
<path fill="none" stroke="#7b8894" d="M277.6,-794C305.48,-794 334.5,-794 334.5,-794 334.5,-794 334.5,-627.21 334.5,-627.21"/>
<polygon fill="#7b8894" stroke="#7b8894" points="338,-627.21 334.5,-617.21 331,-627.21 338,-627.21"/>
</g>
<!-- f5007d0e40224bb1a49cad7d9c8334b2&#45;&gt;557c258e91634a32bda4e1bed9807c29 -->
<g id="edge4" class="edge">
<title>f5007d0e40224bb1a49cad7d9c8334b2&#45;&gt;557c258e91634a32bda4e1bed9807c29</title>
<path fill="none" stroke="#7b8894" d="M227,-931.74C227,-931.74 227,-887.17 227,-887.17"/>
<polygon fill="#7b8894" stroke="#7b8894" points="230.5,-887.17 227,-877.17 223.5,-887.17 230.5,-887.17"/>
</g>
<!-- 68c2c4a060c149e3990ff9f4050c4011 -->
<g id="node9" class="node">
<title>68c2c4a060c149e3990ff9f4050c4011</title>
<image xlink:href="/workspaces/sov-cloud-brain-trek/.venv/lib/python3.12/site-packages/resources/azure/general/resourcegroups.png" width="101px" height="101px" preserveAspectRatio="xMinYMin meet" x="40.5" y="-382.5"/>
<text text-anchor="middle" x="91" y="-266.7" font-family="Sans-Serif" font-size="11.00" fill="#2d3436">Hyper&#45;V</text>
</g>
<!-- be938e6bf69d4dc1966827eecc5d8724&#45;&gt;68c2c4a060c149e3990ff9f4050c4011 -->
<g id="edge8" class="edge">
<title>be938e6bf69d4dc1966827eecc5d8724&#45;&gt;68c2c4a060c149e3990ff9f4050c4011</title>
<path fill="none" stroke="#7b8894" d="M87,-480C87,-480 87,-410.8 87,-410.8"/>
<polygon fill="#7b8894" stroke="#7b8894" points="90.5,-410.8 87,-400.8 83.5,-410.8 90.5,-410.8"/>
</g>
<!-- fc0634356bbc4aa3be4294734e608ab0&#45;&gt;68c2c4a060c149e3990ff9f4050c4011 -->
<g id="edge9" class="edge">
<title>fc0634356bbc4aa3be4294734e608ab0&#45;&gt;68c2c4a060c149e3990ff9f4050c4011</title>
<path fill="none" stroke="#7b8894" d="M176.27,-548C155.47,-548 136.17,-548 136.17,-548 136.17,-548 136.17,-410.64 136.17,-410.64"/>
<polygon fill="#7b8894" stroke="#7b8894" points="139.67,-410.64 136.17,-400.64 132.67,-410.64 139.67,-410.64"/>
</g>
<!-- da21f13e53b249b6ba96841e8da688b0&#45;&gt;68c2c4a060c149e3990ff9f4050c4011 -->
<g id="edge10" class="edge">
<title>da21f13e53b249b6ba96841e8da688b0&#45;&gt;68c2c4a060c149e3990ff9f4050c4011</title>
<path fill="none" stroke="#7b8894" d="M324.5,-479.95C324.5,-461.72 324.5,-447 324.5,-447 324.5,-447 138.83,-447 138.83,-447 138.83,-447 138.83,-410.56 138.83,-410.56"/>
<polygon fill="#7b8894" stroke="#7b8894" points="142.33,-410.56 138.83,-400.56 135.33,-410.56 142.33,-410.56"/>
</g>
<!-- b80e9743ac194a9bb4e367d32c08e745 -->
<g id="node12" class="node">
<title>b80e9743ac194a9bb4e367d32c08e745</title>
<image xlink:href="/workspaces/sov-cloud-brain-trek/.venv/lib/python3.12/site-packages/resources/azure/integration/azure-stack-edge.png" width="101px" height="101px" preserveAspectRatio="xMinYMin meet" x="328.5" y="-166"/>
<text text-anchor="middle" x="379" y="-50.2" font-family="Sans-Serif" font-size="11.00" fill="#2d3436">Node 1</text>
</g>
<!-- 68c2c4a060c149e3990ff9f4050c4011&#45;&gt;b80e9743ac194a9bb4e367d32c08e745 -->
<g id="edge11" class="edge">
<title>68c2c4a060c149e3990ff9f4050c4011&#45;&gt;b80e9743ac194a9bb4e367d32c08e745</title>
<path fill="none" stroke="#7b8894" d="M74.17,-263.3C74.17,-233.37 74.17,-205 74.17,-205 74.17,-205 353.75,-205 353.75,-205 353.75,-205 353.75,-194.24 353.75,-194.24"/>
<polygon fill="#7b8894" stroke="#7b8894" points="357.25,-194.24 353.75,-184.24 350.25,-194.24 357.25,-194.24"/>
</g>
<!-- 252d1c2dbebb49e689a69d9a3554f340 -->
<g id="node13" class="node">
<title>252d1c2dbebb49e689a69d9a3554f340</title>
<image xlink:href="/workspaces/sov-cloud-brain-trek/.venv/lib/python3.12/site-packages/resources/azure/integration/azure-stack-edge.png" width="101px" height="101px" preserveAspectRatio="xMinYMin meet" x="40.5" y="-166"/>
<text text-anchor="middle" x="91" y="-50.2" font-family="Sans-Serif" font-size="11.00" fill="#2d3436">Node 2</text>
</g>
<!-- 68c2c4a060c149e3990ff9f4050c4011&#45;&gt;252d1c2dbebb49e689a69d9a3554f340 -->
<g id="edge12" class="edge">
<title>68c2c4a060c149e3990ff9f4050c4011&#45;&gt;252d1c2dbebb49e689a69d9a3554f340</title>
<path fill="none" stroke="#7b8894" d="M57.33,-263.5C57.33,-263.5 57.33,-194.3 57.33,-194.3"/>
<polygon fill="#7b8894" stroke="#7b8894" points="60.83,-194.3 57.33,-184.3 53.83,-194.3 60.83,-194.3"/>
</g>
<!-- fd9083d71f8e41cb9091c7bd2c04fdf7 -->
<g id="node14" class="node">
<title>fd9083d71f8e41cb9091c7bd2c04fdf7</title>
<image xlink:href="/workspaces/sov-cloud-brain-trek/.venv/lib/python3.12/site-packages/resources/azure/integration/azure-stack-edge.png" width="101px" height="101px" preserveAspectRatio="xMinYMin meet" x="184.5" y="-166"/>
<text text-anchor="middle" x="235" y="-50.2" font-family="Sans-Serif" font-size="11.00" fill="#2d3436">Node 3</text>
</g>
<!-- 68c2c4a060c149e3990ff9f4050c4011&#45;&gt;fd9083d71f8e41cb9091c7bd2c04fdf7 -->
<g id="edge13" class="edge">
<title>68c2c4a060c149e3990ff9f4050c4011&#45;&gt;fd9083d71f8e41cb9091c7bd2c04fdf7</title>
<path fill="none" stroke="#7b8894" d="M91,-263.3C91,-255.91 91,-251 91,-251 91,-251 218.17,-251 218.17,-251 218.17,-251 218.17,-194.04 218.17,-194.04"/>
<polygon fill="#7b8894" stroke="#7b8894" points="221.67,-194.04 218.17,-184.04 214.67,-194.04 221.67,-194.04"/>
</g>
<!-- 21abdec6795048449a78521bf12a1e82 -->
<g id="node10" class="node">
<title>21abdec6795048449a78521bf12a1e82</title>
<image xlink:href="/workspaces/sov-cloud-brain-trek/.venv/lib/python3.12/site-packages/resources/azure/network/virtual-networks.png" width="101px" height="101px" preserveAspectRatio="xMinYMin meet" x="184.5" y="-382.5"/>
<text text-anchor="middle" x="235" y="-266.7" font-family="Sans-Serif" font-size="11.00" fill="#2d3436">SDN</text>
</g>
<!-- 21abdec6795048449a78521bf12a1e82&#45;&gt;b80e9743ac194a9bb4e367d32c08e745 -->
<g id="edge14" class="edge">
<title>21abdec6795048449a78521bf12a1e82&#45;&gt;b80e9743ac194a9bb4e367d32c08e745</title>
<path fill="none" stroke="#7b8894" d="M268.67,-263.43C268.67,-243.51 268.67,-227 268.67,-227 268.67,-227 379,-227 379,-227 379,-227 379,-194.21 379,-194.21"/>
<polygon fill="#7b8894" stroke="#7b8894" points="382.5,-194.21 379,-184.21 375.5,-194.21 382.5,-194.21"/>
</g>
<!-- 21abdec6795048449a78521bf12a1e82&#45;&gt;252d1c2dbebb49e689a69d9a3554f340 -->
<g id="edge15" class="edge">
<title>21abdec6795048449a78521bf12a1e82&#45;&gt;252d1c2dbebb49e689a69d9a3554f340</title>
<path fill="none" stroke="#7b8894" d="M201.33,-263.47C201.33,-261.27 201.33,-260 201.33,-260 201.33,-260 107.83,-260 107.83,-260 107.83,-260 107.83,-194.36 107.83,-194.36"/>
<polygon fill="#7b8894" stroke="#7b8894" points="111.33,-194.36 107.83,-184.36 104.33,-194.36 111.33,-194.36"/>
</g>
<!-- 21abdec6795048449a78521bf12a1e82&#45;&gt;fd9083d71f8e41cb9091c7bd2c04fdf7 -->
<g id="edge16" class="edge">
<title>21abdec6795048449a78521bf12a1e82&#45;&gt;fd9083d71f8e41cb9091c7bd2c04fdf7</title>
<path fill="none" stroke="#7b8894" d="M235,-263.5C235,-263.5 235,-194.3 235,-194.3"/>
<polygon fill="#7b8894" stroke="#7b8894" points="238.5,-194.3 235,-184.3 231.5,-194.3 238.5,-194.3"/>
</g>
<!-- 601879d6f1a3452f9a08cfaa119ecd31 -->
<g id="node11" class="node">
<title>601879d6f1a3452f9a08cfaa119ecd31</title>
<image xlink:href="/workspaces/sov-cloud-brain-trek/.venv/lib/python3.12/site-packages/resources/azure/storage/storage-accounts.png" width="101px" height="101px" preserveAspectRatio="xMinYMin meet" x="328.5" y="-382.5"/>
<text text-anchor="middle" x="379" y="-264.2" font-family="Sans-Serif" font-size="11.00" fill="#2d3436">Storage Spaces</text>
<text text-anchor="middle" x="379" y="-252.2" font-family="Sans-Serif" font-size="11.00" fill="#2d3436">Direct</text>
</g>
<!-- 601879d6f1a3452f9a08cfaa119ecd31&#45;&gt;b80e9743ac194a9bb4e367d32c08e745 -->
<g id="edge17" class="edge">
<title>601879d6f1a3452f9a08cfaa119ecd31&#45;&gt;b80e9743ac194a9bb4e367d32c08e745</title>
<path fill="none" stroke="#7b8894" d="M404.25,-248.91C404.25,-248.91 404.25,-194.31 404.25,-194.31"/>
<polygon fill="#7b8894" stroke="#7b8894" points="407.75,-194.31 404.25,-184.31 400.75,-194.31 407.75,-194.31"/>
</g>
<!-- 601879d6f1a3452f9a08cfaa119ecd31&#45;&gt;252d1c2dbebb49e689a69d9a3554f340 -->
<g id="edge18" class="edge">
<title>601879d6f1a3452f9a08cfaa119ecd31&#45;&gt;252d1c2dbebb49e689a69d9a3554f340</title>
<path fill="none" stroke="#7b8894" d="M328.45,-257C254.28,-257 124.67,-257 124.67,-257 124.67,-257 124.67,-194.18 124.67,-194.18"/>
<polygon fill="#7b8894" stroke="#7b8894" points="128.17,-194.18 124.67,-184.18 121.17,-194.18 128.17,-194.18"/>
</g>
<!-- 601879d6f1a3452f9a08cfaa119ecd31&#45;&gt;fd9083d71f8e41cb9091c7bd2c04fdf7 -->
<g id="edge19" class="edge">
<title>601879d6f1a3452f9a08cfaa119ecd31&#45;&gt;fd9083d71f8e41cb9091c7bd2c04fdf7</title>
<path fill="none" stroke="#7b8894" d="M328.37,-254C292.91,-254 251.83,-254 251.83,-254 251.83,-254 251.83,-194.34 251.83,-194.34"/>
<polygon fill="#7b8894" stroke="#7b8894" points="255.33,-194.34 251.83,-184.34 248.33,-194.34 255.33,-194.34"/>
</g>
</g>
</svg>
