<?xml version="1.0" encoding="utf-8" standalone="no"?>
<!DOCTYPE svg PUBLIC "-//W3C//DTD SVG 1.1//EN"
  "http://www.w3.org/Graphics/SVG/1.1/DTD/svg11.dtd">
<svg xmlns:xlink="http://www.w3.org/1999/xlink" width="972pt" height="424.8pt" viewBox="0 0 972 424.8" xmlns="http://www.w3.org/2000/svg" version="1.1">
 <metadata>
  <rdf:RDF xmlns:dc="http://purl.org/dc/elements/1.1/" xmlns:cc="http://creativecommons.org/ns#" xmlns:rdf="http://www.w3.org/1999/02/22-rdf-syntax-ns#">
   <cc:Work>
    <dc:type rdf:resource="http://purl.org/dc/dcmitype/StillImage"/>
    <dc:date>2025-11-27T19:33:30.322411</dc:date>
    <dc:format>image/svg+xml</dc:format>
    <dc:creator>
     <cc:Agent>
      <dc:title>Matplotlib v3.10.7, https://matplotlib.org/</dc:title>
     </cc:Agent>
    </dc:creator>
   </cc:Work>
  </rdf:RDF>
 </metadata>
 <defs>
  <style type="text/css">*{stroke-linejoin: round; stroke-linecap: butt}</style>
 </defs>
 <g id="figure_1">
  <g id="patch_1">
   <path d="M 0 424.8
L 972 424.8
L 972 0
L 0 0
z
" style="fill: #ffffff"/>
  </g>
  <g id="axes_1">
   <g id="patch_2">
    <path d="M 75.6 246.6
C 84.669946 246.6 93.369632 242.996472 99.783052 236.583052
C 106.196472 230.169632 109.8 221.469946 109.8 212.4
C 109.8 203.330054 106.196472 194.630368 99.783052 188.216948
C 93.369632 181.803528 84.669946 178.2 75.6 178.2
C 66.530054 178.2 57.830368 181.803528 51.416948 188.216948
C 45.003528 194.630368 41.4 203.330054 41.4 212.4
C 41.4 221.469946 45.003528 230.169632 51.416948 236.583052
C 57.830368 242.996472 66.530054 246.6 75.6 246.6
z
" clip-path="url(#pec5cc4173e)" style="fill: #ffffff; stroke: #004578; stroke-width: 2; stroke-linejoin: miter"/>
   </g>
   <g id="patch_3">
    <path d="M 178.2 254.808
L 315 254.808
Q 316.368 254.808 316.368 253.44
L 316.368 171.36
Q 316.368 169.992 315 169.992
L 178.2 169.992
Q 176.832 169.992 176.832 171.36
L 176.832 253.44
Q 176.832 254.808 178.2 254.808
z
" clip-path="url(#pec5cc4173e)" style="fill: #bbdefb; stroke: #0078d4; stroke-width: 2; stroke-linejoin: miter"/>
   </g>
   <g id="patch_4">
    <path d="M 417.6 171.36
L 465.48 212.4
L 417.6 253.44
L 369.72 212.4
z
" clip-path="url(#pec5cc4173e)" style="fill: #ffffff; stroke: #004578; stroke-width: 2; stroke-linejoin: miter"/>
   </g>
   <g id="patch_5">
    <path d="M 520.2 254.808
L 657 254.808
Q 658.368 254.808 658.368 253.44
L 658.368 171.36
Q 658.368 169.992 657 169.992
L 520.2 169.992
Q 518.832 169.992 518.832 171.36
L 518.832 253.44
Q 518.832 254.808 520.2 254.808
z
" clip-path="url(#pec5cc4173e)" style="fill: #c8e6c9; stroke: #107c10; stroke-width: 2; stroke-linejoin: miter"/>
   </g>
   <g id="patch_6">
    <path d="M 759.6 171.36
L 807.48 212.4
L 759.6 253.44
L 711.72 212.4
z
" clip-path="url(#pec5cc4173e)" style="fill: #ffffff; stroke: #004578; stroke-width: 2; stroke-linejoin: miter"/>
   </g>
   <g id="patch_7">
    <path d="M 848.52 254.808
L 944.28 254.808
Q 945.648 254.808 945.648 253.44
L 945.648 171.36
Q 945.648 169.992 944.28 169.992
L 848.52 169.992
Q 847.152 169.992 847.152 171.36
L 847.152 253.44
Q 847.152 254.808 848.52 254.808
z
" clip-path="url(#pec5cc4173e)" style="fill: #a5d6a7; stroke: #107c10; stroke-width: 2; stroke-linejoin: miter"/>
   </g>
   <g id="patch_8">
    <path d="M 369.72 364.248
L 465.48 364.248
Q 466.848 364.248 466.848 362.88
L 466.848 308.16
Q 466.848 306.792 465.48 306.792
L 369.72 306.792
Q 368.352 306.792 368.352 308.16
L 368.352 362.88
Q 368.352 364.248 369.72 364.248
z
" clip-path="url(#pec5cc4173e)" style="fill: #ffcdd2; stroke: #d13438; stroke-width: 2; stroke-linejoin: miter"/>
   </g>
   <g id="patch_9">
    <path d="M 711.72 364.248
L 807.48 364.248
Q 808.848 364.248 808.848 362.88
L 808.848 308.16
Q 808.848 306.792 807.48 306.792
L 711.72 306.792
Q 710.352 306.792 710.352 308.16
L 710.352 362.88
Q 710.352 364.248 711.72 364.248
z
" clip-path="url(#pec5cc4173e)" style="fill: #ffcdd2; stroke: #d13438; stroke-width: 2; stroke-linejoin: miter"/>
   </g>
   <g id="text_1">
    <!-- Authentication vs Authorization Flow -->
    <g style="fill: #004578" transform="translate(318.18125 41.4) scale(0.16 -0.16)">
     <defs>
      <path id="DejaVuSans-Bold-41" d="M 3419 850
L 1538 850
L 1241 0
L 31 0
L 1759 4666
L 3194 4666
L 4922 0
L 3713 0
L 3419 850
z
M 1838 1716
L 3116 1716
L 2478 3572
L 1838 1716
z
" transform="scale(0.015625)"/>
      <path id="DejaVuSans-Bold-75" d="M 500 1363
L 500 3500
L 1625 3500
L 1625 3150
Q 1625 2866 1622 2436
Q 1619 2006 1619 1863
Q 1619 1441 1641 1255
Q 1663 1069 1716 984
Q 1784 875 1895 815
Q 2006 756 2150 756
Q 2500 756 2700 1025
Q 2900 1294 2900 1772
L 2900 3500
L 4019 3500
L 4019 0
L 2900 0
L 2900 506
Q 2647 200 2364 54
Q 2081 -91 1741 -91
Q 1134 -91 817 281
Q 500 653 500 1363
z
" transform="scale(0.015625)"/>
      <path id="DejaVuSans-Bold-74" d="M 1759 4494
L 1759 3500
L 2913 3500
L 2913 2700
L 1759 2700
L 1759 1216
Q 1759 972 1856 886
Q 1953 800 2241 800
L 2816 800
L 2816 0
L 1856 0
Q 1194 0 917 276
Q 641 553 641 1216
L 641 2700
L 84 2700
L 84 3500
L 641 3500
L 641 4494
L 1759 4494
z
" transform="scale(0.015625)"/>
      <path id="DejaVuSans-Bold-68" d="M 4056 2131
L 4056 0
L 2931 0
L 2931 347
L 2931 1625
Q 2931 2084 2911 2256
Q 2891 2428 2841 2509
Q 2775 2619 2662 2680
Q 2550 2741 2406 2741
Q 2056 2741 1856 2470
Q 1656 2200 1656 1722
L 1656 0
L 538 0
L 538 4863
L 1656 4863
L 1656 2988
Q 1909 3294 2193 3439
Q 2478 3584 2822 3584
Q 3428 3584 3742 3212
Q 4056 2841 4056 2131
z
" transform="scale(0.015625)"/>
      <path id="DejaVuSans-Bold-65" d="M 4031 1759
L 4031 1441
L 1416 1441
Q 1456 1047 1700 850
Q 1944 653 2381 653
Q 2734 653 3104 758
Q 3475 863 3866 1075
L 3866 213
Q 3469 63 3072 -14
Q 2675 -91 2278 -91
Q 1328 -91 801 392
Q 275 875 275 1747
Q 275 2603 792 3093
Q 1309 3584 2216 3584
Q 3041 3584 3536 3087
Q 4031 2591 4031 1759
z
M 2881 2131
Q 2881 2450 2695 2645
Q 2509 2841 2209 2841
Q 1884 2841 1681 2658
Q 1478 2475 1428 2131
L 2881 2131
z
" transform="scale(0.015625)"/>
      <path id="DejaVuSans-Bold-6e" d="M 4056 2131
L 4056 0
L 2931 0
L 2931 347
L 2931 1631
Q 2931 2084 2911 2256
Q 2891 2428 2841 2509
Q 2775 2619 2662 2680
Q 2550 2741 2406 2741
Q 2056 2741 1856 2470
Q 1656 2200 1656 1722
L 1656 0
L 538 0
L 538 3500
L 1656 3500
L 1656 2988
Q 1909 3294 2193 3439
Q 2478 3584 2822 3584
Q 3428 3584 3742 3212
Q 4056 2841 4056 2131
z
" transform="scale(0.015625)"/>
      <path id="DejaVuSans-Bold-69" d="M 538 3500
L 1656 3500
L 1656 0
L 538 0
L 538 3500
z
M 538 4863
L 1656 4863
L 1656 3950
L 538 3950
L 538 4863
z
" transform="scale(0.015625)"/>
      <path id="DejaVuSans-Bold-63" d="M 3366 3391
L 3366 2478
Q 3138 2634 2908 2709
Q 2678 2784 2431 2784
Q 1963 2784 1702 2511
Q 1441 2238 1441 1747
Q 1441 1256 1702 982
Q 1963 709 2431 709
Q 2694 709 2930 787
Q 3166 866 3366 1019
L 3366 103
Q 3103 6 2833 -42
Q 2563 -91 2291 -91
Q 1344 -91 809 395
Q 275 881 275 1747
Q 275 2613 809 3098
Q 1344 3584 2291 3584
Q 2566 3584 2833 3536
Q 3100 3488 3366 3391
z
" transform="scale(0.015625)"/>
      <path id="DejaVuSans-Bold-61" d="M 2106 1575
Q 1756 1575 1579 1456
Q 1403 1338 1403 1106
Q 1403 894 1545 773
Q 1688 653 1941 653
Q 2256 653 2472 879
Q 2688 1106 2688 1447
L 2688 1575
L 2106 1575
z
M 3816 1997
L 3816 0
L 2688 0
L 2688 519
Q 2463 200 2181 54
Q 1900 -91 1497 -91
Q 953 -91 614 226
Q 275 544 275 1050
Q 275 1666 698 1953
Q 1122 2241 2028 2241
L 2688 2241
L 2688 2328
Q 2688 2594 2478 2717
Q 2269 2841 1825 2841
Q 1466 2841 1156 2769
Q 847 2697 581 2553
L 581 3406
Q 941 3494 1303 3539
Q 1666 3584 2028 3584
Q 2975 3584 3395 3211
Q 3816 2838 3816 1997
z
" transform="scale(0.015625)"/>
      <path id="DejaVuSans-Bold-6f" d="M 2203 2784
Q 1831 2784 1636 2517
Q 1441 2250 1441 1747
Q 1441 1244 1636 976
Q 1831 709 2203 709
Q 2569 709 2762 976
Q 2956 1244 2956 1747
Q 2956 2250 2762 2517
Q 2569 2784 2203 2784
z
M 2203 3584
Q 3106 3584 3614 3096
Q 4122 2609 4122 1747
Q 4122 884 3614 396
Q 3106 -91 2203 -91
Q 1297 -91 786 396
Q 275 884 275 1747
Q 275 2609 786 3096
Q 1297 3584 2203 3584
z
" transform="scale(0.015625)"/>
      <path id="DejaVuSans-Bold-20" transform="scale(0.015625)"/>
      <path id="DejaVuSans-Bold-76" d="M 97 3500
L 1216 3500
L 2088 1081
L 2956 3500
L 4078 3500
L 2700 0
L 1472 0
L 97 3500
z
" transform="scale(0.015625)"/>
      <path id="DejaVuSans-Bold-73" d="M 3272 3391
L 3272 2541
Q 2913 2691 2578 2766
Q 2244 2841 1947 2841
Q 1628 2841 1473 2761
Q 1319 2681 1319 2516
Q 1319 2381 1436 2309
Q 1553 2238 1856 2203
L 2053 2175
Q 2913 2066 3209 1816
Q 3506 1566 3506 1031
Q 3506 472 3093 190
Q 2681 -91 1863 -91
Q 1516 -91 1145 -36
Q 775 19 384 128
L 384 978
Q 719 816 1070 734
Q 1422 653 1784 653
Q 2113 653 2278 743
Q 2444 834 2444 1013
Q 2444 1163 2330 1236
Q 2216 1309 1875 1350
L 1678 1375
Q 931 1469 631 1722
Q 331 1975 331 2491
Q 331 3047 712 3315
Q 1094 3584 1881 3584
Q 2191 3584 2531 3537
Q 2872 3491 3272 3391
z
" transform="scale(0.015625)"/>
      <path id="DejaVuSans-Bold-72" d="M 3138 2547
Q 2991 2616 2845 2648
Q 2700 2681 2553 2681
Q 2122 2681 1889 2404
Q 1656 2128 1656 1613
L 1656 0
L 538 0
L 538 3500
L 1656 3500
L 1656 2925
Q 1872 3269 2151 3426
Q 2431 3584 2822 3584
Q 2878 3584 2943 3579
Q 3009 3575 3134 3559
L 3138 2547
z
" transform="scale(0.015625)"/>
      <path id="DejaVuSans-Bold-7a" d="M 366 3500
L 3419 3500
L 3419 2719
L 1575 800
L 3419 800
L 3419 0
L 288 0
L 288 781
L 2131 2700
L 366 2700
L 366 3500
z
" transform="scale(0.015625)"/>
      <path id="DejaVuSans-Bold-46" d="M 588 4666
L 3834 4666
L 3834 3756
L 1791 3756
L 1791 2888
L 3713 2888
L 3713 1978
L 1791 1978
L 1791 0
L 588 0
L 588 4666
z
" transform="scale(0.015625)"/>
      <path id="DejaVuSans-Bold-6c" d="M 538 4863
L 1656 4863
L 1656 0
L 538 0
L 538 4863
z
" transform="scale(0.015625)"/>
      <path id="DejaVuSans-Bold-77" d="M 225 3500
L 1313 3500
L 1900 1088
L 2491 3500
L 3425 3500
L 4013 1113
L 4603 3500
L 5691 3500
L 4769 0
L 3547 0
L 2956 2406
L 2369 0
L 1147 0
L 225 3500
z
" transform="scale(0.015625)"/>
     </defs>
     <use xlink:href="#DejaVuSans-Bold-41"/>
     <use xlink:href="#DejaVuSans-Bold-75" transform="translate(77.392578 0)"/>
     <use xlink:href="#DejaVuSans-Bold-74" transform="translate(148.583984 0)"/>
     <use xlink:href="#DejaVuSans-Bold-68" transform="translate(196.386719 0)"/>
     <use xlink:href="#DejaVuSans-Bold-65" transform="translate(267.578125 0)"/>
     <use xlink:href="#DejaVuSans-Bold-6e" transform="translate(335.400391 0)"/>
     <use xlink:href="#DejaVuSans-Bold-74" transform="translate(406.591797 0)"/>
     <use xlink:href="#DejaVuSans-Bold-69" transform="translate(454.394531 0)"/>
     <use xlink:href="#DejaVuSans-Bold-63" transform="translate(488.671875 0)"/>
     <use xlink:href="#DejaVuSans-Bold-61" transform="translate(547.949219 0)"/>
     <use xlink:href="#DejaVuSans-Bold-74" transform="translate(615.429688 0)"/>
     <use xlink:href="#DejaVuSans-Bold-69" transform="translate(663.232422 0)"/>
     <use xlink:href="#DejaVuSans-Bold-6f" transform="translate(697.509766 0)"/>
     <use xlink:href="#DejaVuSans-Bold-6e" transform="translate(766.210938 0)"/>
     <use xlink:href="#DejaVuSans-Bold-20" transform="translate(837.402344 0)"/>
     <use xlink:href="#DejaVuSans-Bold-76" transform="translate(872.216797 0)"/>
     <use xlink:href="#DejaVuSans-Bold-73" transform="translate(937.402344 0)"/>
     <use xlink:href="#DejaVuSans-Bold-20" transform="translate(996.923828 0)"/>
     <use xlink:href="#DejaVuSans-Bold-41" transform="translate(1031.738281 0)"/>
     <use xlink:href="#DejaVuSans-Bold-75" transform="translate(1109.130859 0)"/>
     <use xlink:href="#DejaVuSans-Bold-74" transform="translate(1180.322266 0)"/>
     <use xlink:href="#DejaVuSans-Bold-68" transform="translate(1228.125 0)"/>
     <use xlink:href="#DejaVuSans-Bold-6f" transform="translate(1299.316406 0)"/>
     <use xlink:href="#DejaVuSans-Bold-72" transform="translate(1368.017578 0)"/>
     <use xlink:href="#DejaVuSans-Bold-69" transform="translate(1417.333984 0)"/>
     <use xlink:href="#DejaVuSans-Bold-7a" transform="translate(1451.611328 0)"/>
     <use xlink:href="#DejaVuSans-Bold-61" transform="translate(1509.814453 0)"/>
     <use xlink:href="#DejaVuSans-Bold-74" transform="translate(1577.294922 0)"/>
     <use xlink:href="#DejaVuSans-Bold-69" transform="translate(1625.097656 0)"/>
     <use xlink:href="#DejaVuSans-Bold-6f" transform="translate(1659.375 0)"/>
     <use xlink:href="#DejaVuSans-Bold-6e" transform="translate(1728.076172 0)"/>
     <use xlink:href="#DejaVuSans-Bold-20" transform="translate(1799.267578 0)"/>
     <use xlink:href="#DejaVuSans-Bold-46" transform="translate(1834.082031 0)"/>
     <use xlink:href="#DejaVuSans-Bold-6c" transform="translate(1902.392578 0)"/>
     <use xlink:href="#DejaVuSans-Bold-6f" transform="translate(1936.669922 0)"/>
     <use xlink:href="#DejaVuSans-Bold-77" transform="translate(2005.371094 0)"/>
    </g>
   </g>
   <g id="text_2">
    <!-- [User] -->
    <g transform="translate(51.12375 216.815) scale(0.16 -0.16)">
     <defs>
      <path id="DejaVuSans-5b" d="M 550 4863
L 1875 4863
L 1875 4416
L 1125 4416
L 1125 -397
L 1875 -397
L 1875 -844
L 550 -844
L 550 4863
z
" transform="scale(0.015625)"/>
      <path id="DejaVuSans-55" d="M 556 4666
L 1191 4666
L 1191 1831
Q 1191 1081 1462 751
Q 1734 422 2344 422
Q 2950 422 3222 751
Q 3494 1081 3494 1831
L 3494 4666
L 4128 4666
L 4128 1753
Q 4128 841 3676 375
Q 3225 -91 2344 -91
Q 1459 -91 1007 375
Q 556 841 556 1753
L 556 4666
z
" transform="scale(0.015625)"/>
      <path id="DejaVuSans-73" d="M 2834 3397
L 2834 2853
Q 2591 2978 2328 3040
Q 2066 3103 1784 3103
Q 1356 3103 1142 2972
Q 928 2841 928 2578
Q 928 2378 1081 2264
Q 1234 2150 1697 2047
L 1894 2003
Q 2506 1872 2764 1633
Q 3022 1394 3022 966
Q 3022 478 2636 193
Q 2250 -91 1575 -91
Q 1294 -91 989 -36
Q 684 19 347 128
L 347 722
Q 666 556 975 473
Q 1284 391 1588 391
Q 1994 391 2212 530
Q 2431 669 2431 922
Q 2431 1156 2273 1281
Q 2116 1406 1581 1522
L 1381 1569
Q 847 1681 609 1914
Q 372 2147 372 2553
Q 372 3047 722 3315
Q 1072 3584 1716 3584
Q 2034 3584 2315 3537
Q 2597 3491 2834 3397
z
" transform="scale(0.015625)"/>
      <path id="DejaVuSans-65" d="M 3597 1894
L 3597 1613
L 953 1613
Q 991 1019 1311 708
Q 1631 397 2203 397
Q 2534 397 2845 478
Q 3156 559 3463 722
L 3463 178
Q 3153 47 2828 -22
Q 2503 -91 2169 -91
Q 1331 -91 842 396
Q 353 884 353 1716
Q 353 2575 817 3079
Q 1281 3584 2069 3584
Q 2775 3584 3186 3129
Q 3597 2675 3597 1894
z
M 3022 2063
Q 3016 2534 2758 2815
Q 2500 3097 2075 3097
Q 1594 3097 1305 2825
Q 1016 2553 972 2059
L 3022 2063
z
" transform="scale(0.015625)"/>
      <path id="DejaVuSans-72" d="M 2631 2963
Q 2534 3019 2420 3045
Q 2306 3072 2169 3072
Q 1681 3072 1420 2755
Q 1159 2438 1159 1844
L 1159 0
L 581 0
L 581 3500
L 1159 3500
L 1159 2956
Q 1341 3275 1631 3429
Q 1922 3584 2338 3584
Q 2397 3584 2469 3576
Q 2541 3569 2628 3553
L 2631 2963
z
" transform="scale(0.015625)"/>
      <path id="DejaVuSans-5d" d="M 1947 4863
L 1947 -844
L 622 -844
L 622 -397
L 1369 -397
L 1369 4416
L 622 4416
L 622 4863
L 1947 4863
z
" transform="scale(0.015625)"/>
     </defs>
     <use xlink:href="#DejaVuSans-5b"/>
     <use xlink:href="#DejaVuSans-55" transform="translate(39.013672 0)"/>
     <use xlink:href="#DejaVuSans-73" transform="translate(112.207031 0)"/>
     <use xlink:href="#DejaVuSans-65" transform="translate(164.306641 0)"/>
     <use xlink:href="#DejaVuSans-72" transform="translate(225.830078 0)"/>
     <use xlink:href="#DejaVuSans-5d" transform="translate(266.943359 0)"/>
    </g>
   </g>
   <g id="text_3">
    <!-- User -->
    <g style="fill: #004578" transform="translate(65.343516 267.12) scale(0.09 -0.09)">
     <use xlink:href="#DejaVuSans-55"/>
     <use xlink:href="#DejaVuSans-73" transform="translate(73.193359 0)"/>
     <use xlink:href="#DejaVuSans-65" transform="translate(125.292969 0)"/>
     <use xlink:href="#DejaVuSans-72" transform="translate(186.816406 0)"/>
    </g>
   </g>
   <g id="text_4">
    <!-- [Auth] -->
    <g transform="translate(224.732656 195.743125) scale(0.14 -0.14)">
     <defs>
      <path id="DejaVuSans-41" d="M 2188 4044
L 1331 1722
L 3047 1722
L 2188 4044
z
M 1831 4666
L 2547 4666
L 4325 0
L 3669 0
L 3244 1197
L 1141 1197
L 716 0
L 50 0
L 1831 4666
z
" transform="scale(0.015625)"/>
      <path id="DejaVuSans-75" d="M 544 1381
L 544 3500
L 1119 3500
L 1119 1403
Q 1119 906 1312 657
Q 1506 409 1894 409
Q 2359 409 2629 706
Q 2900 1003 2900 1516
L 2900 3500
L 3475 3500
L 3475 0
L 2900 0
L 2900 538
Q 2691 219 2414 64
Q 2138 -91 1772 -91
Q 1169 -91 856 284
Q 544 659 544 1381
z
M 1991 3584
L 1991 3584
z
" transform="scale(0.015625)"/>
      <path id="DejaVuSans-74" d="M 1172 4494
L 1172 3500
L 2356 3500
L 2356 3053
L 1172 3053
L 1172 1153
Q 1172 725 1289 603
Q 1406 481 1766 481
L 2356 481
L 2356 0
L 1766 0
Q 1100 0 847 248
Q 594 497 594 1153
L 594 3053
L 172 3053
L 172 3500
L 594 3500
L 594 4494
L 1172 4494
z
" transform="scale(0.015625)"/>
      <path id="DejaVuSans-68" d="M 3513 2113
L 3513 0
L 2938 0
L 2938 2094
Q 2938 2591 2744 2837
Q 2550 3084 2163 3084
Q 1697 3084 1428 2787
Q 1159 2491 1159 1978
L 1159 0
L 581 0
L 581 4863
L 1159 4863
L 1159 2956
Q 1366 3272 1645 3428
Q 1925 3584 2291 3584
Q 2894 3584 3203 3211
Q 3513 2838 3513 2113
z
" transform="scale(0.015625)"/>
     </defs>
     <use xlink:href="#DejaVuSans-5b"/>
     <use xlink:href="#DejaVuSans-41" transform="translate(39.013672 0)"/>
     <use xlink:href="#DejaVuSans-75" transform="translate(107.421875 0)"/>
     <use xlink:href="#DejaVuSans-74" transform="translate(170.800781 0)"/>
     <use xlink:href="#DejaVuSans-68" transform="translate(210.009766 0)"/>
     <use xlink:href="#DejaVuSans-5d" transform="translate(273.388672 0)"/>
    </g>
   </g>
   <g id="text_5">
    <!-- Authentication -->
    <g style="fill: #004578" transform="translate(204.730469 226.08) scale(0.1 -0.1)">
     <use xlink:href="#DejaVuSans-Bold-41"/>
     <use xlink:href="#DejaVuSans-Bold-75" transform="translate(77.392578 0)"/>
     <use xlink:href="#DejaVuSans-Bold-74" transform="translate(148.583984 0)"/>
     <use xlink:href="#DejaVuSans-Bold-68" transform="translate(196.386719 0)"/>
     <use xlink:href="#DejaVuSans-Bold-65" transform="translate(267.578125 0)"/>
     <use xlink:href="#DejaVuSans-Bold-6e" transform="translate(335.400391 0)"/>
     <use xlink:href="#DejaVuSans-Bold-74" transform="translate(406.591797 0)"/>
     <use xlink:href="#DejaVuSans-Bold-69" transform="translate(454.394531 0)"/>
     <use xlink:href="#DejaVuSans-Bold-63" transform="translate(488.671875 0)"/>
     <use xlink:href="#DejaVuSans-Bold-61" transform="translate(547.949219 0)"/>
     <use xlink:href="#DejaVuSans-Bold-74" transform="translate(615.429688 0)"/>
     <use xlink:href="#DejaVuSans-Bold-69" transform="translate(663.232422 0)"/>
     <use xlink:href="#DejaVuSans-Bold-6f" transform="translate(697.509766 0)"/>
     <use xlink:href="#DejaVuSans-Bold-6e" transform="translate(766.210938 0)"/>
    </g>
   </g>
   <g id="text_6">
    <!-- "Who are you?" -->
    <g style="fill: #0078d4" transform="translate(211.51125 144) scale(0.09 -0.09)">
     <defs>
      <path id="DejaVuSans-Oblique-22" d="M 1147 4666
L 1147 2931
L 616 2931
L 616 4666
L 1147 4666
z
M 2328 4666
L 2328 2931
L 1797 2931
L 1797 4666
L 2328 4666
z
" transform="scale(0.015625)"/>
      <path id="DejaVuSans-Oblique-57" d="M 616 4666
L 1228 4666
L 1453 697
L 3213 4666
L 3916 4666
L 4147 697
L 5888 4666
L 6528 4666
L 4453 0
L 3659 0
L 3444 3891
L 1697 0
L 903 0
L 616 4666
z
" transform="scale(0.015625)"/>
      <path id="DejaVuSans-Oblique-68" d="M 3566 2113
L 3156 0
L 2578 0
L 2988 2091
Q 3016 2238 3031 2350
Q 3047 2463 3047 2528
Q 3047 2791 2881 2937
Q 2716 3084 2419 3084
Q 1956 3084 1617 2771
Q 1278 2459 1178 1941
L 800 0
L 225 0
L 1172 4863
L 1747 4863
L 1375 2950
Q 1594 3244 1934 3414
Q 2275 3584 2650 3584
Q 3113 3584 3367 3334
Q 3622 3084 3622 2631
Q 3622 2519 3608 2391
Q 3594 2263 3566 2113
z
" transform="scale(0.015625)"/>
      <path id="DejaVuSans-Oblique-6f" d="M 1625 -91
Q 1009 -91 651 289
Q 294 669 294 1325
Q 294 1706 417 2101
Q 541 2497 738 2766
Q 1047 3184 1428 3384
Q 1809 3584 2291 3584
Q 2888 3584 3255 3212
Q 3622 2841 3622 2241
Q 3622 1825 3500 1412
Q 3378 1000 3181 728
Q 2875 309 2494 109
Q 2113 -91 1625 -91
z
M 891 1344
Q 891 869 1089 633
Q 1288 397 1691 397
Q 2269 397 2648 901
Q 3028 1406 3028 2181
Q 3028 2634 2825 2865
Q 2622 3097 2228 3097
Q 1903 3097 1650 2945
Q 1397 2794 1197 2484
Q 1050 2253 970 1956
Q 891 1659 891 1344
z
" transform="scale(0.015625)"/>
      <path id="DejaVuSans-Oblique-20" transform="scale(0.015625)"/>
      <path id="DejaVuSans-Oblique-61" d="M 3438 1997
L 3047 0
L 2472 0
L 2578 531
Q 2325 219 2001 64
Q 1678 -91 1281 -91
Q 834 -91 548 182
Q 263 456 263 884
Q 263 1497 752 1853
Q 1241 2209 2100 2209
L 2900 2209
L 2931 2363
Q 2938 2388 2941 2417
Q 2944 2447 2944 2509
Q 2944 2788 2717 2942
Q 2491 3097 2081 3097
Q 1800 3097 1504 3025
Q 1209 2953 897 2809
L 997 3341
Q 1322 3463 1633 3523
Q 1944 3584 2234 3584
Q 2853 3584 3176 3315
Q 3500 3047 3500 2534
Q 3500 2431 3484 2292
Q 3469 2153 3438 1997
z
M 2816 1759
L 2241 1759
Q 1534 1759 1195 1570
Q 856 1381 856 984
Q 856 709 1029 553
Q 1203 397 1509 397
Q 1978 397 2328 733
Q 2678 1069 2791 1631
L 2816 1759
z
" transform="scale(0.015625)"/>
      <path id="DejaVuSans-Oblique-72" d="M 2853 2969
Q 2766 3016 2653 3041
Q 2541 3066 2413 3066
Q 1953 3066 1609 2717
Q 1266 2369 1153 1784
L 800 0
L 225 0
L 909 3500
L 1484 3500
L 1375 2956
Q 1603 3259 1920 3421
Q 2238 3584 2597 3584
Q 2691 3584 2781 3573
Q 2872 3563 2963 3538
L 2853 2969
z
" transform="scale(0.015625)"/>
      <path id="DejaVuSans-Oblique-65" d="M 3078 2063
Q 3088 2113 3092 2166
Q 3097 2219 3097 2272
Q 3097 2653 2873 2875
Q 2650 3097 2266 3097
Q 1838 3097 1509 2826
Q 1181 2556 1013 2059
L 3078 2063
z
M 3578 1613
L 903 1613
Q 884 1494 878 1425
Q 872 1356 872 1306
Q 872 872 1139 634
Q 1406 397 1894 397
Q 2269 397 2603 481
Q 2938 566 3225 728
L 3116 159
Q 2806 34 2476 -28
Q 2147 -91 1806 -91
Q 1078 -91 686 257
Q 294 606 294 1247
Q 294 1794 489 2264
Q 684 2734 1063 3103
Q 1306 3334 1642 3459
Q 1978 3584 2356 3584
Q 2950 3584 3301 3228
Q 3653 2872 3653 2272
Q 3653 2128 3634 1964
Q 3616 1800 3578 1613
z
" transform="scale(0.015625)"/>
      <path id="DejaVuSans-Oblique-79" d="M 1588 -325
Q 1188 -997 936 -1164
Q 684 -1331 294 -1331
L -159 -1331
L -63 -850
L 269 -850
Q 509 -850 678 -719
Q 847 -588 1056 -206
L 1234 128
L 459 3500
L 1069 3500
L 1650 819
L 3256 3500
L 3859 3500
L 1588 -325
z
" transform="scale(0.015625)"/>
      <path id="DejaVuSans-Oblique-75" d="M 428 1388
L 838 3500
L 1416 3500
L 1006 1409
Q 975 1256 961 1147
Q 947 1038 947 966
Q 947 700 1109 554
Q 1272 409 1569 409
Q 2031 409 2368 721
Q 2706 1034 2809 1563
L 3194 3500
L 3769 3500
L 3091 0
L 2516 0
L 2631 550
Q 2388 244 2052 76
Q 1716 -91 1338 -91
Q 878 -91 622 161
Q 366 413 366 863
Q 366 956 381 1097
Q 397 1238 428 1388
z
" transform="scale(0.015625)"/>
      <path id="DejaVuSans-Oblique-3f" d="M 1594 794
L 1441 0
L 806 0
L 959 794
L 1594 794
z
M 903 4397
Q 1222 4575 1539 4662
Q 1856 4750 2188 4750
Q 2691 4750 2981 4515
Q 3272 4281 3272 3878
Q 3272 3556 3105 3275
Q 2938 2994 2559 2688
L 2234 2425
Q 1972 2219 1884 2072
Q 1797 1925 1741 1638
L 1663 1253
L 1069 1253
L 1166 1734
Q 1222 2028 1344 2233
Q 1466 2438 1813 2725
L 2144 3003
Q 2406 3222 2512 3387
Q 2619 3553 2619 3731
Q 2619 3969 2448 4103
Q 2278 4238 1978 4238
Q 1728 4238 1420 4127
Q 1113 4016 788 3809
L 903 4397
z
" transform="scale(0.015625)"/>
     </defs>
     <use xlink:href="#DejaVuSans-Oblique-22"/>
     <use xlink:href="#DejaVuSans-Oblique-57" transform="translate(45.996094 0)"/>
     <use xlink:href="#DejaVuSans-Oblique-68" transform="translate(144.873047 0)"/>
     <use xlink:href="#DejaVuSans-Oblique-6f" transform="translate(208.251953 0)"/>
     <use xlink:href="#DejaVuSans-Oblique-20" transform="translate(269.433594 0)"/>
     <use xlink:href="#DejaVuSans-Oblique-61" transform="translate(301.220703 0)"/>
     <use xlink:href="#DejaVuSans-Oblique-72" transform="translate(362.5 0)"/>
     <use xlink:href="#DejaVuSans-Oblique-65" transform="translate(403.613281 0)"/>
     <use xlink:href="#DejaVuSans-Oblique-20" transform="translate(465.136719 0)"/>
     <use xlink:href="#DejaVuSans-Oblique-79" transform="translate(496.923828 0)"/>
     <use xlink:href="#DejaVuSans-Oblique-6f" transform="translate(556.103516 0)"/>
     <use xlink:href="#DejaVuSans-Oblique-75" transform="translate(617.285156 0)"/>
     <use xlink:href="#DejaVuSans-Oblique-3f" transform="translate(680.664062 0)"/>
     <use xlink:href="#DejaVuSans-Oblique-22" transform="translate(733.740234 0)"/>
    </g>
   </g>
   <g id="text_7">
    <!-- Verify -->
    <g style="fill: #004578" transform="translate(407.669844 210.412328) scale(0.07 -0.07)">
     <defs>
      <path id="DejaVuSans-56" d="M 1831 0
L 50 4666
L 709 4666
L 2188 738
L 3669 4666
L 4325 4666
L 2547 0
L 1831 0
z
" transform="scale(0.015625)"/>
      <path id="DejaVuSans-69" d="M 603 3500
L 1178 3500
L 1178 0
L 603 0
L 603 3500
z
M 603 4863
L 1178 4863
L 1178 4134
L 603 4134
L 603 4863
z
" transform="scale(0.015625)"/>
      <path id="DejaVuSans-66" d="M 2375 4863
L 2375 4384
L 1825 4384
Q 1516 4384 1395 4259
Q 1275 4134 1275 3809
L 1275 3500
L 2222 3500
L 2222 3053
L 1275 3053
L 1275 0
L 697 0
L 697 3053
L 147 3053
L 147 3500
L 697 3500
L 697 3744
Q 697 4328 969 4595
Q 1241 4863 1831 4863
L 2375 4863
z
" transform="scale(0.015625)"/>
      <path id="DejaVuSans-79" d="M 2059 -325
Q 1816 -950 1584 -1140
Q 1353 -1331 966 -1331
L 506 -1331
L 506 -850
L 844 -850
Q 1081 -850 1212 -737
Q 1344 -625 1503 -206
L 1606 56
L 191 3500
L 800 3500
L 1894 763
L 2988 3500
L 3597 3500
L 2059 -325
z
" transform="scale(0.015625)"/>
     </defs>
     <use xlink:href="#DejaVuSans-56"/>
     <use xlink:href="#DejaVuSans-65" transform="translate(60.658203 0)"/>
     <use xlink:href="#DejaVuSans-72" transform="translate(122.181641 0)"/>
     <use xlink:href="#DejaVuSans-69" transform="translate(163.294922 0)"/>
     <use xlink:href="#DejaVuSans-66" transform="translate(191.078125 0)"/>
     <use xlink:href="#DejaVuSans-79" transform="translate(224.533203 0)"/>
    </g>
    <!-- Identity -->
    <g style="fill: #004578" transform="translate(404.185703 218.250797) scale(0.07 -0.07)">
     <defs>
      <path id="DejaVuSans-49" d="M 628 4666
L 1259 4666
L 1259 0
L 628 0
L 628 4666
z
" transform="scale(0.015625)"/>
      <path id="DejaVuSans-64" d="M 2906 2969
L 2906 4863
L 3481 4863
L 3481 0
L 2906 0
L 2906 525
Q 2725 213 2448 61
Q 2172 -91 1784 -91
Q 1150 -91 751 415
Q 353 922 353 1747
Q 353 2572 751 3078
Q 1150 3584 1784 3584
Q 2172 3584 2448 3432
Q 2725 3281 2906 2969
z
M 947 1747
Q 947 1113 1208 752
Q 1469 391 1925 391
Q 2381 391 2643 752
Q 2906 1113 2906 1747
Q 2906 2381 2643 2742
Q 2381 3103 1925 3103
Q 1469 3103 1208 2742
Q 947 2381 947 1747
z
" transform="scale(0.015625)"/>
      <path id="DejaVuSans-6e" d="M 3513 2113
L 3513 0
L 2938 0
L 2938 2094
Q 2938 2591 2744 2837
Q 2550 3084 2163 3084
Q 1697 3084 1428 2787
Q 1159 2491 1159 1978
L 1159 0
L 581 0
L 581 3500
L 1159 3500
L 1159 2956
Q 1366 3272 1645 3428
Q 1925 3584 2291 3584
Q 2894 3584 3203 3211
Q 3513 2838 3513 2113
z
" transform="scale(0.015625)"/>
     </defs>
     <use xlink:href="#DejaVuSans-49"/>
     <use xlink:href="#DejaVuSans-64" transform="translate(29.492188 0)"/>
     <use xlink:href="#DejaVuSans-65" transform="translate(92.96875 0)"/>
     <use xlink:href="#DejaVuSans-6e" transform="translate(154.492188 0)"/>
     <use xlink:href="#DejaVuSans-74" transform="translate(217.871094 0)"/>
     <use xlink:href="#DejaVuSans-69" transform="translate(257.080078 0)"/>
     <use xlink:href="#DejaVuSans-74" transform="translate(284.863281 0)"/>
     <use xlink:href="#DejaVuSans-79" transform="translate(324.072266 0)"/>
    </g>
   </g>
   <g id="text_8">
    <!-- [Ticket] -->
    <g transform="translate(562.436406 195.743125) scale(0.14 -0.14)">
     <defs>
      <path id="DejaVuSans-54" d="M -19 4666
L 3928 4666
L 3928 4134
L 2272 4134
L 2272 0
L 1638 0
L 1638 4134
L -19 4134
L -19 4666
z
" transform="scale(0.015625)"/>
      <path id="DejaVuSans-63" d="M 3122 3366
L 3122 2828
Q 2878 2963 2633 3030
Q 2388 3097 2138 3097
Q 1578 3097 1268 2742
Q 959 2388 959 1747
Q 959 1106 1268 751
Q 1578 397 2138 397
Q 2388 397 2633 464
Q 2878 531 3122 666
L 3122 134
Q 2881 22 2623 -34
Q 2366 -91 2075 -91
Q 1284 -91 818 406
Q 353 903 353 1747
Q 353 2603 823 3093
Q 1294 3584 2113 3584
Q 2378 3584 2631 3529
Q 2884 3475 3122 3366
z
" transform="scale(0.015625)"/>
      <path id="DejaVuSans-6b" d="M 581 4863
L 1159 4863
L 1159 1991
L 2875 3500
L 3609 3500
L 1753 1863
L 3688 0
L 2938 0
L 1159 1709
L 1159 0
L 581 0
L 581 4863
z
" transform="scale(0.015625)"/>
     </defs>
     <use xlink:href="#DejaVuSans-5b"/>
     <use xlink:href="#DejaVuSans-54" transform="translate(39.013672 0)"/>
     <use xlink:href="#DejaVuSans-69" transform="translate(96.972656 0)"/>
     <use xlink:href="#DejaVuSans-63" transform="translate(124.755859 0)"/>
     <use xlink:href="#DejaVuSans-6b" transform="translate(179.736328 0)"/>
     <use xlink:href="#DejaVuSans-65" transform="translate(234.021484 0)"/>
     <use xlink:href="#DejaVuSans-74" transform="translate(295.544922 0)"/>
     <use xlink:href="#DejaVuSans-5d" transform="translate(334.753906 0)"/>
    </g>
   </g>
   <g id="text_9">
    <!-- Authorization -->
    <g style="fill: #004578" transform="translate(550.224219 226.08) scale(0.1 -0.1)">
     <use xlink:href="#DejaVuSans-Bold-41"/>
     <use xlink:href="#DejaVuSans-Bold-75" transform="translate(77.392578 0)"/>
     <use xlink:href="#DejaVuSans-Bold-74" transform="translate(148.583984 0)"/>
     <use xlink:href="#DejaVuSans-Bold-68" transform="translate(196.386719 0)"/>
     <use xlink:href="#DejaVuSans-Bold-6f" transform="translate(267.578125 0)"/>
     <use xlink:href="#DejaVuSans-Bold-72" transform="translate(336.279297 0)"/>
     <use xlink:href="#DejaVuSans-Bold-69" transform="translate(385.595703 0)"/>
     <use xlink:href="#DejaVuSans-Bold-7a" transform="translate(419.873047 0)"/>
     <use xlink:href="#DejaVuSans-Bold-61" transform="translate(478.076172 0)"/>
     <use xlink:href="#DejaVuSans-Bold-74" transform="translate(545.556641 0)"/>
     <use xlink:href="#DejaVuSans-Bold-69" transform="translate(593.359375 0)"/>
     <use xlink:href="#DejaVuSans-Bold-6f" transform="translate(627.636719 0)"/>
     <use xlink:href="#DejaVuSans-Bold-6e" transform="translate(696.337891 0)"/>
    </g>
   </g>
   <g id="text_10">
    <!-- "What can you do?" -->
    <g style="fill: #107c10" transform="translate(543.995156 144) scale(0.09 -0.09)">
     <defs>
      <path id="DejaVuSans-Oblique-74" d="M 2706 3500
L 2619 3053
L 1472 3053
L 1100 1153
Q 1081 1047 1072 975
Q 1063 903 1063 863
Q 1063 663 1183 572
Q 1303 481 1569 481
L 2150 481
L 2053 0
L 1503 0
Q 991 0 739 200
Q 488 400 488 806
Q 488 878 497 964
Q 506 1050 525 1153
L 897 3053
L 409 3053
L 500 3500
L 978 3500
L 1172 4494
L 1747 4494
L 1556 3500
L 2706 3500
z
" transform="scale(0.015625)"/>
      <path id="DejaVuSans-Oblique-63" d="M 3431 3366
L 3316 2797
Q 3109 2947 2876 3022
Q 2644 3097 2394 3097
Q 2119 3097 1870 3000
Q 1622 2903 1453 2725
Q 1184 2453 1037 2087
Q 891 1722 891 1331
Q 891 859 1127 628
Q 1363 397 1844 397
Q 2081 397 2348 469
Q 2616 541 2906 684
L 2797 116
Q 2547 13 2283 -39
Q 2019 -91 1741 -91
Q 1044 -91 669 257
Q 294 606 294 1253
Q 294 1797 489 2255
Q 684 2713 1069 3078
Q 1331 3328 1684 3456
Q 2038 3584 2456 3584
Q 2700 3584 2940 3529
Q 3181 3475 3431 3366
z
" transform="scale(0.015625)"/>
      <path id="DejaVuSans-Oblique-6e" d="M 3566 2113
L 3156 0
L 2578 0
L 2988 2091
Q 3016 2238 3031 2350
Q 3047 2463 3047 2528
Q 3047 2791 2881 2937
Q 2716 3084 2419 3084
Q 1956 3084 1622 2776
Q 1288 2469 1184 1941
L 800 0
L 225 0
L 903 3500
L 1478 3500
L 1363 2950
Q 1603 3253 1940 3418
Q 2278 3584 2650 3584
Q 3113 3584 3367 3334
Q 3622 3084 3622 2631
Q 3622 2519 3608 2391
Q 3594 2263 3566 2113
z
" transform="scale(0.015625)"/>
      <path id="DejaVuSans-Oblique-64" d="M 2675 525
Q 2444 222 2128 65
Q 1813 -91 1428 -91
Q 903 -91 598 267
Q 294 625 294 1247
Q 294 1766 478 2236
Q 663 2706 1013 3078
Q 1244 3325 1534 3454
Q 1825 3584 2144 3584
Q 2481 3584 2739 3421
Q 2997 3259 3138 2956
L 3513 4863
L 4091 4863
L 3144 0
L 2566 0
L 2675 525
z
M 891 1350
Q 891 897 1095 644
Q 1300 391 1663 391
Q 1931 391 2161 520
Q 2391 650 2566 903
Q 2750 1166 2856 1509
Q 2963 1853 2963 2188
Q 2963 2622 2758 2865
Q 2553 3109 2194 3109
Q 1922 3109 1687 2981
Q 1453 2853 1288 2613
Q 1106 2353 998 2009
Q 891 1666 891 1350
z
" transform="scale(0.015625)"/>
     </defs>
     <use xlink:href="#DejaVuSans-Oblique-22"/>
     <use xlink:href="#DejaVuSans-Oblique-57" transform="translate(45.996094 0)"/>
     <use xlink:href="#DejaVuSans-Oblique-68" transform="translate(144.873047 0)"/>
     <use xlink:href="#DejaVuSans-Oblique-61" transform="translate(208.251953 0)"/>
     <use xlink:href="#DejaVuSans-Oblique-74" transform="translate(269.53125 0)"/>
     <use xlink:href="#DejaVuSans-Oblique-20" transform="translate(308.740234 0)"/>
     <use xlink:href="#DejaVuSans-Oblique-63" transform="translate(340.527344 0)"/>
     <use xlink:href="#DejaVuSans-Oblique-61" transform="translate(395.507812 0)"/>
     <use xlink:href="#DejaVuSans-Oblique-6e" transform="translate(456.787109 0)"/>
     <use xlink:href="#DejaVuSans-Oblique-20" transform="translate(520.166016 0)"/>
     <use xlink:href="#DejaVuSans-Oblique-79" transform="translate(551.953125 0)"/>
     <use xlink:href="#DejaVuSans-Oblique-6f" transform="translate(611.132812 0)"/>
     <use xlink:href="#DejaVuSans-Oblique-75" transform="translate(672.314453 0)"/>
     <use xlink:href="#DejaVuSans-Oblique-20" transform="translate(735.693359 0)"/>
     <use xlink:href="#DejaVuSans-Oblique-64" transform="translate(767.480469 0)"/>
     <use xlink:href="#DejaVuSans-Oblique-6f" transform="translate(830.957031 0)"/>
     <use xlink:href="#DejaVuSans-Oblique-3f" transform="translate(892.138672 0)"/>
     <use xlink:href="#DejaVuSans-Oblique-22" transform="translate(945.214844 0)"/>
    </g>
   </g>
   <g id="text_11">
    <!-- Check -->
    <g style="fill: #004578" transform="translate(748.833125 210.412328) scale(0.07 -0.07)">
     <defs>
      <path id="DejaVuSans-43" d="M 4122 4306
L 4122 3641
Q 3803 3938 3442 4084
Q 3081 4231 2675 4231
Q 1875 4231 1450 3742
Q 1025 3253 1025 2328
Q 1025 1406 1450 917
Q 1875 428 2675 428
Q 3081 428 3442 575
Q 3803 722 4122 1019
L 4122 359
Q 3791 134 3420 21
Q 3050 -91 2638 -91
Q 1578 -91 968 557
Q 359 1206 359 2328
Q 359 3453 968 4101
Q 1578 4750 2638 4750
Q 3056 4750 3426 4639
Q 3797 4528 4122 4306
z
" transform="scale(0.015625)"/>
     </defs>
     <use xlink:href="#DejaVuSans-43"/>
     <use xlink:href="#DejaVuSans-68" transform="translate(69.824219 0)"/>
     <use xlink:href="#DejaVuSans-65" transform="translate(133.203125 0)"/>
     <use xlink:href="#DejaVuSans-63" transform="translate(194.726562 0)"/>
     <use xlink:href="#DejaVuSans-6b" transform="translate(249.707031 0)"/>
    </g>
    <!-- Perms -->
    <g style="fill: #004578" transform="translate(748.852812 218.250797) scale(0.07 -0.07)">
     <defs>
      <path id="DejaVuSans-50" d="M 1259 4147
L 1259 2394
L 2053 2394
Q 2494 2394 2734 2622
Q 2975 2850 2975 3272
Q 2975 3691 2734 3919
Q 2494 4147 2053 4147
L 1259 4147
z
M 628 4666
L 2053 4666
Q 2838 4666 3239 4311
Q 3641 3956 3641 3272
Q 3641 2581 3239 2228
Q 2838 1875 2053 1875
L 1259 1875
L 1259 0
L 628 0
L 628 4666
z
" transform="scale(0.015625)"/>
      <path id="DejaVuSans-6d" d="M 3328 2828
Q 3544 3216 3844 3400
Q 4144 3584 4550 3584
Q 5097 3584 5394 3201
Q 5691 2819 5691 2113
L 5691 0
L 5113 0
L 5113 2094
Q 5113 2597 4934 2840
Q 4756 3084 4391 3084
Q 3944 3084 3684 2787
Q 3425 2491 3425 1978
L 3425 0
L 2847 0
L 2847 2094
Q 2847 2600 2669 2842
Q 2491 3084 2119 3084
Q 1678 3084 1418 2786
Q 1159 2488 1159 1978
L 1159 0
L 581 0
L 581 3500
L 1159 3500
L 1159 2956
Q 1356 3278 1631 3431
Q 1906 3584 2284 3584
Q 2666 3584 2933 3390
Q 3200 3197 3328 2828
z
" transform="scale(0.015625)"/>
     </defs>
     <use xlink:href="#DejaVuSans-50"/>
     <use xlink:href="#DejaVuSans-65" transform="translate(56.677734 0)"/>
     <use xlink:href="#DejaVuSans-72" transform="translate(118.201172 0)"/>
     <use xlink:href="#DejaVuSans-6d" transform="translate(157.564453 0)"/>
     <use xlink:href="#DejaVuSans-73" transform="translate(254.976562 0)"/>
    </g>
   </g>
   <g id="text_12">
    <!-- [OK] -->
    <g style="fill: #004578" transform="translate(887.506875 205.64925) scale(0.08 -0.08)">
     <defs>
      <path id="DejaVuSans-4f" d="M 2522 4238
Q 1834 4238 1429 3725
Q 1025 3213 1025 2328
Q 1025 1447 1429 934
Q 1834 422 2522 422
Q 3209 422 3611 934
Q 4013 1447 4013 2328
Q 4013 3213 3611 3725
Q 3209 4238 2522 4238
z
M 2522 4750
Q 3503 4750 4090 4092
Q 4678 3434 4678 2328
Q 4678 1225 4090 567
Q 3503 -91 2522 -91
Q 1538 -91 948 565
Q 359 1222 359 2328
Q 359 3434 948 4092
Q 1538 4750 2522 4750
z
" transform="scale(0.015625)"/>
      <path id="DejaVuSans-4b" d="M 628 4666
L 1259 4666
L 1259 2694
L 3353 4666
L 4166 4666
L 1850 2491
L 4331 0
L 3500 0
L 1259 2247
L 1259 0
L 628 0
L 628 4666
z
" transform="scale(0.015625)"/>
     </defs>
     <use xlink:href="#DejaVuSans-5b"/>
     <use xlink:href="#DejaVuSans-4f" transform="translate(39.013672 0)"/>
     <use xlink:href="#DejaVuSans-4b" transform="translate(117.724609 0)"/>
     <use xlink:href="#DejaVuSans-5d" transform="translate(183.300781 0)"/>
    </g>
    <!-- Access -->
    <g style="fill: #004578" transform="translate(882.70625 214.6075) scale(0.08 -0.08)">
     <use xlink:href="#DejaVuSans-41"/>
     <use xlink:href="#DejaVuSans-63" transform="translate(66.658203 0)"/>
     <use xlink:href="#DejaVuSans-63" transform="translate(121.638672 0)"/>
     <use xlink:href="#DejaVuSans-65" transform="translate(176.619141 0)"/>
     <use xlink:href="#DejaVuSans-73" transform="translate(238.142578 0)"/>
     <use xlink:href="#DejaVuSans-73" transform="translate(290.242188 0)"/>
    </g>
    <!-- Resource -->
    <g style="fill: #004578" transform="translate(878.058125 223.56575) scale(0.08 -0.08)">
     <defs>
      <path id="DejaVuSans-52" d="M 2841 2188
Q 3044 2119 3236 1894
Q 3428 1669 3622 1275
L 4263 0
L 3584 0
L 2988 1197
Q 2756 1666 2539 1819
Q 2322 1972 1947 1972
L 1259 1972
L 1259 0
L 628 0
L 628 4666
L 2053 4666
Q 2853 4666 3247 4331
Q 3641 3997 3641 3322
Q 3641 2881 3436 2590
Q 3231 2300 2841 2188
z
M 1259 4147
L 1259 2491
L 2053 2491
Q 2509 2491 2742 2702
Q 2975 2913 2975 3322
Q 2975 3731 2742 3939
Q 2509 4147 2053 4147
L 1259 4147
z
" transform="scale(0.015625)"/>
      <path id="DejaVuSans-6f" d="M 1959 3097
Q 1497 3097 1228 2736
Q 959 2375 959 1747
Q 959 1119 1226 758
Q 1494 397 1959 397
Q 2419 397 2687 759
Q 2956 1122 2956 1747
Q 2956 2369 2687 2733
Q 2419 3097 1959 3097
z
M 1959 3584
Q 2709 3584 3137 3096
Q 3566 2609 3566 1747
Q 3566 888 3137 398
Q 2709 -91 1959 -91
Q 1206 -91 779 398
Q 353 888 353 1747
Q 353 2609 779 3096
Q 1206 3584 1959 3584
z
" transform="scale(0.015625)"/>
     </defs>
     <use xlink:href="#DejaVuSans-52"/>
     <use xlink:href="#DejaVuSans-65" transform="translate(64.982422 0)"/>
     <use xlink:href="#DejaVuSans-73" transform="translate(126.505859 0)"/>
     <use xlink:href="#DejaVuSans-6f" transform="translate(178.605469 0)"/>
     <use xlink:href="#DejaVuSans-75" transform="translate(239.787109 0)"/>
     <use xlink:href="#DejaVuSans-72" transform="translate(303.166016 0)"/>
     <use xlink:href="#DejaVuSans-63" transform="translate(342.029297 0)"/>
     <use xlink:href="#DejaVuSans-65" transform="translate(397.009766 0)"/>
    </g>
   </g>
   <g id="text_13">
    <!-- [X] Denied -->
    <g style="fill: #004578" transform="translate(396.279375 337.7275) scale(0.08 -0.08)">
     <defs>
      <path id="DejaVuSans-58" d="M 403 4666
L 1081 4666
L 2241 2931
L 3406 4666
L 4084 4666
L 2584 2425
L 4184 0
L 3506 0
L 2194 1984
L 872 0
L 191 0
L 1856 2491
L 403 4666
z
" transform="scale(0.015625)"/>
      <path id="DejaVuSans-20" transform="scale(0.015625)"/>
      <path id="DejaVuSans-44" d="M 1259 4147
L 1259 519
L 2022 519
Q 2988 519 3436 956
Q 3884 1394 3884 2338
Q 3884 3275 3436 3711
Q 2988 4147 2022 4147
L 1259 4147
z
M 628 4666
L 1925 4666
Q 3281 4666 3915 4102
Q 4550 3538 4550 2338
Q 4550 1131 3912 565
Q 3275 0 1925 0
L 628 0
L 628 4666
z
" transform="scale(0.015625)"/>
     </defs>
     <use xlink:href="#DejaVuSans-5b"/>
     <use xlink:href="#DejaVuSans-58" transform="translate(39.013672 0)"/>
     <use xlink:href="#DejaVuSans-5d" transform="translate(107.519531 0)"/>
     <use xlink:href="#DejaVuSans-20" transform="translate(146.533203 0)"/>
     <use xlink:href="#DejaVuSans-44" transform="translate(178.320312 0)"/>
     <use xlink:href="#DejaVuSans-65" transform="translate(255.322266 0)"/>
     <use xlink:href="#DejaVuSans-6e" transform="translate(316.845703 0)"/>
     <use xlink:href="#DejaVuSans-69" transform="translate(380.224609 0)"/>
     <use xlink:href="#DejaVuSans-65" transform="translate(408.007812 0)"/>
     <use xlink:href="#DejaVuSans-64" transform="translate(469.53125 0)"/>
    </g>
   </g>
   <g id="text_14">
    <!-- [X] Denied -->
    <g style="fill: #004578" transform="translate(738.279375 337.7275) scale(0.08 -0.08)">
     <use xlink:href="#DejaVuSans-5b"/>
     <use xlink:href="#DejaVuSans-58" transform="translate(39.013672 0)"/>
     <use xlink:href="#DejaVuSans-5d" transform="translate(107.519531 0)"/>
     <use xlink:href="#DejaVuSans-20" transform="translate(146.533203 0)"/>
     <use xlink:href="#DejaVuSans-44" transform="translate(178.320312 0)"/>
     <use xlink:href="#DejaVuSans-65" transform="translate(255.322266 0)"/>
     <use xlink:href="#DejaVuSans-6e" transform="translate(316.845703 0)"/>
     <use xlink:href="#DejaVuSans-69" transform="translate(380.224609 0)"/>
     <use xlink:href="#DejaVuSans-65" transform="translate(408.007812 0)"/>
     <use xlink:href="#DejaVuSans-64" transform="translate(469.53125 0)"/>
    </g>
   </g>
   <g id="patch_10">
    <path d="M 111.799731 212.4
Q 144.000863 212.4 173.965926 212.4
" style="fill: none; stroke: #004578; stroke-width: 2; stroke-linecap: round"/>
    <path d="M 169.965926 210.4
L 173.965926 212.4
L 169.965926 214.4
" style="fill: none; stroke: #004578; stroke-width: 2; stroke-linecap: round"/>
   </g>
   <g id="patch_11">
    <path d="M 317.000566 212.4
Q 342.361175 212.4 365.485716 212.4
" style="fill: none; stroke: #004578; stroke-width: 2; stroke-linecap: round"/>
    <path d="M 361.485716 210.4
L 365.485716 212.4
L 361.485716 214.4
" style="fill: none; stroke: #004578; stroke-width: 2; stroke-linecap: round"/>
   </g>
   <g id="patch_12">
    <path d="M 467.480566 212.4
Q 492.841175 212.4 515.965716 212.4
" style="fill: none; stroke: #107c10; stroke-width: 2; stroke-linecap: round"/>
    <path d="M 511.965716 210.4
L 515.965716 212.4
L 511.965716 214.4
" style="fill: none; stroke: #107c10; stroke-width: 2; stroke-linecap: round"/>
   </g>
   <g id="text_15">
    <!-- Valid -->
    <g style="fill: #107c10" transform="translate(492.84 191.88) scale(0.08 -0.08)">
     <defs>
      <path id="DejaVuSans-61" d="M 2194 1759
Q 1497 1759 1228 1600
Q 959 1441 959 1056
Q 959 750 1161 570
Q 1363 391 1709 391
Q 2188 391 2477 730
Q 2766 1069 2766 1631
L 2766 1759
L 2194 1759
z
M 3341 1997
L 3341 0
L 2766 0
L 2766 531
Q 2569 213 2275 61
Q 1981 -91 1556 -91
Q 1019 -91 701 211
Q 384 513 384 1019
Q 384 1609 779 1909
Q 1175 2209 1959 2209
L 2766 2209
L 2766 2266
Q 2766 2663 2505 2880
Q 2244 3097 1772 3097
Q 1472 3097 1187 3025
Q 903 2953 641 2809
L 641 3341
Q 956 3463 1253 3523
Q 1550 3584 1831 3584
Q 2591 3584 2966 3190
Q 3341 2797 3341 1997
z
" transform="scale(0.015625)"/>
      <path id="DejaVuSans-6c" d="M 603 4863
L 1178 4863
L 1178 0
L 603 0
L 603 4863
z
" transform="scale(0.015625)"/>
     </defs>
     <use xlink:href="#DejaVuSans-56"/>
     <use xlink:href="#DejaVuSans-61" transform="translate(60.658203 0)"/>
     <use xlink:href="#DejaVuSans-6c" transform="translate(121.9375 0)"/>
     <use xlink:href="#DejaVuSans-69" transform="translate(149.720703 0)"/>
     <use xlink:href="#DejaVuSans-64" transform="translate(177.503906 0)"/>
    </g>
   </g>
   <g id="patch_13">
    <path d="M 417.6 255.440566
Q 417.6 280.801175 417.6 303.925716
" style="fill: none; stroke: #d13438; stroke-width: 2; stroke-linecap: round"/>
    <path d="M 419.6 299.925716
L 417.6 303.925716
L 415.6 299.925716
" style="fill: none; stroke: #d13438; stroke-width: 2; stroke-linecap: round"/>
   </g>
   <g id="text_16">
    <!-- Invalid -->
    <g style="fill: #d13438" transform="translate(383.4 280.8) scale(0.08 -0.08)">
     <defs>
      <path id="DejaVuSans-76" d="M 191 3500
L 800 3500
L 1894 563
L 2988 3500
L 3597 3500
L 2284 0
L 1503 0
L 191 3500
z
" transform="scale(0.015625)"/>
     </defs>
     <use xlink:href="#DejaVuSans-49"/>
     <use xlink:href="#DejaVuSans-6e" transform="translate(29.492188 0)"/>
     <use xlink:href="#DejaVuSans-76" transform="translate(92.871094 0)"/>
     <use xlink:href="#DejaVuSans-61" transform="translate(152.050781 0)"/>
     <use xlink:href="#DejaVuSans-6c" transform="translate(213.330078 0)"/>
     <use xlink:href="#DejaVuSans-69" transform="translate(241.113281 0)"/>
     <use xlink:href="#DejaVuSans-64" transform="translate(268.896484 0)"/>
    </g>
   </g>
   <g id="patch_14">
    <path d="M 659.000566 212.4
Q 684.361175 212.4 707.485716 212.4
" style="fill: none; stroke: #004578; stroke-width: 2; stroke-linecap: round"/>
    <path d="M 703.485716 210.4
L 707.485716 212.4
L 703.485716 214.4
" style="fill: none; stroke: #004578; stroke-width: 2; stroke-linecap: round"/>
   </g>
   <g id="patch_15">
    <path d="M 809.481401 212.4
Q 828.002338 212.4 844.287207 212.4
" style="fill: none; stroke: #107c10; stroke-width: 2; stroke-linecap: round"/>
    <path d="M 840.287207 210.4
L 844.287207 212.4
L 840.287207 214.4
" style="fill: none; stroke: #107c10; stroke-width: 2; stroke-linecap: round"/>
   </g>
   <g id="text_17">
    <!-- Allowed -->
    <g style="fill: #107c10" transform="translate(828 191.88) scale(0.08 -0.08)">
     <defs>
      <path id="DejaVuSans-77" d="M 269 3500
L 844 3500
L 1563 769
L 2278 3500
L 2956 3500
L 3675 769
L 4391 3500
L 4966 3500
L 4050 0
L 3372 0
L 2619 2869
L 1863 0
L 1184 0
L 269 3500
z
" transform="scale(0.015625)"/>
     </defs>
     <use xlink:href="#DejaVuSans-41"/>
     <use xlink:href="#DejaVuSans-6c" transform="translate(68.408203 0)"/>
     <use xlink:href="#DejaVuSans-6c" transform="translate(96.191406 0)"/>
     <use xlink:href="#DejaVuSans-6f" transform="translate(123.974609 0)"/>
     <use xlink:href="#DejaVuSans-77" transform="translate(185.15625 0)"/>
     <use xlink:href="#DejaVuSans-65" transform="translate(266.943359 0)"/>
     <use xlink:href="#DejaVuSans-64" transform="translate(328.466797 0)"/>
    </g>
   </g>
   <g id="patch_16">
    <path d="M 759.6 255.440566
Q 759.6 280.801175 759.6 303.925716
" style="fill: none; stroke: #d13438; stroke-width: 2; stroke-linecap: round"/>
    <path d="M 761.6 299.925716
L 759.6 303.925716
L 757.6 299.925716
" style="fill: none; stroke: #d13438; stroke-width: 2; stroke-linecap: round"/>
   </g>
   <g id="text_18">
    <!-- Not -->
    <g style="fill: #d13438" transform="translate(711.72 272.961531) scale(0.07 -0.07)">
     <defs>
      <path id="DejaVuSans-4e" d="M 628 4666
L 1478 4666
L 3547 763
L 3547 4666
L 4159 4666
L 4159 0
L 3309 0
L 1241 3903
L 1241 0
L 628 0
L 628 4666
z
" transform="scale(0.015625)"/>
     </defs>
     <use xlink:href="#DejaVuSans-4e"/>
     <use xlink:href="#DejaVuSans-6f" transform="translate(74.804688 0)"/>
     <use xlink:href="#DejaVuSans-74" transform="translate(135.986328 0)"/>
    </g>
    <!-- Allowed -->
    <g style="fill: #d13438" transform="translate(711.72 280.8) scale(0.07 -0.07)">
     <use xlink:href="#DejaVuSans-41"/>
     <use xlink:href="#DejaVuSans-6c" transform="translate(68.408203 0)"/>
     <use xlink:href="#DejaVuSans-6c" transform="translate(96.191406 0)"/>
     <use xlink:href="#DejaVuSans-6f" transform="translate(123.974609 0)"/>
     <use xlink:href="#DejaVuSans-77" transform="translate(185.15625 0)"/>
     <use xlink:href="#DejaVuSans-65" transform="translate(266.943359 0)"/>
     <use xlink:href="#DejaVuSans-64" transform="translate(328.466797 0)"/>
    </g>
   </g>
  </g>
 </g>
 <defs>
  <clipPath id="pec5cc4173e">
   <rect x="7.2" y="7.2" width="957.6" height="410.4"/>
  </clipPath>
 </defs>
</svg>
