<?xml version="1.0" encoding="utf-8" standalone="no"?>
<!DOCTYPE svg PUBLIC "-//W3C//DTD SVG 1.1//EN"
  "http://www.w3.org/Graphics/SVG/1.1/DTD/svg11.dtd">
<svg xmlns:xlink="http://www.w3.org/1999/xlink" width="992.16pt" height="712.8pt" viewBox="0 0 992.16 712.8" xmlns="http://www.w3.org/2000/svg" version="1.1">
 <metadata>
  <rdf:RDF xmlns:dc="http://purl.org/dc/elements/1.1/" xmlns:cc="http://creativecommons.org/ns#" xmlns:rdf="http://www.w3.org/1999/02/22-rdf-syntax-ns#">
   <cc:Work>
    <dc:type rdf:resource="http://purl.org/dc/dcmitype/StillImage"/>
    <dc:date>2025-11-27T19:33:10.266103</dc:date>
    <dc:format>image/svg+xml</dc:format>
    <dc:creator>
     <cc:Agent>
      <dc:title>Matplotlib v3.10.7, https://matplotlib.org/</dc:title>
     </cc:Agent>
    </dc:creator>
   </cc:Work>
  </rdf:RDF>
 </metadata>
 <defs>
  <style type="text/css">*{stroke-linejoin: round; stroke-linecap: butt}</style>
 </defs>
 <g id="figure_1">
  <g id="patch_1">
   <path d="M 0 712.8
L 992.16 712.8
L 992.16 0
L 0 0
z
" style="fill: #ffffff"/>
  </g>
  <g id="axes_1">
   <g id="patch_2">
    <path d="M 111.96 272.592
C 126.777428 272.592 140.989967 266.704974 151.46747 256.22747
C 161.944974 245.749967 167.832 231.537428 167.832 216.72
C 167.832 201.902572 161.944974 187.690033 151.46747 177.21253
C 140.989967 166.735026 126.777428 160.848 111.96 160.848
C 97.142572 160.848 82.930033 166.735026 72.45253 177.21253
C 61.975026 187.690033 56.088 201.902572 56.088 216.72
C 56.088 231.537428 61.975026 245.749967 72.45253 256.22747
C 82.930033 266.704974 97.142572 272.592 111.96 272.592
z
" clip-path="url(#p50d7e8e272)" style="fill: #ffffff; stroke: #0078d4; stroke-width: 2; stroke-linejoin: miter"/>
   </g>
   <g id="patch_3">
    <path d="M 251.64 503.064
L 740.52 503.064
Q 747.504 503.064 747.504 496.08
L 747.504 77.04
Q 747.504 70.056 740.52 70.056
L 251.64 70.056
Q 244.656 70.056 244.656 77.04
L 244.656 496.08
Q 244.656 503.064 251.64 503.064
z
" clip-path="url(#p50d7e8e272)" style="fill: #e8f4fd; stroke: #0078d4; stroke-width: 2; stroke-linejoin: miter"/>
   </g>
   <g id="patch_4">
    <path d="M 321.48 218.1168
L 461.16 218.1168
Q 462.5568 218.1168 462.5568 216.72
L 462.5568 146.88
Q 462.5568 145.4832 461.16 145.4832
L 321.48 145.4832
Q 320.0832 145.4832 320.0832 146.88
L 320.0832 216.72
Q 320.0832 218.1168 321.48 218.1168
z
" clip-path="url(#p50d7e8e272)" style="fill: #0078d4; stroke: #004578; stroke-width: 1.5; stroke-linejoin: miter"/>
   </g>
   <g id="patch_5">
    <path d="M 321.48 322.8768
L 461.16 322.8768
Q 462.5568 322.8768 462.5568 321.48
L 462.5568 251.64
Q 462.5568 250.2432 461.16 250.2432
L 321.48 250.2432
Q 320.0832 250.2432 320.0832 251.64
L 320.0832 321.48
Q 320.0832 322.8768 321.48 322.8768
z
" clip-path="url(#p50d7e8e272)" style="fill: #0078d4; stroke: #004578; stroke-width: 1.5; stroke-linejoin: miter"/>
   </g>
   <g id="patch_6">
    <path d="M 496.08 433.224
L 719.568 433.224
Q 726.552 433.224 726.552 426.24
L 726.552 146.88
Q 726.552 139.896 719.568 139.896
L 496.08 139.896
Q 489.096 139.896 489.096 146.88
L 489.096 426.24
Q 489.096 433.224 496.08 433.224
z
" clip-path="url(#p50d7e8e272)" style="fill: #ffffff; stroke: #004578; stroke-width: 2; stroke-linejoin: miter"/>
   </g>
   <g id="patch_7">
    <path d="M 510.048 273.9888
L 705.6 273.9888
Q 706.9968 273.9888 706.9968 272.592
L 706.9968 188.784
Q 706.9968 187.3872 705.6 187.3872
L 510.048 187.3872
Q 508.6512 187.3872 508.6512 188.784
L 508.6512 272.592
Q 508.6512 273.9888 510.048 273.9888
z
" clip-path="url(#p50d7e8e272)" style="fill: #e8f4fd; stroke: #0078d4; stroke-linejoin: miter"/>
   </g>
   <g id="patch_8">
    <path d="M 510.048 392.7168
L 705.6 392.7168
Q 706.9968 392.7168 706.9968 391.32
L 706.9968 307.512
Q 706.9968 306.1152 705.6 306.1152
L 510.048 306.1152
Q 508.6512 306.1152 508.6512 307.512
L 508.6512 391.32
Q 508.6512 392.7168 510.048 392.7168
z
" clip-path="url(#p50d7e8e272)" style="fill: #e8f4fd; stroke: #0078d4; stroke-linejoin: miter"/>
   </g>
   <g id="patch_9">
    <path d="M 321.48 427.6368
L 461.16 427.6368
Q 462.5568 427.6368 462.5568 426.24
L 462.5568 356.4
Q 462.5568 355.0032 461.16 355.0032
L 321.48 355.0032
Q 320.0832 355.0032 320.0832 356.4
L 320.0832 426.24
Q 320.0832 427.6368 321.48 427.6368
z
" clip-path="url(#p50d7e8e272)" style="fill: #ff8c00; stroke: #004578; stroke-width: 1.5; stroke-linejoin: miter"/>
   </g>
   <g id="patch_10">
    <path d="M 286.56 483.5088
L 426.24 483.5088
Q 427.6368 483.5088 427.6368 482.112
L 427.6368 440.208
Q 427.6368 438.8112 426.24 438.8112
L 286.56 438.8112
Q 285.1632 438.8112 285.1632 440.208
L 285.1632 482.112
Q 285.1632 483.5088 286.56 483.5088
z
" clip-path="url(#p50d7e8e272)" style="fill: #d13438; stroke: #004578; stroke-width: 1.5; stroke-linejoin: miter"/>
   </g>
   <g id="patch_11">
    <path d="M 775.44 433.224
L 950.04 433.224
Q 957.024 433.224 957.024 426.24
L 957.024 146.88
Q 957.024 139.896 950.04 139.896
L 775.44 139.896
Q 768.456 139.896 768.456 146.88
L 768.456 426.24
Q 768.456 433.224 775.44 433.224
z
" clip-path="url(#p50d7e8e272)" style="fill: #fff4e6; stroke: #ff8c00; stroke-width: 2; stroke-linejoin: miter"/>
   </g>
   <g id="patch_12">
    <path d="M 792.9 357.7968
L 932.58 357.7968
Q 933.9768 357.7968 933.9768 356.4
L 933.9768 251.64
Q 933.9768 250.2432 932.58 250.2432
L 792.9 250.2432
Q 791.5032 250.2432 791.5032 251.64
L 791.5032 356.4
Q 791.5032 357.7968 792.9 357.7968
z
" clip-path="url(#p50d7e8e272)" style="fill: #ffffff; stroke: #ff8c00; stroke-width: 1.5; stroke-linejoin: miter"/>
   </g>
   <g id="patch_13">
    <path d="M 42.12 691.632
L 950.04 691.632
Q 957.024 691.632 957.024 684.648
L 957.024 531
Q 957.024 524.016 950.04 524.016
L 42.12 524.016
Q 35.136 524.016 35.136 531
L 35.136 684.648
Q 35.136 691.632 42.12 691.632
z
" clip-path="url(#p50d7e8e272)" style="fill: #f5f5f5; stroke: #004578; stroke-linejoin: miter"/>
   </g>
   <g id="line2d_1">
    <path d="M 461.16 391.32
L 510.048 251.64
" clip-path="url(#p50d7e8e272)" style="fill: none; stroke-dasharray: 3.7,1.6; stroke-dashoffset: 0; stroke: #000000; stroke-opacity: 0.5"/>
   </g>
   <g id="line2d_2">
    <path d="M 461.16 391.32
L 510.048 349.416
" clip-path="url(#p50d7e8e272)" style="fill: none; stroke-dasharray: 3.7,1.6; stroke-dashoffset: 0; stroke: #000000; stroke-opacity: 0.5"/>
   </g>
   <g id="text_1">
    <!-- [Cloud] Azure Networking Fundamentals -->
    <g style="fill: #004578" transform="translate(312.9425 42.12) scale(0.16 -0.16)">
     <defs>
      <path id="DejaVuSans-Bold-5b" d="M 550 4863
L 2491 4863
L 2491 4159
L 1613 4159
L 1613 -141
L 2491 -141
L 2491 -844
L 550 -844
L 550 4863
z
" transform="scale(0.015625)"/>
      <path id="DejaVuSans-Bold-43" d="M 4288 256
Q 3956 84 3597 -3
Q 3238 -91 2847 -91
Q 1681 -91 1000 561
Q 319 1213 319 2328
Q 319 3447 1000 4098
Q 1681 4750 2847 4750
Q 3238 4750 3597 4662
Q 3956 4575 4288 4403
L 4288 3438
Q 3953 3666 3628 3772
Q 3303 3878 2944 3878
Q 2300 3878 1931 3465
Q 1563 3053 1563 2328
Q 1563 1606 1931 1193
Q 2300 781 2944 781
Q 3303 781 3628 887
Q 3953 994 4288 1222
L 4288 256
z
" transform="scale(0.015625)"/>
      <path id="DejaVuSans-Bold-6c" d="M 538 4863
L 1656 4863
L 1656 0
L 538 0
L 538 4863
z
" transform="scale(0.015625)"/>
      <path id="DejaVuSans-Bold-6f" d="M 2203 2784
Q 1831 2784 1636 2517
Q 1441 2250 1441 1747
Q 1441 1244 1636 976
Q 1831 709 2203 709
Q 2569 709 2762 976
Q 2956 1244 2956 1747
Q 2956 2250 2762 2517
Q 2569 2784 2203 2784
z
M 2203 3584
Q 3106 3584 3614 3096
Q 4122 2609 4122 1747
Q 4122 884 3614 396
Q 3106 -91 2203 -91
Q 1297 -91 786 396
Q 275 884 275 1747
Q 275 2609 786 3096
Q 1297 3584 2203 3584
z
" transform="scale(0.015625)"/>
      <path id="DejaVuSans-Bold-75" d="M 500 1363
L 500 3500
L 1625 3500
L 1625 3150
Q 1625 2866 1622 2436
Q 1619 2006 1619 1863
Q 1619 1441 1641 1255
Q 1663 1069 1716 984
Q 1784 875 1895 815
Q 2006 756 2150 756
Q 2500 756 2700 1025
Q 2900 1294 2900 1772
L 2900 3500
L 4019 3500
L 4019 0
L 2900 0
L 2900 506
Q 2647 200 2364 54
Q 2081 -91 1741 -91
Q 1134 -91 817 281
Q 500 653 500 1363
z
" transform="scale(0.015625)"/>
      <path id="DejaVuSans-Bold-64" d="M 2919 2988
L 2919 4863
L 4044 4863
L 4044 0
L 2919 0
L 2919 506
Q 2688 197 2409 53
Q 2131 -91 1766 -91
Q 1119 -91 703 423
Q 288 938 288 1747
Q 288 2556 703 3070
Q 1119 3584 1766 3584
Q 2128 3584 2408 3439
Q 2688 3294 2919 2988
z
M 2181 722
Q 2541 722 2730 984
Q 2919 1247 2919 1747
Q 2919 2247 2730 2509
Q 2541 2772 2181 2772
Q 1825 2772 1636 2509
Q 1447 2247 1447 1747
Q 1447 1247 1636 984
Q 1825 722 2181 722
z
" transform="scale(0.015625)"/>
      <path id="DejaVuSans-Bold-5d" d="M 2375 -844
L 434 -844
L 434 -141
L 1313 -141
L 1313 4159
L 434 4159
L 434 4863
L 2375 4863
L 2375 -844
z
" transform="scale(0.015625)"/>
      <path id="DejaVuSans-Bold-20" transform="scale(0.015625)"/>
      <path id="DejaVuSans-Bold-41" d="M 3419 850
L 1538 850
L 1241 0
L 31 0
L 1759 4666
L 3194 4666
L 4922 0
L 3713 0
L 3419 850
z
M 1838 1716
L 3116 1716
L 2478 3572
L 1838 1716
z
" transform="scale(0.015625)"/>
      <path id="DejaVuSans-Bold-7a" d="M 366 3500
L 3419 3500
L 3419 2719
L 1575 800
L 3419 800
L 3419 0
L 288 0
L 288 781
L 2131 2700
L 366 2700
L 366 3500
z
" transform="scale(0.015625)"/>
      <path id="DejaVuSans-Bold-72" d="M 3138 2547
Q 2991 2616 2845 2648
Q 2700 2681 2553 2681
Q 2122 2681 1889 2404
Q 1656 2128 1656 1613
L 1656 0
L 538 0
L 538 3500
L 1656 3500
L 1656 2925
Q 1872 3269 2151 3426
Q 2431 3584 2822 3584
Q 2878 3584 2943 3579
Q 3009 3575 3134 3559
L 3138 2547
z
" transform="scale(0.015625)"/>
      <path id="DejaVuSans-Bold-65" d="M 4031 1759
L 4031 1441
L 1416 1441
Q 1456 1047 1700 850
Q 1944 653 2381 653
Q 2734 653 3104 758
Q 3475 863 3866 1075
L 3866 213
Q 3469 63 3072 -14
Q 2675 -91 2278 -91
Q 1328 -91 801 392
Q 275 875 275 1747
Q 275 2603 792 3093
Q 1309 3584 2216 3584
Q 3041 3584 3536 3087
Q 4031 2591 4031 1759
z
M 2881 2131
Q 2881 2450 2695 2645
Q 2509 2841 2209 2841
Q 1884 2841 1681 2658
Q 1478 2475 1428 2131
L 2881 2131
z
" transform="scale(0.015625)"/>
      <path id="DejaVuSans-Bold-4e" d="M 588 4666
L 1931 4666
L 3628 1466
L 3628 4666
L 4769 4666
L 4769 0
L 3425 0
L 1728 3200
L 1728 0
L 588 0
L 588 4666
z
" transform="scale(0.015625)"/>
      <path id="DejaVuSans-Bold-74" d="M 1759 4494
L 1759 3500
L 2913 3500
L 2913 2700
L 1759 2700
L 1759 1216
Q 1759 972 1856 886
Q 1953 800 2241 800
L 2816 800
L 2816 0
L 1856 0
Q 1194 0 917 276
Q 641 553 641 1216
L 641 2700
L 84 2700
L 84 3500
L 641 3500
L 641 4494
L 1759 4494
z
" transform="scale(0.015625)"/>
      <path id="DejaVuSans-Bold-77" d="M 225 3500
L 1313 3500
L 1900 1088
L 2491 3500
L 3425 3500
L 4013 1113
L 4603 3500
L 5691 3500
L 4769 0
L 3547 0
L 2956 2406
L 2369 0
L 1147 0
L 225 3500
z
" transform="scale(0.015625)"/>
      <path id="DejaVuSans-Bold-6b" d="M 538 4863
L 1656 4863
L 1656 2216
L 2944 3500
L 4244 3500
L 2534 1894
L 4378 0
L 3022 0
L 1656 1459
L 1656 0
L 538 0
L 538 4863
z
" transform="scale(0.015625)"/>
      <path id="DejaVuSans-Bold-69" d="M 538 3500
L 1656 3500
L 1656 0
L 538 0
L 538 3500
z
M 538 4863
L 1656 4863
L 1656 3950
L 538 3950
L 538 4863
z
" transform="scale(0.015625)"/>
      <path id="DejaVuSans-Bold-6e" d="M 4056 2131
L 4056 0
L 2931 0
L 2931 347
L 2931 1631
Q 2931 2084 2911 2256
Q 2891 2428 2841 2509
Q 2775 2619 2662 2680
Q 2550 2741 2406 2741
Q 2056 2741 1856 2470
Q 1656 2200 1656 1722
L 1656 0
L 538 0
L 538 3500
L 1656 3500
L 1656 2988
Q 1909 3294 2193 3439
Q 2478 3584 2822 3584
Q 3428 3584 3742 3212
Q 4056 2841 4056 2131
z
" transform="scale(0.015625)"/>
      <path id="DejaVuSans-Bold-67" d="M 2919 594
Q 2688 288 2409 144
Q 2131 0 1766 0
Q 1125 0 706 504
Q 288 1009 288 1791
Q 288 2575 706 3076
Q 1125 3578 1766 3578
Q 2131 3578 2409 3434
Q 2688 3291 2919 2981
L 2919 3500
L 4044 3500
L 4044 353
Q 4044 -491 3511 -936
Q 2978 -1381 1966 -1381
Q 1638 -1381 1331 -1331
Q 1025 -1281 716 -1178
L 716 -306
Q 1009 -475 1290 -558
Q 1572 -641 1856 -641
Q 2406 -641 2662 -400
Q 2919 -159 2919 353
L 2919 594
z
M 2181 2772
Q 1834 2772 1640 2515
Q 1447 2259 1447 1791
Q 1447 1309 1634 1061
Q 1822 813 2181 813
Q 2531 813 2725 1069
Q 2919 1325 2919 1791
Q 2919 2259 2725 2515
Q 2531 2772 2181 2772
z
" transform="scale(0.015625)"/>
      <path id="DejaVuSans-Bold-46" d="M 588 4666
L 3834 4666
L 3834 3756
L 1791 3756
L 1791 2888
L 3713 2888
L 3713 1978
L 1791 1978
L 1791 0
L 588 0
L 588 4666
z
" transform="scale(0.015625)"/>
      <path id="DejaVuSans-Bold-61" d="M 2106 1575
Q 1756 1575 1579 1456
Q 1403 1338 1403 1106
Q 1403 894 1545 773
Q 1688 653 1941 653
Q 2256 653 2472 879
Q 2688 1106 2688 1447
L 2688 1575
L 2106 1575
z
M 3816 1997
L 3816 0
L 2688 0
L 2688 519
Q 2463 200 2181 54
Q 1900 -91 1497 -91
Q 953 -91 614 226
Q 275 544 275 1050
Q 275 1666 698 1953
Q 1122 2241 2028 2241
L 2688 2241
L 2688 2328
Q 2688 2594 2478 2717
Q 2269 2841 1825 2841
Q 1466 2841 1156 2769
Q 847 2697 581 2553
L 581 3406
Q 941 3494 1303 3539
Q 1666 3584 2028 3584
Q 2975 3584 3395 3211
Q 3816 2838 3816 1997
z
" transform="scale(0.015625)"/>
      <path id="DejaVuSans-Bold-6d" d="M 3781 2919
Q 3994 3244 4286 3414
Q 4578 3584 4928 3584
Q 5531 3584 5847 3212
Q 6163 2841 6163 2131
L 6163 0
L 5038 0
L 5038 1825
Q 5041 1866 5042 1909
Q 5044 1953 5044 2034
Q 5044 2406 4934 2573
Q 4825 2741 4581 2741
Q 4263 2741 4089 2478
Q 3916 2216 3909 1719
L 3909 0
L 2784 0
L 2784 1825
Q 2784 2406 2684 2573
Q 2584 2741 2328 2741
Q 2006 2741 1831 2477
Q 1656 2213 1656 1722
L 1656 0
L 531 0
L 531 3500
L 1656 3500
L 1656 2988
Q 1863 3284 2130 3434
Q 2397 3584 2719 3584
Q 3081 3584 3359 3409
Q 3638 3234 3781 2919
z
" transform="scale(0.015625)"/>
      <path id="DejaVuSans-Bold-73" d="M 3272 3391
L 3272 2541
Q 2913 2691 2578 2766
Q 2244 2841 1947 2841
Q 1628 2841 1473 2761
Q 1319 2681 1319 2516
Q 1319 2381 1436 2309
Q 1553 2238 1856 2203
L 2053 2175
Q 2913 2066 3209 1816
Q 3506 1566 3506 1031
Q 3506 472 3093 190
Q 2681 -91 1863 -91
Q 1516 -91 1145 -36
Q 775 19 384 128
L 384 978
Q 719 816 1070 734
Q 1422 653 1784 653
Q 2113 653 2278 743
Q 2444 834 2444 1013
Q 2444 1163 2330 1236
Q 2216 1309 1875 1350
L 1678 1375
Q 931 1469 631 1722
Q 331 1975 331 2491
Q 331 3047 712 3315
Q 1094 3584 1881 3584
Q 2191 3584 2531 3537
Q 2872 3491 3272 3391
z
" transform="scale(0.015625)"/>
     </defs>
     <use xlink:href="#DejaVuSans-Bold-5b"/>
     <use xlink:href="#DejaVuSans-Bold-43" transform="translate(45.703125 0)"/>
     <use xlink:href="#DejaVuSans-Bold-6c" transform="translate(119.091797 0)"/>
     <use xlink:href="#DejaVuSans-Bold-6f" transform="translate(153.369141 0)"/>
     <use xlink:href="#DejaVuSans-Bold-75" transform="translate(222.070312 0)"/>
     <use xlink:href="#DejaVuSans-Bold-64" transform="translate(293.261719 0)"/>
     <use xlink:href="#DejaVuSans-Bold-5d" transform="translate(364.84375 0)"/>
     <use xlink:href="#DejaVuSans-Bold-20" transform="translate(410.546875 0)"/>
     <use xlink:href="#DejaVuSans-Bold-41" transform="translate(445.361328 0)"/>
     <use xlink:href="#DejaVuSans-Bold-7a" transform="translate(522.753906 0)"/>
     <use xlink:href="#DejaVuSans-Bold-75" transform="translate(580.957031 0)"/>
     <use xlink:href="#DejaVuSans-Bold-72" transform="translate(652.148438 0)"/>
     <use xlink:href="#DejaVuSans-Bold-65" transform="translate(701.464844 0)"/>
     <use xlink:href="#DejaVuSans-Bold-20" transform="translate(769.287109 0)"/>
     <use xlink:href="#DejaVuSans-Bold-4e" transform="translate(804.101562 0)"/>
     <use xlink:href="#DejaVuSans-Bold-65" transform="translate(887.792969 0)"/>
     <use xlink:href="#DejaVuSans-Bold-74" transform="translate(955.615234 0)"/>
     <use xlink:href="#DejaVuSans-Bold-77" transform="translate(1003.417969 0)"/>
     <use xlink:href="#DejaVuSans-Bold-6f" transform="translate(1095.800781 0)"/>
     <use xlink:href="#DejaVuSans-Bold-72" transform="translate(1164.501953 0)"/>
     <use xlink:href="#DejaVuSans-Bold-6b" transform="translate(1213.818359 0)"/>
     <use xlink:href="#DejaVuSans-Bold-69" transform="translate(1280.322266 0)"/>
     <use xlink:href="#DejaVuSans-Bold-6e" transform="translate(1314.599609 0)"/>
     <use xlink:href="#DejaVuSans-Bold-67" transform="translate(1385.791016 0)"/>
     <use xlink:href="#DejaVuSans-Bold-20" transform="translate(1457.373047 0)"/>
     <use xlink:href="#DejaVuSans-Bold-46" transform="translate(1492.1875 0)"/>
     <use xlink:href="#DejaVuSans-Bold-75" transform="translate(1555.498047 0)"/>
     <use xlink:href="#DejaVuSans-Bold-6e" transform="translate(1626.689453 0)"/>
     <use xlink:href="#DejaVuSans-Bold-64" transform="translate(1697.880859 0)"/>
     <use xlink:href="#DejaVuSans-Bold-61" transform="translate(1769.462891 0)"/>
     <use xlink:href="#DejaVuSans-Bold-6d" transform="translate(1836.943359 0)"/>
     <use xlink:href="#DejaVuSans-Bold-65" transform="translate(1941.142578 0)"/>
     <use xlink:href="#DejaVuSans-Bold-6e" transform="translate(2008.964844 0)"/>
     <use xlink:href="#DejaVuSans-Bold-74" transform="translate(2080.15625 0)"/>
     <use xlink:href="#DejaVuSans-Bold-61" transform="translate(2127.958984 0)"/>
     <use xlink:href="#DejaVuSans-Bold-6c" transform="translate(2195.439453 0)"/>
     <use xlink:href="#DejaVuSans-Bold-73" transform="translate(2229.716797 0)"/>
    </g>
   </g>
   <g id="text_2">
    <!-- [Global] -->
    <g style="fill: #004578" transform="translate(96.07875 214.448375) scale(0.08 -0.08)">
     <defs>
      <path id="DejaVuSans-5b" d="M 550 4863
L 1875 4863
L 1875 4416
L 1125 4416
L 1125 -397
L 1875 -397
L 1875 -844
L 550 -844
L 550 4863
z
" transform="scale(0.015625)"/>
      <path id="DejaVuSans-47" d="M 3809 666
L 3809 1919
L 2778 1919
L 2778 2438
L 4434 2438
L 4434 434
Q 4069 175 3628 42
Q 3188 -91 2688 -91
Q 1594 -91 976 548
Q 359 1188 359 2328
Q 359 3472 976 4111
Q 1594 4750 2688 4750
Q 3144 4750 3555 4637
Q 3966 4525 4313 4306
L 4313 3634
Q 3963 3931 3569 4081
Q 3175 4231 2741 4231
Q 1884 4231 1454 3753
Q 1025 3275 1025 2328
Q 1025 1384 1454 906
Q 1884 428 2741 428
Q 3075 428 3337 486
Q 3600 544 3809 666
z
" transform="scale(0.015625)"/>
      <path id="DejaVuSans-6c" d="M 603 4863
L 1178 4863
L 1178 0
L 603 0
L 603 4863
z
" transform="scale(0.015625)"/>
      <path id="DejaVuSans-6f" d="M 1959 3097
Q 1497 3097 1228 2736
Q 959 2375 959 1747
Q 959 1119 1226 758
Q 1494 397 1959 397
Q 2419 397 2687 759
Q 2956 1122 2956 1747
Q 2956 2369 2687 2733
Q 2419 3097 1959 3097
z
M 1959 3584
Q 2709 3584 3137 3096
Q 3566 2609 3566 1747
Q 3566 888 3137 398
Q 2709 -91 1959 -91
Q 1206 -91 779 398
Q 353 888 353 1747
Q 353 2609 779 3096
Q 1206 3584 1959 3584
z
" transform="scale(0.015625)"/>
      <path id="DejaVuSans-62" d="M 3116 1747
Q 3116 2381 2855 2742
Q 2594 3103 2138 3103
Q 1681 3103 1420 2742
Q 1159 2381 1159 1747
Q 1159 1113 1420 752
Q 1681 391 2138 391
Q 2594 391 2855 752
Q 3116 1113 3116 1747
z
M 1159 2969
Q 1341 3281 1617 3432
Q 1894 3584 2278 3584
Q 2916 3584 3314 3078
Q 3713 2572 3713 1747
Q 3713 922 3314 415
Q 2916 -91 2278 -91
Q 1894 -91 1617 61
Q 1341 213 1159 525
L 1159 0
L 581 0
L 581 4863
L 1159 4863
L 1159 2969
z
" transform="scale(0.015625)"/>
      <path id="DejaVuSans-61" d="M 2194 1759
Q 1497 1759 1228 1600
Q 959 1441 959 1056
Q 959 750 1161 570
Q 1363 391 1709 391
Q 2188 391 2477 730
Q 2766 1069 2766 1631
L 2766 1759
L 2194 1759
z
M 3341 1997
L 3341 0
L 2766 0
L 2766 531
Q 2569 213 2275 61
Q 1981 -91 1556 -91
Q 1019 -91 701 211
Q 384 513 384 1019
Q 384 1609 779 1909
Q 1175 2209 1959 2209
L 2766 2209
L 2766 2266
Q 2766 2663 2505 2880
Q 2244 3097 1772 3097
Q 1472 3097 1187 3025
Q 903 2953 641 2809
L 641 3341
Q 956 3463 1253 3523
Q 1550 3584 1831 3584
Q 2591 3584 2966 3190
Q 3341 2797 3341 1997
z
" transform="scale(0.015625)"/>
      <path id="DejaVuSans-5d" d="M 1947 4863
L 1947 -844
L 622 -844
L 622 -397
L 1369 -397
L 1369 4416
L 622 4416
L 622 4863
L 1947 4863
z
" transform="scale(0.015625)"/>
     </defs>
     <use xlink:href="#DejaVuSans-5b"/>
     <use xlink:href="#DejaVuSans-47" transform="translate(39.013672 0)"/>
     <use xlink:href="#DejaVuSans-6c" transform="translate(116.503906 0)"/>
     <use xlink:href="#DejaVuSans-6f" transform="translate(144.287109 0)"/>
     <use xlink:href="#DejaVuSans-62" transform="translate(205.46875 0)"/>
     <use xlink:href="#DejaVuSans-61" transform="translate(268.945312 0)"/>
     <use xlink:href="#DejaVuSans-6c" transform="translate(330.224609 0)"/>
     <use xlink:href="#DejaVuSans-5d" transform="translate(358.007812 0)"/>
    </g>
    <!-- Internet -->
    <g style="fill: #004578" transform="translate(96.076875 223.406625) scale(0.08 -0.08)">
     <defs>
      <path id="DejaVuSans-49" d="M 628 4666
L 1259 4666
L 1259 0
L 628 0
L 628 4666
z
" transform="scale(0.015625)"/>
      <path id="DejaVuSans-6e" d="M 3513 2113
L 3513 0
L 2938 0
L 2938 2094
Q 2938 2591 2744 2837
Q 2550 3084 2163 3084
Q 1697 3084 1428 2787
Q 1159 2491 1159 1978
L 1159 0
L 581 0
L 581 3500
L 1159 3500
L 1159 2956
Q 1366 3272 1645 3428
Q 1925 3584 2291 3584
Q 2894 3584 3203 3211
Q 3513 2838 3513 2113
z
" transform="scale(0.015625)"/>
      <path id="DejaVuSans-74" d="M 1172 4494
L 1172 3500
L 2356 3500
L 2356 3053
L 1172 3053
L 1172 1153
Q 1172 725 1289 603
Q 1406 481 1766 481
L 2356 481
L 2356 0
L 1766 0
Q 1100 0 847 248
Q 594 497 594 1153
L 594 3053
L 172 3053
L 172 3500
L 594 3500
L 594 4494
L 1172 4494
z
" transform="scale(0.015625)"/>
      <path id="DejaVuSans-65" d="M 3597 1894
L 3597 1613
L 953 1613
Q 991 1019 1311 708
Q 1631 397 2203 397
Q 2534 397 2845 478
Q 3156 559 3463 722
L 3463 178
Q 3153 47 2828 -22
Q 2503 -91 2169 -91
Q 1331 -91 842 396
Q 353 884 353 1716
Q 353 2575 817 3079
Q 1281 3584 2069 3584
Q 2775 3584 3186 3129
Q 3597 2675 3597 1894
z
M 3022 2063
Q 3016 2534 2758 2815
Q 2500 3097 2075 3097
Q 1594 3097 1305 2825
Q 1016 2553 972 2059
L 3022 2063
z
" transform="scale(0.015625)"/>
      <path id="DejaVuSans-72" d="M 2631 2963
Q 2534 3019 2420 3045
Q 2306 3072 2169 3072
Q 1681 3072 1420 2755
Q 1159 2438 1159 1844
L 1159 0
L 581 0
L 581 3500
L 1159 3500
L 1159 2956
Q 1341 3275 1631 3429
Q 1922 3584 2338 3584
Q 2397 3584 2469 3576
Q 2541 3569 2628 3553
L 2631 2963
z
" transform="scale(0.015625)"/>
     </defs>
     <use xlink:href="#DejaVuSans-49"/>
     <use xlink:href="#DejaVuSans-6e" transform="translate(29.492188 0)"/>
     <use xlink:href="#DejaVuSans-74" transform="translate(92.871094 0)"/>
     <use xlink:href="#DejaVuSans-65" transform="translate(132.080078 0)"/>
     <use xlink:href="#DejaVuSans-72" transform="translate(193.603516 0)"/>
     <use xlink:href="#DejaVuSans-6e" transform="translate(232.966797 0)"/>
     <use xlink:href="#DejaVuSans-65" transform="translate(296.345703 0)"/>
     <use xlink:href="#DejaVuSans-74" transform="translate(357.869141 0)"/>
    </g>
   </g>
   <g id="text_3">
    <!-- [Cloud] Azure Networking -->
    <g style="fill: #0078d4" transform="translate(408.638437 97.992) scale(0.12 -0.12)">
     <use xlink:href="#DejaVuSans-Bold-5b"/>
     <use xlink:href="#DejaVuSans-Bold-43" transform="translate(45.703125 0)"/>
     <use xlink:href="#DejaVuSans-Bold-6c" transform="translate(119.091797 0)"/>
     <use xlink:href="#DejaVuSans-Bold-6f" transform="translate(153.369141 0)"/>
     <use xlink:href="#DejaVuSans-Bold-75" transform="translate(222.070312 0)"/>
     <use xlink:href="#DejaVuSans-Bold-64" transform="translate(293.261719 0)"/>
     <use xlink:href="#DejaVuSans-Bold-5d" transform="translate(364.84375 0)"/>
     <use xlink:href="#DejaVuSans-Bold-20" transform="translate(410.546875 0)"/>
     <use xlink:href="#DejaVuSans-Bold-41" transform="translate(445.361328 0)"/>
     <use xlink:href="#DejaVuSans-Bold-7a" transform="translate(522.753906 0)"/>
     <use xlink:href="#DejaVuSans-Bold-75" transform="translate(580.957031 0)"/>
     <use xlink:href="#DejaVuSans-Bold-72" transform="translate(652.148438 0)"/>
     <use xlink:href="#DejaVuSans-Bold-65" transform="translate(701.464844 0)"/>
     <use xlink:href="#DejaVuSans-Bold-20" transform="translate(769.287109 0)"/>
     <use xlink:href="#DejaVuSans-Bold-4e" transform="translate(804.101562 0)"/>
     <use xlink:href="#DejaVuSans-Bold-65" transform="translate(887.792969 0)"/>
     <use xlink:href="#DejaVuSans-Bold-74" transform="translate(955.615234 0)"/>
     <use xlink:href="#DejaVuSans-Bold-77" transform="translate(1003.417969 0)"/>
     <use xlink:href="#DejaVuSans-Bold-6f" transform="translate(1095.800781 0)"/>
     <use xlink:href="#DejaVuSans-Bold-72" transform="translate(1164.501953 0)"/>
     <use xlink:href="#DejaVuSans-Bold-6b" transform="translate(1213.818359 0)"/>
     <use xlink:href="#DejaVuSans-Bold-69" transform="translate(1280.322266 0)"/>
     <use xlink:href="#DejaVuSans-Bold-6e" transform="translate(1314.599609 0)"/>
     <use xlink:href="#DejaVuSans-Bold-67" transform="translate(1385.791016 0)"/>
    </g>
   </g>
   <g id="text_4">
    <!-- Application -->
    <g style="fill: #ffffff" transform="translate(368.97 179.528375) scale(0.08 -0.08)">
     <defs>
      <path id="DejaVuSans-41" d="M 2188 4044
L 1331 1722
L 3047 1722
L 2188 4044
z
M 1831 4666
L 2547 4666
L 4325 0
L 3669 0
L 3244 1197
L 1141 1197
L 716 0
L 50 0
L 1831 4666
z
" transform="scale(0.015625)"/>
      <path id="DejaVuSans-70" d="M 1159 525
L 1159 -1331
L 581 -1331
L 581 3500
L 1159 3500
L 1159 2969
Q 1341 3281 1617 3432
Q 1894 3584 2278 3584
Q 2916 3584 3314 3078
Q 3713 2572 3713 1747
Q 3713 922 3314 415
Q 2916 -91 2278 -91
Q 1894 -91 1617 61
Q 1341 213 1159 525
z
M 3116 1747
Q 3116 2381 2855 2742
Q 2594 3103 2138 3103
Q 1681 3103 1420 2742
Q 1159 2381 1159 1747
Q 1159 1113 1420 752
Q 1681 391 2138 391
Q 2594 391 2855 752
Q 3116 1113 3116 1747
z
" transform="scale(0.015625)"/>
      <path id="DejaVuSans-69" d="M 603 3500
L 1178 3500
L 1178 0
L 603 0
L 603 3500
z
M 603 4863
L 1178 4863
L 1178 4134
L 603 4134
L 603 4863
z
" transform="scale(0.015625)"/>
      <path id="DejaVuSans-63" d="M 3122 3366
L 3122 2828
Q 2878 2963 2633 3030
Q 2388 3097 2138 3097
Q 1578 3097 1268 2742
Q 959 2388 959 1747
Q 959 1106 1268 751
Q 1578 397 2138 397
Q 2388 397 2633 464
Q 2878 531 3122 666
L 3122 134
Q 2881 22 2623 -34
Q 2366 -91 2075 -91
Q 1284 -91 818 406
Q 353 903 353 1747
Q 353 2603 823 3093
Q 1294 3584 2113 3584
Q 2378 3584 2631 3529
Q 2884 3475 3122 3366
z
" transform="scale(0.015625)"/>
     </defs>
     <use xlink:href="#DejaVuSans-41"/>
     <use xlink:href="#DejaVuSans-70" transform="translate(68.408203 0)"/>
     <use xlink:href="#DejaVuSans-70" transform="translate(131.884766 0)"/>
     <use xlink:href="#DejaVuSans-6c" transform="translate(195.361328 0)"/>
     <use xlink:href="#DejaVuSans-69" transform="translate(223.144531 0)"/>
     <use xlink:href="#DejaVuSans-63" transform="translate(250.927734 0)"/>
     <use xlink:href="#DejaVuSans-61" transform="translate(305.908203 0)"/>
     <use xlink:href="#DejaVuSans-74" transform="translate(367.1875 0)"/>
     <use xlink:href="#DejaVuSans-69" transform="translate(406.396484 0)"/>
     <use xlink:href="#DejaVuSans-6f" transform="translate(434.179688 0)"/>
     <use xlink:href="#DejaVuSans-6e" transform="translate(495.361328 0)"/>
    </g>
    <!-- Gateway -->
    <g style="fill: #ffffff" transform="translate(373.65 188.486625) scale(0.08 -0.08)">
     <defs>
      <path id="DejaVuSans-77" d="M 269 3500
L 844 3500
L 1563 769
L 2278 3500
L 2956 3500
L 3675 769
L 4391 3500
L 4966 3500
L 4050 0
L 3372 0
L 2619 2869
L 1863 0
L 1184 0
L 269 3500
z
" transform="scale(0.015625)"/>
      <path id="DejaVuSans-79" d="M 2059 -325
Q 1816 -950 1584 -1140
Q 1353 -1331 966 -1331
L 506 -1331
L 506 -850
L 844 -850
Q 1081 -850 1212 -737
Q 1344 -625 1503 -206
L 1606 56
L 191 3500
L 800 3500
L 1894 763
L 2988 3500
L 3597 3500
L 2059 -325
z
" transform="scale(0.015625)"/>
     </defs>
     <use xlink:href="#DejaVuSans-47"/>
     <use xlink:href="#DejaVuSans-61" transform="translate(77.490234 0)"/>
     <use xlink:href="#DejaVuSans-74" transform="translate(138.769531 0)"/>
     <use xlink:href="#DejaVuSans-65" transform="translate(177.978516 0)"/>
     <use xlink:href="#DejaVuSans-77" transform="translate(239.501953 0)"/>
     <use xlink:href="#DejaVuSans-61" transform="translate(321.289062 0)"/>
     <use xlink:href="#DejaVuSans-79" transform="translate(382.568359 0)"/>
    </g>
   </g>
   <g id="text_5">
    <!-- Load -->
    <g style="fill: #ffffff" transform="translate(381.723125 284.288375) scale(0.08 -0.08)">
     <defs>
      <path id="DejaVuSans-4c" d="M 628 4666
L 1259 4666
L 1259 531
L 3531 531
L 3531 0
L 628 0
L 628 4666
z
" transform="scale(0.015625)"/>
      <path id="DejaVuSans-64" d="M 2906 2969
L 2906 4863
L 3481 4863
L 3481 0
L 2906 0
L 2906 525
Q 2725 213 2448 61
Q 2172 -91 1784 -91
Q 1150 -91 751 415
Q 353 922 353 1747
Q 353 2572 751 3078
Q 1150 3584 1784 3584
Q 2172 3584 2448 3432
Q 2725 3281 2906 2969
z
M 947 1747
Q 947 1113 1208 752
Q 1469 391 1925 391
Q 2381 391 2643 752
Q 2906 1113 2906 1747
Q 2906 2381 2643 2742
Q 2381 3103 1925 3103
Q 1469 3103 1208 2742
Q 947 2381 947 1747
z
" transform="scale(0.015625)"/>
     </defs>
     <use xlink:href="#DejaVuSans-4c"/>
     <use xlink:href="#DejaVuSans-6f" transform="translate(53.962891 0)"/>
     <use xlink:href="#DejaVuSans-61" transform="translate(115.144531 0)"/>
     <use xlink:href="#DejaVuSans-64" transform="translate(176.423828 0)"/>
    </g>
    <!-- Balancer -->
    <g style="fill: #ffffff" transform="translate(373.721875 293.246625) scale(0.08 -0.08)">
     <defs>
      <path id="DejaVuSans-42" d="M 1259 2228
L 1259 519
L 2272 519
Q 2781 519 3026 730
Q 3272 941 3272 1375
Q 3272 1813 3026 2020
Q 2781 2228 2272 2228
L 1259 2228
z
M 1259 4147
L 1259 2741
L 2194 2741
Q 2656 2741 2882 2914
Q 3109 3088 3109 3444
Q 3109 3797 2882 3972
Q 2656 4147 2194 4147
L 1259 4147
z
M 628 4666
L 2241 4666
Q 2963 4666 3353 4366
Q 3744 4066 3744 3513
Q 3744 3084 3544 2831
Q 3344 2578 2956 2516
Q 3422 2416 3680 2098
Q 3938 1781 3938 1306
Q 3938 681 3513 340
Q 3088 0 2303 0
L 628 0
L 628 4666
z
" transform="scale(0.015625)"/>
     </defs>
     <use xlink:href="#DejaVuSans-42"/>
     <use xlink:href="#DejaVuSans-61" transform="translate(68.603516 0)"/>
     <use xlink:href="#DejaVuSans-6c" transform="translate(129.882812 0)"/>
     <use xlink:href="#DejaVuSans-61" transform="translate(157.666016 0)"/>
     <use xlink:href="#DejaVuSans-6e" transform="translate(218.945312 0)"/>
     <use xlink:href="#DejaVuSans-63" transform="translate(282.324219 0)"/>
     <use xlink:href="#DejaVuSans-65" transform="translate(337.304688 0)"/>
     <use xlink:href="#DejaVuSans-72" transform="translate(398.828125 0)"/>
    </g>
   </g>
   <g id="text_6">
    <!-- Virtual Network (VNet) -->
    <g style="fill: #004578" transform="translate(549.596812 167.832) scale(0.09 -0.09)">
     <defs>
      <path id="DejaVuSans-Bold-56" d="M 31 4666
L 1241 4666
L 2478 1222
L 3713 4666
L 4922 4666
L 3194 0
L 1759 0
L 31 4666
z
" transform="scale(0.015625)"/>
      <path id="DejaVuSans-Bold-28" d="M 2413 -844
L 1484 -844
Q 1006 -72 778 623
Q 550 1319 550 2003
Q 550 2688 779 3389
Q 1009 4091 1484 4856
L 2413 4856
Q 2013 4116 1813 3408
Q 1613 2700 1613 2009
Q 1613 1319 1811 609
Q 2009 -100 2413 -844
z
" transform="scale(0.015625)"/>
      <path id="DejaVuSans-Bold-29" d="M 513 -844
Q 913 -100 1113 609
Q 1313 1319 1313 2009
Q 1313 2700 1113 3408
Q 913 4116 513 4856
L 1441 4856
Q 1916 4091 2145 3389
Q 2375 2688 2375 2003
Q 2375 1319 2147 623
Q 1919 -72 1441 -844
L 513 -844
z
" transform="scale(0.015625)"/>
     </defs>
     <use xlink:href="#DejaVuSans-Bold-56"/>
     <use xlink:href="#DejaVuSans-Bold-69" transform="translate(75.642578 0)"/>
     <use xlink:href="#DejaVuSans-Bold-72" transform="translate(109.919922 0)"/>
     <use xlink:href="#DejaVuSans-Bold-74" transform="translate(159.236328 0)"/>
     <use xlink:href="#DejaVuSans-Bold-75" transform="translate(207.039062 0)"/>
     <use xlink:href="#DejaVuSans-Bold-61" transform="translate(278.230469 0)"/>
     <use xlink:href="#DejaVuSans-Bold-6c" transform="translate(345.710938 0)"/>
     <use xlink:href="#DejaVuSans-Bold-20" transform="translate(379.988281 0)"/>
     <use xlink:href="#DejaVuSans-Bold-4e" transform="translate(414.802734 0)"/>
     <use xlink:href="#DejaVuSans-Bold-65" transform="translate(498.494141 0)"/>
     <use xlink:href="#DejaVuSans-Bold-74" transform="translate(566.316406 0)"/>
     <use xlink:href="#DejaVuSans-Bold-77" transform="translate(614.119141 0)"/>
     <use xlink:href="#DejaVuSans-Bold-6f" transform="translate(706.501953 0)"/>
     <use xlink:href="#DejaVuSans-Bold-72" transform="translate(775.203125 0)"/>
     <use xlink:href="#DejaVuSans-Bold-6b" transform="translate(824.519531 0)"/>
     <use xlink:href="#DejaVuSans-Bold-20" transform="translate(891.023438 0)"/>
     <use xlink:href="#DejaVuSans-Bold-28" transform="translate(925.837891 0)"/>
     <use xlink:href="#DejaVuSans-Bold-56" transform="translate(971.541016 0)"/>
     <use xlink:href="#DejaVuSans-Bold-4e" transform="translate(1048.933594 0)"/>
     <use xlink:href="#DejaVuSans-Bold-65" transform="translate(1132.625 0)"/>
     <use xlink:href="#DejaVuSans-Bold-74" transform="translate(1200.447266 0)"/>
     <use xlink:href="#DejaVuSans-Bold-29" transform="translate(1248.25 0)"/>
    </g>
   </g>
   <g id="text_7">
    <!-- Subnet A -->
    <g style="fill: #004578" transform="translate(589.638375 228.416375) scale(0.08 -0.08)">
     <defs>
      <path id="DejaVuSans-53" d="M 3425 4513
L 3425 3897
Q 3066 4069 2747 4153
Q 2428 4238 2131 4238
Q 1616 4238 1336 4038
Q 1056 3838 1056 3469
Q 1056 3159 1242 3001
Q 1428 2844 1947 2747
L 2328 2669
Q 3034 2534 3370 2195
Q 3706 1856 3706 1288
Q 3706 609 3251 259
Q 2797 -91 1919 -91
Q 1588 -91 1214 -16
Q 841 59 441 206
L 441 856
Q 825 641 1194 531
Q 1563 422 1919 422
Q 2459 422 2753 634
Q 3047 847 3047 1241
Q 3047 1584 2836 1778
Q 2625 1972 2144 2069
L 1759 2144
Q 1053 2284 737 2584
Q 422 2884 422 3419
Q 422 4038 858 4394
Q 1294 4750 2059 4750
Q 2388 4750 2728 4690
Q 3069 4631 3425 4513
z
" transform="scale(0.015625)"/>
      <path id="DejaVuSans-75" d="M 544 1381
L 544 3500
L 1119 3500
L 1119 1403
Q 1119 906 1312 657
Q 1506 409 1894 409
Q 2359 409 2629 706
Q 2900 1003 2900 1516
L 2900 3500
L 3475 3500
L 3475 0
L 2900 0
L 2900 538
Q 2691 219 2414 64
Q 2138 -91 1772 -91
Q 1169 -91 856 284
Q 544 659 544 1381
z
M 1991 3584
L 1991 3584
z
" transform="scale(0.015625)"/>
      <path id="DejaVuSans-20" transform="scale(0.015625)"/>
     </defs>
     <use xlink:href="#DejaVuSans-53"/>
     <use xlink:href="#DejaVuSans-75" transform="translate(63.476562 0)"/>
     <use xlink:href="#DejaVuSans-62" transform="translate(126.855469 0)"/>
     <use xlink:href="#DejaVuSans-6e" transform="translate(190.332031 0)"/>
     <use xlink:href="#DejaVuSans-65" transform="translate(253.710938 0)"/>
     <use xlink:href="#DejaVuSans-74" transform="translate(315.234375 0)"/>
     <use xlink:href="#DejaVuSans-20" transform="translate(354.443359 0)"/>
     <use xlink:href="#DejaVuSans-41" transform="translate(386.230469 0)"/>
    </g>
    <!-- 10.0.1.0/24 -->
    <g style="fill: #004578" transform="translate(584.84775 237.374625) scale(0.08 -0.08)">
     <defs>
      <path id="DejaVuSans-31" d="M 794 531
L 1825 531
L 1825 4091
L 703 3866
L 703 4441
L 1819 4666
L 2450 4666
L 2450 531
L 3481 531
L 3481 0
L 794 0
L 794 531
z
" transform="scale(0.015625)"/>
      <path id="DejaVuSans-30" d="M 2034 4250
Q 1547 4250 1301 3770
Q 1056 3291 1056 2328
Q 1056 1369 1301 889
Q 1547 409 2034 409
Q 2525 409 2770 889
Q 3016 1369 3016 2328
Q 3016 3291 2770 3770
Q 2525 4250 2034 4250
z
M 2034 4750
Q 2819 4750 3233 4129
Q 3647 3509 3647 2328
Q 3647 1150 3233 529
Q 2819 -91 2034 -91
Q 1250 -91 836 529
Q 422 1150 422 2328
Q 422 3509 836 4129
Q 1250 4750 2034 4750
z
" transform="scale(0.015625)"/>
      <path id="DejaVuSans-2e" d="M 684 794
L 1344 794
L 1344 0
L 684 0
L 684 794
z
" transform="scale(0.015625)"/>
      <path id="DejaVuSans-2f" d="M 1625 4666
L 2156 4666
L 531 -594
L 0 -594
L 1625 4666
z
" transform="scale(0.015625)"/>
      <path id="DejaVuSans-32" d="M 1228 531
L 3431 531
L 3431 0
L 469 0
L 469 531
Q 828 903 1448 1529
Q 2069 2156 2228 2338
Q 2531 2678 2651 2914
Q 2772 3150 2772 3378
Q 2772 3750 2511 3984
Q 2250 4219 1831 4219
Q 1534 4219 1204 4116
Q 875 4013 500 3803
L 500 4441
Q 881 4594 1212 4672
Q 1544 4750 1819 4750
Q 2544 4750 2975 4387
Q 3406 4025 3406 3419
Q 3406 3131 3298 2873
Q 3191 2616 2906 2266
Q 2828 2175 2409 1742
Q 1991 1309 1228 531
z
" transform="scale(0.015625)"/>
      <path id="DejaVuSans-34" d="M 2419 4116
L 825 1625
L 2419 1625
L 2419 4116
z
M 2253 4666
L 3047 4666
L 3047 1625
L 3713 1625
L 3713 1100
L 3047 1100
L 3047 0
L 2419 0
L 2419 1100
L 313 1100
L 313 1709
L 2253 4666
z
" transform="scale(0.015625)"/>
     </defs>
     <use xlink:href="#DejaVuSans-31"/>
     <use xlink:href="#DejaVuSans-30" transform="translate(63.623047 0)"/>
     <use xlink:href="#DejaVuSans-2e" transform="translate(127.246094 0)"/>
     <use xlink:href="#DejaVuSans-30" transform="translate(159.033203 0)"/>
     <use xlink:href="#DejaVuSans-2e" transform="translate(222.65625 0)"/>
     <use xlink:href="#DejaVuSans-31" transform="translate(254.443359 0)"/>
     <use xlink:href="#DejaVuSans-2e" transform="translate(318.066406 0)"/>
     <use xlink:href="#DejaVuSans-30" transform="translate(349.853516 0)"/>
     <use xlink:href="#DejaVuSans-2f" transform="translate(413.476562 0)"/>
     <use xlink:href="#DejaVuSans-32" transform="translate(447.167969 0)"/>
     <use xlink:href="#DejaVuSans-34" transform="translate(510.791016 0)"/>
    </g>
   </g>
   <g id="text_8">
    <!-- Subnet B -->
    <g style="fill: #004578" transform="translate(589.63025 347.144375) scale(0.08 -0.08)">
     <use xlink:href="#DejaVuSans-53"/>
     <use xlink:href="#DejaVuSans-75" transform="translate(63.476562 0)"/>
     <use xlink:href="#DejaVuSans-62" transform="translate(126.855469 0)"/>
     <use xlink:href="#DejaVuSans-6e" transform="translate(190.332031 0)"/>
     <use xlink:href="#DejaVuSans-65" transform="translate(253.710938 0)"/>
     <use xlink:href="#DejaVuSans-74" transform="translate(315.234375 0)"/>
     <use xlink:href="#DejaVuSans-20" transform="translate(354.443359 0)"/>
     <use xlink:href="#DejaVuSans-42" transform="translate(386.230469 0)"/>
    </g>
    <!-- 10.0.2.0/24 -->
    <g style="fill: #004578" transform="translate(584.84775 356.102625) scale(0.08 -0.08)">
     <use xlink:href="#DejaVuSans-31"/>
     <use xlink:href="#DejaVuSans-30" transform="translate(63.623047 0)"/>
     <use xlink:href="#DejaVuSans-2e" transform="translate(127.246094 0)"/>
     <use xlink:href="#DejaVuSans-30" transform="translate(159.033203 0)"/>
     <use xlink:href="#DejaVuSans-2e" transform="translate(222.65625 0)"/>
     <use xlink:href="#DejaVuSans-32" transform="translate(254.443359 0)"/>
     <use xlink:href="#DejaVuSans-2e" transform="translate(318.066406 0)"/>
     <use xlink:href="#DejaVuSans-30" transform="translate(349.853516 0)"/>
     <use xlink:href="#DejaVuSans-2f" transform="translate(413.476562 0)"/>
     <use xlink:href="#DejaVuSans-32" transform="translate(447.167969 0)"/>
     <use xlink:href="#DejaVuSans-34" transform="translate(510.791016 0)"/>
    </g>
   </g>
   <g id="text_9">
    <!-- Network Security -->
    <g style="fill: #ffffff" transform="translate(356.92125 389.048375) scale(0.08 -0.08)">
     <defs>
      <path id="DejaVuSans-4e" d="M 628 4666
L 1478 4666
L 3547 763
L 3547 4666
L 4159 4666
L 4159 0
L 3309 0
L 1241 3903
L 1241 0
L 628 0
L 628 4666
z
" transform="scale(0.015625)"/>
      <path id="DejaVuSans-6b" d="M 581 4863
L 1159 4863
L 1159 1991
L 2875 3500
L 3609 3500
L 1753 1863
L 3688 0
L 2938 0
L 1159 1709
L 1159 0
L 581 0
L 581 4863
z
" transform="scale(0.015625)"/>
     </defs>
     <use xlink:href="#DejaVuSans-4e"/>
     <use xlink:href="#DejaVuSans-65" transform="translate(74.804688 0)"/>
     <use xlink:href="#DejaVuSans-74" transform="translate(136.328125 0)"/>
     <use xlink:href="#DejaVuSans-77" transform="translate(175.537109 0)"/>
     <use xlink:href="#DejaVuSans-6f" transform="translate(257.324219 0)"/>
     <use xlink:href="#DejaVuSans-72" transform="translate(318.505859 0)"/>
     <use xlink:href="#DejaVuSans-6b" transform="translate(359.619141 0)"/>
     <use xlink:href="#DejaVuSans-20" transform="translate(417.529297 0)"/>
     <use xlink:href="#DejaVuSans-53" transform="translate(449.316406 0)"/>
     <use xlink:href="#DejaVuSans-65" transform="translate(512.792969 0)"/>
     <use xlink:href="#DejaVuSans-63" transform="translate(574.316406 0)"/>
     <use xlink:href="#DejaVuSans-75" transform="translate(629.296875 0)"/>
     <use xlink:href="#DejaVuSans-72" transform="translate(692.675781 0)"/>
     <use xlink:href="#DejaVuSans-69" transform="translate(733.789062 0)"/>
     <use xlink:href="#DejaVuSans-74" transform="translate(761.572266 0)"/>
     <use xlink:href="#DejaVuSans-79" transform="translate(800.78125 0)"/>
    </g>
    <!-- Group -->
    <g style="fill: #ffffff" transform="translate(379.144375 398.006625) scale(0.08 -0.08)">
     <use xlink:href="#DejaVuSans-47"/>
     <use xlink:href="#DejaVuSans-72" transform="translate(77.490234 0)"/>
     <use xlink:href="#DejaVuSans-6f" transform="translate(116.353516 0)"/>
     <use xlink:href="#DejaVuSans-75" transform="translate(177.535156 0)"/>
     <use xlink:href="#DejaVuSans-70" transform="translate(240.914062 0)"/>
    </g>
   </g>
   <g id="text_10">
    <!-- Azure Firewall -->
    <g style="fill: #ffffff" transform="translate(328.66 463.3675) scale(0.08 -0.08)">
     <defs>
      <path id="DejaVuSans-7a" d="M 353 3500
L 3084 3500
L 3084 2975
L 922 459
L 3084 459
L 3084 0
L 275 0
L 275 525
L 2438 3041
L 353 3041
L 353 3500
z
" transform="scale(0.015625)"/>
      <path id="DejaVuSans-46" d="M 628 4666
L 3309 4666
L 3309 4134
L 1259 4134
L 1259 2759
L 3109 2759
L 3109 2228
L 1259 2228
L 1259 0
L 628 0
L 628 4666
z
" transform="scale(0.015625)"/>
     </defs>
     <use xlink:href="#DejaVuSans-41"/>
     <use xlink:href="#DejaVuSans-7a" transform="translate(68.408203 0)"/>
     <use xlink:href="#DejaVuSans-75" transform="translate(120.898438 0)"/>
     <use xlink:href="#DejaVuSans-72" transform="translate(184.277344 0)"/>
     <use xlink:href="#DejaVuSans-65" transform="translate(223.140625 0)"/>
     <use xlink:href="#DejaVuSans-20" transform="translate(284.664062 0)"/>
     <use xlink:href="#DejaVuSans-46" transform="translate(316.451172 0)"/>
     <use xlink:href="#DejaVuSans-69" transform="translate(366.720703 0)"/>
     <use xlink:href="#DejaVuSans-72" transform="translate(394.503906 0)"/>
     <use xlink:href="#DejaVuSans-65" transform="translate(433.367188 0)"/>
     <use xlink:href="#DejaVuSans-77" transform="translate(494.890625 0)"/>
     <use xlink:href="#DejaVuSans-61" transform="translate(576.677734 0)"/>
     <use xlink:href="#DejaVuSans-6c" transform="translate(637.957031 0)"/>
     <use xlink:href="#DejaVuSans-6c" transform="translate(665.740234 0)"/>
    </g>
   </g>
   <g id="text_11">
    <!-- [Building] On-Premises -->
    <g style="fill: #ff8c00" transform="translate(797.525156 167.832) scale(0.1 -0.1)">
     <defs>
      <path id="DejaVuSans-Bold-42" d="M 2456 2859
Q 2741 2859 2887 2984
Q 3034 3109 3034 3353
Q 3034 3594 2887 3720
Q 2741 3847 2456 3847
L 1791 3847
L 1791 2859
L 2456 2859
z
M 2497 819
Q 2859 819 3042 972
Q 3225 1125 3225 1434
Q 3225 1738 3044 1889
Q 2863 2041 2497 2041
L 1791 2041
L 1791 819
L 2497 819
z
M 3616 2497
Q 4003 2384 4215 2081
Q 4428 1778 4428 1338
Q 4428 663 3972 331
Q 3516 0 2584 0
L 588 0
L 588 4666
L 2394 4666
Q 3366 4666 3802 4372
Q 4238 4078 4238 3431
Q 4238 3091 4078 2852
Q 3919 2613 3616 2497
z
" transform="scale(0.015625)"/>
      <path id="DejaVuSans-Bold-4f" d="M 2719 3878
Q 2169 3878 1866 3472
Q 1563 3066 1563 2328
Q 1563 1594 1866 1187
Q 2169 781 2719 781
Q 3272 781 3575 1187
Q 3878 1594 3878 2328
Q 3878 3066 3575 3472
Q 3272 3878 2719 3878
z
M 2719 4750
Q 3844 4750 4481 4106
Q 5119 3463 5119 2328
Q 5119 1197 4481 553
Q 3844 -91 2719 -91
Q 1597 -91 958 553
Q 319 1197 319 2328
Q 319 3463 958 4106
Q 1597 4750 2719 4750
z
" transform="scale(0.015625)"/>
      <path id="DejaVuSans-Bold-2d" d="M 347 2297
L 2309 2297
L 2309 1388
L 347 1388
L 347 2297
z
" transform="scale(0.015625)"/>
      <path id="DejaVuSans-Bold-50" d="M 588 4666
L 2584 4666
Q 3475 4666 3951 4270
Q 4428 3875 4428 3144
Q 4428 2409 3951 2014
Q 3475 1619 2584 1619
L 1791 1619
L 1791 0
L 588 0
L 588 4666
z
M 1791 3794
L 1791 2491
L 2456 2491
Q 2806 2491 2997 2661
Q 3188 2831 3188 3144
Q 3188 3456 2997 3625
Q 2806 3794 2456 3794
L 1791 3794
z
" transform="scale(0.015625)"/>
     </defs>
     <use xlink:href="#DejaVuSans-Bold-5b"/>
     <use xlink:href="#DejaVuSans-Bold-42" transform="translate(45.703125 0)"/>
     <use xlink:href="#DejaVuSans-Bold-75" transform="translate(121.923828 0)"/>
     <use xlink:href="#DejaVuSans-Bold-69" transform="translate(193.115234 0)"/>
     <use xlink:href="#DejaVuSans-Bold-6c" transform="translate(227.392578 0)"/>
     <use xlink:href="#DejaVuSans-Bold-64" transform="translate(261.669922 0)"/>
     <use xlink:href="#DejaVuSans-Bold-69" transform="translate(333.251953 0)"/>
     <use xlink:href="#DejaVuSans-Bold-6e" transform="translate(367.529297 0)"/>
     <use xlink:href="#DejaVuSans-Bold-67" transform="translate(438.720703 0)"/>
     <use xlink:href="#DejaVuSans-Bold-5d" transform="translate(510.302734 0)"/>
     <use xlink:href="#DejaVuSans-Bold-20" transform="translate(556.005859 0)"/>
     <use xlink:href="#DejaVuSans-Bold-4f" transform="translate(590.820312 0)"/>
     <use xlink:href="#DejaVuSans-Bold-6e" transform="translate(675.830078 0)"/>
     <use xlink:href="#DejaVuSans-Bold-2d" transform="translate(747.021484 0)"/>
     <use xlink:href="#DejaVuSans-Bold-50" transform="translate(788.525391 0)"/>
     <use xlink:href="#DejaVuSans-Bold-72" transform="translate(861.816406 0)"/>
     <use xlink:href="#DejaVuSans-Bold-65" transform="translate(911.132812 0)"/>
     <use xlink:href="#DejaVuSans-Bold-6d" transform="translate(978.955078 0)"/>
     <use xlink:href="#DejaVuSans-Bold-69" transform="translate(1083.154297 0)"/>
     <use xlink:href="#DejaVuSans-Bold-73" transform="translate(1117.431641 0)"/>
     <use xlink:href="#DejaVuSans-Bold-65" transform="translate(1176.953125 0)"/>
     <use xlink:href="#DejaVuSans-Bold-73" transform="translate(1244.775391 0)"/>
    </g>
   </g>
   <g id="text_12">
    <!-- Data Center -->
    <g style="fill: #004578" transform="translate(835.419375 306.503437) scale(0.09 -0.09)">
     <defs>
      <path id="DejaVuSans-44" d="M 1259 4147
L 1259 519
L 2022 519
Q 2988 519 3436 956
Q 3884 1394 3884 2338
Q 3884 3275 3436 3711
Q 2988 4147 2022 4147
L 1259 4147
z
M 628 4666
L 1925 4666
Q 3281 4666 3915 4102
Q 4550 3538 4550 2338
Q 4550 1131 3912 565
Q 3275 0 1925 0
L 628 0
L 628 4666
z
" transform="scale(0.015625)"/>
      <path id="DejaVuSans-43" d="M 4122 4306
L 4122 3641
Q 3803 3938 3442 4084
Q 3081 4231 2675 4231
Q 1875 4231 1450 3742
Q 1025 3253 1025 2328
Q 1025 1406 1450 917
Q 1875 428 2675 428
Q 3081 428 3442 575
Q 3803 722 4122 1019
L 4122 359
Q 3791 134 3420 21
Q 3050 -91 2638 -91
Q 1578 -91 968 557
Q 359 1206 359 2328
Q 359 3453 968 4101
Q 1578 4750 2638 4750
Q 3056 4750 3426 4639
Q 3797 4528 4122 4306
z
" transform="scale(0.015625)"/>
     </defs>
     <use xlink:href="#DejaVuSans-44"/>
     <use xlink:href="#DejaVuSans-61" transform="translate(77.001953 0)"/>
     <use xlink:href="#DejaVuSans-74" transform="translate(138.28125 0)"/>
     <use xlink:href="#DejaVuSans-61" transform="translate(177.490234 0)"/>
     <use xlink:href="#DejaVuSans-20" transform="translate(238.769531 0)"/>
     <use xlink:href="#DejaVuSans-43" transform="translate(270.556641 0)"/>
     <use xlink:href="#DejaVuSans-65" transform="translate(340.380859 0)"/>
     <use xlink:href="#DejaVuSans-6e" transform="translate(401.904297 0)"/>
     <use xlink:href="#DejaVuSans-74" transform="translate(465.283203 0)"/>
     <use xlink:href="#DejaVuSans-65" transform="translate(504.492188 0)"/>
     <use xlink:href="#DejaVuSans-72" transform="translate(566.015625 0)"/>
    </g>
   </g>
   <g id="patch_14">
    <path d="M 169.77792 216.277745
Q 244.654434 199.260356 317.350483 182.738526
" style="fill: none; stroke: #004578; stroke-width: 2; stroke-linecap: round"/>
    <path d="M 313.00671 181.674745
L 317.350483 182.738526
L 313.893194 185.575277
" style="fill: none; stroke: #004578; stroke-width: 2; stroke-linecap: round"/>
   </g>
   <g id="patch_15">
    <path d="M 391.32 218.719204
Q 391.32 234.180967 391.32 247.406662
" style="fill: none; stroke: #004578; stroke-width: 2; stroke-linecap: round"/>
    <path d="M 393.32 243.406662
L 391.32 247.406662
L 389.32 243.406662
" style="fill: none; stroke: #004578; stroke-width: 2; stroke-linecap: round"/>
   </g>
   <g id="patch_16">
    <path d="M 462.475894 285.056121
Q 485.604288 258.623671 507.260221 233.874033
" style="fill: none; stroke: #004578; stroke-width: 2; stroke-linecap: round"/>
    <path d="M 503.121049 235.56733
L 507.260221 233.874033
L 506.131356 238.201349
" style="fill: none; stroke: #004578; stroke-width: 2; stroke-linecap: round"/>
   </g>
   <g id="patch_17">
    <path d="M 462.571378 301.939378
Q 485.601191 324.969191 507.049865 346.417865
" style="fill: none; stroke: #004578; stroke-width: 2; stroke-linecap: round"/>
    <path d="M 505.635651 342.175224
L 507.049865 346.417865
L 502.807224 345.003651
" style="fill: none; stroke: #004578; stroke-width: 2; stroke-linecap: round"/>
   </g>
   <g id="text_13">
    <!-- Rules -->
    <g style="fill: #004578; opacity: 0.7" transform="translate(440.208 321.48) scale(0.07 -0.07)">
     <defs>
      <path id="DejaVuSans-52" d="M 2841 2188
Q 3044 2119 3236 1894
Q 3428 1669 3622 1275
L 4263 0
L 3584 0
L 2988 1197
Q 2756 1666 2539 1819
Q 2322 1972 1947 1972
L 1259 1972
L 1259 0
L 628 0
L 628 4666
L 2053 4666
Q 2853 4666 3247 4331
Q 3641 3997 3641 3322
Q 3641 2881 3436 2590
Q 3231 2300 2841 2188
z
M 1259 4147
L 1259 2491
L 2053 2491
Q 2509 2491 2742 2702
Q 2975 2913 2975 3322
Q 2975 3731 2742 3939
Q 2509 4147 2053 4147
L 1259 4147
z
" transform="scale(0.015625)"/>
      <path id="DejaVuSans-73" d="M 2834 3397
L 2834 2853
Q 2591 2978 2328 3040
Q 2066 3103 1784 3103
Q 1356 3103 1142 2972
Q 928 2841 928 2578
Q 928 2378 1081 2264
Q 1234 2150 1697 2047
L 1894 2003
Q 2506 1872 2764 1633
Q 3022 1394 3022 966
Q 3022 478 2636 193
Q 2250 -91 1575 -91
Q 1294 -91 989 -36
Q 684 19 347 128
L 347 722
Q 666 556 975 473
Q 1284 391 1588 391
Q 1994 391 2212 530
Q 2431 669 2431 922
Q 2431 1156 2273 1281
Q 2116 1406 1581 1522
L 1381 1569
Q 847 1681 609 1914
Q 372 2147 372 2553
Q 372 3047 722 3315
Q 1072 3584 1716 3584
Q 2034 3584 2315 3537
Q 2597 3491 2834 3397
z
" transform="scale(0.015625)"/>
     </defs>
     <use xlink:href="#DejaVuSans-52"/>
     <use xlink:href="#DejaVuSans-75" transform="translate(64.982422 0)"/>
     <use xlink:href="#DejaVuSans-6c" transform="translate(128.361328 0)"/>
     <use xlink:href="#DejaVuSans-65" transform="translate(156.144531 0)"/>
     <use xlink:href="#DejaVuSans-73" transform="translate(217.667969 0)"/>
    </g>
   </g>
   <g id="patch_18">
    <path d="M 723.80583 286.56
Q 747.503691 286.56 771.201553 286.56
" style="fill: none; stroke: #ff8c00; stroke-width: 2; stroke-linecap: round"/>
    <path d="M 727.80583 288.56
L 723.80583 286.56
L 727.80583 284.56
" style="fill: none; stroke: #ff8c00; stroke-width: 2; stroke-linecap: round"/>
    <path d="M 767.201553 284.56
L 771.201553 286.56
L 767.201553 288.56
" style="fill: none; stroke: #ff8c00; stroke-width: 2; stroke-linecap: round"/>
   </g>
   <g id="text_14">
    <!-- VPN/ -->
    <g style="fill: #ff8c00" transform="translate(739.201891 243.801531) scale(0.07 -0.07)">
     <defs>
      <path id="DejaVuSans-56" d="M 1831 0
L 50 4666
L 709 4666
L 2188 738
L 3669 4666
L 4325 4666
L 2547 0
L 1831 0
z
" transform="scale(0.015625)"/>
      <path id="DejaVuSans-50" d="M 1259 4147
L 1259 2394
L 2053 2394
Q 2494 2394 2734 2622
Q 2975 2850 2975 3272
Q 2975 3691 2734 3919
Q 2494 4147 2053 4147
L 1259 4147
z
M 628 4666
L 2053 4666
Q 2838 4666 3239 4311
Q 3641 3956 3641 3272
Q 3641 2581 3239 2228
Q 2838 1875 2053 1875
L 1259 1875
L 1259 0
L 628 0
L 628 4666
z
" transform="scale(0.015625)"/>
     </defs>
     <use xlink:href="#DejaVuSans-56"/>
     <use xlink:href="#DejaVuSans-50" transform="translate(68.408203 0)"/>
     <use xlink:href="#DejaVuSans-4e" transform="translate(128.710938 0)"/>
     <use xlink:href="#DejaVuSans-2f" transform="translate(203.515625 0)"/>
    </g>
    <!-- ExpressRoute -->
    <g style="fill: #ff8c00" transform="translate(723.678844 251.64) scale(0.07 -0.07)">
     <defs>
      <path id="DejaVuSans-45" d="M 628 4666
L 3578 4666
L 3578 4134
L 1259 4134
L 1259 2753
L 3481 2753
L 3481 2222
L 1259 2222
L 1259 531
L 3634 531
L 3634 0
L 628 0
L 628 4666
z
" transform="scale(0.015625)"/>
      <path id="DejaVuSans-78" d="M 3513 3500
L 2247 1797
L 3578 0
L 2900 0
L 1881 1375
L 863 0
L 184 0
L 1544 1831
L 300 3500
L 978 3500
L 1906 2253
L 2834 3500
L 3513 3500
z
" transform="scale(0.015625)"/>
     </defs>
     <use xlink:href="#DejaVuSans-45"/>
     <use xlink:href="#DejaVuSans-78" transform="translate(63.183594 0)"/>
     <use xlink:href="#DejaVuSans-70" transform="translate(122.363281 0)"/>
     <use xlink:href="#DejaVuSans-72" transform="translate(185.839844 0)"/>
     <use xlink:href="#DejaVuSans-65" transform="translate(224.703125 0)"/>
     <use xlink:href="#DejaVuSans-73" transform="translate(286.226562 0)"/>
     <use xlink:href="#DejaVuSans-73" transform="translate(338.326172 0)"/>
     <use xlink:href="#DejaVuSans-52" transform="translate(390.425781 0)"/>
     <use xlink:href="#DejaVuSans-6f" transform="translate(455.408203 0)"/>
     <use xlink:href="#DejaVuSans-75" transform="translate(516.589844 0)"/>
     <use xlink:href="#DejaVuSans-74" transform="translate(579.96875 0)"/>
     <use xlink:href="#DejaVuSans-65" transform="translate(619.177734 0)"/>
    </g>
   </g>
   <g id="patch_19">
    <path d="M 427.350432 459.494352
Q 461.160438 408.779343 494.040183 359.459725
" style="fill: none; stroke: #004578; stroke-width: 1.5; stroke-linecap: round"/>
    <path d="M 490.157282 361.678526
L 494.040183 359.459725
L 493.485483 363.897327
" style="fill: none; stroke: #004578; stroke-width: 1.5; stroke-linecap: round"/>
   </g>
   <g id="text_15">
    <!-- Key Components -->
    <g style="fill: #004578" transform="translate(443.958906 551.952) scale(0.11 -0.11)">
     <defs>
      <path id="DejaVuSans-Bold-4b" d="M 588 4666
L 1791 4666
L 1791 2963
L 3525 4666
L 4922 4666
L 2675 2456
L 5153 0
L 3647 0
L 1791 1838
L 1791 0
L 588 0
L 588 4666
z
" transform="scale(0.015625)"/>
      <path id="DejaVuSans-Bold-79" d="M 78 3500
L 1197 3500
L 2138 1125
L 2938 3500
L 4056 3500
L 2584 -331
Q 2363 -916 2067 -1148
Q 1772 -1381 1288 -1381
L 641 -1381
L 641 -647
L 991 -647
Q 1275 -647 1404 -556
Q 1534 -466 1606 -231
L 1638 -134
L 78 3500
z
" transform="scale(0.015625)"/>
      <path id="DejaVuSans-Bold-70" d="M 1656 506
L 1656 -1331
L 538 -1331
L 538 3500
L 1656 3500
L 1656 2988
Q 1888 3294 2169 3439
Q 2450 3584 2816 3584
Q 3463 3584 3878 3070
Q 4294 2556 4294 1747
Q 4294 938 3878 423
Q 3463 -91 2816 -91
Q 2450 -91 2169 54
Q 1888 200 1656 506
z
M 2400 2772
Q 2041 2772 1848 2508
Q 1656 2244 1656 1747
Q 1656 1250 1848 986
Q 2041 722 2400 722
Q 2759 722 2948 984
Q 3138 1247 3138 1747
Q 3138 2247 2948 2509
Q 2759 2772 2400 2772
z
" transform="scale(0.015625)"/>
     </defs>
     <use xlink:href="#DejaVuSans-Bold-4b"/>
     <use xlink:href="#DejaVuSans-Bold-65" transform="translate(75.740234 0)"/>
     <use xlink:href="#DejaVuSans-Bold-79" transform="translate(143.5625 0)"/>
     <use xlink:href="#DejaVuSans-Bold-20" transform="translate(208.748047 0)"/>
     <use xlink:href="#DejaVuSans-Bold-43" transform="translate(243.5625 0)"/>
     <use xlink:href="#DejaVuSans-Bold-6f" transform="translate(316.951172 0)"/>
     <use xlink:href="#DejaVuSans-Bold-6d" transform="translate(385.652344 0)"/>
     <use xlink:href="#DejaVuSans-Bold-70" transform="translate(489.851562 0)"/>
     <use xlink:href="#DejaVuSans-Bold-6f" transform="translate(561.433594 0)"/>
     <use xlink:href="#DejaVuSans-Bold-6e" transform="translate(630.134766 0)"/>
     <use xlink:href="#DejaVuSans-Bold-65" transform="translate(701.326172 0)"/>
     <use xlink:href="#DejaVuSans-Bold-6e" transform="translate(769.148438 0)"/>
     <use xlink:href="#DejaVuSans-Bold-74" transform="translate(840.339844 0)"/>
     <use xlink:href="#DejaVuSans-Bold-73" transform="translate(888.142578 0)"/>
    </g>
   </g>
   <g id="text_16">
    <!-- VNet -->
    <g style="fill: #0078d4" transform="translate(134.428359 600.84) scale(0.09 -0.09)">
     <use xlink:href="#DejaVuSans-Bold-56"/>
     <use xlink:href="#DejaVuSans-Bold-4e" transform="translate(77.392578 0)"/>
     <use xlink:href="#DejaVuSans-Bold-65" transform="translate(161.083984 0)"/>
     <use xlink:href="#DejaVuSans-Bold-74" transform="translate(228.90625 0)"/>
    </g>
   </g>
   <g id="text_17">
    <!-- Isolated network -->
    <g style="fill: #004578" transform="translate(113.5225 635.76) scale(0.08 -0.08)">
     <use xlink:href="#DejaVuSans-49"/>
     <use xlink:href="#DejaVuSans-73" transform="translate(29.492188 0)"/>
     <use xlink:href="#DejaVuSans-6f" transform="translate(81.591797 0)"/>
     <use xlink:href="#DejaVuSans-6c" transform="translate(142.773438 0)"/>
     <use xlink:href="#DejaVuSans-61" transform="translate(170.556641 0)"/>
     <use xlink:href="#DejaVuSans-74" transform="translate(231.835938 0)"/>
     <use xlink:href="#DejaVuSans-65" transform="translate(271.044922 0)"/>
     <use xlink:href="#DejaVuSans-64" transform="translate(332.568359 0)"/>
     <use xlink:href="#DejaVuSans-20" transform="translate(396.044922 0)"/>
     <use xlink:href="#DejaVuSans-6e" transform="translate(427.832031 0)"/>
     <use xlink:href="#DejaVuSans-65" transform="translate(491.210938 0)"/>
     <use xlink:href="#DejaVuSans-74" transform="translate(552.734375 0)"/>
     <use xlink:href="#DejaVuSans-77" transform="translate(591.943359 0)"/>
     <use xlink:href="#DejaVuSans-6f" transform="translate(673.730469 0)"/>
     <use xlink:href="#DejaVuSans-72" transform="translate(734.912109 0)"/>
     <use xlink:href="#DejaVuSans-6b" transform="translate(776.025391 0)"/>
    </g>
   </g>
   <g id="text_18">
    <!-- Subnets -->
    <g style="fill: #0078d4" transform="translate(335.650078 600.84) scale(0.09 -0.09)">
     <defs>
      <path id="DejaVuSans-Bold-53" d="M 3834 4519
L 3834 3531
Q 3450 3703 3084 3790
Q 2719 3878 2394 3878
Q 1963 3878 1756 3759
Q 1550 3641 1550 3391
Q 1550 3203 1689 3098
Q 1828 2994 2194 2919
L 2706 2816
Q 3484 2659 3812 2340
Q 4141 2022 4141 1434
Q 4141 663 3683 286
Q 3225 -91 2284 -91
Q 1841 -91 1394 -6
Q 947 78 500 244
L 500 1259
Q 947 1022 1364 901
Q 1781 781 2169 781
Q 2563 781 2772 912
Q 2981 1044 2981 1288
Q 2981 1506 2839 1625
Q 2697 1744 2272 1838
L 1806 1941
Q 1106 2091 782 2419
Q 459 2747 459 3303
Q 459 4000 909 4375
Q 1359 4750 2203 4750
Q 2588 4750 2994 4692
Q 3400 4634 3834 4519
z
" transform="scale(0.015625)"/>
      <path id="DejaVuSans-Bold-62" d="M 2400 722
Q 2759 722 2948 984
Q 3138 1247 3138 1747
Q 3138 2247 2948 2509
Q 2759 2772 2400 2772
Q 2041 2772 1848 2508
Q 1656 2244 1656 1747
Q 1656 1250 1848 986
Q 2041 722 2400 722
z
M 1656 2988
Q 1888 3294 2169 3439
Q 2450 3584 2816 3584
Q 3463 3584 3878 3070
Q 4294 2556 4294 1747
Q 4294 938 3878 423
Q 3463 -91 2816 -91
Q 2450 -91 2169 54
Q 1888 200 1656 506
L 1656 0
L 538 0
L 538 4863
L 1656 4863
L 1656 2988
z
" transform="scale(0.015625)"/>
     </defs>
     <use xlink:href="#DejaVuSans-Bold-53"/>
     <use xlink:href="#DejaVuSans-Bold-75" transform="translate(72.021484 0)"/>
     <use xlink:href="#DejaVuSans-Bold-62" transform="translate(143.212891 0)"/>
     <use xlink:href="#DejaVuSans-Bold-6e" transform="translate(214.794922 0)"/>
     <use xlink:href="#DejaVuSans-Bold-65" transform="translate(285.986328 0)"/>
     <use xlink:href="#DejaVuSans-Bold-74" transform="translate(353.808594 0)"/>
     <use xlink:href="#DejaVuSans-Bold-73" transform="translate(401.611328 0)"/>
    </g>
   </g>
   <g id="text_19">
    <!-- IP segmentation -->
    <g style="fill: #004578" transform="translate(323.87875 635.76) scale(0.08 -0.08)">
     <defs>
      <path id="DejaVuSans-67" d="M 2906 1791
Q 2906 2416 2648 2759
Q 2391 3103 1925 3103
Q 1463 3103 1205 2759
Q 947 2416 947 1791
Q 947 1169 1205 825
Q 1463 481 1925 481
Q 2391 481 2648 825
Q 2906 1169 2906 1791
z
M 3481 434
Q 3481 -459 3084 -895
Q 2688 -1331 1869 -1331
Q 1566 -1331 1297 -1286
Q 1028 -1241 775 -1147
L 775 -588
Q 1028 -725 1275 -790
Q 1522 -856 1778 -856
Q 2344 -856 2625 -561
Q 2906 -266 2906 331
L 2906 616
Q 2728 306 2450 153
Q 2172 0 1784 0
Q 1141 0 747 490
Q 353 981 353 1791
Q 353 2603 747 3093
Q 1141 3584 1784 3584
Q 2172 3584 2450 3431
Q 2728 3278 2906 2969
L 2906 3500
L 3481 3500
L 3481 434
z
" transform="scale(0.015625)"/>
      <path id="DejaVuSans-6d" d="M 3328 2828
Q 3544 3216 3844 3400
Q 4144 3584 4550 3584
Q 5097 3584 5394 3201
Q 5691 2819 5691 2113
L 5691 0
L 5113 0
L 5113 2094
Q 5113 2597 4934 2840
Q 4756 3084 4391 3084
Q 3944 3084 3684 2787
Q 3425 2491 3425 1978
L 3425 0
L 2847 0
L 2847 2094
Q 2847 2600 2669 2842
Q 2491 3084 2119 3084
Q 1678 3084 1418 2786
Q 1159 2488 1159 1978
L 1159 0
L 581 0
L 581 3500
L 1159 3500
L 1159 2956
Q 1356 3278 1631 3431
Q 1906 3584 2284 3584
Q 2666 3584 2933 3390
Q 3200 3197 3328 2828
z
" transform="scale(0.015625)"/>
     </defs>
     <use xlink:href="#DejaVuSans-49"/>
     <use xlink:href="#DejaVuSans-50" transform="translate(29.492188 0)"/>
     <use xlink:href="#DejaVuSans-20" transform="translate(89.794922 0)"/>
     <use xlink:href="#DejaVuSans-73" transform="translate(121.582031 0)"/>
     <use xlink:href="#DejaVuSans-65" transform="translate(173.681641 0)"/>
     <use xlink:href="#DejaVuSans-67" transform="translate(235.205078 0)"/>
     <use xlink:href="#DejaVuSans-6d" transform="translate(298.681641 0)"/>
     <use xlink:href="#DejaVuSans-65" transform="translate(396.09375 0)"/>
     <use xlink:href="#DejaVuSans-6e" transform="translate(457.617188 0)"/>
     <use xlink:href="#DejaVuSans-74" transform="translate(520.996094 0)"/>
     <use xlink:href="#DejaVuSans-61" transform="translate(560.205078 0)"/>
     <use xlink:href="#DejaVuSans-74" transform="translate(621.484375 0)"/>
     <use xlink:href="#DejaVuSans-69" transform="translate(660.693359 0)"/>
     <use xlink:href="#DejaVuSans-6f" transform="translate(688.476562 0)"/>
     <use xlink:href="#DejaVuSans-6e" transform="translate(749.658203 0)"/>
    </g>
   </g>
   <g id="text_20">
    <!-- NSG -->
    <g style="fill: #ff8c00" transform="translate(555.219844 600.84) scale(0.09 -0.09)">
     <defs>
      <path id="DejaVuSans-Bold-47" d="M 4781 347
Q 4331 128 3847 18
Q 3363 -91 2847 -91
Q 1681 -91 1000 561
Q 319 1213 319 2328
Q 319 3456 1012 4103
Q 1706 4750 2913 4750
Q 3378 4750 3804 4662
Q 4231 4575 4609 4403
L 4609 3438
Q 4219 3659 3833 3768
Q 3447 3878 3059 3878
Q 2341 3878 1952 3476
Q 1563 3075 1563 2328
Q 1563 1588 1938 1184
Q 2313 781 3003 781
Q 3191 781 3352 804
Q 3513 828 3641 878
L 3641 1784
L 2906 1784
L 2906 2591
L 4781 2591
L 4781 347
z
" transform="scale(0.015625)"/>
     </defs>
     <use xlink:href="#DejaVuSans-Bold-4e"/>
     <use xlink:href="#DejaVuSans-Bold-53" transform="translate(83.691406 0)"/>
     <use xlink:href="#DejaVuSans-Bold-47" transform="translate(155.712891 0)"/>
    </g>
   </g>
   <g id="text_21">
    <!-- Traffic rules -->
    <g style="fill: #004578" transform="translate(542.7375 635.76) scale(0.08 -0.08)">
     <defs>
      <path id="DejaVuSans-54" d="M -19 4666
L 3928 4666
L 3928 4134
L 2272 4134
L 2272 0
L 1638 0
L 1638 4134
L -19 4134
L -19 4666
z
" transform="scale(0.015625)"/>
      <path id="DejaVuSans-66" d="M 2375 4863
L 2375 4384
L 1825 4384
Q 1516 4384 1395 4259
Q 1275 4134 1275 3809
L 1275 3500
L 2222 3500
L 2222 3053
L 1275 3053
L 1275 0
L 697 0
L 697 3053
L 147 3053
L 147 3500
L 697 3500
L 697 3744
Q 697 4328 969 4595
Q 1241 4863 1831 4863
L 2375 4863
z
" transform="scale(0.015625)"/>
     </defs>
     <use xlink:href="#DejaVuSans-54"/>
     <use xlink:href="#DejaVuSans-72" transform="translate(46.333984 0)"/>
     <use xlink:href="#DejaVuSans-61" transform="translate(87.447266 0)"/>
     <use xlink:href="#DejaVuSans-66" transform="translate(148.726562 0)"/>
     <use xlink:href="#DejaVuSans-66" transform="translate(183.931641 0)"/>
     <use xlink:href="#DejaVuSans-69" transform="translate(219.136719 0)"/>
     <use xlink:href="#DejaVuSans-63" transform="translate(246.919922 0)"/>
     <use xlink:href="#DejaVuSans-20" transform="translate(301.900391 0)"/>
     <use xlink:href="#DejaVuSans-72" transform="translate(333.6875 0)"/>
     <use xlink:href="#DejaVuSans-75" transform="translate(374.800781 0)"/>
     <use xlink:href="#DejaVuSans-6c" transform="translate(438.179688 0)"/>
     <use xlink:href="#DejaVuSans-65" transform="translate(465.962891 0)"/>
     <use xlink:href="#DejaVuSans-73" transform="translate(527.486328 0)"/>
    </g>
   </g>
   <g id="text_22">
    <!-- Firewall -->
    <g style="fill: #d13438" transform="translate(755.272266 600.84) scale(0.09 -0.09)">
     <use xlink:href="#DejaVuSans-Bold-46"/>
     <use xlink:href="#DejaVuSans-Bold-69" transform="translate(68.310547 0)"/>
     <use xlink:href="#DejaVuSans-Bold-72" transform="translate(102.587891 0)"/>
     <use xlink:href="#DejaVuSans-Bold-65" transform="translate(151.904297 0)"/>
     <use xlink:href="#DejaVuSans-Bold-77" transform="translate(219.726562 0)"/>
     <use xlink:href="#DejaVuSans-Bold-61" transform="translate(312.109375 0)"/>
     <use xlink:href="#DejaVuSans-Bold-6c" transform="translate(379.589844 0)"/>
     <use xlink:href="#DejaVuSans-Bold-6c" transform="translate(413.867188 0)"/>
    </g>
   </g>
   <g id="text_23">
    <!-- Security filtering -->
    <g style="fill: #004578" transform="translate(742.2525 635.76) scale(0.08 -0.08)">
     <use xlink:href="#DejaVuSans-53"/>
     <use xlink:href="#DejaVuSans-65" transform="translate(63.476562 0)"/>
     <use xlink:href="#DejaVuSans-63" transform="translate(125 0)"/>
     <use xlink:href="#DejaVuSans-75" transform="translate(179.980469 0)"/>
     <use xlink:href="#DejaVuSans-72" transform="translate(243.359375 0)"/>
     <use xlink:href="#DejaVuSans-69" transform="translate(284.472656 0)"/>
     <use xlink:href="#DejaVuSans-74" transform="translate(312.255859 0)"/>
     <use xlink:href="#DejaVuSans-79" transform="translate(351.464844 0)"/>
     <use xlink:href="#DejaVuSans-20" transform="translate(410.644531 0)"/>
     <use xlink:href="#DejaVuSans-66" transform="translate(442.431641 0)"/>
     <use xlink:href="#DejaVuSans-69" transform="translate(477.636719 0)"/>
     <use xlink:href="#DejaVuSans-6c" transform="translate(505.419922 0)"/>
     <use xlink:href="#DejaVuSans-74" transform="translate(533.203125 0)"/>
     <use xlink:href="#DejaVuSans-65" transform="translate(572.412109 0)"/>
     <use xlink:href="#DejaVuSans-72" transform="translate(633.935547 0)"/>
     <use xlink:href="#DejaVuSans-69" transform="translate(675.048828 0)"/>
     <use xlink:href="#DejaVuSans-6e" transform="translate(702.832031 0)"/>
     <use xlink:href="#DejaVuSans-67" transform="translate(766.210938 0)"/>
    </g>
   </g>
  </g>
 </g>
 <defs>
  <clipPath id="p50d7e8e272">
   <rect x="7.2" y="7.2" width="977.76" height="698.4"/>
  </clipPath>
 </defs>
</svg>
