<?xml version="1.0" encoding="utf-8" standalone="no"?>
<!DOCTYPE svg PUBLIC "-//W3C//DTD SVG 1.1//EN"
  "http://www.w3.org/Graphics/SVG/1.1/DTD/svg11.dtd">
<svg xmlns:xlink="http://www.w3.org/1999/xlink" width="988.8pt" height="640.8pt" viewBox="0 0 988.8 640.8" xmlns="http://www.w3.org/2000/svg" version="1.1">
 <metadata>
  <rdf:RDF xmlns:dc="http://purl.org/dc/elements/1.1/" xmlns:cc="http://creativecommons.org/ns#" xmlns:rdf="http://www.w3.org/1999/02/22-rdf-syntax-ns#">
   <cc:Work>
    <dc:type rdf:resource="http://purl.org/dc/dcmitype/StillImage"/>
    <dc:date>2025-11-27T19:32:53.548231</dc:date>
    <dc:format>image/svg+xml</dc:format>
    <dc:creator>
     <cc:Agent>
      <dc:title>Matplotlib v3.10.7, https://matplotlib.org/</dc:title>
     </cc:Agent>
    </dc:creator>
   </cc:Work>
  </rdf:RDF>
 </metadata>
 <defs>
  <style type="text/css">*{stroke-linejoin: round; stroke-linecap: butt}</style>
 </defs>
 <g id="figure_1">
  <g id="patch_1">
   <path d="M 0 640.8
L 988.8 640.8
L 988.8 0
L 0 0
z
" style="fill: #ffffff"/>
  </g>
  <g id="axes_1">
   <g id="patch_2">
    <path d="M 42 327.36
L 320.4 327.36
Q 327.36 327.36 327.36 320.4
L 327.36 76.8
Q 327.36 69.84 320.4 69.84
L 42 69.84
Q 35.04 69.84 35.04 76.8
L 35.04 320.4
Q 35.04 327.36 42 327.36
z
" clip-path="url(#p10d0349fbd)" style="fill: #e8f4fd; stroke: #0078d4; stroke-width: 2; stroke-linejoin: miter"/>
   </g>
   <g id="patch_3">
    <path d="M 62.88 189.552
L 299.52 189.552
Q 300.912 189.552 300.912 188.16
L 300.912 125.52
Q 300.912 124.128 299.52 124.128
L 62.88 124.128
Q 61.488 124.128 61.488 125.52
L 61.488 188.16
Q 61.488 189.552 62.88 189.552
z
" clip-path="url(#p10d0349fbd)" style="fill: #ffffff; stroke: #0078d4; stroke-width: 1.5; stroke-linejoin: miter"/>
   </g>
   <g id="patch_4">
    <path d="M 62.88 273.072
L 299.52 273.072
Q 300.912 273.072 300.912 271.68
L 300.912 209.04
Q 300.912 207.648 299.52 207.648
L 62.88 207.648
Q 61.488 207.648 61.488 209.04
L 61.488 271.68
Q 61.488 273.072 62.88 273.072
z
" clip-path="url(#p10d0349fbd)" style="fill: #ffffff; stroke: #0078d4; stroke-width: 1.5; stroke-linejoin: miter"/>
   </g>
   <g id="patch_5">
    <path d="M 355.2 327.36
L 633.6 327.36
Q 640.56 327.36 640.56 320.4
L 640.56 76.8
Q 640.56 69.84 633.6 69.84
L 355.2 69.84
Q 348.24 69.84 348.24 76.8
L 348.24 320.4
Q 348.24 327.36 355.2 327.36
z
" clip-path="url(#p10d0349fbd)" style="fill: #fff4e6; stroke: #ff8c00; stroke-width: 2; stroke-linejoin: miter"/>
   </g>
   <g id="patch_6">
    <path d="M 376.08 182.592
L 612.72 182.592
Q 614.112 182.592 614.112 181.2
L 614.112 132.48
Q 614.112 131.088 612.72 131.088
L 376.08 131.088
Q 374.688 131.088 374.688 132.48
L 374.688 181.2
Q 374.688 182.592 376.08 182.592
z
" clip-path="url(#p10d0349fbd)" style="fill: #ffffff; stroke: #ff8c00; stroke-width: 1.5; stroke-linejoin: miter"/>
   </g>
   <g id="patch_7">
    <path d="M 376.08 241.752
L 612.72 241.752
Q 614.112 241.752 614.112 240.36
L 614.112 191.64
Q 614.112 190.248 612.72 190.248
L 376.08 190.248
Q 374.688 190.248 374.688 191.64
L 374.688 240.36
Q 374.688 241.752 376.08 241.752
z
" clip-path="url(#p10d0349fbd)" style="fill: #ffffff; stroke: #ff8c00; stroke-width: 1.5; stroke-linejoin: miter"/>
   </g>
   <g id="patch_8">
    <path d="M 376.08 300.912
L 612.72 300.912
Q 614.112 300.912 614.112 299.52
L 614.112 250.8
Q 614.112 249.408 612.72 249.408
L 376.08 249.408
Q 374.688 249.408 374.688 250.8
L 374.688 299.52
Q 374.688 300.912 376.08 300.912
z
" clip-path="url(#p10d0349fbd)" style="fill: #ffffff; stroke: #ff8c00; stroke-width: 1.5; stroke-linejoin: miter"/>
   </g>
   <g id="patch_9">
    <path d="M 668.4 327.36
L 946.8 327.36
Q 953.76 327.36 953.76 320.4
L 953.76 76.8
Q 953.76 69.84 946.8 69.84
L 668.4 69.84
Q 661.44 69.84 661.44 76.8
L 661.44 320.4
Q 661.44 327.36 668.4 327.36
z
" clip-path="url(#p10d0349fbd)" style="fill: #d4e9d7; stroke: #107c10; stroke-width: 2; stroke-linejoin: miter"/>
   </g>
   <g id="patch_10">
    <path d="M 689.28 189.552
L 925.92 189.552
Q 927.312 189.552 927.312 188.16
L 927.312 125.52
Q 927.312 124.128 925.92 124.128
L 689.28 124.128
Q 687.888 124.128 687.888 125.52
L 687.888 188.16
Q 687.888 189.552 689.28 189.552
z
" clip-path="url(#p10d0349fbd)" style="fill: #ffffff; stroke: #107c10; stroke-width: 1.5; stroke-linejoin: miter"/>
   </g>
   <g id="patch_11">
    <path d="M 689.28 273.072
L 925.92 273.072
Q 927.312 273.072 927.312 271.68
L 927.312 209.04
Q 927.312 207.648 925.92 207.648
L 689.28 207.648
Q 687.888 207.648 687.888 209.04
L 687.888 271.68
Q 687.888 273.072 689.28 273.072
z
" clip-path="url(#p10d0349fbd)" style="fill: #ffffff; stroke: #107c10; stroke-width: 1.5; stroke-linejoin: miter"/>
   </g>
   <g id="patch_12">
    <path d="M 329.36083 216
Q 337.802529 216 344.00816 216
" clip-path="url(#p10d0349fbd)" style="fill: none; stroke: #004578; stroke-width: 2; stroke-linecap: round"/>
    <path d="M 338.00816 213
L 344.00816 216
L 338.00816 219
z
" clip-path="url(#p10d0349fbd)" style="fill: #004578; stroke: #004578; stroke-width: 2; stroke-linecap: round"/>
   </g>
   <g id="patch_13">
    <path d="M 642.56083 216
Q 651.002529 216 657.20816 216
" clip-path="url(#p10d0349fbd)" style="fill: none; stroke: #004578; stroke-width: 2; stroke-linecap: round"/>
    <path d="M 651.20816 213
L 657.20816 216
L 651.20816 219
z
" clip-path="url(#p10d0349fbd)" style="fill: #004578; stroke: #004578; stroke-width: 2; stroke-linecap: round"/>
   </g>
   <g id="patch_14">
    <path d="M 42 605.76
L 946.8 605.76
Q 953.76 605.76 953.76 598.8
L 953.76 355.2
Q 953.76 348.24 946.8 348.24
L 42 348.24
Q 35.04 348.24 35.04 355.2
L 35.04 598.8
Q 35.04 605.76 42 605.76
z
" clip-path="url(#p10d0349fbd)" style="fill: #f5f5f5; stroke: #004578; stroke-linejoin: miter"/>
   </g>
   <g id="text_1">
    <!-- [Cloud] Azure Compute Options -->
    <g style="fill: #004578" transform="translate(351.86625 42) scale(0.16 -0.16)">
     <defs>
      <path id="DejaVuSans-Bold-5b" d="M 550 4863
L 2491 4863
L 2491 4159
L 1613 4159
L 1613 -141
L 2491 -141
L 2491 -844
L 550 -844
L 550 4863
z
" transform="scale(0.015625)"/>
      <path id="DejaVuSans-Bold-43" d="M 4288 256
Q 3956 84 3597 -3
Q 3238 -91 2847 -91
Q 1681 -91 1000 561
Q 319 1213 319 2328
Q 319 3447 1000 4098
Q 1681 4750 2847 4750
Q 3238 4750 3597 4662
Q 3956 4575 4288 4403
L 4288 3438
Q 3953 3666 3628 3772
Q 3303 3878 2944 3878
Q 2300 3878 1931 3465
Q 1563 3053 1563 2328
Q 1563 1606 1931 1193
Q 2300 781 2944 781
Q 3303 781 3628 887
Q 3953 994 4288 1222
L 4288 256
z
" transform="scale(0.015625)"/>
      <path id="DejaVuSans-Bold-6c" d="M 538 4863
L 1656 4863
L 1656 0
L 538 0
L 538 4863
z
" transform="scale(0.015625)"/>
      <path id="DejaVuSans-Bold-6f" d="M 2203 2784
Q 1831 2784 1636 2517
Q 1441 2250 1441 1747
Q 1441 1244 1636 976
Q 1831 709 2203 709
Q 2569 709 2762 976
Q 2956 1244 2956 1747
Q 2956 2250 2762 2517
Q 2569 2784 2203 2784
z
M 2203 3584
Q 3106 3584 3614 3096
Q 4122 2609 4122 1747
Q 4122 884 3614 396
Q 3106 -91 2203 -91
Q 1297 -91 786 396
Q 275 884 275 1747
Q 275 2609 786 3096
Q 1297 3584 2203 3584
z
" transform="scale(0.015625)"/>
      <path id="DejaVuSans-Bold-75" d="M 500 1363
L 500 3500
L 1625 3500
L 1625 3150
Q 1625 2866 1622 2436
Q 1619 2006 1619 1863
Q 1619 1441 1641 1255
Q 1663 1069 1716 984
Q 1784 875 1895 815
Q 2006 756 2150 756
Q 2500 756 2700 1025
Q 2900 1294 2900 1772
L 2900 3500
L 4019 3500
L 4019 0
L 2900 0
L 2900 506
Q 2647 200 2364 54
Q 2081 -91 1741 -91
Q 1134 -91 817 281
Q 500 653 500 1363
z
" transform="scale(0.015625)"/>
      <path id="DejaVuSans-Bold-64" d="M 2919 2988
L 2919 4863
L 4044 4863
L 4044 0
L 2919 0
L 2919 506
Q 2688 197 2409 53
Q 2131 -91 1766 -91
Q 1119 -91 703 423
Q 288 938 288 1747
Q 288 2556 703 3070
Q 1119 3584 1766 3584
Q 2128 3584 2408 3439
Q 2688 3294 2919 2988
z
M 2181 722
Q 2541 722 2730 984
Q 2919 1247 2919 1747
Q 2919 2247 2730 2509
Q 2541 2772 2181 2772
Q 1825 2772 1636 2509
Q 1447 2247 1447 1747
Q 1447 1247 1636 984
Q 1825 722 2181 722
z
" transform="scale(0.015625)"/>
      <path id="DejaVuSans-Bold-5d" d="M 2375 -844
L 434 -844
L 434 -141
L 1313 -141
L 1313 4159
L 434 4159
L 434 4863
L 2375 4863
L 2375 -844
z
" transform="scale(0.015625)"/>
      <path id="DejaVuSans-Bold-20" transform="scale(0.015625)"/>
      <path id="DejaVuSans-Bold-41" d="M 3419 850
L 1538 850
L 1241 0
L 31 0
L 1759 4666
L 3194 4666
L 4922 0
L 3713 0
L 3419 850
z
M 1838 1716
L 3116 1716
L 2478 3572
L 1838 1716
z
" transform="scale(0.015625)"/>
      <path id="DejaVuSans-Bold-7a" d="M 366 3500
L 3419 3500
L 3419 2719
L 1575 800
L 3419 800
L 3419 0
L 288 0
L 288 781
L 2131 2700
L 366 2700
L 366 3500
z
" transform="scale(0.015625)"/>
      <path id="DejaVuSans-Bold-72" d="M 3138 2547
Q 2991 2616 2845 2648
Q 2700 2681 2553 2681
Q 2122 2681 1889 2404
Q 1656 2128 1656 1613
L 1656 0
L 538 0
L 538 3500
L 1656 3500
L 1656 2925
Q 1872 3269 2151 3426
Q 2431 3584 2822 3584
Q 2878 3584 2943 3579
Q 3009 3575 3134 3559
L 3138 2547
z
" transform="scale(0.015625)"/>
      <path id="DejaVuSans-Bold-65" d="M 4031 1759
L 4031 1441
L 1416 1441
Q 1456 1047 1700 850
Q 1944 653 2381 653
Q 2734 653 3104 758
Q 3475 863 3866 1075
L 3866 213
Q 3469 63 3072 -14
Q 2675 -91 2278 -91
Q 1328 -91 801 392
Q 275 875 275 1747
Q 275 2603 792 3093
Q 1309 3584 2216 3584
Q 3041 3584 3536 3087
Q 4031 2591 4031 1759
z
M 2881 2131
Q 2881 2450 2695 2645
Q 2509 2841 2209 2841
Q 1884 2841 1681 2658
Q 1478 2475 1428 2131
L 2881 2131
z
" transform="scale(0.015625)"/>
      <path id="DejaVuSans-Bold-6d" d="M 3781 2919
Q 3994 3244 4286 3414
Q 4578 3584 4928 3584
Q 5531 3584 5847 3212
Q 6163 2841 6163 2131
L 6163 0
L 5038 0
L 5038 1825
Q 5041 1866 5042 1909
Q 5044 1953 5044 2034
Q 5044 2406 4934 2573
Q 4825 2741 4581 2741
Q 4263 2741 4089 2478
Q 3916 2216 3909 1719
L 3909 0
L 2784 0
L 2784 1825
Q 2784 2406 2684 2573
Q 2584 2741 2328 2741
Q 2006 2741 1831 2477
Q 1656 2213 1656 1722
L 1656 0
L 531 0
L 531 3500
L 1656 3500
L 1656 2988
Q 1863 3284 2130 3434
Q 2397 3584 2719 3584
Q 3081 3584 3359 3409
Q 3638 3234 3781 2919
z
" transform="scale(0.015625)"/>
      <path id="DejaVuSans-Bold-70" d="M 1656 506
L 1656 -1331
L 538 -1331
L 538 3500
L 1656 3500
L 1656 2988
Q 1888 3294 2169 3439
Q 2450 3584 2816 3584
Q 3463 3584 3878 3070
Q 4294 2556 4294 1747
Q 4294 938 3878 423
Q 3463 -91 2816 -91
Q 2450 -91 2169 54
Q 1888 200 1656 506
z
M 2400 2772
Q 2041 2772 1848 2508
Q 1656 2244 1656 1747
Q 1656 1250 1848 986
Q 2041 722 2400 722
Q 2759 722 2948 984
Q 3138 1247 3138 1747
Q 3138 2247 2948 2509
Q 2759 2772 2400 2772
z
" transform="scale(0.015625)"/>
      <path id="DejaVuSans-Bold-74" d="M 1759 4494
L 1759 3500
L 2913 3500
L 2913 2700
L 1759 2700
L 1759 1216
Q 1759 972 1856 886
Q 1953 800 2241 800
L 2816 800
L 2816 0
L 1856 0
Q 1194 0 917 276
Q 641 553 641 1216
L 641 2700
L 84 2700
L 84 3500
L 641 3500
L 641 4494
L 1759 4494
z
" transform="scale(0.015625)"/>
      <path id="DejaVuSans-Bold-4f" d="M 2719 3878
Q 2169 3878 1866 3472
Q 1563 3066 1563 2328
Q 1563 1594 1866 1187
Q 2169 781 2719 781
Q 3272 781 3575 1187
Q 3878 1594 3878 2328
Q 3878 3066 3575 3472
Q 3272 3878 2719 3878
z
M 2719 4750
Q 3844 4750 4481 4106
Q 5119 3463 5119 2328
Q 5119 1197 4481 553
Q 3844 -91 2719 -91
Q 1597 -91 958 553
Q 319 1197 319 2328
Q 319 3463 958 4106
Q 1597 4750 2719 4750
z
" transform="scale(0.015625)"/>
      <path id="DejaVuSans-Bold-69" d="M 538 3500
L 1656 3500
L 1656 0
L 538 0
L 538 3500
z
M 538 4863
L 1656 4863
L 1656 3950
L 538 3950
L 538 4863
z
" transform="scale(0.015625)"/>
      <path id="DejaVuSans-Bold-6e" d="M 4056 2131
L 4056 0
L 2931 0
L 2931 347
L 2931 1631
Q 2931 2084 2911 2256
Q 2891 2428 2841 2509
Q 2775 2619 2662 2680
Q 2550 2741 2406 2741
Q 2056 2741 1856 2470
Q 1656 2200 1656 1722
L 1656 0
L 538 0
L 538 3500
L 1656 3500
L 1656 2988
Q 1909 3294 2193 3439
Q 2478 3584 2822 3584
Q 3428 3584 3742 3212
Q 4056 2841 4056 2131
z
" transform="scale(0.015625)"/>
      <path id="DejaVuSans-Bold-73" d="M 3272 3391
L 3272 2541
Q 2913 2691 2578 2766
Q 2244 2841 1947 2841
Q 1628 2841 1473 2761
Q 1319 2681 1319 2516
Q 1319 2381 1436 2309
Q 1553 2238 1856 2203
L 2053 2175
Q 2913 2066 3209 1816
Q 3506 1566 3506 1031
Q 3506 472 3093 190
Q 2681 -91 1863 -91
Q 1516 -91 1145 -36
Q 775 19 384 128
L 384 978
Q 719 816 1070 734
Q 1422 653 1784 653
Q 2113 653 2278 743
Q 2444 834 2444 1013
Q 2444 1163 2330 1236
Q 2216 1309 1875 1350
L 1678 1375
Q 931 1469 631 1722
Q 331 1975 331 2491
Q 331 3047 712 3315
Q 1094 3584 1881 3584
Q 2191 3584 2531 3537
Q 2872 3491 3272 3391
z
" transform="scale(0.015625)"/>
     </defs>
     <use xlink:href="#DejaVuSans-Bold-5b"/>
     <use xlink:href="#DejaVuSans-Bold-43" transform="translate(45.703125 0)"/>
     <use xlink:href="#DejaVuSans-Bold-6c" transform="translate(119.091797 0)"/>
     <use xlink:href="#DejaVuSans-Bold-6f" transform="translate(153.369141 0)"/>
     <use xlink:href="#DejaVuSans-Bold-75" transform="translate(222.070312 0)"/>
     <use xlink:href="#DejaVuSans-Bold-64" transform="translate(293.261719 0)"/>
     <use xlink:href="#DejaVuSans-Bold-5d" transform="translate(364.84375 0)"/>
     <use xlink:href="#DejaVuSans-Bold-20" transform="translate(410.546875 0)"/>
     <use xlink:href="#DejaVuSans-Bold-41" transform="translate(445.361328 0)"/>
     <use xlink:href="#DejaVuSans-Bold-7a" transform="translate(522.753906 0)"/>
     <use xlink:href="#DejaVuSans-Bold-75" transform="translate(580.957031 0)"/>
     <use xlink:href="#DejaVuSans-Bold-72" transform="translate(652.148438 0)"/>
     <use xlink:href="#DejaVuSans-Bold-65" transform="translate(701.464844 0)"/>
     <use xlink:href="#DejaVuSans-Bold-20" transform="translate(769.287109 0)"/>
     <use xlink:href="#DejaVuSans-Bold-43" transform="translate(804.101562 0)"/>
     <use xlink:href="#DejaVuSans-Bold-6f" transform="translate(877.490234 0)"/>
     <use xlink:href="#DejaVuSans-Bold-6d" transform="translate(946.191406 0)"/>
     <use xlink:href="#DejaVuSans-Bold-70" transform="translate(1050.390625 0)"/>
     <use xlink:href="#DejaVuSans-Bold-75" transform="translate(1121.972656 0)"/>
     <use xlink:href="#DejaVuSans-Bold-74" transform="translate(1193.164062 0)"/>
     <use xlink:href="#DejaVuSans-Bold-65" transform="translate(1240.966797 0)"/>
     <use xlink:href="#DejaVuSans-Bold-20" transform="translate(1308.789062 0)"/>
     <use xlink:href="#DejaVuSans-Bold-4f" transform="translate(1343.603516 0)"/>
     <use xlink:href="#DejaVuSans-Bold-70" transform="translate(1428.613281 0)"/>
     <use xlink:href="#DejaVuSans-Bold-74" transform="translate(1500.195312 0)"/>
     <use xlink:href="#DejaVuSans-Bold-69" transform="translate(1547.998047 0)"/>
     <use xlink:href="#DejaVuSans-Bold-6f" transform="translate(1582.275391 0)"/>
     <use xlink:href="#DejaVuSans-Bold-6e" transform="translate(1650.976562 0)"/>
     <use xlink:href="#DejaVuSans-Bold-73" transform="translate(1722.167969 0)"/>
    </g>
   </g>
   <g id="text_2">
    <!-- Infrastructure (IaaS) -->
    <g style="fill: #0078d4" transform="translate(117.272812 97.68) scale(0.11 -0.11)">
     <defs>
      <path id="DejaVuSans-Bold-49" d="M 588 4666
L 1791 4666
L 1791 0
L 588 0
L 588 4666
z
" transform="scale(0.015625)"/>
      <path id="DejaVuSans-Bold-66" d="M 2841 4863
L 2841 4128
L 2222 4128
Q 1984 4128 1890 4042
Q 1797 3956 1797 3744
L 1797 3500
L 2753 3500
L 2753 2700
L 1797 2700
L 1797 0
L 678 0
L 678 2700
L 122 2700
L 122 3500
L 678 3500
L 678 3744
Q 678 4316 997 4589
Q 1316 4863 1984 4863
L 2841 4863
z
" transform="scale(0.015625)"/>
      <path id="DejaVuSans-Bold-61" d="M 2106 1575
Q 1756 1575 1579 1456
Q 1403 1338 1403 1106
Q 1403 894 1545 773
Q 1688 653 1941 653
Q 2256 653 2472 879
Q 2688 1106 2688 1447
L 2688 1575
L 2106 1575
z
M 3816 1997
L 3816 0
L 2688 0
L 2688 519
Q 2463 200 2181 54
Q 1900 -91 1497 -91
Q 953 -91 614 226
Q 275 544 275 1050
Q 275 1666 698 1953
Q 1122 2241 2028 2241
L 2688 2241
L 2688 2328
Q 2688 2594 2478 2717
Q 2269 2841 1825 2841
Q 1466 2841 1156 2769
Q 847 2697 581 2553
L 581 3406
Q 941 3494 1303 3539
Q 1666 3584 2028 3584
Q 2975 3584 3395 3211
Q 3816 2838 3816 1997
z
" transform="scale(0.015625)"/>
      <path id="DejaVuSans-Bold-63" d="M 3366 3391
L 3366 2478
Q 3138 2634 2908 2709
Q 2678 2784 2431 2784
Q 1963 2784 1702 2511
Q 1441 2238 1441 1747
Q 1441 1256 1702 982
Q 1963 709 2431 709
Q 2694 709 2930 787
Q 3166 866 3366 1019
L 3366 103
Q 3103 6 2833 -42
Q 2563 -91 2291 -91
Q 1344 -91 809 395
Q 275 881 275 1747
Q 275 2613 809 3098
Q 1344 3584 2291 3584
Q 2566 3584 2833 3536
Q 3100 3488 3366 3391
z
" transform="scale(0.015625)"/>
      <path id="DejaVuSans-Bold-28" d="M 2413 -844
L 1484 -844
Q 1006 -72 778 623
Q 550 1319 550 2003
Q 550 2688 779 3389
Q 1009 4091 1484 4856
L 2413 4856
Q 2013 4116 1813 3408
Q 1613 2700 1613 2009
Q 1613 1319 1811 609
Q 2009 -100 2413 -844
z
" transform="scale(0.015625)"/>
      <path id="DejaVuSans-Bold-53" d="M 3834 4519
L 3834 3531
Q 3450 3703 3084 3790
Q 2719 3878 2394 3878
Q 1963 3878 1756 3759
Q 1550 3641 1550 3391
Q 1550 3203 1689 3098
Q 1828 2994 2194 2919
L 2706 2816
Q 3484 2659 3812 2340
Q 4141 2022 4141 1434
Q 4141 663 3683 286
Q 3225 -91 2284 -91
Q 1841 -91 1394 -6
Q 947 78 500 244
L 500 1259
Q 947 1022 1364 901
Q 1781 781 2169 781
Q 2563 781 2772 912
Q 2981 1044 2981 1288
Q 2981 1506 2839 1625
Q 2697 1744 2272 1838
L 1806 1941
Q 1106 2091 782 2419
Q 459 2747 459 3303
Q 459 4000 909 4375
Q 1359 4750 2203 4750
Q 2588 4750 2994 4692
Q 3400 4634 3834 4519
z
" transform="scale(0.015625)"/>
      <path id="DejaVuSans-Bold-29" d="M 513 -844
Q 913 -100 1113 609
Q 1313 1319 1313 2009
Q 1313 2700 1113 3408
Q 913 4116 513 4856
L 1441 4856
Q 1916 4091 2145 3389
Q 2375 2688 2375 2003
Q 2375 1319 2147 623
Q 1919 -72 1441 -844
L 513 -844
z
" transform="scale(0.015625)"/>
     </defs>
     <use xlink:href="#DejaVuSans-Bold-49"/>
     <use xlink:href="#DejaVuSans-Bold-6e" transform="translate(37.207031 0)"/>
     <use xlink:href="#DejaVuSans-Bold-66" transform="translate(108.398438 0)"/>
     <use xlink:href="#DejaVuSans-Bold-72" transform="translate(151.904297 0)"/>
     <use xlink:href="#DejaVuSans-Bold-61" transform="translate(201.220703 0)"/>
     <use xlink:href="#DejaVuSans-Bold-73" transform="translate(268.701172 0)"/>
     <use xlink:href="#DejaVuSans-Bold-74" transform="translate(328.222656 0)"/>
     <use xlink:href="#DejaVuSans-Bold-72" transform="translate(376.025391 0)"/>
     <use xlink:href="#DejaVuSans-Bold-75" transform="translate(425.341797 0)"/>
     <use xlink:href="#DejaVuSans-Bold-63" transform="translate(496.533203 0)"/>
     <use xlink:href="#DejaVuSans-Bold-74" transform="translate(555.810547 0)"/>
     <use xlink:href="#DejaVuSans-Bold-75" transform="translate(603.613281 0)"/>
     <use xlink:href="#DejaVuSans-Bold-72" transform="translate(674.804688 0)"/>
     <use xlink:href="#DejaVuSans-Bold-65" transform="translate(724.121094 0)"/>
     <use xlink:href="#DejaVuSans-Bold-20" transform="translate(791.943359 0)"/>
     <use xlink:href="#DejaVuSans-Bold-28" transform="translate(826.757812 0)"/>
     <use xlink:href="#DejaVuSans-Bold-49" transform="translate(872.460938 0)"/>
     <use xlink:href="#DejaVuSans-Bold-61" transform="translate(909.667969 0)"/>
     <use xlink:href="#DejaVuSans-Bold-61" transform="translate(977.148438 0)"/>
     <use xlink:href="#DejaVuSans-Bold-53" transform="translate(1044.628906 0)"/>
     <use xlink:href="#DejaVuSans-Bold-29" transform="translate(1116.650391 0)"/>
    </g>
   </g>
   <g id="text_3">
    <!-- Virtual Machines -->
    <g style="fill: #004578" transform="translate(138.671484 153.36) scale(0.09 -0.09)">
     <defs>
      <path id="DejaVuSans-Bold-56" d="M 31 4666
L 1241 4666
L 2478 1222
L 3713 4666
L 4922 4666
L 3194 0
L 1759 0
L 31 4666
z
" transform="scale(0.015625)"/>
      <path id="DejaVuSans-Bold-4d" d="M 588 4666
L 2119 4666
L 3181 2169
L 4250 4666
L 5778 4666
L 5778 0
L 4641 0
L 4641 3413
L 3566 897
L 2803 897
L 1728 3413
L 1728 0
L 588 0
L 588 4666
z
" transform="scale(0.015625)"/>
      <path id="DejaVuSans-Bold-68" d="M 4056 2131
L 4056 0
L 2931 0
L 2931 347
L 2931 1625
Q 2931 2084 2911 2256
Q 2891 2428 2841 2509
Q 2775 2619 2662 2680
Q 2550 2741 2406 2741
Q 2056 2741 1856 2470
Q 1656 2200 1656 1722
L 1656 0
L 538 0
L 538 4863
L 1656 4863
L 1656 2988
Q 1909 3294 2193 3439
Q 2478 3584 2822 3584
Q 3428 3584 3742 3212
Q 4056 2841 4056 2131
z
" transform="scale(0.015625)"/>
     </defs>
     <use xlink:href="#DejaVuSans-Bold-56"/>
     <use xlink:href="#DejaVuSans-Bold-69" transform="translate(75.642578 0)"/>
     <use xlink:href="#DejaVuSans-Bold-72" transform="translate(109.919922 0)"/>
     <use xlink:href="#DejaVuSans-Bold-74" transform="translate(159.236328 0)"/>
     <use xlink:href="#DejaVuSans-Bold-75" transform="translate(207.039062 0)"/>
     <use xlink:href="#DejaVuSans-Bold-61" transform="translate(278.230469 0)"/>
     <use xlink:href="#DejaVuSans-Bold-6c" transform="translate(345.710938 0)"/>
     <use xlink:href="#DejaVuSans-Bold-20" transform="translate(379.988281 0)"/>
     <use xlink:href="#DejaVuSans-Bold-4d" transform="translate(414.802734 0)"/>
     <use xlink:href="#DejaVuSans-Bold-61" transform="translate(514.314453 0)"/>
     <use xlink:href="#DejaVuSans-Bold-63" transform="translate(581.794922 0)"/>
     <use xlink:href="#DejaVuSans-Bold-68" transform="translate(641.072266 0)"/>
     <use xlink:href="#DejaVuSans-Bold-69" transform="translate(712.263672 0)"/>
     <use xlink:href="#DejaVuSans-Bold-6e" transform="translate(746.541016 0)"/>
     <use xlink:href="#DejaVuSans-Bold-65" transform="translate(817.732422 0)"/>
     <use xlink:href="#DejaVuSans-Bold-73" transform="translate(885.554688 0)"/>
    </g>
   </g>
   <g id="text_4">
    <!-- Full OS Control -->
    <g style="fill: #004578; opacity: 0.8" transform="translate(151.674375 174.24) scale(0.08 -0.08)">
     <defs>
      <path id="DejaVuSans-46" d="M 628 4666
L 3309 4666
L 3309 4134
L 1259 4134
L 1259 2759
L 3109 2759
L 3109 2228
L 1259 2228
L 1259 0
L 628 0
L 628 4666
z
" transform="scale(0.015625)"/>
      <path id="DejaVuSans-75" d="M 544 1381
L 544 3500
L 1119 3500
L 1119 1403
Q 1119 906 1312 657
Q 1506 409 1894 409
Q 2359 409 2629 706
Q 2900 1003 2900 1516
L 2900 3500
L 3475 3500
L 3475 0
L 2900 0
L 2900 538
Q 2691 219 2414 64
Q 2138 -91 1772 -91
Q 1169 -91 856 284
Q 544 659 544 1381
z
M 1991 3584
L 1991 3584
z
" transform="scale(0.015625)"/>
      <path id="DejaVuSans-6c" d="M 603 4863
L 1178 4863
L 1178 0
L 603 0
L 603 4863
z
" transform="scale(0.015625)"/>
      <path id="DejaVuSans-20" transform="scale(0.015625)"/>
      <path id="DejaVuSans-4f" d="M 2522 4238
Q 1834 4238 1429 3725
Q 1025 3213 1025 2328
Q 1025 1447 1429 934
Q 1834 422 2522 422
Q 3209 422 3611 934
Q 4013 1447 4013 2328
Q 4013 3213 3611 3725
Q 3209 4238 2522 4238
z
M 2522 4750
Q 3503 4750 4090 4092
Q 4678 3434 4678 2328
Q 4678 1225 4090 567
Q 3503 -91 2522 -91
Q 1538 -91 948 565
Q 359 1222 359 2328
Q 359 3434 948 4092
Q 1538 4750 2522 4750
z
" transform="scale(0.015625)"/>
      <path id="DejaVuSans-53" d="M 3425 4513
L 3425 3897
Q 3066 4069 2747 4153
Q 2428 4238 2131 4238
Q 1616 4238 1336 4038
Q 1056 3838 1056 3469
Q 1056 3159 1242 3001
Q 1428 2844 1947 2747
L 2328 2669
Q 3034 2534 3370 2195
Q 3706 1856 3706 1288
Q 3706 609 3251 259
Q 2797 -91 1919 -91
Q 1588 -91 1214 -16
Q 841 59 441 206
L 441 856
Q 825 641 1194 531
Q 1563 422 1919 422
Q 2459 422 2753 634
Q 3047 847 3047 1241
Q 3047 1584 2836 1778
Q 2625 1972 2144 2069
L 1759 2144
Q 1053 2284 737 2584
Q 422 2884 422 3419
Q 422 4038 858 4394
Q 1294 4750 2059 4750
Q 2388 4750 2728 4690
Q 3069 4631 3425 4513
z
" transform="scale(0.015625)"/>
      <path id="DejaVuSans-43" d="M 4122 4306
L 4122 3641
Q 3803 3938 3442 4084
Q 3081 4231 2675 4231
Q 1875 4231 1450 3742
Q 1025 3253 1025 2328
Q 1025 1406 1450 917
Q 1875 428 2675 428
Q 3081 428 3442 575
Q 3803 722 4122 1019
L 4122 359
Q 3791 134 3420 21
Q 3050 -91 2638 -91
Q 1578 -91 968 557
Q 359 1206 359 2328
Q 359 3453 968 4101
Q 1578 4750 2638 4750
Q 3056 4750 3426 4639
Q 3797 4528 4122 4306
z
" transform="scale(0.015625)"/>
      <path id="DejaVuSans-6f" d="M 1959 3097
Q 1497 3097 1228 2736
Q 959 2375 959 1747
Q 959 1119 1226 758
Q 1494 397 1959 397
Q 2419 397 2687 759
Q 2956 1122 2956 1747
Q 2956 2369 2687 2733
Q 2419 3097 1959 3097
z
M 1959 3584
Q 2709 3584 3137 3096
Q 3566 2609 3566 1747
Q 3566 888 3137 398
Q 2709 -91 1959 -91
Q 1206 -91 779 398
Q 353 888 353 1747
Q 353 2609 779 3096
Q 1206 3584 1959 3584
z
" transform="scale(0.015625)"/>
      <path id="DejaVuSans-6e" d="M 3513 2113
L 3513 0
L 2938 0
L 2938 2094
Q 2938 2591 2744 2837
Q 2550 3084 2163 3084
Q 1697 3084 1428 2787
Q 1159 2491 1159 1978
L 1159 0
L 581 0
L 581 3500
L 1159 3500
L 1159 2956
Q 1366 3272 1645 3428
Q 1925 3584 2291 3584
Q 2894 3584 3203 3211
Q 3513 2838 3513 2113
z
" transform="scale(0.015625)"/>
      <path id="DejaVuSans-74" d="M 1172 4494
L 1172 3500
L 2356 3500
L 2356 3053
L 1172 3053
L 1172 1153
Q 1172 725 1289 603
Q 1406 481 1766 481
L 2356 481
L 2356 0
L 1766 0
Q 1100 0 847 248
Q 594 497 594 1153
L 594 3053
L 172 3053
L 172 3500
L 594 3500
L 594 4494
L 1172 4494
z
" transform="scale(0.015625)"/>
      <path id="DejaVuSans-72" d="M 2631 2963
Q 2534 3019 2420 3045
Q 2306 3072 2169 3072
Q 1681 3072 1420 2755
Q 1159 2438 1159 1844
L 1159 0
L 581 0
L 581 3500
L 1159 3500
L 1159 2956
Q 1341 3275 1631 3429
Q 1922 3584 2338 3584
Q 2397 3584 2469 3576
Q 2541 3569 2628 3553
L 2631 2963
z
" transform="scale(0.015625)"/>
     </defs>
     <use xlink:href="#DejaVuSans-46"/>
     <use xlink:href="#DejaVuSans-75" transform="translate(52.019531 0)"/>
     <use xlink:href="#DejaVuSans-6c" transform="translate(115.398438 0)"/>
     <use xlink:href="#DejaVuSans-6c" transform="translate(143.181641 0)"/>
     <use xlink:href="#DejaVuSans-20" transform="translate(170.964844 0)"/>
     <use xlink:href="#DejaVuSans-4f" transform="translate(202.751953 0)"/>
     <use xlink:href="#DejaVuSans-53" transform="translate(281.462891 0)"/>
     <use xlink:href="#DejaVuSans-20" transform="translate(344.939453 0)"/>
     <use xlink:href="#DejaVuSans-43" transform="translate(376.726562 0)"/>
     <use xlink:href="#DejaVuSans-6f" transform="translate(446.550781 0)"/>
     <use xlink:href="#DejaVuSans-6e" transform="translate(507.732422 0)"/>
     <use xlink:href="#DejaVuSans-74" transform="translate(571.111328 0)"/>
     <use xlink:href="#DejaVuSans-72" transform="translate(610.320312 0)"/>
     <use xlink:href="#DejaVuSans-6f" transform="translate(649.183594 0)"/>
     <use xlink:href="#DejaVuSans-6c" transform="translate(710.365234 0)"/>
    </g>
   </g>
   <g id="text_5">
    <!-- VM Scale Sets -->
    <g style="fill: #004578" transform="translate(145.443984 236.88) scale(0.09 -0.09)">
     <use xlink:href="#DejaVuSans-Bold-56"/>
     <use xlink:href="#DejaVuSans-Bold-4d" transform="translate(77.392578 0)"/>
     <use xlink:href="#DejaVuSans-Bold-20" transform="translate(176.904297 0)"/>
     <use xlink:href="#DejaVuSans-Bold-53" transform="translate(211.71875 0)"/>
     <use xlink:href="#DejaVuSans-Bold-63" transform="translate(283.740234 0)"/>
     <use xlink:href="#DejaVuSans-Bold-61" transform="translate(343.017578 0)"/>
     <use xlink:href="#DejaVuSans-Bold-6c" transform="translate(410.498047 0)"/>
     <use xlink:href="#DejaVuSans-Bold-65" transform="translate(444.775391 0)"/>
     <use xlink:href="#DejaVuSans-Bold-20" transform="translate(512.597656 0)"/>
     <use xlink:href="#DejaVuSans-Bold-53" transform="translate(547.412109 0)"/>
     <use xlink:href="#DejaVuSans-Bold-65" transform="translate(619.433594 0)"/>
     <use xlink:href="#DejaVuSans-Bold-74" transform="translate(687.255859 0)"/>
     <use xlink:href="#DejaVuSans-Bold-73" transform="translate(735.058594 0)"/>
    </g>
   </g>
   <g id="text_6">
    <!-- Auto-scaling VMs -->
    <g style="fill: #004578; opacity: 0.8" transform="translate(146.82125 257.76) scale(0.08 -0.08)">
     <defs>
      <path id="DejaVuSans-41" d="M 2188 4044
L 1331 1722
L 3047 1722
L 2188 4044
z
M 1831 4666
L 2547 4666
L 4325 0
L 3669 0
L 3244 1197
L 1141 1197
L 716 0
L 50 0
L 1831 4666
z
" transform="scale(0.015625)"/>
      <path id="DejaVuSans-2d" d="M 313 2009
L 1997 2009
L 1997 1497
L 313 1497
L 313 2009
z
" transform="scale(0.015625)"/>
      <path id="DejaVuSans-73" d="M 2834 3397
L 2834 2853
Q 2591 2978 2328 3040
Q 2066 3103 1784 3103
Q 1356 3103 1142 2972
Q 928 2841 928 2578
Q 928 2378 1081 2264
Q 1234 2150 1697 2047
L 1894 2003
Q 2506 1872 2764 1633
Q 3022 1394 3022 966
Q 3022 478 2636 193
Q 2250 -91 1575 -91
Q 1294 -91 989 -36
Q 684 19 347 128
L 347 722
Q 666 556 975 473
Q 1284 391 1588 391
Q 1994 391 2212 530
Q 2431 669 2431 922
Q 2431 1156 2273 1281
Q 2116 1406 1581 1522
L 1381 1569
Q 847 1681 609 1914
Q 372 2147 372 2553
Q 372 3047 722 3315
Q 1072 3584 1716 3584
Q 2034 3584 2315 3537
Q 2597 3491 2834 3397
z
" transform="scale(0.015625)"/>
      <path id="DejaVuSans-63" d="M 3122 3366
L 3122 2828
Q 2878 2963 2633 3030
Q 2388 3097 2138 3097
Q 1578 3097 1268 2742
Q 959 2388 959 1747
Q 959 1106 1268 751
Q 1578 397 2138 397
Q 2388 397 2633 464
Q 2878 531 3122 666
L 3122 134
Q 2881 22 2623 -34
Q 2366 -91 2075 -91
Q 1284 -91 818 406
Q 353 903 353 1747
Q 353 2603 823 3093
Q 1294 3584 2113 3584
Q 2378 3584 2631 3529
Q 2884 3475 3122 3366
z
" transform="scale(0.015625)"/>
      <path id="DejaVuSans-61" d="M 2194 1759
Q 1497 1759 1228 1600
Q 959 1441 959 1056
Q 959 750 1161 570
Q 1363 391 1709 391
Q 2188 391 2477 730
Q 2766 1069 2766 1631
L 2766 1759
L 2194 1759
z
M 3341 1997
L 3341 0
L 2766 0
L 2766 531
Q 2569 213 2275 61
Q 1981 -91 1556 -91
Q 1019 -91 701 211
Q 384 513 384 1019
Q 384 1609 779 1909
Q 1175 2209 1959 2209
L 2766 2209
L 2766 2266
Q 2766 2663 2505 2880
Q 2244 3097 1772 3097
Q 1472 3097 1187 3025
Q 903 2953 641 2809
L 641 3341
Q 956 3463 1253 3523
Q 1550 3584 1831 3584
Q 2591 3584 2966 3190
Q 3341 2797 3341 1997
z
" transform="scale(0.015625)"/>
      <path id="DejaVuSans-69" d="M 603 3500
L 1178 3500
L 1178 0
L 603 0
L 603 3500
z
M 603 4863
L 1178 4863
L 1178 4134
L 603 4134
L 603 4863
z
" transform="scale(0.015625)"/>
      <path id="DejaVuSans-67" d="M 2906 1791
Q 2906 2416 2648 2759
Q 2391 3103 1925 3103
Q 1463 3103 1205 2759
Q 947 2416 947 1791
Q 947 1169 1205 825
Q 1463 481 1925 481
Q 2391 481 2648 825
Q 2906 1169 2906 1791
z
M 3481 434
Q 3481 -459 3084 -895
Q 2688 -1331 1869 -1331
Q 1566 -1331 1297 -1286
Q 1028 -1241 775 -1147
L 775 -588
Q 1028 -725 1275 -790
Q 1522 -856 1778 -856
Q 2344 -856 2625 -561
Q 2906 -266 2906 331
L 2906 616
Q 2728 306 2450 153
Q 2172 0 1784 0
Q 1141 0 747 490
Q 353 981 353 1791
Q 353 2603 747 3093
Q 1141 3584 1784 3584
Q 2172 3584 2450 3431
Q 2728 3278 2906 2969
L 2906 3500
L 3481 3500
L 3481 434
z
" transform="scale(0.015625)"/>
      <path id="DejaVuSans-56" d="M 1831 0
L 50 4666
L 709 4666
L 2188 738
L 3669 4666
L 4325 4666
L 2547 0
L 1831 0
z
" transform="scale(0.015625)"/>
      <path id="DejaVuSans-4d" d="M 628 4666
L 1569 4666
L 2759 1491
L 3956 4666
L 4897 4666
L 4897 0
L 4281 0
L 4281 4097
L 3078 897
L 2444 897
L 1241 4097
L 1241 0
L 628 0
L 628 4666
z
" transform="scale(0.015625)"/>
     </defs>
     <use xlink:href="#DejaVuSans-41"/>
     <use xlink:href="#DejaVuSans-75" transform="translate(68.408203 0)"/>
     <use xlink:href="#DejaVuSans-74" transform="translate(131.787109 0)"/>
     <use xlink:href="#DejaVuSans-6f" transform="translate(170.996094 0)"/>
     <use xlink:href="#DejaVuSans-2d" transform="translate(234.052734 0)"/>
     <use xlink:href="#DejaVuSans-73" transform="translate(270.136719 0)"/>
     <use xlink:href="#DejaVuSans-63" transform="translate(322.236328 0)"/>
     <use xlink:href="#DejaVuSans-61" transform="translate(377.216797 0)"/>
     <use xlink:href="#DejaVuSans-6c" transform="translate(438.496094 0)"/>
     <use xlink:href="#DejaVuSans-69" transform="translate(466.279297 0)"/>
     <use xlink:href="#DejaVuSans-6e" transform="translate(494.0625 0)"/>
     <use xlink:href="#DejaVuSans-67" transform="translate(557.441406 0)"/>
     <use xlink:href="#DejaVuSans-20" transform="translate(620.917969 0)"/>
     <use xlink:href="#DejaVuSans-56" transform="translate(652.705078 0)"/>
     <use xlink:href="#DejaVuSans-4d" transform="translate(721.113281 0)"/>
     <use xlink:href="#DejaVuSans-73" transform="translate(807.392578 0)"/>
    </g>
   </g>
   <g id="text_7">
    <!-- Platform (PaaS) -->
    <g style="fill: #ff8c00" transform="translate(445.315078 97.68) scale(0.11 -0.11)">
     <defs>
      <path id="DejaVuSans-Bold-50" d="M 588 4666
L 2584 4666
Q 3475 4666 3951 4270
Q 4428 3875 4428 3144
Q 4428 2409 3951 2014
Q 3475 1619 2584 1619
L 1791 1619
L 1791 0
L 588 0
L 588 4666
z
M 1791 3794
L 1791 2491
L 2456 2491
Q 2806 2491 2997 2661
Q 3188 2831 3188 3144
Q 3188 3456 2997 3625
Q 2806 3794 2456 3794
L 1791 3794
z
" transform="scale(0.015625)"/>
     </defs>
     <use xlink:href="#DejaVuSans-Bold-50"/>
     <use xlink:href="#DejaVuSans-Bold-6c" transform="translate(73.291016 0)"/>
     <use xlink:href="#DejaVuSans-Bold-61" transform="translate(107.568359 0)"/>
     <use xlink:href="#DejaVuSans-Bold-74" transform="translate(175.048828 0)"/>
     <use xlink:href="#DejaVuSans-Bold-66" transform="translate(222.851562 0)"/>
     <use xlink:href="#DejaVuSans-Bold-6f" transform="translate(266.357422 0)"/>
     <use xlink:href="#DejaVuSans-Bold-72" transform="translate(335.058594 0)"/>
     <use xlink:href="#DejaVuSans-Bold-6d" transform="translate(384.375 0)"/>
     <use xlink:href="#DejaVuSans-Bold-20" transform="translate(488.574219 0)"/>
     <use xlink:href="#DejaVuSans-Bold-28" transform="translate(523.388672 0)"/>
     <use xlink:href="#DejaVuSans-Bold-50" transform="translate(569.091797 0)"/>
     <use xlink:href="#DejaVuSans-Bold-61" transform="translate(639.757812 0)"/>
     <use xlink:href="#DejaVuSans-Bold-61" transform="translate(707.238281 0)"/>
     <use xlink:href="#DejaVuSans-Bold-53" transform="translate(774.71875 0)"/>
     <use xlink:href="#DejaVuSans-Bold-29" transform="translate(846.740234 0)"/>
    </g>
   </g>
   <g id="text_8">
    <!-- App Service -->
    <g style="fill: #004578" transform="translate(464.200781 156.84) scale(0.09 -0.09)">
     <defs>
      <path id="DejaVuSans-Bold-76" d="M 97 3500
L 1216 3500
L 2088 1081
L 2956 3500
L 4078 3500
L 2700 0
L 1472 0
L 97 3500
z
" transform="scale(0.015625)"/>
     </defs>
     <use xlink:href="#DejaVuSans-Bold-41"/>
     <use xlink:href="#DejaVuSans-Bold-70" transform="translate(77.392578 0)"/>
     <use xlink:href="#DejaVuSans-Bold-70" transform="translate(148.974609 0)"/>
     <use xlink:href="#DejaVuSans-Bold-20" transform="translate(220.556641 0)"/>
     <use xlink:href="#DejaVuSans-Bold-53" transform="translate(255.371094 0)"/>
     <use xlink:href="#DejaVuSans-Bold-65" transform="translate(327.392578 0)"/>
     <use xlink:href="#DejaVuSans-Bold-72" transform="translate(395.214844 0)"/>
     <use xlink:href="#DejaVuSans-Bold-76" transform="translate(444.53125 0)"/>
     <use xlink:href="#DejaVuSans-Bold-69" transform="translate(509.716797 0)"/>
     <use xlink:href="#DejaVuSans-Bold-63" transform="translate(543.994141 0)"/>
     <use xlink:href="#DejaVuSans-Bold-65" transform="translate(603.271484 0)"/>
    </g>
   </g>
   <g id="text_9">
    <!-- Web Apps -->
    <g style="fill: #004578; opacity: 0.8" transform="translate(476.995703 174.24) scale(0.07 -0.07)">
     <defs>
      <path id="DejaVuSans-57" d="M 213 4666
L 850 4666
L 1831 722
L 2809 4666
L 3519 4666
L 4500 722
L 5478 4666
L 6119 4666
L 4947 0
L 4153 0
L 3169 4050
L 2175 0
L 1381 0
L 213 4666
z
" transform="scale(0.015625)"/>
      <path id="DejaVuSans-65" d="M 3597 1894
L 3597 1613
L 953 1613
Q 991 1019 1311 708
Q 1631 397 2203 397
Q 2534 397 2845 478
Q 3156 559 3463 722
L 3463 178
Q 3153 47 2828 -22
Q 2503 -91 2169 -91
Q 1331 -91 842 396
Q 353 884 353 1716
Q 353 2575 817 3079
Q 1281 3584 2069 3584
Q 2775 3584 3186 3129
Q 3597 2675 3597 1894
z
M 3022 2063
Q 3016 2534 2758 2815
Q 2500 3097 2075 3097
Q 1594 3097 1305 2825
Q 1016 2553 972 2059
L 3022 2063
z
" transform="scale(0.015625)"/>
      <path id="DejaVuSans-62" d="M 3116 1747
Q 3116 2381 2855 2742
Q 2594 3103 2138 3103
Q 1681 3103 1420 2742
Q 1159 2381 1159 1747
Q 1159 1113 1420 752
Q 1681 391 2138 391
Q 2594 391 2855 752
Q 3116 1113 3116 1747
z
M 1159 2969
Q 1341 3281 1617 3432
Q 1894 3584 2278 3584
Q 2916 3584 3314 3078
Q 3713 2572 3713 1747
Q 3713 922 3314 415
Q 2916 -91 2278 -91
Q 1894 -91 1617 61
Q 1341 213 1159 525
L 1159 0
L 581 0
L 581 4863
L 1159 4863
L 1159 2969
z
" transform="scale(0.015625)"/>
      <path id="DejaVuSans-70" d="M 1159 525
L 1159 -1331
L 581 -1331
L 581 3500
L 1159 3500
L 1159 2969
Q 1341 3281 1617 3432
Q 1894 3584 2278 3584
Q 2916 3584 3314 3078
Q 3713 2572 3713 1747
Q 3713 922 3314 415
Q 2916 -91 2278 -91
Q 1894 -91 1617 61
Q 1341 213 1159 525
z
M 3116 1747
Q 3116 2381 2855 2742
Q 2594 3103 2138 3103
Q 1681 3103 1420 2742
Q 1159 2381 1159 1747
Q 1159 1113 1420 752
Q 1681 391 2138 391
Q 2594 391 2855 752
Q 3116 1113 3116 1747
z
" transform="scale(0.015625)"/>
     </defs>
     <use xlink:href="#DejaVuSans-57"/>
     <use xlink:href="#DejaVuSans-65" transform="translate(93.001953 0)"/>
     <use xlink:href="#DejaVuSans-62" transform="translate(154.525391 0)"/>
     <use xlink:href="#DejaVuSans-20" transform="translate(218.001953 0)"/>
     <use xlink:href="#DejaVuSans-41" transform="translate(249.789062 0)"/>
     <use xlink:href="#DejaVuSans-70" transform="translate(318.197266 0)"/>
     <use xlink:href="#DejaVuSans-70" transform="translate(381.673828 0)"/>
     <use xlink:href="#DejaVuSans-73" transform="translate(445.150391 0)"/>
    </g>
   </g>
   <g id="text_10">
    <!-- Container Instances -->
    <g style="fill: #004578" transform="translate(443.685703 216) scale(0.09 -0.09)">
     <use xlink:href="#DejaVuSans-Bold-43"/>
     <use xlink:href="#DejaVuSans-Bold-6f" transform="translate(73.388672 0)"/>
     <use xlink:href="#DejaVuSans-Bold-6e" transform="translate(142.089844 0)"/>
     <use xlink:href="#DejaVuSans-Bold-74" transform="translate(213.28125 0)"/>
     <use xlink:href="#DejaVuSans-Bold-61" transform="translate(261.083984 0)"/>
     <use xlink:href="#DejaVuSans-Bold-69" transform="translate(328.564453 0)"/>
     <use xlink:href="#DejaVuSans-Bold-6e" transform="translate(362.841797 0)"/>
     <use xlink:href="#DejaVuSans-Bold-65" transform="translate(434.033203 0)"/>
     <use xlink:href="#DejaVuSans-Bold-72" transform="translate(501.855469 0)"/>
     <use xlink:href="#DejaVuSans-Bold-20" transform="translate(551.171875 0)"/>
     <use xlink:href="#DejaVuSans-Bold-49" transform="translate(585.986328 0)"/>
     <use xlink:href="#DejaVuSans-Bold-6e" transform="translate(623.193359 0)"/>
     <use xlink:href="#DejaVuSans-Bold-73" transform="translate(694.384766 0)"/>
     <use xlink:href="#DejaVuSans-Bold-74" transform="translate(753.90625 0)"/>
     <use xlink:href="#DejaVuSans-Bold-61" transform="translate(801.708984 0)"/>
     <use xlink:href="#DejaVuSans-Bold-6e" transform="translate(869.189453 0)"/>
     <use xlink:href="#DejaVuSans-Bold-63" transform="translate(940.380859 0)"/>
     <use xlink:href="#DejaVuSans-Bold-65" transform="translate(999.658203 0)"/>
     <use xlink:href="#DejaVuSans-Bold-73" transform="translate(1067.480469 0)"/>
    </g>
   </g>
   <g id="text_11">
    <!-- Simple Containers -->
    <g style="fill: #004578; opacity: 0.8" transform="translate(462.409453 233.4) scale(0.07 -0.07)">
     <defs>
      <path id="DejaVuSans-6d" d="M 3328 2828
Q 3544 3216 3844 3400
Q 4144 3584 4550 3584
Q 5097 3584 5394 3201
Q 5691 2819 5691 2113
L 5691 0
L 5113 0
L 5113 2094
Q 5113 2597 4934 2840
Q 4756 3084 4391 3084
Q 3944 3084 3684 2787
Q 3425 2491 3425 1978
L 3425 0
L 2847 0
L 2847 2094
Q 2847 2600 2669 2842
Q 2491 3084 2119 3084
Q 1678 3084 1418 2786
Q 1159 2488 1159 1978
L 1159 0
L 581 0
L 581 3500
L 1159 3500
L 1159 2956
Q 1356 3278 1631 3431
Q 1906 3584 2284 3584
Q 2666 3584 2933 3390
Q 3200 3197 3328 2828
z
" transform="scale(0.015625)"/>
     </defs>
     <use xlink:href="#DejaVuSans-53"/>
     <use xlink:href="#DejaVuSans-69" transform="translate(63.476562 0)"/>
     <use xlink:href="#DejaVuSans-6d" transform="translate(91.259766 0)"/>
     <use xlink:href="#DejaVuSans-70" transform="translate(188.671875 0)"/>
     <use xlink:href="#DejaVuSans-6c" transform="translate(252.148438 0)"/>
     <use xlink:href="#DejaVuSans-65" transform="translate(279.931641 0)"/>
     <use xlink:href="#DejaVuSans-20" transform="translate(341.455078 0)"/>
     <use xlink:href="#DejaVuSans-43" transform="translate(373.242188 0)"/>
     <use xlink:href="#DejaVuSans-6f" transform="translate(443.066406 0)"/>
     <use xlink:href="#DejaVuSans-6e" transform="translate(504.248047 0)"/>
     <use xlink:href="#DejaVuSans-74" transform="translate(567.626953 0)"/>
     <use xlink:href="#DejaVuSans-61" transform="translate(606.835938 0)"/>
     <use xlink:href="#DejaVuSans-69" transform="translate(668.115234 0)"/>
     <use xlink:href="#DejaVuSans-6e" transform="translate(695.898438 0)"/>
     <use xlink:href="#DejaVuSans-65" transform="translate(759.277344 0)"/>
     <use xlink:href="#DejaVuSans-72" transform="translate(820.800781 0)"/>
     <use xlink:href="#DejaVuSans-73" transform="translate(861.914062 0)"/>
    </g>
   </g>
   <g id="text_12">
    <!-- Kubernetes Service -->
    <g style="fill: #004578" transform="translate(444.884531 275.16) scale(0.09 -0.09)">
     <defs>
      <path id="DejaVuSans-Bold-4b" d="M 588 4666
L 1791 4666
L 1791 2963
L 3525 4666
L 4922 4666
L 2675 2456
L 5153 0
L 3647 0
L 1791 1838
L 1791 0
L 588 0
L 588 4666
z
" transform="scale(0.015625)"/>
      <path id="DejaVuSans-Bold-62" d="M 2400 722
Q 2759 722 2948 984
Q 3138 1247 3138 1747
Q 3138 2247 2948 2509
Q 2759 2772 2400 2772
Q 2041 2772 1848 2508
Q 1656 2244 1656 1747
Q 1656 1250 1848 986
Q 2041 722 2400 722
z
M 1656 2988
Q 1888 3294 2169 3439
Q 2450 3584 2816 3584
Q 3463 3584 3878 3070
Q 4294 2556 4294 1747
Q 4294 938 3878 423
Q 3463 -91 2816 -91
Q 2450 -91 2169 54
Q 1888 200 1656 506
L 1656 0
L 538 0
L 538 4863
L 1656 4863
L 1656 2988
z
" transform="scale(0.015625)"/>
     </defs>
     <use xlink:href="#DejaVuSans-Bold-4b"/>
     <use xlink:href="#DejaVuSans-Bold-75" transform="translate(75.740234 0)"/>
     <use xlink:href="#DejaVuSans-Bold-62" transform="translate(146.931641 0)"/>
     <use xlink:href="#DejaVuSans-Bold-65" transform="translate(218.513672 0)"/>
     <use xlink:href="#DejaVuSans-Bold-72" transform="translate(286.335938 0)"/>
     <use xlink:href="#DejaVuSans-Bold-6e" transform="translate(335.652344 0)"/>
     <use xlink:href="#DejaVuSans-Bold-65" transform="translate(406.84375 0)"/>
     <use xlink:href="#DejaVuSans-Bold-74" transform="translate(474.666016 0)"/>
     <use xlink:href="#DejaVuSans-Bold-65" transform="translate(522.46875 0)"/>
     <use xlink:href="#DejaVuSans-Bold-73" transform="translate(590.291016 0)"/>
     <use xlink:href="#DejaVuSans-Bold-20" transform="translate(649.8125 0)"/>
     <use xlink:href="#DejaVuSans-Bold-53" transform="translate(684.626953 0)"/>
     <use xlink:href="#DejaVuSans-Bold-65" transform="translate(756.648438 0)"/>
     <use xlink:href="#DejaVuSans-Bold-72" transform="translate(824.470703 0)"/>
     <use xlink:href="#DejaVuSans-Bold-76" transform="translate(873.787109 0)"/>
     <use xlink:href="#DejaVuSans-Bold-69" transform="translate(938.972656 0)"/>
     <use xlink:href="#DejaVuSans-Bold-63" transform="translate(973.25 0)"/>
     <use xlink:href="#DejaVuSans-Bold-65" transform="translate(1032.527344 0)"/>
    </g>
   </g>
   <g id="text_13">
    <!-- Container Orchestration -->
    <g style="fill: #004578; opacity: 0.8" transform="translate(452.289531 292.56) scale(0.07 -0.07)">
     <defs>
      <path id="DejaVuSans-68" d="M 3513 2113
L 3513 0
L 2938 0
L 2938 2094
Q 2938 2591 2744 2837
Q 2550 3084 2163 3084
Q 1697 3084 1428 2787
Q 1159 2491 1159 1978
L 1159 0
L 581 0
L 581 4863
L 1159 4863
L 1159 2956
Q 1366 3272 1645 3428
Q 1925 3584 2291 3584
Q 2894 3584 3203 3211
Q 3513 2838 3513 2113
z
" transform="scale(0.015625)"/>
     </defs>
     <use xlink:href="#DejaVuSans-43"/>
     <use xlink:href="#DejaVuSans-6f" transform="translate(69.824219 0)"/>
     <use xlink:href="#DejaVuSans-6e" transform="translate(131.005859 0)"/>
     <use xlink:href="#DejaVuSans-74" transform="translate(194.384766 0)"/>
     <use xlink:href="#DejaVuSans-61" transform="translate(233.59375 0)"/>
     <use xlink:href="#DejaVuSans-69" transform="translate(294.873047 0)"/>
     <use xlink:href="#DejaVuSans-6e" transform="translate(322.65625 0)"/>
     <use xlink:href="#DejaVuSans-65" transform="translate(386.035156 0)"/>
     <use xlink:href="#DejaVuSans-72" transform="translate(447.558594 0)"/>
     <use xlink:href="#DejaVuSans-20" transform="translate(488.671875 0)"/>
     <use xlink:href="#DejaVuSans-4f" transform="translate(520.458984 0)"/>
     <use xlink:href="#DejaVuSans-72" transform="translate(599.169922 0)"/>
     <use xlink:href="#DejaVuSans-63" transform="translate(638.033203 0)"/>
     <use xlink:href="#DejaVuSans-68" transform="translate(693.013672 0)"/>
     <use xlink:href="#DejaVuSans-65" transform="translate(756.392578 0)"/>
     <use xlink:href="#DejaVuSans-73" transform="translate(817.916016 0)"/>
     <use xlink:href="#DejaVuSans-74" transform="translate(870.015625 0)"/>
     <use xlink:href="#DejaVuSans-72" transform="translate(909.224609 0)"/>
     <use xlink:href="#DejaVuSans-61" transform="translate(950.337891 0)"/>
     <use xlink:href="#DejaVuSans-74" transform="translate(1011.617188 0)"/>
     <use xlink:href="#DejaVuSans-69" transform="translate(1050.826172 0)"/>
     <use xlink:href="#DejaVuSans-6f" transform="translate(1078.609375 0)"/>
     <use xlink:href="#DejaVuSans-6e" transform="translate(1139.791016 0)"/>
    </g>
   </g>
   <g id="text_14">
    <!-- Serverless -->
    <g style="fill: #107c10" transform="translate(775.005625 97.68) scale(0.11 -0.11)">
     <use xlink:href="#DejaVuSans-Bold-53"/>
     <use xlink:href="#DejaVuSans-Bold-65" transform="translate(72.021484 0)"/>
     <use xlink:href="#DejaVuSans-Bold-72" transform="translate(139.84375 0)"/>
     <use xlink:href="#DejaVuSans-Bold-76" transform="translate(189.160156 0)"/>
     <use xlink:href="#DejaVuSans-Bold-65" transform="translate(254.345703 0)"/>
     <use xlink:href="#DejaVuSans-Bold-72" transform="translate(322.167969 0)"/>
     <use xlink:href="#DejaVuSans-Bold-6c" transform="translate(371.484375 0)"/>
     <use xlink:href="#DejaVuSans-Bold-65" transform="translate(405.761719 0)"/>
     <use xlink:href="#DejaVuSans-Bold-73" transform="translate(473.583984 0)"/>
     <use xlink:href="#DejaVuSans-Bold-73" transform="translate(533.105469 0)"/>
    </g>
   </g>
   <g id="text_15">
    <!-- Azure Functions -->
    <g style="fill: #004578" transform="translate(766.866562 153.36) scale(0.09 -0.09)">
     <defs>
      <path id="DejaVuSans-Bold-46" d="M 588 4666
L 3834 4666
L 3834 3756
L 1791 3756
L 1791 2888
L 3713 2888
L 3713 1978
L 1791 1978
L 1791 0
L 588 0
L 588 4666
z
" transform="scale(0.015625)"/>
     </defs>
     <use xlink:href="#DejaVuSans-Bold-41"/>
     <use xlink:href="#DejaVuSans-Bold-7a" transform="translate(77.392578 0)"/>
     <use xlink:href="#DejaVuSans-Bold-75" transform="translate(135.595703 0)"/>
     <use xlink:href="#DejaVuSans-Bold-72" transform="translate(206.787109 0)"/>
     <use xlink:href="#DejaVuSans-Bold-65" transform="translate(256.103516 0)"/>
     <use xlink:href="#DejaVuSans-Bold-20" transform="translate(323.925781 0)"/>
     <use xlink:href="#DejaVuSans-Bold-46" transform="translate(358.740234 0)"/>
     <use xlink:href="#DejaVuSans-Bold-75" transform="translate(422.050781 0)"/>
     <use xlink:href="#DejaVuSans-Bold-6e" transform="translate(493.242188 0)"/>
     <use xlink:href="#DejaVuSans-Bold-63" transform="translate(564.433594 0)"/>
     <use xlink:href="#DejaVuSans-Bold-74" transform="translate(623.710938 0)"/>
     <use xlink:href="#DejaVuSans-Bold-69" transform="translate(671.513672 0)"/>
     <use xlink:href="#DejaVuSans-Bold-6f" transform="translate(705.791016 0)"/>
     <use xlink:href="#DejaVuSans-Bold-6e" transform="translate(774.492188 0)"/>
     <use xlink:href="#DejaVuSans-Bold-73" transform="translate(845.683594 0)"/>
    </g>
   </g>
   <g id="text_16">
    <!-- Event-driven -->
    <g style="fill: #004578; opacity: 0.8" transform="translate(782.03875 174.24) scale(0.08 -0.08)">
     <defs>
      <path id="DejaVuSans-45" d="M 628 4666
L 3578 4666
L 3578 4134
L 1259 4134
L 1259 2753
L 3481 2753
L 3481 2222
L 1259 2222
L 1259 531
L 3634 531
L 3634 0
L 628 0
L 628 4666
z
" transform="scale(0.015625)"/>
      <path id="DejaVuSans-76" d="M 191 3500
L 800 3500
L 1894 563
L 2988 3500
L 3597 3500
L 2284 0
L 1503 0
L 191 3500
z
" transform="scale(0.015625)"/>
      <path id="DejaVuSans-64" d="M 2906 2969
L 2906 4863
L 3481 4863
L 3481 0
L 2906 0
L 2906 525
Q 2725 213 2448 61
Q 2172 -91 1784 -91
Q 1150 -91 751 415
Q 353 922 353 1747
Q 353 2572 751 3078
Q 1150 3584 1784 3584
Q 2172 3584 2448 3432
Q 2725 3281 2906 2969
z
M 947 1747
Q 947 1113 1208 752
Q 1469 391 1925 391
Q 2381 391 2643 752
Q 2906 1113 2906 1747
Q 2906 2381 2643 2742
Q 2381 3103 1925 3103
Q 1469 3103 1208 2742
Q 947 2381 947 1747
z
" transform="scale(0.015625)"/>
     </defs>
     <use xlink:href="#DejaVuSans-45"/>
     <use xlink:href="#DejaVuSans-76" transform="translate(63.183594 0)"/>
     <use xlink:href="#DejaVuSans-65" transform="translate(122.363281 0)"/>
     <use xlink:href="#DejaVuSans-6e" transform="translate(183.886719 0)"/>
     <use xlink:href="#DejaVuSans-74" transform="translate(247.265625 0)"/>
     <use xlink:href="#DejaVuSans-2d" transform="translate(286.474609 0)"/>
     <use xlink:href="#DejaVuSans-64" transform="translate(322.558594 0)"/>
     <use xlink:href="#DejaVuSans-72" transform="translate(386.035156 0)"/>
     <use xlink:href="#DejaVuSans-69" transform="translate(427.148438 0)"/>
     <use xlink:href="#DejaVuSans-76" transform="translate(454.931641 0)"/>
     <use xlink:href="#DejaVuSans-65" transform="translate(514.111328 0)"/>
     <use xlink:href="#DejaVuSans-6e" transform="translate(575.634766 0)"/>
    </g>
   </g>
   <g id="text_17">
    <!-- Logic Apps -->
    <g style="fill: #004578" transform="translate(780.040312 236.88) scale(0.09 -0.09)">
     <defs>
      <path id="DejaVuSans-Bold-4c" d="M 588 4666
L 1791 4666
L 1791 909
L 3903 909
L 3903 0
L 588 0
L 588 4666
z
" transform="scale(0.015625)"/>
      <path id="DejaVuSans-Bold-67" d="M 2919 594
Q 2688 288 2409 144
Q 2131 0 1766 0
Q 1125 0 706 504
Q 288 1009 288 1791
Q 288 2575 706 3076
Q 1125 3578 1766 3578
Q 2131 3578 2409 3434
Q 2688 3291 2919 2981
L 2919 3500
L 4044 3500
L 4044 353
Q 4044 -491 3511 -936
Q 2978 -1381 1966 -1381
Q 1638 -1381 1331 -1331
Q 1025 -1281 716 -1178
L 716 -306
Q 1009 -475 1290 -558
Q 1572 -641 1856 -641
Q 2406 -641 2662 -400
Q 2919 -159 2919 353
L 2919 594
z
M 2181 2772
Q 1834 2772 1640 2515
Q 1447 2259 1447 1791
Q 1447 1309 1634 1061
Q 1822 813 2181 813
Q 2531 813 2725 1069
Q 2919 1325 2919 1791
Q 2919 2259 2725 2515
Q 2531 2772 2181 2772
z
" transform="scale(0.015625)"/>
     </defs>
     <use xlink:href="#DejaVuSans-Bold-4c"/>
     <use xlink:href="#DejaVuSans-Bold-6f" transform="translate(63.720703 0)"/>
     <use xlink:href="#DejaVuSans-Bold-67" transform="translate(132.421875 0)"/>
     <use xlink:href="#DejaVuSans-Bold-69" transform="translate(204.003906 0)"/>
     <use xlink:href="#DejaVuSans-Bold-63" transform="translate(238.28125 0)"/>
     <use xlink:href="#DejaVuSans-Bold-20" transform="translate(297.558594 0)"/>
     <use xlink:href="#DejaVuSans-Bold-41" transform="translate(332.373047 0)"/>
     <use xlink:href="#DejaVuSans-Bold-70" transform="translate(409.765625 0)"/>
     <use xlink:href="#DejaVuSans-Bold-70" transform="translate(481.347656 0)"/>
     <use xlink:href="#DejaVuSans-Bold-73" transform="translate(552.929688 0)"/>
    </g>
   </g>
   <g id="text_18">
    <!-- Workflows -->
    <g style="fill: #004578; opacity: 0.8" transform="translate(787.15 257.76) scale(0.08 -0.08)">
     <defs>
      <path id="DejaVuSans-6b" d="M 581 4863
L 1159 4863
L 1159 1991
L 2875 3500
L 3609 3500
L 1753 1863
L 3688 0
L 2938 0
L 1159 1709
L 1159 0
L 581 0
L 581 4863
z
" transform="scale(0.015625)"/>
      <path id="DejaVuSans-66" d="M 2375 4863
L 2375 4384
L 1825 4384
Q 1516 4384 1395 4259
Q 1275 4134 1275 3809
L 1275 3500
L 2222 3500
L 2222 3053
L 1275 3053
L 1275 0
L 697 0
L 697 3053
L 147 3053
L 147 3500
L 697 3500
L 697 3744
Q 697 4328 969 4595
Q 1241 4863 1831 4863
L 2375 4863
z
" transform="scale(0.015625)"/>
      <path id="DejaVuSans-77" d="M 269 3500
L 844 3500
L 1563 769
L 2278 3500
L 2956 3500
L 3675 769
L 4391 3500
L 4966 3500
L 4050 0
L 3372 0
L 2619 2869
L 1863 0
L 1184 0
L 269 3500
z
" transform="scale(0.015625)"/>
     </defs>
     <use xlink:href="#DejaVuSans-57"/>
     <use xlink:href="#DejaVuSans-6f" transform="translate(93.001953 0)"/>
     <use xlink:href="#DejaVuSans-72" transform="translate(154.183594 0)"/>
     <use xlink:href="#DejaVuSans-6b" transform="translate(195.296875 0)"/>
     <use xlink:href="#DejaVuSans-66" transform="translate(253.207031 0)"/>
     <use xlink:href="#DejaVuSans-6c" transform="translate(288.412109 0)"/>
     <use xlink:href="#DejaVuSans-6f" transform="translate(316.195312 0)"/>
     <use xlink:href="#DejaVuSans-77" transform="translate(377.376953 0)"/>
     <use xlink:href="#DejaVuSans-73" transform="translate(459.164062 0)"/>
    </g>
   </g>
   <g id="text_19">
    <!-- More -->
    <g style="fill: #004578" transform="translate(329.124922 171.90575) scale(0.07 -0.07)">
     <use xlink:href="#DejaVuSans-4d"/>
     <use xlink:href="#DejaVuSans-6f" transform="translate(86.279297 0)"/>
     <use xlink:href="#DejaVuSans-72" transform="translate(147.460938 0)"/>
     <use xlink:href="#DejaVuSans-65" transform="translate(186.324219 0)"/>
    </g>
    <!-- Control -->
    <g style="fill: #004578" transform="translate(325.150234 179.744219) scale(0.07 -0.07)">
     <use xlink:href="#DejaVuSans-43"/>
     <use xlink:href="#DejaVuSans-6f" transform="translate(69.824219 0)"/>
     <use xlink:href="#DejaVuSans-6e" transform="translate(131.005859 0)"/>
     <use xlink:href="#DejaVuSans-74" transform="translate(194.384766 0)"/>
     <use xlink:href="#DejaVuSans-72" transform="translate(233.59375 0)"/>
     <use xlink:href="#DejaVuSans-6f" transform="translate(272.457031 0)"/>
     <use xlink:href="#DejaVuSans-6c" transform="translate(333.638672 0)"/>
    </g>
   </g>
   <g id="text_20">
    <!-- Less -->
    <g style="fill: #004578" transform="translate(643.310937 171.90575) scale(0.07 -0.07)">
     <defs>
      <path id="DejaVuSans-4c" d="M 628 4666
L 1259 4666
L 1259 531
L 3531 531
L 3531 0
L 628 0
L 628 4666
z
" transform="scale(0.015625)"/>
     </defs>
     <use xlink:href="#DejaVuSans-4c"/>
     <use xlink:href="#DejaVuSans-65" transform="translate(53.962891 0)"/>
     <use xlink:href="#DejaVuSans-73" transform="translate(115.486328 0)"/>
     <use xlink:href="#DejaVuSans-73" transform="translate(167.585938 0)"/>
    </g>
    <!-- Mgmt -->
    <g style="fill: #004578" transform="translate(640.976875 179.744219) scale(0.07 -0.07)">
     <use xlink:href="#DejaVuSans-4d"/>
     <use xlink:href="#DejaVuSans-67" transform="translate(86.279297 0)"/>
     <use xlink:href="#DejaVuSans-6d" transform="translate(149.755859 0)"/>
     <use xlink:href="#DejaVuSans-74" transform="translate(247.167969 0)"/>
    </g>
   </g>
   <g id="text_21">
    <!-- When to Use Each -->
    <g style="fill: #004578" transform="translate(433.425 383.04) scale(0.12 -0.12)">
     <defs>
      <path id="DejaVuSans-Bold-57" d="M 191 4666
L 1344 4666
L 2150 1275
L 2950 4666
L 4109 4666
L 4909 1275
L 5716 4666
L 6859 4666
L 5759 0
L 4372 0
L 3525 3547
L 2688 0
L 1300 0
L 191 4666
z
" transform="scale(0.015625)"/>
      <path id="DejaVuSans-Bold-55" d="M 588 4666
L 1791 4666
L 1791 1869
Q 1791 1291 1980 1042
Q 2169 794 2597 794
Q 3028 794 3217 1042
Q 3406 1291 3406 1869
L 3406 4666
L 4609 4666
L 4609 1869
Q 4609 878 4112 393
Q 3616 -91 2597 -91
Q 1581 -91 1084 393
Q 588 878 588 1869
L 588 4666
z
" transform="scale(0.015625)"/>
      <path id="DejaVuSans-Bold-45" d="M 588 4666
L 3834 4666
L 3834 3756
L 1791 3756
L 1791 2888
L 3713 2888
L 3713 1978
L 1791 1978
L 1791 909
L 3903 909
L 3903 0
L 588 0
L 588 4666
z
" transform="scale(0.015625)"/>
     </defs>
     <use xlink:href="#DejaVuSans-Bold-57"/>
     <use xlink:href="#DejaVuSans-Bold-68" transform="translate(110.302734 0)"/>
     <use xlink:href="#DejaVuSans-Bold-65" transform="translate(181.494141 0)"/>
     <use xlink:href="#DejaVuSans-Bold-6e" transform="translate(249.316406 0)"/>
     <use xlink:href="#DejaVuSans-Bold-20" transform="translate(320.507812 0)"/>
     <use xlink:href="#DejaVuSans-Bold-74" transform="translate(355.322266 0)"/>
     <use xlink:href="#DejaVuSans-Bold-6f" transform="translate(403.125 0)"/>
     <use xlink:href="#DejaVuSans-Bold-20" transform="translate(471.826172 0)"/>
     <use xlink:href="#DejaVuSans-Bold-55" transform="translate(506.640625 0)"/>
     <use xlink:href="#DejaVuSans-Bold-73" transform="translate(587.841797 0)"/>
     <use xlink:href="#DejaVuSans-Bold-65" transform="translate(647.363281 0)"/>
     <use xlink:href="#DejaVuSans-Bold-20" transform="translate(715.185547 0)"/>
     <use xlink:href="#DejaVuSans-Bold-45" transform="translate(750 0)"/>
     <use xlink:href="#DejaVuSans-Bold-61" transform="translate(818.310547 0)"/>
     <use xlink:href="#DejaVuSans-Bold-63" transform="translate(885.791016 0)"/>
     <use xlink:href="#DejaVuSans-Bold-68" transform="translate(945.068359 0)"/>
    </g>
   </g>
   <g id="text_22">
    <!-- IaaS -->
    <g style="fill: #0078d4" transform="translate(168.990625 424.8) scale(0.1 -0.1)">
     <use xlink:href="#DejaVuSans-Bold-49"/>
     <use xlink:href="#DejaVuSans-Bold-61" transform="translate(37.207031 0)"/>
     <use xlink:href="#DejaVuSans-Bold-61" transform="translate(104.6875 0)"/>
     <use xlink:href="#DejaVuSans-Bold-53" transform="translate(172.167969 0)"/>
    </g>
   </g>
   <g id="text_23">
    <!--  Need full control -->
    <g style="fill: #004578" transform="translate(144.54375 466.56) scale(0.08 -0.08)">
     <defs>
      <path id="DejaVuSans-2022" d="M 959 2381
Q 959 2769 1229 3036
Q 1500 3303 1894 3303
Q 2281 3303 2548 3036
Q 2816 2769 2816 2381
Q 2816 1991 2547 1722
Q 2278 1453 1888 1453
Q 1497 1453 1228 1722
Q 959 1991 959 2381
z
" transform="scale(0.015625)"/>
      <path id="DejaVuSans-4e" d="M 628 4666
L 1478 4666
L 3547 763
L 3547 4666
L 4159 4666
L 4159 0
L 3309 0
L 1241 3903
L 1241 0
L 628 0
L 628 4666
z
" transform="scale(0.015625)"/>
     </defs>
     <use xlink:href="#DejaVuSans-2022"/>
     <use xlink:href="#DejaVuSans-20" transform="translate(58.984375 0)"/>
     <use xlink:href="#DejaVuSans-4e" transform="translate(90.771484 0)"/>
     <use xlink:href="#DejaVuSans-65" transform="translate(165.576172 0)"/>
     <use xlink:href="#DejaVuSans-65" transform="translate(227.099609 0)"/>
     <use xlink:href="#DejaVuSans-64" transform="translate(288.623047 0)"/>
     <use xlink:href="#DejaVuSans-20" transform="translate(352.099609 0)"/>
     <use xlink:href="#DejaVuSans-66" transform="translate(383.886719 0)"/>
     <use xlink:href="#DejaVuSans-75" transform="translate(419.091797 0)"/>
     <use xlink:href="#DejaVuSans-6c" transform="translate(482.470703 0)"/>
     <use xlink:href="#DejaVuSans-6c" transform="translate(510.253906 0)"/>
     <use xlink:href="#DejaVuSans-20" transform="translate(538.037109 0)"/>
     <use xlink:href="#DejaVuSans-63" transform="translate(569.824219 0)"/>
     <use xlink:href="#DejaVuSans-6f" transform="translate(624.804688 0)"/>
     <use xlink:href="#DejaVuSans-6e" transform="translate(685.986328 0)"/>
     <use xlink:href="#DejaVuSans-74" transform="translate(749.365234 0)"/>
     <use xlink:href="#DejaVuSans-72" transform="translate(788.574219 0)"/>
     <use xlink:href="#DejaVuSans-6f" transform="translate(827.4375 0)"/>
     <use xlink:href="#DejaVuSans-6c" transform="translate(888.619141 0)"/>
    </g>
   </g>
   <g id="text_24">
    <!--  Lift &amp; shift migrations -->
    <g style="fill: #004578" transform="translate(134.365625 504.84) scale(0.08 -0.08)">
     <defs>
      <path id="DejaVuSans-26" d="M 1556 2509
Q 1272 2256 1139 2004
Q 1006 1753 1006 1478
Q 1006 1022 1337 719
Q 1669 416 2169 416
Q 2466 416 2725 514
Q 2984 613 3213 813
L 1556 2509
z
M 1997 2859
L 3584 1234
Q 3769 1513 3872 1830
Q 3975 2147 3994 2503
L 4575 2503
Q 4538 2091 4375 1687
Q 4213 1284 3922 891
L 4794 0
L 4006 0
L 3559 459
Q 3234 181 2878 45
Q 2522 -91 2113 -91
Q 1359 -91 881 339
Q 403 769 403 1441
Q 403 1841 612 2192
Q 822 2544 1241 2853
Q 1091 3050 1012 3245
Q 934 3441 934 3628
Q 934 4134 1281 4442
Q 1628 4750 2203 4750
Q 2463 4750 2720 4694
Q 2978 4638 3244 4525
L 3244 3956
Q 2972 4103 2725 4179
Q 2478 4256 2266 4256
Q 1938 4256 1733 4082
Q 1528 3909 1528 3634
Q 1528 3475 1620 3314
Q 1713 3153 1997 2859
z
" transform="scale(0.015625)"/>
     </defs>
     <use xlink:href="#DejaVuSans-2022"/>
     <use xlink:href="#DejaVuSans-20" transform="translate(58.984375 0)"/>
     <use xlink:href="#DejaVuSans-4c" transform="translate(90.771484 0)"/>
     <use xlink:href="#DejaVuSans-69" transform="translate(146.484375 0)"/>
     <use xlink:href="#DejaVuSans-66" transform="translate(174.267578 0)"/>
     <use xlink:href="#DejaVuSans-74" transform="translate(207.722656 0)"/>
     <use xlink:href="#DejaVuSans-20" transform="translate(246.931641 0)"/>
     <use xlink:href="#DejaVuSans-26" transform="translate(278.71875 0)"/>
     <use xlink:href="#DejaVuSans-20" transform="translate(356.697266 0)"/>
     <use xlink:href="#DejaVuSans-73" transform="translate(388.484375 0)"/>
     <use xlink:href="#DejaVuSans-68" transform="translate(440.583984 0)"/>
     <use xlink:href="#DejaVuSans-69" transform="translate(503.962891 0)"/>
     <use xlink:href="#DejaVuSans-66" transform="translate(531.746094 0)"/>
     <use xlink:href="#DejaVuSans-74" transform="translate(565.201172 0)"/>
     <use xlink:href="#DejaVuSans-20" transform="translate(604.410156 0)"/>
     <use xlink:href="#DejaVuSans-6d" transform="translate(636.197266 0)"/>
     <use xlink:href="#DejaVuSans-69" transform="translate(733.609375 0)"/>
     <use xlink:href="#DejaVuSans-67" transform="translate(761.392578 0)"/>
     <use xlink:href="#DejaVuSans-72" transform="translate(824.869141 0)"/>
     <use xlink:href="#DejaVuSans-61" transform="translate(865.982422 0)"/>
     <use xlink:href="#DejaVuSans-74" transform="translate(927.261719 0)"/>
     <use xlink:href="#DejaVuSans-69" transform="translate(966.470703 0)"/>
     <use xlink:href="#DejaVuSans-6f" transform="translate(994.253906 0)"/>
     <use xlink:href="#DejaVuSans-6e" transform="translate(1055.435547 0)"/>
     <use xlink:href="#DejaVuSans-73" transform="translate(1118.814453 0)"/>
    </g>
   </g>
   <g id="text_25">
    <!--  Custom configurations -->
    <g style="fill: #004578" transform="translate(132.3575 543.12) scale(0.08 -0.08)">
     <use xlink:href="#DejaVuSans-2022"/>
     <use xlink:href="#DejaVuSans-20" transform="translate(58.984375 0)"/>
     <use xlink:href="#DejaVuSans-43" transform="translate(90.771484 0)"/>
     <use xlink:href="#DejaVuSans-75" transform="translate(160.595703 0)"/>
     <use xlink:href="#DejaVuSans-73" transform="translate(223.974609 0)"/>
     <use xlink:href="#DejaVuSans-74" transform="translate(276.074219 0)"/>
     <use xlink:href="#DejaVuSans-6f" transform="translate(315.283203 0)"/>
     <use xlink:href="#DejaVuSans-6d" transform="translate(376.464844 0)"/>
     <use xlink:href="#DejaVuSans-20" transform="translate(473.876953 0)"/>
     <use xlink:href="#DejaVuSans-63" transform="translate(505.664062 0)"/>
     <use xlink:href="#DejaVuSans-6f" transform="translate(560.644531 0)"/>
     <use xlink:href="#DejaVuSans-6e" transform="translate(621.826172 0)"/>
     <use xlink:href="#DejaVuSans-66" transform="translate(685.205078 0)"/>
     <use xlink:href="#DejaVuSans-69" transform="translate(720.410156 0)"/>
     <use xlink:href="#DejaVuSans-67" transform="translate(748.193359 0)"/>
     <use xlink:href="#DejaVuSans-75" transform="translate(811.669922 0)"/>
     <use xlink:href="#DejaVuSans-72" transform="translate(875.048828 0)"/>
     <use xlink:href="#DejaVuSans-61" transform="translate(916.162109 0)"/>
     <use xlink:href="#DejaVuSans-74" transform="translate(977.441406 0)"/>
     <use xlink:href="#DejaVuSans-69" transform="translate(1016.650391 0)"/>
     <use xlink:href="#DejaVuSans-6f" transform="translate(1044.433594 0)"/>
     <use xlink:href="#DejaVuSans-6e" transform="translate(1105.615234 0)"/>
     <use xlink:href="#DejaVuSans-73" transform="translate(1168.994141 0)"/>
    </g>
   </g>
   <g id="text_26">
    <!-- PaaS -->
    <g style="fill: #ff8c00" transform="translate(480.517187 424.8) scale(0.1 -0.1)">
     <use xlink:href="#DejaVuSans-Bold-50"/>
     <use xlink:href="#DejaVuSans-Bold-61" transform="translate(70.666016 0)"/>
     <use xlink:href="#DejaVuSans-Bold-61" transform="translate(138.146484 0)"/>
     <use xlink:href="#DejaVuSans-Bold-53" transform="translate(205.626953 0)"/>
    </g>
   </g>
   <g id="text_27">
    <!--  Focus on code, not infra -->
    <g style="fill: #004578" transform="translate(442.66125 466.56) scale(0.08 -0.08)">
     <defs>
      <path id="DejaVuSans-2c" d="M 750 794
L 1409 794
L 1409 256
L 897 -744
L 494 -744
L 750 256
L 750 794
z
" transform="scale(0.015625)"/>
     </defs>
     <use xlink:href="#DejaVuSans-2022"/>
     <use xlink:href="#DejaVuSans-20" transform="translate(58.984375 0)"/>
     <use xlink:href="#DejaVuSans-46" transform="translate(90.771484 0)"/>
     <use xlink:href="#DejaVuSans-6f" transform="translate(144.666016 0)"/>
     <use xlink:href="#DejaVuSans-63" transform="translate(205.847656 0)"/>
     <use xlink:href="#DejaVuSans-75" transform="translate(260.828125 0)"/>
     <use xlink:href="#DejaVuSans-73" transform="translate(324.207031 0)"/>
     <use xlink:href="#DejaVuSans-20" transform="translate(376.306641 0)"/>
     <use xlink:href="#DejaVuSans-6f" transform="translate(408.09375 0)"/>
     <use xlink:href="#DejaVuSans-6e" transform="translate(469.275391 0)"/>
     <use xlink:href="#DejaVuSans-20" transform="translate(532.654297 0)"/>
     <use xlink:href="#DejaVuSans-63" transform="translate(564.441406 0)"/>
     <use xlink:href="#DejaVuSans-6f" transform="translate(619.421875 0)"/>
     <use xlink:href="#DejaVuSans-64" transform="translate(680.603516 0)"/>
     <use xlink:href="#DejaVuSans-65" transform="translate(744.080078 0)"/>
     <use xlink:href="#DejaVuSans-2c" transform="translate(805.603516 0)"/>
     <use xlink:href="#DejaVuSans-20" transform="translate(837.390625 0)"/>
     <use xlink:href="#DejaVuSans-6e" transform="translate(869.177734 0)"/>
     <use xlink:href="#DejaVuSans-6f" transform="translate(932.556641 0)"/>
     <use xlink:href="#DejaVuSans-74" transform="translate(993.738281 0)"/>
     <use xlink:href="#DejaVuSans-20" transform="translate(1032.947266 0)"/>
     <use xlink:href="#DejaVuSans-69" transform="translate(1064.734375 0)"/>
     <use xlink:href="#DejaVuSans-6e" transform="translate(1092.517578 0)"/>
     <use xlink:href="#DejaVuSans-66" transform="translate(1155.896484 0)"/>
     <use xlink:href="#DejaVuSans-72" transform="translate(1191.101562 0)"/>
     <use xlink:href="#DejaVuSans-61" transform="translate(1232.214844 0)"/>
    </g>
   </g>
   <g id="text_28">
    <!--  Rapid development -->
    <g style="fill: #004578" transform="translate(451.779375 504.84) scale(0.08 -0.08)">
     <defs>
      <path id="DejaVuSans-52" d="M 2841 2188
Q 3044 2119 3236 1894
Q 3428 1669 3622 1275
L 4263 0
L 3584 0
L 2988 1197
Q 2756 1666 2539 1819
Q 2322 1972 1947 1972
L 1259 1972
L 1259 0
L 628 0
L 628 4666
L 2053 4666
Q 2853 4666 3247 4331
Q 3641 3997 3641 3322
Q 3641 2881 3436 2590
Q 3231 2300 2841 2188
z
M 1259 4147
L 1259 2491
L 2053 2491
Q 2509 2491 2742 2702
Q 2975 2913 2975 3322
Q 2975 3731 2742 3939
Q 2509 4147 2053 4147
L 1259 4147
z
" transform="scale(0.015625)"/>
     </defs>
     <use xlink:href="#DejaVuSans-2022"/>
     <use xlink:href="#DejaVuSans-20" transform="translate(58.984375 0)"/>
     <use xlink:href="#DejaVuSans-52" transform="translate(90.771484 0)"/>
     <use xlink:href="#DejaVuSans-61" transform="translate(158.003906 0)"/>
     <use xlink:href="#DejaVuSans-70" transform="translate(219.283203 0)"/>
     <use xlink:href="#DejaVuSans-69" transform="translate(282.759766 0)"/>
     <use xlink:href="#DejaVuSans-64" transform="translate(310.542969 0)"/>
     <use xlink:href="#DejaVuSans-20" transform="translate(374.019531 0)"/>
     <use xlink:href="#DejaVuSans-64" transform="translate(405.806641 0)"/>
     <use xlink:href="#DejaVuSans-65" transform="translate(469.283203 0)"/>
     <use xlink:href="#DejaVuSans-76" transform="translate(530.806641 0)"/>
     <use xlink:href="#DejaVuSans-65" transform="translate(589.986328 0)"/>
     <use xlink:href="#DejaVuSans-6c" transform="translate(651.509766 0)"/>
     <use xlink:href="#DejaVuSans-6f" transform="translate(679.292969 0)"/>
     <use xlink:href="#DejaVuSans-70" transform="translate(740.474609 0)"/>
     <use xlink:href="#DejaVuSans-6d" transform="translate(803.951172 0)"/>
     <use xlink:href="#DejaVuSans-65" transform="translate(901.363281 0)"/>
     <use xlink:href="#DejaVuSans-6e" transform="translate(962.886719 0)"/>
     <use xlink:href="#DejaVuSans-74" transform="translate(1026.265625 0)"/>
    </g>
   </g>
   <g id="text_29">
    <!--  Managed runtimes -->
    <g style="fill: #004578" transform="translate(453.234375 543.12) scale(0.08 -0.08)">
     <use xlink:href="#DejaVuSans-2022"/>
     <use xlink:href="#DejaVuSans-20" transform="translate(58.984375 0)"/>
     <use xlink:href="#DejaVuSans-4d" transform="translate(90.771484 0)"/>
     <use xlink:href="#DejaVuSans-61" transform="translate(177.050781 0)"/>
     <use xlink:href="#DejaVuSans-6e" transform="translate(238.330078 0)"/>
     <use xlink:href="#DejaVuSans-61" transform="translate(301.708984 0)"/>
     <use xlink:href="#DejaVuSans-67" transform="translate(362.988281 0)"/>
     <use xlink:href="#DejaVuSans-65" transform="translate(426.464844 0)"/>
     <use xlink:href="#DejaVuSans-64" transform="translate(487.988281 0)"/>
     <use xlink:href="#DejaVuSans-20" transform="translate(551.464844 0)"/>
     <use xlink:href="#DejaVuSans-72" transform="translate(583.251953 0)"/>
     <use xlink:href="#DejaVuSans-75" transform="translate(624.365234 0)"/>
     <use xlink:href="#DejaVuSans-6e" transform="translate(687.744141 0)"/>
     <use xlink:href="#DejaVuSans-74" transform="translate(751.123047 0)"/>
     <use xlink:href="#DejaVuSans-69" transform="translate(790.332031 0)"/>
     <use xlink:href="#DejaVuSans-6d" transform="translate(818.115234 0)"/>
     <use xlink:href="#DejaVuSans-65" transform="translate(915.527344 0)"/>
     <use xlink:href="#DejaVuSans-73" transform="translate(977.050781 0)"/>
    </g>
   </g>
   <g id="text_30">
    <!-- Serverless -->
    <g style="fill: #107c10" transform="translate(777.96875 424.8) scale(0.1 -0.1)">
     <use xlink:href="#DejaVuSans-Bold-53"/>
     <use xlink:href="#DejaVuSans-Bold-65" transform="translate(72.021484 0)"/>
     <use xlink:href="#DejaVuSans-Bold-72" transform="translate(139.84375 0)"/>
     <use xlink:href="#DejaVuSans-Bold-76" transform="translate(189.160156 0)"/>
     <use xlink:href="#DejaVuSans-Bold-65" transform="translate(254.345703 0)"/>
     <use xlink:href="#DejaVuSans-Bold-72" transform="translate(322.167969 0)"/>
     <use xlink:href="#DejaVuSans-Bold-6c" transform="translate(371.484375 0)"/>
     <use xlink:href="#DejaVuSans-Bold-65" transform="translate(405.761719 0)"/>
     <use xlink:href="#DejaVuSans-Bold-73" transform="translate(473.583984 0)"/>
     <use xlink:href="#DejaVuSans-Bold-73" transform="translate(533.105469 0)"/>
    </g>
   </g>
   <g id="text_31">
    <!--  Event-driven workloads -->
    <g style="fill: #004578" transform="translate(756.824375 466.56) scale(0.08 -0.08)">
     <use xlink:href="#DejaVuSans-2022"/>
     <use xlink:href="#DejaVuSans-20" transform="translate(58.984375 0)"/>
     <use xlink:href="#DejaVuSans-45" transform="translate(90.771484 0)"/>
     <use xlink:href="#DejaVuSans-76" transform="translate(153.955078 0)"/>
     <use xlink:href="#DejaVuSans-65" transform="translate(213.134766 0)"/>
     <use xlink:href="#DejaVuSans-6e" transform="translate(274.658203 0)"/>
     <use xlink:href="#DejaVuSans-74" transform="translate(338.037109 0)"/>
     <use xlink:href="#DejaVuSans-2d" transform="translate(377.246094 0)"/>
     <use xlink:href="#DejaVuSans-64" transform="translate(413.330078 0)"/>
     <use xlink:href="#DejaVuSans-72" transform="translate(476.806641 0)"/>
     <use xlink:href="#DejaVuSans-69" transform="translate(517.919922 0)"/>
     <use xlink:href="#DejaVuSans-76" transform="translate(545.703125 0)"/>
     <use xlink:href="#DejaVuSans-65" transform="translate(604.882812 0)"/>
     <use xlink:href="#DejaVuSans-6e" transform="translate(666.40625 0)"/>
     <use xlink:href="#DejaVuSans-20" transform="translate(729.785156 0)"/>
     <use xlink:href="#DejaVuSans-77" transform="translate(761.572266 0)"/>
     <use xlink:href="#DejaVuSans-6f" transform="translate(843.359375 0)"/>
     <use xlink:href="#DejaVuSans-72" transform="translate(904.541016 0)"/>
     <use xlink:href="#DejaVuSans-6b" transform="translate(945.654297 0)"/>
     <use xlink:href="#DejaVuSans-6c" transform="translate(1003.564453 0)"/>
     <use xlink:href="#DejaVuSans-6f" transform="translate(1031.347656 0)"/>
     <use xlink:href="#DejaVuSans-61" transform="translate(1092.529297 0)"/>
     <use xlink:href="#DejaVuSans-64" transform="translate(1153.808594 0)"/>
     <use xlink:href="#DejaVuSans-73" transform="translate(1217.285156 0)"/>
    </g>
   </g>
   <g id="text_32">
    <!--  Pay per execution -->
    <g style="fill: #004578" transform="translate(768.24 504.84) scale(0.08 -0.08)">
     <defs>
      <path id="DejaVuSans-50" d="M 1259 4147
L 1259 2394
L 2053 2394
Q 2494 2394 2734 2622
Q 2975 2850 2975 3272
Q 2975 3691 2734 3919
Q 2494 4147 2053 4147
L 1259 4147
z
M 628 4666
L 2053 4666
Q 2838 4666 3239 4311
Q 3641 3956 3641 3272
Q 3641 2581 3239 2228
Q 2838 1875 2053 1875
L 1259 1875
L 1259 0
L 628 0
L 628 4666
z
" transform="scale(0.015625)"/>
      <path id="DejaVuSans-79" d="M 2059 -325
Q 1816 -950 1584 -1140
Q 1353 -1331 966 -1331
L 506 -1331
L 506 -850
L 844 -850
Q 1081 -850 1212 -737
Q 1344 -625 1503 -206
L 1606 56
L 191 3500
L 800 3500
L 1894 763
L 2988 3500
L 3597 3500
L 2059 -325
z
" transform="scale(0.015625)"/>
      <path id="DejaVuSans-78" d="M 3513 3500
L 2247 1797
L 3578 0
L 2900 0
L 1881 1375
L 863 0
L 184 0
L 1544 1831
L 300 3500
L 978 3500
L 1906 2253
L 2834 3500
L 3513 3500
z
" transform="scale(0.015625)"/>
     </defs>
     <use xlink:href="#DejaVuSans-2022"/>
     <use xlink:href="#DejaVuSans-20" transform="translate(58.984375 0)"/>
     <use xlink:href="#DejaVuSans-50" transform="translate(90.771484 0)"/>
     <use xlink:href="#DejaVuSans-61" transform="translate(146.574219 0)"/>
     <use xlink:href="#DejaVuSans-79" transform="translate(207.853516 0)"/>
     <use xlink:href="#DejaVuSans-20" transform="translate(267.033203 0)"/>
     <use xlink:href="#DejaVuSans-70" transform="translate(298.820312 0)"/>
     <use xlink:href="#DejaVuSans-65" transform="translate(362.296875 0)"/>
     <use xlink:href="#DejaVuSans-72" transform="translate(423.820312 0)"/>
     <use xlink:href="#DejaVuSans-20" transform="translate(464.933594 0)"/>
     <use xlink:href="#DejaVuSans-65" transform="translate(496.720703 0)"/>
     <use xlink:href="#DejaVuSans-78" transform="translate(556.494141 0)"/>
     <use xlink:href="#DejaVuSans-65" transform="translate(612.548828 0)"/>
     <use xlink:href="#DejaVuSans-63" transform="translate(674.072266 0)"/>
     <use xlink:href="#DejaVuSans-75" transform="translate(729.052734 0)"/>
     <use xlink:href="#DejaVuSans-74" transform="translate(792.431641 0)"/>
     <use xlink:href="#DejaVuSans-69" transform="translate(831.640625 0)"/>
     <use xlink:href="#DejaVuSans-6f" transform="translate(859.423828 0)"/>
     <use xlink:href="#DejaVuSans-6e" transform="translate(920.605469 0)"/>
    </g>
   </g>
   <g id="text_33">
    <!--  Auto-scale to zero -->
    <g style="fill: #004578" transform="translate(767.736875 543.12) scale(0.08 -0.08)">
     <defs>
      <path id="DejaVuSans-7a" d="M 353 3500
L 3084 3500
L 3084 2975
L 922 459
L 3084 459
L 3084 0
L 275 0
L 275 525
L 2438 3041
L 353 3041
L 353 3500
z
" transform="scale(0.015625)"/>
     </defs>
     <use xlink:href="#DejaVuSans-2022"/>
     <use xlink:href="#DejaVuSans-20" transform="translate(58.984375 0)"/>
     <use xlink:href="#DejaVuSans-41" transform="translate(90.771484 0)"/>
     <use xlink:href="#DejaVuSans-75" transform="translate(159.179688 0)"/>
     <use xlink:href="#DejaVuSans-74" transform="translate(222.558594 0)"/>
     <use xlink:href="#DejaVuSans-6f" transform="translate(261.767578 0)"/>
     <use xlink:href="#DejaVuSans-2d" transform="translate(324.824219 0)"/>
     <use xlink:href="#DejaVuSans-73" transform="translate(360.908203 0)"/>
     <use xlink:href="#DejaVuSans-63" transform="translate(413.007812 0)"/>
     <use xlink:href="#DejaVuSans-61" transform="translate(467.988281 0)"/>
     <use xlink:href="#DejaVuSans-6c" transform="translate(529.267578 0)"/>
     <use xlink:href="#DejaVuSans-65" transform="translate(557.050781 0)"/>
     <use xlink:href="#DejaVuSans-20" transform="translate(618.574219 0)"/>
     <use xlink:href="#DejaVuSans-74" transform="translate(650.361328 0)"/>
     <use xlink:href="#DejaVuSans-6f" transform="translate(689.570312 0)"/>
     <use xlink:href="#DejaVuSans-20" transform="translate(750.751953 0)"/>
     <use xlink:href="#DejaVuSans-7a" transform="translate(782.539062 0)"/>
     <use xlink:href="#DejaVuSans-65" transform="translate(835.029297 0)"/>
     <use xlink:href="#DejaVuSans-72" transform="translate(896.552734 0)"/>
     <use xlink:href="#DejaVuSans-6f" transform="translate(935.416016 0)"/>
    </g>
   </g>
  </g>
 </g>
 <defs>
  <clipPath id="p10d0349fbd">
   <rect x="7.2" y="7.2" width="974.4" height="626.4"/>
  </clipPath>
 </defs>
</svg>
