<?xml version="1.0" encoding="utf-8" standalone="no"?>
<!DOCTYPE svg PUBLIC "-//W3C//DTD SVG 1.1//EN"
  "http://www.w3.org/Graphics/SVG/1.1/DTD/svg11.dtd">
<svg xmlns:xlink="http://www.w3.org/1999/xlink" width="849.6pt" height="640.8pt" viewBox="0 0 849.6 640.8" xmlns="http://www.w3.org/2000/svg" version="1.1">
 <metadata>
  <rdf:RDF xmlns:dc="http://purl.org/dc/elements/1.1/" xmlns:cc="http://creativecommons.org/ns#" xmlns:rdf="http://www.w3.org/1999/02/22-rdf-syntax-ns#">
   <cc:Work>
    <dc:type rdf:resource="http://purl.org/dc/dcmitype/StillImage"/>
    <dc:date>2025-11-27T19:33:17.258399</dc:date>
    <dc:format>image/svg+xml</dc:format>
    <dc:creator>
     <cc:Agent>
      <dc:title>Matplotlib v3.10.7, https://matplotlib.org/</dc:title>
     </cc:Agent>
    </dc:creator>
   </cc:Work>
  </rdf:RDF>
 </metadata>
 <defs>
  <style type="text/css">*{stroke-linejoin: round; stroke-linecap: butt}</style>
 </defs>
 <g id="figure_1">
  <g id="patch_1">
   <path d="M 0 640.8
L 849.6 640.8
L 849.6 0
L 0 0
z
" style="fill: #ffffff"/>
  </g>
  <g id="axes_1">
   <g id="patch_2">
    <path d="M 42 605.76
L 807.6 605.76
Q 814.56 605.76 814.56 598.8
L 814.56 76.8
Q 814.56 69.84 807.6 69.84
L 42 69.84
Q 35.04 69.84 35.04 76.8
L 35.04 598.8
Q 35.04 605.76 42 605.76
z
" clip-path="url(#p6b9bb944de)" style="fill: #e8f4fd; stroke: #0078d4; stroke-width: 2; stroke-linejoin: miter"/>
   </g>
   <g id="patch_3">
    <path d="M 320.4 182.592
L 529.2 182.592
Q 530.592 182.592 530.592 181.2
L 530.592 111.6
Q 530.592 110.208 529.2 110.208
L 320.4 110.208
Q 319.008 110.208 319.008 111.6
L 319.008 181.2
Q 319.008 182.592 320.4 182.592
z
" clip-path="url(#p6b9bb944de)" style="fill: #bbdefb; stroke: #0078d4; stroke-width: 2; stroke-linejoin: miter"/>
   </g>
   <g id="patch_4">
    <path d="M 132.48 328.752
L 299.52 328.752
Q 300.912 328.752 300.912 327.36
L 300.912 271.68
Q 300.912 270.288 299.52 270.288
L 132.48 270.288
Q 131.088 270.288 131.088 271.68
L 131.088 327.36
Q 131.088 328.752 132.48 328.752
z
" clip-path="url(#p6b9bb944de)" style="fill: #90caf9; stroke: #0078d4; stroke-width: 1.5; stroke-linejoin: miter"/>
   </g>
   <g id="patch_5">
    <path d="M 550.08 328.752
L 717.12 328.752
Q 718.512 328.752 718.512 327.36
L 718.512 271.68
Q 718.512 270.288 717.12 270.288
L 550.08 270.288
Q 548.688 270.288 548.688 271.68
L 548.688 327.36
Q 548.688 328.752 550.08 328.752
z
" clip-path="url(#p6b9bb944de)" style="fill: #90caf9; stroke: #0078d4; stroke-width: 1.5; stroke-linejoin: miter"/>
   </g>
   <g id="patch_6">
    <path d="M 62.88 450.552
L 160.32 450.552
Q 161.712 450.552 161.712 449.16
L 161.712 400.44
Q 161.712 399.048 160.32 399.048
L 62.88 399.048
Q 61.488 399.048 61.488 400.44
L 61.488 449.16
Q 61.488 450.552 62.88 450.552
z
" clip-path="url(#p6b9bb944de)" style="fill: #a5d6a7; stroke: #107c10; stroke-width: 1.5; stroke-linejoin: miter"/>
   </g>
   <g id="patch_7">
    <path d="M 167.28 450.552
L 264.72 450.552
Q 266.112 450.552 266.112 449.16
L 266.112 400.44
Q 266.112 399.048 264.72 399.048
L 167.28 399.048
Q 165.888 399.048 165.888 400.44
L 165.888 449.16
Q 165.888 450.552 167.28 450.552
z
" clip-path="url(#p6b9bb944de)" style="fill: #a5d6a7; stroke: #107c10; stroke-width: 1.5; stroke-linejoin: miter"/>
   </g>
   <g id="patch_8">
    <path d="M 271.68 450.552
L 369.12 450.552
Q 370.512 450.552 370.512 449.16
L 370.512 400.44
Q 370.512 399.048 369.12 399.048
L 271.68 399.048
Q 270.288 399.048 270.288 400.44
L 270.288 449.16
Q 270.288 450.552 271.68 450.552
z
" clip-path="url(#p6b9bb944de)" style="fill: #a5d6a7; stroke: #107c10; stroke-width: 1.5; stroke-linejoin: miter"/>
   </g>
   <g id="patch_9">
    <path d="M 69.84 554.952
L 153.36 554.952
Q 154.752 554.952 154.752 553.56
L 154.752 504.84
Q 154.752 503.448 153.36 503.448
L 69.84 503.448
Q 68.448 503.448 68.448 504.84
L 68.448 553.56
Q 68.448 554.952 69.84 554.952
z
" clip-path="url(#p6b9bb944de)" style="fill: #ffffff; stroke: #004578; stroke-linejoin: miter"/>
   </g>
   <g id="patch_10">
    <path d="M 174.24 554.952
L 257.76 554.952
Q 259.152 554.952 259.152 553.56
L 259.152 504.84
Q 259.152 503.448 257.76 503.448
L 174.24 503.448
Q 172.848 503.448 172.848 504.84
L 172.848 553.56
Q 172.848 554.952 174.24 554.952
z
" clip-path="url(#p6b9bb944de)" style="fill: #ffffff; stroke: #004578; stroke-linejoin: miter"/>
   </g>
   <g id="patch_11">
    <path d="M 278.64 554.952
L 362.16 554.952
Q 363.552 554.952 363.552 553.56
L 363.552 504.84
Q 363.552 503.448 362.16 503.448
L 278.64 503.448
Q 277.248 503.448 277.248 504.84
L 277.248 553.56
Q 277.248 554.952 278.64 554.952
z
" clip-path="url(#p6b9bb944de)" style="fill: #ffffff; stroke: #004578; stroke-linejoin: miter"/>
   </g>
   <g id="patch_12">
    <path d="M 577.92 405.312
L 689.28 405.312
Q 690.672 405.312 690.672 403.92
L 690.672 376.08
Q 690.672 374.688 689.28 374.688
L 577.92 374.688
Q 576.528 374.688 576.528 376.08
L 576.528 403.92
Q 576.528 405.312 577.92 405.312
z
" clip-path="url(#p6b9bb944de)" style="fill: #bbdefb; stroke: #0078d4; stroke-linejoin: miter"/>
   </g>
   <g id="patch_13">
    <path d="M 577.92 460.992
L 689.28 460.992
Q 690.672 460.992 690.672 459.6
L 690.672 431.76
Q 690.672 430.368 689.28 430.368
L 577.92 430.368
Q 576.528 430.368 576.528 431.76
L 576.528 459.6
Q 576.528 460.992 577.92 460.992
z
" clip-path="url(#p6b9bb944de)" style="fill: #90caf9; stroke: #0078d4; stroke-linejoin: miter"/>
   </g>
   <g id="patch_14">
    <path d="M 577.92 516.672
L 689.28 516.672
Q 690.672 516.672 690.672 515.28
L 690.672 487.44
Q 690.672 486.048 689.28 486.048
L 577.92 486.048
Q 576.528 486.048 576.528 487.44
L 576.528 515.28
Q 576.528 516.672 577.92 516.672
z
" clip-path="url(#p6b9bb944de)" style="fill: #a5d6a7; stroke: #107c10; stroke-linejoin: miter"/>
   </g>
   <g id="patch_15">
    <path d="M 577.92 572.352
L 689.28 572.352
Q 690.672 572.352 690.672 570.96
L 690.672 543.12
Q 690.672 541.728 689.28 541.728
L 577.92 541.728
Q 576.528 541.728 576.528 543.12
L 576.528 570.96
Q 576.528 572.352 577.92 572.352
z
" clip-path="url(#p6b9bb944de)" style="fill: #ffffff; stroke: #004578; stroke-linejoin: miter"/>
   </g>
   <g id="text_1">
    <!-- [World] Azure Global Infrastructure Hierarchy -->
    <g style="fill: #004578" transform="translate(218.16 42) scale(0.16 -0.16)">
     <defs>
      <path id="DejaVuSans-Bold-5b" d="M 550 4863
L 2491 4863
L 2491 4159
L 1613 4159
L 1613 -141
L 2491 -141
L 2491 -844
L 550 -844
L 550 4863
z
" transform="scale(0.015625)"/>
      <path id="DejaVuSans-Bold-57" d="M 191 4666
L 1344 4666
L 2150 1275
L 2950 4666
L 4109 4666
L 4909 1275
L 5716 4666
L 6859 4666
L 5759 0
L 4372 0
L 3525 3547
L 2688 0
L 1300 0
L 191 4666
z
" transform="scale(0.015625)"/>
      <path id="DejaVuSans-Bold-6f" d="M 2203 2784
Q 1831 2784 1636 2517
Q 1441 2250 1441 1747
Q 1441 1244 1636 976
Q 1831 709 2203 709
Q 2569 709 2762 976
Q 2956 1244 2956 1747
Q 2956 2250 2762 2517
Q 2569 2784 2203 2784
z
M 2203 3584
Q 3106 3584 3614 3096
Q 4122 2609 4122 1747
Q 4122 884 3614 396
Q 3106 -91 2203 -91
Q 1297 -91 786 396
Q 275 884 275 1747
Q 275 2609 786 3096
Q 1297 3584 2203 3584
z
" transform="scale(0.015625)"/>
      <path id="DejaVuSans-Bold-72" d="M 3138 2547
Q 2991 2616 2845 2648
Q 2700 2681 2553 2681
Q 2122 2681 1889 2404
Q 1656 2128 1656 1613
L 1656 0
L 538 0
L 538 3500
L 1656 3500
L 1656 2925
Q 1872 3269 2151 3426
Q 2431 3584 2822 3584
Q 2878 3584 2943 3579
Q 3009 3575 3134 3559
L 3138 2547
z
" transform="scale(0.015625)"/>
      <path id="DejaVuSans-Bold-6c" d="M 538 4863
L 1656 4863
L 1656 0
L 538 0
L 538 4863
z
" transform="scale(0.015625)"/>
      <path id="DejaVuSans-Bold-64" d="M 2919 2988
L 2919 4863
L 4044 4863
L 4044 0
L 2919 0
L 2919 506
Q 2688 197 2409 53
Q 2131 -91 1766 -91
Q 1119 -91 703 423
Q 288 938 288 1747
Q 288 2556 703 3070
Q 1119 3584 1766 3584
Q 2128 3584 2408 3439
Q 2688 3294 2919 2988
z
M 2181 722
Q 2541 722 2730 984
Q 2919 1247 2919 1747
Q 2919 2247 2730 2509
Q 2541 2772 2181 2772
Q 1825 2772 1636 2509
Q 1447 2247 1447 1747
Q 1447 1247 1636 984
Q 1825 722 2181 722
z
" transform="scale(0.015625)"/>
      <path id="DejaVuSans-Bold-5d" d="M 2375 -844
L 434 -844
L 434 -141
L 1313 -141
L 1313 4159
L 434 4159
L 434 4863
L 2375 4863
L 2375 -844
z
" transform="scale(0.015625)"/>
      <path id="DejaVuSans-Bold-20" transform="scale(0.015625)"/>
      <path id="DejaVuSans-Bold-41" d="M 3419 850
L 1538 850
L 1241 0
L 31 0
L 1759 4666
L 3194 4666
L 4922 0
L 3713 0
L 3419 850
z
M 1838 1716
L 3116 1716
L 2478 3572
L 1838 1716
z
" transform="scale(0.015625)"/>
      <path id="DejaVuSans-Bold-7a" d="M 366 3500
L 3419 3500
L 3419 2719
L 1575 800
L 3419 800
L 3419 0
L 288 0
L 288 781
L 2131 2700
L 366 2700
L 366 3500
z
" transform="scale(0.015625)"/>
      <path id="DejaVuSans-Bold-75" d="M 500 1363
L 500 3500
L 1625 3500
L 1625 3150
Q 1625 2866 1622 2436
Q 1619 2006 1619 1863
Q 1619 1441 1641 1255
Q 1663 1069 1716 984
Q 1784 875 1895 815
Q 2006 756 2150 756
Q 2500 756 2700 1025
Q 2900 1294 2900 1772
L 2900 3500
L 4019 3500
L 4019 0
L 2900 0
L 2900 506
Q 2647 200 2364 54
Q 2081 -91 1741 -91
Q 1134 -91 817 281
Q 500 653 500 1363
z
" transform="scale(0.015625)"/>
      <path id="DejaVuSans-Bold-65" d="M 4031 1759
L 4031 1441
L 1416 1441
Q 1456 1047 1700 850
Q 1944 653 2381 653
Q 2734 653 3104 758
Q 3475 863 3866 1075
L 3866 213
Q 3469 63 3072 -14
Q 2675 -91 2278 -91
Q 1328 -91 801 392
Q 275 875 275 1747
Q 275 2603 792 3093
Q 1309 3584 2216 3584
Q 3041 3584 3536 3087
Q 4031 2591 4031 1759
z
M 2881 2131
Q 2881 2450 2695 2645
Q 2509 2841 2209 2841
Q 1884 2841 1681 2658
Q 1478 2475 1428 2131
L 2881 2131
z
" transform="scale(0.015625)"/>
      <path id="DejaVuSans-Bold-47" d="M 4781 347
Q 4331 128 3847 18
Q 3363 -91 2847 -91
Q 1681 -91 1000 561
Q 319 1213 319 2328
Q 319 3456 1012 4103
Q 1706 4750 2913 4750
Q 3378 4750 3804 4662
Q 4231 4575 4609 4403
L 4609 3438
Q 4219 3659 3833 3768
Q 3447 3878 3059 3878
Q 2341 3878 1952 3476
Q 1563 3075 1563 2328
Q 1563 1588 1938 1184
Q 2313 781 3003 781
Q 3191 781 3352 804
Q 3513 828 3641 878
L 3641 1784
L 2906 1784
L 2906 2591
L 4781 2591
L 4781 347
z
" transform="scale(0.015625)"/>
      <path id="DejaVuSans-Bold-62" d="M 2400 722
Q 2759 722 2948 984
Q 3138 1247 3138 1747
Q 3138 2247 2948 2509
Q 2759 2772 2400 2772
Q 2041 2772 1848 2508
Q 1656 2244 1656 1747
Q 1656 1250 1848 986
Q 2041 722 2400 722
z
M 1656 2988
Q 1888 3294 2169 3439
Q 2450 3584 2816 3584
Q 3463 3584 3878 3070
Q 4294 2556 4294 1747
Q 4294 938 3878 423
Q 3463 -91 2816 -91
Q 2450 -91 2169 54
Q 1888 200 1656 506
L 1656 0
L 538 0
L 538 4863
L 1656 4863
L 1656 2988
z
" transform="scale(0.015625)"/>
      <path id="DejaVuSans-Bold-61" d="M 2106 1575
Q 1756 1575 1579 1456
Q 1403 1338 1403 1106
Q 1403 894 1545 773
Q 1688 653 1941 653
Q 2256 653 2472 879
Q 2688 1106 2688 1447
L 2688 1575
L 2106 1575
z
M 3816 1997
L 3816 0
L 2688 0
L 2688 519
Q 2463 200 2181 54
Q 1900 -91 1497 -91
Q 953 -91 614 226
Q 275 544 275 1050
Q 275 1666 698 1953
Q 1122 2241 2028 2241
L 2688 2241
L 2688 2328
Q 2688 2594 2478 2717
Q 2269 2841 1825 2841
Q 1466 2841 1156 2769
Q 847 2697 581 2553
L 581 3406
Q 941 3494 1303 3539
Q 1666 3584 2028 3584
Q 2975 3584 3395 3211
Q 3816 2838 3816 1997
z
" transform="scale(0.015625)"/>
      <path id="DejaVuSans-Bold-49" d="M 588 4666
L 1791 4666
L 1791 0
L 588 0
L 588 4666
z
" transform="scale(0.015625)"/>
      <path id="DejaVuSans-Bold-6e" d="M 4056 2131
L 4056 0
L 2931 0
L 2931 347
L 2931 1631
Q 2931 2084 2911 2256
Q 2891 2428 2841 2509
Q 2775 2619 2662 2680
Q 2550 2741 2406 2741
Q 2056 2741 1856 2470
Q 1656 2200 1656 1722
L 1656 0
L 538 0
L 538 3500
L 1656 3500
L 1656 2988
Q 1909 3294 2193 3439
Q 2478 3584 2822 3584
Q 3428 3584 3742 3212
Q 4056 2841 4056 2131
z
" transform="scale(0.015625)"/>
      <path id="DejaVuSans-Bold-66" d="M 2841 4863
L 2841 4128
L 2222 4128
Q 1984 4128 1890 4042
Q 1797 3956 1797 3744
L 1797 3500
L 2753 3500
L 2753 2700
L 1797 2700
L 1797 0
L 678 0
L 678 2700
L 122 2700
L 122 3500
L 678 3500
L 678 3744
Q 678 4316 997 4589
Q 1316 4863 1984 4863
L 2841 4863
z
" transform="scale(0.015625)"/>
      <path id="DejaVuSans-Bold-73" d="M 3272 3391
L 3272 2541
Q 2913 2691 2578 2766
Q 2244 2841 1947 2841
Q 1628 2841 1473 2761
Q 1319 2681 1319 2516
Q 1319 2381 1436 2309
Q 1553 2238 1856 2203
L 2053 2175
Q 2913 2066 3209 1816
Q 3506 1566 3506 1031
Q 3506 472 3093 190
Q 2681 -91 1863 -91
Q 1516 -91 1145 -36
Q 775 19 384 128
L 384 978
Q 719 816 1070 734
Q 1422 653 1784 653
Q 2113 653 2278 743
Q 2444 834 2444 1013
Q 2444 1163 2330 1236
Q 2216 1309 1875 1350
L 1678 1375
Q 931 1469 631 1722
Q 331 1975 331 2491
Q 331 3047 712 3315
Q 1094 3584 1881 3584
Q 2191 3584 2531 3537
Q 2872 3491 3272 3391
z
" transform="scale(0.015625)"/>
      <path id="DejaVuSans-Bold-74" d="M 1759 4494
L 1759 3500
L 2913 3500
L 2913 2700
L 1759 2700
L 1759 1216
Q 1759 972 1856 886
Q 1953 800 2241 800
L 2816 800
L 2816 0
L 1856 0
Q 1194 0 917 276
Q 641 553 641 1216
L 641 2700
L 84 2700
L 84 3500
L 641 3500
L 641 4494
L 1759 4494
z
" transform="scale(0.015625)"/>
      <path id="DejaVuSans-Bold-63" d="M 3366 3391
L 3366 2478
Q 3138 2634 2908 2709
Q 2678 2784 2431 2784
Q 1963 2784 1702 2511
Q 1441 2238 1441 1747
Q 1441 1256 1702 982
Q 1963 709 2431 709
Q 2694 709 2930 787
Q 3166 866 3366 1019
L 3366 103
Q 3103 6 2833 -42
Q 2563 -91 2291 -91
Q 1344 -91 809 395
Q 275 881 275 1747
Q 275 2613 809 3098
Q 1344 3584 2291 3584
Q 2566 3584 2833 3536
Q 3100 3488 3366 3391
z
" transform="scale(0.015625)"/>
      <path id="DejaVuSans-Bold-48" d="M 588 4666
L 1791 4666
L 1791 2888
L 3566 2888
L 3566 4666
L 4769 4666
L 4769 0
L 3566 0
L 3566 1978
L 1791 1978
L 1791 0
L 588 0
L 588 4666
z
" transform="scale(0.015625)"/>
      <path id="DejaVuSans-Bold-69" d="M 538 3500
L 1656 3500
L 1656 0
L 538 0
L 538 3500
z
M 538 4863
L 1656 4863
L 1656 3950
L 538 3950
L 538 4863
z
" transform="scale(0.015625)"/>
      <path id="DejaVuSans-Bold-68" d="M 4056 2131
L 4056 0
L 2931 0
L 2931 347
L 2931 1625
Q 2931 2084 2911 2256
Q 2891 2428 2841 2509
Q 2775 2619 2662 2680
Q 2550 2741 2406 2741
Q 2056 2741 1856 2470
Q 1656 2200 1656 1722
L 1656 0
L 538 0
L 538 4863
L 1656 4863
L 1656 2988
Q 1909 3294 2193 3439
Q 2478 3584 2822 3584
Q 3428 3584 3742 3212
Q 4056 2841 4056 2131
z
" transform="scale(0.015625)"/>
      <path id="DejaVuSans-Bold-79" d="M 78 3500
L 1197 3500
L 2138 1125
L 2938 3500
L 4056 3500
L 2584 -331
Q 2363 -916 2067 -1148
Q 1772 -1381 1288 -1381
L 641 -1381
L 641 -647
L 991 -647
Q 1275 -647 1404 -556
Q 1534 -466 1606 -231
L 1638 -134
L 78 3500
z
" transform="scale(0.015625)"/>
     </defs>
     <use xlink:href="#DejaVuSans-Bold-5b"/>
     <use xlink:href="#DejaVuSans-Bold-57" transform="translate(45.703125 0)"/>
     <use xlink:href="#DejaVuSans-Bold-6f" transform="translate(152.380859 0)"/>
     <use xlink:href="#DejaVuSans-Bold-72" transform="translate(221.082031 0)"/>
     <use xlink:href="#DejaVuSans-Bold-6c" transform="translate(270.398438 0)"/>
     <use xlink:href="#DejaVuSans-Bold-64" transform="translate(304.675781 0)"/>
     <use xlink:href="#DejaVuSans-Bold-5d" transform="translate(376.257812 0)"/>
     <use xlink:href="#DejaVuSans-Bold-20" transform="translate(421.960938 0)"/>
     <use xlink:href="#DejaVuSans-Bold-41" transform="translate(456.775391 0)"/>
     <use xlink:href="#DejaVuSans-Bold-7a" transform="translate(534.167969 0)"/>
     <use xlink:href="#DejaVuSans-Bold-75" transform="translate(592.371094 0)"/>
     <use xlink:href="#DejaVuSans-Bold-72" transform="translate(663.5625 0)"/>
     <use xlink:href="#DejaVuSans-Bold-65" transform="translate(712.878906 0)"/>
     <use xlink:href="#DejaVuSans-Bold-20" transform="translate(780.701172 0)"/>
     <use xlink:href="#DejaVuSans-Bold-47" transform="translate(815.515625 0)"/>
     <use xlink:href="#DejaVuSans-Bold-6c" transform="translate(897.595703 0)"/>
     <use xlink:href="#DejaVuSans-Bold-6f" transform="translate(931.873047 0)"/>
     <use xlink:href="#DejaVuSans-Bold-62" transform="translate(1000.574219 0)"/>
     <use xlink:href="#DejaVuSans-Bold-61" transform="translate(1072.15625 0)"/>
     <use xlink:href="#DejaVuSans-Bold-6c" transform="translate(1139.636719 0)"/>
     <use xlink:href="#DejaVuSans-Bold-20" transform="translate(1173.914062 0)"/>
     <use xlink:href="#DejaVuSans-Bold-49" transform="translate(1208.728516 0)"/>
     <use xlink:href="#DejaVuSans-Bold-6e" transform="translate(1245.935547 0)"/>
     <use xlink:href="#DejaVuSans-Bold-66" transform="translate(1317.126953 0)"/>
     <use xlink:href="#DejaVuSans-Bold-72" transform="translate(1360.632812 0)"/>
     <use xlink:href="#DejaVuSans-Bold-61" transform="translate(1409.949219 0)"/>
     <use xlink:href="#DejaVuSans-Bold-73" transform="translate(1477.429688 0)"/>
     <use xlink:href="#DejaVuSans-Bold-74" transform="translate(1536.951172 0)"/>
     <use xlink:href="#DejaVuSans-Bold-72" transform="translate(1584.753906 0)"/>
     <use xlink:href="#DejaVuSans-Bold-75" transform="translate(1634.070312 0)"/>
     <use xlink:href="#DejaVuSans-Bold-63" transform="translate(1705.261719 0)"/>
     <use xlink:href="#DejaVuSans-Bold-74" transform="translate(1764.539062 0)"/>
     <use xlink:href="#DejaVuSans-Bold-75" transform="translate(1812.341797 0)"/>
     <use xlink:href="#DejaVuSans-Bold-72" transform="translate(1883.533203 0)"/>
     <use xlink:href="#DejaVuSans-Bold-65" transform="translate(1932.849609 0)"/>
     <use xlink:href="#DejaVuSans-Bold-20" transform="translate(2000.671875 0)"/>
     <use xlink:href="#DejaVuSans-Bold-48" transform="translate(2035.486328 0)"/>
     <use xlink:href="#DejaVuSans-Bold-69" transform="translate(2119.177734 0)"/>
     <use xlink:href="#DejaVuSans-Bold-65" transform="translate(2153.455078 0)"/>
     <use xlink:href="#DejaVuSans-Bold-72" transform="translate(2221.277344 0)"/>
     <use xlink:href="#DejaVuSans-Bold-61" transform="translate(2270.59375 0)"/>
     <use xlink:href="#DejaVuSans-Bold-72" transform="translate(2338.074219 0)"/>
     <use xlink:href="#DejaVuSans-Bold-63" transform="translate(2387.390625 0)"/>
     <use xlink:href="#DejaVuSans-Bold-68" transform="translate(2446.667969 0)"/>
     <use xlink:href="#DejaVuSans-Bold-79" transform="translate(2517.859375 0)"/>
    </g>
   </g>
   <g id="text_2">
    <!-- Geography -->
    <g style="fill: #004578" transform="translate(390.978437 149.392344) scale(0.11 -0.11)">
     <defs>
      <path id="DejaVuSans-Bold-67" d="M 2919 594
Q 2688 288 2409 144
Q 2131 0 1766 0
Q 1125 0 706 504
Q 288 1009 288 1791
Q 288 2575 706 3076
Q 1125 3578 1766 3578
Q 2131 3578 2409 3434
Q 2688 3291 2919 2981
L 2919 3500
L 4044 3500
L 4044 353
Q 4044 -491 3511 -936
Q 2978 -1381 1966 -1381
Q 1638 -1381 1331 -1331
Q 1025 -1281 716 -1178
L 716 -306
Q 1009 -475 1290 -558
Q 1572 -641 1856 -641
Q 2406 -641 2662 -400
Q 2919 -159 2919 353
L 2919 594
z
M 2181 2772
Q 1834 2772 1640 2515
Q 1447 2259 1447 1791
Q 1447 1309 1634 1061
Q 1822 813 2181 813
Q 2531 813 2725 1069
Q 2919 1325 2919 1791
Q 2919 2259 2725 2515
Q 2531 2772 2181 2772
z
" transform="scale(0.015625)"/>
      <path id="DejaVuSans-Bold-70" d="M 1656 506
L 1656 -1331
L 538 -1331
L 538 3500
L 1656 3500
L 1656 2988
Q 1888 3294 2169 3439
Q 2450 3584 2816 3584
Q 3463 3584 3878 3070
Q 4294 2556 4294 1747
Q 4294 938 3878 423
Q 3463 -91 2816 -91
Q 2450 -91 2169 54
Q 1888 200 1656 506
z
M 2400 2772
Q 2041 2772 1848 2508
Q 1656 2244 1656 1747
Q 1656 1250 1848 986
Q 2041 722 2400 722
Q 2759 722 2948 984
Q 3138 1247 3138 1747
Q 3138 2247 2948 2509
Q 2759 2772 2400 2772
z
" transform="scale(0.015625)"/>
     </defs>
     <use xlink:href="#DejaVuSans-Bold-47"/>
     <use xlink:href="#DejaVuSans-Bold-65" transform="translate(82.080078 0)"/>
     <use xlink:href="#DejaVuSans-Bold-6f" transform="translate(149.902344 0)"/>
     <use xlink:href="#DejaVuSans-Bold-67" transform="translate(218.603516 0)"/>
     <use xlink:href="#DejaVuSans-Bold-72" transform="translate(290.185547 0)"/>
     <use xlink:href="#DejaVuSans-Bold-61" transform="translate(339.501953 0)"/>
     <use xlink:href="#DejaVuSans-Bold-70" transform="translate(406.982422 0)"/>
     <use xlink:href="#DejaVuSans-Bold-68" transform="translate(478.564453 0)"/>
     <use xlink:href="#DejaVuSans-Bold-79" transform="translate(549.755859 0)"/>
    </g>
   </g>
   <g id="text_3">
    <!-- Region 1 -->
    <g style="fill: #004578" transform="translate(191.251562 302.240312) scale(0.1 -0.1)">
     <defs>
      <path id="DejaVuSans-Bold-52" d="M 2297 2597
Q 2675 2597 2839 2737
Q 3003 2878 3003 3200
Q 3003 3519 2839 3656
Q 2675 3794 2297 3794
L 1791 3794
L 1791 2597
L 2297 2597
z
M 1791 1766
L 1791 0
L 588 0
L 588 4666
L 2425 4666
Q 3347 4666 3776 4356
Q 4206 4047 4206 3378
Q 4206 2916 3982 2619
Q 3759 2322 3309 2181
Q 3556 2125 3751 1926
Q 3947 1728 4147 1325
L 4800 0
L 3519 0
L 2950 1159
Q 2778 1509 2601 1637
Q 2425 1766 2131 1766
L 1791 1766
z
" transform="scale(0.015625)"/>
      <path id="DejaVuSans-Bold-31" d="M 750 831
L 1813 831
L 1813 3847
L 722 3622
L 722 4441
L 1806 4666
L 2950 4666
L 2950 831
L 4013 831
L 4013 0
L 750 0
L 750 831
z
" transform="scale(0.015625)"/>
     </defs>
     <use xlink:href="#DejaVuSans-Bold-52"/>
     <use xlink:href="#DejaVuSans-Bold-65" transform="translate(77.001953 0)"/>
     <use xlink:href="#DejaVuSans-Bold-67" transform="translate(144.824219 0)"/>
     <use xlink:href="#DejaVuSans-Bold-69" transform="translate(216.40625 0)"/>
     <use xlink:href="#DejaVuSans-Bold-6f" transform="translate(250.683594 0)"/>
     <use xlink:href="#DejaVuSans-Bold-6e" transform="translate(319.384766 0)"/>
     <use xlink:href="#DejaVuSans-Bold-20" transform="translate(390.576172 0)"/>
     <use xlink:href="#DejaVuSans-Bold-31" transform="translate(425.390625 0)"/>
    </g>
   </g>
   <g id="text_4">
    <!-- Region 2 -->
    <g style="fill: #004578" transform="translate(608.851562 302.240312) scale(0.1 -0.1)">
     <defs>
      <path id="DejaVuSans-Bold-32" d="M 1844 884
L 3897 884
L 3897 0
L 506 0
L 506 884
L 2209 2388
Q 2438 2594 2547 2791
Q 2656 2988 2656 3200
Q 2656 3528 2436 3728
Q 2216 3928 1850 3928
Q 1569 3928 1234 3808
Q 900 3688 519 3450
L 519 4475
Q 925 4609 1322 4679
Q 1719 4750 2100 4750
Q 2938 4750 3402 4381
Q 3866 4013 3866 3353
Q 3866 2972 3669 2642
Q 3472 2313 2841 1759
L 1844 884
z
" transform="scale(0.015625)"/>
     </defs>
     <use xlink:href="#DejaVuSans-Bold-52"/>
     <use xlink:href="#DejaVuSans-Bold-65" transform="translate(77.001953 0)"/>
     <use xlink:href="#DejaVuSans-Bold-67" transform="translate(144.824219 0)"/>
     <use xlink:href="#DejaVuSans-Bold-69" transform="translate(216.40625 0)"/>
     <use xlink:href="#DejaVuSans-Bold-6f" transform="translate(250.683594 0)"/>
     <use xlink:href="#DejaVuSans-Bold-6e" transform="translate(319.384766 0)"/>
     <use xlink:href="#DejaVuSans-Bold-20" transform="translate(390.576172 0)"/>
     <use xlink:href="#DejaVuSans-Bold-32" transform="translate(425.390625 0)"/>
    </g>
   </g>
   <g id="patch_16">
    <path d="M 367.398054 182.217513
Q 292.559558 226.440261 219.646153 269.525455
" style="fill: none; stroke: #004578; stroke-width: 2; stroke-linecap: round"/>
    <path d="M 224.107317 269.212391
L 219.646153 269.525455
L 222.0724 265.768685
" style="fill: none; stroke: #004578; stroke-width: 2; stroke-linecap: round"/>
   </g>
   <g id="patch_17">
    <path d="M 482.201946 182.217513
Q 557.040442 226.440261 629.953847 269.525455
" style="fill: none; stroke: #004578; stroke-width: 2; stroke-linecap: round"/>
    <path d="M 627.5276 265.768685
L 629.953847 269.525455
L 625.492683 269.212391
" style="fill: none; stroke: #004578; stroke-width: 2; stroke-linecap: round"/>
   </g>
   <g id="text_5">
    <!-- AZ 1 -->
    <g style="fill: #004578" transform="translate(100.156641 427.283437) scale(0.09 -0.09)">
     <defs>
      <path id="DejaVuSans-Bold-5a" d="M 359 4666
L 4281 4666
L 4281 3938
L 1778 909
L 4353 909
L 4353 0
L 288 0
L 288 728
L 2791 3756
L 359 3756
L 359 4666
z
" transform="scale(0.015625)"/>
     </defs>
     <use xlink:href="#DejaVuSans-Bold-41"/>
     <use xlink:href="#DejaVuSans-Bold-5a" transform="translate(77.392578 0)"/>
     <use xlink:href="#DejaVuSans-Bold-20" transform="translate(149.902344 0)"/>
     <use xlink:href="#DejaVuSans-Bold-31" transform="translate(184.716797 0)"/>
    </g>
   </g>
   <g id="text_6">
    <!-- AZ 2 -->
    <g style="fill: #004578" transform="translate(204.556641 427.283437) scale(0.09 -0.09)">
     <use xlink:href="#DejaVuSans-Bold-41"/>
     <use xlink:href="#DejaVuSans-Bold-5a" transform="translate(77.392578 0)"/>
     <use xlink:href="#DejaVuSans-Bold-20" transform="translate(149.902344 0)"/>
     <use xlink:href="#DejaVuSans-Bold-32" transform="translate(184.716797 0)"/>
    </g>
   </g>
   <g id="text_7">
    <!-- AZ 3 -->
    <g style="fill: #004578" transform="translate(308.956641 427.283437) scale(0.09 -0.09)">
     <defs>
      <path id="DejaVuSans-Bold-33" d="M 2981 2516
Q 3453 2394 3698 2092
Q 3944 1791 3944 1325
Q 3944 631 3412 270
Q 2881 -91 1863 -91
Q 1503 -91 1142 -33
Q 781 25 428 141
L 428 1069
Q 766 900 1098 814
Q 1431 728 1753 728
Q 2231 728 2486 893
Q 2741 1059 2741 1369
Q 2741 1688 2480 1852
Q 2219 2016 1709 2016
L 1228 2016
L 1228 2791
L 1734 2791
Q 2188 2791 2409 2933
Q 2631 3075 2631 3366
Q 2631 3634 2415 3781
Q 2200 3928 1806 3928
Q 1516 3928 1219 3862
Q 922 3797 628 3669
L 628 4550
Q 984 4650 1334 4700
Q 1684 4750 2022 4750
Q 2931 4750 3382 4451
Q 3834 4153 3834 3553
Q 3834 3144 3618 2883
Q 3403 2622 2981 2516
z
" transform="scale(0.015625)"/>
     </defs>
     <use xlink:href="#DejaVuSans-Bold-41"/>
     <use xlink:href="#DejaVuSans-Bold-5a" transform="translate(77.392578 0)"/>
     <use xlink:href="#DejaVuSans-Bold-20" transform="translate(149.902344 0)"/>
     <use xlink:href="#DejaVuSans-Bold-33" transform="translate(184.716797 0)"/>
    </g>
   </g>
   <g id="patch_18">
    <path d="M 214.359192 328.508566
Q 163.79965 363.900245 114.614002 398.330199
" style="fill: none; stroke: #004578; stroke-width: 1.5; stroke-linecap: round"/>
    <path d="M 119.037854 397.674813
L 114.614002 398.330199
L 116.744005 394.397886
" style="fill: none; stroke: #004578; stroke-width: 1.5; stroke-linecap: round"/>
   </g>
   <g id="patch_19">
    <path d="M 216 329.362742
Q 216 363.901413 216 396.763033
" style="fill: none; stroke: #004578; stroke-width: 1.5; stroke-linecap: round"/>
    <path d="M 218 392.763033
L 216 396.763033
L 214 392.763033
" style="fill: none; stroke: #004578; stroke-width: 1.5; stroke-linecap: round"/>
   </g>
   <g id="patch_20">
    <path d="M 217.640808 328.508566
Q 268.20035 363.900245 317.385998 398.330199
" style="fill: none; stroke: #004578; stroke-width: 1.5; stroke-linecap: round"/>
    <path d="M 315.255995 394.397886
L 317.385998 398.330199
L 312.962146 397.674813
" style="fill: none; stroke: #004578; stroke-width: 1.5; stroke-linecap: round"/>
   </g>
   <g id="text_8">
    <!-- Data -->
    <g style="fill: #004578" transform="translate(103.243203 527.212328) scale(0.07 -0.07)">
     <defs>
      <path id="DejaVuSans-44" d="M 1259 4147
L 1259 519
L 2022 519
Q 2988 519 3436 956
Q 3884 1394 3884 2338
Q 3884 3275 3436 3711
Q 2988 4147 2022 4147
L 1259 4147
z
M 628 4666
L 1925 4666
Q 3281 4666 3915 4102
Q 4550 3538 4550 2338
Q 4550 1131 3912 565
Q 3275 0 1925 0
L 628 0
L 628 4666
z
" transform="scale(0.015625)"/>
      <path id="DejaVuSans-61" d="M 2194 1759
Q 1497 1759 1228 1600
Q 959 1441 959 1056
Q 959 750 1161 570
Q 1363 391 1709 391
Q 2188 391 2477 730
Q 2766 1069 2766 1631
L 2766 1759
L 2194 1759
z
M 3341 1997
L 3341 0
L 2766 0
L 2766 531
Q 2569 213 2275 61
Q 1981 -91 1556 -91
Q 1019 -91 701 211
Q 384 513 384 1019
Q 384 1609 779 1909
Q 1175 2209 1959 2209
L 2766 2209
L 2766 2266
Q 2766 2663 2505 2880
Q 2244 3097 1772 3097
Q 1472 3097 1187 3025
Q 903 2953 641 2809
L 641 3341
Q 956 3463 1253 3523
Q 1550 3584 1831 3584
Q 2591 3584 2966 3190
Q 3341 2797 3341 1997
z
" transform="scale(0.015625)"/>
      <path id="DejaVuSans-74" d="M 1172 4494
L 1172 3500
L 2356 3500
L 2356 3053
L 1172 3053
L 1172 1153
Q 1172 725 1289 603
Q 1406 481 1766 481
L 2356 481
L 2356 0
L 1766 0
Q 1100 0 847 248
Q 594 497 594 1153
L 594 3053
L 172 3053
L 172 3500
L 594 3500
L 594 4494
L 1172 4494
z
" transform="scale(0.015625)"/>
     </defs>
     <use xlink:href="#DejaVuSans-44"/>
     <use xlink:href="#DejaVuSans-61" transform="translate(77.001953 0)"/>
     <use xlink:href="#DejaVuSans-74" transform="translate(138.28125 0)"/>
     <use xlink:href="#DejaVuSans-61" transform="translate(177.490234 0)"/>
    </g>
    <!-- Center -->
    <g style="fill: #004578" transform="translate(99.819766 535.050797) scale(0.07 -0.07)">
     <defs>
      <path id="DejaVuSans-43" d="M 4122 4306
L 4122 3641
Q 3803 3938 3442 4084
Q 3081 4231 2675 4231
Q 1875 4231 1450 3742
Q 1025 3253 1025 2328
Q 1025 1406 1450 917
Q 1875 428 2675 428
Q 3081 428 3442 575
Q 3803 722 4122 1019
L 4122 359
Q 3791 134 3420 21
Q 3050 -91 2638 -91
Q 1578 -91 968 557
Q 359 1206 359 2328
Q 359 3453 968 4101
Q 1578 4750 2638 4750
Q 3056 4750 3426 4639
Q 3797 4528 4122 4306
z
" transform="scale(0.015625)"/>
      <path id="DejaVuSans-65" d="M 3597 1894
L 3597 1613
L 953 1613
Q 991 1019 1311 708
Q 1631 397 2203 397
Q 2534 397 2845 478
Q 3156 559 3463 722
L 3463 178
Q 3153 47 2828 -22
Q 2503 -91 2169 -91
Q 1331 -91 842 396
Q 353 884 353 1716
Q 353 2575 817 3079
Q 1281 3584 2069 3584
Q 2775 3584 3186 3129
Q 3597 2675 3597 1894
z
M 3022 2063
Q 3016 2534 2758 2815
Q 2500 3097 2075 3097
Q 1594 3097 1305 2825
Q 1016 2553 972 2059
L 3022 2063
z
" transform="scale(0.015625)"/>
      <path id="DejaVuSans-6e" d="M 3513 2113
L 3513 0
L 2938 0
L 2938 2094
Q 2938 2591 2744 2837
Q 2550 3084 2163 3084
Q 1697 3084 1428 2787
Q 1159 2491 1159 1978
L 1159 0
L 581 0
L 581 3500
L 1159 3500
L 1159 2956
Q 1366 3272 1645 3428
Q 1925 3584 2291 3584
Q 2894 3584 3203 3211
Q 3513 2838 3513 2113
z
" transform="scale(0.015625)"/>
      <path id="DejaVuSans-72" d="M 2631 2963
Q 2534 3019 2420 3045
Q 2306 3072 2169 3072
Q 1681 3072 1420 2755
Q 1159 2438 1159 1844
L 1159 0
L 581 0
L 581 3500
L 1159 3500
L 1159 2956
Q 1341 3275 1631 3429
Q 1922 3584 2338 3584
Q 2397 3584 2469 3576
Q 2541 3569 2628 3553
L 2631 2963
z
" transform="scale(0.015625)"/>
     </defs>
     <use xlink:href="#DejaVuSans-43"/>
     <use xlink:href="#DejaVuSans-65" transform="translate(69.824219 0)"/>
     <use xlink:href="#DejaVuSans-6e" transform="translate(131.347656 0)"/>
     <use xlink:href="#DejaVuSans-74" transform="translate(194.726562 0)"/>
     <use xlink:href="#DejaVuSans-65" transform="translate(233.935547 0)"/>
     <use xlink:href="#DejaVuSans-72" transform="translate(295.458984 0)"/>
    </g>
   </g>
   <g id="patch_21">
    <path d="M 111.6 451.16168
Q 111.6 476.999941 111.6 501.720168
" style="fill: none; stroke: #004578; stroke-linecap: round"/>
    <path d="M 113.6 497.720168
L 111.6 501.720168
L 109.6 497.720168
" style="fill: none; stroke: #004578; stroke-linecap: round"/>
   </g>
   <g id="text_9">
    <!-- Data -->
    <g style="fill: #004578" transform="translate(207.643203 527.212328) scale(0.07 -0.07)">
     <use xlink:href="#DejaVuSans-44"/>
     <use xlink:href="#DejaVuSans-61" transform="translate(77.001953 0)"/>
     <use xlink:href="#DejaVuSans-74" transform="translate(138.28125 0)"/>
     <use xlink:href="#DejaVuSans-61" transform="translate(177.490234 0)"/>
    </g>
    <!-- Center -->
    <g style="fill: #004578" transform="translate(204.219766 535.050797) scale(0.07 -0.07)">
     <use xlink:href="#DejaVuSans-43"/>
     <use xlink:href="#DejaVuSans-65" transform="translate(69.824219 0)"/>
     <use xlink:href="#DejaVuSans-6e" transform="translate(131.347656 0)"/>
     <use xlink:href="#DejaVuSans-74" transform="translate(194.726562 0)"/>
     <use xlink:href="#DejaVuSans-65" transform="translate(233.935547 0)"/>
     <use xlink:href="#DejaVuSans-72" transform="translate(295.458984 0)"/>
    </g>
   </g>
   <g id="patch_22">
    <path d="M 216 451.16168
Q 216 476.999941 216 501.720168
" style="fill: none; stroke: #004578; stroke-linecap: round"/>
    <path d="M 218 497.720168
L 216 501.720168
L 214 497.720168
" style="fill: none; stroke: #004578; stroke-linecap: round"/>
   </g>
   <g id="text_10">
    <!-- Data -->
    <g style="fill: #004578" transform="translate(312.043203 527.212328) scale(0.07 -0.07)">
     <use xlink:href="#DejaVuSans-44"/>
     <use xlink:href="#DejaVuSans-61" transform="translate(77.001953 0)"/>
     <use xlink:href="#DejaVuSans-74" transform="translate(138.28125 0)"/>
     <use xlink:href="#DejaVuSans-61" transform="translate(177.490234 0)"/>
    </g>
    <!-- Center -->
    <g style="fill: #004578" transform="translate(308.619766 535.050797) scale(0.07 -0.07)">
     <use xlink:href="#DejaVuSans-43"/>
     <use xlink:href="#DejaVuSans-65" transform="translate(69.824219 0)"/>
     <use xlink:href="#DejaVuSans-6e" transform="translate(131.347656 0)"/>
     <use xlink:href="#DejaVuSans-74" transform="translate(194.726562 0)"/>
     <use xlink:href="#DejaVuSans-65" transform="translate(233.935547 0)"/>
     <use xlink:href="#DejaVuSans-72" transform="translate(295.458984 0)"/>
    </g>
   </g>
   <g id="patch_23">
    <path d="M 320.4 451.16168
Q 320.4 476.999941 320.4 501.720168
" style="fill: none; stroke: #004578; stroke-linecap: round"/>
    <path d="M 322.4 497.720168
L 320.4 501.720168
L 318.4 497.720168
" style="fill: none; stroke: #004578; stroke-linecap: round"/>
   </g>
   <g id="text_11">
    <!-- Geography -->
    <g style="fill: #004578" transform="translate(611.515 392.2075) scale(0.08 -0.08)">
     <defs>
      <path id="DejaVuSans-47" d="M 3809 666
L 3809 1919
L 2778 1919
L 2778 2438
L 4434 2438
L 4434 434
Q 4069 175 3628 42
Q 3188 -91 2688 -91
Q 1594 -91 976 548
Q 359 1188 359 2328
Q 359 3472 976 4111
Q 1594 4750 2688 4750
Q 3144 4750 3555 4637
Q 3966 4525 4313 4306
L 4313 3634
Q 3963 3931 3569 4081
Q 3175 4231 2741 4231
Q 1884 4231 1454 3753
Q 1025 3275 1025 2328
Q 1025 1384 1454 906
Q 1884 428 2741 428
Q 3075 428 3337 486
Q 3600 544 3809 666
z
" transform="scale(0.015625)"/>
      <path id="DejaVuSans-6f" d="M 1959 3097
Q 1497 3097 1228 2736
Q 959 2375 959 1747
Q 959 1119 1226 758
Q 1494 397 1959 397
Q 2419 397 2687 759
Q 2956 1122 2956 1747
Q 2956 2369 2687 2733
Q 2419 3097 1959 3097
z
M 1959 3584
Q 2709 3584 3137 3096
Q 3566 2609 3566 1747
Q 3566 888 3137 398
Q 2709 -91 1959 -91
Q 1206 -91 779 398
Q 353 888 353 1747
Q 353 2609 779 3096
Q 1206 3584 1959 3584
z
" transform="scale(0.015625)"/>
      <path id="DejaVuSans-67" d="M 2906 1791
Q 2906 2416 2648 2759
Q 2391 3103 1925 3103
Q 1463 3103 1205 2759
Q 947 2416 947 1791
Q 947 1169 1205 825
Q 1463 481 1925 481
Q 2391 481 2648 825
Q 2906 1169 2906 1791
z
M 3481 434
Q 3481 -459 3084 -895
Q 2688 -1331 1869 -1331
Q 1566 -1331 1297 -1286
Q 1028 -1241 775 -1147
L 775 -588
Q 1028 -725 1275 -790
Q 1522 -856 1778 -856
Q 2344 -856 2625 -561
Q 2906 -266 2906 331
L 2906 616
Q 2728 306 2450 153
Q 2172 0 1784 0
Q 1141 0 747 490
Q 353 981 353 1791
Q 353 2603 747 3093
Q 1141 3584 1784 3584
Q 2172 3584 2450 3431
Q 2728 3278 2906 2969
L 2906 3500
L 3481 3500
L 3481 434
z
" transform="scale(0.015625)"/>
      <path id="DejaVuSans-70" d="M 1159 525
L 1159 -1331
L 581 -1331
L 581 3500
L 1159 3500
L 1159 2969
Q 1341 3281 1617 3432
Q 1894 3584 2278 3584
Q 2916 3584 3314 3078
Q 3713 2572 3713 1747
Q 3713 922 3314 415
Q 2916 -91 2278 -91
Q 1894 -91 1617 61
Q 1341 213 1159 525
z
M 3116 1747
Q 3116 2381 2855 2742
Q 2594 3103 2138 3103
Q 1681 3103 1420 2742
Q 1159 2381 1159 1747
Q 1159 1113 1420 752
Q 1681 391 2138 391
Q 2594 391 2855 752
Q 3116 1113 3116 1747
z
" transform="scale(0.015625)"/>
      <path id="DejaVuSans-68" d="M 3513 2113
L 3513 0
L 2938 0
L 2938 2094
Q 2938 2591 2744 2837
Q 2550 3084 2163 3084
Q 1697 3084 1428 2787
Q 1159 2491 1159 1978
L 1159 0
L 581 0
L 581 4863
L 1159 4863
L 1159 2956
Q 1366 3272 1645 3428
Q 1925 3584 2291 3584
Q 2894 3584 3203 3211
Q 3513 2838 3513 2113
z
" transform="scale(0.015625)"/>
      <path id="DejaVuSans-79" d="M 2059 -325
Q 1816 -950 1584 -1140
Q 1353 -1331 966 -1331
L 506 -1331
L 506 -850
L 844 -850
Q 1081 -850 1212 -737
Q 1344 -625 1503 -206
L 1606 56
L 191 3500
L 800 3500
L 1894 763
L 2988 3500
L 3597 3500
L 2059 -325
z
" transform="scale(0.015625)"/>
     </defs>
     <use xlink:href="#DejaVuSans-47"/>
     <use xlink:href="#DejaVuSans-65" transform="translate(77.490234 0)"/>
     <use xlink:href="#DejaVuSans-6f" transform="translate(139.013672 0)"/>
     <use xlink:href="#DejaVuSans-67" transform="translate(200.195312 0)"/>
     <use xlink:href="#DejaVuSans-72" transform="translate(263.671875 0)"/>
     <use xlink:href="#DejaVuSans-61" transform="translate(304.785156 0)"/>
     <use xlink:href="#DejaVuSans-70" transform="translate(366.064453 0)"/>
     <use xlink:href="#DejaVuSans-68" transform="translate(429.541016 0)"/>
     <use xlink:href="#DejaVuSans-79" transform="translate(492.919922 0)"/>
    </g>
   </g>
   <g id="text_12">
    <!-- Regulatory boundary -->
    <g style="fill: #004578" transform="translate(738 392.2075) scale(0.08 -0.08)">
     <defs>
      <path id="DejaVuSans-52" d="M 2841 2188
Q 3044 2119 3236 1894
Q 3428 1669 3622 1275
L 4263 0
L 3584 0
L 2988 1197
Q 2756 1666 2539 1819
Q 2322 1972 1947 1972
L 1259 1972
L 1259 0
L 628 0
L 628 4666
L 2053 4666
Q 2853 4666 3247 4331
Q 3641 3997 3641 3322
Q 3641 2881 3436 2590
Q 3231 2300 2841 2188
z
M 1259 4147
L 1259 2491
L 2053 2491
Q 2509 2491 2742 2702
Q 2975 2913 2975 3322
Q 2975 3731 2742 3939
Q 2509 4147 2053 4147
L 1259 4147
z
" transform="scale(0.015625)"/>
      <path id="DejaVuSans-75" d="M 544 1381
L 544 3500
L 1119 3500
L 1119 1403
Q 1119 906 1312 657
Q 1506 409 1894 409
Q 2359 409 2629 706
Q 2900 1003 2900 1516
L 2900 3500
L 3475 3500
L 3475 0
L 2900 0
L 2900 538
Q 2691 219 2414 64
Q 2138 -91 1772 -91
Q 1169 -91 856 284
Q 544 659 544 1381
z
M 1991 3584
L 1991 3584
z
" transform="scale(0.015625)"/>
      <path id="DejaVuSans-6c" d="M 603 4863
L 1178 4863
L 1178 0
L 603 0
L 603 4863
z
" transform="scale(0.015625)"/>
      <path id="DejaVuSans-20" transform="scale(0.015625)"/>
      <path id="DejaVuSans-62" d="M 3116 1747
Q 3116 2381 2855 2742
Q 2594 3103 2138 3103
Q 1681 3103 1420 2742
Q 1159 2381 1159 1747
Q 1159 1113 1420 752
Q 1681 391 2138 391
Q 2594 391 2855 752
Q 3116 1113 3116 1747
z
M 1159 2969
Q 1341 3281 1617 3432
Q 1894 3584 2278 3584
Q 2916 3584 3314 3078
Q 3713 2572 3713 1747
Q 3713 922 3314 415
Q 2916 -91 2278 -91
Q 1894 -91 1617 61
Q 1341 213 1159 525
L 1159 0
L 581 0
L 581 4863
L 1159 4863
L 1159 2969
z
" transform="scale(0.015625)"/>
      <path id="DejaVuSans-64" d="M 2906 2969
L 2906 4863
L 3481 4863
L 3481 0
L 2906 0
L 2906 525
Q 2725 213 2448 61
Q 2172 -91 1784 -91
Q 1150 -91 751 415
Q 353 922 353 1747
Q 353 2572 751 3078
Q 1150 3584 1784 3584
Q 2172 3584 2448 3432
Q 2725 3281 2906 2969
z
M 947 1747
Q 947 1113 1208 752
Q 1469 391 1925 391
Q 2381 391 2643 752
Q 2906 1113 2906 1747
Q 2906 2381 2643 2742
Q 2381 3103 1925 3103
Q 1469 3103 1208 2742
Q 947 2381 947 1747
z
" transform="scale(0.015625)"/>
     </defs>
     <use xlink:href="#DejaVuSans-52"/>
     <use xlink:href="#DejaVuSans-65" transform="translate(64.982422 0)"/>
     <use xlink:href="#DejaVuSans-67" transform="translate(126.505859 0)"/>
     <use xlink:href="#DejaVuSans-75" transform="translate(189.982422 0)"/>
     <use xlink:href="#DejaVuSans-6c" transform="translate(253.361328 0)"/>
     <use xlink:href="#DejaVuSans-61" transform="translate(281.144531 0)"/>
     <use xlink:href="#DejaVuSans-74" transform="translate(342.423828 0)"/>
     <use xlink:href="#DejaVuSans-6f" transform="translate(381.632812 0)"/>
     <use xlink:href="#DejaVuSans-72" transform="translate(442.814453 0)"/>
     <use xlink:href="#DejaVuSans-79" transform="translate(483.927734 0)"/>
     <use xlink:href="#DejaVuSans-20" transform="translate(543.107422 0)"/>
     <use xlink:href="#DejaVuSans-62" transform="translate(574.894531 0)"/>
     <use xlink:href="#DejaVuSans-6f" transform="translate(638.371094 0)"/>
     <use xlink:href="#DejaVuSans-75" transform="translate(699.552734 0)"/>
     <use xlink:href="#DejaVuSans-6e" transform="translate(762.931641 0)"/>
     <use xlink:href="#DejaVuSans-64" transform="translate(826.310547 0)"/>
     <use xlink:href="#DejaVuSans-61" transform="translate(889.787109 0)"/>
     <use xlink:href="#DejaVuSans-72" transform="translate(951.066406 0)"/>
     <use xlink:href="#DejaVuSans-79" transform="translate(992.179688 0)"/>
    </g>
   </g>
   <g id="text_13">
    <!-- Region -->
    <g style="fill: #004578" transform="translate(619.90625 447.8875) scale(0.08 -0.08)">
     <defs>
      <path id="DejaVuSans-69" d="M 603 3500
L 1178 3500
L 1178 0
L 603 0
L 603 3500
z
M 603 4863
L 1178 4863
L 1178 4134
L 603 4134
L 603 4863
z
" transform="scale(0.015625)"/>
     </defs>
     <use xlink:href="#DejaVuSans-52"/>
     <use xlink:href="#DejaVuSans-65" transform="translate(64.982422 0)"/>
     <use xlink:href="#DejaVuSans-67" transform="translate(126.505859 0)"/>
     <use xlink:href="#DejaVuSans-69" transform="translate(189.982422 0)"/>
     <use xlink:href="#DejaVuSans-6f" transform="translate(217.765625 0)"/>
     <use xlink:href="#DejaVuSans-6e" transform="translate(278.947266 0)"/>
    </g>
   </g>
   <g id="text_14">
    <!-- Data center cluster -->
    <g style="fill: #004578" transform="translate(738 447.8875) scale(0.08 -0.08)">
     <defs>
      <path id="DejaVuSans-63" d="M 3122 3366
L 3122 2828
Q 2878 2963 2633 3030
Q 2388 3097 2138 3097
Q 1578 3097 1268 2742
Q 959 2388 959 1747
Q 959 1106 1268 751
Q 1578 397 2138 397
Q 2388 397 2633 464
Q 2878 531 3122 666
L 3122 134
Q 2881 22 2623 -34
Q 2366 -91 2075 -91
Q 1284 -91 818 406
Q 353 903 353 1747
Q 353 2603 823 3093
Q 1294 3584 2113 3584
Q 2378 3584 2631 3529
Q 2884 3475 3122 3366
z
" transform="scale(0.015625)"/>
      <path id="DejaVuSans-73" d="M 2834 3397
L 2834 2853
Q 2591 2978 2328 3040
Q 2066 3103 1784 3103
Q 1356 3103 1142 2972
Q 928 2841 928 2578
Q 928 2378 1081 2264
Q 1234 2150 1697 2047
L 1894 2003
Q 2506 1872 2764 1633
Q 3022 1394 3022 966
Q 3022 478 2636 193
Q 2250 -91 1575 -91
Q 1294 -91 989 -36
Q 684 19 347 128
L 347 722
Q 666 556 975 473
Q 1284 391 1588 391
Q 1994 391 2212 530
Q 2431 669 2431 922
Q 2431 1156 2273 1281
Q 2116 1406 1581 1522
L 1381 1569
Q 847 1681 609 1914
Q 372 2147 372 2553
Q 372 3047 722 3315
Q 1072 3584 1716 3584
Q 2034 3584 2315 3537
Q 2597 3491 2834 3397
z
" transform="scale(0.015625)"/>
     </defs>
     <use xlink:href="#DejaVuSans-44"/>
     <use xlink:href="#DejaVuSans-61" transform="translate(77.001953 0)"/>
     <use xlink:href="#DejaVuSans-74" transform="translate(138.28125 0)"/>
     <use xlink:href="#DejaVuSans-61" transform="translate(177.490234 0)"/>
     <use xlink:href="#DejaVuSans-20" transform="translate(238.769531 0)"/>
     <use xlink:href="#DejaVuSans-63" transform="translate(270.556641 0)"/>
     <use xlink:href="#DejaVuSans-65" transform="translate(325.537109 0)"/>
     <use xlink:href="#DejaVuSans-6e" transform="translate(387.060547 0)"/>
     <use xlink:href="#DejaVuSans-74" transform="translate(450.439453 0)"/>
     <use xlink:href="#DejaVuSans-65" transform="translate(489.648438 0)"/>
     <use xlink:href="#DejaVuSans-72" transform="translate(551.171875 0)"/>
     <use xlink:href="#DejaVuSans-20" transform="translate(592.285156 0)"/>
     <use xlink:href="#DejaVuSans-63" transform="translate(624.072266 0)"/>
     <use xlink:href="#DejaVuSans-6c" transform="translate(679.052734 0)"/>
     <use xlink:href="#DejaVuSans-75" transform="translate(706.835938 0)"/>
     <use xlink:href="#DejaVuSans-73" transform="translate(770.214844 0)"/>
     <use xlink:href="#DejaVuSans-74" transform="translate(822.314453 0)"/>
     <use xlink:href="#DejaVuSans-65" transform="translate(861.523438 0)"/>
     <use xlink:href="#DejaVuSans-72" transform="translate(923.046875 0)"/>
    </g>
   </g>
   <g id="text_15">
    <!-- Avail Zone -->
    <g style="fill: #004578" transform="translate(612.6025 503.5675) scale(0.08 -0.08)">
     <defs>
      <path id="DejaVuSans-41" d="M 2188 4044
L 1331 1722
L 3047 1722
L 2188 4044
z
M 1831 4666
L 2547 4666
L 4325 0
L 3669 0
L 3244 1197
L 1141 1197
L 716 0
L 50 0
L 1831 4666
z
" transform="scale(0.015625)"/>
      <path id="DejaVuSans-76" d="M 191 3500
L 800 3500
L 1894 563
L 2988 3500
L 3597 3500
L 2284 0
L 1503 0
L 191 3500
z
" transform="scale(0.015625)"/>
      <path id="DejaVuSans-5a" d="M 359 4666
L 4025 4666
L 4025 4184
L 1075 531
L 4097 531
L 4097 0
L 288 0
L 288 481
L 3238 4134
L 359 4134
L 359 4666
z
" transform="scale(0.015625)"/>
     </defs>
     <use xlink:href="#DejaVuSans-41"/>
     <use xlink:href="#DejaVuSans-76" transform="translate(62.533203 0)"/>
     <use xlink:href="#DejaVuSans-61" transform="translate(121.712891 0)"/>
     <use xlink:href="#DejaVuSans-69" transform="translate(182.992188 0)"/>
     <use xlink:href="#DejaVuSans-6c" transform="translate(210.775391 0)"/>
     <use xlink:href="#DejaVuSans-20" transform="translate(238.558594 0)"/>
     <use xlink:href="#DejaVuSans-5a" transform="translate(270.345703 0)"/>
     <use xlink:href="#DejaVuSans-6f" transform="translate(338.851562 0)"/>
     <use xlink:href="#DejaVuSans-6e" transform="translate(400.033203 0)"/>
     <use xlink:href="#DejaVuSans-65" transform="translate(463.412109 0)"/>
    </g>
   </g>
   <g id="text_16">
    <!-- Fault isolation -->
    <g style="fill: #004578" transform="translate(738 503.5675) scale(0.08 -0.08)">
     <defs>
      <path id="DejaVuSans-46" d="M 628 4666
L 3309 4666
L 3309 4134
L 1259 4134
L 1259 2759
L 3109 2759
L 3109 2228
L 1259 2228
L 1259 0
L 628 0
L 628 4666
z
" transform="scale(0.015625)"/>
     </defs>
     <use xlink:href="#DejaVuSans-46"/>
     <use xlink:href="#DejaVuSans-61" transform="translate(48.394531 0)"/>
     <use xlink:href="#DejaVuSans-75" transform="translate(109.673828 0)"/>
     <use xlink:href="#DejaVuSans-6c" transform="translate(173.052734 0)"/>
     <use xlink:href="#DejaVuSans-74" transform="translate(200.835938 0)"/>
     <use xlink:href="#DejaVuSans-20" transform="translate(240.044922 0)"/>
     <use xlink:href="#DejaVuSans-69" transform="translate(271.832031 0)"/>
     <use xlink:href="#DejaVuSans-73" transform="translate(299.615234 0)"/>
     <use xlink:href="#DejaVuSans-6f" transform="translate(351.714844 0)"/>
     <use xlink:href="#DejaVuSans-6c" transform="translate(412.896484 0)"/>
     <use xlink:href="#DejaVuSans-61" transform="translate(440.679688 0)"/>
     <use xlink:href="#DejaVuSans-74" transform="translate(501.958984 0)"/>
     <use xlink:href="#DejaVuSans-69" transform="translate(541.167969 0)"/>
     <use xlink:href="#DejaVuSans-6f" transform="translate(568.951172 0)"/>
     <use xlink:href="#DejaVuSans-6e" transform="translate(630.132812 0)"/>
    </g>
   </g>
   <g id="text_17">
    <!-- Data Center -->
    <g style="fill: #004578" transform="translate(609.315 559.2475) scale(0.08 -0.08)">
     <use xlink:href="#DejaVuSans-44"/>
     <use xlink:href="#DejaVuSans-61" transform="translate(77.001953 0)"/>
     <use xlink:href="#DejaVuSans-74" transform="translate(138.28125 0)"/>
     <use xlink:href="#DejaVuSans-61" transform="translate(177.490234 0)"/>
     <use xlink:href="#DejaVuSans-20" transform="translate(238.769531 0)"/>
     <use xlink:href="#DejaVuSans-43" transform="translate(270.556641 0)"/>
     <use xlink:href="#DejaVuSans-65" transform="translate(340.380859 0)"/>
     <use xlink:href="#DejaVuSans-6e" transform="translate(401.904297 0)"/>
     <use xlink:href="#DejaVuSans-74" transform="translate(465.283203 0)"/>
     <use xlink:href="#DejaVuSans-65" transform="translate(504.492188 0)"/>
     <use xlink:href="#DejaVuSans-72" transform="translate(566.015625 0)"/>
    </g>
   </g>
   <g id="text_18">
    <!-- Physical facility -->
    <g style="fill: #004578" transform="translate(738 559.2475) scale(0.08 -0.08)">
     <defs>
      <path id="DejaVuSans-50" d="M 1259 4147
L 1259 2394
L 2053 2394
Q 2494 2394 2734 2622
Q 2975 2850 2975 3272
Q 2975 3691 2734 3919
Q 2494 4147 2053 4147
L 1259 4147
z
M 628 4666
L 2053 4666
Q 2838 4666 3239 4311
Q 3641 3956 3641 3272
Q 3641 2581 3239 2228
Q 2838 1875 2053 1875
L 1259 1875
L 1259 0
L 628 0
L 628 4666
z
" transform="scale(0.015625)"/>
      <path id="DejaVuSans-66" d="M 2375 4863
L 2375 4384
L 1825 4384
Q 1516 4384 1395 4259
Q 1275 4134 1275 3809
L 1275 3500
L 2222 3500
L 2222 3053
L 1275 3053
L 1275 0
L 697 0
L 697 3053
L 147 3053
L 147 3500
L 697 3500
L 697 3744
Q 697 4328 969 4595
Q 1241 4863 1831 4863
L 2375 4863
z
" transform="scale(0.015625)"/>
     </defs>
     <use xlink:href="#DejaVuSans-50"/>
     <use xlink:href="#DejaVuSans-68" transform="translate(60.302734 0)"/>
     <use xlink:href="#DejaVuSans-79" transform="translate(123.681641 0)"/>
     <use xlink:href="#DejaVuSans-73" transform="translate(182.861328 0)"/>
     <use xlink:href="#DejaVuSans-69" transform="translate(234.960938 0)"/>
     <use xlink:href="#DejaVuSans-63" transform="translate(262.744141 0)"/>
     <use xlink:href="#DejaVuSans-61" transform="translate(317.724609 0)"/>
     <use xlink:href="#DejaVuSans-6c" transform="translate(379.003906 0)"/>
     <use xlink:href="#DejaVuSans-20" transform="translate(406.787109 0)"/>
     <use xlink:href="#DejaVuSans-66" transform="translate(438.574219 0)"/>
     <use xlink:href="#DejaVuSans-61" transform="translate(473.779297 0)"/>
     <use xlink:href="#DejaVuSans-63" transform="translate(535.058594 0)"/>
     <use xlink:href="#DejaVuSans-69" transform="translate(590.039062 0)"/>
     <use xlink:href="#DejaVuSans-6c" transform="translate(617.822266 0)"/>
     <use xlink:href="#DejaVuSans-69" transform="translate(645.605469 0)"/>
     <use xlink:href="#DejaVuSans-74" transform="translate(673.388672 0)"/>
     <use xlink:href="#DejaVuSans-79" transform="translate(712.597656 0)"/>
    </g>
   </g>
  </g>
 </g>
 <defs>
  <clipPath id="p6b9bb944de">
   <rect x="7.2" y="7.2" width="835.2" height="626.4"/>
  </clipPath>
 </defs>
</svg>
