<?xml version="1.0" encoding="utf-8" standalone="no"?>
<!DOCTYPE svg PUBLIC "-//W3C//DTD SVG 1.1//EN"
  "http://www.w3.org/Graphics/SVG/1.1/DTD/svg11.dtd">
<svg xmlns:xlink="http://www.w3.org/1999/xlink" width="992.16pt" height="712.8pt" viewBox="0 0 992.16 712.8" xmlns="http://www.w3.org/2000/svg" version="1.1">
 <metadata>
  <rdf:RDF xmlns:dc="http://purl.org/dc/elements/1.1/" xmlns:cc="http://creativecommons.org/ns#" xmlns:rdf="http://www.w3.org/1999/02/22-rdf-syntax-ns#">
   <cc:Work>
    <dc:type rdf:resource="http://purl.org/dc/dcmitype/StillImage"/>
    <dc:date>2025-11-27T19:32:38.840677</dc:date>
    <dc:format>image/svg+xml</dc:format>
    <dc:creator>
     <cc:Agent>
      <dc:title>Matplotlib v3.10.7, https://matplotlib.org/</dc:title>
     </cc:Agent>
    </dc:creator>
   </cc:Work>
  </rdf:RDF>
 </metadata>
 <defs>
  <style type="text/css">*{stroke-linejoin: round; stroke-linecap: butt}</style>
 </defs>
 <g id="figure_1">
  <g id="patch_1">
   <path d="M 0 712.8
L 992.16 712.8
L 992.16 0
L 0 0
z
" style="fill: #ffffff"/>
  </g>
  <g id="axes_1">
   <g id="patch_2">
    <path d="M 42.12 328.464
L 321.48 328.464
Q 328.464 328.464 328.464 321.48
L 328.464 77.04
Q 328.464 70.056 321.48 70.056
L 42.12 70.056
Q 35.136 70.056 35.136 77.04
L 35.136 321.48
Q 35.136 328.464 42.12 328.464
z
" clip-path="url(#p2e6d3375ed)" style="fill: #e8f4fd; stroke: #0078d4; stroke-width: 2; stroke-linejoin: miter"/>
   </g>
   <g id="patch_3">
    <path d="M 77.04 204.1488
L 118.944 204.1488
Q 120.3408 204.1488 120.3408 202.752
L 120.3408 160.848
Q 120.3408 159.4512 118.944 159.4512
L 77.04 159.4512
Q 75.6432 159.4512 75.6432 160.848
L 75.6432 202.752
Q 75.6432 204.1488 77.04 204.1488
z
" clip-path="url(#p2e6d3375ed)" style="fill: #ffffff; stroke: #0078d4; stroke-width: 1.5; stroke-linejoin: miter"/>
   </g>
   <g id="patch_4">
    <path d="M 150.372 249.5448
L 213.228 249.5448
Q 214.6248 249.5448 214.6248 248.148
L 214.6248 185.292
Q 214.6248 183.8952 213.228 183.8952
L 150.372 183.8952
Q 148.9752 183.8952 148.9752 185.292
L 148.9752 248.148
Q 148.9752 249.5448 150.372 249.5448
z
" clip-path="url(#p2e6d3375ed)" style="fill: #ffffff; stroke: #0078d4; stroke-width: 1.5; stroke-linejoin: miter"/>
   </g>
   <g id="patch_5">
    <path d="M 223.704 308.9088
L 307.512 308.9088
Q 308.9088 308.9088 308.9088 307.512
L 308.9088 223.704
Q 308.9088 222.3072 307.512 222.3072
L 223.704 222.3072
Q 222.3072 222.3072 222.3072 223.704
L 222.3072 307.512
Q 222.3072 308.9088 223.704 308.9088
z
" clip-path="url(#p2e6d3375ed)" style="fill: #ffffff; stroke: #0078d4; stroke-width: 1.5; stroke-linejoin: miter"/>
   </g>
   <g id="patch_6">
    <path d="M 356.4 328.464
L 670.68 328.464
Q 677.664 328.464 677.664 321.48
L 677.664 77.04
Q 677.664 70.056 670.68 70.056
L 356.4 70.056
Q 349.416 70.056 349.416 77.04
L 349.416 321.48
Q 349.416 328.464 356.4 328.464
z
" clip-path="url(#p2e6d3375ed)" style="fill: #fff4e6; stroke: #ff8c00; stroke-width: 2; stroke-linejoin: miter"/>
   </g>
   <g id="patch_7">
    <path d="M 461.16 183.1968
L 565.92 183.1968
Q 567.3168 183.1968 567.3168 181.8
L 567.3168 139.896
Q 567.3168 138.4992 565.92 138.4992
L 461.16 138.4992
Q 459.7632 138.4992 459.7632 139.896
L 459.7632 181.8
Q 459.7632 183.1968 461.16 183.1968
z
" clip-path="url(#p2e6d3375ed)" style="fill: #ff8c00; stroke: #004578; stroke-width: 1.5; stroke-linejoin: miter"/>
   </g>
   <g id="patch_8">
    <path d="M 391.32 287.9568
L 447.192 287.9568
Q 448.5888 287.9568 448.5888 286.56
L 448.5888 230.688
Q 448.5888 229.2912 447.192 229.2912
L 391.32 229.2912
Q 389.9232 229.2912 389.9232 230.688
L 389.9232 286.56
Q 389.9232 287.9568 391.32 287.9568
z
" clip-path="url(#p2e6d3375ed)" style="fill: #ffffff; stroke: #ff8c00; stroke-width: 1.5; stroke-linejoin: miter"/>
   </g>
   <g id="patch_9">
    <path d="M 461.16 287.9568
L 517.032 287.9568
Q 518.4288 287.9568 518.4288 286.56
L 518.4288 230.688
Q 518.4288 229.2912 517.032 229.2912
L 461.16 229.2912
Q 459.7632 229.2912 459.7632 230.688
L 459.7632 286.56
Q 459.7632 287.9568 461.16 287.9568
z
" clip-path="url(#p2e6d3375ed)" style="fill: #ffffff; stroke: #ff8c00; stroke-width: 1.5; stroke-linejoin: miter"/>
   </g>
   <g id="patch_10">
    <path d="M 531 287.9568
L 586.872 287.9568
Q 588.2688 287.9568 588.2688 286.56
L 588.2688 230.688
Q 588.2688 229.2912 586.872 229.2912
L 531 229.2912
Q 529.6032 229.2912 529.6032 230.688
L 529.6032 286.56
Q 529.6032 287.9568 531 287.9568
z
" clip-path="url(#p2e6d3375ed)" style="fill: #ffffff; stroke: #ff8c00; stroke-width: 1.5; stroke-linejoin: miter"/>
   </g>
   <g id="patch_11">
    <path d="M 600.84 287.9568
L 656.712 287.9568
Q 658.1088 287.9568 658.1088 286.56
L 658.1088 230.688
Q 658.1088 229.2912 656.712 229.2912
L 600.84 229.2912
Q 599.4432 229.2912 599.4432 230.688
L 599.4432 286.56
Q 599.4432 287.9568 600.84 287.9568
z
" clip-path="url(#p2e6d3375ed)" style="fill: #ffffff; stroke: #ff8c00; stroke-width: 1.5; stroke-linejoin: miter"/>
   </g>
   <g id="patch_12">
    <path d="M 705.6 328.464
L 950.04 328.464
Q 957.024 328.464 957.024 321.48
L 957.024 77.04
Q 957.024 70.056 950.04 70.056
L 705.6 70.056
Q 698.616 70.056 698.616 77.04
L 698.616 321.48
Q 698.616 328.464 705.6 328.464
z
" clip-path="url(#p2e6d3375ed)" style="fill: #d4e9d7; stroke: #107c10; stroke-width: 2; stroke-linejoin: miter"/>
   </g>
   <g id="patch_13">
    <path d="M 705.6 207.6408
L 775.44 207.6408
Q 776.8368 207.6408 776.8368 206.244
L 776.8368 157.356
Q 776.8368 155.9592 775.44 155.9592
L 705.6 155.9592
Q 704.2032 155.9592 704.2032 157.356
L 704.2032 206.244
Q 704.2032 207.6408 705.6 207.6408
z
" clip-path="url(#p2e6d3375ed)" style="fill: #ffffff; stroke: #107c10; stroke-width: 1.5; stroke-linejoin: miter"/>
   </g>
   <g id="patch_14">
    <path d="M 792.9 263.5128
L 862.74 263.5128
Q 864.1368 263.5128 864.1368 262.116
L 864.1368 213.228
Q 864.1368 211.8312 862.74 211.8312
L 792.9 211.8312
Q 791.5032 211.8312 791.5032 213.228
L 791.5032 262.116
Q 791.5032 263.5128 792.9 263.5128
z
" clip-path="url(#p2e6d3375ed)" style="fill: #ffffff; stroke: #107c10; stroke-width: 1.5; stroke-linejoin: miter"/>
   </g>
   <g id="patch_15">
    <path d="M 880.2 207.6408
L 950.04 207.6408
Q 951.4368 207.6408 951.4368 206.244
L 951.4368 157.356
Q 951.4368 155.9592 950.04 155.9592
L 880.2 155.9592
Q 878.8032 155.9592 878.8032 157.356
L 878.8032 206.244
Q 878.8032 207.6408 880.2 207.6408
z
" clip-path="url(#p2e6d3375ed)" style="fill: #ffffff; stroke: #107c10; stroke-width: 1.5; stroke-linejoin: miter"/>
   </g>
   <g id="patch_16">
    <path d="M 42.12 677.664
L 950.04 677.664
Q 957.024 677.664 957.024 670.68
L 957.024 356.4
Q 957.024 349.416 950.04 349.416
L 42.12 349.416
Q 35.136 349.416 35.136 356.4
L 35.136 670.68
Q 35.136 677.664 42.12 677.664
z
" clip-path="url(#p2e6d3375ed)" style="fill: #f5f5f5; stroke: #004578; stroke-linejoin: miter"/>
   </g>
   <g id="line2d_1">
    <path d="M 513.54 181.8
L 419.256 230.688
" clip-path="url(#p2e6d3375ed)" style="fill: none; stroke: #000000; stroke-opacity: 0.5; stroke-linecap: square"/>
   </g>
   <g id="line2d_2">
    <path d="M 513.54 181.8
L 489.096 230.688
" clip-path="url(#p2e6d3375ed)" style="fill: none; stroke: #000000; stroke-opacity: 0.5; stroke-linecap: square"/>
   </g>
   <g id="line2d_3">
    <path d="M 513.54 181.8
L 558.936 230.688
" clip-path="url(#p2e6d3375ed)" style="fill: none; stroke: #000000; stroke-opacity: 0.5; stroke-linecap: square"/>
   </g>
   <g id="line2d_4">
    <path d="M 513.54 181.8
L 628.776 230.688
" clip-path="url(#p2e6d3375ed)" style="fill: none; stroke: #000000; stroke-opacity: 0.5; stroke-linecap: square"/>
   </g>
   <g id="text_1">
    <!-- [Cloud] Cloud Scaling Patterns -->
    <g style="fill: #004578" transform="translate(358.01375 42.12) scale(0.16 -0.16)">
     <defs>
      <path id="DejaVuSans-Bold-5b" d="M 550 4863
L 2491 4863
L 2491 4159
L 1613 4159
L 1613 -141
L 2491 -141
L 2491 -844
L 550 -844
L 550 4863
z
" transform="scale(0.015625)"/>
      <path id="DejaVuSans-Bold-43" d="M 4288 256
Q 3956 84 3597 -3
Q 3238 -91 2847 -91
Q 1681 -91 1000 561
Q 319 1213 319 2328
Q 319 3447 1000 4098
Q 1681 4750 2847 4750
Q 3238 4750 3597 4662
Q 3956 4575 4288 4403
L 4288 3438
Q 3953 3666 3628 3772
Q 3303 3878 2944 3878
Q 2300 3878 1931 3465
Q 1563 3053 1563 2328
Q 1563 1606 1931 1193
Q 2300 781 2944 781
Q 3303 781 3628 887
Q 3953 994 4288 1222
L 4288 256
z
" transform="scale(0.015625)"/>
      <path id="DejaVuSans-Bold-6c" d="M 538 4863
L 1656 4863
L 1656 0
L 538 0
L 538 4863
z
" transform="scale(0.015625)"/>
      <path id="DejaVuSans-Bold-6f" d="M 2203 2784
Q 1831 2784 1636 2517
Q 1441 2250 1441 1747
Q 1441 1244 1636 976
Q 1831 709 2203 709
Q 2569 709 2762 976
Q 2956 1244 2956 1747
Q 2956 2250 2762 2517
Q 2569 2784 2203 2784
z
M 2203 3584
Q 3106 3584 3614 3096
Q 4122 2609 4122 1747
Q 4122 884 3614 396
Q 3106 -91 2203 -91
Q 1297 -91 786 396
Q 275 884 275 1747
Q 275 2609 786 3096
Q 1297 3584 2203 3584
z
" transform="scale(0.015625)"/>
      <path id="DejaVuSans-Bold-75" d="M 500 1363
L 500 3500
L 1625 3500
L 1625 3150
Q 1625 2866 1622 2436
Q 1619 2006 1619 1863
Q 1619 1441 1641 1255
Q 1663 1069 1716 984
Q 1784 875 1895 815
Q 2006 756 2150 756
Q 2500 756 2700 1025
Q 2900 1294 2900 1772
L 2900 3500
L 4019 3500
L 4019 0
L 2900 0
L 2900 506
Q 2647 200 2364 54
Q 2081 -91 1741 -91
Q 1134 -91 817 281
Q 500 653 500 1363
z
" transform="scale(0.015625)"/>
      <path id="DejaVuSans-Bold-64" d="M 2919 2988
L 2919 4863
L 4044 4863
L 4044 0
L 2919 0
L 2919 506
Q 2688 197 2409 53
Q 2131 -91 1766 -91
Q 1119 -91 703 423
Q 288 938 288 1747
Q 288 2556 703 3070
Q 1119 3584 1766 3584
Q 2128 3584 2408 3439
Q 2688 3294 2919 2988
z
M 2181 722
Q 2541 722 2730 984
Q 2919 1247 2919 1747
Q 2919 2247 2730 2509
Q 2541 2772 2181 2772
Q 1825 2772 1636 2509
Q 1447 2247 1447 1747
Q 1447 1247 1636 984
Q 1825 722 2181 722
z
" transform="scale(0.015625)"/>
      <path id="DejaVuSans-Bold-5d" d="M 2375 -844
L 434 -844
L 434 -141
L 1313 -141
L 1313 4159
L 434 4159
L 434 4863
L 2375 4863
L 2375 -844
z
" transform="scale(0.015625)"/>
      <path id="DejaVuSans-Bold-20" transform="scale(0.015625)"/>
      <path id="DejaVuSans-Bold-53" d="M 3834 4519
L 3834 3531
Q 3450 3703 3084 3790
Q 2719 3878 2394 3878
Q 1963 3878 1756 3759
Q 1550 3641 1550 3391
Q 1550 3203 1689 3098
Q 1828 2994 2194 2919
L 2706 2816
Q 3484 2659 3812 2340
Q 4141 2022 4141 1434
Q 4141 663 3683 286
Q 3225 -91 2284 -91
Q 1841 -91 1394 -6
Q 947 78 500 244
L 500 1259
Q 947 1022 1364 901
Q 1781 781 2169 781
Q 2563 781 2772 912
Q 2981 1044 2981 1288
Q 2981 1506 2839 1625
Q 2697 1744 2272 1838
L 1806 1941
Q 1106 2091 782 2419
Q 459 2747 459 3303
Q 459 4000 909 4375
Q 1359 4750 2203 4750
Q 2588 4750 2994 4692
Q 3400 4634 3834 4519
z
" transform="scale(0.015625)"/>
      <path id="DejaVuSans-Bold-63" d="M 3366 3391
L 3366 2478
Q 3138 2634 2908 2709
Q 2678 2784 2431 2784
Q 1963 2784 1702 2511
Q 1441 2238 1441 1747
Q 1441 1256 1702 982
Q 1963 709 2431 709
Q 2694 709 2930 787
Q 3166 866 3366 1019
L 3366 103
Q 3103 6 2833 -42
Q 2563 -91 2291 -91
Q 1344 -91 809 395
Q 275 881 275 1747
Q 275 2613 809 3098
Q 1344 3584 2291 3584
Q 2566 3584 2833 3536
Q 3100 3488 3366 3391
z
" transform="scale(0.015625)"/>
      <path id="DejaVuSans-Bold-61" d="M 2106 1575
Q 1756 1575 1579 1456
Q 1403 1338 1403 1106
Q 1403 894 1545 773
Q 1688 653 1941 653
Q 2256 653 2472 879
Q 2688 1106 2688 1447
L 2688 1575
L 2106 1575
z
M 3816 1997
L 3816 0
L 2688 0
L 2688 519
Q 2463 200 2181 54
Q 1900 -91 1497 -91
Q 953 -91 614 226
Q 275 544 275 1050
Q 275 1666 698 1953
Q 1122 2241 2028 2241
L 2688 2241
L 2688 2328
Q 2688 2594 2478 2717
Q 2269 2841 1825 2841
Q 1466 2841 1156 2769
Q 847 2697 581 2553
L 581 3406
Q 941 3494 1303 3539
Q 1666 3584 2028 3584
Q 2975 3584 3395 3211
Q 3816 2838 3816 1997
z
" transform="scale(0.015625)"/>
      <path id="DejaVuSans-Bold-69" d="M 538 3500
L 1656 3500
L 1656 0
L 538 0
L 538 3500
z
M 538 4863
L 1656 4863
L 1656 3950
L 538 3950
L 538 4863
z
" transform="scale(0.015625)"/>
      <path id="DejaVuSans-Bold-6e" d="M 4056 2131
L 4056 0
L 2931 0
L 2931 347
L 2931 1631
Q 2931 2084 2911 2256
Q 2891 2428 2841 2509
Q 2775 2619 2662 2680
Q 2550 2741 2406 2741
Q 2056 2741 1856 2470
Q 1656 2200 1656 1722
L 1656 0
L 538 0
L 538 3500
L 1656 3500
L 1656 2988
Q 1909 3294 2193 3439
Q 2478 3584 2822 3584
Q 3428 3584 3742 3212
Q 4056 2841 4056 2131
z
" transform="scale(0.015625)"/>
      <path id="DejaVuSans-Bold-67" d="M 2919 594
Q 2688 288 2409 144
Q 2131 0 1766 0
Q 1125 0 706 504
Q 288 1009 288 1791
Q 288 2575 706 3076
Q 1125 3578 1766 3578
Q 2131 3578 2409 3434
Q 2688 3291 2919 2981
L 2919 3500
L 4044 3500
L 4044 353
Q 4044 -491 3511 -936
Q 2978 -1381 1966 -1381
Q 1638 -1381 1331 -1331
Q 1025 -1281 716 -1178
L 716 -306
Q 1009 -475 1290 -558
Q 1572 -641 1856 -641
Q 2406 -641 2662 -400
Q 2919 -159 2919 353
L 2919 594
z
M 2181 2772
Q 1834 2772 1640 2515
Q 1447 2259 1447 1791
Q 1447 1309 1634 1061
Q 1822 813 2181 813
Q 2531 813 2725 1069
Q 2919 1325 2919 1791
Q 2919 2259 2725 2515
Q 2531 2772 2181 2772
z
" transform="scale(0.015625)"/>
      <path id="DejaVuSans-Bold-50" d="M 588 4666
L 2584 4666
Q 3475 4666 3951 4270
Q 4428 3875 4428 3144
Q 4428 2409 3951 2014
Q 3475 1619 2584 1619
L 1791 1619
L 1791 0
L 588 0
L 588 4666
z
M 1791 3794
L 1791 2491
L 2456 2491
Q 2806 2491 2997 2661
Q 3188 2831 3188 3144
Q 3188 3456 2997 3625
Q 2806 3794 2456 3794
L 1791 3794
z
" transform="scale(0.015625)"/>
      <path id="DejaVuSans-Bold-74" d="M 1759 4494
L 1759 3500
L 2913 3500
L 2913 2700
L 1759 2700
L 1759 1216
Q 1759 972 1856 886
Q 1953 800 2241 800
L 2816 800
L 2816 0
L 1856 0
Q 1194 0 917 276
Q 641 553 641 1216
L 641 2700
L 84 2700
L 84 3500
L 641 3500
L 641 4494
L 1759 4494
z
" transform="scale(0.015625)"/>
      <path id="DejaVuSans-Bold-65" d="M 4031 1759
L 4031 1441
L 1416 1441
Q 1456 1047 1700 850
Q 1944 653 2381 653
Q 2734 653 3104 758
Q 3475 863 3866 1075
L 3866 213
Q 3469 63 3072 -14
Q 2675 -91 2278 -91
Q 1328 -91 801 392
Q 275 875 275 1747
Q 275 2603 792 3093
Q 1309 3584 2216 3584
Q 3041 3584 3536 3087
Q 4031 2591 4031 1759
z
M 2881 2131
Q 2881 2450 2695 2645
Q 2509 2841 2209 2841
Q 1884 2841 1681 2658
Q 1478 2475 1428 2131
L 2881 2131
z
" transform="scale(0.015625)"/>
      <path id="DejaVuSans-Bold-72" d="M 3138 2547
Q 2991 2616 2845 2648
Q 2700 2681 2553 2681
Q 2122 2681 1889 2404
Q 1656 2128 1656 1613
L 1656 0
L 538 0
L 538 3500
L 1656 3500
L 1656 2925
Q 1872 3269 2151 3426
Q 2431 3584 2822 3584
Q 2878 3584 2943 3579
Q 3009 3575 3134 3559
L 3138 2547
z
" transform="scale(0.015625)"/>
      <path id="DejaVuSans-Bold-73" d="M 3272 3391
L 3272 2541
Q 2913 2691 2578 2766
Q 2244 2841 1947 2841
Q 1628 2841 1473 2761
Q 1319 2681 1319 2516
Q 1319 2381 1436 2309
Q 1553 2238 1856 2203
L 2053 2175
Q 2913 2066 3209 1816
Q 3506 1566 3506 1031
Q 3506 472 3093 190
Q 2681 -91 1863 -91
Q 1516 -91 1145 -36
Q 775 19 384 128
L 384 978
Q 719 816 1070 734
Q 1422 653 1784 653
Q 2113 653 2278 743
Q 2444 834 2444 1013
Q 2444 1163 2330 1236
Q 2216 1309 1875 1350
L 1678 1375
Q 931 1469 631 1722
Q 331 1975 331 2491
Q 331 3047 712 3315
Q 1094 3584 1881 3584
Q 2191 3584 2531 3537
Q 2872 3491 3272 3391
z
" transform="scale(0.015625)"/>
     </defs>
     <use xlink:href="#DejaVuSans-Bold-5b"/>
     <use xlink:href="#DejaVuSans-Bold-43" transform="translate(45.703125 0)"/>
     <use xlink:href="#DejaVuSans-Bold-6c" transform="translate(119.091797 0)"/>
     <use xlink:href="#DejaVuSans-Bold-6f" transform="translate(153.369141 0)"/>
     <use xlink:href="#DejaVuSans-Bold-75" transform="translate(222.070312 0)"/>
     <use xlink:href="#DejaVuSans-Bold-64" transform="translate(293.261719 0)"/>
     <use xlink:href="#DejaVuSans-Bold-5d" transform="translate(364.84375 0)"/>
     <use xlink:href="#DejaVuSans-Bold-20" transform="translate(410.546875 0)"/>
     <use xlink:href="#DejaVuSans-Bold-43" transform="translate(445.361328 0)"/>
     <use xlink:href="#DejaVuSans-Bold-6c" transform="translate(518.75 0)"/>
     <use xlink:href="#DejaVuSans-Bold-6f" transform="translate(553.027344 0)"/>
     <use xlink:href="#DejaVuSans-Bold-75" transform="translate(621.728516 0)"/>
     <use xlink:href="#DejaVuSans-Bold-64" transform="translate(692.919922 0)"/>
     <use xlink:href="#DejaVuSans-Bold-20" transform="translate(764.501953 0)"/>
     <use xlink:href="#DejaVuSans-Bold-53" transform="translate(799.316406 0)"/>
     <use xlink:href="#DejaVuSans-Bold-63" transform="translate(871.337891 0)"/>
     <use xlink:href="#DejaVuSans-Bold-61" transform="translate(930.615234 0)"/>
     <use xlink:href="#DejaVuSans-Bold-6c" transform="translate(998.095703 0)"/>
     <use xlink:href="#DejaVuSans-Bold-69" transform="translate(1032.373047 0)"/>
     <use xlink:href="#DejaVuSans-Bold-6e" transform="translate(1066.650391 0)"/>
     <use xlink:href="#DejaVuSans-Bold-67" transform="translate(1137.841797 0)"/>
     <use xlink:href="#DejaVuSans-Bold-20" transform="translate(1209.423828 0)"/>
     <use xlink:href="#DejaVuSans-Bold-50" transform="translate(1244.238281 0)"/>
     <use xlink:href="#DejaVuSans-Bold-61" transform="translate(1314.904297 0)"/>
     <use xlink:href="#DejaVuSans-Bold-74" transform="translate(1382.384766 0)"/>
     <use xlink:href="#DejaVuSans-Bold-74" transform="translate(1430.1875 0)"/>
     <use xlink:href="#DejaVuSans-Bold-65" transform="translate(1477.990234 0)"/>
     <use xlink:href="#DejaVuSans-Bold-72" transform="translate(1545.8125 0)"/>
     <use xlink:href="#DejaVuSans-Bold-6e" transform="translate(1595.128906 0)"/>
     <use xlink:href="#DejaVuSans-Bold-73" transform="translate(1666.320312 0)"/>
    </g>
   </g>
   <g id="text_2">
    <!-- [Up] Vertical Scaling -->
    <g style="fill: #0078d4" transform="translate(118.215703 97.992) scale(0.11 -0.11)">
     <defs>
      <path id="DejaVuSans-Bold-55" d="M 588 4666
L 1791 4666
L 1791 1869
Q 1791 1291 1980 1042
Q 2169 794 2597 794
Q 3028 794 3217 1042
Q 3406 1291 3406 1869
L 3406 4666
L 4609 4666
L 4609 1869
Q 4609 878 4112 393
Q 3616 -91 2597 -91
Q 1581 -91 1084 393
Q 588 878 588 1869
L 588 4666
z
" transform="scale(0.015625)"/>
      <path id="DejaVuSans-Bold-70" d="M 1656 506
L 1656 -1331
L 538 -1331
L 538 3500
L 1656 3500
L 1656 2988
Q 1888 3294 2169 3439
Q 2450 3584 2816 3584
Q 3463 3584 3878 3070
Q 4294 2556 4294 1747
Q 4294 938 3878 423
Q 3463 -91 2816 -91
Q 2450 -91 2169 54
Q 1888 200 1656 506
z
M 2400 2772
Q 2041 2772 1848 2508
Q 1656 2244 1656 1747
Q 1656 1250 1848 986
Q 2041 722 2400 722
Q 2759 722 2948 984
Q 3138 1247 3138 1747
Q 3138 2247 2948 2509
Q 2759 2772 2400 2772
z
" transform="scale(0.015625)"/>
      <path id="DejaVuSans-Bold-56" d="M 31 4666
L 1241 4666
L 2478 1222
L 3713 4666
L 4922 4666
L 3194 0
L 1759 0
L 31 4666
z
" transform="scale(0.015625)"/>
     </defs>
     <use xlink:href="#DejaVuSans-Bold-5b"/>
     <use xlink:href="#DejaVuSans-Bold-55" transform="translate(45.703125 0)"/>
     <use xlink:href="#DejaVuSans-Bold-70" transform="translate(126.904297 0)"/>
     <use xlink:href="#DejaVuSans-Bold-5d" transform="translate(198.486328 0)"/>
     <use xlink:href="#DejaVuSans-Bold-20" transform="translate(244.189453 0)"/>
     <use xlink:href="#DejaVuSans-Bold-56" transform="translate(279.003906 0)"/>
     <use xlink:href="#DejaVuSans-Bold-65" transform="translate(350.896484 0)"/>
     <use xlink:href="#DejaVuSans-Bold-72" transform="translate(418.71875 0)"/>
     <use xlink:href="#DejaVuSans-Bold-74" transform="translate(468.035156 0)"/>
     <use xlink:href="#DejaVuSans-Bold-69" transform="translate(515.837891 0)"/>
     <use xlink:href="#DejaVuSans-Bold-63" transform="translate(550.115234 0)"/>
     <use xlink:href="#DejaVuSans-Bold-61" transform="translate(609.392578 0)"/>
     <use xlink:href="#DejaVuSans-Bold-6c" transform="translate(676.873047 0)"/>
     <use xlink:href="#DejaVuSans-Bold-20" transform="translate(711.150391 0)"/>
     <use xlink:href="#DejaVuSans-Bold-53" transform="translate(745.964844 0)"/>
     <use xlink:href="#DejaVuSans-Bold-63" transform="translate(817.986328 0)"/>
     <use xlink:href="#DejaVuSans-Bold-61" transform="translate(877.263672 0)"/>
     <use xlink:href="#DejaVuSans-Bold-6c" transform="translate(944.744141 0)"/>
     <use xlink:href="#DejaVuSans-Bold-69" transform="translate(979.021484 0)"/>
     <use xlink:href="#DejaVuSans-Bold-6e" transform="translate(1013.298828 0)"/>
     <use xlink:href="#DejaVuSans-Bold-67" transform="translate(1084.490234 0)"/>
    </g>
   </g>
   <g id="text_3">
    <!-- Small -->
    <g style="fill: #004578" transform="translate(88.271297 179.812328) scale(0.07 -0.07)">
     <defs>
      <path id="DejaVuSans-53" d="M 3425 4513
L 3425 3897
Q 3066 4069 2747 4153
Q 2428 4238 2131 4238
Q 1616 4238 1336 4038
Q 1056 3838 1056 3469
Q 1056 3159 1242 3001
Q 1428 2844 1947 2747
L 2328 2669
Q 3034 2534 3370 2195
Q 3706 1856 3706 1288
Q 3706 609 3251 259
Q 2797 -91 1919 -91
Q 1588 -91 1214 -16
Q 841 59 441 206
L 441 856
Q 825 641 1194 531
Q 1563 422 1919 422
Q 2459 422 2753 634
Q 3047 847 3047 1241
Q 3047 1584 2836 1778
Q 2625 1972 2144 2069
L 1759 2144
Q 1053 2284 737 2584
Q 422 2884 422 3419
Q 422 4038 858 4394
Q 1294 4750 2059 4750
Q 2388 4750 2728 4690
Q 3069 4631 3425 4513
z
" transform="scale(0.015625)"/>
      <path id="DejaVuSans-6d" d="M 3328 2828
Q 3544 3216 3844 3400
Q 4144 3584 4550 3584
Q 5097 3584 5394 3201
Q 5691 2819 5691 2113
L 5691 0
L 5113 0
L 5113 2094
Q 5113 2597 4934 2840
Q 4756 3084 4391 3084
Q 3944 3084 3684 2787
Q 3425 2491 3425 1978
L 3425 0
L 2847 0
L 2847 2094
Q 2847 2600 2669 2842
Q 2491 3084 2119 3084
Q 1678 3084 1418 2786
Q 1159 2488 1159 1978
L 1159 0
L 581 0
L 581 3500
L 1159 3500
L 1159 2956
Q 1356 3278 1631 3431
Q 1906 3584 2284 3584
Q 2666 3584 2933 3390
Q 3200 3197 3328 2828
z
" transform="scale(0.015625)"/>
      <path id="DejaVuSans-61" d="M 2194 1759
Q 1497 1759 1228 1600
Q 959 1441 959 1056
Q 959 750 1161 570
Q 1363 391 1709 391
Q 2188 391 2477 730
Q 2766 1069 2766 1631
L 2766 1759
L 2194 1759
z
M 3341 1997
L 3341 0
L 2766 0
L 2766 531
Q 2569 213 2275 61
Q 1981 -91 1556 -91
Q 1019 -91 701 211
Q 384 513 384 1019
Q 384 1609 779 1909
Q 1175 2209 1959 2209
L 2766 2209
L 2766 2266
Q 2766 2663 2505 2880
Q 2244 3097 1772 3097
Q 1472 3097 1187 3025
Q 903 2953 641 2809
L 641 3341
Q 956 3463 1253 3523
Q 1550 3584 1831 3584
Q 2591 3584 2966 3190
Q 3341 2797 3341 1997
z
" transform="scale(0.015625)"/>
      <path id="DejaVuSans-6c" d="M 603 4863
L 1178 4863
L 1178 0
L 603 0
L 603 4863
z
" transform="scale(0.015625)"/>
     </defs>
     <use xlink:href="#DejaVuSans-53"/>
     <use xlink:href="#DejaVuSans-6d" transform="translate(63.476562 0)"/>
     <use xlink:href="#DejaVuSans-61" transform="translate(160.888672 0)"/>
     <use xlink:href="#DejaVuSans-6c" transform="translate(222.167969 0)"/>
     <use xlink:href="#DejaVuSans-6c" transform="translate(249.951172 0)"/>
    </g>
    <!-- 2 CPU, 4GB -->
    <g style="fill: #004578" transform="translate(77.972 187.650797) scale(0.07 -0.07)">
     <defs>
      <path id="DejaVuSans-32" d="M 1228 531
L 3431 531
L 3431 0
L 469 0
L 469 531
Q 828 903 1448 1529
Q 2069 2156 2228 2338
Q 2531 2678 2651 2914
Q 2772 3150 2772 3378
Q 2772 3750 2511 3984
Q 2250 4219 1831 4219
Q 1534 4219 1204 4116
Q 875 4013 500 3803
L 500 4441
Q 881 4594 1212 4672
Q 1544 4750 1819 4750
Q 2544 4750 2975 4387
Q 3406 4025 3406 3419
Q 3406 3131 3298 2873
Q 3191 2616 2906 2266
Q 2828 2175 2409 1742
Q 1991 1309 1228 531
z
" transform="scale(0.015625)"/>
      <path id="DejaVuSans-20" transform="scale(0.015625)"/>
      <path id="DejaVuSans-43" d="M 4122 4306
L 4122 3641
Q 3803 3938 3442 4084
Q 3081 4231 2675 4231
Q 1875 4231 1450 3742
Q 1025 3253 1025 2328
Q 1025 1406 1450 917
Q 1875 428 2675 428
Q 3081 428 3442 575
Q 3803 722 4122 1019
L 4122 359
Q 3791 134 3420 21
Q 3050 -91 2638 -91
Q 1578 -91 968 557
Q 359 1206 359 2328
Q 359 3453 968 4101
Q 1578 4750 2638 4750
Q 3056 4750 3426 4639
Q 3797 4528 4122 4306
z
" transform="scale(0.015625)"/>
      <path id="DejaVuSans-50" d="M 1259 4147
L 1259 2394
L 2053 2394
Q 2494 2394 2734 2622
Q 2975 2850 2975 3272
Q 2975 3691 2734 3919
Q 2494 4147 2053 4147
L 1259 4147
z
M 628 4666
L 2053 4666
Q 2838 4666 3239 4311
Q 3641 3956 3641 3272
Q 3641 2581 3239 2228
Q 2838 1875 2053 1875
L 1259 1875
L 1259 0
L 628 0
L 628 4666
z
" transform="scale(0.015625)"/>
      <path id="DejaVuSans-55" d="M 556 4666
L 1191 4666
L 1191 1831
Q 1191 1081 1462 751
Q 1734 422 2344 422
Q 2950 422 3222 751
Q 3494 1081 3494 1831
L 3494 4666
L 4128 4666
L 4128 1753
Q 4128 841 3676 375
Q 3225 -91 2344 -91
Q 1459 -91 1007 375
Q 556 841 556 1753
L 556 4666
z
" transform="scale(0.015625)"/>
      <path id="DejaVuSans-2c" d="M 750 794
L 1409 794
L 1409 256
L 897 -744
L 494 -744
L 750 256
L 750 794
z
" transform="scale(0.015625)"/>
      <path id="DejaVuSans-34" d="M 2419 4116
L 825 1625
L 2419 1625
L 2419 4116
z
M 2253 4666
L 3047 4666
L 3047 1625
L 3713 1625
L 3713 1100
L 3047 1100
L 3047 0
L 2419 0
L 2419 1100
L 313 1100
L 313 1709
L 2253 4666
z
" transform="scale(0.015625)"/>
      <path id="DejaVuSans-47" d="M 3809 666
L 3809 1919
L 2778 1919
L 2778 2438
L 4434 2438
L 4434 434
Q 4069 175 3628 42
Q 3188 -91 2688 -91
Q 1594 -91 976 548
Q 359 1188 359 2328
Q 359 3472 976 4111
Q 1594 4750 2688 4750
Q 3144 4750 3555 4637
Q 3966 4525 4313 4306
L 4313 3634
Q 3963 3931 3569 4081
Q 3175 4231 2741 4231
Q 1884 4231 1454 3753
Q 1025 3275 1025 2328
Q 1025 1384 1454 906
Q 1884 428 2741 428
Q 3075 428 3337 486
Q 3600 544 3809 666
z
" transform="scale(0.015625)"/>
      <path id="DejaVuSans-42" d="M 1259 2228
L 1259 519
L 2272 519
Q 2781 519 3026 730
Q 3272 941 3272 1375
Q 3272 1813 3026 2020
Q 2781 2228 2272 2228
L 1259 2228
z
M 1259 4147
L 1259 2741
L 2194 2741
Q 2656 2741 2882 2914
Q 3109 3088 3109 3444
Q 3109 3797 2882 3972
Q 2656 4147 2194 4147
L 1259 4147
z
M 628 4666
L 2241 4666
Q 2963 4666 3353 4366
Q 3744 4066 3744 3513
Q 3744 3084 3544 2831
Q 3344 2578 2956 2516
Q 3422 2416 3680 2098
Q 3938 1781 3938 1306
Q 3938 681 3513 340
Q 3088 0 2303 0
L 628 0
L 628 4666
z
" transform="scale(0.015625)"/>
     </defs>
     <use xlink:href="#DejaVuSans-32"/>
     <use xlink:href="#DejaVuSans-20" transform="translate(63.623047 0)"/>
     <use xlink:href="#DejaVuSans-43" transform="translate(95.410156 0)"/>
     <use xlink:href="#DejaVuSans-50" transform="translate(165.234375 0)"/>
     <use xlink:href="#DejaVuSans-55" transform="translate(225.537109 0)"/>
     <use xlink:href="#DejaVuSans-2c" transform="translate(298.730469 0)"/>
     <use xlink:href="#DejaVuSans-20" transform="translate(330.517578 0)"/>
     <use xlink:href="#DejaVuSans-34" transform="translate(362.304688 0)"/>
     <use xlink:href="#DejaVuSans-47" transform="translate(425.927734 0)"/>
     <use xlink:href="#DejaVuSans-42" transform="translate(503.417969 0)"/>
    </g>
   </g>
   <g id="patch_17">
    <path d="M 126.95872 183.517866
Q 136.405035 199.261725 144.700902 213.088171
" style="fill: none; stroke: #0078d4; stroke-width: 2; stroke-linecap: round"/>
    <path d="M 144.357905 208.629207
L 144.700902 213.088171
L 140.927934 210.687191
" style="fill: none; stroke: #0078d4; stroke-width: 2; stroke-linecap: round"/>
   </g>
   <g id="text_4">
    <!-- Medium -->
    <g style="fill: #004578" transform="translate(167.804922 214.732328) scale(0.07 -0.07)">
     <defs>
      <path id="DejaVuSans-4d" d="M 628 4666
L 1569 4666
L 2759 1491
L 3956 4666
L 4897 4666
L 4897 0
L 4281 0
L 4281 4097
L 3078 897
L 2444 897
L 1241 4097
L 1241 0
L 628 0
L 628 4666
z
" transform="scale(0.015625)"/>
      <path id="DejaVuSans-65" d="M 3597 1894
L 3597 1613
L 953 1613
Q 991 1019 1311 708
Q 1631 397 2203 397
Q 2534 397 2845 478
Q 3156 559 3463 722
L 3463 178
Q 3153 47 2828 -22
Q 2503 -91 2169 -91
Q 1331 -91 842 396
Q 353 884 353 1716
Q 353 2575 817 3079
Q 1281 3584 2069 3584
Q 2775 3584 3186 3129
Q 3597 2675 3597 1894
z
M 3022 2063
Q 3016 2534 2758 2815
Q 2500 3097 2075 3097
Q 1594 3097 1305 2825
Q 1016 2553 972 2059
L 3022 2063
z
" transform="scale(0.015625)"/>
      <path id="DejaVuSans-64" d="M 2906 2969
L 2906 4863
L 3481 4863
L 3481 0
L 2906 0
L 2906 525
Q 2725 213 2448 61
Q 2172 -91 1784 -91
Q 1150 -91 751 415
Q 353 922 353 1747
Q 353 2572 751 3078
Q 1150 3584 1784 3584
Q 2172 3584 2448 3432
Q 2725 3281 2906 2969
z
M 947 1747
Q 947 1113 1208 752
Q 1469 391 1925 391
Q 2381 391 2643 752
Q 2906 1113 2906 1747
Q 2906 2381 2643 2742
Q 2381 3103 1925 3103
Q 1469 3103 1208 2742
Q 947 2381 947 1747
z
" transform="scale(0.015625)"/>
      <path id="DejaVuSans-69" d="M 603 3500
L 1178 3500
L 1178 0
L 603 0
L 603 3500
z
M 603 4863
L 1178 4863
L 1178 4134
L 603 4134
L 603 4863
z
" transform="scale(0.015625)"/>
      <path id="DejaVuSans-75" d="M 544 1381
L 544 3500
L 1119 3500
L 1119 1403
Q 1119 906 1312 657
Q 1506 409 1894 409
Q 2359 409 2629 706
Q 2900 1003 2900 1516
L 2900 3500
L 3475 3500
L 3475 0
L 2900 0
L 2900 538
Q 2691 219 2414 64
Q 2138 -91 1772 -91
Q 1169 -91 856 284
Q 544 659 544 1381
z
M 1991 3584
L 1991 3584
z
" transform="scale(0.015625)"/>
     </defs>
     <use xlink:href="#DejaVuSans-4d"/>
     <use xlink:href="#DejaVuSans-65" transform="translate(86.279297 0)"/>
     <use xlink:href="#DejaVuSans-64" transform="translate(147.802734 0)"/>
     <use xlink:href="#DejaVuSans-69" transform="translate(211.279297 0)"/>
     <use xlink:href="#DejaVuSans-75" transform="translate(239.0625 0)"/>
     <use xlink:href="#DejaVuSans-6d" transform="translate(302.441406 0)"/>
    </g>
    <!-- 4 CPU, 16GB -->
    <g style="fill: #004578" transform="translate(159.553125 222.570797) scale(0.07 -0.07)">
     <defs>
      <path id="DejaVuSans-31" d="M 794 531
L 1825 531
L 1825 4091
L 703 3866
L 703 4441
L 1819 4666
L 2450 4666
L 2450 531
L 3481 531
L 3481 0
L 794 0
L 794 531
z
" transform="scale(0.015625)"/>
      <path id="DejaVuSans-36" d="M 2113 2584
Q 1688 2584 1439 2293
Q 1191 2003 1191 1497
Q 1191 994 1439 701
Q 1688 409 2113 409
Q 2538 409 2786 701
Q 3034 994 3034 1497
Q 3034 2003 2786 2293
Q 2538 2584 2113 2584
z
M 3366 4563
L 3366 3988
Q 3128 4100 2886 4159
Q 2644 4219 2406 4219
Q 1781 4219 1451 3797
Q 1122 3375 1075 2522
Q 1259 2794 1537 2939
Q 1816 3084 2150 3084
Q 2853 3084 3261 2657
Q 3669 2231 3669 1497
Q 3669 778 3244 343
Q 2819 -91 2113 -91
Q 1303 -91 875 529
Q 447 1150 447 2328
Q 447 3434 972 4092
Q 1497 4750 2381 4750
Q 2619 4750 2861 4703
Q 3103 4656 3366 4563
z
" transform="scale(0.015625)"/>
     </defs>
     <use xlink:href="#DejaVuSans-34"/>
     <use xlink:href="#DejaVuSans-20" transform="translate(63.623047 0)"/>
     <use xlink:href="#DejaVuSans-43" transform="translate(95.410156 0)"/>
     <use xlink:href="#DejaVuSans-50" transform="translate(165.234375 0)"/>
     <use xlink:href="#DejaVuSans-55" transform="translate(225.537109 0)"/>
     <use xlink:href="#DejaVuSans-2c" transform="translate(298.730469 0)"/>
     <use xlink:href="#DejaVuSans-20" transform="translate(330.517578 0)"/>
     <use xlink:href="#DejaVuSans-31" transform="translate(362.304688 0)"/>
     <use xlink:href="#DejaVuSans-36" transform="translate(425.927734 0)"/>
     <use xlink:href="#DejaVuSans-47" transform="translate(489.550781 0)"/>
     <use xlink:href="#DejaVuSans-42" transform="translate(567.041016 0)"/>
    </g>
   </g>
   <g id="patch_18">
    <path d="M 220.63081 218.674446
Q 225.449778 241.162963 229.800225 261.465048
" style="fill: none; stroke: #0078d4; stroke-width: 2; stroke-linecap: round"/>
    <path d="M 230.917713 257.13478
L 229.800225 261.465048
L 227.006503 257.972896
" style="fill: none; stroke: #0078d4; stroke-width: 2; stroke-linecap: round"/>
   </g>
   <g id="text_5">
    <!-- Large -->
    <g style="fill: #004578" transform="translate(255.759875 263.620328) scale(0.07 -0.07)">
     <defs>
      <path id="DejaVuSans-4c" d="M 628 4666
L 1259 4666
L 1259 531
L 3531 531
L 3531 0
L 628 0
L 628 4666
z
" transform="scale(0.015625)"/>
      <path id="DejaVuSans-72" d="M 2631 2963
Q 2534 3019 2420 3045
Q 2306 3072 2169 3072
Q 1681 3072 1420 2755
Q 1159 2438 1159 1844
L 1159 0
L 581 0
L 581 3500
L 1159 3500
L 1159 2956
Q 1341 3275 1631 3429
Q 1922 3584 2338 3584
Q 2397 3584 2469 3576
Q 2541 3569 2628 3553
L 2631 2963
z
" transform="scale(0.015625)"/>
      <path id="DejaVuSans-67" d="M 2906 1791
Q 2906 2416 2648 2759
Q 2391 3103 1925 3103
Q 1463 3103 1205 2759
Q 947 2416 947 1791
Q 947 1169 1205 825
Q 1463 481 1925 481
Q 2391 481 2648 825
Q 2906 1169 2906 1791
z
M 3481 434
Q 3481 -459 3084 -895
Q 2688 -1331 1869 -1331
Q 1566 -1331 1297 -1286
Q 1028 -1241 775 -1147
L 775 -588
Q 1028 -725 1275 -790
Q 1522 -856 1778 -856
Q 2344 -856 2625 -561
Q 2906 -266 2906 331
L 2906 616
Q 2728 306 2450 153
Q 2172 0 1784 0
Q 1141 0 747 490
Q 353 981 353 1791
Q 353 2603 747 3093
Q 1141 3584 1784 3584
Q 2172 3584 2450 3431
Q 2728 3278 2906 2969
L 2906 3500
L 3481 3500
L 3481 434
z
" transform="scale(0.015625)"/>
     </defs>
     <use xlink:href="#DejaVuSans-4c"/>
     <use xlink:href="#DejaVuSans-61" transform="translate(55.712891 0)"/>
     <use xlink:href="#DejaVuSans-72" transform="translate(116.992188 0)"/>
     <use xlink:href="#DejaVuSans-67" transform="translate(156.355469 0)"/>
     <use xlink:href="#DejaVuSans-65" transform="translate(219.832031 0)"/>
    </g>
    <!-- 16 CPU, 64GB -->
    <g style="fill: #004578" transform="translate(241.13425 271.458797) scale(0.07 -0.07)">
     <use xlink:href="#DejaVuSans-31"/>
     <use xlink:href="#DejaVuSans-36" transform="translate(63.623047 0)"/>
     <use xlink:href="#DejaVuSans-20" transform="translate(127.246094 0)"/>
     <use xlink:href="#DejaVuSans-43" transform="translate(159.033203 0)"/>
     <use xlink:href="#DejaVuSans-50" transform="translate(228.857422 0)"/>
     <use xlink:href="#DejaVuSans-55" transform="translate(289.160156 0)"/>
     <use xlink:href="#DejaVuSans-2c" transform="translate(362.353516 0)"/>
     <use xlink:href="#DejaVuSans-20" transform="translate(394.140625 0)"/>
     <use xlink:href="#DejaVuSans-36" transform="translate(425.927734 0)"/>
     <use xlink:href="#DejaVuSans-34" transform="translate(489.550781 0)"/>
     <use xlink:href="#DejaVuSans-47" transform="translate(553.173828 0)"/>
     <use xlink:href="#DejaVuSans-42" transform="translate(630.664062 0)"/>
    </g>
   </g>
   <g id="text_6">
    <!-- [H] Horizontal Scaling -->
    <g style="fill: #ff8c00" transform="translate(445.424219 97.992) scale(0.11 -0.11)">
     <defs>
      <path id="DejaVuSans-Bold-48" d="M 588 4666
L 1791 4666
L 1791 2888
L 3566 2888
L 3566 4666
L 4769 4666
L 4769 0
L 3566 0
L 3566 1978
L 1791 1978
L 1791 0
L 588 0
L 588 4666
z
" transform="scale(0.015625)"/>
      <path id="DejaVuSans-Bold-7a" d="M 366 3500
L 3419 3500
L 3419 2719
L 1575 800
L 3419 800
L 3419 0
L 288 0
L 288 781
L 2131 2700
L 366 2700
L 366 3500
z
" transform="scale(0.015625)"/>
     </defs>
     <use xlink:href="#DejaVuSans-Bold-5b"/>
     <use xlink:href="#DejaVuSans-Bold-48" transform="translate(45.703125 0)"/>
     <use xlink:href="#DejaVuSans-Bold-5d" transform="translate(129.394531 0)"/>
     <use xlink:href="#DejaVuSans-Bold-20" transform="translate(175.097656 0)"/>
     <use xlink:href="#DejaVuSans-Bold-48" transform="translate(209.912109 0)"/>
     <use xlink:href="#DejaVuSans-Bold-6f" transform="translate(293.603516 0)"/>
     <use xlink:href="#DejaVuSans-Bold-72" transform="translate(362.304688 0)"/>
     <use xlink:href="#DejaVuSans-Bold-69" transform="translate(411.621094 0)"/>
     <use xlink:href="#DejaVuSans-Bold-7a" transform="translate(445.898438 0)"/>
     <use xlink:href="#DejaVuSans-Bold-6f" transform="translate(504.101562 0)"/>
     <use xlink:href="#DejaVuSans-Bold-6e" transform="translate(572.802734 0)"/>
     <use xlink:href="#DejaVuSans-Bold-74" transform="translate(643.994141 0)"/>
     <use xlink:href="#DejaVuSans-Bold-61" transform="translate(691.796875 0)"/>
     <use xlink:href="#DejaVuSans-Bold-6c" transform="translate(759.277344 0)"/>
     <use xlink:href="#DejaVuSans-Bold-20" transform="translate(793.554688 0)"/>
     <use xlink:href="#DejaVuSans-Bold-53" transform="translate(828.369141 0)"/>
     <use xlink:href="#DejaVuSans-Bold-63" transform="translate(900.390625 0)"/>
     <use xlink:href="#DejaVuSans-Bold-61" transform="translate(959.667969 0)"/>
     <use xlink:href="#DejaVuSans-Bold-6c" transform="translate(1027.148438 0)"/>
     <use xlink:href="#DejaVuSans-Bold-69" transform="translate(1061.425781 0)"/>
     <use xlink:href="#DejaVuSans-Bold-6e" transform="translate(1095.703125 0)"/>
     <use xlink:href="#DejaVuSans-Bold-67" transform="translate(1166.894531 0)"/>
    </g>
   </g>
   <g id="text_7">
    <!-- Load -->
    <g style="fill: #ffffff" transform="translate(505.142734 158.860328) scale(0.07 -0.07)">
     <defs>
      <path id="DejaVuSans-6f" d="M 1959 3097
Q 1497 3097 1228 2736
Q 959 2375 959 1747
Q 959 1119 1226 758
Q 1494 397 1959 397
Q 2419 397 2687 759
Q 2956 1122 2956 1747
Q 2956 2369 2687 2733
Q 2419 3097 1959 3097
z
M 1959 3584
Q 2709 3584 3137 3096
Q 3566 2609 3566 1747
Q 3566 888 3137 398
Q 2709 -91 1959 -91
Q 1206 -91 779 398
Q 353 888 353 1747
Q 353 2609 779 3096
Q 1206 3584 1959 3584
z
" transform="scale(0.015625)"/>
     </defs>
     <use xlink:href="#DejaVuSans-4c"/>
     <use xlink:href="#DejaVuSans-6f" transform="translate(53.962891 0)"/>
     <use xlink:href="#DejaVuSans-61" transform="translate(115.144531 0)"/>
     <use xlink:href="#DejaVuSans-64" transform="translate(176.423828 0)"/>
    </g>
    <!-- Balancer -->
    <g style="fill: #ffffff" transform="translate(498.141641 166.698797) scale(0.07 -0.07)">
     <defs>
      <path id="DejaVuSans-6e" d="M 3513 2113
L 3513 0
L 2938 0
L 2938 2094
Q 2938 2591 2744 2837
Q 2550 3084 2163 3084
Q 1697 3084 1428 2787
Q 1159 2491 1159 1978
L 1159 0
L 581 0
L 581 3500
L 1159 3500
L 1159 2956
Q 1366 3272 1645 3428
Q 1925 3584 2291 3584
Q 2894 3584 3203 3211
Q 3513 2838 3513 2113
z
" transform="scale(0.015625)"/>
      <path id="DejaVuSans-63" d="M 3122 3366
L 3122 2828
Q 2878 2963 2633 3030
Q 2388 3097 2138 3097
Q 1578 3097 1268 2742
Q 959 2388 959 1747
Q 959 1106 1268 751
Q 1578 397 2138 397
Q 2388 397 2633 464
Q 2878 531 3122 666
L 3122 134
Q 2881 22 2623 -34
Q 2366 -91 2075 -91
Q 1284 -91 818 406
Q 353 903 353 1747
Q 353 2603 823 3093
Q 1294 3584 2113 3584
Q 2378 3584 2631 3529
Q 2884 3475 3122 3366
z
" transform="scale(0.015625)"/>
     </defs>
     <use xlink:href="#DejaVuSans-42"/>
     <use xlink:href="#DejaVuSans-61" transform="translate(68.603516 0)"/>
     <use xlink:href="#DejaVuSans-6c" transform="translate(129.882812 0)"/>
     <use xlink:href="#DejaVuSans-61" transform="translate(157.666016 0)"/>
     <use xlink:href="#DejaVuSans-6e" transform="translate(218.945312 0)"/>
     <use xlink:href="#DejaVuSans-63" transform="translate(282.324219 0)"/>
     <use xlink:href="#DejaVuSans-65" transform="translate(337.304688 0)"/>
     <use xlink:href="#DejaVuSans-72" transform="translate(398.828125 0)"/>
    </g>
   </g>
   <g id="text_8">
    <!-- Instance -->
    <g transform="translate(406.495687 256.920281) scale(0.06 -0.06)">
     <defs>
      <path id="DejaVuSans-49" d="M 628 4666
L 1259 4666
L 1259 0
L 628 0
L 628 4666
z
" transform="scale(0.015625)"/>
      <path id="DejaVuSans-73" d="M 2834 3397
L 2834 2853
Q 2591 2978 2328 3040
Q 2066 3103 1784 3103
Q 1356 3103 1142 2972
Q 928 2841 928 2578
Q 928 2378 1081 2264
Q 1234 2150 1697 2047
L 1894 2003
Q 2506 1872 2764 1633
Q 3022 1394 3022 966
Q 3022 478 2636 193
Q 2250 -91 1575 -91
Q 1294 -91 989 -36
Q 684 19 347 128
L 347 722
Q 666 556 975 473
Q 1284 391 1588 391
Q 1994 391 2212 530
Q 2431 669 2431 922
Q 2431 1156 2273 1281
Q 2116 1406 1581 1522
L 1381 1569
Q 847 1681 609 1914
Q 372 2147 372 2553
Q 372 3047 722 3315
Q 1072 3584 1716 3584
Q 2034 3584 2315 3537
Q 2597 3491 2834 3397
z
" transform="scale(0.015625)"/>
      <path id="DejaVuSans-74" d="M 1172 4494
L 1172 3500
L 2356 3500
L 2356 3053
L 1172 3053
L 1172 1153
Q 1172 725 1289 603
Q 1406 481 1766 481
L 2356 481
L 2356 0
L 1766 0
Q 1100 0 847 248
Q 594 497 594 1153
L 594 3053
L 172 3053
L 172 3500
L 594 3500
L 594 4494
L 1172 4494
z
" transform="scale(0.015625)"/>
     </defs>
     <use xlink:href="#DejaVuSans-49"/>
     <use xlink:href="#DejaVuSans-6e" transform="translate(29.492188 0)"/>
     <use xlink:href="#DejaVuSans-73" transform="translate(92.871094 0)"/>
     <use xlink:href="#DejaVuSans-74" transform="translate(144.970703 0)"/>
     <use xlink:href="#DejaVuSans-61" transform="translate(184.179688 0)"/>
     <use xlink:href="#DejaVuSans-6e" transform="translate(245.458984 0)"/>
     <use xlink:href="#DejaVuSans-63" transform="translate(308.837891 0)"/>
     <use xlink:href="#DejaVuSans-65" transform="translate(363.818359 0)"/>
    </g>
    <!-- 1 -->
    <g transform="translate(417.34725 263.638969) scale(0.06 -0.06)">
     <use xlink:href="#DejaVuSans-31"/>
    </g>
   </g>
   <g id="text_9">
    <!-- Instance -->
    <g transform="translate(476.335687 256.920281) scale(0.06 -0.06)">
     <use xlink:href="#DejaVuSans-49"/>
     <use xlink:href="#DejaVuSans-6e" transform="translate(29.492188 0)"/>
     <use xlink:href="#DejaVuSans-73" transform="translate(92.871094 0)"/>
     <use xlink:href="#DejaVuSans-74" transform="translate(144.970703 0)"/>
     <use xlink:href="#DejaVuSans-61" transform="translate(184.179688 0)"/>
     <use xlink:href="#DejaVuSans-6e" transform="translate(245.458984 0)"/>
     <use xlink:href="#DejaVuSans-63" transform="translate(308.837891 0)"/>
     <use xlink:href="#DejaVuSans-65" transform="translate(363.818359 0)"/>
    </g>
    <!-- 2 -->
    <g transform="translate(487.18725 263.638969) scale(0.06 -0.06)">
     <use xlink:href="#DejaVuSans-32"/>
    </g>
   </g>
   <g id="text_10">
    <!-- Instance -->
    <g transform="translate(546.175687 256.920281) scale(0.06 -0.06)">
     <use xlink:href="#DejaVuSans-49"/>
     <use xlink:href="#DejaVuSans-6e" transform="translate(29.492188 0)"/>
     <use xlink:href="#DejaVuSans-73" transform="translate(92.871094 0)"/>
     <use xlink:href="#DejaVuSans-74" transform="translate(144.970703 0)"/>
     <use xlink:href="#DejaVuSans-61" transform="translate(184.179688 0)"/>
     <use xlink:href="#DejaVuSans-6e" transform="translate(245.458984 0)"/>
     <use xlink:href="#DejaVuSans-63" transform="translate(308.837891 0)"/>
     <use xlink:href="#DejaVuSans-65" transform="translate(363.818359 0)"/>
    </g>
    <!-- 3 -->
    <g transform="translate(557.02725 263.638969) scale(0.06 -0.06)">
     <defs>
      <path id="DejaVuSans-33" d="M 2597 2516
Q 3050 2419 3304 2112
Q 3559 1806 3559 1356
Q 3559 666 3084 287
Q 2609 -91 1734 -91
Q 1441 -91 1130 -33
Q 819 25 488 141
L 488 750
Q 750 597 1062 519
Q 1375 441 1716 441
Q 2309 441 2620 675
Q 2931 909 2931 1356
Q 2931 1769 2642 2001
Q 2353 2234 1838 2234
L 1294 2234
L 1294 2753
L 1863 2753
Q 2328 2753 2575 2939
Q 2822 3125 2822 3475
Q 2822 3834 2567 4026
Q 2313 4219 1838 4219
Q 1578 4219 1281 4162
Q 984 4106 628 3988
L 628 4550
Q 988 4650 1302 4700
Q 1616 4750 1894 4750
Q 2613 4750 3031 4423
Q 3450 4097 3450 3541
Q 3450 3153 3228 2886
Q 3006 2619 2597 2516
z
" transform="scale(0.015625)"/>
     </defs>
     <use xlink:href="#DejaVuSans-33"/>
    </g>
   </g>
   <g id="text_11">
    <!-- Instance -->
    <g transform="translate(616.015687 256.920281) scale(0.06 -0.06)">
     <use xlink:href="#DejaVuSans-49"/>
     <use xlink:href="#DejaVuSans-6e" transform="translate(29.492188 0)"/>
     <use xlink:href="#DejaVuSans-73" transform="translate(92.871094 0)"/>
     <use xlink:href="#DejaVuSans-74" transform="translate(144.970703 0)"/>
     <use xlink:href="#DejaVuSans-61" transform="translate(184.179688 0)"/>
     <use xlink:href="#DejaVuSans-6e" transform="translate(245.458984 0)"/>
     <use xlink:href="#DejaVuSans-63" transform="translate(308.837891 0)"/>
     <use xlink:href="#DejaVuSans-65" transform="translate(363.818359 0)"/>
    </g>
    <!-- N... -->
    <g transform="translate(623.671312 263.638969) scale(0.06 -0.06)">
     <defs>
      <path id="DejaVuSans-4e" d="M 628 4666
L 1478 4666
L 3547 763
L 3547 4666
L 4159 4666
L 4159 0
L 3309 0
L 1241 3903
L 1241 0
L 628 0
L 628 4666
z
" transform="scale(0.015625)"/>
      <path id="DejaVuSans-2e" d="M 684 794
L 1344 794
L 1344 0
L 684 0
L 684 794
z
" transform="scale(0.015625)"/>
     </defs>
     <use xlink:href="#DejaVuSans-4e"/>
     <use xlink:href="#DejaVuSans-2e" transform="translate(74.804688 0)"/>
     <use xlink:href="#DejaVuSans-2e" transform="translate(106.591797 0)"/>
     <use xlink:href="#DejaVuSans-2e" transform="translate(138.378906 0)"/>
    </g>
   </g>
   <g id="text_12">
    <!-- [Auto] Auto-Scaling -->
    <g style="fill: #107c10" transform="translate(766.880859 97.992) scale(0.11 -0.11)">
     <defs>
      <path id="DejaVuSans-Bold-41" d="M 3419 850
L 1538 850
L 1241 0
L 31 0
L 1759 4666
L 3194 4666
L 4922 0
L 3713 0
L 3419 850
z
M 1838 1716
L 3116 1716
L 2478 3572
L 1838 1716
z
" transform="scale(0.015625)"/>
      <path id="DejaVuSans-Bold-2d" d="M 347 2297
L 2309 2297
L 2309 1388
L 347 1388
L 347 2297
z
" transform="scale(0.015625)"/>
     </defs>
     <use xlink:href="#DejaVuSans-Bold-5b"/>
     <use xlink:href="#DejaVuSans-Bold-41" transform="translate(45.703125 0)"/>
     <use xlink:href="#DejaVuSans-Bold-75" transform="translate(123.095703 0)"/>
     <use xlink:href="#DejaVuSans-Bold-74" transform="translate(194.287109 0)"/>
     <use xlink:href="#DejaVuSans-Bold-6f" transform="translate(242.089844 0)"/>
     <use xlink:href="#DejaVuSans-Bold-5d" transform="translate(310.791016 0)"/>
     <use xlink:href="#DejaVuSans-Bold-20" transform="translate(356.494141 0)"/>
     <use xlink:href="#DejaVuSans-Bold-41" transform="translate(391.308594 0)"/>
     <use xlink:href="#DejaVuSans-Bold-75" transform="translate(468.701172 0)"/>
     <use xlink:href="#DejaVuSans-Bold-74" transform="translate(539.892578 0)"/>
     <use xlink:href="#DejaVuSans-Bold-6f" transform="translate(587.695312 0)"/>
     <use xlink:href="#DejaVuSans-Bold-2d" transform="translate(656.396484 0)"/>
     <use xlink:href="#DejaVuSans-Bold-53" transform="translate(697.900391 0)"/>
     <use xlink:href="#DejaVuSans-Bold-63" transform="translate(769.921875 0)"/>
     <use xlink:href="#DejaVuSans-Bold-61" transform="translate(829.199219 0)"/>
     <use xlink:href="#DejaVuSans-Bold-6c" transform="translate(896.679688 0)"/>
     <use xlink:href="#DejaVuSans-Bold-69" transform="translate(930.957031 0)"/>
     <use xlink:href="#DejaVuSans-Bold-6e" transform="translate(965.234375 0)"/>
     <use xlink:href="#DejaVuSans-Bold-67" transform="translate(1036.425781 0)"/>
    </g>
   </g>
   <g id="text_13">
    <!-- Low Demand -->
    <g style="fill: #004578" transform="translate(717.672109 179.812328) scale(0.07 -0.07)">
     <defs>
      <path id="DejaVuSans-77" d="M 269 3500
L 844 3500
L 1563 769
L 2278 3500
L 2956 3500
L 3675 769
L 4391 3500
L 4966 3500
L 4050 0
L 3372 0
L 2619 2869
L 1863 0
L 1184 0
L 269 3500
z
" transform="scale(0.015625)"/>
      <path id="DejaVuSans-44" d="M 1259 4147
L 1259 519
L 2022 519
Q 2988 519 3436 956
Q 3884 1394 3884 2338
Q 3884 3275 3436 3711
Q 2988 4147 2022 4147
L 1259 4147
z
M 628 4666
L 1925 4666
Q 3281 4666 3915 4102
Q 4550 3538 4550 2338
Q 4550 1131 3912 565
Q 3275 0 1925 0
L 628 0
L 628 4666
z
" transform="scale(0.015625)"/>
     </defs>
     <use xlink:href="#DejaVuSans-4c"/>
     <use xlink:href="#DejaVuSans-6f" transform="translate(53.962891 0)"/>
     <use xlink:href="#DejaVuSans-77" transform="translate(115.144531 0)"/>
     <use xlink:href="#DejaVuSans-20" transform="translate(196.931641 0)"/>
     <use xlink:href="#DejaVuSans-44" transform="translate(228.71875 0)"/>
     <use xlink:href="#DejaVuSans-65" transform="translate(305.720703 0)"/>
     <use xlink:href="#DejaVuSans-6d" transform="translate(367.244141 0)"/>
     <use xlink:href="#DejaVuSans-61" transform="translate(464.65625 0)"/>
     <use xlink:href="#DejaVuSans-6e" transform="translate(525.935547 0)"/>
     <use xlink:href="#DejaVuSans-64" transform="translate(589.314453 0)"/>
    </g>
    <!-- 2 instances -->
    <g style="fill: #004578" transform="translate(720.530625 187.650797) scale(0.07 -0.07)">
     <use xlink:href="#DejaVuSans-32"/>
     <use xlink:href="#DejaVuSans-20" transform="translate(63.623047 0)"/>
     <use xlink:href="#DejaVuSans-69" transform="translate(95.410156 0)"/>
     <use xlink:href="#DejaVuSans-6e" transform="translate(123.193359 0)"/>
     <use xlink:href="#DejaVuSans-73" transform="translate(186.572266 0)"/>
     <use xlink:href="#DejaVuSans-74" transform="translate(238.671875 0)"/>
     <use xlink:href="#DejaVuSans-61" transform="translate(277.880859 0)"/>
     <use xlink:href="#DejaVuSans-6e" transform="translate(339.160156 0)"/>
     <use xlink:href="#DejaVuSans-63" transform="translate(402.539062 0)"/>
     <use xlink:href="#DejaVuSans-65" transform="translate(457.519531 0)"/>
     <use xlink:href="#DejaVuSans-73" transform="translate(519.042969 0)"/>
    </g>
   </g>
   <g id="text_14">
    <!-- Medium -->
    <g style="fill: #004578" transform="translate(813.824922 235.684328) scale(0.07 -0.07)">
     <use xlink:href="#DejaVuSans-4d"/>
     <use xlink:href="#DejaVuSans-65" transform="translate(86.279297 0)"/>
     <use xlink:href="#DejaVuSans-64" transform="translate(147.802734 0)"/>
     <use xlink:href="#DejaVuSans-69" transform="translate(211.279297 0)"/>
     <use xlink:href="#DejaVuSans-75" transform="translate(239.0625 0)"/>
     <use xlink:href="#DejaVuSans-6d" transform="translate(302.441406 0)"/>
    </g>
    <!-- 5 instances -->
    <g style="fill: #004578" transform="translate(807.830625 243.522797) scale(0.07 -0.07)">
     <defs>
      <path id="DejaVuSans-35" d="M 691 4666
L 3169 4666
L 3169 4134
L 1269 4134
L 1269 2991
Q 1406 3038 1543 3061
Q 1681 3084 1819 3084
Q 2600 3084 3056 2656
Q 3513 2228 3513 1497
Q 3513 744 3044 326
Q 2575 -91 1722 -91
Q 1428 -91 1123 -41
Q 819 9 494 109
L 494 744
Q 775 591 1075 516
Q 1375 441 1709 441
Q 2250 441 2565 725
Q 2881 1009 2881 1497
Q 2881 1984 2565 2268
Q 2250 2553 1709 2553
Q 1456 2553 1204 2497
Q 953 2441 691 2322
L 691 4666
z
" transform="scale(0.015625)"/>
     </defs>
     <use xlink:href="#DejaVuSans-35"/>
     <use xlink:href="#DejaVuSans-20" transform="translate(63.623047 0)"/>
     <use xlink:href="#DejaVuSans-69" transform="translate(95.410156 0)"/>
     <use xlink:href="#DejaVuSans-6e" transform="translate(123.193359 0)"/>
     <use xlink:href="#DejaVuSans-73" transform="translate(186.572266 0)"/>
     <use xlink:href="#DejaVuSans-74" transform="translate(238.671875 0)"/>
     <use xlink:href="#DejaVuSans-61" transform="translate(277.880859 0)"/>
     <use xlink:href="#DejaVuSans-6e" transform="translate(339.160156 0)"/>
     <use xlink:href="#DejaVuSans-63" transform="translate(402.539062 0)"/>
     <use xlink:href="#DejaVuSans-65" transform="translate(457.519531 0)"/>
     <use xlink:href="#DejaVuSans-73" transform="translate(519.042969 0)"/>
    </g>
   </g>
   <g id="text_15">
    <!-- Peak -->
    <g style="fill: #004578" transform="translate(906.811328 179.812328) scale(0.07 -0.07)">
     <defs>
      <path id="DejaVuSans-6b" d="M 581 4863
L 1159 4863
L 1159 1991
L 2875 3500
L 3609 3500
L 1753 1863
L 3688 0
L 2938 0
L 1159 1709
L 1159 0
L 581 0
L 581 4863
z
" transform="scale(0.015625)"/>
     </defs>
     <use xlink:href="#DejaVuSans-50"/>
     <use xlink:href="#DejaVuSans-65" transform="translate(56.677734 0)"/>
     <use xlink:href="#DejaVuSans-61" transform="translate(118.201172 0)"/>
     <use xlink:href="#DejaVuSans-6b" transform="translate(179.480469 0)"/>
    </g>
    <!-- 10 instances -->
    <g style="fill: #004578" transform="translate(892.90375 187.650797) scale(0.07 -0.07)">
     <defs>
      <path id="DejaVuSans-30" d="M 2034 4250
Q 1547 4250 1301 3770
Q 1056 3291 1056 2328
Q 1056 1369 1301 889
Q 1547 409 2034 409
Q 2525 409 2770 889
Q 3016 1369 3016 2328
Q 3016 3291 2770 3770
Q 2525 4250 2034 4250
z
M 2034 4750
Q 2819 4750 3233 4129
Q 3647 3509 3647 2328
Q 3647 1150 3233 529
Q 2819 -91 2034 -91
Q 1250 -91 836 529
Q 422 1150 422 2328
Q 422 3509 836 4129
Q 1250 4750 2034 4750
z
" transform="scale(0.015625)"/>
     </defs>
     <use xlink:href="#DejaVuSans-31"/>
     <use xlink:href="#DejaVuSans-30" transform="translate(63.623047 0)"/>
     <use xlink:href="#DejaVuSans-20" transform="translate(127.246094 0)"/>
     <use xlink:href="#DejaVuSans-69" transform="translate(159.033203 0)"/>
     <use xlink:href="#DejaVuSans-6e" transform="translate(186.816406 0)"/>
     <use xlink:href="#DejaVuSans-73" transform="translate(250.195312 0)"/>
     <use xlink:href="#DejaVuSans-74" transform="translate(302.294922 0)"/>
     <use xlink:href="#DejaVuSans-61" transform="translate(341.503906 0)"/>
     <use xlink:href="#DejaVuSans-6e" transform="translate(402.783203 0)"/>
     <use xlink:href="#DejaVuSans-63" transform="translate(466.162109 0)"/>
     <use xlink:href="#DejaVuSans-65" transform="translate(521.142578 0)"/>
     <use xlink:href="#DejaVuSans-73" transform="translate(582.666016 0)"/>
    </g>
   </g>
   <g id="patch_19">
    <path d="M 769.603304 197.407006
Q 780.678619 213.228885 790.792209 227.67687
" style="fill: none; stroke: #107c10; stroke-width: 1.5; stroke-linecap: round"/>
    <path d="M 790.136823 223.253018
L 790.792209 227.67687
L 786.859896 225.546867
" style="fill: none; stroke: #107c10; stroke-width: 1.5; stroke-linecap: round"/>
   </g>
   <g id="text_16">
    <!--  -->
    <g style="fill: #107c10" transform="translate(754.488 216.72) scale(0.08 -0.08)">
     <defs>
      <path id="DejaVuSans-2191" d="M 2541 4688
L 2822 4688
L 4047 3456
L 3672 3081
L 2947 3813
L 2947 0
L 2416 0
L 2416 3813
L 1684 3081
L 1309 3456
L 2541 4688
z
" transform="scale(0.015625)"/>
     </defs>
     <use xlink:href="#DejaVuSans-2191"/>
    </g>
   </g>
   <g id="patch_20">
    <path d="M 863.633035 228.901931
Q 871.46857 213.23086 878.554106 199.059788
" style="fill: none; stroke: #107c10; stroke-width: 1.5; stroke-linecap: round"/>
    <path d="M 874.976397 201.74307
L 878.554106 199.059788
L 878.554106 203.531924
" style="fill: none; stroke: #107c10; stroke-width: 1.5; stroke-linecap: round"/>
   </g>
   <g id="text_17">
    <!--  -->
    <g style="fill: #107c10" transform="translate(887.184 216.72) scale(0.08 -0.08)">
     <use xlink:href="#DejaVuSans-2191"/>
    </g>
   </g>
   <g id="patch_21">
    <path d="M 879.431649 211.580042
Q 871.470413 230.687009 863.93919 248.761944
" style="fill: none; stroke-dasharray: 3.7,1.6; stroke-dashoffset: 0; stroke: #004578; stroke-linecap: round"/>
    <path d="M 867.323805 245.838867
L 863.93919 248.761944
L 863.631498 244.300405
" style="fill: none; stroke-dasharray: 3.7,1.6; stroke-dashoffset: 0; stroke: #004578; stroke-linecap: round"/>
   </g>
   <g id="patch_22">
    <path d="M 791.892938 249.913608
Q 780.678712 230.689221 770.027831 212.430568
" style="fill: none; stroke-dasharray: 3.7,1.6; stroke-dashoffset: 0; stroke: #004578; stroke-linecap: round"/>
    <path d="M 770.315758 216.893426
L 770.027831 212.430568
L 773.770873 214.877942
" style="fill: none; stroke-dasharray: 3.7,1.6; stroke-dashoffset: 0; stroke: #004578; stroke-linecap: round"/>
   </g>
   <g id="text_18">
    <!-- Key Benefits -->
    <g style="fill: #004578" transform="translate(453.376875 384.336) scale(0.12 -0.12)">
     <defs>
      <path id="DejaVuSans-Bold-4b" d="M 588 4666
L 1791 4666
L 1791 2963
L 3525 4666
L 4922 4666
L 2675 2456
L 5153 0
L 3647 0
L 1791 1838
L 1791 0
L 588 0
L 588 4666
z
" transform="scale(0.015625)"/>
      <path id="DejaVuSans-Bold-79" d="M 78 3500
L 1197 3500
L 2138 1125
L 2938 3500
L 4056 3500
L 2584 -331
Q 2363 -916 2067 -1148
Q 1772 -1381 1288 -1381
L 641 -1381
L 641 -647
L 991 -647
Q 1275 -647 1404 -556
Q 1534 -466 1606 -231
L 1638 -134
L 78 3500
z
" transform="scale(0.015625)"/>
      <path id="DejaVuSans-Bold-42" d="M 2456 2859
Q 2741 2859 2887 2984
Q 3034 3109 3034 3353
Q 3034 3594 2887 3720
Q 2741 3847 2456 3847
L 1791 3847
L 1791 2859
L 2456 2859
z
M 2497 819
Q 2859 819 3042 972
Q 3225 1125 3225 1434
Q 3225 1738 3044 1889
Q 2863 2041 2497 2041
L 1791 2041
L 1791 819
L 2497 819
z
M 3616 2497
Q 4003 2384 4215 2081
Q 4428 1778 4428 1338
Q 4428 663 3972 331
Q 3516 0 2584 0
L 588 0
L 588 4666
L 2394 4666
Q 3366 4666 3802 4372
Q 4238 4078 4238 3431
Q 4238 3091 4078 2852
Q 3919 2613 3616 2497
z
" transform="scale(0.015625)"/>
      <path id="DejaVuSans-Bold-66" d="M 2841 4863
L 2841 4128
L 2222 4128
Q 1984 4128 1890 4042
Q 1797 3956 1797 3744
L 1797 3500
L 2753 3500
L 2753 2700
L 1797 2700
L 1797 0
L 678 0
L 678 2700
L 122 2700
L 122 3500
L 678 3500
L 678 3744
Q 678 4316 997 4589
Q 1316 4863 1984 4863
L 2841 4863
z
" transform="scale(0.015625)"/>
     </defs>
     <use xlink:href="#DejaVuSans-Bold-4b"/>
     <use xlink:href="#DejaVuSans-Bold-65" transform="translate(75.740234 0)"/>
     <use xlink:href="#DejaVuSans-Bold-79" transform="translate(143.5625 0)"/>
     <use xlink:href="#DejaVuSans-Bold-20" transform="translate(208.748047 0)"/>
     <use xlink:href="#DejaVuSans-Bold-42" transform="translate(243.5625 0)"/>
     <use xlink:href="#DejaVuSans-Bold-65" transform="translate(319.783203 0)"/>
     <use xlink:href="#DejaVuSans-Bold-6e" transform="translate(387.605469 0)"/>
     <use xlink:href="#DejaVuSans-Bold-65" transform="translate(458.796875 0)"/>
     <use xlink:href="#DejaVuSans-Bold-66" transform="translate(526.619141 0)"/>
     <use xlink:href="#DejaVuSans-Bold-69" transform="translate(570.125 0)"/>
     <use xlink:href="#DejaVuSans-Bold-74" transform="translate(604.402344 0)"/>
     <use xlink:href="#DejaVuSans-Bold-73" transform="translate(652.205078 0)"/>
    </g>
   </g>
   <g id="text_19">
    <!-- Vertical -->
    <g style="fill: #0078d4" transform="translate(160.192187 433.224) scale(0.1 -0.1)">
     <use xlink:href="#DejaVuSans-Bold-56"/>
     <use xlink:href="#DejaVuSans-Bold-65" transform="translate(71.892578 0)"/>
     <use xlink:href="#DejaVuSans-Bold-72" transform="translate(139.714844 0)"/>
     <use xlink:href="#DejaVuSans-Bold-74" transform="translate(189.03125 0)"/>
     <use xlink:href="#DejaVuSans-Bold-69" transform="translate(236.833984 0)"/>
     <use xlink:href="#DejaVuSans-Bold-63" transform="translate(271.111328 0)"/>
     <use xlink:href="#DejaVuSans-Bold-61" transform="translate(330.388672 0)"/>
     <use xlink:href="#DejaVuSans-Bold-6c" transform="translate(397.869141 0)"/>
    </g>
   </g>
   <g id="text_20">
    <!--  Scale up/down CPU &amp; RAM -->
    <g style="fill: #004578" transform="translate(125.048125 482.112) scale(0.08 -0.08)">
     <defs>
      <path id="DejaVuSans-2022" d="M 959 2381
Q 959 2769 1229 3036
Q 1500 3303 1894 3303
Q 2281 3303 2548 3036
Q 2816 2769 2816 2381
Q 2816 1991 2547 1722
Q 2278 1453 1888 1453
Q 1497 1453 1228 1722
Q 959 1991 959 2381
z
" transform="scale(0.015625)"/>
      <path id="DejaVuSans-70" d="M 1159 525
L 1159 -1331
L 581 -1331
L 581 3500
L 1159 3500
L 1159 2969
Q 1341 3281 1617 3432
Q 1894 3584 2278 3584
Q 2916 3584 3314 3078
Q 3713 2572 3713 1747
Q 3713 922 3314 415
Q 2916 -91 2278 -91
Q 1894 -91 1617 61
Q 1341 213 1159 525
z
M 3116 1747
Q 3116 2381 2855 2742
Q 2594 3103 2138 3103
Q 1681 3103 1420 2742
Q 1159 2381 1159 1747
Q 1159 1113 1420 752
Q 1681 391 2138 391
Q 2594 391 2855 752
Q 3116 1113 3116 1747
z
" transform="scale(0.015625)"/>
      <path id="DejaVuSans-2f" d="M 1625 4666
L 2156 4666
L 531 -594
L 0 -594
L 1625 4666
z
" transform="scale(0.015625)"/>
      <path id="DejaVuSans-26" d="M 1556 2509
Q 1272 2256 1139 2004
Q 1006 1753 1006 1478
Q 1006 1022 1337 719
Q 1669 416 2169 416
Q 2466 416 2725 514
Q 2984 613 3213 813
L 1556 2509
z
M 1997 2859
L 3584 1234
Q 3769 1513 3872 1830
Q 3975 2147 3994 2503
L 4575 2503
Q 4538 2091 4375 1687
Q 4213 1284 3922 891
L 4794 0
L 4006 0
L 3559 459
Q 3234 181 2878 45
Q 2522 -91 2113 -91
Q 1359 -91 881 339
Q 403 769 403 1441
Q 403 1841 612 2192
Q 822 2544 1241 2853
Q 1091 3050 1012 3245
Q 934 3441 934 3628
Q 934 4134 1281 4442
Q 1628 4750 2203 4750
Q 2463 4750 2720 4694
Q 2978 4638 3244 4525
L 3244 3956
Q 2972 4103 2725 4179
Q 2478 4256 2266 4256
Q 1938 4256 1733 4082
Q 1528 3909 1528 3634
Q 1528 3475 1620 3314
Q 1713 3153 1997 2859
z
" transform="scale(0.015625)"/>
      <path id="DejaVuSans-52" d="M 2841 2188
Q 3044 2119 3236 1894
Q 3428 1669 3622 1275
L 4263 0
L 3584 0
L 2988 1197
Q 2756 1666 2539 1819
Q 2322 1972 1947 1972
L 1259 1972
L 1259 0
L 628 0
L 628 4666
L 2053 4666
Q 2853 4666 3247 4331
Q 3641 3997 3641 3322
Q 3641 2881 3436 2590
Q 3231 2300 2841 2188
z
M 1259 4147
L 1259 2491
L 2053 2491
Q 2509 2491 2742 2702
Q 2975 2913 2975 3322
Q 2975 3731 2742 3939
Q 2509 4147 2053 4147
L 1259 4147
z
" transform="scale(0.015625)"/>
      <path id="DejaVuSans-41" d="M 2188 4044
L 1331 1722
L 3047 1722
L 2188 4044
z
M 1831 4666
L 2547 4666
L 4325 0
L 3669 0
L 3244 1197
L 1141 1197
L 716 0
L 50 0
L 1831 4666
z
" transform="scale(0.015625)"/>
     </defs>
     <use xlink:href="#DejaVuSans-2022"/>
     <use xlink:href="#DejaVuSans-20" transform="translate(58.984375 0)"/>
     <use xlink:href="#DejaVuSans-53" transform="translate(90.771484 0)"/>
     <use xlink:href="#DejaVuSans-63" transform="translate(154.248047 0)"/>
     <use xlink:href="#DejaVuSans-61" transform="translate(209.228516 0)"/>
     <use xlink:href="#DejaVuSans-6c" transform="translate(270.507812 0)"/>
     <use xlink:href="#DejaVuSans-65" transform="translate(298.291016 0)"/>
     <use xlink:href="#DejaVuSans-20" transform="translate(359.814453 0)"/>
     <use xlink:href="#DejaVuSans-75" transform="translate(391.601562 0)"/>
     <use xlink:href="#DejaVuSans-70" transform="translate(454.980469 0)"/>
     <use xlink:href="#DejaVuSans-2f" transform="translate(518.457031 0)"/>
     <use xlink:href="#DejaVuSans-64" transform="translate(552.148438 0)"/>
     <use xlink:href="#DejaVuSans-6f" transform="translate(615.625 0)"/>
     <use xlink:href="#DejaVuSans-77" transform="translate(676.806641 0)"/>
     <use xlink:href="#DejaVuSans-6e" transform="translate(758.59375 0)"/>
     <use xlink:href="#DejaVuSans-20" transform="translate(821.972656 0)"/>
     <use xlink:href="#DejaVuSans-43" transform="translate(853.759766 0)"/>
     <use xlink:href="#DejaVuSans-50" transform="translate(923.583984 0)"/>
     <use xlink:href="#DejaVuSans-55" transform="translate(983.886719 0)"/>
     <use xlink:href="#DejaVuSans-20" transform="translate(1057.080078 0)"/>
     <use xlink:href="#DejaVuSans-26" transform="translate(1088.867188 0)"/>
     <use xlink:href="#DejaVuSans-20" transform="translate(1166.845703 0)"/>
     <use xlink:href="#DejaVuSans-52" transform="translate(1198.632812 0)"/>
     <use xlink:href="#DejaVuSans-41" transform="translate(1264.115234 0)"/>
     <use xlink:href="#DejaVuSans-4d" transform="translate(1332.523438 0)"/>
    </g>
   </g>
   <g id="text_21">
    <!--  Simple implementation -->
    <g style="fill: #004578" transform="translate(131.54625 524.016) scale(0.08 -0.08)">
     <use xlink:href="#DejaVuSans-2022"/>
     <use xlink:href="#DejaVuSans-20" transform="translate(58.984375 0)"/>
     <use xlink:href="#DejaVuSans-53" transform="translate(90.771484 0)"/>
     <use xlink:href="#DejaVuSans-69" transform="translate(154.248047 0)"/>
     <use xlink:href="#DejaVuSans-6d" transform="translate(182.03125 0)"/>
     <use xlink:href="#DejaVuSans-70" transform="translate(279.443359 0)"/>
     <use xlink:href="#DejaVuSans-6c" transform="translate(342.919922 0)"/>
     <use xlink:href="#DejaVuSans-65" transform="translate(370.703125 0)"/>
     <use xlink:href="#DejaVuSans-20" transform="translate(432.226562 0)"/>
     <use xlink:href="#DejaVuSans-69" transform="translate(464.013672 0)"/>
     <use xlink:href="#DejaVuSans-6d" transform="translate(491.796875 0)"/>
     <use xlink:href="#DejaVuSans-70" transform="translate(589.208984 0)"/>
     <use xlink:href="#DejaVuSans-6c" transform="translate(652.685547 0)"/>
     <use xlink:href="#DejaVuSans-65" transform="translate(680.46875 0)"/>
     <use xlink:href="#DejaVuSans-6d" transform="translate(741.992188 0)"/>
     <use xlink:href="#DejaVuSans-65" transform="translate(839.404297 0)"/>
     <use xlink:href="#DejaVuSans-6e" transform="translate(900.927734 0)"/>
     <use xlink:href="#DejaVuSans-74" transform="translate(964.306641 0)"/>
     <use xlink:href="#DejaVuSans-61" transform="translate(1003.515625 0)"/>
     <use xlink:href="#DejaVuSans-74" transform="translate(1064.794922 0)"/>
     <use xlink:href="#DejaVuSans-69" transform="translate(1104.003906 0)"/>
     <use xlink:href="#DejaVuSans-6f" transform="translate(1131.787109 0)"/>
     <use xlink:href="#DejaVuSans-6e" transform="translate(1192.96875 0)"/>
    </g>
   </g>
   <g id="text_22">
    <!--  Limited by hardware max -->
    <g style="fill: #004578" transform="translate(126.979375 565.92) scale(0.08 -0.08)">
     <defs>
      <path id="DejaVuSans-62" d="M 3116 1747
Q 3116 2381 2855 2742
Q 2594 3103 2138 3103
Q 1681 3103 1420 2742
Q 1159 2381 1159 1747
Q 1159 1113 1420 752
Q 1681 391 2138 391
Q 2594 391 2855 752
Q 3116 1113 3116 1747
z
M 1159 2969
Q 1341 3281 1617 3432
Q 1894 3584 2278 3584
Q 2916 3584 3314 3078
Q 3713 2572 3713 1747
Q 3713 922 3314 415
Q 2916 -91 2278 -91
Q 1894 -91 1617 61
Q 1341 213 1159 525
L 1159 0
L 581 0
L 581 4863
L 1159 4863
L 1159 2969
z
" transform="scale(0.015625)"/>
      <path id="DejaVuSans-79" d="M 2059 -325
Q 1816 -950 1584 -1140
Q 1353 -1331 966 -1331
L 506 -1331
L 506 -850
L 844 -850
Q 1081 -850 1212 -737
Q 1344 -625 1503 -206
L 1606 56
L 191 3500
L 800 3500
L 1894 763
L 2988 3500
L 3597 3500
L 2059 -325
z
" transform="scale(0.015625)"/>
      <path id="DejaVuSans-68" d="M 3513 2113
L 3513 0
L 2938 0
L 2938 2094
Q 2938 2591 2744 2837
Q 2550 3084 2163 3084
Q 1697 3084 1428 2787
Q 1159 2491 1159 1978
L 1159 0
L 581 0
L 581 4863
L 1159 4863
L 1159 2956
Q 1366 3272 1645 3428
Q 1925 3584 2291 3584
Q 2894 3584 3203 3211
Q 3513 2838 3513 2113
z
" transform="scale(0.015625)"/>
      <path id="DejaVuSans-78" d="M 3513 3500
L 2247 1797
L 3578 0
L 2900 0
L 1881 1375
L 863 0
L 184 0
L 1544 1831
L 300 3500
L 978 3500
L 1906 2253
L 2834 3500
L 3513 3500
z
" transform="scale(0.015625)"/>
     </defs>
     <use xlink:href="#DejaVuSans-2022"/>
     <use xlink:href="#DejaVuSans-20" transform="translate(58.984375 0)"/>
     <use xlink:href="#DejaVuSans-4c" transform="translate(90.771484 0)"/>
     <use xlink:href="#DejaVuSans-69" transform="translate(146.484375 0)"/>
     <use xlink:href="#DejaVuSans-6d" transform="translate(174.267578 0)"/>
     <use xlink:href="#DejaVuSans-69" transform="translate(271.679688 0)"/>
     <use xlink:href="#DejaVuSans-74" transform="translate(299.462891 0)"/>
     <use xlink:href="#DejaVuSans-65" transform="translate(338.671875 0)"/>
     <use xlink:href="#DejaVuSans-64" transform="translate(400.195312 0)"/>
     <use xlink:href="#DejaVuSans-20" transform="translate(463.671875 0)"/>
     <use xlink:href="#DejaVuSans-62" transform="translate(495.458984 0)"/>
     <use xlink:href="#DejaVuSans-79" transform="translate(558.935547 0)"/>
     <use xlink:href="#DejaVuSans-20" transform="translate(618.115234 0)"/>
     <use xlink:href="#DejaVuSans-68" transform="translate(649.902344 0)"/>
     <use xlink:href="#DejaVuSans-61" transform="translate(713.28125 0)"/>
     <use xlink:href="#DejaVuSans-72" transform="translate(774.560547 0)"/>
     <use xlink:href="#DejaVuSans-64" transform="translate(813.923828 0)"/>
     <use xlink:href="#DejaVuSans-77" transform="translate(877.400391 0)"/>
     <use xlink:href="#DejaVuSans-61" transform="translate(959.1875 0)"/>
     <use xlink:href="#DejaVuSans-72" transform="translate(1020.466797 0)"/>
     <use xlink:href="#DejaVuSans-65" transform="translate(1059.330078 0)"/>
     <use xlink:href="#DejaVuSans-20" transform="translate(1120.853516 0)"/>
     <use xlink:href="#DejaVuSans-6d" transform="translate(1152.640625 0)"/>
     <use xlink:href="#DejaVuSans-61" transform="translate(1250.052734 0)"/>
     <use xlink:href="#DejaVuSans-78" transform="translate(1311.332031 0)"/>
    </g>
   </g>
   <g id="text_23">
    <!-- Horizontal -->
    <g style="fill: #ff8c00" transform="translate(466.897969 433.224) scale(0.1 -0.1)">
     <use xlink:href="#DejaVuSans-Bold-48"/>
     <use xlink:href="#DejaVuSans-Bold-6f" transform="translate(83.691406 0)"/>
     <use xlink:href="#DejaVuSans-Bold-72" transform="translate(152.392578 0)"/>
     <use xlink:href="#DejaVuSans-Bold-69" transform="translate(201.708984 0)"/>
     <use xlink:href="#DejaVuSans-Bold-7a" transform="translate(235.986328 0)"/>
     <use xlink:href="#DejaVuSans-Bold-6f" transform="translate(294.189453 0)"/>
     <use xlink:href="#DejaVuSans-Bold-6e" transform="translate(362.890625 0)"/>
     <use xlink:href="#DejaVuSans-Bold-74" transform="translate(434.082031 0)"/>
     <use xlink:href="#DejaVuSans-Bold-61" transform="translate(481.884766 0)"/>
     <use xlink:href="#DejaVuSans-Bold-6c" transform="translate(549.365234 0)"/>
    </g>
   </g>
   <g id="text_24">
    <!--  Add/remove instances -->
    <g style="fill: #004578" transform="translate(447.86875 482.112) scale(0.08 -0.08)">
     <defs>
      <path id="DejaVuSans-76" d="M 191 3500
L 800 3500
L 1894 563
L 2988 3500
L 3597 3500
L 2284 0
L 1503 0
L 191 3500
z
" transform="scale(0.015625)"/>
     </defs>
     <use xlink:href="#DejaVuSans-2022"/>
     <use xlink:href="#DejaVuSans-20" transform="translate(58.984375 0)"/>
     <use xlink:href="#DejaVuSans-41" transform="translate(90.771484 0)"/>
     <use xlink:href="#DejaVuSans-64" transform="translate(157.429688 0)"/>
     <use xlink:href="#DejaVuSans-64" transform="translate(220.90625 0)"/>
     <use xlink:href="#DejaVuSans-2f" transform="translate(284.382812 0)"/>
     <use xlink:href="#DejaVuSans-72" transform="translate(318.074219 0)"/>
     <use xlink:href="#DejaVuSans-65" transform="translate(356.9375 0)"/>
     <use xlink:href="#DejaVuSans-6d" transform="translate(418.460938 0)"/>
     <use xlink:href="#DejaVuSans-6f" transform="translate(515.873047 0)"/>
     <use xlink:href="#DejaVuSans-76" transform="translate(577.054688 0)"/>
     <use xlink:href="#DejaVuSans-65" transform="translate(636.234375 0)"/>
     <use xlink:href="#DejaVuSans-20" transform="translate(697.757812 0)"/>
     <use xlink:href="#DejaVuSans-69" transform="translate(729.544922 0)"/>
     <use xlink:href="#DejaVuSans-6e" transform="translate(757.328125 0)"/>
     <use xlink:href="#DejaVuSans-73" transform="translate(820.707031 0)"/>
     <use xlink:href="#DejaVuSans-74" transform="translate(872.806641 0)"/>
     <use xlink:href="#DejaVuSans-61" transform="translate(912.015625 0)"/>
     <use xlink:href="#DejaVuSans-6e" transform="translate(973.294922 0)"/>
     <use xlink:href="#DejaVuSans-63" transform="translate(1036.673828 0)"/>
     <use xlink:href="#DejaVuSans-65" transform="translate(1091.654297 0)"/>
     <use xlink:href="#DejaVuSans-73" transform="translate(1153.177734 0)"/>
    </g>
   </g>
   <g id="text_25">
    <!--  Better fault tolerance -->
    <g style="fill: #004578" transform="translate(449.50625 524.016) scale(0.08 -0.08)">
     <defs>
      <path id="DejaVuSans-66" d="M 2375 4863
L 2375 4384
L 1825 4384
Q 1516 4384 1395 4259
Q 1275 4134 1275 3809
L 1275 3500
L 2222 3500
L 2222 3053
L 1275 3053
L 1275 0
L 697 0
L 697 3053
L 147 3053
L 147 3500
L 697 3500
L 697 3744
Q 697 4328 969 4595
Q 1241 4863 1831 4863
L 2375 4863
z
" transform="scale(0.015625)"/>
     </defs>
     <use xlink:href="#DejaVuSans-2022"/>
     <use xlink:href="#DejaVuSans-20" transform="translate(58.984375 0)"/>
     <use xlink:href="#DejaVuSans-42" transform="translate(90.771484 0)"/>
     <use xlink:href="#DejaVuSans-65" transform="translate(159.375 0)"/>
     <use xlink:href="#DejaVuSans-74" transform="translate(220.898438 0)"/>
     <use xlink:href="#DejaVuSans-74" transform="translate(260.107422 0)"/>
     <use xlink:href="#DejaVuSans-65" transform="translate(299.316406 0)"/>
     <use xlink:href="#DejaVuSans-72" transform="translate(360.839844 0)"/>
     <use xlink:href="#DejaVuSans-20" transform="translate(401.953125 0)"/>
     <use xlink:href="#DejaVuSans-66" transform="translate(433.740234 0)"/>
     <use xlink:href="#DejaVuSans-61" transform="translate(468.945312 0)"/>
     <use xlink:href="#DejaVuSans-75" transform="translate(530.224609 0)"/>
     <use xlink:href="#DejaVuSans-6c" transform="translate(593.603516 0)"/>
     <use xlink:href="#DejaVuSans-74" transform="translate(621.386719 0)"/>
     <use xlink:href="#DejaVuSans-20" transform="translate(660.595703 0)"/>
     <use xlink:href="#DejaVuSans-74" transform="translate(692.382812 0)"/>
     <use xlink:href="#DejaVuSans-6f" transform="translate(731.591797 0)"/>
     <use xlink:href="#DejaVuSans-6c" transform="translate(792.773438 0)"/>
     <use xlink:href="#DejaVuSans-65" transform="translate(820.556641 0)"/>
     <use xlink:href="#DejaVuSans-72" transform="translate(882.080078 0)"/>
     <use xlink:href="#DejaVuSans-61" transform="translate(923.193359 0)"/>
     <use xlink:href="#DejaVuSans-6e" transform="translate(984.472656 0)"/>
     <use xlink:href="#DejaVuSans-63" transform="translate(1047.851562 0)"/>
     <use xlink:href="#DejaVuSans-65" transform="translate(1102.832031 0)"/>
    </g>
   </g>
   <g id="text_26">
    <!--  Requires load balancing -->
    <g style="fill: #004578" transform="translate(444.53875 565.92) scale(0.08 -0.08)">
     <defs>
      <path id="DejaVuSans-71" d="M 947 1747
Q 947 1113 1208 752
Q 1469 391 1925 391
Q 2381 391 2643 752
Q 2906 1113 2906 1747
Q 2906 2381 2643 2742
Q 2381 3103 1925 3103
Q 1469 3103 1208 2742
Q 947 2381 947 1747
z
M 2906 525
Q 2725 213 2448 61
Q 2172 -91 1784 -91
Q 1150 -91 751 415
Q 353 922 353 1747
Q 353 2572 751 3078
Q 1150 3584 1784 3584
Q 2172 3584 2448 3432
Q 2725 3281 2906 2969
L 2906 3500
L 3481 3500
L 3481 -1331
L 2906 -1331
L 2906 525
z
" transform="scale(0.015625)"/>
     </defs>
     <use xlink:href="#DejaVuSans-2022"/>
     <use xlink:href="#DejaVuSans-20" transform="translate(58.984375 0)"/>
     <use xlink:href="#DejaVuSans-52" transform="translate(90.771484 0)"/>
     <use xlink:href="#DejaVuSans-65" transform="translate(155.753906 0)"/>
     <use xlink:href="#DejaVuSans-71" transform="translate(217.277344 0)"/>
     <use xlink:href="#DejaVuSans-75" transform="translate(280.753906 0)"/>
     <use xlink:href="#DejaVuSans-69" transform="translate(344.132812 0)"/>
     <use xlink:href="#DejaVuSans-72" transform="translate(371.916016 0)"/>
     <use xlink:href="#DejaVuSans-65" transform="translate(410.779297 0)"/>
     <use xlink:href="#DejaVuSans-73" transform="translate(472.302734 0)"/>
     <use xlink:href="#DejaVuSans-20" transform="translate(524.402344 0)"/>
     <use xlink:href="#DejaVuSans-6c" transform="translate(556.189453 0)"/>
     <use xlink:href="#DejaVuSans-6f" transform="translate(583.972656 0)"/>
     <use xlink:href="#DejaVuSans-61" transform="translate(645.154297 0)"/>
     <use xlink:href="#DejaVuSans-64" transform="translate(706.433594 0)"/>
     <use xlink:href="#DejaVuSans-20" transform="translate(769.910156 0)"/>
     <use xlink:href="#DejaVuSans-62" transform="translate(801.697266 0)"/>
     <use xlink:href="#DejaVuSans-61" transform="translate(865.173828 0)"/>
     <use xlink:href="#DejaVuSans-6c" transform="translate(926.453125 0)"/>
     <use xlink:href="#DejaVuSans-61" transform="translate(954.236328 0)"/>
     <use xlink:href="#DejaVuSans-6e" transform="translate(1015.515625 0)"/>
     <use xlink:href="#DejaVuSans-63" transform="translate(1078.894531 0)"/>
     <use xlink:href="#DejaVuSans-69" transform="translate(1133.875 0)"/>
     <use xlink:href="#DejaVuSans-6e" transform="translate(1161.658203 0)"/>
     <use xlink:href="#DejaVuSans-67" transform="translate(1225.037109 0)"/>
    </g>
   </g>
   <g id="text_27">
    <!-- Auto-Scaling -->
    <g style="fill: #107c10" transform="translate(774.525625 433.224) scale(0.1 -0.1)">
     <use xlink:href="#DejaVuSans-Bold-41"/>
     <use xlink:href="#DejaVuSans-Bold-75" transform="translate(77.392578 0)"/>
     <use xlink:href="#DejaVuSans-Bold-74" transform="translate(148.583984 0)"/>
     <use xlink:href="#DejaVuSans-Bold-6f" transform="translate(196.386719 0)"/>
     <use xlink:href="#DejaVuSans-Bold-2d" transform="translate(265.087891 0)"/>
     <use xlink:href="#DejaVuSans-Bold-53" transform="translate(306.591797 0)"/>
     <use xlink:href="#DejaVuSans-Bold-63" transform="translate(378.613281 0)"/>
     <use xlink:href="#DejaVuSans-Bold-61" transform="translate(437.890625 0)"/>
     <use xlink:href="#DejaVuSans-Bold-6c" transform="translate(505.371094 0)"/>
     <use xlink:href="#DejaVuSans-Bold-69" transform="translate(539.648438 0)"/>
     <use xlink:href="#DejaVuSans-Bold-6e" transform="translate(573.925781 0)"/>
     <use xlink:href="#DejaVuSans-Bold-67" transform="translate(645.117188 0)"/>
    </g>
   </g>
   <g id="text_28">
    <!--  Automatic adjustments -->
    <g style="fill: #004578" transform="translate(760.111875 482.112) scale(0.08 -0.08)">
     <defs>
      <path id="DejaVuSans-6a" d="M 603 3500
L 1178 3500
L 1178 -63
Q 1178 -731 923 -1031
Q 669 -1331 103 -1331
L -116 -1331
L -116 -844
L 38 -844
Q 366 -844 484 -692
Q 603 -541 603 -63
L 603 3500
z
M 603 4863
L 1178 4863
L 1178 4134
L 603 4134
L 603 4863
z
" transform="scale(0.015625)"/>
     </defs>
     <use xlink:href="#DejaVuSans-2022"/>
     <use xlink:href="#DejaVuSans-20" transform="translate(58.984375 0)"/>
     <use xlink:href="#DejaVuSans-41" transform="translate(90.771484 0)"/>
     <use xlink:href="#DejaVuSans-75" transform="translate(159.179688 0)"/>
     <use xlink:href="#DejaVuSans-74" transform="translate(222.558594 0)"/>
     <use xlink:href="#DejaVuSans-6f" transform="translate(261.767578 0)"/>
     <use xlink:href="#DejaVuSans-6d" transform="translate(322.949219 0)"/>
     <use xlink:href="#DejaVuSans-61" transform="translate(420.361328 0)"/>
     <use xlink:href="#DejaVuSans-74" transform="translate(481.640625 0)"/>
     <use xlink:href="#DejaVuSans-69" transform="translate(520.849609 0)"/>
     <use xlink:href="#DejaVuSans-63" transform="translate(548.632812 0)"/>
     <use xlink:href="#DejaVuSans-20" transform="translate(603.613281 0)"/>
     <use xlink:href="#DejaVuSans-61" transform="translate(635.400391 0)"/>
     <use xlink:href="#DejaVuSans-64" transform="translate(696.679688 0)"/>
     <use xlink:href="#DejaVuSans-6a" transform="translate(760.15625 0)"/>
     <use xlink:href="#DejaVuSans-75" transform="translate(787.939453 0)"/>
     <use xlink:href="#DejaVuSans-73" transform="translate(851.318359 0)"/>
     <use xlink:href="#DejaVuSans-74" transform="translate(903.417969 0)"/>
     <use xlink:href="#DejaVuSans-6d" transform="translate(942.626953 0)"/>
     <use xlink:href="#DejaVuSans-65" transform="translate(1040.039062 0)"/>
     <use xlink:href="#DejaVuSans-6e" transform="translate(1101.5625 0)"/>
     <use xlink:href="#DejaVuSans-74" transform="translate(1164.941406 0)"/>
     <use xlink:href="#DejaVuSans-73" transform="translate(1204.150391 0)"/>
    </g>
   </g>
   <g id="text_29">
    <!--  Cost optimization -->
    <g style="fill: #004578" transform="translate(771.679375 524.016) scale(0.08 -0.08)">
     <defs>
      <path id="DejaVuSans-7a" d="M 353 3500
L 3084 3500
L 3084 2975
L 922 459
L 3084 459
L 3084 0
L 275 0
L 275 525
L 2438 3041
L 353 3041
L 353 3500
z
" transform="scale(0.015625)"/>
     </defs>
     <use xlink:href="#DejaVuSans-2022"/>
     <use xlink:href="#DejaVuSans-20" transform="translate(58.984375 0)"/>
     <use xlink:href="#DejaVuSans-43" transform="translate(90.771484 0)"/>
     <use xlink:href="#DejaVuSans-6f" transform="translate(160.595703 0)"/>
     <use xlink:href="#DejaVuSans-73" transform="translate(221.777344 0)"/>
     <use xlink:href="#DejaVuSans-74" transform="translate(273.876953 0)"/>
     <use xlink:href="#DejaVuSans-20" transform="translate(313.085938 0)"/>
     <use xlink:href="#DejaVuSans-6f" transform="translate(344.873047 0)"/>
     <use xlink:href="#DejaVuSans-70" transform="translate(406.054688 0)"/>
     <use xlink:href="#DejaVuSans-74" transform="translate(469.53125 0)"/>
     <use xlink:href="#DejaVuSans-69" transform="translate(508.740234 0)"/>
     <use xlink:href="#DejaVuSans-6d" transform="translate(536.523438 0)"/>
     <use xlink:href="#DejaVuSans-69" transform="translate(633.935547 0)"/>
     <use xlink:href="#DejaVuSans-7a" transform="translate(661.71875 0)"/>
     <use xlink:href="#DejaVuSans-61" transform="translate(714.208984 0)"/>
     <use xlink:href="#DejaVuSans-74" transform="translate(775.488281 0)"/>
     <use xlink:href="#DejaVuSans-69" transform="translate(814.697266 0)"/>
     <use xlink:href="#DejaVuSans-6f" transform="translate(842.480469 0)"/>
     <use xlink:href="#DejaVuSans-6e" transform="translate(903.662109 0)"/>
    </g>
   </g>
   <g id="text_30">
    <!--  Handles traffic spikes -->
    <g style="fill: #004578" transform="translate(763.755625 565.92) scale(0.08 -0.08)">
     <defs>
      <path id="DejaVuSans-48" d="M 628 4666
L 1259 4666
L 1259 2753
L 3553 2753
L 3553 4666
L 4184 4666
L 4184 0
L 3553 0
L 3553 2222
L 1259 2222
L 1259 0
L 628 0
L 628 4666
z
" transform="scale(0.015625)"/>
     </defs>
     <use xlink:href="#DejaVuSans-2022"/>
     <use xlink:href="#DejaVuSans-20" transform="translate(58.984375 0)"/>
     <use xlink:href="#DejaVuSans-48" transform="translate(90.771484 0)"/>
     <use xlink:href="#DejaVuSans-61" transform="translate(165.966797 0)"/>
     <use xlink:href="#DejaVuSans-6e" transform="translate(227.246094 0)"/>
     <use xlink:href="#DejaVuSans-64" transform="translate(290.625 0)"/>
     <use xlink:href="#DejaVuSans-6c" transform="translate(354.101562 0)"/>
     <use xlink:href="#DejaVuSans-65" transform="translate(381.884766 0)"/>
     <use xlink:href="#DejaVuSans-73" transform="translate(443.408203 0)"/>
     <use xlink:href="#DejaVuSans-20" transform="translate(495.507812 0)"/>
     <use xlink:href="#DejaVuSans-74" transform="translate(527.294922 0)"/>
     <use xlink:href="#DejaVuSans-72" transform="translate(566.503906 0)"/>
     <use xlink:href="#DejaVuSans-61" transform="translate(607.617188 0)"/>
     <use xlink:href="#DejaVuSans-66" transform="translate(668.896484 0)"/>
     <use xlink:href="#DejaVuSans-66" transform="translate(704.101562 0)"/>
     <use xlink:href="#DejaVuSans-69" transform="translate(739.306641 0)"/>
     <use xlink:href="#DejaVuSans-63" transform="translate(767.089844 0)"/>
     <use xlink:href="#DejaVuSans-20" transform="translate(822.070312 0)"/>
     <use xlink:href="#DejaVuSans-73" transform="translate(853.857422 0)"/>
     <use xlink:href="#DejaVuSans-70" transform="translate(905.957031 0)"/>
     <use xlink:href="#DejaVuSans-69" transform="translate(969.433594 0)"/>
     <use xlink:href="#DejaVuSans-6b" transform="translate(997.216797 0)"/>
     <use xlink:href="#DejaVuSans-65" transform="translate(1051.501953 0)"/>
     <use xlink:href="#DejaVuSans-73" transform="translate(1113.025391 0)"/>
    </g>
   </g>
  </g>
 </g>
 <defs>
  <clipPath id="p2e6d3375ed">
   <rect x="7.2" y="7.2" width="977.76" height="698.4"/>
  </clipPath>
 </defs>
</svg>
