<?xml version="1.0" encoding="utf-8" standalone="no"?>
<!DOCTYPE svg PUBLIC "-//W3C//DTD SVG 1.1//EN"
  "http://www.w3.org/Graphics/SVG/1.1/DTD/svg11.dtd">
<svg xmlns:xlink="http://www.w3.org/1999/xlink" width="712.8pt" height="712.8pt" viewBox="0 0 712.8 712.8" xmlns="http://www.w3.org/2000/svg" version="1.1">
 <metadata>
  <rdf:RDF xmlns:dc="http://purl.org/dc/elements/1.1/" xmlns:cc="http://creativecommons.org/ns#" xmlns:rdf="http://www.w3.org/1999/02/22-rdf-syntax-ns#">
   <cc:Work>
    <dc:type rdf:resource="http://purl.org/dc/dcmitype/StillImage"/>
    <dc:date>2025-11-27T19:16:28.256427</dc:date>
    <dc:format>image/svg+xml</dc:format>
    <dc:creator>
     <cc:Agent>
      <dc:title>Matplotlib v3.10.7, https://matplotlib.org/</dc:title>
     </cc:Agent>
    </dc:creator>
   </cc:Work>
  </rdf:RDF>
 </metadata>
 <defs>
  <style type="text/css">*{stroke-linejoin: round; stroke-linecap: butt}</style>
 </defs>
 <g id="figure_1">
  <g id="patch_1">
   <path d="M 0 712.8 
L 712.8 712.8 
L 712.8 0 
L 0 0 
z
" style="fill: #ffffff"/>
  </g>
  <g id="axes_1">
   <g id="line2d_1">
    <path d="M 356.4 356.4 
L 356.4 160.848 
" clip-path="url(#pa5406156fe)" style="fill: none; stroke: #107c10; stroke-width: 3; stroke-linecap: square"/>
   </g>
   <g id="line2d_2">
    <path d="M 356.4 160.848 
L 480.365769 90.554549 
" clip-path="url(#pa5406156fe)" style="fill: none; stroke: #107c10; stroke-opacity: 0.6; stroke-width: 1.5; stroke-linecap: square"/>
   </g>
   <g id="line2d_3">
    <path d="M 356.4 160.848 
L 356.4 63.072 
" clip-path="url(#pa5406156fe)" style="fill: none; stroke: #107c10; stroke-opacity: 0.6; stroke-width: 1.5; stroke-linecap: square"/>
   </g>
   <g id="line2d_4">
    <path d="M 356.4 160.848 
L 232.434231 90.554549 
" clip-path="url(#pa5406156fe)" style="fill: none; stroke: #107c10; stroke-opacity: 0.6; stroke-width: 1.5; stroke-linecap: square"/>
   </g>
   <g id="line2d_5">
    <path d="M 356.4 356.4 
L 170.418996 295.971109 
" clip-path="url(#pa5406156fe)" style="fill: none; stroke: #5c2d91; stroke-width: 3; stroke-linecap: square"/>
   </g>
   <g id="line2d_6">
    <path d="M 170.418996 295.971109 
L 141.873481 156.350785 
" clip-path="url(#pa5406156fe)" style="fill: none; stroke: #5c2d91; stroke-opacity: 0.6; stroke-width: 1.5; stroke-linecap: square"/>
   </g>
   <g id="line2d_7">
    <path d="M 170.418996 295.971109 
L 77.428494 265.756663 
" clip-path="url(#pa5406156fe)" style="fill: none; stroke: #5c2d91; stroke-opacity: 0.6; stroke-width: 1.5; stroke-linecap: square"/>
   </g>
   <g id="line2d_8">
    <path d="M 170.418996 295.971109 
L 65.258422 392.147691 
" clip-path="url(#pa5406156fe)" style="fill: none; stroke: #5c2d91; stroke-opacity: 0.6; stroke-width: 1.5; stroke-linecap: square"/>
   </g>
   <g id="line2d_9">
    <path d="M 356.4 356.4 
L 241.457418 514.604891 
" clip-path="url(#pa5406156fe)" style="fill: none; stroke: #ff8c00; stroke-width: 3; stroke-linecap: square"/>
   </g>
   <g id="line2d_10">
    <path d="M 241.457418 514.604891 
L 99.849551 498.608236 
" clip-path="url(#pa5406156fe)" style="fill: none; stroke: #ff8c00; stroke-opacity: 0.6; stroke-width: 1.5; stroke-linecap: square"/>
   </g>
   <g id="line2d_11">
    <path d="M 241.457418 514.604891 
L 183.986128 593.707337 
" clip-path="url(#pa5406156fe)" style="fill: none; stroke: #ff8c00; stroke-opacity: 0.6; stroke-width: 1.5; stroke-linecap: square"/>
   </g>
   <g id="line2d_12">
    <path d="M 241.457418 514.604891 
L 300.430379 644.338738 
" clip-path="url(#pa5406156fe)" style="fill: none; stroke: #ff8c00; stroke-opacity: 0.6; stroke-width: 1.5; stroke-linecap: square"/>
   </g>
   <g id="line2d_13">
    <path d="M 356.4 356.4 
L 471.342582 514.604891 
" clip-path="url(#pa5406156fe)" style="fill: none; stroke: #d13438; stroke-width: 3; stroke-linecap: square"/>
   </g>
   <g id="line2d_14">
    <path d="M 471.342582 514.604891 
L 412.369621 644.338738 
" clip-path="url(#pa5406156fe)" style="fill: none; stroke: #d13438; stroke-opacity: 0.6; stroke-width: 1.5; stroke-linecap: square"/>
   </g>
   <g id="line2d_15">
    <path d="M 471.342582 514.604891 
L 528.813872 593.707337 
" clip-path="url(#pa5406156fe)" style="fill: none; stroke: #d13438; stroke-opacity: 0.6; stroke-width: 1.5; stroke-linecap: square"/>
   </g>
   <g id="line2d_16">
    <path d="M 471.342582 514.604891 
L 612.950449 498.608236 
" clip-path="url(#pa5406156fe)" style="fill: none; stroke: #d13438; stroke-opacity: 0.6; stroke-width: 1.5; stroke-linecap: square"/>
   </g>
   <g id="line2d_17">
    <path d="M 356.4 356.4 
L 542.381004 295.971109 
" clip-path="url(#pa5406156fe)" style="fill: none; stroke: #004578; stroke-width: 3; stroke-linecap: square"/>
   </g>
   <g id="line2d_18">
    <path d="M 542.381004 295.971109 
L 647.541578 392.147691 
" clip-path="url(#pa5406156fe)" style="fill: none; stroke: #004578; stroke-opacity: 0.6; stroke-width: 1.5; stroke-linecap: square"/>
   </g>
   <g id="line2d_19">
    <path d="M 542.381004 295.971109 
L 635.371506 265.756663 
" clip-path="url(#pa5406156fe)" style="fill: none; stroke: #004578; stroke-opacity: 0.6; stroke-width: 1.5; stroke-linecap: square"/>
   </g>
   <g id="line2d_20">
    <path d="M 542.381004 295.971109 
L 570.926519 156.350785 
" clip-path="url(#pa5406156fe)" style="fill: none; stroke: #004578; stroke-opacity: 0.6; stroke-width: 1.5; stroke-linecap: square"/>
   </g>
   <g id="text_1">
    <!-- NIST Cloud Computing Essential Characteristics -->
    <g style="fill: #004578" transform="translate(168.00375 52.757812) scale(0.14 -0.14)">
     <defs>
      <path id="DejaVuSans-Bold-4e" d="M 588 4666 
L 1931 4666 
L 3628 1466 
L 3628 4666 
L 4769 4666 
L 4769 0 
L 3425 0 
L 1728 3200 
L 1728 0 
L 588 0 
L 588 4666 
z
" transform="scale(0.015625)"/>
      <path id="DejaVuSans-Bold-49" d="M 588 4666 
L 1791 4666 
L 1791 0 
L 588 0 
L 588 4666 
z
" transform="scale(0.015625)"/>
      <path id="DejaVuSans-Bold-53" d="M 3834 4519 
L 3834 3531 
Q 3450 3703 3084 3790 
Q 2719 3878 2394 3878 
Q 1963 3878 1756 3759 
Q 1550 3641 1550 3391 
Q 1550 3203 1689 3098 
Q 1828 2994 2194 2919 
L 2706 2816 
Q 3484 2659 3812 2340 
Q 4141 2022 4141 1434 
Q 4141 663 3683 286 
Q 3225 -91 2284 -91 
Q 1841 -91 1394 -6 
Q 947 78 500 244 
L 500 1259 
Q 947 1022 1364 901 
Q 1781 781 2169 781 
Q 2563 781 2772 912 
Q 2981 1044 2981 1288 
Q 2981 1506 2839 1625 
Q 2697 1744 2272 1838 
L 1806 1941 
Q 1106 2091 782 2419 
Q 459 2747 459 3303 
Q 459 4000 909 4375 
Q 1359 4750 2203 4750 
Q 2588 4750 2994 4692 
Q 3400 4634 3834 4519 
z
" transform="scale(0.015625)"/>
      <path id="DejaVuSans-Bold-54" d="M 31 4666 
L 4331 4666 
L 4331 3756 
L 2784 3756 
L 2784 0 
L 1581 0 
L 1581 3756 
L 31 3756 
L 31 4666 
z
" transform="scale(0.015625)"/>
      <path id="DejaVuSans-Bold-20" transform="scale(0.015625)"/>
      <path id="DejaVuSans-Bold-43" d="M 4288 256 
Q 3956 84 3597 -3 
Q 3238 -91 2847 -91 
Q 1681 -91 1000 561 
Q 319 1213 319 2328 
Q 319 3447 1000 4098 
Q 1681 4750 2847 4750 
Q 3238 4750 3597 4662 
Q 3956 4575 4288 4403 
L 4288 3438 
Q 3953 3666 3628 3772 
Q 3303 3878 2944 3878 
Q 2300 3878 1931 3465 
Q 1563 3053 1563 2328 
Q 1563 1606 1931 1193 
Q 2300 781 2944 781 
Q 3303 781 3628 887 
Q 3953 994 4288 1222 
L 4288 256 
z
" transform="scale(0.015625)"/>
      <path id="DejaVuSans-Bold-6c" d="M 538 4863 
L 1656 4863 
L 1656 0 
L 538 0 
L 538 4863 
z
" transform="scale(0.015625)"/>
      <path id="DejaVuSans-Bold-6f" d="M 2203 2784 
Q 1831 2784 1636 2517 
Q 1441 2250 1441 1747 
Q 1441 1244 1636 976 
Q 1831 709 2203 709 
Q 2569 709 2762 976 
Q 2956 1244 2956 1747 
Q 2956 2250 2762 2517 
Q 2569 2784 2203 2784 
z
M 2203 3584 
Q 3106 3584 3614 3096 
Q 4122 2609 4122 1747 
Q 4122 884 3614 396 
Q 3106 -91 2203 -91 
Q 1297 -91 786 396 
Q 275 884 275 1747 
Q 275 2609 786 3096 
Q 1297 3584 2203 3584 
z
" transform="scale(0.015625)"/>
      <path id="DejaVuSans-Bold-75" d="M 500 1363 
L 500 3500 
L 1625 3500 
L 1625 3150 
Q 1625 2866 1622 2436 
Q 1619 2006 1619 1863 
Q 1619 1441 1641 1255 
Q 1663 1069 1716 984 
Q 1784 875 1895 815 
Q 2006 756 2150 756 
Q 2500 756 2700 1025 
Q 2900 1294 2900 1772 
L 2900 3500 
L 4019 3500 
L 4019 0 
L 2900 0 
L 2900 506 
Q 2647 200 2364 54 
Q 2081 -91 1741 -91 
Q 1134 -91 817 281 
Q 500 653 500 1363 
z
" transform="scale(0.015625)"/>
      <path id="DejaVuSans-Bold-64" d="M 2919 2988 
L 2919 4863 
L 4044 4863 
L 4044 0 
L 2919 0 
L 2919 506 
Q 2688 197 2409 53 
Q 2131 -91 1766 -91 
Q 1119 -91 703 423 
Q 288 938 288 1747 
Q 288 2556 703 3070 
Q 1119 3584 1766 3584 
Q 2128 3584 2408 3439 
Q 2688 3294 2919 2988 
z
M 2181 722 
Q 2541 722 2730 984 
Q 2919 1247 2919 1747 
Q 2919 2247 2730 2509 
Q 2541 2772 2181 2772 
Q 1825 2772 1636 2509 
Q 1447 2247 1447 1747 
Q 1447 1247 1636 984 
Q 1825 722 2181 722 
z
" transform="scale(0.015625)"/>
      <path id="DejaVuSans-Bold-6d" d="M 3781 2919 
Q 3994 3244 4286 3414 
Q 4578 3584 4928 3584 
Q 5531 3584 5847 3212 
Q 6163 2841 6163 2131 
L 6163 0 
L 5038 0 
L 5038 1825 
Q 5041 1866 5042 1909 
Q 5044 1953 5044 2034 
Q 5044 2406 4934 2573 
Q 4825 2741 4581 2741 
Q 4263 2741 4089 2478 
Q 3916 2216 3909 1719 
L 3909 0 
L 2784 0 
L 2784 1825 
Q 2784 2406 2684 2573 
Q 2584 2741 2328 2741 
Q 2006 2741 1831 2477 
Q 1656 2213 1656 1722 
L 1656 0 
L 531 0 
L 531 3500 
L 1656 3500 
L 1656 2988 
Q 1863 3284 2130 3434 
Q 2397 3584 2719 3584 
Q 3081 3584 3359 3409 
Q 3638 3234 3781 2919 
z
" transform="scale(0.015625)"/>
      <path id="DejaVuSans-Bold-70" d="M 1656 506 
L 1656 -1331 
L 538 -1331 
L 538 3500 
L 1656 3500 
L 1656 2988 
Q 1888 3294 2169 3439 
Q 2450 3584 2816 3584 
Q 3463 3584 3878 3070 
Q 4294 2556 4294 1747 
Q 4294 938 3878 423 
Q 3463 -91 2816 -91 
Q 2450 -91 2169 54 
Q 1888 200 1656 506 
z
M 2400 2772 
Q 2041 2772 1848 2508 
Q 1656 2244 1656 1747 
Q 1656 1250 1848 986 
Q 2041 722 2400 722 
Q 2759 722 2948 984 
Q 3138 1247 3138 1747 
Q 3138 2247 2948 2509 
Q 2759 2772 2400 2772 
z
" transform="scale(0.015625)"/>
      <path id="DejaVuSans-Bold-74" d="M 1759 4494 
L 1759 3500 
L 2913 3500 
L 2913 2700 
L 1759 2700 
L 1759 1216 
Q 1759 972 1856 886 
Q 1953 800 2241 800 
L 2816 800 
L 2816 0 
L 1856 0 
Q 1194 0 917 276 
Q 641 553 641 1216 
L 641 2700 
L 84 2700 
L 84 3500 
L 641 3500 
L 641 4494 
L 1759 4494 
z
" transform="scale(0.015625)"/>
      <path id="DejaVuSans-Bold-69" d="M 538 3500 
L 1656 3500 
L 1656 0 
L 538 0 
L 538 3500 
z
M 538 4863 
L 1656 4863 
L 1656 3950 
L 538 3950 
L 538 4863 
z
" transform="scale(0.015625)"/>
      <path id="DejaVuSans-Bold-6e" d="M 4056 2131 
L 4056 0 
L 2931 0 
L 2931 347 
L 2931 1631 
Q 2931 2084 2911 2256 
Q 2891 2428 2841 2509 
Q 2775 2619 2662 2680 
Q 2550 2741 2406 2741 
Q 2056 2741 1856 2470 
Q 1656 2200 1656 1722 
L 1656 0 
L 538 0 
L 538 3500 
L 1656 3500 
L 1656 2988 
Q 1909 3294 2193 3439 
Q 2478 3584 2822 3584 
Q 3428 3584 3742 3212 
Q 4056 2841 4056 2131 
z
" transform="scale(0.015625)"/>
      <path id="DejaVuSans-Bold-67" d="M 2919 594 
Q 2688 288 2409 144 
Q 2131 0 1766 0 
Q 1125 0 706 504 
Q 288 1009 288 1791 
Q 288 2575 706 3076 
Q 1125 3578 1766 3578 
Q 2131 3578 2409 3434 
Q 2688 3291 2919 2981 
L 2919 3500 
L 4044 3500 
L 4044 353 
Q 4044 -491 3511 -936 
Q 2978 -1381 1966 -1381 
Q 1638 -1381 1331 -1331 
Q 1025 -1281 716 -1178 
L 716 -306 
Q 1009 -475 1290 -558 
Q 1572 -641 1856 -641 
Q 2406 -641 2662 -400 
Q 2919 -159 2919 353 
L 2919 594 
z
M 2181 2772 
Q 1834 2772 1640 2515 
Q 1447 2259 1447 1791 
Q 1447 1309 1634 1061 
Q 1822 813 2181 813 
Q 2531 813 2725 1069 
Q 2919 1325 2919 1791 
Q 2919 2259 2725 2515 
Q 2531 2772 2181 2772 
z
" transform="scale(0.015625)"/>
      <path id="DejaVuSans-Bold-45" d="M 588 4666 
L 3834 4666 
L 3834 3756 
L 1791 3756 
L 1791 2888 
L 3713 2888 
L 3713 1978 
L 1791 1978 
L 1791 909 
L 3903 909 
L 3903 0 
L 588 0 
L 588 4666 
z
" transform="scale(0.015625)"/>
      <path id="DejaVuSans-Bold-73" d="M 3272 3391 
L 3272 2541 
Q 2913 2691 2578 2766 
Q 2244 2841 1947 2841 
Q 1628 2841 1473 2761 
Q 1319 2681 1319 2516 
Q 1319 2381 1436 2309 
Q 1553 2238 1856 2203 
L 2053 2175 
Q 2913 2066 3209 1816 
Q 3506 1566 3506 1031 
Q 3506 472 3093 190 
Q 2681 -91 1863 -91 
Q 1516 -91 1145 -36 
Q 775 19 384 128 
L 384 978 
Q 719 816 1070 734 
Q 1422 653 1784 653 
Q 2113 653 2278 743 
Q 2444 834 2444 1013 
Q 2444 1163 2330 1236 
Q 2216 1309 1875 1350 
L 1678 1375 
Q 931 1469 631 1722 
Q 331 1975 331 2491 
Q 331 3047 712 3315 
Q 1094 3584 1881 3584 
Q 2191 3584 2531 3537 
Q 2872 3491 3272 3391 
z
" transform="scale(0.015625)"/>
      <path id="DejaVuSans-Bold-65" d="M 4031 1759 
L 4031 1441 
L 1416 1441 
Q 1456 1047 1700 850 
Q 1944 653 2381 653 
Q 2734 653 3104 758 
Q 3475 863 3866 1075 
L 3866 213 
Q 3469 63 3072 -14 
Q 2675 -91 2278 -91 
Q 1328 -91 801 392 
Q 275 875 275 1747 
Q 275 2603 792 3093 
Q 1309 3584 2216 3584 
Q 3041 3584 3536 3087 
Q 4031 2591 4031 1759 
z
M 2881 2131 
Q 2881 2450 2695 2645 
Q 2509 2841 2209 2841 
Q 1884 2841 1681 2658 
Q 1478 2475 1428 2131 
L 2881 2131 
z
" transform="scale(0.015625)"/>
      <path id="DejaVuSans-Bold-61" d="M 2106 1575 
Q 1756 1575 1579 1456 
Q 1403 1338 1403 1106 
Q 1403 894 1545 773 
Q 1688 653 1941 653 
Q 2256 653 2472 879 
Q 2688 1106 2688 1447 
L 2688 1575 
L 2106 1575 
z
M 3816 1997 
L 3816 0 
L 2688 0 
L 2688 519 
Q 2463 200 2181 54 
Q 1900 -91 1497 -91 
Q 953 -91 614 226 
Q 275 544 275 1050 
Q 275 1666 698 1953 
Q 1122 2241 2028 2241 
L 2688 2241 
L 2688 2328 
Q 2688 2594 2478 2717 
Q 2269 2841 1825 2841 
Q 1466 2841 1156 2769 
Q 847 2697 581 2553 
L 581 3406 
Q 941 3494 1303 3539 
Q 1666 3584 2028 3584 
Q 2975 3584 3395 3211 
Q 3816 2838 3816 1997 
z
" transform="scale(0.015625)"/>
      <path id="DejaVuSans-Bold-68" d="M 4056 2131 
L 4056 0 
L 2931 0 
L 2931 347 
L 2931 1625 
Q 2931 2084 2911 2256 
Q 2891 2428 2841 2509 
Q 2775 2619 2662 2680 
Q 2550 2741 2406 2741 
Q 2056 2741 1856 2470 
Q 1656 2200 1656 1722 
L 1656 0 
L 538 0 
L 538 4863 
L 1656 4863 
L 1656 2988 
Q 1909 3294 2193 3439 
Q 2478 3584 2822 3584 
Q 3428 3584 3742 3212 
Q 4056 2841 4056 2131 
z
" transform="scale(0.015625)"/>
      <path id="DejaVuSans-Bold-72" d="M 3138 2547 
Q 2991 2616 2845 2648 
Q 2700 2681 2553 2681 
Q 2122 2681 1889 2404 
Q 1656 2128 1656 1613 
L 1656 0 
L 538 0 
L 538 3500 
L 1656 3500 
L 1656 2925 
Q 1872 3269 2151 3426 
Q 2431 3584 2822 3584 
Q 2878 3584 2943 3579 
Q 3009 3575 3134 3559 
L 3138 2547 
z
" transform="scale(0.015625)"/>
      <path id="DejaVuSans-Bold-63" d="M 3366 3391 
L 3366 2478 
Q 3138 2634 2908 2709 
Q 2678 2784 2431 2784 
Q 1963 2784 1702 2511 
Q 1441 2238 1441 1747 
Q 1441 1256 1702 982 
Q 1963 709 2431 709 
Q 2694 709 2930 787 
Q 3166 866 3366 1019 
L 3366 103 
Q 3103 6 2833 -42 
Q 2563 -91 2291 -91 
Q 1344 -91 809 395 
Q 275 881 275 1747 
Q 275 2613 809 3098 
Q 1344 3584 2291 3584 
Q 2566 3584 2833 3536 
Q 3100 3488 3366 3391 
z
" transform="scale(0.015625)"/>
     </defs>
     <use xlink:href="#DejaVuSans-Bold-4e"/>
     <use xlink:href="#DejaVuSans-Bold-49" transform="translate(83.691406 0)"/>
     <use xlink:href="#DejaVuSans-Bold-53" transform="translate(120.898438 0)"/>
     <use xlink:href="#DejaVuSans-Bold-54" transform="translate(192.919922 0)"/>
     <use xlink:href="#DejaVuSans-Bold-20" transform="translate(261.132812 0)"/>
     <use xlink:href="#DejaVuSans-Bold-43" transform="translate(295.947266 0)"/>
     <use xlink:href="#DejaVuSans-Bold-6c" transform="translate(369.335938 0)"/>
     <use xlink:href="#DejaVuSans-Bold-6f" transform="translate(403.613281 0)"/>
     <use xlink:href="#DejaVuSans-Bold-75" transform="translate(472.314453 0)"/>
     <use xlink:href="#DejaVuSans-Bold-64" transform="translate(543.505859 0)"/>
     <use xlink:href="#DejaVuSans-Bold-20" transform="translate(615.087891 0)"/>
     <use xlink:href="#DejaVuSans-Bold-43" transform="translate(649.902344 0)"/>
     <use xlink:href="#DejaVuSans-Bold-6f" transform="translate(723.291016 0)"/>
     <use xlink:href="#DejaVuSans-Bold-6d" transform="translate(791.992188 0)"/>
     <use xlink:href="#DejaVuSans-Bold-70" transform="translate(896.191406 0)"/>
     <use xlink:href="#DejaVuSans-Bold-75" transform="translate(967.773438 0)"/>
     <use xlink:href="#DejaVuSans-Bold-74" transform="translate(1038.964844 0)"/>
     <use xlink:href="#DejaVuSans-Bold-69" transform="translate(1086.767578 0)"/>
     <use xlink:href="#DejaVuSans-Bold-6e" transform="translate(1121.044922 0)"/>
     <use xlink:href="#DejaVuSans-Bold-67" transform="translate(1192.236328 0)"/>
     <use xlink:href="#DejaVuSans-Bold-20" transform="translate(1263.818359 0)"/>
     <use xlink:href="#DejaVuSans-Bold-45" transform="translate(1298.632812 0)"/>
     <use xlink:href="#DejaVuSans-Bold-73" transform="translate(1366.943359 0)"/>
     <use xlink:href="#DejaVuSans-Bold-73" transform="translate(1426.464844 0)"/>
     <use xlink:href="#DejaVuSans-Bold-65" transform="translate(1485.986328 0)"/>
     <use xlink:href="#DejaVuSans-Bold-6e" transform="translate(1553.808594 0)"/>
     <use xlink:href="#DejaVuSans-Bold-74" transform="translate(1625 0)"/>
     <use xlink:href="#DejaVuSans-Bold-69" transform="translate(1672.802734 0)"/>
     <use xlink:href="#DejaVuSans-Bold-61" transform="translate(1707.080078 0)"/>
     <use xlink:href="#DejaVuSans-Bold-6c" transform="translate(1774.560547 0)"/>
     <use xlink:href="#DejaVuSans-Bold-20" transform="translate(1808.837891 0)"/>
     <use xlink:href="#DejaVuSans-Bold-43" transform="translate(1843.652344 0)"/>
     <use xlink:href="#DejaVuSans-Bold-68" transform="translate(1917.041016 0)"/>
     <use xlink:href="#DejaVuSans-Bold-61" transform="translate(1988.232422 0)"/>
     <use xlink:href="#DejaVuSans-Bold-72" transform="translate(2055.712891 0)"/>
     <use xlink:href="#DejaVuSans-Bold-61" transform="translate(2105.029297 0)"/>
     <use xlink:href="#DejaVuSans-Bold-63" transform="translate(2172.509766 0)"/>
     <use xlink:href="#DejaVuSans-Bold-74" transform="translate(2231.787109 0)"/>
     <use xlink:href="#DejaVuSans-Bold-65" transform="translate(2279.589844 0)"/>
     <use xlink:href="#DejaVuSans-Bold-72" transform="translate(2347.412109 0)"/>
     <use xlink:href="#DejaVuSans-Bold-69" transform="translate(2396.728516 0)"/>
     <use xlink:href="#DejaVuSans-Bold-73" transform="translate(2431.005859 0)"/>
     <use xlink:href="#DejaVuSans-Bold-74" transform="translate(2490.527344 0)"/>
     <use xlink:href="#DejaVuSans-Bold-69" transform="translate(2538.330078 0)"/>
     <use xlink:href="#DejaVuSans-Bold-63" transform="translate(2572.607422 0)"/>
     <use xlink:href="#DejaVuSans-Bold-73" transform="translate(2631.884766 0)"/>
    </g>
   </g>
   <g id="patch_2">
    <path d="M 431.477769 114.998549 
L 529.253769 114.998549 
Q 536.237769 114.998549 536.237769 108.014549 
L 536.237769 73.094549 
Q 536.237769 66.110549 529.253769 66.110549 
L 431.477769 66.110549 
Q 424.493769 66.110549 424.493769 73.094549 
L 424.493769 108.014549 
Q 424.493769 114.998549 431.477769 114.998549 
z
" clip-path="url(#pa5406156fe)" style="fill: #107c10; opacity: 0.8; stroke: #ffffff; stroke-linejoin: miter"/>
   </g>
   <g id="patch_3">
    <path d="M 307.512 87.516 
L 405.288 87.516 
Q 412.272 87.516 412.272 80.532 
L 412.272 45.612 
Q 412.272 38.628 405.288 38.628 
L 307.512 38.628 
Q 300.528 38.628 300.528 45.612 
L 300.528 80.532 
Q 300.528 87.516 307.512 87.516 
z
" clip-path="url(#pa5406156fe)" style="fill: #107c10; opacity: 0.8; stroke: #ffffff; stroke-linejoin: miter"/>
   </g>
   <g id="patch_4">
    <path d="M 183.546231 114.998549 
L 281.322231 114.998549 
Q 288.306231 114.998549 288.306231 108.014549 
L 288.306231 73.094549 
Q 288.306231 66.110549 281.322231 66.110549 
L 183.546231 66.110549 
Q 176.562231 66.110549 176.562231 73.094549 
L 176.562231 108.014549 
Q 176.562231 114.998549 183.546231 114.998549 
z
" clip-path="url(#pa5406156fe)" style="fill: #107c10; opacity: 0.8; stroke: #ffffff; stroke-linejoin: miter"/>
   </g>
   <g id="patch_5">
    <path d="M 92.985481 180.794785 
L 190.761481 180.794785 
Q 197.745481 180.794785 197.745481 173.810785 
L 197.745481 138.890785 
Q 197.745481 131.906785 190.761481 131.906785 
L 92.985481 131.906785 
Q 86.001481 131.906785 86.001481 138.890785 
L 86.001481 173.810785 
Q 86.001481 180.794785 92.985481 180.794785 
z
" clip-path="url(#pa5406156fe)" style="fill: #5c2d91; opacity: 0.8; stroke: #ffffff; stroke-linejoin: miter"/>
   </g>
   <g id="patch_6">
    <path d="M 28.540494 290.200663 
L 126.316494 290.200663 
Q 133.300494 290.200663 133.300494 283.216663 
L 133.300494 248.296663 
Q 133.300494 241.312663 126.316494 241.312663 
L 28.540494 241.312663 
Q 21.556494 241.312663 21.556494 248.296663 
L 21.556494 283.216663 
Q 21.556494 290.200663 28.540494 290.200663 
z
" clip-path="url(#pa5406156fe)" style="fill: #5c2d91; opacity: 0.8; stroke: #ffffff; stroke-linejoin: miter"/>
   </g>
   <g id="patch_7">
    <path d="M 16.370422 416.591691 
L 114.146422 416.591691 
Q 121.130422 416.591691 121.130422 409.607691 
L 121.130422 374.687691 
Q 121.130422 367.703691 114.146422 367.703691 
L 16.370422 367.703691 
Q 9.386422 367.703691 9.386422 374.687691 
L 9.386422 409.607691 
Q 9.386422 416.591691 16.370422 416.591691 
z
" clip-path="url(#pa5406156fe)" style="fill: #5c2d91; opacity: 0.8; stroke: #ffffff; stroke-linejoin: miter"/>
   </g>
   <g id="patch_8">
    <path d="M 50.961551 523.052236 
L 148.737551 523.052236 
Q 155.721551 523.052236 155.721551 516.068236 
L 155.721551 481.148236 
Q 155.721551 474.164236 148.737551 474.164236 
L 50.961551 474.164236 
Q 43.977551 474.164236 43.977551 481.148236 
L 43.977551 516.068236 
Q 43.977551 523.052236 50.961551 523.052236 
z
" clip-path="url(#pa5406156fe)" style="fill: #ff8c00; opacity: 0.8; stroke: #ffffff; stroke-linejoin: miter"/>
   </g>
   <g id="patch_9">
    <path d="M 135.098128 618.151337 
L 232.874128 618.151337 
Q 239.858128 618.151337 239.858128 611.167337 
L 239.858128 576.247337 
Q 239.858128 569.263337 232.874128 569.263337 
L 135.098128 569.263337 
Q 128.114128 569.263337 128.114128 576.247337 
L 128.114128 611.167337 
Q 128.114128 618.151337 135.098128 618.151337 
z
" clip-path="url(#pa5406156fe)" style="fill: #ff8c00; opacity: 0.8; stroke: #ffffff; stroke-linejoin: miter"/>
   </g>
   <g id="patch_10">
    <path d="M 251.542379 668.782738 
L 349.318379 668.782738 
Q 356.302379 668.782738 356.302379 661.798738 
L 356.302379 626.878738 
Q 356.302379 619.894738 349.318379 619.894738 
L 251.542379 619.894738 
Q 244.558379 619.894738 244.558379 626.878738 
L 244.558379 661.798738 
Q 244.558379 668.782738 251.542379 668.782738 
z
" clip-path="url(#pa5406156fe)" style="fill: #ff8c00; opacity: 0.8; stroke: #ffffff; stroke-linejoin: miter"/>
   </g>
   <g id="patch_11">
    <path d="M 363.481621 668.782738 
L 461.257621 668.782738 
Q 468.241621 668.782738 468.241621 661.798738 
L 468.241621 626.878738 
Q 468.241621 619.894738 461.257621 619.894738 
L 363.481621 619.894738 
Q 356.497621 619.894738 356.497621 626.878738 
L 356.497621 661.798738 
Q 356.497621 668.782738 363.481621 668.782738 
z
" clip-path="url(#pa5406156fe)" style="fill: #d13438; opacity: 0.8; stroke: #ffffff; stroke-linejoin: miter"/>
   </g>
   <g id="patch_12">
    <path d="M 479.925872 618.151337 
L 577.701872 618.151337 
Q 584.685872 618.151337 584.685872 611.167337 
L 584.685872 576.247337 
Q 584.685872 569.263337 577.701872 569.263337 
L 479.925872 569.263337 
Q 472.941872 569.263337 472.941872 576.247337 
L 472.941872 611.167337 
Q 472.941872 618.151337 479.925872 618.151337 
z
" clip-path="url(#pa5406156fe)" style="fill: #d13438; opacity: 0.8; stroke: #ffffff; stroke-linejoin: miter"/>
   </g>
   <g id="patch_13">
    <path d="M 564.062449 523.052236 
L 661.838449 523.052236 
Q 668.822449 523.052236 668.822449 516.068236 
L 668.822449 481.148236 
Q 668.822449 474.164236 661.838449 474.164236 
L 564.062449 474.164236 
Q 557.078449 474.164236 557.078449 481.148236 
L 557.078449 516.068236 
Q 557.078449 523.052236 564.062449 523.052236 
z
" clip-path="url(#pa5406156fe)" style="fill: #d13438; opacity: 0.8; stroke: #ffffff; stroke-linejoin: miter"/>
   </g>
   <g id="patch_14">
    <path d="M 598.653578 416.591691 
L 696.429578 416.591691 
Q 703.413578 416.591691 703.413578 409.607691 
L 703.413578 374.687691 
Q 703.413578 367.703691 696.429578 367.703691 
L 598.653578 367.703691 
Q 591.669578 367.703691 591.669578 374.687691 
L 591.669578 409.607691 
Q 591.669578 416.591691 598.653578 416.591691 
z
" clip-path="url(#pa5406156fe)" style="fill: #004578; opacity: 0.8; stroke: #ffffff; stroke-linejoin: miter"/>
   </g>
   <g id="patch_15">
    <path d="M 586.483506 290.200663 
L 684.259506 290.200663 
Q 691.243506 290.200663 691.243506 283.216663 
L 691.243506 248.296663 
Q 691.243506 241.312663 684.259506 241.312663 
L 586.483506 241.312663 
Q 579.499506 241.312663 579.499506 248.296663 
L 579.499506 283.216663 
Q 579.499506 290.200663 586.483506 290.200663 
z
" clip-path="url(#pa5406156fe)" style="fill: #004578; opacity: 0.8; stroke: #ffffff; stroke-linejoin: miter"/>
   </g>
   <g id="patch_16">
    <path d="M 522.038519 180.794785 
L 619.814519 180.794785 
Q 626.798519 180.794785 626.798519 173.810785 
L 626.798519 138.890785 
Q 626.798519 131.906785 619.814519 131.906785 
L 522.038519 131.906785 
Q 515.054519 131.906785 515.054519 138.890785 
L 515.054519 173.810785 
Q 515.054519 180.794785 522.038519 180.794785 
z
" clip-path="url(#pa5406156fe)" style="fill: #004578; opacity: 0.8; stroke: #ffffff; stroke-linejoin: miter"/>
   </g>
   <g id="patch_17">
    <path d="M 356.4 216.72 
C 371.217428 216.72 385.429967 210.832974 395.90747 200.35547 
C 406.384974 189.877967 412.272 175.665428 412.272 160.848 
C 412.272 146.030572 406.384974 131.818033 395.90747 121.34053 
C 385.429967 110.863026 371.217428 104.976 356.4 104.976 
C 341.582572 104.976 327.370033 110.863026 316.89253 121.34053 
C 306.415026 131.818033 300.528 146.030572 300.528 160.848 
C 300.528 175.665428 306.415026 189.877967 316.89253 200.35547 
C 327.370033 210.832974 341.582572 216.72 356.4 216.72 
z
" clip-path="url(#pa5406156fe)" style="fill: #107c10; stroke: #ffffff; stroke-width: 2; stroke-linejoin: miter"/>
   </g>
   <g id="text_2">
    <!-- Automatic provisioning -->
    <g style="fill: #ffffff" transform="translate(439.969207 92.486112) scale(0.07 -0.07)">
     <defs>
      <path id="DejaVuSans-41" d="M 2188 4044 
L 1331 1722 
L 3047 1722 
L 2188 4044 
z
M 1831 4666 
L 2547 4666 
L 4325 0 
L 3669 0 
L 3244 1197 
L 1141 1197 
L 716 0 
L 50 0 
L 1831 4666 
z
" transform="scale(0.015625)"/>
      <path id="DejaVuSans-75" d="M 544 1381 
L 544 3500 
L 1119 3500 
L 1119 1403 
Q 1119 906 1312 657 
Q 1506 409 1894 409 
Q 2359 409 2629 706 
Q 2900 1003 2900 1516 
L 2900 3500 
L 3475 3500 
L 3475 0 
L 2900 0 
L 2900 538 
Q 2691 219 2414 64 
Q 2138 -91 1772 -91 
Q 1169 -91 856 284 
Q 544 659 544 1381 
z
M 1991 3584 
L 1991 3584 
z
" transform="scale(0.015625)"/>
      <path id="DejaVuSans-74" d="M 1172 4494 
L 1172 3500 
L 2356 3500 
L 2356 3053 
L 1172 3053 
L 1172 1153 
Q 1172 725 1289 603 
Q 1406 481 1766 481 
L 2356 481 
L 2356 0 
L 1766 0 
Q 1100 0 847 248 
Q 594 497 594 1153 
L 594 3053 
L 172 3053 
L 172 3500 
L 594 3500 
L 594 4494 
L 1172 4494 
z
" transform="scale(0.015625)"/>
      <path id="DejaVuSans-6f" d="M 1959 3097 
Q 1497 3097 1228 2736 
Q 959 2375 959 1747 
Q 959 1119 1226 758 
Q 1494 397 1959 397 
Q 2419 397 2687 759 
Q 2956 1122 2956 1747 
Q 2956 2369 2687 2733 
Q 2419 3097 1959 3097 
z
M 1959 3584 
Q 2709 3584 3137 3096 
Q 3566 2609 3566 1747 
Q 3566 888 3137 398 
Q 2709 -91 1959 -91 
Q 1206 -91 779 398 
Q 353 888 353 1747 
Q 353 2609 779 3096 
Q 1206 3584 1959 3584 
z
" transform="scale(0.015625)"/>
      <path id="DejaVuSans-6d" d="M 3328 2828 
Q 3544 3216 3844 3400 
Q 4144 3584 4550 3584 
Q 5097 3584 5394 3201 
Q 5691 2819 5691 2113 
L 5691 0 
L 5113 0 
L 5113 2094 
Q 5113 2597 4934 2840 
Q 4756 3084 4391 3084 
Q 3944 3084 3684 2787 
Q 3425 2491 3425 1978 
L 3425 0 
L 2847 0 
L 2847 2094 
Q 2847 2600 2669 2842 
Q 2491 3084 2119 3084 
Q 1678 3084 1418 2786 
Q 1159 2488 1159 1978 
L 1159 0 
L 581 0 
L 581 3500 
L 1159 3500 
L 1159 2956 
Q 1356 3278 1631 3431 
Q 1906 3584 2284 3584 
Q 2666 3584 2933 3390 
Q 3200 3197 3328 2828 
z
" transform="scale(0.015625)"/>
      <path id="DejaVuSans-61" d="M 2194 1759 
Q 1497 1759 1228 1600 
Q 959 1441 959 1056 
Q 959 750 1161 570 
Q 1363 391 1709 391 
Q 2188 391 2477 730 
Q 2766 1069 2766 1631 
L 2766 1759 
L 2194 1759 
z
M 3341 1997 
L 3341 0 
L 2766 0 
L 2766 531 
Q 2569 213 2275 61 
Q 1981 -91 1556 -91 
Q 1019 -91 701 211 
Q 384 513 384 1019 
Q 384 1609 779 1909 
Q 1175 2209 1959 2209 
L 2766 2209 
L 2766 2266 
Q 2766 2663 2505 2880 
Q 2244 3097 1772 3097 
Q 1472 3097 1187 3025 
Q 903 2953 641 2809 
L 641 3341 
Q 956 3463 1253 3523 
Q 1550 3584 1831 3584 
Q 2591 3584 2966 3190 
Q 3341 2797 3341 1997 
z
" transform="scale(0.015625)"/>
      <path id="DejaVuSans-69" d="M 603 3500 
L 1178 3500 
L 1178 0 
L 603 0 
L 603 3500 
z
M 603 4863 
L 1178 4863 
L 1178 4134 
L 603 4134 
L 603 4863 
z
" transform="scale(0.015625)"/>
      <path id="DejaVuSans-63" d="M 3122 3366 
L 3122 2828 
Q 2878 2963 2633 3030 
Q 2388 3097 2138 3097 
Q 1578 3097 1268 2742 
Q 959 2388 959 1747 
Q 959 1106 1268 751 
Q 1578 397 2138 397 
Q 2388 397 2633 464 
Q 2878 531 3122 666 
L 3122 134 
Q 2881 22 2623 -34 
Q 2366 -91 2075 -91 
Q 1284 -91 818 406 
Q 353 903 353 1747 
Q 353 2603 823 3093 
Q 1294 3584 2113 3584 
Q 2378 3584 2631 3529 
Q 2884 3475 3122 3366 
z
" transform="scale(0.015625)"/>
      <path id="DejaVuSans-20" transform="scale(0.015625)"/>
      <path id="DejaVuSans-70" d="M 1159 525 
L 1159 -1331 
L 581 -1331 
L 581 3500 
L 1159 3500 
L 1159 2969 
Q 1341 3281 1617 3432 
Q 1894 3584 2278 3584 
Q 2916 3584 3314 3078 
Q 3713 2572 3713 1747 
Q 3713 922 3314 415 
Q 2916 -91 2278 -91 
Q 1894 -91 1617 61 
Q 1341 213 1159 525 
z
M 3116 1747 
Q 3116 2381 2855 2742 
Q 2594 3103 2138 3103 
Q 1681 3103 1420 2742 
Q 1159 2381 1159 1747 
Q 1159 1113 1420 752 
Q 1681 391 2138 391 
Q 2594 391 2855 752 
Q 3116 1113 3116 1747 
z
" transform="scale(0.015625)"/>
      <path id="DejaVuSans-72" d="M 2631 2963 
Q 2534 3019 2420 3045 
Q 2306 3072 2169 3072 
Q 1681 3072 1420 2755 
Q 1159 2438 1159 1844 
L 1159 0 
L 581 0 
L 581 3500 
L 1159 3500 
L 1159 2956 
Q 1341 3275 1631 3429 
Q 1922 3584 2338 3584 
Q 2397 3584 2469 3576 
Q 2541 3569 2628 3553 
L 2631 2963 
z
" transform="scale(0.015625)"/>
      <path id="DejaVuSans-76" d="M 191 3500 
L 800 3500 
L 1894 563 
L 2988 3500 
L 3597 3500 
L 2284 0 
L 1503 0 
L 191 3500 
z
" transform="scale(0.015625)"/>
      <path id="DejaVuSans-73" d="M 2834 3397 
L 2834 2853 
Q 2591 2978 2328 3040 
Q 2066 3103 1784 3103 
Q 1356 3103 1142 2972 
Q 928 2841 928 2578 
Q 928 2378 1081 2264 
Q 1234 2150 1697 2047 
L 1894 2003 
Q 2506 1872 2764 1633 
Q 3022 1394 3022 966 
Q 3022 478 2636 193 
Q 2250 -91 1575 -91 
Q 1294 -91 989 -36 
Q 684 19 347 128 
L 347 722 
Q 666 556 975 473 
Q 1284 391 1588 391 
Q 1994 391 2212 530 
Q 2431 669 2431 922 
Q 2431 1156 2273 1281 
Q 2116 1406 1581 1522 
L 1381 1569 
Q 847 1681 609 1914 
Q 372 2147 372 2553 
Q 372 3047 722 3315 
Q 1072 3584 1716 3584 
Q 2034 3584 2315 3537 
Q 2597 3491 2834 3397 
z
" transform="scale(0.015625)"/>
      <path id="DejaVuSans-6e" d="M 3513 2113 
L 3513 0 
L 2938 0 
L 2938 2094 
Q 2938 2591 2744 2837 
Q 2550 3084 2163 3084 
Q 1697 3084 1428 2787 
Q 1159 2491 1159 1978 
L 1159 0 
L 581 0 
L 581 3500 
L 1159 3500 
L 1159 2956 
Q 1366 3272 1645 3428 
Q 1925 3584 2291 3584 
Q 2894 3584 3203 3211 
Q 3513 2838 3513 2113 
z
" transform="scale(0.015625)"/>
      <path id="DejaVuSans-67" d="M 2906 1791 
Q 2906 2416 2648 2759 
Q 2391 3103 1925 3103 
Q 1463 3103 1205 2759 
Q 947 2416 947 1791 
Q 947 1169 1205 825 
Q 1463 481 1925 481 
Q 2391 481 2648 825 
Q 2906 1169 2906 1791 
z
M 3481 434 
Q 3481 -459 3084 -895 
Q 2688 -1331 1869 -1331 
Q 1566 -1331 1297 -1286 
Q 1028 -1241 775 -1147 
L 775 -588 
Q 1028 -725 1275 -790 
Q 1522 -856 1778 -856 
Q 2344 -856 2625 -561 
Q 2906 -266 2906 331 
L 2906 616 
Q 2728 306 2450 153 
Q 2172 0 1784 0 
Q 1141 0 747 490 
Q 353 981 353 1791 
Q 353 2603 747 3093 
Q 1141 3584 1784 3584 
Q 2172 3584 2450 3431 
Q 2728 3278 2906 2969 
L 2906 3500 
L 3481 3500 
L 3481 434 
z
" transform="scale(0.015625)"/>
     </defs>
     <use xlink:href="#DejaVuSans-41"/>
     <use xlink:href="#DejaVuSans-75" transform="translate(68.408203 0)"/>
     <use xlink:href="#DejaVuSans-74" transform="translate(131.787109 0)"/>
     <use xlink:href="#DejaVuSans-6f" transform="translate(170.996094 0)"/>
     <use xlink:href="#DejaVuSans-6d" transform="translate(232.177734 0)"/>
     <use xlink:href="#DejaVuSans-61" transform="translate(329.589844 0)"/>
     <use xlink:href="#DejaVuSans-74" transform="translate(390.869141 0)"/>
     <use xlink:href="#DejaVuSans-69" transform="translate(430.078125 0)"/>
     <use xlink:href="#DejaVuSans-63" transform="translate(457.861328 0)"/>
     <use xlink:href="#DejaVuSans-20" transform="translate(512.841797 0)"/>
     <use xlink:href="#DejaVuSans-70" transform="translate(544.628906 0)"/>
     <use xlink:href="#DejaVuSans-72" transform="translate(608.105469 0)"/>
     <use xlink:href="#DejaVuSans-6f" transform="translate(646.96875 0)"/>
     <use xlink:href="#DejaVuSans-76" transform="translate(708.150391 0)"/>
     <use xlink:href="#DejaVuSans-69" transform="translate(767.330078 0)"/>
     <use xlink:href="#DejaVuSans-73" transform="translate(795.113281 0)"/>
     <use xlink:href="#DejaVuSans-69" transform="translate(847.212891 0)"/>
     <use xlink:href="#DejaVuSans-6f" transform="translate(874.996094 0)"/>
     <use xlink:href="#DejaVuSans-6e" transform="translate(936.177734 0)"/>
     <use xlink:href="#DejaVuSans-69" transform="translate(999.556641 0)"/>
     <use xlink:href="#DejaVuSans-6e" transform="translate(1027.339844 0)"/>
     <use xlink:href="#DejaVuSans-67" transform="translate(1090.71875 0)"/>
    </g>
   </g>
   <g id="text_3">
    <!-- No human interaction -->
    <g style="fill: #ffffff" transform="translate(318.278437 65.003563) scale(0.07 -0.07)">
     <defs>
      <path id="DejaVuSans-4e" d="M 628 4666 
L 1478 4666 
L 3547 763 
L 3547 4666 
L 4159 4666 
L 4159 0 
L 3309 0 
L 1241 3903 
L 1241 0 
L 628 0 
L 628 4666 
z
" transform="scale(0.015625)"/>
      <path id="DejaVuSans-68" d="M 3513 2113 
L 3513 0 
L 2938 0 
L 2938 2094 
Q 2938 2591 2744 2837 
Q 2550 3084 2163 3084 
Q 1697 3084 1428 2787 
Q 1159 2491 1159 1978 
L 1159 0 
L 581 0 
L 581 4863 
L 1159 4863 
L 1159 2956 
Q 1366 3272 1645 3428 
Q 1925 3584 2291 3584 
Q 2894 3584 3203 3211 
Q 3513 2838 3513 2113 
z
" transform="scale(0.015625)"/>
      <path id="DejaVuSans-65" d="M 3597 1894 
L 3597 1613 
L 953 1613 
Q 991 1019 1311 708 
Q 1631 397 2203 397 
Q 2534 397 2845 478 
Q 3156 559 3463 722 
L 3463 178 
Q 3153 47 2828 -22 
Q 2503 -91 2169 -91 
Q 1331 -91 842 396 
Q 353 884 353 1716 
Q 353 2575 817 3079 
Q 1281 3584 2069 3584 
Q 2775 3584 3186 3129 
Q 3597 2675 3597 1894 
z
M 3022 2063 
Q 3016 2534 2758 2815 
Q 2500 3097 2075 3097 
Q 1594 3097 1305 2825 
Q 1016 2553 972 2059 
L 3022 2063 
z
" transform="scale(0.015625)"/>
     </defs>
     <use xlink:href="#DejaVuSans-4e"/>
     <use xlink:href="#DejaVuSans-6f" transform="translate(74.804688 0)"/>
     <use xlink:href="#DejaVuSans-20" transform="translate(135.986328 0)"/>
     <use xlink:href="#DejaVuSans-68" transform="translate(167.773438 0)"/>
     <use xlink:href="#DejaVuSans-75" transform="translate(231.152344 0)"/>
     <use xlink:href="#DejaVuSans-6d" transform="translate(294.53125 0)"/>
     <use xlink:href="#DejaVuSans-61" transform="translate(391.943359 0)"/>
     <use xlink:href="#DejaVuSans-6e" transform="translate(453.222656 0)"/>
     <use xlink:href="#DejaVuSans-20" transform="translate(516.601562 0)"/>
     <use xlink:href="#DejaVuSans-69" transform="translate(548.388672 0)"/>
     <use xlink:href="#DejaVuSans-6e" transform="translate(576.171875 0)"/>
     <use xlink:href="#DejaVuSans-74" transform="translate(639.550781 0)"/>
     <use xlink:href="#DejaVuSans-65" transform="translate(678.759766 0)"/>
     <use xlink:href="#DejaVuSans-72" transform="translate(740.283203 0)"/>
     <use xlink:href="#DejaVuSans-61" transform="translate(781.396484 0)"/>
     <use xlink:href="#DejaVuSans-63" transform="translate(842.675781 0)"/>
     <use xlink:href="#DejaVuSans-74" transform="translate(897.65625 0)"/>
     <use xlink:href="#DejaVuSans-69" transform="translate(936.865234 0)"/>
     <use xlink:href="#DejaVuSans-6f" transform="translate(964.648438 0)"/>
     <use xlink:href="#DejaVuSans-6e" transform="translate(1025.830078 0)"/>
    </g>
   </g>
   <g id="text_4">
    <!-- Instant access -->
    <g style="fill: #ffffff" transform="translate(207.346887 92.486112) scale(0.07 -0.07)">
     <defs>
      <path id="DejaVuSans-49" d="M 628 4666 
L 1259 4666 
L 1259 0 
L 628 0 
L 628 4666 
z
" transform="scale(0.015625)"/>
     </defs>
     <use xlink:href="#DejaVuSans-49"/>
     <use xlink:href="#DejaVuSans-6e" transform="translate(29.492188 0)"/>
     <use xlink:href="#DejaVuSans-73" transform="translate(92.871094 0)"/>
     <use xlink:href="#DejaVuSans-74" transform="translate(144.970703 0)"/>
     <use xlink:href="#DejaVuSans-61" transform="translate(184.179688 0)"/>
     <use xlink:href="#DejaVuSans-6e" transform="translate(245.458984 0)"/>
     <use xlink:href="#DejaVuSans-74" transform="translate(308.837891 0)"/>
     <use xlink:href="#DejaVuSans-20" transform="translate(348.046875 0)"/>
     <use xlink:href="#DejaVuSans-61" transform="translate(379.833984 0)"/>
     <use xlink:href="#DejaVuSans-63" transform="translate(441.113281 0)"/>
     <use xlink:href="#DejaVuSans-63" transform="translate(496.09375 0)"/>
     <use xlink:href="#DejaVuSans-65" transform="translate(551.074219 0)"/>
     <use xlink:href="#DejaVuSans-73" transform="translate(612.597656 0)"/>
     <use xlink:href="#DejaVuSans-73" transform="translate(664.697266 0)"/>
    </g>
   </g>
   <g id="patch_18">
    <path d="M 170.418996 351.843109 
C 185.236424 351.843109 199.448963 345.956082 209.926466 335.478579 
C 220.40397 325.001075 226.290996 310.788536 226.290996 295.971109 
C 226.290996 281.153681 220.40397 266.941142 209.926466 256.463639 
C 199.448963 245.986135 185.236424 240.099109 170.418996 240.099109 
C 155.601569 240.099109 141.38903 245.986135 130.911526 256.463639 
C 120.434023 266.941142 114.546996 281.153681 114.546996 295.971109 
C 114.546996 310.788536 120.434023 325.001075 130.911526 335.478579 
C 141.38903 345.956082 155.601569 351.843109 170.418996 351.843109 
z
" clip-path="url(#pa5406156fe)" style="fill: #5c2d91; stroke: #ffffff; stroke-width: 2; stroke-linejoin: miter"/>
   </g>
   <g id="text_5">
    <!-- Multi-platform support -->
    <g style="fill: #ffffff" transform="translate(102.634106 158.282348) scale(0.07 -0.07)">
     <defs>
      <path id="DejaVuSans-4d" d="M 628 4666 
L 1569 4666 
L 2759 1491 
L 3956 4666 
L 4897 4666 
L 4897 0 
L 4281 0 
L 4281 4097 
L 3078 897 
L 2444 897 
L 1241 4097 
L 1241 0 
L 628 0 
L 628 4666 
z
" transform="scale(0.015625)"/>
      <path id="DejaVuSans-6c" d="M 603 4863 
L 1178 4863 
L 1178 0 
L 603 0 
L 603 4863 
z
" transform="scale(0.015625)"/>
      <path id="DejaVuSans-2d" d="M 313 2009 
L 1997 2009 
L 1997 1497 
L 313 1497 
L 313 2009 
z
" transform="scale(0.015625)"/>
      <path id="DejaVuSans-66" d="M 2375 4863 
L 2375 4384 
L 1825 4384 
Q 1516 4384 1395 4259 
Q 1275 4134 1275 3809 
L 1275 3500 
L 2222 3500 
L 2222 3053 
L 1275 3053 
L 1275 0 
L 697 0 
L 697 3053 
L 147 3053 
L 147 3500 
L 697 3500 
L 697 3744 
Q 697 4328 969 4595 
Q 1241 4863 1831 4863 
L 2375 4863 
z
" transform="scale(0.015625)"/>
     </defs>
     <use xlink:href="#DejaVuSans-4d"/>
     <use xlink:href="#DejaVuSans-75" transform="translate(86.279297 0)"/>
     <use xlink:href="#DejaVuSans-6c" transform="translate(149.658203 0)"/>
     <use xlink:href="#DejaVuSans-74" transform="translate(177.441406 0)"/>
     <use xlink:href="#DejaVuSans-69" transform="translate(216.650391 0)"/>
     <use xlink:href="#DejaVuSans-2d" transform="translate(244.433594 0)"/>
     <use xlink:href="#DejaVuSans-70" transform="translate(280.517578 0)"/>
     <use xlink:href="#DejaVuSans-6c" transform="translate(343.994141 0)"/>
     <use xlink:href="#DejaVuSans-61" transform="translate(371.777344 0)"/>
     <use xlink:href="#DejaVuSans-74" transform="translate(433.056641 0)"/>
     <use xlink:href="#DejaVuSans-66" transform="translate(472.265625 0)"/>
     <use xlink:href="#DejaVuSans-6f" transform="translate(507.470703 0)"/>
     <use xlink:href="#DejaVuSans-72" transform="translate(568.652344 0)"/>
     <use xlink:href="#DejaVuSans-6d" transform="translate(608.015625 0)"/>
     <use xlink:href="#DejaVuSans-20" transform="translate(705.427734 0)"/>
     <use xlink:href="#DejaVuSans-73" transform="translate(737.214844 0)"/>
     <use xlink:href="#DejaVuSans-75" transform="translate(789.314453 0)"/>
     <use xlink:href="#DejaVuSans-70" transform="translate(852.693359 0)"/>
     <use xlink:href="#DejaVuSans-70" transform="translate(916.169922 0)"/>
     <use xlink:href="#DejaVuSans-6f" transform="translate(979.646484 0)"/>
     <use xlink:href="#DejaVuSans-72" transform="translate(1040.828125 0)"/>
     <use xlink:href="#DejaVuSans-74" transform="translate(1081.941406 0)"/>
    </g>
   </g>
   <g id="text_6">
    <!-- Standard protocols -->
    <g style="fill: #ffffff" transform="translate(44.293885 267.688226) scale(0.07 -0.07)">
     <defs>
      <path id="DejaVuSans-53" d="M 3425 4513 
L 3425 3897 
Q 3066 4069 2747 4153 
Q 2428 4238 2131 4238 
Q 1616 4238 1336 4038 
Q 1056 3838 1056 3469 
Q 1056 3159 1242 3001 
Q 1428 2844 1947 2747 
L 2328 2669 
Q 3034 2534 3370 2195 
Q 3706 1856 3706 1288 
Q 3706 609 3251 259 
Q 2797 -91 1919 -91 
Q 1588 -91 1214 -16 
Q 841 59 441 206 
L 441 856 
Q 825 641 1194 531 
Q 1563 422 1919 422 
Q 2459 422 2753 634 
Q 3047 847 3047 1241 
Q 3047 1584 2836 1778 
Q 2625 1972 2144 2069 
L 1759 2144 
Q 1053 2284 737 2584 
Q 422 2884 422 3419 
Q 422 4038 858 4394 
Q 1294 4750 2059 4750 
Q 2388 4750 2728 4690 
Q 3069 4631 3425 4513 
z
" transform="scale(0.015625)"/>
      <path id="DejaVuSans-64" d="M 2906 2969 
L 2906 4863 
L 3481 4863 
L 3481 0 
L 2906 0 
L 2906 525 
Q 2725 213 2448 61 
Q 2172 -91 1784 -91 
Q 1150 -91 751 415 
Q 353 922 353 1747 
Q 353 2572 751 3078 
Q 1150 3584 1784 3584 
Q 2172 3584 2448 3432 
Q 2725 3281 2906 2969 
z
M 947 1747 
Q 947 1113 1208 752 
Q 1469 391 1925 391 
Q 2381 391 2643 752 
Q 2906 1113 2906 1747 
Q 2906 2381 2643 2742 
Q 2381 3103 1925 3103 
Q 1469 3103 1208 2742 
Q 947 2381 947 1747 
z
" transform="scale(0.015625)"/>
     </defs>
     <use xlink:href="#DejaVuSans-53"/>
     <use xlink:href="#DejaVuSans-74" transform="translate(63.476562 0)"/>
     <use xlink:href="#DejaVuSans-61" transform="translate(102.685547 0)"/>
     <use xlink:href="#DejaVuSans-6e" transform="translate(163.964844 0)"/>
     <use xlink:href="#DejaVuSans-64" transform="translate(227.34375 0)"/>
     <use xlink:href="#DejaVuSans-61" transform="translate(290.820312 0)"/>
     <use xlink:href="#DejaVuSans-72" transform="translate(352.099609 0)"/>
     <use xlink:href="#DejaVuSans-64" transform="translate(391.462891 0)"/>
     <use xlink:href="#DejaVuSans-20" transform="translate(454.939453 0)"/>
     <use xlink:href="#DejaVuSans-70" transform="translate(486.726562 0)"/>
     <use xlink:href="#DejaVuSans-72" transform="translate(550.203125 0)"/>
     <use xlink:href="#DejaVuSans-6f" transform="translate(589.066406 0)"/>
     <use xlink:href="#DejaVuSans-74" transform="translate(650.248047 0)"/>
     <use xlink:href="#DejaVuSans-6f" transform="translate(689.457031 0)"/>
     <use xlink:href="#DejaVuSans-63" transform="translate(750.638672 0)"/>
     <use xlink:href="#DejaVuSans-6f" transform="translate(805.619141 0)"/>
     <use xlink:href="#DejaVuSans-6c" transform="translate(866.800781 0)"/>
     <use xlink:href="#DejaVuSans-73" transform="translate(894.583984 0)"/>
    </g>
   </g>
   <g id="text_7">
    <!-- Internet available -->
    <g style="fill: #ffffff" transform="translate(34.449672 394.079253) scale(0.07 -0.07)">
     <defs>
      <path id="DejaVuSans-62" d="M 3116 1747 
Q 3116 2381 2855 2742 
Q 2594 3103 2138 3103 
Q 1681 3103 1420 2742 
Q 1159 2381 1159 1747 
Q 1159 1113 1420 752 
Q 1681 391 2138 391 
Q 2594 391 2855 752 
Q 3116 1113 3116 1747 
z
M 1159 2969 
Q 1341 3281 1617 3432 
Q 1894 3584 2278 3584 
Q 2916 3584 3314 3078 
Q 3713 2572 3713 1747 
Q 3713 922 3314 415 
Q 2916 -91 2278 -91 
Q 1894 -91 1617 61 
Q 1341 213 1159 525 
L 1159 0 
L 581 0 
L 581 4863 
L 1159 4863 
L 1159 2969 
z
" transform="scale(0.015625)"/>
     </defs>
     <use xlink:href="#DejaVuSans-49"/>
     <use xlink:href="#DejaVuSans-6e" transform="translate(29.492188 0)"/>
     <use xlink:href="#DejaVuSans-74" transform="translate(92.871094 0)"/>
     <use xlink:href="#DejaVuSans-65" transform="translate(132.080078 0)"/>
     <use xlink:href="#DejaVuSans-72" transform="translate(193.603516 0)"/>
     <use xlink:href="#DejaVuSans-6e" transform="translate(232.966797 0)"/>
     <use xlink:href="#DejaVuSans-65" transform="translate(296.345703 0)"/>
     <use xlink:href="#DejaVuSans-74" transform="translate(357.869141 0)"/>
     <use xlink:href="#DejaVuSans-20" transform="translate(397.078125 0)"/>
     <use xlink:href="#DejaVuSans-61" transform="translate(428.865234 0)"/>
     <use xlink:href="#DejaVuSans-76" transform="translate(490.144531 0)"/>
     <use xlink:href="#DejaVuSans-61" transform="translate(549.324219 0)"/>
     <use xlink:href="#DejaVuSans-69" transform="translate(610.603516 0)"/>
     <use xlink:href="#DejaVuSans-6c" transform="translate(638.386719 0)"/>
     <use xlink:href="#DejaVuSans-61" transform="translate(666.169922 0)"/>
     <use xlink:href="#DejaVuSans-62" transform="translate(727.449219 0)"/>
     <use xlink:href="#DejaVuSans-6c" transform="translate(790.925781 0)"/>
     <use xlink:href="#DejaVuSans-65" transform="translate(818.708984 0)"/>
    </g>
   </g>
   <g id="patch_19">
    <path d="M 241.457418 570.476891 
C 256.274846 570.476891 270.487385 564.589865 280.964888 554.112361 
C 291.442392 543.634858 297.329418 529.422319 297.329418 514.604891 
C 297.329418 499.787464 291.442392 485.574925 280.964888 475.097421 
C 270.487385 464.619918 256.274846 458.732891 241.457418 458.732891 
C 226.639991 458.732891 212.427452 464.619918 201.949948 475.097421 
C 191.472445 485.574925 185.585418 499.787464 185.585418 514.604891 
C 185.585418 529.422319 191.472445 543.634858 201.949948 554.112361 
C 212.427452 564.589865 226.639991 570.476891 241.457418 570.476891 
z
" clip-path="url(#pa5406156fe)" style="fill: #ff8c00; stroke: #ffffff; stroke-width: 2; stroke-linejoin: miter"/>
   </g>
   <g id="text_8">
    <!-- Multi-tenant model -->
    <g style="fill: #ffffff" transform="translate(66.542129 500.539799) scale(0.07 -0.07)">
     <use xlink:href="#DejaVuSans-4d"/>
     <use xlink:href="#DejaVuSans-75" transform="translate(86.279297 0)"/>
     <use xlink:href="#DejaVuSans-6c" transform="translate(149.658203 0)"/>
     <use xlink:href="#DejaVuSans-74" transform="translate(177.441406 0)"/>
     <use xlink:href="#DejaVuSans-69" transform="translate(216.650391 0)"/>
     <use xlink:href="#DejaVuSans-2d" transform="translate(244.433594 0)"/>
     <use xlink:href="#DejaVuSans-74" transform="translate(280.517578 0)"/>
     <use xlink:href="#DejaVuSans-65" transform="translate(319.726562 0)"/>
     <use xlink:href="#DejaVuSans-6e" transform="translate(381.25 0)"/>
     <use xlink:href="#DejaVuSans-61" transform="translate(444.628906 0)"/>
     <use xlink:href="#DejaVuSans-6e" transform="translate(505.908203 0)"/>
     <use xlink:href="#DejaVuSans-74" transform="translate(569.287109 0)"/>
     <use xlink:href="#DejaVuSans-20" transform="translate(608.496094 0)"/>
     <use xlink:href="#DejaVuSans-6d" transform="translate(640.283203 0)"/>
     <use xlink:href="#DejaVuSans-6f" transform="translate(737.695312 0)"/>
     <use xlink:href="#DejaVuSans-64" transform="translate(798.876953 0)"/>
     <use xlink:href="#DejaVuSans-65" transform="translate(862.353516 0)"/>
     <use xlink:href="#DejaVuSans-6c" transform="translate(923.876953 0)"/>
    </g>
   </g>
   <g id="text_9">
    <!-- Dynamic allocation -->
    <g style="fill: #ffffff" transform="translate(150.433706 595.638899) scale(0.07 -0.07)">
     <defs>
      <path id="DejaVuSans-44" d="M 1259 4147 
L 1259 519 
L 2022 519 
Q 2988 519 3436 956 
Q 3884 1394 3884 2338 
Q 3884 3275 3436 3711 
Q 2988 4147 2022 4147 
L 1259 4147 
z
M 628 4666 
L 1925 4666 
Q 3281 4666 3915 4102 
Q 4550 3538 4550 2338 
Q 4550 1131 3912 565 
Q 3275 0 1925 0 
L 628 0 
L 628 4666 
z
" transform="scale(0.015625)"/>
      <path id="DejaVuSans-79" d="M 2059 -325 
Q 1816 -950 1584 -1140 
Q 1353 -1331 966 -1331 
L 506 -1331 
L 506 -850 
L 844 -850 
Q 1081 -850 1212 -737 
Q 1344 -625 1503 -206 
L 1606 56 
L 191 3500 
L 800 3500 
L 1894 763 
L 2988 3500 
L 3597 3500 
L 2059 -325 
z
" transform="scale(0.015625)"/>
     </defs>
     <use xlink:href="#DejaVuSans-44"/>
     <use xlink:href="#DejaVuSans-79" transform="translate(77.001953 0)"/>
     <use xlink:href="#DejaVuSans-6e" transform="translate(136.181641 0)"/>
     <use xlink:href="#DejaVuSans-61" transform="translate(199.560547 0)"/>
     <use xlink:href="#DejaVuSans-6d" transform="translate(260.839844 0)"/>
     <use xlink:href="#DejaVuSans-69" transform="translate(358.251953 0)"/>
     <use xlink:href="#DejaVuSans-63" transform="translate(386.035156 0)"/>
     <use xlink:href="#DejaVuSans-20" transform="translate(441.015625 0)"/>
     <use xlink:href="#DejaVuSans-61" transform="translate(472.802734 0)"/>
     <use xlink:href="#DejaVuSans-6c" transform="translate(534.082031 0)"/>
     <use xlink:href="#DejaVuSans-6c" transform="translate(561.865234 0)"/>
     <use xlink:href="#DejaVuSans-6f" transform="translate(589.648438 0)"/>
     <use xlink:href="#DejaVuSans-63" transform="translate(650.830078 0)"/>
     <use xlink:href="#DejaVuSans-61" transform="translate(705.810547 0)"/>
     <use xlink:href="#DejaVuSans-74" transform="translate(767.089844 0)"/>
     <use xlink:href="#DejaVuSans-69" transform="translate(806.298828 0)"/>
     <use xlink:href="#DejaVuSans-6f" transform="translate(834.082031 0)"/>
     <use xlink:href="#DejaVuSans-6e" transform="translate(895.263672 0)"/>
    </g>
   </g>
   <g id="text_10">
    <!-- Location independence -->
    <g style="fill: #ffffff" transform="translate(259.682723 646.270301) scale(0.07 -0.07)">
     <defs>
      <path id="DejaVuSans-4c" d="M 628 4666 
L 1259 4666 
L 1259 531 
L 3531 531 
L 3531 0 
L 628 0 
L 628 4666 
z
" transform="scale(0.015625)"/>
     </defs>
     <use xlink:href="#DejaVuSans-4c"/>
     <use xlink:href="#DejaVuSans-6f" transform="translate(53.962891 0)"/>
     <use xlink:href="#DejaVuSans-63" transform="translate(115.144531 0)"/>
     <use xlink:href="#DejaVuSans-61" transform="translate(170.125 0)"/>
     <use xlink:href="#DejaVuSans-74" transform="translate(231.404297 0)"/>
     <use xlink:href="#DejaVuSans-69" transform="translate(270.613281 0)"/>
     <use xlink:href="#DejaVuSans-6f" transform="translate(298.396484 0)"/>
     <use xlink:href="#DejaVuSans-6e" transform="translate(359.578125 0)"/>
     <use xlink:href="#DejaVuSans-20" transform="translate(422.957031 0)"/>
     <use xlink:href="#DejaVuSans-69" transform="translate(454.744141 0)"/>
     <use xlink:href="#DejaVuSans-6e" transform="translate(482.527344 0)"/>
     <use xlink:href="#DejaVuSans-64" transform="translate(545.90625 0)"/>
     <use xlink:href="#DejaVuSans-65" transform="translate(609.382812 0)"/>
     <use xlink:href="#DejaVuSans-70" transform="translate(670.90625 0)"/>
     <use xlink:href="#DejaVuSans-65" transform="translate(734.382812 0)"/>
     <use xlink:href="#DejaVuSans-6e" transform="translate(795.90625 0)"/>
     <use xlink:href="#DejaVuSans-64" transform="translate(859.285156 0)"/>
     <use xlink:href="#DejaVuSans-65" transform="translate(922.761719 0)"/>
     <use xlink:href="#DejaVuSans-6e" transform="translate(984.285156 0)"/>
     <use xlink:href="#DejaVuSans-63" transform="translate(1047.664062 0)"/>
     <use xlink:href="#DejaVuSans-65" transform="translate(1102.644531 0)"/>
    </g>
   </g>
   <g id="patch_20">
    <path d="M 471.342582 570.476891 
C 486.160009 570.476891 500.372548 564.589865 510.850052 554.112361 
C 521.327555 543.634858 527.214582 529.422319 527.214582 514.604891 
C 527.214582 499.787464 521.327555 485.574925 510.850052 475.097421 
C 500.372548 464.619918 486.160009 458.732891 471.342582 458.732891 
C 456.525154 458.732891 442.312615 464.619918 431.835112 475.097421 
C 421.357608 485.574925 415.470582 499.787464 415.470582 514.604891 
C 415.470582 529.422319 421.357608 543.634858 431.835112 554.112361 
C 442.312615 564.589865 456.525154 570.476891 471.342582 570.476891 
z
" clip-path="url(#pa5406156fe)" style="fill: #d13438; stroke: #ffffff; stroke-width: 2; stroke-linejoin: miter"/>
   </g>
   <g id="text_11">
    <!-- Scale out/in quickly -->
    <g style="fill: #ffffff" transform="translate(378.218918 646.270301) scale(0.07 -0.07)">
     <defs>
      <path id="DejaVuSans-2f" d="M 1625 4666 
L 2156 4666 
L 531 -594 
L 0 -594 
L 1625 4666 
z
" transform="scale(0.015625)"/>
      <path id="DejaVuSans-71" d="M 947 1747 
Q 947 1113 1208 752 
Q 1469 391 1925 391 
Q 2381 391 2643 752 
Q 2906 1113 2906 1747 
Q 2906 2381 2643 2742 
Q 2381 3103 1925 3103 
Q 1469 3103 1208 2742 
Q 947 2381 947 1747 
z
M 2906 525 
Q 2725 213 2448 61 
Q 2172 -91 1784 -91 
Q 1150 -91 751 415 
Q 353 922 353 1747 
Q 353 2572 751 3078 
Q 1150 3584 1784 3584 
Q 2172 3584 2448 3432 
Q 2725 3281 2906 2969 
L 2906 3500 
L 3481 3500 
L 3481 -1331 
L 2906 -1331 
L 2906 525 
z
" transform="scale(0.015625)"/>
      <path id="DejaVuSans-6b" d="M 581 4863 
L 1159 4863 
L 1159 1991 
L 2875 3500 
L 3609 3500 
L 1753 1863 
L 3688 0 
L 2938 0 
L 1159 1709 
L 1159 0 
L 581 0 
L 581 4863 
z
" transform="scale(0.015625)"/>
     </defs>
     <use xlink:href="#DejaVuSans-53"/>
     <use xlink:href="#DejaVuSans-63" transform="translate(63.476562 0)"/>
     <use xlink:href="#DejaVuSans-61" transform="translate(118.457031 0)"/>
     <use xlink:href="#DejaVuSans-6c" transform="translate(179.736328 0)"/>
     <use xlink:href="#DejaVuSans-65" transform="translate(207.519531 0)"/>
     <use xlink:href="#DejaVuSans-20" transform="translate(269.042969 0)"/>
     <use xlink:href="#DejaVuSans-6f" transform="translate(300.830078 0)"/>
     <use xlink:href="#DejaVuSans-75" transform="translate(362.011719 0)"/>
     <use xlink:href="#DejaVuSans-74" transform="translate(425.390625 0)"/>
     <use xlink:href="#DejaVuSans-2f" transform="translate(464.599609 0)"/>
     <use xlink:href="#DejaVuSans-69" transform="translate(498.291016 0)"/>
     <use xlink:href="#DejaVuSans-6e" transform="translate(526.074219 0)"/>
     <use xlink:href="#DejaVuSans-20" transform="translate(589.453125 0)"/>
     <use xlink:href="#DejaVuSans-71" transform="translate(621.240234 0)"/>
     <use xlink:href="#DejaVuSans-75" transform="translate(684.716797 0)"/>
     <use xlink:href="#DejaVuSans-69" transform="translate(748.095703 0)"/>
     <use xlink:href="#DejaVuSans-63" transform="translate(775.878906 0)"/>
     <use xlink:href="#DejaVuSans-6b" transform="translate(830.859375 0)"/>
     <use xlink:href="#DejaVuSans-6c" transform="translate(888.769531 0)"/>
     <use xlink:href="#DejaVuSans-79" transform="translate(916.552734 0)"/>
    </g>
   </g>
   <g id="text_12">
    <!-- Appears unlimited -->
    <g style="fill: #ffffff" transform="translate(496.792701 595.638899) scale(0.07 -0.07)">
     <use xlink:href="#DejaVuSans-41"/>
     <use xlink:href="#DejaVuSans-70" transform="translate(68.408203 0)"/>
     <use xlink:href="#DejaVuSans-70" transform="translate(131.884766 0)"/>
     <use xlink:href="#DejaVuSans-65" transform="translate(195.361328 0)"/>
     <use xlink:href="#DejaVuSans-61" transform="translate(256.884766 0)"/>
     <use xlink:href="#DejaVuSans-72" transform="translate(318.164062 0)"/>
     <use xlink:href="#DejaVuSans-73" transform="translate(359.277344 0)"/>
     <use xlink:href="#DejaVuSans-20" transform="translate(411.376953 0)"/>
     <use xlink:href="#DejaVuSans-75" transform="translate(443.164062 0)"/>
     <use xlink:href="#DejaVuSans-6e" transform="translate(506.542969 0)"/>
     <use xlink:href="#DejaVuSans-6c" transform="translate(569.921875 0)"/>
     <use xlink:href="#DejaVuSans-69" transform="translate(597.705078 0)"/>
     <use xlink:href="#DejaVuSans-6d" transform="translate(625.488281 0)"/>
     <use xlink:href="#DejaVuSans-69" transform="translate(722.900391 0)"/>
     <use xlink:href="#DejaVuSans-74" transform="translate(750.683594 0)"/>
     <use xlink:href="#DejaVuSans-65" transform="translate(789.892578 0)"/>
     <use xlink:href="#DejaVuSans-64" transform="translate(851.416016 0)"/>
    </g>
   </g>
   <g id="text_13">
    <!-- Demand-based -->
    <g style="fill: #ffffff" transform="translate(586.279356 500.539799) scale(0.07 -0.07)">
     <use xlink:href="#DejaVuSans-44"/>
     <use xlink:href="#DejaVuSans-65" transform="translate(77.001953 0)"/>
     <use xlink:href="#DejaVuSans-6d" transform="translate(138.525391 0)"/>
     <use xlink:href="#DejaVuSans-61" transform="translate(235.9375 0)"/>
     <use xlink:href="#DejaVuSans-6e" transform="translate(297.216797 0)"/>
     <use xlink:href="#DejaVuSans-64" transform="translate(360.595703 0)"/>
     <use xlink:href="#DejaVuSans-2d" transform="translate(424.072266 0)"/>
     <use xlink:href="#DejaVuSans-62" transform="translate(460.15625 0)"/>
     <use xlink:href="#DejaVuSans-61" transform="translate(523.632812 0)"/>
     <use xlink:href="#DejaVuSans-73" transform="translate(584.912109 0)"/>
     <use xlink:href="#DejaVuSans-65" transform="translate(637.011719 0)"/>
     <use xlink:href="#DejaVuSans-64" transform="translate(698.535156 0)"/>
    </g>
   </g>
   <g id="patch_21">
    <path d="M 542.381004 351.843109 
C 557.198431 351.843109 571.41097 345.956082 581.888474 335.478579 
C 592.365977 325.001075 598.253004 310.788536 598.253004 295.971109 
C 598.253004 281.153681 592.365977 266.941142 581.888474 256.463639 
C 571.41097 245.986135 557.198431 240.099109 542.381004 240.099109 
C 527.563576 240.099109 513.351037 245.986135 502.873534 256.463639 
C 492.39603 266.941142 486.509004 281.153681 486.509004 295.971109 
C 486.509004 310.788536 492.39603 325.001075 502.873534 335.478579 
C 513.351037 345.956082 527.563576 351.843109 542.381004 351.843109 
z
" clip-path="url(#pa5406156fe)" style="fill: #004578; stroke: #ffffff; stroke-width: 2; stroke-linejoin: miter"/>
   </g>
   <g id="text_14">
    <!-- Pay-per-use -->
    <g style="fill: #ffffff" transform="translate(627.121812 394.079253) scale(0.07 -0.07)">
     <defs>
      <path id="DejaVuSans-50" d="M 1259 4147 
L 1259 2394 
L 2053 2394 
Q 2494 2394 2734 2622 
Q 2975 2850 2975 3272 
Q 2975 3691 2734 3919 
Q 2494 4147 2053 4147 
L 1259 4147 
z
M 628 4666 
L 2053 4666 
Q 2838 4666 3239 4311 
Q 3641 3956 3641 3272 
Q 3641 2581 3239 2228 
Q 2838 1875 2053 1875 
L 1259 1875 
L 1259 0 
L 628 0 
L 628 4666 
z
" transform="scale(0.015625)"/>
     </defs>
     <use xlink:href="#DejaVuSans-50"/>
     <use xlink:href="#DejaVuSans-61" transform="translate(55.802734 0)"/>
     <use xlink:href="#DejaVuSans-79" transform="translate(117.082031 0)"/>
     <use xlink:href="#DejaVuSans-2d" transform="translate(174.511719 0)"/>
     <use xlink:href="#DejaVuSans-70" transform="translate(210.595703 0)"/>
     <use xlink:href="#DejaVuSans-65" transform="translate(274.072266 0)"/>
     <use xlink:href="#DejaVuSans-72" transform="translate(335.595703 0)"/>
     <use xlink:href="#DejaVuSans-2d" transform="translate(370.333984 0)"/>
     <use xlink:href="#DejaVuSans-75" transform="translate(406.417969 0)"/>
     <use xlink:href="#DejaVuSans-73" transform="translate(469.796875 0)"/>
     <use xlink:href="#DejaVuSans-65" transform="translate(521.896484 0)"/>
    </g>
   </g>
   <g id="text_15">
    <!-- Monitoring &amp; reporting -->
    <g style="fill: #ffffff" transform="translate(595.600021 267.688226) scale(0.07 -0.07)">
     <defs>
      <path id="DejaVuSans-26" d="M 1556 2509 
Q 1272 2256 1139 2004 
Q 1006 1753 1006 1478 
Q 1006 1022 1337 719 
Q 1669 416 2169 416 
Q 2466 416 2725 514 
Q 2984 613 3213 813 
L 1556 2509 
z
M 1997 2859 
L 3584 1234 
Q 3769 1513 3872 1830 
Q 3975 2147 3994 2503 
L 4575 2503 
Q 4538 2091 4375 1687 
Q 4213 1284 3922 891 
L 4794 0 
L 4006 0 
L 3559 459 
Q 3234 181 2878 45 
Q 2522 -91 2113 -91 
Q 1359 -91 881 339 
Q 403 769 403 1441 
Q 403 1841 612 2192 
Q 822 2544 1241 2853 
Q 1091 3050 1012 3245 
Q 934 3441 934 3628 
Q 934 4134 1281 4442 
Q 1628 4750 2203 4750 
Q 2463 4750 2720 4694 
Q 2978 4638 3244 4525 
L 3244 3956 
Q 2972 4103 2725 4179 
Q 2478 4256 2266 4256 
Q 1938 4256 1733 4082 
Q 1528 3909 1528 3634 
Q 1528 3475 1620 3314 
Q 1713 3153 1997 2859 
z
" transform="scale(0.015625)"/>
     </defs>
     <use xlink:href="#DejaVuSans-4d"/>
     <use xlink:href="#DejaVuSans-6f" transform="translate(86.279297 0)"/>
     <use xlink:href="#DejaVuSans-6e" transform="translate(147.460938 0)"/>
     <use xlink:href="#DejaVuSans-69" transform="translate(210.839844 0)"/>
     <use xlink:href="#DejaVuSans-74" transform="translate(238.623047 0)"/>
     <use xlink:href="#DejaVuSans-6f" transform="translate(277.832031 0)"/>
     <use xlink:href="#DejaVuSans-72" transform="translate(339.013672 0)"/>
     <use xlink:href="#DejaVuSans-69" transform="translate(380.126953 0)"/>
     <use xlink:href="#DejaVuSans-6e" transform="translate(407.910156 0)"/>
     <use xlink:href="#DejaVuSans-67" transform="translate(471.289062 0)"/>
     <use xlink:href="#DejaVuSans-20" transform="translate(534.765625 0)"/>
     <use xlink:href="#DejaVuSans-26" transform="translate(566.552734 0)"/>
     <use xlink:href="#DejaVuSans-20" transform="translate(644.53125 0)"/>
     <use xlink:href="#DejaVuSans-72" transform="translate(676.318359 0)"/>
     <use xlink:href="#DejaVuSans-65" transform="translate(715.181641 0)"/>
     <use xlink:href="#DejaVuSans-70" transform="translate(776.705078 0)"/>
     <use xlink:href="#DejaVuSans-6f" transform="translate(840.181641 0)"/>
     <use xlink:href="#DejaVuSans-72" transform="translate(901.363281 0)"/>
     <use xlink:href="#DejaVuSans-74" transform="translate(942.476562 0)"/>
     <use xlink:href="#DejaVuSans-69" transform="translate(981.685547 0)"/>
     <use xlink:href="#DejaVuSans-6e" transform="translate(1009.46875 0)"/>
     <use xlink:href="#DejaVuSans-67" transform="translate(1072.847656 0)"/>
    </g>
   </g>
   <g id="text_16">
    <!-- Transparent billing -->
    <g style="fill: #ffffff" transform="translate(538.545503 158.282348) scale(0.07 -0.07)">
     <defs>
      <path id="DejaVuSans-54" d="M -19 4666 
L 3928 4666 
L 3928 4134 
L 2272 4134 
L 2272 0 
L 1638 0 
L 1638 4134 
L -19 4134 
L -19 4666 
z
" transform="scale(0.015625)"/>
     </defs>
     <use xlink:href="#DejaVuSans-54"/>
     <use xlink:href="#DejaVuSans-72" transform="translate(46.333984 0)"/>
     <use xlink:href="#DejaVuSans-61" transform="translate(87.447266 0)"/>
     <use xlink:href="#DejaVuSans-6e" transform="translate(148.726562 0)"/>
     <use xlink:href="#DejaVuSans-73" transform="translate(212.105469 0)"/>
     <use xlink:href="#DejaVuSans-70" transform="translate(264.205078 0)"/>
     <use xlink:href="#DejaVuSans-61" transform="translate(327.681641 0)"/>
     <use xlink:href="#DejaVuSans-72" transform="translate(388.960938 0)"/>
     <use xlink:href="#DejaVuSans-65" transform="translate(427.824219 0)"/>
     <use xlink:href="#DejaVuSans-6e" transform="translate(489.347656 0)"/>
     <use xlink:href="#DejaVuSans-74" transform="translate(552.726562 0)"/>
     <use xlink:href="#DejaVuSans-20" transform="translate(591.935547 0)"/>
     <use xlink:href="#DejaVuSans-62" transform="translate(623.722656 0)"/>
     <use xlink:href="#DejaVuSans-69" transform="translate(687.199219 0)"/>
     <use xlink:href="#DejaVuSans-6c" transform="translate(714.982422 0)"/>
     <use xlink:href="#DejaVuSans-6c" transform="translate(742.765625 0)"/>
     <use xlink:href="#DejaVuSans-69" transform="translate(770.548828 0)"/>
     <use xlink:href="#DejaVuSans-6e" transform="translate(798.332031 0)"/>
     <use xlink:href="#DejaVuSans-67" transform="translate(861.710938 0)"/>
    </g>
   </g>
   <g id="text_17">
    <!-- On-Demand -->
    <g style="fill: #ffffff" transform="translate(326.565 158.292422) scale(0.09 -0.09)">
     <defs>
      <path id="DejaVuSans-Bold-4f" d="M 2719 3878 
Q 2169 3878 1866 3472 
Q 1563 3066 1563 2328 
Q 1563 1594 1866 1187 
Q 2169 781 2719 781 
Q 3272 781 3575 1187 
Q 3878 1594 3878 2328 
Q 3878 3066 3575 3472 
Q 3272 3878 2719 3878 
z
M 2719 4750 
Q 3844 4750 4481 4106 
Q 5119 3463 5119 2328 
Q 5119 1197 4481 553 
Q 3844 -91 2719 -91 
Q 1597 -91 958 553 
Q 319 1197 319 2328 
Q 319 3463 958 4106 
Q 1597 4750 2719 4750 
z
" transform="scale(0.015625)"/>
      <path id="DejaVuSans-Bold-2d" d="M 347 2297 
L 2309 2297 
L 2309 1388 
L 347 1388 
L 347 2297 
z
" transform="scale(0.015625)"/>
      <path id="DejaVuSans-Bold-44" d="M 1791 3756 
L 1791 909 
L 2222 909 
Q 2959 909 3348 1275 
Q 3738 1641 3738 2338 
Q 3738 3031 3350 3393 
Q 2963 3756 2222 3756 
L 1791 3756 
z
M 588 4666 
L 1856 4666 
Q 2919 4666 3439 4514 
Q 3959 4363 4331 4000 
Q 4659 3684 4818 3271 
Q 4978 2859 4978 2338 
Q 4978 1809 4818 1395 
Q 4659 981 4331 666 
Q 3956 303 3431 151 
Q 2906 0 1856 0 
L 588 0 
L 588 4666 
z
" transform="scale(0.015625)"/>
     </defs>
     <use xlink:href="#DejaVuSans-Bold-4f"/>
     <use xlink:href="#DejaVuSans-Bold-6e" transform="translate(85.009766 0)"/>
     <use xlink:href="#DejaVuSans-Bold-2d" transform="translate(156.201172 0)"/>
     <use xlink:href="#DejaVuSans-Bold-44" transform="translate(197.705078 0)"/>
     <use xlink:href="#DejaVuSans-Bold-65" transform="translate(280.712891 0)"/>
     <use xlink:href="#DejaVuSans-Bold-6d" transform="translate(348.535156 0)"/>
     <use xlink:href="#DejaVuSans-Bold-61" transform="translate(452.734375 0)"/>
     <use xlink:href="#DejaVuSans-Bold-6e" transform="translate(520.214844 0)"/>
     <use xlink:href="#DejaVuSans-Bold-64" transform="translate(591.40625 0)"/>
    </g>
    <!-- Self-Service -->
    <g style="fill: #ffffff" transform="translate(326.110078 168.370453) scale(0.09 -0.09)">
     <defs>
      <path id="DejaVuSans-Bold-66" d="M 2841 4863 
L 2841 4128 
L 2222 4128 
Q 1984 4128 1890 4042 
Q 1797 3956 1797 3744 
L 1797 3500 
L 2753 3500 
L 2753 2700 
L 1797 2700 
L 1797 0 
L 678 0 
L 678 2700 
L 122 2700 
L 122 3500 
L 678 3500 
L 678 3744 
Q 678 4316 997 4589 
Q 1316 4863 1984 4863 
L 2841 4863 
z
" transform="scale(0.015625)"/>
      <path id="DejaVuSans-Bold-76" d="M 97 3500 
L 1216 3500 
L 2088 1081 
L 2956 3500 
L 4078 3500 
L 2700 0 
L 1472 0 
L 97 3500 
z
" transform="scale(0.015625)"/>
     </defs>
     <use xlink:href="#DejaVuSans-Bold-53"/>
     <use xlink:href="#DejaVuSans-Bold-65" transform="translate(72.021484 0)"/>
     <use xlink:href="#DejaVuSans-Bold-6c" transform="translate(139.84375 0)"/>
     <use xlink:href="#DejaVuSans-Bold-66" transform="translate(174.121094 0)"/>
     <use xlink:href="#DejaVuSans-Bold-2d" transform="translate(215.876953 0)"/>
     <use xlink:href="#DejaVuSans-Bold-53" transform="translate(257.380859 0)"/>
     <use xlink:href="#DejaVuSans-Bold-65" transform="translate(329.402344 0)"/>
     <use xlink:href="#DejaVuSans-Bold-72" transform="translate(397.224609 0)"/>
     <use xlink:href="#DejaVuSans-Bold-76" transform="translate(446.541016 0)"/>
     <use xlink:href="#DejaVuSans-Bold-69" transform="translate(511.726562 0)"/>
     <use xlink:href="#DejaVuSans-Bold-63" transform="translate(546.003906 0)"/>
     <use xlink:href="#DejaVuSans-Bold-65" transform="translate(605.28125 0)"/>
    </g>
   </g>
   <g id="text_18">
    <!-- Broad -->
    <g style="fill: #ffffff" transform="translate(155.420637 293.415531) scale(0.09 -0.09)">
     <defs>
      <path id="DejaVuSans-Bold-42" d="M 2456 2859 
Q 2741 2859 2887 2984 
Q 3034 3109 3034 3353 
Q 3034 3594 2887 3720 
Q 2741 3847 2456 3847 
L 1791 3847 
L 1791 2859 
L 2456 2859 
z
M 2497 819 
Q 2859 819 3042 972 
Q 3225 1125 3225 1434 
Q 3225 1738 3044 1889 
Q 2863 2041 2497 2041 
L 1791 2041 
L 1791 819 
L 2497 819 
z
M 3616 2497 
Q 4003 2384 4215 2081 
Q 4428 1778 4428 1338 
Q 4428 663 3972 331 
Q 3516 0 2584 0 
L 588 0 
L 588 4666 
L 2394 4666 
Q 3366 4666 3802 4372 
Q 4238 4078 4238 3431 
Q 4238 3091 4078 2852 
Q 3919 2613 3616 2497 
z
" transform="scale(0.015625)"/>
     </defs>
     <use xlink:href="#DejaVuSans-Bold-42"/>
     <use xlink:href="#DejaVuSans-Bold-72" transform="translate(76.220703 0)"/>
     <use xlink:href="#DejaVuSans-Bold-6f" transform="translate(125.537109 0)"/>
     <use xlink:href="#DejaVuSans-Bold-61" transform="translate(194.238281 0)"/>
     <use xlink:href="#DejaVuSans-Bold-64" transform="translate(261.71875 0)"/>
    </g>
    <!-- Network Access -->
    <g style="fill: #ffffff" transform="translate(130.196027 303.493562) scale(0.09 -0.09)">
     <defs>
      <path id="DejaVuSans-Bold-77" d="M 225 3500 
L 1313 3500 
L 1900 1088 
L 2491 3500 
L 3425 3500 
L 4013 1113 
L 4603 3500 
L 5691 3500 
L 4769 0 
L 3547 0 
L 2956 2406 
L 2369 0 
L 1147 0 
L 225 3500 
z
" transform="scale(0.015625)"/>
      <path id="DejaVuSans-Bold-6b" d="M 538 4863 
L 1656 4863 
L 1656 2216 
L 2944 3500 
L 4244 3500 
L 2534 1894 
L 4378 0 
L 3022 0 
L 1656 1459 
L 1656 0 
L 538 0 
L 538 4863 
z
" transform="scale(0.015625)"/>
      <path id="DejaVuSans-Bold-41" d="M 3419 850 
L 1538 850 
L 1241 0 
L 31 0 
L 1759 4666 
L 3194 4666 
L 4922 0 
L 3713 0 
L 3419 850 
z
M 1838 1716 
L 3116 1716 
L 2478 3572 
L 1838 1716 
z
" transform="scale(0.015625)"/>
     </defs>
     <use xlink:href="#DejaVuSans-Bold-4e"/>
     <use xlink:href="#DejaVuSans-Bold-65" transform="translate(83.691406 0)"/>
     <use xlink:href="#DejaVuSans-Bold-74" transform="translate(151.513672 0)"/>
     <use xlink:href="#DejaVuSans-Bold-77" transform="translate(199.316406 0)"/>
     <use xlink:href="#DejaVuSans-Bold-6f" transform="translate(291.699219 0)"/>
     <use xlink:href="#DejaVuSans-Bold-72" transform="translate(360.400391 0)"/>
     <use xlink:href="#DejaVuSans-Bold-6b" transform="translate(409.716797 0)"/>
     <use xlink:href="#DejaVuSans-Bold-20" transform="translate(476.220703 0)"/>
     <use xlink:href="#DejaVuSans-Bold-41" transform="translate(511.035156 0)"/>
     <use xlink:href="#DejaVuSans-Bold-63" transform="translate(588.427734 0)"/>
     <use xlink:href="#DejaVuSans-Bold-63" transform="translate(647.705078 0)"/>
     <use xlink:href="#DejaVuSans-Bold-65" transform="translate(706.982422 0)"/>
     <use xlink:href="#DejaVuSans-Bold-73" transform="translate(774.804688 0)"/>
     <use xlink:href="#DejaVuSans-Bold-73" transform="translate(834.326172 0)"/>
    </g>
   </g>
   <g id="text_19">
    <!-- Resource -->
    <g style="fill: #ffffff" transform="translate(218.027887 512.014157) scale(0.09 -0.09)">
     <defs>
      <path id="DejaVuSans-Bold-52" d="M 2297 2597 
Q 2675 2597 2839 2737 
Q 3003 2878 3003 3200 
Q 3003 3519 2839 3656 
Q 2675 3794 2297 3794 
L 1791 3794 
L 1791 2597 
L 2297 2597 
z
M 1791 1766 
L 1791 0 
L 588 0 
L 588 4666 
L 2425 4666 
Q 3347 4666 3776 4356 
Q 4206 4047 4206 3378 
Q 4206 2916 3982 2619 
Q 3759 2322 3309 2181 
Q 3556 2125 3751 1926 
Q 3947 1728 4147 1325 
L 4800 0 
L 3519 0 
L 2950 1159 
Q 2778 1509 2601 1637 
Q 2425 1766 2131 1766 
L 1791 1766 
z
" transform="scale(0.015625)"/>
     </defs>
     <use xlink:href="#DejaVuSans-Bold-52"/>
     <use xlink:href="#DejaVuSans-Bold-65" transform="translate(77.001953 0)"/>
     <use xlink:href="#DejaVuSans-Bold-73" transform="translate(144.824219 0)"/>
     <use xlink:href="#DejaVuSans-Bold-6f" transform="translate(204.345703 0)"/>
     <use xlink:href="#DejaVuSans-Bold-75" transform="translate(273.046875 0)"/>
     <use xlink:href="#DejaVuSans-Bold-72" transform="translate(344.238281 0)"/>
     <use xlink:href="#DejaVuSans-Bold-63" transform="translate(393.554688 0)"/>
     <use xlink:href="#DejaVuSans-Bold-65" transform="translate(452.832031 0)"/>
    </g>
    <!-- Pooling -->
    <g style="fill: #ffffff" transform="translate(222.466012 522.092188) scale(0.09 -0.09)">
     <defs>
      <path id="DejaVuSans-Bold-50" d="M 588 4666 
L 2584 4666 
Q 3475 4666 3951 4270 
Q 4428 3875 4428 3144 
Q 4428 2409 3951 2014 
Q 3475 1619 2584 1619 
L 1791 1619 
L 1791 0 
L 588 0 
L 588 4666 
z
M 1791 3794 
L 1791 2491 
L 2456 2491 
Q 2806 2491 2997 2661 
Q 3188 2831 3188 3144 
Q 3188 3456 2997 3625 
Q 2806 3794 2456 3794 
L 1791 3794 
z
" transform="scale(0.015625)"/>
     </defs>
     <use xlink:href="#DejaVuSans-Bold-50"/>
     <use xlink:href="#DejaVuSans-Bold-6f" transform="translate(73.291016 0)"/>
     <use xlink:href="#DejaVuSans-Bold-6f" transform="translate(141.992188 0)"/>
     <use xlink:href="#DejaVuSans-Bold-6c" transform="translate(210.693359 0)"/>
     <use xlink:href="#DejaVuSans-Bold-69" transform="translate(244.970703 0)"/>
     <use xlink:href="#DejaVuSans-Bold-6e" transform="translate(279.248047 0)"/>
     <use xlink:href="#DejaVuSans-Bold-67" transform="translate(350.439453 0)"/>
    </g>
   </g>
   <g id="text_20">
    <!-- Rapid -->
    <g style="fill: #ffffff" transform="translate(456.856097 512.014157) scale(0.09 -0.09)">
     <use xlink:href="#DejaVuSans-Bold-52"/>
     <use xlink:href="#DejaVuSans-Bold-61" transform="translate(77.001953 0)"/>
     <use xlink:href="#DejaVuSans-Bold-70" transform="translate(144.482422 0)"/>
     <use xlink:href="#DejaVuSans-Bold-69" transform="translate(216.064453 0)"/>
     <use xlink:href="#DejaVuSans-Bold-64" transform="translate(250.341797 0)"/>
    </g>
    <!-- Elasticity -->
    <g style="fill: #ffffff" transform="translate(448.022738 522.092188) scale(0.09 -0.09)">
     <defs>
      <path id="DejaVuSans-Bold-79" d="M 78 3500 
L 1197 3500 
L 2138 1125 
L 2938 3500 
L 4056 3500 
L 2584 -331 
Q 2363 -916 2067 -1148 
Q 1772 -1381 1288 -1381 
L 641 -1381 
L 641 -647 
L 991 -647 
Q 1275 -647 1404 -556 
Q 1534 -466 1606 -231 
L 1638 -134 
L 78 3500 
z
" transform="scale(0.015625)"/>
     </defs>
     <use xlink:href="#DejaVuSans-Bold-45"/>
     <use xlink:href="#DejaVuSans-Bold-6c" transform="translate(68.310547 0)"/>
     <use xlink:href="#DejaVuSans-Bold-61" transform="translate(102.587891 0)"/>
     <use xlink:href="#DejaVuSans-Bold-73" transform="translate(170.068359 0)"/>
     <use xlink:href="#DejaVuSans-Bold-74" transform="translate(229.589844 0)"/>
     <use xlink:href="#DejaVuSans-Bold-69" transform="translate(277.392578 0)"/>
     <use xlink:href="#DejaVuSans-Bold-63" transform="translate(311.669922 0)"/>
     <use xlink:href="#DejaVuSans-Bold-69" transform="translate(370.947266 0)"/>
     <use xlink:href="#DejaVuSans-Bold-74" transform="translate(405.224609 0)"/>
     <use xlink:href="#DejaVuSans-Bold-79" transform="translate(453.027344 0)"/>
    </g>
   </g>
   <g id="text_21">
    <!-- Measured -->
    <g style="fill: #ffffff" transform="translate(517.439754 293.415531) scale(0.09 -0.09)">
     <defs>
      <path id="DejaVuSans-Bold-4d" d="M 588 4666 
L 2119 4666 
L 3181 2169 
L 4250 4666 
L 5778 4666 
L 5778 0 
L 4641 0 
L 4641 3413 
L 3566 897 
L 2803 897 
L 1728 3413 
L 1728 0 
L 588 0 
L 588 4666 
z
" transform="scale(0.015625)"/>
     </defs>
     <use xlink:href="#DejaVuSans-Bold-4d"/>
     <use xlink:href="#DejaVuSans-Bold-65" transform="translate(99.511719 0)"/>
     <use xlink:href="#DejaVuSans-Bold-61" transform="translate(167.333984 0)"/>
     <use xlink:href="#DejaVuSans-Bold-73" transform="translate(234.814453 0)"/>
     <use xlink:href="#DejaVuSans-Bold-75" transform="translate(294.335938 0)"/>
     <use xlink:href="#DejaVuSans-Bold-72" transform="translate(365.527344 0)"/>
     <use xlink:href="#DejaVuSans-Bold-65" transform="translate(414.84375 0)"/>
     <use xlink:href="#DejaVuSans-Bold-64" transform="translate(482.666016 0)"/>
    </g>
    <!-- Service -->
    <g style="fill: #ffffff" transform="translate(523.672957 303.493562) scale(0.09 -0.09)">
     <use xlink:href="#DejaVuSans-Bold-53"/>
     <use xlink:href="#DejaVuSans-Bold-65" transform="translate(72.021484 0)"/>
     <use xlink:href="#DejaVuSans-Bold-72" transform="translate(139.84375 0)"/>
     <use xlink:href="#DejaVuSans-Bold-76" transform="translate(189.160156 0)"/>
     <use xlink:href="#DejaVuSans-Bold-69" transform="translate(254.345703 0)"/>
     <use xlink:href="#DejaVuSans-Bold-63" transform="translate(288.623047 0)"/>
     <use xlink:href="#DejaVuSans-Bold-65" transform="translate(347.900391 0)"/>
    </g>
   </g>
   <g id="patch_22">
    <path d="M 356.4 440.208 
C 378.626141 440.208 399.94495 431.37746 415.661205 415.661205 
C 431.37746 399.94495 440.208 378.626141 440.208 356.4 
C 440.208 334.173859 431.37746 312.85505 415.661205 297.138795 
C 399.94495 281.42254 378.626141 272.592 356.4 272.592 
C 334.173859 272.592 312.85505 281.42254 297.138795 297.138795 
C 281.42254 312.85505 272.592 334.173859 272.592 356.4 
C 272.592 378.626141 281.42254 399.94495 297.138795 415.661205 
C 312.85505 431.37746 334.173859 440.208 356.4 440.208 
z
" clip-path="url(#pa5406156fe)" style="fill: #0078d4; stroke: #ffffff; stroke-width: 3; stroke-linejoin: miter"/>
   </g>
   <g id="text_22">
    <!-- Cloud -->
    <g style="fill: #ffffff" transform="translate(334.060156 352.369969) scale(0.14 -0.14)">
     <use xlink:href="#DejaVuSans-Bold-43"/>
     <use xlink:href="#DejaVuSans-Bold-6c" transform="translate(73.388672 0)"/>
     <use xlink:href="#DejaVuSans-Bold-6f" transform="translate(107.666016 0)"/>
     <use xlink:href="#DejaVuSans-Bold-75" transform="translate(176.367188 0)"/>
     <use xlink:href="#DejaVuSans-Bold-64" transform="translate(247.558594 0)"/>
    </g>
    <!-- Computing -->
    <g style="fill: #ffffff" transform="translate(313.426562 368.046906) scale(0.14 -0.14)">
     <use xlink:href="#DejaVuSans-Bold-43"/>
     <use xlink:href="#DejaVuSans-Bold-6f" transform="translate(73.388672 0)"/>
     <use xlink:href="#DejaVuSans-Bold-6d" transform="translate(142.089844 0)"/>
     <use xlink:href="#DejaVuSans-Bold-70" transform="translate(246.289062 0)"/>
     <use xlink:href="#DejaVuSans-Bold-75" transform="translate(317.871094 0)"/>
     <use xlink:href="#DejaVuSans-Bold-74" transform="translate(389.0625 0)"/>
     <use xlink:href="#DejaVuSans-Bold-69" transform="translate(436.865234 0)"/>
     <use xlink:href="#DejaVuSans-Bold-6e" transform="translate(471.142578 0)"/>
     <use xlink:href="#DejaVuSans-Bold-67" transform="translate(542.333984 0)"/>
    </g>
   </g>
  </g>
 </g>
 <defs>
  <clipPath id="pa5406156fe">
   <rect x="7.2" y="7.2" width="698.4" height="698.4"/>
  </clipPath>
 </defs>
</svg>
