<?xml version="1.0" encoding="UTF-8" standalone="no"?>
<!DOCTYPE svg PUBLIC "-//W3C//DTD SVG 1.1//EN"
 "http://www.w3.org/Graphics/SVG/1.1/DTD/svg11.dtd">
<!-- Generated by graphviz version 2.43.0 (0)
 -->
<!-- Title: Cloud Deployment Models Comparison Pages: 1 -->
<svg width="1645pt" height="559pt"
 viewBox="0.00 0.00 1645.00 559.00" xmlns="http://www.w3.org/2000/svg" xmlns:xlink="http://www.w3.org/1999/xlink">
<g id="graph0" class="graph" transform="scale(1 1) rotate(0) translate(36 523)">
<title>Cloud Deployment Models Comparison</title>
<polygon fill="white" stroke="transparent" points="-36,36 -36,-523 1609,-523 1609,36 -36,36"/>
<text text-anchor="middle" x="786.5" y="-7.8" font-family="Sans-Serif" font-size="14.00" fill="#2d3436">Cloud Deployment Models Comparison</text>
<g id="clust1" class="cluster">
<title>cluster_Public Cloud
(Azure, AWS, GCP)</title>
<path fill="#e6f3ff" stroke="#aeb6be" d="M20,-39C20,-39 591,-39 591,-39 597,-39 603,-45 603,-51 603,-51 603,-214 603,-214 603,-220 597,-226 591,-226 591,-226 20,-226 20,-226 14,-226 8,-220 8,-214 8,-214 8,-51 8,-51 8,-45 14,-39 20,-39"/>
<text text-anchor="middle" x="71" y="-212.4" font-family="Sans-Serif" font-size="12.00" fill="#2d3436">Public Cloud</text>
<text text-anchor="middle" x="71" y="-199.4" font-family="Sans-Serif" font-size="12.00" fill="#2d3436">(Azure, AWS, GCP)</text>
</g>
<g id="clust2" class="cluster">
<title>cluster_Private Cloud
(On&#45;Premises)</title>
<path fill="#e6ffe6" stroke="#aeb6be" d="M656,-39C656,-39 1227,-39 1227,-39 1233,-39 1239,-45 1239,-51 1239,-51 1239,-214 1239,-214 1239,-220 1233,-226 1227,-226 1227,-226 656,-226 656,-226 650,-226 644,-220 644,-214 644,-214 644,-51 644,-51 644,-45 650,-39 656,-39"/>
<text text-anchor="middle" x="694.5" y="-212.4" font-family="Sans-Serif" font-size="12.00" fill="#2d3436">Private Cloud</text>
<text text-anchor="middle" x="694.5" y="-199.4" font-family="Sans-Serif" font-size="12.00" fill="#2d3436">(On&#45;Premises)</text>
</g>
<g id="clust3" class="cluster">
<title>cluster_Hybrid Cloud</title>
<path fill="#fff3e6" stroke="#aeb6be" d="M1284,-31C1284,-31 1553,-31 1553,-31 1559,-31 1565,-37 1565,-43 1565,-43 1565,-467 1565,-467 1565,-473 1559,-479 1553,-479 1553,-479 1284,-479 1284,-479 1278,-479 1272,-473 1272,-467 1272,-467 1272,-43 1272,-43 1272,-37 1278,-31 1284,-31"/>
<text text-anchor="middle" x="1318.5" y="-465.4" font-family="Sans-Serif" font-size="12.00" fill="#2d3436">Hybrid Cloud</text>
</g>
<g id="clust4" class="cluster">
<title>cluster_Azure</title>
<path fill="#ebf3e7" stroke="#aeb6be" d="M1292,-39C1292,-39 1545,-39 1545,-39 1551,-39 1557,-45 1557,-51 1557,-51 1557,-201 1557,-201 1557,-207 1551,-213 1545,-213 1545,-213 1292,-213 1292,-213 1286,-213 1280,-207 1280,-201 1280,-201 1280,-51 1280,-51 1280,-45 1286,-39 1292,-39"/>
<text text-anchor="middle" x="1305" y="-199.4" font-family="Sans-Serif" font-size="12.00" fill="#2d3436">Azure</text>
</g>
<g id="clust5" class="cluster">
<title>cluster_On&#45;Premises</title>
<path fill="#ebf3e7" stroke="#aeb6be" d="M1389,-276C1389,-276 1483,-276 1483,-276 1489,-276 1495,-282 1495,-288 1495,-288 1495,-438 1495,-438 1495,-444 1489,-450 1483,-450 1483,-450 1389,-450 1389,-450 1383,-450 1377,-444 1377,-438 1377,-438 1377,-288 1377,-288 1377,-282 1383,-276 1389,-276"/>
<text text-anchor="middle" x="1423" y="-436.4" font-family="Sans-Serif" font-size="12.00" fill="#2d3436">On&#45;Premises</text>
</g>
<!-- 96645d48bbf54a8b92a85658ca5cdd5b -->
<g id="node1" class="node">
<title>96645d48bbf54a8b92a85658ca5cdd5b</title>
<image xlink:href="/workspaces/sov-cloud-brain-trek/.venv/lib/python3.12/site-packages/resources/azure/compute/vm.png" width="101px" height="101px" preserveAspectRatio="xMinYMin meet" x="493.5" y="-166"/>
<text text-anchor="middle" x="544" y="-50.6" font-family="Sans-Serif" font-size="13.00" fill="#2d3436">VM</text>
</g>
<!-- 02bd24c505cb45cd8b3e244279deb6a1 -->
<g id="node2" class="node">
<title>02bd24c505cb45cd8b3e244279deb6a1</title>
<image xlink:href="/workspaces/sov-cloud-brain-trek/.venv/lib/python3.12/site-packages/resources/azure/compute/vm.png" width="101px" height="101px" preserveAspectRatio="xMinYMin meet" x="334.5" y="-166"/>
<text text-anchor="middle" x="385" y="-50.6" font-family="Sans-Serif" font-size="13.00" fill="#2d3436">VM</text>
</g>
<!-- 379e72515c8a42cab2ef948acf1eb204 -->
<g id="node3" class="node">
<title>379e72515c8a42cab2ef948acf1eb204</title>
<image xlink:href="/workspaces/sov-cloud-brain-trek/.venv/lib/python3.12/site-packages/resources/azure/compute/vm.png" width="101px" height="101px" preserveAspectRatio="xMinYMin meet" x="175.5" y="-166"/>
<text text-anchor="middle" x="226" y="-50.6" font-family="Sans-Serif" font-size="13.00" fill="#2d3436">VM</text>
</g>
<!-- d9e2ed82be954f0ab7de9b2f36b265d2 -->
<g id="node4" class="node">
<title>d9e2ed82be954f0ab7de9b2f36b265d2</title>
<image xlink:href="/workspaces/sov-cloud-brain-trek/.venv/lib/python3.12/site-packages/resources/azure/network/virtual-networks.png" width="101px" height="101px" preserveAspectRatio="xMinYMin meet" x="16.5" y="-166"/>
<text text-anchor="middle" x="67" y="-50.6" font-family="Sans-Serif" font-size="13.00" fill="#2d3436">VNet</text>
</g>
<!-- daae65ca7f1f4d5bbd760d2eb218007c -->
<g id="node5" class="node">
<title>daae65ca7f1f4d5bbd760d2eb218007c</title>
<image xlink:href="/workspaces/sov-cloud-brain-trek/.venv/lib/python3.12/site-packages/resources/onprem/compute/server.png" width="101px" height="101px" preserveAspectRatio="xMinYMin meet" x="1129.5" y="-166"/>
<text text-anchor="middle" x="1180" y="-50.6" font-family="Sans-Serif" font-size="13.00" fill="#2d3436">Server</text>
</g>
<!-- 08fbddf9898b45c58ab89f907b51699a -->
<g id="node6" class="node">
<title>08fbddf9898b45c58ab89f907b51699a</title>
<image xlink:href="/workspaces/sov-cloud-brain-trek/.venv/lib/python3.12/site-packages/resources/onprem/compute/server.png" width="101px" height="101px" preserveAspectRatio="xMinYMin meet" x="970.5" y="-166"/>
<text text-anchor="middle" x="1021" y="-50.6" font-family="Sans-Serif" font-size="13.00" fill="#2d3436">Server</text>
</g>
<!-- 6ef252c0632f4db7a0d0db906cd33039 -->
<g id="node7" class="node">
<title>6ef252c0632f4db7a0d0db906cd33039</title>
<image xlink:href="/workspaces/sov-cloud-brain-trek/.venv/lib/python3.12/site-packages/resources/generic/storage/storage.png" width="101px" height="101px" preserveAspectRatio="xMinYMin meet" x="811.5" y="-166"/>
<text text-anchor="middle" x="862" y="-50.6" font-family="Sans-Serif" font-size="13.00" fill="#2d3436">Storage</text>
</g>
<!-- ed51c708908e40539018ba38d71a8e96 -->
<g id="node8" class="node">
<title>ed51c708908e40539018ba38d71a8e96</title>
<image xlink:href="/workspaces/sov-cloud-brain-trek/.venv/lib/python3.12/site-packages/resources/generic/network/firewall.png" width="101px" height="101px" preserveAspectRatio="xMinYMin meet" x="652.5" y="-166"/>
<text text-anchor="middle" x="703" y="-50.6" font-family="Sans-Serif" font-size="13.00" fill="#2d3436">Firewall</text>
</g>
<!-- 2c69c7fda5574913904f5b56c4836820 -->
<g id="node9" class="node">
<title>2c69c7fda5574913904f5b56c4836820</title>
<image xlink:href="/workspaces/sov-cloud-brain-trek/.venv/lib/python3.12/site-packages/resources/onprem/compute/server.png" width="101px" height="101px" preserveAspectRatio="xMinYMin meet" x="1385.5" y="-403"/>
<text text-anchor="middle" x="1436" y="-287.6" font-family="Sans-Serif" font-size="13.00" fill="#2d3436">Local Server</text>
</g>
<!-- 04e47ebeac014bd1a5362f5f8a84ad8d -->
<g id="node10" class="node">
<title>04e47ebeac014bd1a5362f5f8a84ad8d</title>
<image xlink:href="/workspaces/sov-cloud-brain-trek/.venv/lib/python3.12/site-packages/resources/azure/compute/vm.png" width="101px" height="101px" preserveAspectRatio="xMinYMin meet" x="1447.5" y="-166"/>
<text text-anchor="middle" x="1498" y="-50.6" font-family="Sans-Serif" font-size="13.00" fill="#2d3436">Azure VM</text>
</g>
<!-- 2c69c7fda5574913904f5b56c4836820&#45;&gt;04e47ebeac014bd1a5362f5f8a84ad8d -->
<g id="edge1" class="edge">
<title>2c69c7fda5574913904f5b56c4836820&#45;&gt;04e47ebeac014bd1a5362f5f8a84ad8d</title>
<path fill="none" stroke="#7b8894" stroke-dasharray="5,2" d="M1467,-283.95C1467,-283.95 1467,-194.31 1467,-194.31"/>
<polygon fill="#7b8894" stroke="#7b8894" points="1470.5,-194.31 1467,-184.31 1463.5,-194.31 1470.5,-194.31"/>
<text text-anchor="middle" x="1496.5" y="-237.6" font-family="Sans-Serif" font-size="13.00" fill="#2d3436">VPN/ExpressRoute</text>
</g>
<!-- cb1ab271b7d744e88e8cefe377495331 -->
<g id="node11" class="node">
<title>cb1ab271b7d744e88e8cefe377495331</title>
<image xlink:href="/workspaces/sov-cloud-brain-trek/.venv/lib/python3.12/site-packages/resources/azure/security/key-vaults.png" width="101px" height="101px" preserveAspectRatio="xMinYMin meet" x="1288.5" y="-166"/>
<text text-anchor="middle" x="1339" y="-50.6" font-family="Sans-Serif" font-size="13.00" fill="#2d3436">Key Vault</text>
</g>
<!-- 4a657615edd54856aae0fc48d31590fa -->
<g id="node12" class="node">
<title>4a657615edd54856aae0fc48d31590fa</title>
<image xlink:href="/workspaces/sov-cloud-brain-trek/.venv/lib/python3.12/site-packages/resources/onprem/network/internet.png" width="101px" height="101px" preserveAspectRatio="xMinYMin meet" x="333.5" y="-403"/>
<text text-anchor="middle" x="384" y="-287.6" font-family="Sans-Serif" font-size="13.00" fill="#2d3436">Internet</text>
</g>
<!-- 4a657615edd54856aae0fc48d31590fa&#45;&gt;d9e2ed82be954f0ab7de9b2f36b265d2 -->
<g id="edge2" class="edge">
<title>4a657615edd54856aae0fc48d31590fa&#45;&gt;d9e2ed82be954f0ab7de9b2f36b265d2</title>
<path fill="none" stroke="#7b8894" d="M333.42,-352C243.92,-352 67,-352 67,-352 67,-352 67,-194.22 67,-194.22"/>
<polygon fill="#7b8894" stroke="#7b8894" points="70.5,-194.22 67,-184.22 63.5,-194.22 70.5,-194.22"/>
</g>
<!-- 4a657615edd54856aae0fc48d31590fa&#45;&gt;ed51c708908e40539018ba38d71a8e96 -->
<g id="edge3" class="edge">
<title>4a657615edd54856aae0fc48d31590fa&#45;&gt;ed51c708908e40539018ba38d71a8e96</title>
<path fill="none" stroke="#7b8894" d="M434.55,-352C524.5,-352 703,-352 703,-352 703,-352 703,-194.22 703,-194.22"/>
<polygon fill="#7b8894" stroke="#7b8894" points="706.5,-194.22 703,-184.22 699.5,-194.22 706.5,-194.22"/>
</g>
</g>
</svg>
