<?xml version="1.0" encoding="utf-8" standalone="no"?>
<!DOCTYPE svg PUBLIC "-//W3C//DTD SVG 1.1//EN"
  "http://www.w3.org/Graphics/SVG/1.1/DTD/svg11.dtd">
<svg xmlns:xlink="http://www.w3.org/1999/xlink" width="984.6pt" height="568.8pt" viewBox="0 0 984.6 568.8" xmlns="http://www.w3.org/2000/svg" version="1.1">
 <metadata>
  <rdf:RDF xmlns:dc="http://purl.org/dc/elements/1.1/" xmlns:cc="http://creativecommons.org/ns#" xmlns:rdf="http://www.w3.org/1999/02/22-rdf-syntax-ns#">
   <cc:Work>
    <dc:type rdf:resource="http://purl.org/dc/dcmitype/StillImage"/>
    <dc:date>2025-11-27T19:31:11.151809</dc:date>
    <dc:format>image/svg+xml</dc:format>
    <dc:creator>
     <cc:Agent>
      <dc:title>Matplotlib v3.10.7, https://matplotlib.org/</dc:title>
     </cc:Agent>
    </dc:creator>
   </cc:Work>
  </rdf:RDF>
 </metadata>
 <defs>
  <style type="text/css">*{stroke-linejoin: round; stroke-linecap: butt}</style>
 </defs>
 <g id="figure_1">
  <g id="patch_1">
   <path d="M 0 568.8
L 984.6 568.8
L 984.6 0
L 0 0
z
" style="fill: #ffffff"/>
  </g>
  <g id="axes_1">
   <g id="patch_2">
    <path d="M 41.85 499.23
L 388.35 499.23
Q 395.28 499.23 395.28 492.3
L 395.28 111.15
Q 395.28 104.22 388.35 104.22
L 41.85 104.22
Q 34.92 104.22 34.92 111.15
L 34.92 492.3
Q 34.92 499.23 41.85 499.23
z
" clip-path="url(#pfca29813be)" style="fill: #ffe4e1; stroke: #d13438; stroke-width: 2; stroke-linejoin: miter"/>
   </g>
   <g id="patch_3">
    <path d="M 62.64 213.021
L 367.56 213.021
Q 368.946 213.021 368.946 211.635
L 368.946 176.985
Q 368.946 175.599 367.56 175.599
L 62.64 175.599
Q 61.254 175.599 61.254 176.985
L 61.254 211.635
Q 61.254 213.021 62.64 213.021
z
" clip-path="url(#pfca29813be)" style="fill: #ffffff; opacity: 0.9; stroke: #d13438; stroke-linejoin: miter"/>
   </g>
   <g id="patch_4">
    <path d="M 62.64 261.531
L 367.56 261.531
Q 368.946 261.531 368.946 260.145
L 368.946 225.495
Q 368.946 224.109 367.56 224.109
L 62.64 224.109
Q 61.254 224.109 61.254 225.495
L 61.254 260.145
Q 61.254 261.531 62.64 261.531
z
" clip-path="url(#pfca29813be)" style="fill: #ffffff; opacity: 0.9; stroke: #d13438; stroke-linejoin: miter"/>
   </g>
   <g id="patch_5">
    <path d="M 62.64 310.041
L 367.56 310.041
Q 368.946 310.041 368.946 308.655
L 368.946 274.005
Q 368.946 272.619 367.56 272.619
L 62.64 272.619
Q 61.254 272.619 61.254 274.005
L 61.254 308.655
Q 61.254 310.041 62.64 310.041
z
" clip-path="url(#pfca29813be)" style="fill: #ffffff; opacity: 0.9; stroke: #d13438; stroke-linejoin: miter"/>
   </g>
   <g id="patch_6">
    <path d="M 62.64 358.551
L 367.56 358.551
Q 368.946 358.551 368.946 357.165
L 368.946 322.515
Q 368.946 321.129 367.56 321.129
L 62.64 321.129
Q 61.254 321.129 61.254 322.515
L 61.254 357.165
Q 61.254 358.551 62.64 358.551
z
" clip-path="url(#pfca29813be)" style="fill: #ffffff; opacity: 0.9; stroke: #d13438; stroke-linejoin: miter"/>
   </g>
   <g id="patch_7">
    <path d="M 62.64 407.061
L 367.56 407.061
Q 368.946 407.061 368.946 405.675
L 368.946 371.025
Q 368.946 369.639 367.56 369.639
L 62.64 369.639
Q 61.254 369.639 61.254 371.025
L 61.254 405.675
Q 61.254 407.061 62.64 407.061
z
" clip-path="url(#pfca29813be)" style="fill: #ffffff; opacity: 0.9; stroke: #d13438; stroke-linejoin: miter"/>
   </g>
   <g id="patch_8">
    <path d="M 62.64 455.571
L 367.56 455.571
Q 368.946 455.571 368.946 454.185
L 368.946 419.535
Q 368.946 418.149 367.56 418.149
L 62.64 418.149
Q 61.254 418.149 61.254 419.535
L 61.254 454.185
Q 61.254 455.571 62.64 455.571
z
" clip-path="url(#pfca29813be)" style="fill: #ffffff; opacity: 0.9; stroke: #d13438; stroke-linejoin: miter"/>
   </g>
   <g id="patch_9">
    <path d="M 596.25 499.23
L 942.75 499.23
Q 949.68 499.23 949.68 492.3
L 949.68 111.15
Q 949.68 104.22 942.75 104.22
L 596.25 104.22
Q 589.32 104.22 589.32 111.15
L 589.32 492.3
Q 589.32 499.23 596.25 499.23
z
" clip-path="url(#pfca29813be)" style="fill: #d4e9d7; stroke: #107c10; stroke-width: 2; stroke-linejoin: miter"/>
   </g>
   <g id="patch_10">
    <path d="M 617.04 213.021
L 921.96 213.021
Q 923.346 213.021 923.346 211.635
L 923.346 176.985
Q 923.346 175.599 921.96 175.599
L 617.04 175.599
Q 615.654 175.599 615.654 176.985
L 615.654 211.635
Q 615.654 213.021 617.04 213.021
z
" clip-path="url(#pfca29813be)" style="fill: #ffffff; opacity: 0.9; stroke: #107c10; stroke-linejoin: miter"/>
   </g>
   <g id="patch_11">
    <path d="M 617.04 275.391
L 921.96 275.391
Q 923.346 275.391 923.346 274.005
L 923.346 239.355
Q 923.346 237.969 921.96 237.969
L 617.04 237.969
Q 615.654 237.969 615.654 239.355
L 615.654 274.005
Q 615.654 275.391 617.04 275.391
z
" clip-path="url(#pfca29813be)" style="fill: #ffffff; opacity: 0.9; stroke: #107c10; stroke-linejoin: miter"/>
   </g>
   <g id="patch_12">
    <path d="M 617.04 337.761
L 921.96 337.761
Q 923.346 337.761 923.346 336.375
L 923.346 301.725
Q 923.346 300.339 921.96 300.339
L 617.04 300.339
Q 615.654 300.339 615.654 301.725
L 615.654 336.375
Q 615.654 337.761 617.04 337.761
z
" clip-path="url(#pfca29813be)" style="fill: #ffffff; opacity: 0.9; stroke: #107c10; stroke-linejoin: miter"/>
   </g>
   <g id="patch_13">
    <path d="M 617.04 400.131
L 921.96 400.131
Q 923.346 400.131 923.346 398.745
L 923.346 364.095
Q 923.346 362.709 921.96 362.709
L 617.04 362.709
Q 615.654 362.709 615.654 364.095
L 615.654 398.745
Q 615.654 400.131 617.04 400.131
z
" clip-path="url(#pfca29813be)" style="fill: #ffffff; opacity: 0.9; stroke: #107c10; stroke-linejoin: miter"/>
   </g>
   <g id="patch_14">
    <path d="M 411.142357 301.725
Q 492.302024 301.725 570.107589 301.725
" clip-path="url(#pfca29813be)" style="fill: none; stroke: #0078d4; stroke-width: 3; stroke-linecap: round"/>
    <path d="M 562.107589 297.725
L 570.107589 301.725
L 562.107589 305.725
z
" clip-path="url(#pfca29813be)" style="fill: #0078d4; stroke: #0078d4; stroke-width: 3; stroke-linecap: round"/>
   </g>
   <g id="text_1">
    <!-- Cloud vs On-Premises Total Cost of Ownership (TCO) -->
    <g style="fill: #004578" transform="translate(255.805 41.85) scale(0.16 -0.16)">
     <defs>
      <path id="DejaVuSans-Bold-43" d="M 4288 256
Q 3956 84 3597 -3
Q 3238 -91 2847 -91
Q 1681 -91 1000 561
Q 319 1213 319 2328
Q 319 3447 1000 4098
Q 1681 4750 2847 4750
Q 3238 4750 3597 4662
Q 3956 4575 4288 4403
L 4288 3438
Q 3953 3666 3628 3772
Q 3303 3878 2944 3878
Q 2300 3878 1931 3465
Q 1563 3053 1563 2328
Q 1563 1606 1931 1193
Q 2300 781 2944 781
Q 3303 781 3628 887
Q 3953 994 4288 1222
L 4288 256
z
" transform="scale(0.015625)"/>
      <path id="DejaVuSans-Bold-6c" d="M 538 4863
L 1656 4863
L 1656 0
L 538 0
L 538 4863
z
" transform="scale(0.015625)"/>
      <path id="DejaVuSans-Bold-6f" d="M 2203 2784
Q 1831 2784 1636 2517
Q 1441 2250 1441 1747
Q 1441 1244 1636 976
Q 1831 709 2203 709
Q 2569 709 2762 976
Q 2956 1244 2956 1747
Q 2956 2250 2762 2517
Q 2569 2784 2203 2784
z
M 2203 3584
Q 3106 3584 3614 3096
Q 4122 2609 4122 1747
Q 4122 884 3614 396
Q 3106 -91 2203 -91
Q 1297 -91 786 396
Q 275 884 275 1747
Q 275 2609 786 3096
Q 1297 3584 2203 3584
z
" transform="scale(0.015625)"/>
      <path id="DejaVuSans-Bold-75" d="M 500 1363
L 500 3500
L 1625 3500
L 1625 3150
Q 1625 2866 1622 2436
Q 1619 2006 1619 1863
Q 1619 1441 1641 1255
Q 1663 1069 1716 984
Q 1784 875 1895 815
Q 2006 756 2150 756
Q 2500 756 2700 1025
Q 2900 1294 2900 1772
L 2900 3500
L 4019 3500
L 4019 0
L 2900 0
L 2900 506
Q 2647 200 2364 54
Q 2081 -91 1741 -91
Q 1134 -91 817 281
Q 500 653 500 1363
z
" transform="scale(0.015625)"/>
      <path id="DejaVuSans-Bold-64" d="M 2919 2988
L 2919 4863
L 4044 4863
L 4044 0
L 2919 0
L 2919 506
Q 2688 197 2409 53
Q 2131 -91 1766 -91
Q 1119 -91 703 423
Q 288 938 288 1747
Q 288 2556 703 3070
Q 1119 3584 1766 3584
Q 2128 3584 2408 3439
Q 2688 3294 2919 2988
z
M 2181 722
Q 2541 722 2730 984
Q 2919 1247 2919 1747
Q 2919 2247 2730 2509
Q 2541 2772 2181 2772
Q 1825 2772 1636 2509
Q 1447 2247 1447 1747
Q 1447 1247 1636 984
Q 1825 722 2181 722
z
" transform="scale(0.015625)"/>
      <path id="DejaVuSans-Bold-20" transform="scale(0.015625)"/>
      <path id="DejaVuSans-Bold-76" d="M 97 3500
L 1216 3500
L 2088 1081
L 2956 3500
L 4078 3500
L 2700 0
L 1472 0
L 97 3500
z
" transform="scale(0.015625)"/>
      <path id="DejaVuSans-Bold-73" d="M 3272 3391
L 3272 2541
Q 2913 2691 2578 2766
Q 2244 2841 1947 2841
Q 1628 2841 1473 2761
Q 1319 2681 1319 2516
Q 1319 2381 1436 2309
Q 1553 2238 1856 2203
L 2053 2175
Q 2913 2066 3209 1816
Q 3506 1566 3506 1031
Q 3506 472 3093 190
Q 2681 -91 1863 -91
Q 1516 -91 1145 -36
Q 775 19 384 128
L 384 978
Q 719 816 1070 734
Q 1422 653 1784 653
Q 2113 653 2278 743
Q 2444 834 2444 1013
Q 2444 1163 2330 1236
Q 2216 1309 1875 1350
L 1678 1375
Q 931 1469 631 1722
Q 331 1975 331 2491
Q 331 3047 712 3315
Q 1094 3584 1881 3584
Q 2191 3584 2531 3537
Q 2872 3491 3272 3391
z
" transform="scale(0.015625)"/>
      <path id="DejaVuSans-Bold-4f" d="M 2719 3878
Q 2169 3878 1866 3472
Q 1563 3066 1563 2328
Q 1563 1594 1866 1187
Q 2169 781 2719 781
Q 3272 781 3575 1187
Q 3878 1594 3878 2328
Q 3878 3066 3575 3472
Q 3272 3878 2719 3878
z
M 2719 4750
Q 3844 4750 4481 4106
Q 5119 3463 5119 2328
Q 5119 1197 4481 553
Q 3844 -91 2719 -91
Q 1597 -91 958 553
Q 319 1197 319 2328
Q 319 3463 958 4106
Q 1597 4750 2719 4750
z
" transform="scale(0.015625)"/>
      <path id="DejaVuSans-Bold-6e" d="M 4056 2131
L 4056 0
L 2931 0
L 2931 347
L 2931 1631
Q 2931 2084 2911 2256
Q 2891 2428 2841 2509
Q 2775 2619 2662 2680
Q 2550 2741 2406 2741
Q 2056 2741 1856 2470
Q 1656 2200 1656 1722
L 1656 0
L 538 0
L 538 3500
L 1656 3500
L 1656 2988
Q 1909 3294 2193 3439
Q 2478 3584 2822 3584
Q 3428 3584 3742 3212
Q 4056 2841 4056 2131
z
" transform="scale(0.015625)"/>
      <path id="DejaVuSans-Bold-2d" d="M 347 2297
L 2309 2297
L 2309 1388
L 347 1388
L 347 2297
z
" transform="scale(0.015625)"/>
      <path id="DejaVuSans-Bold-50" d="M 588 4666
L 2584 4666
Q 3475 4666 3951 4270
Q 4428 3875 4428 3144
Q 4428 2409 3951 2014
Q 3475 1619 2584 1619
L 1791 1619
L 1791 0
L 588 0
L 588 4666
z
M 1791 3794
L 1791 2491
L 2456 2491
Q 2806 2491 2997 2661
Q 3188 2831 3188 3144
Q 3188 3456 2997 3625
Q 2806 3794 2456 3794
L 1791 3794
z
" transform="scale(0.015625)"/>
      <path id="DejaVuSans-Bold-72" d="M 3138 2547
Q 2991 2616 2845 2648
Q 2700 2681 2553 2681
Q 2122 2681 1889 2404
Q 1656 2128 1656 1613
L 1656 0
L 538 0
L 538 3500
L 1656 3500
L 1656 2925
Q 1872 3269 2151 3426
Q 2431 3584 2822 3584
Q 2878 3584 2943 3579
Q 3009 3575 3134 3559
L 3138 2547
z
" transform="scale(0.015625)"/>
      <path id="DejaVuSans-Bold-65" d="M 4031 1759
L 4031 1441
L 1416 1441
Q 1456 1047 1700 850
Q 1944 653 2381 653
Q 2734 653 3104 758
Q 3475 863 3866 1075
L 3866 213
Q 3469 63 3072 -14
Q 2675 -91 2278 -91
Q 1328 -91 801 392
Q 275 875 275 1747
Q 275 2603 792 3093
Q 1309 3584 2216 3584
Q 3041 3584 3536 3087
Q 4031 2591 4031 1759
z
M 2881 2131
Q 2881 2450 2695 2645
Q 2509 2841 2209 2841
Q 1884 2841 1681 2658
Q 1478 2475 1428 2131
L 2881 2131
z
" transform="scale(0.015625)"/>
      <path id="DejaVuSans-Bold-6d" d="M 3781 2919
Q 3994 3244 4286 3414
Q 4578 3584 4928 3584
Q 5531 3584 5847 3212
Q 6163 2841 6163 2131
L 6163 0
L 5038 0
L 5038 1825
Q 5041 1866 5042 1909
Q 5044 1953 5044 2034
Q 5044 2406 4934 2573
Q 4825 2741 4581 2741
Q 4263 2741 4089 2478
Q 3916 2216 3909 1719
L 3909 0
L 2784 0
L 2784 1825
Q 2784 2406 2684 2573
Q 2584 2741 2328 2741
Q 2006 2741 1831 2477
Q 1656 2213 1656 1722
L 1656 0
L 531 0
L 531 3500
L 1656 3500
L 1656 2988
Q 1863 3284 2130 3434
Q 2397 3584 2719 3584
Q 3081 3584 3359 3409
Q 3638 3234 3781 2919
z
" transform="scale(0.015625)"/>
      <path id="DejaVuSans-Bold-69" d="M 538 3500
L 1656 3500
L 1656 0
L 538 0
L 538 3500
z
M 538 4863
L 1656 4863
L 1656 3950
L 538 3950
L 538 4863
z
" transform="scale(0.015625)"/>
      <path id="DejaVuSans-Bold-54" d="M 31 4666
L 4331 4666
L 4331 3756
L 2784 3756
L 2784 0
L 1581 0
L 1581 3756
L 31 3756
L 31 4666
z
" transform="scale(0.015625)"/>
      <path id="DejaVuSans-Bold-74" d="M 1759 4494
L 1759 3500
L 2913 3500
L 2913 2700
L 1759 2700
L 1759 1216
Q 1759 972 1856 886
Q 1953 800 2241 800
L 2816 800
L 2816 0
L 1856 0
Q 1194 0 917 276
Q 641 553 641 1216
L 641 2700
L 84 2700
L 84 3500
L 641 3500
L 641 4494
L 1759 4494
z
" transform="scale(0.015625)"/>
      <path id="DejaVuSans-Bold-61" d="M 2106 1575
Q 1756 1575 1579 1456
Q 1403 1338 1403 1106
Q 1403 894 1545 773
Q 1688 653 1941 653
Q 2256 653 2472 879
Q 2688 1106 2688 1447
L 2688 1575
L 2106 1575
z
M 3816 1997
L 3816 0
L 2688 0
L 2688 519
Q 2463 200 2181 54
Q 1900 -91 1497 -91
Q 953 -91 614 226
Q 275 544 275 1050
Q 275 1666 698 1953
Q 1122 2241 2028 2241
L 2688 2241
L 2688 2328
Q 2688 2594 2478 2717
Q 2269 2841 1825 2841
Q 1466 2841 1156 2769
Q 847 2697 581 2553
L 581 3406
Q 941 3494 1303 3539
Q 1666 3584 2028 3584
Q 2975 3584 3395 3211
Q 3816 2838 3816 1997
z
" transform="scale(0.015625)"/>
      <path id="DejaVuSans-Bold-66" d="M 2841 4863
L 2841 4128
L 2222 4128
Q 1984 4128 1890 4042
Q 1797 3956 1797 3744
L 1797 3500
L 2753 3500
L 2753 2700
L 1797 2700
L 1797 0
L 678 0
L 678 2700
L 122 2700
L 122 3500
L 678 3500
L 678 3744
Q 678 4316 997 4589
Q 1316 4863 1984 4863
L 2841 4863
z
" transform="scale(0.015625)"/>
      <path id="DejaVuSans-Bold-77" d="M 225 3500
L 1313 3500
L 1900 1088
L 2491 3500
L 3425 3500
L 4013 1113
L 4603 3500
L 5691 3500
L 4769 0
L 3547 0
L 2956 2406
L 2369 0
L 1147 0
L 225 3500
z
" transform="scale(0.015625)"/>
      <path id="DejaVuSans-Bold-68" d="M 4056 2131
L 4056 0
L 2931 0
L 2931 347
L 2931 1625
Q 2931 2084 2911 2256
Q 2891 2428 2841 2509
Q 2775 2619 2662 2680
Q 2550 2741 2406 2741
Q 2056 2741 1856 2470
Q 1656 2200 1656 1722
L 1656 0
L 538 0
L 538 4863
L 1656 4863
L 1656 2988
Q 1909 3294 2193 3439
Q 2478 3584 2822 3584
Q 3428 3584 3742 3212
Q 4056 2841 4056 2131
z
" transform="scale(0.015625)"/>
      <path id="DejaVuSans-Bold-70" d="M 1656 506
L 1656 -1331
L 538 -1331
L 538 3500
L 1656 3500
L 1656 2988
Q 1888 3294 2169 3439
Q 2450 3584 2816 3584
Q 3463 3584 3878 3070
Q 4294 2556 4294 1747
Q 4294 938 3878 423
Q 3463 -91 2816 -91
Q 2450 -91 2169 54
Q 1888 200 1656 506
z
M 2400 2772
Q 2041 2772 1848 2508
Q 1656 2244 1656 1747
Q 1656 1250 1848 986
Q 2041 722 2400 722
Q 2759 722 2948 984
Q 3138 1247 3138 1747
Q 3138 2247 2948 2509
Q 2759 2772 2400 2772
z
" transform="scale(0.015625)"/>
      <path id="DejaVuSans-Bold-28" d="M 2413 -844
L 1484 -844
Q 1006 -72 778 623
Q 550 1319 550 2003
Q 550 2688 779 3389
Q 1009 4091 1484 4856
L 2413 4856
Q 2013 4116 1813 3408
Q 1613 2700 1613 2009
Q 1613 1319 1811 609
Q 2009 -100 2413 -844
z
" transform="scale(0.015625)"/>
      <path id="DejaVuSans-Bold-29" d="M 513 -844
Q 913 -100 1113 609
Q 1313 1319 1313 2009
Q 1313 2700 1113 3408
Q 913 4116 513 4856
L 1441 4856
Q 1916 4091 2145 3389
Q 2375 2688 2375 2003
Q 2375 1319 2147 623
Q 1919 -72 1441 -844
L 513 -844
z
" transform="scale(0.015625)"/>
     </defs>
     <use xlink:href="#DejaVuSans-Bold-43"/>
     <use xlink:href="#DejaVuSans-Bold-6c" transform="translate(73.388672 0)"/>
     <use xlink:href="#DejaVuSans-Bold-6f" transform="translate(107.666016 0)"/>
     <use xlink:href="#DejaVuSans-Bold-75" transform="translate(176.367188 0)"/>
     <use xlink:href="#DejaVuSans-Bold-64" transform="translate(247.558594 0)"/>
     <use xlink:href="#DejaVuSans-Bold-20" transform="translate(319.140625 0)"/>
     <use xlink:href="#DejaVuSans-Bold-76" transform="translate(353.955078 0)"/>
     <use xlink:href="#DejaVuSans-Bold-73" transform="translate(419.140625 0)"/>
     <use xlink:href="#DejaVuSans-Bold-20" transform="translate(478.662109 0)"/>
     <use xlink:href="#DejaVuSans-Bold-4f" transform="translate(513.476562 0)"/>
     <use xlink:href="#DejaVuSans-Bold-6e" transform="translate(598.486328 0)"/>
     <use xlink:href="#DejaVuSans-Bold-2d" transform="translate(669.677734 0)"/>
     <use xlink:href="#DejaVuSans-Bold-50" transform="translate(711.181641 0)"/>
     <use xlink:href="#DejaVuSans-Bold-72" transform="translate(784.472656 0)"/>
     <use xlink:href="#DejaVuSans-Bold-65" transform="translate(833.789062 0)"/>
     <use xlink:href="#DejaVuSans-Bold-6d" transform="translate(901.611328 0)"/>
     <use xlink:href="#DejaVuSans-Bold-69" transform="translate(1005.810547 0)"/>
     <use xlink:href="#DejaVuSans-Bold-73" transform="translate(1040.087891 0)"/>
     <use xlink:href="#DejaVuSans-Bold-65" transform="translate(1099.609375 0)"/>
     <use xlink:href="#DejaVuSans-Bold-73" transform="translate(1167.431641 0)"/>
     <use xlink:href="#DejaVuSans-Bold-20" transform="translate(1226.953125 0)"/>
     <use xlink:href="#DejaVuSans-Bold-54" transform="translate(1261.767578 0)"/>
     <use xlink:href="#DejaVuSans-Bold-6f" transform="translate(1316.730469 0)"/>
     <use xlink:href="#DejaVuSans-Bold-74" transform="translate(1385.431641 0)"/>
     <use xlink:href="#DejaVuSans-Bold-61" transform="translate(1433.234375 0)"/>
     <use xlink:href="#DejaVuSans-Bold-6c" transform="translate(1500.714844 0)"/>
     <use xlink:href="#DejaVuSans-Bold-20" transform="translate(1534.992188 0)"/>
     <use xlink:href="#DejaVuSans-Bold-43" transform="translate(1569.806641 0)"/>
     <use xlink:href="#DejaVuSans-Bold-6f" transform="translate(1643.195312 0)"/>
     <use xlink:href="#DejaVuSans-Bold-73" transform="translate(1711.896484 0)"/>
     <use xlink:href="#DejaVuSans-Bold-74" transform="translate(1771.417969 0)"/>
     <use xlink:href="#DejaVuSans-Bold-20" transform="translate(1819.220703 0)"/>
     <use xlink:href="#DejaVuSans-Bold-6f" transform="translate(1854.035156 0)"/>
     <use xlink:href="#DejaVuSans-Bold-66" transform="translate(1922.736328 0)"/>
     <use xlink:href="#DejaVuSans-Bold-20" transform="translate(1966.242188 0)"/>
     <use xlink:href="#DejaVuSans-Bold-4f" transform="translate(2001.056641 0)"/>
     <use xlink:href="#DejaVuSans-Bold-77" transform="translate(2086.066406 0)"/>
     <use xlink:href="#DejaVuSans-Bold-6e" transform="translate(2178.449219 0)"/>
     <use xlink:href="#DejaVuSans-Bold-65" transform="translate(2249.640625 0)"/>
     <use xlink:href="#DejaVuSans-Bold-72" transform="translate(2317.462891 0)"/>
     <use xlink:href="#DejaVuSans-Bold-73" transform="translate(2366.779297 0)"/>
     <use xlink:href="#DejaVuSans-Bold-68" transform="translate(2426.300781 0)"/>
     <use xlink:href="#DejaVuSans-Bold-69" transform="translate(2497.492188 0)"/>
     <use xlink:href="#DejaVuSans-Bold-70" transform="translate(2531.769531 0)"/>
     <use xlink:href="#DejaVuSans-Bold-20" transform="translate(2603.351562 0)"/>
     <use xlink:href="#DejaVuSans-Bold-28" transform="translate(2638.166016 0)"/>
     <use xlink:href="#DejaVuSans-Bold-54" transform="translate(2683.869141 0)"/>
     <use xlink:href="#DejaVuSans-Bold-43" transform="translate(2752.082031 0)"/>
     <use xlink:href="#DejaVuSans-Bold-4f" transform="translate(2825.470703 0)"/>
     <use xlink:href="#DejaVuSans-Bold-29" transform="translate(2910.480469 0)"/>
    </g>
   </g>
   <g id="text_2">
    <!-- Traditional On-Premises -->
    <g style="fill: #d13438" transform="translate(133.985625 131.94) scale(0.12 -0.12)">
     <use xlink:href="#DejaVuSans-Bold-54"/>
     <use xlink:href="#DejaVuSans-Bold-72" transform="translate(57.212891 0)"/>
     <use xlink:href="#DejaVuSans-Bold-61" transform="translate(106.529297 0)"/>
     <use xlink:href="#DejaVuSans-Bold-64" transform="translate(174.009766 0)"/>
     <use xlink:href="#DejaVuSans-Bold-69" transform="translate(245.591797 0)"/>
     <use xlink:href="#DejaVuSans-Bold-74" transform="translate(279.869141 0)"/>
     <use xlink:href="#DejaVuSans-Bold-69" transform="translate(327.671875 0)"/>
     <use xlink:href="#DejaVuSans-Bold-6f" transform="translate(361.949219 0)"/>
     <use xlink:href="#DejaVuSans-Bold-6e" transform="translate(430.650391 0)"/>
     <use xlink:href="#DejaVuSans-Bold-61" transform="translate(501.841797 0)"/>
     <use xlink:href="#DejaVuSans-Bold-6c" transform="translate(569.322266 0)"/>
     <use xlink:href="#DejaVuSans-Bold-20" transform="translate(603.599609 0)"/>
     <use xlink:href="#DejaVuSans-Bold-4f" transform="translate(638.414062 0)"/>
     <use xlink:href="#DejaVuSans-Bold-6e" transform="translate(723.423828 0)"/>
     <use xlink:href="#DejaVuSans-Bold-2d" transform="translate(794.615234 0)"/>
     <use xlink:href="#DejaVuSans-Bold-50" transform="translate(836.119141 0)"/>
     <use xlink:href="#DejaVuSans-Bold-72" transform="translate(909.410156 0)"/>
     <use xlink:href="#DejaVuSans-Bold-65" transform="translate(958.726562 0)"/>
     <use xlink:href="#DejaVuSans-Bold-6d" transform="translate(1026.548828 0)"/>
     <use xlink:href="#DejaVuSans-Bold-69" transform="translate(1130.748047 0)"/>
     <use xlink:href="#DejaVuSans-Bold-73" transform="translate(1165.025391 0)"/>
     <use xlink:href="#DejaVuSans-Bold-65" transform="translate(1224.546875 0)"/>
     <use xlink:href="#DejaVuSans-Bold-73" transform="translate(1292.369141 0)"/>
    </g>
   </g>
   <g id="text_3">
    <!-- Hardware Purchase -->
    <g style="fill: #004578" transform="translate(76.5 196.793437) scale(0.09 -0.09)">
     <defs>
      <path id="DejaVuSans-48" d="M 628 4666
L 1259 4666
L 1259 2753
L 3553 2753
L 3553 4666
L 4184 4666
L 4184 0
L 3553 0
L 3553 2222
L 1259 2222
L 1259 0
L 628 0
L 628 4666
z
" transform="scale(0.015625)"/>
      <path id="DejaVuSans-61" d="M 2194 1759
Q 1497 1759 1228 1600
Q 959 1441 959 1056
Q 959 750 1161 570
Q 1363 391 1709 391
Q 2188 391 2477 730
Q 2766 1069 2766 1631
L 2766 1759
L 2194 1759
z
M 3341 1997
L 3341 0
L 2766 0
L 2766 531
Q 2569 213 2275 61
Q 1981 -91 1556 -91
Q 1019 -91 701 211
Q 384 513 384 1019
Q 384 1609 779 1909
Q 1175 2209 1959 2209
L 2766 2209
L 2766 2266
Q 2766 2663 2505 2880
Q 2244 3097 1772 3097
Q 1472 3097 1187 3025
Q 903 2953 641 2809
L 641 3341
Q 956 3463 1253 3523
Q 1550 3584 1831 3584
Q 2591 3584 2966 3190
Q 3341 2797 3341 1997
z
" transform="scale(0.015625)"/>
      <path id="DejaVuSans-72" d="M 2631 2963
Q 2534 3019 2420 3045
Q 2306 3072 2169 3072
Q 1681 3072 1420 2755
Q 1159 2438 1159 1844
L 1159 0
L 581 0
L 581 3500
L 1159 3500
L 1159 2956
Q 1341 3275 1631 3429
Q 1922 3584 2338 3584
Q 2397 3584 2469 3576
Q 2541 3569 2628 3553
L 2631 2963
z
" transform="scale(0.015625)"/>
      <path id="DejaVuSans-64" d="M 2906 2969
L 2906 4863
L 3481 4863
L 3481 0
L 2906 0
L 2906 525
Q 2725 213 2448 61
Q 2172 -91 1784 -91
Q 1150 -91 751 415
Q 353 922 353 1747
Q 353 2572 751 3078
Q 1150 3584 1784 3584
Q 2172 3584 2448 3432
Q 2725 3281 2906 2969
z
M 947 1747
Q 947 1113 1208 752
Q 1469 391 1925 391
Q 2381 391 2643 752
Q 2906 1113 2906 1747
Q 2906 2381 2643 2742
Q 2381 3103 1925 3103
Q 1469 3103 1208 2742
Q 947 2381 947 1747
z
" transform="scale(0.015625)"/>
      <path id="DejaVuSans-77" d="M 269 3500
L 844 3500
L 1563 769
L 2278 3500
L 2956 3500
L 3675 769
L 4391 3500
L 4966 3500
L 4050 0
L 3372 0
L 2619 2869
L 1863 0
L 1184 0
L 269 3500
z
" transform="scale(0.015625)"/>
      <path id="DejaVuSans-65" d="M 3597 1894
L 3597 1613
L 953 1613
Q 991 1019 1311 708
Q 1631 397 2203 397
Q 2534 397 2845 478
Q 3156 559 3463 722
L 3463 178
Q 3153 47 2828 -22
Q 2503 -91 2169 -91
Q 1331 -91 842 396
Q 353 884 353 1716
Q 353 2575 817 3079
Q 1281 3584 2069 3584
Q 2775 3584 3186 3129
Q 3597 2675 3597 1894
z
M 3022 2063
Q 3016 2534 2758 2815
Q 2500 3097 2075 3097
Q 1594 3097 1305 2825
Q 1016 2553 972 2059
L 3022 2063
z
" transform="scale(0.015625)"/>
      <path id="DejaVuSans-20" transform="scale(0.015625)"/>
      <path id="DejaVuSans-50" d="M 1259 4147
L 1259 2394
L 2053 2394
Q 2494 2394 2734 2622
Q 2975 2850 2975 3272
Q 2975 3691 2734 3919
Q 2494 4147 2053 4147
L 1259 4147
z
M 628 4666
L 2053 4666
Q 2838 4666 3239 4311
Q 3641 3956 3641 3272
Q 3641 2581 3239 2228
Q 2838 1875 2053 1875
L 1259 1875
L 1259 0
L 628 0
L 628 4666
z
" transform="scale(0.015625)"/>
      <path id="DejaVuSans-75" d="M 544 1381
L 544 3500
L 1119 3500
L 1119 1403
Q 1119 906 1312 657
Q 1506 409 1894 409
Q 2359 409 2629 706
Q 2900 1003 2900 1516
L 2900 3500
L 3475 3500
L 3475 0
L 2900 0
L 2900 538
Q 2691 219 2414 64
Q 2138 -91 1772 -91
Q 1169 -91 856 284
Q 544 659 544 1381
z
M 1991 3584
L 1991 3584
z
" transform="scale(0.015625)"/>
      <path id="DejaVuSans-63" d="M 3122 3366
L 3122 2828
Q 2878 2963 2633 3030
Q 2388 3097 2138 3097
Q 1578 3097 1268 2742
Q 959 2388 959 1747
Q 959 1106 1268 751
Q 1578 397 2138 397
Q 2388 397 2633 464
Q 2878 531 3122 666
L 3122 134
Q 2881 22 2623 -34
Q 2366 -91 2075 -91
Q 1284 -91 818 406
Q 353 903 353 1747
Q 353 2603 823 3093
Q 1294 3584 2113 3584
Q 2378 3584 2631 3529
Q 2884 3475 3122 3366
z
" transform="scale(0.015625)"/>
      <path id="DejaVuSans-68" d="M 3513 2113
L 3513 0
L 2938 0
L 2938 2094
Q 2938 2591 2744 2837
Q 2550 3084 2163 3084
Q 1697 3084 1428 2787
Q 1159 2491 1159 1978
L 1159 0
L 581 0
L 581 4863
L 1159 4863
L 1159 2956
Q 1366 3272 1645 3428
Q 1925 3584 2291 3584
Q 2894 3584 3203 3211
Q 3513 2838 3513 2113
z
" transform="scale(0.015625)"/>
      <path id="DejaVuSans-73" d="M 2834 3397
L 2834 2853
Q 2591 2978 2328 3040
Q 2066 3103 1784 3103
Q 1356 3103 1142 2972
Q 928 2841 928 2578
Q 928 2378 1081 2264
Q 1234 2150 1697 2047
L 1894 2003
Q 2506 1872 2764 1633
Q 3022 1394 3022 966
Q 3022 478 2636 193
Q 2250 -91 1575 -91
Q 1294 -91 989 -36
Q 684 19 347 128
L 347 722
Q 666 556 975 473
Q 1284 391 1588 391
Q 1994 391 2212 530
Q 2431 669 2431 922
Q 2431 1156 2273 1281
Q 2116 1406 1581 1522
L 1381 1569
Q 847 1681 609 1914
Q 372 2147 372 2553
Q 372 3047 722 3315
Q 1072 3584 1716 3584
Q 2034 3584 2315 3537
Q 2597 3491 2834 3397
z
" transform="scale(0.015625)"/>
     </defs>
     <use xlink:href="#DejaVuSans-48"/>
     <use xlink:href="#DejaVuSans-61" transform="translate(75.195312 0)"/>
     <use xlink:href="#DejaVuSans-72" transform="translate(136.474609 0)"/>
     <use xlink:href="#DejaVuSans-64" transform="translate(175.837891 0)"/>
     <use xlink:href="#DejaVuSans-77" transform="translate(239.314453 0)"/>
     <use xlink:href="#DejaVuSans-61" transform="translate(321.101562 0)"/>
     <use xlink:href="#DejaVuSans-72" transform="translate(382.380859 0)"/>
     <use xlink:href="#DejaVuSans-65" transform="translate(421.244141 0)"/>
     <use xlink:href="#DejaVuSans-20" transform="translate(482.767578 0)"/>
     <use xlink:href="#DejaVuSans-50" transform="translate(514.554688 0)"/>
     <use xlink:href="#DejaVuSans-75" transform="translate(573.107422 0)"/>
     <use xlink:href="#DejaVuSans-72" transform="translate(636.486328 0)"/>
     <use xlink:href="#DejaVuSans-63" transform="translate(675.349609 0)"/>
     <use xlink:href="#DejaVuSans-68" transform="translate(730.330078 0)"/>
     <use xlink:href="#DejaVuSans-61" transform="translate(793.708984 0)"/>
     <use xlink:href="#DejaVuSans-73" transform="translate(854.988281 0)"/>
     <use xlink:href="#DejaVuSans-65" transform="translate(907.087891 0)"/>
    </g>
   </g>
   <g id="text_4">
    <!-- High -->
    <g style="fill: #d13438" transform="translate(330.233906 196.758281) scale(0.09 -0.09)">
     <defs>
      <path id="DejaVuSans-Bold-48" d="M 588 4666
L 1791 4666
L 1791 2888
L 3566 2888
L 3566 4666
L 4769 4666
L 4769 0
L 3566 0
L 3566 1978
L 1791 1978
L 1791 0
L 588 0
L 588 4666
z
" transform="scale(0.015625)"/>
      <path id="DejaVuSans-Bold-67" d="M 2919 594
Q 2688 288 2409 144
Q 2131 0 1766 0
Q 1125 0 706 504
Q 288 1009 288 1791
Q 288 2575 706 3076
Q 1125 3578 1766 3578
Q 2131 3578 2409 3434
Q 2688 3291 2919 2981
L 2919 3500
L 4044 3500
L 4044 353
Q 4044 -491 3511 -936
Q 2978 -1381 1966 -1381
Q 1638 -1381 1331 -1331
Q 1025 -1281 716 -1178
L 716 -306
Q 1009 -475 1290 -558
Q 1572 -641 1856 -641
Q 2406 -641 2662 -400
Q 2919 -159 2919 353
L 2919 594
z
M 2181 2772
Q 1834 2772 1640 2515
Q 1447 2259 1447 1791
Q 1447 1309 1634 1061
Q 1822 813 2181 813
Q 2531 813 2725 1069
Q 2919 1325 2919 1791
Q 2919 2259 2725 2515
Q 2531 2772 2181 2772
z
" transform="scale(0.015625)"/>
     </defs>
     <use xlink:href="#DejaVuSans-Bold-48"/>
     <use xlink:href="#DejaVuSans-Bold-69" transform="translate(83.691406 0)"/>
     <use xlink:href="#DejaVuSans-Bold-67" transform="translate(117.96875 0)"/>
     <use xlink:href="#DejaVuSans-Bold-68" transform="translate(189.550781 0)"/>
    </g>
   </g>
   <g id="text_5">
    <!-- Data Center -->
    <g style="fill: #004578" transform="translate(76.5 245.303437) scale(0.09 -0.09)">
     <defs>
      <path id="DejaVuSans-44" d="M 1259 4147
L 1259 519
L 2022 519
Q 2988 519 3436 956
Q 3884 1394 3884 2338
Q 3884 3275 3436 3711
Q 2988 4147 2022 4147
L 1259 4147
z
M 628 4666
L 1925 4666
Q 3281 4666 3915 4102
Q 4550 3538 4550 2338
Q 4550 1131 3912 565
Q 3275 0 1925 0
L 628 0
L 628 4666
z
" transform="scale(0.015625)"/>
      <path id="DejaVuSans-74" d="M 1172 4494
L 1172 3500
L 2356 3500
L 2356 3053
L 1172 3053
L 1172 1153
Q 1172 725 1289 603
Q 1406 481 1766 481
L 2356 481
L 2356 0
L 1766 0
Q 1100 0 847 248
Q 594 497 594 1153
L 594 3053
L 172 3053
L 172 3500
L 594 3500
L 594 4494
L 1172 4494
z
" transform="scale(0.015625)"/>
      <path id="DejaVuSans-43" d="M 4122 4306
L 4122 3641
Q 3803 3938 3442 4084
Q 3081 4231 2675 4231
Q 1875 4231 1450 3742
Q 1025 3253 1025 2328
Q 1025 1406 1450 917
Q 1875 428 2675 428
Q 3081 428 3442 575
Q 3803 722 4122 1019
L 4122 359
Q 3791 134 3420 21
Q 3050 -91 2638 -91
Q 1578 -91 968 557
Q 359 1206 359 2328
Q 359 3453 968 4101
Q 1578 4750 2638 4750
Q 3056 4750 3426 4639
Q 3797 4528 4122 4306
z
" transform="scale(0.015625)"/>
      <path id="DejaVuSans-6e" d="M 3513 2113
L 3513 0
L 2938 0
L 2938 2094
Q 2938 2591 2744 2837
Q 2550 3084 2163 3084
Q 1697 3084 1428 2787
Q 1159 2491 1159 1978
L 1159 0
L 581 0
L 581 3500
L 1159 3500
L 1159 2956
Q 1366 3272 1645 3428
Q 1925 3584 2291 3584
Q 2894 3584 3203 3211
Q 3513 2838 3513 2113
z
" transform="scale(0.015625)"/>
     </defs>
     <use xlink:href="#DejaVuSans-44"/>
     <use xlink:href="#DejaVuSans-61" transform="translate(77.001953 0)"/>
     <use xlink:href="#DejaVuSans-74" transform="translate(138.28125 0)"/>
     <use xlink:href="#DejaVuSans-61" transform="translate(177.490234 0)"/>
     <use xlink:href="#DejaVuSans-20" transform="translate(238.769531 0)"/>
     <use xlink:href="#DejaVuSans-43" transform="translate(270.556641 0)"/>
     <use xlink:href="#DejaVuSans-65" transform="translate(340.380859 0)"/>
     <use xlink:href="#DejaVuSans-6e" transform="translate(401.904297 0)"/>
     <use xlink:href="#DejaVuSans-74" transform="translate(465.283203 0)"/>
     <use xlink:href="#DejaVuSans-65" transform="translate(504.492188 0)"/>
     <use xlink:href="#DejaVuSans-72" transform="translate(566.015625 0)"/>
    </g>
   </g>
   <g id="text_6">
    <!-- Medium -->
    <g style="fill: #d13438" transform="translate(313.326562 245.303437) scale(0.09 -0.09)">
     <defs>
      <path id="DejaVuSans-Bold-4d" d="M 588 4666
L 2119 4666
L 3181 2169
L 4250 4666
L 5778 4666
L 5778 0
L 4641 0
L 4641 3413
L 3566 897
L 2803 897
L 1728 3413
L 1728 0
L 588 0
L 588 4666
z
" transform="scale(0.015625)"/>
     </defs>
     <use xlink:href="#DejaVuSans-Bold-4d"/>
     <use xlink:href="#DejaVuSans-Bold-65" transform="translate(99.511719 0)"/>
     <use xlink:href="#DejaVuSans-Bold-64" transform="translate(167.333984 0)"/>
     <use xlink:href="#DejaVuSans-Bold-69" transform="translate(238.916016 0)"/>
     <use xlink:href="#DejaVuSans-Bold-75" transform="translate(273.193359 0)"/>
     <use xlink:href="#DejaVuSans-Bold-6d" transform="translate(344.384766 0)"/>
    </g>
   </g>
   <g id="text_7">
    <!-- IT Staff -->
    <g style="fill: #004578" transform="translate(76.5 293.813437) scale(0.09 -0.09)">
     <defs>
      <path id="DejaVuSans-49" d="M 628 4666
L 1259 4666
L 1259 0
L 628 0
L 628 4666
z
" transform="scale(0.015625)"/>
      <path id="DejaVuSans-54" d="M -19 4666
L 3928 4666
L 3928 4134
L 2272 4134
L 2272 0
L 1638 0
L 1638 4134
L -19 4134
L -19 4666
z
" transform="scale(0.015625)"/>
      <path id="DejaVuSans-53" d="M 3425 4513
L 3425 3897
Q 3066 4069 2747 4153
Q 2428 4238 2131 4238
Q 1616 4238 1336 4038
Q 1056 3838 1056 3469
Q 1056 3159 1242 3001
Q 1428 2844 1947 2747
L 2328 2669
Q 3034 2534 3370 2195
Q 3706 1856 3706 1288
Q 3706 609 3251 259
Q 2797 -91 1919 -91
Q 1588 -91 1214 -16
Q 841 59 441 206
L 441 856
Q 825 641 1194 531
Q 1563 422 1919 422
Q 2459 422 2753 634
Q 3047 847 3047 1241
Q 3047 1584 2836 1778
Q 2625 1972 2144 2069
L 1759 2144
Q 1053 2284 737 2584
Q 422 2884 422 3419
Q 422 4038 858 4394
Q 1294 4750 2059 4750
Q 2388 4750 2728 4690
Q 3069 4631 3425 4513
z
" transform="scale(0.015625)"/>
      <path id="DejaVuSans-66" d="M 2375 4863
L 2375 4384
L 1825 4384
Q 1516 4384 1395 4259
Q 1275 4134 1275 3809
L 1275 3500
L 2222 3500
L 2222 3053
L 1275 3053
L 1275 0
L 697 0
L 697 3053
L 147 3053
L 147 3500
L 697 3500
L 697 3744
Q 697 4328 969 4595
Q 1241 4863 1831 4863
L 2375 4863
z
" transform="scale(0.015625)"/>
     </defs>
     <use xlink:href="#DejaVuSans-49"/>
     <use xlink:href="#DejaVuSans-54" transform="translate(29.492188 0)"/>
     <use xlink:href="#DejaVuSans-20" transform="translate(90.576172 0)"/>
     <use xlink:href="#DejaVuSans-53" transform="translate(122.363281 0)"/>
     <use xlink:href="#DejaVuSans-74" transform="translate(185.839844 0)"/>
     <use xlink:href="#DejaVuSans-61" transform="translate(225.048828 0)"/>
     <use xlink:href="#DejaVuSans-66" transform="translate(286.328125 0)"/>
     <use xlink:href="#DejaVuSans-66" transform="translate(321.533203 0)"/>
    </g>
   </g>
   <g id="text_8">
    <!-- Medium -->
    <g style="fill: #d13438" transform="translate(313.326562 293.813437) scale(0.09 -0.09)">
     <use xlink:href="#DejaVuSans-Bold-4d"/>
     <use xlink:href="#DejaVuSans-Bold-65" transform="translate(99.511719 0)"/>
     <use xlink:href="#DejaVuSans-Bold-64" transform="translate(167.333984 0)"/>
     <use xlink:href="#DejaVuSans-Bold-69" transform="translate(238.916016 0)"/>
     <use xlink:href="#DejaVuSans-Bold-75" transform="translate(273.193359 0)"/>
     <use xlink:href="#DejaVuSans-Bold-6d" transform="translate(344.384766 0)"/>
    </g>
   </g>
   <g id="text_9">
    <!-- Power/Cooling -->
    <g style="fill: #004578" transform="translate(76.5 342.323437) scale(0.09 -0.09)">
     <defs>
      <path id="DejaVuSans-6f" d="M 1959 3097
Q 1497 3097 1228 2736
Q 959 2375 959 1747
Q 959 1119 1226 758
Q 1494 397 1959 397
Q 2419 397 2687 759
Q 2956 1122 2956 1747
Q 2956 2369 2687 2733
Q 2419 3097 1959 3097
z
M 1959 3584
Q 2709 3584 3137 3096
Q 3566 2609 3566 1747
Q 3566 888 3137 398
Q 2709 -91 1959 -91
Q 1206 -91 779 398
Q 353 888 353 1747
Q 353 2609 779 3096
Q 1206 3584 1959 3584
z
" transform="scale(0.015625)"/>
      <path id="DejaVuSans-2f" d="M 1625 4666
L 2156 4666
L 531 -594
L 0 -594
L 1625 4666
z
" transform="scale(0.015625)"/>
      <path id="DejaVuSans-6c" d="M 603 4863
L 1178 4863
L 1178 0
L 603 0
L 603 4863
z
" transform="scale(0.015625)"/>
      <path id="DejaVuSans-69" d="M 603 3500
L 1178 3500
L 1178 0
L 603 0
L 603 3500
z
M 603 4863
L 1178 4863
L 1178 4134
L 603 4134
L 603 4863
z
" transform="scale(0.015625)"/>
      <path id="DejaVuSans-67" d="M 2906 1791
Q 2906 2416 2648 2759
Q 2391 3103 1925 3103
Q 1463 3103 1205 2759
Q 947 2416 947 1791
Q 947 1169 1205 825
Q 1463 481 1925 481
Q 2391 481 2648 825
Q 2906 1169 2906 1791
z
M 3481 434
Q 3481 -459 3084 -895
Q 2688 -1331 1869 -1331
Q 1566 -1331 1297 -1286
Q 1028 -1241 775 -1147
L 775 -588
Q 1028 -725 1275 -790
Q 1522 -856 1778 -856
Q 2344 -856 2625 -561
Q 2906 -266 2906 331
L 2906 616
Q 2728 306 2450 153
Q 2172 0 1784 0
Q 1141 0 747 490
Q 353 981 353 1791
Q 353 2603 747 3093
Q 1141 3584 1784 3584
Q 2172 3584 2450 3431
Q 2728 3278 2906 2969
L 2906 3500
L 3481 3500
L 3481 434
z
" transform="scale(0.015625)"/>
     </defs>
     <use xlink:href="#DejaVuSans-50"/>
     <use xlink:href="#DejaVuSans-6f" transform="translate(56.677734 0)"/>
     <use xlink:href="#DejaVuSans-77" transform="translate(117.859375 0)"/>
     <use xlink:href="#DejaVuSans-65" transform="translate(199.646484 0)"/>
     <use xlink:href="#DejaVuSans-72" transform="translate(261.169922 0)"/>
     <use xlink:href="#DejaVuSans-2f" transform="translate(302.283203 0)"/>
     <use xlink:href="#DejaVuSans-43" transform="translate(335.974609 0)"/>
     <use xlink:href="#DejaVuSans-6f" transform="translate(405.798828 0)"/>
     <use xlink:href="#DejaVuSans-6f" transform="translate(466.980469 0)"/>
     <use xlink:href="#DejaVuSans-6c" transform="translate(528.162109 0)"/>
     <use xlink:href="#DejaVuSans-69" transform="translate(555.945312 0)"/>
     <use xlink:href="#DejaVuSans-6e" transform="translate(583.728516 0)"/>
     <use xlink:href="#DejaVuSans-67" transform="translate(647.107422 0)"/>
    </g>
   </g>
   <g id="text_10">
    <!-- Low -->
    <g style="fill: #d13438" transform="translate(333.466875 342.323437) scale(0.09 -0.09)">
     <defs>
      <path id="DejaVuSans-Bold-4c" d="M 588 4666
L 1791 4666
L 1791 909
L 3903 909
L 3903 0
L 588 0
L 588 4666
z
" transform="scale(0.015625)"/>
     </defs>
     <use xlink:href="#DejaVuSans-Bold-4c"/>
     <use xlink:href="#DejaVuSans-Bold-6f" transform="translate(63.720703 0)"/>
     <use xlink:href="#DejaVuSans-Bold-77" transform="translate(132.421875 0)"/>
    </g>
   </g>
   <g id="text_11">
    <!-- Maintenance -->
    <g style="fill: #004578" transform="translate(76.5 390.833437) scale(0.09 -0.09)">
     <defs>
      <path id="DejaVuSans-4d" d="M 628 4666
L 1569 4666
L 2759 1491
L 3956 4666
L 4897 4666
L 4897 0
L 4281 0
L 4281 4097
L 3078 897
L 2444 897
L 1241 4097
L 1241 0
L 628 0
L 628 4666
z
" transform="scale(0.015625)"/>
     </defs>
     <use xlink:href="#DejaVuSans-4d"/>
     <use xlink:href="#DejaVuSans-61" transform="translate(86.279297 0)"/>
     <use xlink:href="#DejaVuSans-69" transform="translate(147.558594 0)"/>
     <use xlink:href="#DejaVuSans-6e" transform="translate(175.341797 0)"/>
     <use xlink:href="#DejaVuSans-74" transform="translate(238.720703 0)"/>
     <use xlink:href="#DejaVuSans-65" transform="translate(277.929688 0)"/>
     <use xlink:href="#DejaVuSans-6e" transform="translate(339.453125 0)"/>
     <use xlink:href="#DejaVuSans-61" transform="translate(402.832031 0)"/>
     <use xlink:href="#DejaVuSans-6e" transform="translate(464.111328 0)"/>
     <use xlink:href="#DejaVuSans-63" transform="translate(527.490234 0)"/>
     <use xlink:href="#DejaVuSans-65" transform="translate(582.470703 0)"/>
    </g>
   </g>
   <g id="text_12">
    <!-- Low -->
    <g style="fill: #d13438" transform="translate(333.466875 390.833437) scale(0.09 -0.09)">
     <use xlink:href="#DejaVuSans-Bold-4c"/>
     <use xlink:href="#DejaVuSans-Bold-6f" transform="translate(63.720703 0)"/>
     <use xlink:href="#DejaVuSans-Bold-77" transform="translate(132.421875 0)"/>
    </g>
   </g>
   <g id="text_13">
    <!-- Idle Capacity -->
    <g style="fill: #004578" transform="translate(76.5 439.343437) scale(0.09 -0.09)">
     <defs>
      <path id="DejaVuSans-70" d="M 1159 525
L 1159 -1331
L 581 -1331
L 581 3500
L 1159 3500
L 1159 2969
Q 1341 3281 1617 3432
Q 1894 3584 2278 3584
Q 2916 3584 3314 3078
Q 3713 2572 3713 1747
Q 3713 922 3314 415
Q 2916 -91 2278 -91
Q 1894 -91 1617 61
Q 1341 213 1159 525
z
M 3116 1747
Q 3116 2381 2855 2742
Q 2594 3103 2138 3103
Q 1681 3103 1420 2742
Q 1159 2381 1159 1747
Q 1159 1113 1420 752
Q 1681 391 2138 391
Q 2594 391 2855 752
Q 3116 1113 3116 1747
z
" transform="scale(0.015625)"/>
      <path id="DejaVuSans-79" d="M 2059 -325
Q 1816 -950 1584 -1140
Q 1353 -1331 966 -1331
L 506 -1331
L 506 -850
L 844 -850
Q 1081 -850 1212 -737
Q 1344 -625 1503 -206
L 1606 56
L 191 3500
L 800 3500
L 1894 763
L 2988 3500
L 3597 3500
L 2059 -325
z
" transform="scale(0.015625)"/>
     </defs>
     <use xlink:href="#DejaVuSans-49"/>
     <use xlink:href="#DejaVuSans-64" transform="translate(29.492188 0)"/>
     <use xlink:href="#DejaVuSans-6c" transform="translate(92.96875 0)"/>
     <use xlink:href="#DejaVuSans-65" transform="translate(120.751953 0)"/>
     <use xlink:href="#DejaVuSans-20" transform="translate(182.275391 0)"/>
     <use xlink:href="#DejaVuSans-43" transform="translate(214.0625 0)"/>
     <use xlink:href="#DejaVuSans-61" transform="translate(283.886719 0)"/>
     <use xlink:href="#DejaVuSans-70" transform="translate(345.166016 0)"/>
     <use xlink:href="#DejaVuSans-61" transform="translate(408.642578 0)"/>
     <use xlink:href="#DejaVuSans-63" transform="translate(469.921875 0)"/>
     <use xlink:href="#DejaVuSans-69" transform="translate(524.902344 0)"/>
     <use xlink:href="#DejaVuSans-74" transform="translate(552.685547 0)"/>
     <use xlink:href="#DejaVuSans-79" transform="translate(591.894531 0)"/>
    </g>
   </g>
   <g id="text_14">
    <!-- Medium -->
    <g style="fill: #d13438" transform="translate(313.326562 439.343437) scale(0.09 -0.09)">
     <use xlink:href="#DejaVuSans-Bold-4d"/>
     <use xlink:href="#DejaVuSans-Bold-65" transform="translate(99.511719 0)"/>
     <use xlink:href="#DejaVuSans-Bold-64" transform="translate(167.333984 0)"/>
     <use xlink:href="#DejaVuSans-Bold-69" transform="translate(238.916016 0)"/>
     <use xlink:href="#DejaVuSans-Bold-75" transform="translate(273.193359 0)"/>
     <use xlink:href="#DejaVuSans-Bold-6d" transform="translate(344.384766 0)"/>
    </g>
   </g>
   <g id="text_15">
    <!-- Cloud Model -->
    <g style="fill: #107c10" transform="translate(727.748437 131.94) scale(0.12 -0.12)">
     <use xlink:href="#DejaVuSans-Bold-43"/>
     <use xlink:href="#DejaVuSans-Bold-6c" transform="translate(73.388672 0)"/>
     <use xlink:href="#DejaVuSans-Bold-6f" transform="translate(107.666016 0)"/>
     <use xlink:href="#DejaVuSans-Bold-75" transform="translate(176.367188 0)"/>
     <use xlink:href="#DejaVuSans-Bold-64" transform="translate(247.558594 0)"/>
     <use xlink:href="#DejaVuSans-Bold-20" transform="translate(319.140625 0)"/>
     <use xlink:href="#DejaVuSans-Bold-4d" transform="translate(353.955078 0)"/>
     <use xlink:href="#DejaVuSans-Bold-6f" transform="translate(453.466797 0)"/>
     <use xlink:href="#DejaVuSans-Bold-64" transform="translate(522.167969 0)"/>
     <use xlink:href="#DejaVuSans-Bold-65" transform="translate(593.75 0)"/>
     <use xlink:href="#DejaVuSans-Bold-6c" transform="translate(661.572266 0)"/>
    </g>
   </g>
   <g id="text_16">
    <!-- Subscription -->
    <g style="fill: #004578" transform="translate(627.435 196.793437) scale(0.09 -0.09)">
     <defs>
      <path id="DejaVuSans-62" d="M 3116 1747
Q 3116 2381 2855 2742
Q 2594 3103 2138 3103
Q 1681 3103 1420 2742
Q 1159 2381 1159 1747
Q 1159 1113 1420 752
Q 1681 391 2138 391
Q 2594 391 2855 752
Q 3116 1113 3116 1747
z
M 1159 2969
Q 1341 3281 1617 3432
Q 1894 3584 2278 3584
Q 2916 3584 3314 3078
Q 3713 2572 3713 1747
Q 3713 922 3314 415
Q 2916 -91 2278 -91
Q 1894 -91 1617 61
Q 1341 213 1159 525
L 1159 0
L 581 0
L 581 4863
L 1159 4863
L 1159 2969
z
" transform="scale(0.015625)"/>
     </defs>
     <use xlink:href="#DejaVuSans-53"/>
     <use xlink:href="#DejaVuSans-75" transform="translate(63.476562 0)"/>
     <use xlink:href="#DejaVuSans-62" transform="translate(126.855469 0)"/>
     <use xlink:href="#DejaVuSans-73" transform="translate(190.332031 0)"/>
     <use xlink:href="#DejaVuSans-63" transform="translate(242.431641 0)"/>
     <use xlink:href="#DejaVuSans-72" transform="translate(297.412109 0)"/>
     <use xlink:href="#DejaVuSans-69" transform="translate(338.525391 0)"/>
     <use xlink:href="#DejaVuSans-70" transform="translate(366.308594 0)"/>
     <use xlink:href="#DejaVuSans-74" transform="translate(429.785156 0)"/>
     <use xlink:href="#DejaVuSans-69" transform="translate(468.994141 0)"/>
     <use xlink:href="#DejaVuSans-6f" transform="translate(496.777344 0)"/>
     <use xlink:href="#DejaVuSans-6e" transform="translate(557.958984 0)"/>
    </g>
   </g>
   <g id="text_17">
    <!-- Pay-as-you-go -->
    <g style="fill: #107c10" transform="translate(844.33375 196.455) scale(0.08 -0.08)">
     <defs>
      <path id="DejaVuSans-Bold-79" d="M 78 3500
L 1197 3500
L 2138 1125
L 2938 3500
L 4056 3500
L 2584 -331
Q 2363 -916 2067 -1148
Q 1772 -1381 1288 -1381
L 641 -1381
L 641 -647
L 991 -647
Q 1275 -647 1404 -556
Q 1534 -466 1606 -231
L 1638 -134
L 78 3500
z
" transform="scale(0.015625)"/>
     </defs>
     <use xlink:href="#DejaVuSans-Bold-50"/>
     <use xlink:href="#DejaVuSans-Bold-61" transform="translate(70.666016 0)"/>
     <use xlink:href="#DejaVuSans-Bold-79" transform="translate(135.021484 0)"/>
     <use xlink:href="#DejaVuSans-Bold-2d" transform="translate(200.207031 0)"/>
     <use xlink:href="#DejaVuSans-Bold-61" transform="translate(241.710938 0)"/>
     <use xlink:href="#DejaVuSans-Bold-73" transform="translate(309.191406 0)"/>
     <use xlink:href="#DejaVuSans-Bold-2d" transform="translate(368.712891 0)"/>
     <use xlink:href="#DejaVuSans-Bold-79" transform="translate(410.216797 0)"/>
     <use xlink:href="#DejaVuSans-Bold-6f" transform="translate(475.402344 0)"/>
     <use xlink:href="#DejaVuSans-Bold-75" transform="translate(544.103516 0)"/>
     <use xlink:href="#DejaVuSans-Bold-2d" transform="translate(615.294922 0)"/>
     <use xlink:href="#DejaVuSans-Bold-67" transform="translate(656.798828 0)"/>
     <use xlink:href="#DejaVuSans-Bold-6f" transform="translate(728.380859 0)"/>
    </g>
   </g>
   <g id="text_18">
    <!-- Auto-scaling -->
    <g style="fill: #004578" transform="translate(627.435 259.163437) scale(0.09 -0.09)">
     <defs>
      <path id="DejaVuSans-41" d="M 2188 4044
L 1331 1722
L 3047 1722
L 2188 4044
z
M 1831 4666
L 2547 4666
L 4325 0
L 3669 0
L 3244 1197
L 1141 1197
L 716 0
L 50 0
L 1831 4666
z
" transform="scale(0.015625)"/>
      <path id="DejaVuSans-2d" d="M 313 2009
L 1997 2009
L 1997 1497
L 313 1497
L 313 2009
z
" transform="scale(0.015625)"/>
     </defs>
     <use xlink:href="#DejaVuSans-41"/>
     <use xlink:href="#DejaVuSans-75" transform="translate(68.408203 0)"/>
     <use xlink:href="#DejaVuSans-74" transform="translate(131.787109 0)"/>
     <use xlink:href="#DejaVuSans-6f" transform="translate(170.996094 0)"/>
     <use xlink:href="#DejaVuSans-2d" transform="translate(234.052734 0)"/>
     <use xlink:href="#DejaVuSans-73" transform="translate(270.136719 0)"/>
     <use xlink:href="#DejaVuSans-63" transform="translate(322.236328 0)"/>
     <use xlink:href="#DejaVuSans-61" transform="translate(377.216797 0)"/>
     <use xlink:href="#DejaVuSans-6c" transform="translate(438.496094 0)"/>
     <use xlink:href="#DejaVuSans-69" transform="translate(466.279297 0)"/>
     <use xlink:href="#DejaVuSans-6e" transform="translate(494.0625 0)"/>
     <use xlink:href="#DejaVuSans-67" transform="translate(557.441406 0)"/>
    </g>
   </g>
   <g id="text_19">
    <!-- No idle waste -->
    <g style="fill: #107c10" transform="translate(846.9 258.8875) scale(0.08 -0.08)">
     <defs>
      <path id="DejaVuSans-Bold-4e" d="M 588 4666
L 1931 4666
L 3628 1466
L 3628 4666
L 4769 4666
L 4769 0
L 3425 0
L 1728 3200
L 1728 0
L 588 0
L 588 4666
z
" transform="scale(0.015625)"/>
     </defs>
     <use xlink:href="#DejaVuSans-Bold-4e"/>
     <use xlink:href="#DejaVuSans-Bold-6f" transform="translate(83.691406 0)"/>
     <use xlink:href="#DejaVuSans-Bold-20" transform="translate(152.392578 0)"/>
     <use xlink:href="#DejaVuSans-Bold-69" transform="translate(187.207031 0)"/>
     <use xlink:href="#DejaVuSans-Bold-64" transform="translate(221.484375 0)"/>
     <use xlink:href="#DejaVuSans-Bold-6c" transform="translate(293.066406 0)"/>
     <use xlink:href="#DejaVuSans-Bold-65" transform="translate(327.34375 0)"/>
     <use xlink:href="#DejaVuSans-Bold-20" transform="translate(395.166016 0)"/>
     <use xlink:href="#DejaVuSans-Bold-77" transform="translate(429.980469 0)"/>
     <use xlink:href="#DejaVuSans-Bold-61" transform="translate(522.363281 0)"/>
     <use xlink:href="#DejaVuSans-Bold-73" transform="translate(589.84375 0)"/>
     <use xlink:href="#DejaVuSans-Bold-74" transform="translate(649.365234 0)"/>
     <use xlink:href="#DejaVuSans-Bold-65" transform="translate(697.167969 0)"/>
    </g>
   </g>
   <g id="text_20">
    <!-- Managed Services -->
    <g style="fill: #004578" transform="translate(627.435 321.533437) scale(0.09 -0.09)">
     <defs>
      <path id="DejaVuSans-76" d="M 191 3500
L 800 3500
L 1894 563
L 2988 3500
L 3597 3500
L 2284 0
L 1503 0
L 191 3500
z
" transform="scale(0.015625)"/>
     </defs>
     <use xlink:href="#DejaVuSans-4d"/>
     <use xlink:href="#DejaVuSans-61" transform="translate(86.279297 0)"/>
     <use xlink:href="#DejaVuSans-6e" transform="translate(147.558594 0)"/>
     <use xlink:href="#DejaVuSans-61" transform="translate(210.9375 0)"/>
     <use xlink:href="#DejaVuSans-67" transform="translate(272.216797 0)"/>
     <use xlink:href="#DejaVuSans-65" transform="translate(335.693359 0)"/>
     <use xlink:href="#DejaVuSans-64" transform="translate(397.216797 0)"/>
     <use xlink:href="#DejaVuSans-20" transform="translate(460.693359 0)"/>
     <use xlink:href="#DejaVuSans-53" transform="translate(492.480469 0)"/>
     <use xlink:href="#DejaVuSans-65" transform="translate(555.957031 0)"/>
     <use xlink:href="#DejaVuSans-72" transform="translate(617.480469 0)"/>
     <use xlink:href="#DejaVuSans-76" transform="translate(658.59375 0)"/>
     <use xlink:href="#DejaVuSans-69" transform="translate(717.773438 0)"/>
     <use xlink:href="#DejaVuSans-63" transform="translate(745.556641 0)"/>
     <use xlink:href="#DejaVuSans-65" transform="translate(800.537109 0)"/>
     <use xlink:href="#DejaVuSans-73" transform="translate(862.060547 0)"/>
    </g>
   </g>
   <g id="text_21">
    <!-- Reduced staff -->
    <g style="fill: #107c10" transform="translate(845.46875 321.2575) scale(0.08 -0.08)">
     <defs>
      <path id="DejaVuSans-Bold-52" d="M 2297 2597
Q 2675 2597 2839 2737
Q 3003 2878 3003 3200
Q 3003 3519 2839 3656
Q 2675 3794 2297 3794
L 1791 3794
L 1791 2597
L 2297 2597
z
M 1791 1766
L 1791 0
L 588 0
L 588 4666
L 2425 4666
Q 3347 4666 3776 4356
Q 4206 4047 4206 3378
Q 4206 2916 3982 2619
Q 3759 2322 3309 2181
Q 3556 2125 3751 1926
Q 3947 1728 4147 1325
L 4800 0
L 3519 0
L 2950 1159
Q 2778 1509 2601 1637
Q 2425 1766 2131 1766
L 1791 1766
z
" transform="scale(0.015625)"/>
      <path id="DejaVuSans-Bold-63" d="M 3366 3391
L 3366 2478
Q 3138 2634 2908 2709
Q 2678 2784 2431 2784
Q 1963 2784 1702 2511
Q 1441 2238 1441 1747
Q 1441 1256 1702 982
Q 1963 709 2431 709
Q 2694 709 2930 787
Q 3166 866 3366 1019
L 3366 103
Q 3103 6 2833 -42
Q 2563 -91 2291 -91
Q 1344 -91 809 395
Q 275 881 275 1747
Q 275 2613 809 3098
Q 1344 3584 2291 3584
Q 2566 3584 2833 3536
Q 3100 3488 3366 3391
z
" transform="scale(0.015625)"/>
     </defs>
     <use xlink:href="#DejaVuSans-Bold-52"/>
     <use xlink:href="#DejaVuSans-Bold-65" transform="translate(77.001953 0)"/>
     <use xlink:href="#DejaVuSans-Bold-64" transform="translate(144.824219 0)"/>
     <use xlink:href="#DejaVuSans-Bold-75" transform="translate(216.40625 0)"/>
     <use xlink:href="#DejaVuSans-Bold-63" transform="translate(287.597656 0)"/>
     <use xlink:href="#DejaVuSans-Bold-65" transform="translate(346.875 0)"/>
     <use xlink:href="#DejaVuSans-Bold-64" transform="translate(414.697266 0)"/>
     <use xlink:href="#DejaVuSans-Bold-20" transform="translate(486.279297 0)"/>
     <use xlink:href="#DejaVuSans-Bold-73" transform="translate(521.09375 0)"/>
     <use xlink:href="#DejaVuSans-Bold-74" transform="translate(580.615234 0)"/>
     <use xlink:href="#DejaVuSans-Bold-61" transform="translate(628.417969 0)"/>
     <use xlink:href="#DejaVuSans-Bold-66" transform="translate(695.898438 0)"/>
     <use xlink:href="#DejaVuSans-Bold-66" transform="translate(739.404297 0)"/>
    </g>
   </g>
   <g id="text_22">
    <!-- No Hardware -->
    <g style="fill: #004578" transform="translate(627.435 383.903437) scale(0.09 -0.09)">
     <defs>
      <path id="DejaVuSans-4e" d="M 628 4666
L 1478 4666
L 3547 763
L 3547 4666
L 4159 4666
L 4159 0
L 3309 0
L 1241 3903
L 1241 0
L 628 0
L 628 4666
z
" transform="scale(0.015625)"/>
     </defs>
     <use xlink:href="#DejaVuSans-4e"/>
     <use xlink:href="#DejaVuSans-6f" transform="translate(74.804688 0)"/>
     <use xlink:href="#DejaVuSans-20" transform="translate(135.986328 0)"/>
     <use xlink:href="#DejaVuSans-48" transform="translate(167.773438 0)"/>
     <use xlink:href="#DejaVuSans-61" transform="translate(242.96875 0)"/>
     <use xlink:href="#DejaVuSans-72" transform="translate(304.248047 0)"/>
     <use xlink:href="#DejaVuSans-64" transform="translate(343.611328 0)"/>
     <use xlink:href="#DejaVuSans-77" transform="translate(407.087891 0)"/>
     <use xlink:href="#DejaVuSans-61" transform="translate(488.875 0)"/>
     <use xlink:href="#DejaVuSans-72" transform="translate(550.154297 0)"/>
     <use xlink:href="#DejaVuSans-65" transform="translate(589.017578 0)"/>
    </g>
   </g>
   <g id="text_23">
    <!-- Zero CapEx -->
    <g style="fill: #107c10" transform="translate(857.025 383.6275) scale(0.08 -0.08)">
     <defs>
      <path id="DejaVuSans-Bold-5a" d="M 359 4666
L 4281 4666
L 4281 3938
L 1778 909
L 4353 909
L 4353 0
L 288 0
L 288 728
L 2791 3756
L 359 3756
L 359 4666
z
" transform="scale(0.015625)"/>
      <path id="DejaVuSans-Bold-45" d="M 588 4666
L 3834 4666
L 3834 3756
L 1791 3756
L 1791 2888
L 3713 2888
L 3713 1978
L 1791 1978
L 1791 909
L 3903 909
L 3903 0
L 588 0
L 588 4666
z
" transform="scale(0.015625)"/>
      <path id="DejaVuSans-Bold-78" d="M 1422 1791
L 159 3500
L 1344 3500
L 2059 2463
L 2784 3500
L 3969 3500
L 2706 1797
L 4031 0
L 2847 0
L 2059 1106
L 1281 0
L 97 0
L 1422 1791
z
" transform="scale(0.015625)"/>
     </defs>
     <use xlink:href="#DejaVuSans-Bold-5a"/>
     <use xlink:href="#DejaVuSans-Bold-65" transform="translate(72.509766 0)"/>
     <use xlink:href="#DejaVuSans-Bold-72" transform="translate(140.332031 0)"/>
     <use xlink:href="#DejaVuSans-Bold-6f" transform="translate(189.648438 0)"/>
     <use xlink:href="#DejaVuSans-Bold-20" transform="translate(258.349609 0)"/>
     <use xlink:href="#DejaVuSans-Bold-43" transform="translate(293.164062 0)"/>
     <use xlink:href="#DejaVuSans-Bold-61" transform="translate(366.552734 0)"/>
     <use xlink:href="#DejaVuSans-Bold-70" transform="translate(434.033203 0)"/>
     <use xlink:href="#DejaVuSans-Bold-45" transform="translate(505.615234 0)"/>
     <use xlink:href="#DejaVuSans-Bold-78" transform="translate(573.925781 0)"/>
    </g>
   </g>
   <g id="text_24">
    <!-- Migrate -->
    <g style="fill: #0078d4" transform="translate(470.410156 277.47) scale(0.1 -0.1)">
     <use xlink:href="#DejaVuSans-Bold-4d"/>
     <use xlink:href="#DejaVuSans-Bold-69" transform="translate(99.511719 0)"/>
     <use xlink:href="#DejaVuSans-Bold-67" transform="translate(133.789062 0)"/>
     <use xlink:href="#DejaVuSans-Bold-72" transform="translate(205.371094 0)"/>
     <use xlink:href="#DejaVuSans-Bold-61" transform="translate(254.6875 0)"/>
     <use xlink:href="#DejaVuSans-Bold-74" transform="translate(322.167969 0)"/>
     <use xlink:href="#DejaVuSans-Bold-65" transform="translate(369.970703 0)"/>
    </g>
   </g>
   <g id="text_25">
    <!-- Cloud eliminates capital expenses and reduces operational overhead -->
    <g style="fill: #004578" transform="translate(318.967187 526.95) scale(0.1 -0.1)">
     <defs>
      <path id="DejaVuSans-Oblique-43" d="M 4447 4306
L 4319 3641
Q 4019 3944 3683 4091
Q 3347 4238 2956 4238
Q 2422 4238 2017 3981
Q 1613 3725 1319 3200
Q 1131 2863 1032 2486
Q 934 2109 934 1728
Q 934 1091 1264 756
Q 1594 422 2222 422
Q 2656 422 3056 561
Q 3456 700 3834 978
L 3688 231
Q 3316 72 2936 -9
Q 2556 -91 2175 -91
Q 1278 -91 773 396
Q 269 884 269 1753
Q 269 2309 461 2846
Q 653 3384 1013 3828
Q 1394 4300 1883 4525
Q 2372 4750 3022 4750
Q 3422 4750 3780 4639
Q 4138 4528 4447 4306
z
" transform="scale(0.015625)"/>
      <path id="DejaVuSans-Oblique-6c" d="M 1172 4863
L 1747 4863
L 800 0
L 225 0
L 1172 4863
z
" transform="scale(0.015625)"/>
      <path id="DejaVuSans-Oblique-6f" d="M 1625 -91
Q 1009 -91 651 289
Q 294 669 294 1325
Q 294 1706 417 2101
Q 541 2497 738 2766
Q 1047 3184 1428 3384
Q 1809 3584 2291 3584
Q 2888 3584 3255 3212
Q 3622 2841 3622 2241
Q 3622 1825 3500 1412
Q 3378 1000 3181 728
Q 2875 309 2494 109
Q 2113 -91 1625 -91
z
M 891 1344
Q 891 869 1089 633
Q 1288 397 1691 397
Q 2269 397 2648 901
Q 3028 1406 3028 2181
Q 3028 2634 2825 2865
Q 2622 3097 2228 3097
Q 1903 3097 1650 2945
Q 1397 2794 1197 2484
Q 1050 2253 970 1956
Q 891 1659 891 1344
z
" transform="scale(0.015625)"/>
      <path id="DejaVuSans-Oblique-75" d="M 428 1388
L 838 3500
L 1416 3500
L 1006 1409
Q 975 1256 961 1147
Q 947 1038 947 966
Q 947 700 1109 554
Q 1272 409 1569 409
Q 2031 409 2368 721
Q 2706 1034 2809 1563
L 3194 3500
L 3769 3500
L 3091 0
L 2516 0
L 2631 550
Q 2388 244 2052 76
Q 1716 -91 1338 -91
Q 878 -91 622 161
Q 366 413 366 863
Q 366 956 381 1097
Q 397 1238 428 1388
z
" transform="scale(0.015625)"/>
      <path id="DejaVuSans-Oblique-64" d="M 2675 525
Q 2444 222 2128 65
Q 1813 -91 1428 -91
Q 903 -91 598 267
Q 294 625 294 1247
Q 294 1766 478 2236
Q 663 2706 1013 3078
Q 1244 3325 1534 3454
Q 1825 3584 2144 3584
Q 2481 3584 2739 3421
Q 2997 3259 3138 2956
L 3513 4863
L 4091 4863
L 3144 0
L 2566 0
L 2675 525
z
M 891 1350
Q 891 897 1095 644
Q 1300 391 1663 391
Q 1931 391 2161 520
Q 2391 650 2566 903
Q 2750 1166 2856 1509
Q 2963 1853 2963 2188
Q 2963 2622 2758 2865
Q 2553 3109 2194 3109
Q 1922 3109 1687 2981
Q 1453 2853 1288 2613
Q 1106 2353 998 2009
Q 891 1666 891 1350
z
" transform="scale(0.015625)"/>
      <path id="DejaVuSans-Oblique-20" transform="scale(0.015625)"/>
      <path id="DejaVuSans-Oblique-65" d="M 3078 2063
Q 3088 2113 3092 2166
Q 3097 2219 3097 2272
Q 3097 2653 2873 2875
Q 2650 3097 2266 3097
Q 1838 3097 1509 2826
Q 1181 2556 1013 2059
L 3078 2063
z
M 3578 1613
L 903 1613
Q 884 1494 878 1425
Q 872 1356 872 1306
Q 872 872 1139 634
Q 1406 397 1894 397
Q 2269 397 2603 481
Q 2938 566 3225 728
L 3116 159
Q 2806 34 2476 -28
Q 2147 -91 1806 -91
Q 1078 -91 686 257
Q 294 606 294 1247
Q 294 1794 489 2264
Q 684 2734 1063 3103
Q 1306 3334 1642 3459
Q 1978 3584 2356 3584
Q 2950 3584 3301 3228
Q 3653 2872 3653 2272
Q 3653 2128 3634 1964
Q 3616 1800 3578 1613
z
" transform="scale(0.015625)"/>
      <path id="DejaVuSans-Oblique-69" d="M 1172 4863
L 1747 4863
L 1606 4134
L 1031 4134
L 1172 4863
z
M 909 3500
L 1484 3500
L 800 0
L 225 0
L 909 3500
z
" transform="scale(0.015625)"/>
      <path id="DejaVuSans-Oblique-6d" d="M 5747 2113
L 5338 0
L 4763 0
L 5166 2094
Q 5191 2228 5203 2325
Q 5216 2422 5216 2491
Q 5216 2772 5059 2928
Q 4903 3084 4622 3084
Q 4203 3084 3875 2770
Q 3547 2456 3450 1953
L 3066 0
L 2491 0
L 2900 2094
Q 2925 2209 2937 2307
Q 2950 2406 2950 2484
Q 2950 2769 2794 2926
Q 2638 3084 2363 3084
Q 1938 3084 1609 2770
Q 1281 2456 1184 1953
L 800 0
L 225 0
L 909 3500
L 1484 3500
L 1375 2956
Q 1609 3263 1923 3423
Q 2238 3584 2597 3584
Q 2978 3584 3223 3384
Q 3469 3184 3519 2828
Q 3781 3197 4126 3390
Q 4472 3584 4856 3584
Q 5306 3584 5551 3325
Q 5797 3066 5797 2591
Q 5797 2488 5784 2364
Q 5772 2241 5747 2113
z
" transform="scale(0.015625)"/>
      <path id="DejaVuSans-Oblique-6e" d="M 3566 2113
L 3156 0
L 2578 0
L 2988 2091
Q 3016 2238 3031 2350
Q 3047 2463 3047 2528
Q 3047 2791 2881 2937
Q 2716 3084 2419 3084
Q 1956 3084 1622 2776
Q 1288 2469 1184 1941
L 800 0
L 225 0
L 903 3500
L 1478 3500
L 1363 2950
Q 1603 3253 1940 3418
Q 2278 3584 2650 3584
Q 3113 3584 3367 3334
Q 3622 3084 3622 2631
Q 3622 2519 3608 2391
Q 3594 2263 3566 2113
z
" transform="scale(0.015625)"/>
      <path id="DejaVuSans-Oblique-61" d="M 3438 1997
L 3047 0
L 2472 0
L 2578 531
Q 2325 219 2001 64
Q 1678 -91 1281 -91
Q 834 -91 548 182
Q 263 456 263 884
Q 263 1497 752 1853
Q 1241 2209 2100 2209
L 2900 2209
L 2931 2363
Q 2938 2388 2941 2417
Q 2944 2447 2944 2509
Q 2944 2788 2717 2942
Q 2491 3097 2081 3097
Q 1800 3097 1504 3025
Q 1209 2953 897 2809
L 997 3341
Q 1322 3463 1633 3523
Q 1944 3584 2234 3584
Q 2853 3584 3176 3315
Q 3500 3047 3500 2534
Q 3500 2431 3484 2292
Q 3469 2153 3438 1997
z
M 2816 1759
L 2241 1759
Q 1534 1759 1195 1570
Q 856 1381 856 984
Q 856 709 1029 553
Q 1203 397 1509 397
Q 1978 397 2328 733
Q 2678 1069 2791 1631
L 2816 1759
z
" transform="scale(0.015625)"/>
      <path id="DejaVuSans-Oblique-74" d="M 2706 3500
L 2619 3053
L 1472 3053
L 1100 1153
Q 1081 1047 1072 975
Q 1063 903 1063 863
Q 1063 663 1183 572
Q 1303 481 1569 481
L 2150 481
L 2053 0
L 1503 0
Q 991 0 739 200
Q 488 400 488 806
Q 488 878 497 964
Q 506 1050 525 1153
L 897 3053
L 409 3053
L 500 3500
L 978 3500
L 1172 4494
L 1747 4494
L 1556 3500
L 2706 3500
z
" transform="scale(0.015625)"/>
      <path id="DejaVuSans-Oblique-73" d="M 3200 3397
L 3091 2853
Q 2863 2978 2609 3040
Q 2356 3103 2088 3103
Q 1634 3103 1373 2948
Q 1113 2794 1113 2528
Q 1113 2219 1719 2053
Q 1766 2041 1788 2034
L 1972 1978
Q 2547 1819 2739 1644
Q 2931 1469 2931 1166
Q 2931 609 2489 259
Q 2047 -91 1331 -91
Q 1053 -91 747 -37
Q 441 16 72 128
L 184 722
Q 500 559 806 475
Q 1113 391 1394 391
Q 1816 391 2080 572
Q 2344 753 2344 1031
Q 2344 1331 1650 1516
L 1591 1531
L 1394 1581
Q 956 1697 753 1886
Q 550 2075 550 2369
Q 550 2928 970 3256
Q 1391 3584 2113 3584
Q 2397 3584 2667 3537
Q 2938 3491 3200 3397
z
" transform="scale(0.015625)"/>
      <path id="DejaVuSans-Oblique-63" d="M 3431 3366
L 3316 2797
Q 3109 2947 2876 3022
Q 2644 3097 2394 3097
Q 2119 3097 1870 3000
Q 1622 2903 1453 2725
Q 1184 2453 1037 2087
Q 891 1722 891 1331
Q 891 859 1127 628
Q 1363 397 1844 397
Q 2081 397 2348 469
Q 2616 541 2906 684
L 2797 116
Q 2547 13 2283 -39
Q 2019 -91 1741 -91
Q 1044 -91 669 257
Q 294 606 294 1253
Q 294 1797 489 2255
Q 684 2713 1069 3078
Q 1331 3328 1684 3456
Q 2038 3584 2456 3584
Q 2700 3584 2940 3529
Q 3181 3475 3431 3366
z
" transform="scale(0.015625)"/>
      <path id="DejaVuSans-Oblique-70" d="M 3175 2156
Q 3175 2616 2975 2859
Q 2775 3103 2400 3103
Q 2144 3103 1911 2972
Q 1678 2841 1497 2591
Q 1319 2344 1212 1994
Q 1106 1644 1106 1300
Q 1106 863 1306 627
Q 1506 391 1875 391
Q 2147 391 2380 519
Q 2613 647 2778 891
Q 2956 1147 3065 1494
Q 3175 1841 3175 2156
z
M 1394 2969
Q 1625 3272 1939 3428
Q 2253 3584 2638 3584
Q 3175 3584 3472 3232
Q 3769 2881 3769 2247
Q 3769 1728 3584 1258
Q 3400 788 3053 416
Q 2822 169 2531 39
Q 2241 -91 1919 -91
Q 1547 -91 1294 64
Q 1041 219 916 525
L 556 -1331
L -19 -1331
L 922 3500
L 1497 3500
L 1394 2969
z
" transform="scale(0.015625)"/>
      <path id="DejaVuSans-Oblique-78" d="M 3841 3500
L 2234 1784
L 3219 0
L 2559 0
L 1819 1388
L 531 0
L -166 0
L 1556 1844
L 641 3500
L 1300 3500
L 1972 2234
L 3144 3500
L 3841 3500
z
" transform="scale(0.015625)"/>
      <path id="DejaVuSans-Oblique-72" d="M 2853 2969
Q 2766 3016 2653 3041
Q 2541 3066 2413 3066
Q 1953 3066 1609 2717
Q 1266 2369 1153 1784
L 800 0
L 225 0
L 909 3500
L 1484 3500
L 1375 2956
Q 1603 3259 1920 3421
Q 2238 3584 2597 3584
Q 2691 3584 2781 3573
Q 2872 3563 2963 3538
L 2853 2969
z
" transform="scale(0.015625)"/>
      <path id="DejaVuSans-Oblique-76" d="M 459 3500
L 1069 3500
L 1581 525
L 3256 3500
L 3866 3500
L 1875 0
L 1100 0
L 459 3500
z
" transform="scale(0.015625)"/>
      <path id="DejaVuSans-Oblique-68" d="M 3566 2113
L 3156 0
L 2578 0
L 2988 2091
Q 3016 2238 3031 2350
Q 3047 2463 3047 2528
Q 3047 2791 2881 2937
Q 2716 3084 2419 3084
Q 1956 3084 1617 2771
Q 1278 2459 1178 1941
L 800 0
L 225 0
L 1172 4863
L 1747 4863
L 1375 2950
Q 1594 3244 1934 3414
Q 2275 3584 2650 3584
Q 3113 3584 3367 3334
Q 3622 3084 3622 2631
Q 3622 2519 3608 2391
Q 3594 2263 3566 2113
z
" transform="scale(0.015625)"/>
     </defs>
     <use xlink:href="#DejaVuSans-Oblique-43"/>
     <use xlink:href="#DejaVuSans-Oblique-6c" transform="translate(69.824219 0)"/>
     <use xlink:href="#DejaVuSans-Oblique-6f" transform="translate(97.607422 0)"/>
     <use xlink:href="#DejaVuSans-Oblique-75" transform="translate(158.789062 0)"/>
     <use xlink:href="#DejaVuSans-Oblique-64" transform="translate(222.167969 0)"/>
     <use xlink:href="#DejaVuSans-Oblique-20" transform="translate(285.644531 0)"/>
     <use xlink:href="#DejaVuSans-Oblique-65" transform="translate(317.431641 0)"/>
     <use xlink:href="#DejaVuSans-Oblique-6c" transform="translate(378.955078 0)"/>
     <use xlink:href="#DejaVuSans-Oblique-69" transform="translate(406.738281 0)"/>
     <use xlink:href="#DejaVuSans-Oblique-6d" transform="translate(434.521484 0)"/>
     <use xlink:href="#DejaVuSans-Oblique-69" transform="translate(531.933594 0)"/>
     <use xlink:href="#DejaVuSans-Oblique-6e" transform="translate(559.716797 0)"/>
     <use xlink:href="#DejaVuSans-Oblique-61" transform="translate(623.095703 0)"/>
     <use xlink:href="#DejaVuSans-Oblique-74" transform="translate(684.375 0)"/>
     <use xlink:href="#DejaVuSans-Oblique-65" transform="translate(723.583984 0)"/>
     <use xlink:href="#DejaVuSans-Oblique-73" transform="translate(785.107422 0)"/>
     <use xlink:href="#DejaVuSans-Oblique-20" transform="translate(837.207031 0)"/>
     <use xlink:href="#DejaVuSans-Oblique-63" transform="translate(868.994141 0)"/>
     <use xlink:href="#DejaVuSans-Oblique-61" transform="translate(923.974609 0)"/>
     <use xlink:href="#DejaVuSans-Oblique-70" transform="translate(985.253906 0)"/>
     <use xlink:href="#DejaVuSans-Oblique-69" transform="translate(1048.730469 0)"/>
     <use xlink:href="#DejaVuSans-Oblique-74" transform="translate(1076.513672 0)"/>
     <use xlink:href="#DejaVuSans-Oblique-61" transform="translate(1115.722656 0)"/>
     <use xlink:href="#DejaVuSans-Oblique-6c" transform="translate(1177.001953 0)"/>
     <use xlink:href="#DejaVuSans-Oblique-20" transform="translate(1204.785156 0)"/>
     <use xlink:href="#DejaVuSans-Oblique-65" transform="translate(1236.572266 0)"/>
     <use xlink:href="#DejaVuSans-Oblique-78" transform="translate(1298.095703 0)"/>
     <use xlink:href="#DejaVuSans-Oblique-70" transform="translate(1357.275391 0)"/>
     <use xlink:href="#DejaVuSans-Oblique-65" transform="translate(1420.751953 0)"/>
     <use xlink:href="#DejaVuSans-Oblique-6e" transform="translate(1482.275391 0)"/>
     <use xlink:href="#DejaVuSans-Oblique-73" transform="translate(1545.654297 0)"/>
     <use xlink:href="#DejaVuSans-Oblique-65" transform="translate(1597.753906 0)"/>
     <use xlink:href="#DejaVuSans-Oblique-73" transform="translate(1659.277344 0)"/>
     <use xlink:href="#DejaVuSans-Oblique-20" transform="translate(1711.376953 0)"/>
     <use xlink:href="#DejaVuSans-Oblique-61" transform="translate(1743.164062 0)"/>
     <use xlink:href="#DejaVuSans-Oblique-6e" transform="translate(1804.443359 0)"/>
     <use xlink:href="#DejaVuSans-Oblique-64" transform="translate(1867.822266 0)"/>
     <use xlink:href="#DejaVuSans-Oblique-20" transform="translate(1931.298828 0)"/>
     <use xlink:href="#DejaVuSans-Oblique-72" transform="translate(1963.085938 0)"/>
     <use xlink:href="#DejaVuSans-Oblique-65" transform="translate(2004.199219 0)"/>
     <use xlink:href="#DejaVuSans-Oblique-64" transform="translate(2065.722656 0)"/>
     <use xlink:href="#DejaVuSans-Oblique-75" transform="translate(2129.199219 0)"/>
     <use xlink:href="#DejaVuSans-Oblique-63" transform="translate(2192.578125 0)"/>
     <use xlink:href="#DejaVuSans-Oblique-65" transform="translate(2247.558594 0)"/>
     <use xlink:href="#DejaVuSans-Oblique-73" transform="translate(2309.082031 0)"/>
     <use xlink:href="#DejaVuSans-Oblique-20" transform="translate(2361.181641 0)"/>
     <use xlink:href="#DejaVuSans-Oblique-6f" transform="translate(2392.96875 0)"/>
     <use xlink:href="#DejaVuSans-Oblique-70" transform="translate(2454.150391 0)"/>
     <use xlink:href="#DejaVuSans-Oblique-65" transform="translate(2517.626953 0)"/>
     <use xlink:href="#DejaVuSans-Oblique-72" transform="translate(2579.150391 0)"/>
     <use xlink:href="#DejaVuSans-Oblique-61" transform="translate(2620.263672 0)"/>
     <use xlink:href="#DejaVuSans-Oblique-74" transform="translate(2681.542969 0)"/>
     <use xlink:href="#DejaVuSans-Oblique-69" transform="translate(2720.751953 0)"/>
     <use xlink:href="#DejaVuSans-Oblique-6f" transform="translate(2748.535156 0)"/>
     <use xlink:href="#DejaVuSans-Oblique-6e" transform="translate(2809.716797 0)"/>
     <use xlink:href="#DejaVuSans-Oblique-61" transform="translate(2873.095703 0)"/>
     <use xlink:href="#DejaVuSans-Oblique-6c" transform="translate(2934.375 0)"/>
     <use xlink:href="#DejaVuSans-Oblique-20" transform="translate(2962.158203 0)"/>
     <use xlink:href="#DejaVuSans-Oblique-6f" transform="translate(2993.945312 0)"/>
     <use xlink:href="#DejaVuSans-Oblique-76" transform="translate(3055.126953 0)"/>
     <use xlink:href="#DejaVuSans-Oblique-65" transform="translate(3114.306641 0)"/>
     <use xlink:href="#DejaVuSans-Oblique-72" transform="translate(3175.830078 0)"/>
     <use xlink:href="#DejaVuSans-Oblique-68" transform="translate(3216.943359 0)"/>
     <use xlink:href="#DejaVuSans-Oblique-65" transform="translate(3280.322266 0)"/>
     <use xlink:href="#DejaVuSans-Oblique-61" transform="translate(3341.845703 0)"/>
     <use xlink:href="#DejaVuSans-Oblique-64" transform="translate(3403.125 0)"/>
    </g>
   </g>
  </g>
 </g>
 <defs>
  <clipPath id="pfca29813be">
   <rect x="7.2" y="7.2" width="970.2" height="554.4"/>
  </clipPath>
 </defs>
</svg>
