<?xml version="1.0" encoding="utf-8" standalone="no"?>
<!DOCTYPE svg PUBLIC "-//W3C//DTD SVG 1.1//EN"
  "http://www.w3.org/Graphics/SVG/1.1/DTD/svg11.dtd">
<svg xmlns:xlink="http://www.w3.org/1999/xlink" width="1007.205309pt" height="424.235937pt" viewBox="0 0 1007.205309 424.235937" xmlns="http://www.w3.org/2000/svg" version="1.1">
 <metadata>
  <rdf:RDF xmlns:dc="http://purl.org/dc/elements/1.1/" xmlns:cc="http://creativecommons.org/ns#" xmlns:rdf="http://www.w3.org/1999/02/22-rdf-syntax-ns#">
   <cc:Work>
    <dc:type rdf:resource="http://purl.org/dc/dcmitype/StillImage"/>
    <dc:date>2025-11-27T19:16:36.838960</dc:date>
    <dc:format>image/svg+xml</dc:format>
    <dc:creator>
     <cc:Agent>
      <dc:title>Matplotlib v3.10.7, https://matplotlib.org/</dc:title>
     </cc:Agent>
    </dc:creator>
   </cc:Work>
  </rdf:RDF>
 </metadata>
 <defs>
  <style type="text/css">*{stroke-linejoin: round; stroke-linecap: butt}</style>
 </defs>
 <g id="figure_1">
  <g id="patch_1">
   <path d="M 0 424.235937 
L 1007.205309 424.235937 
L 1007.205309 0 
L 0 0 
z
" style="fill: #ffffff"/>
  </g>
  <g id="axes_1">
   <g id="table_1">
    <g id="patch_2">
     <path d="M 7.2 160.247163 
L 126.851291 160.247163 
L 126.851291 136.706903 
L 7.2 136.706903 
z
" style="fill: #333333; stroke: #000000; stroke-linejoin: miter"/>
    </g>
    <g id="text_1">
     <!-- Framework -->
     <g style="fill: #ffffff" transform="translate(35.642052 151.236408) scale(0.1 -0.1)">
      <defs>
       <path id="DejaVuSans-Bold-46" d="M 588 4666 
L 3834 4666 
L 3834 3756 
L 1791 3756 
L 1791 2888 
L 3713 2888 
L 3713 1978 
L 1791 1978 
L 1791 0 
L 588 0 
L 588 4666 
z
" transform="scale(0.015625)"/>
       <path id="DejaVuSans-Bold-72" d="M 3138 2547 
Q 2991 2616 2845 2648 
Q 2700 2681 2553 2681 
Q 2122 2681 1889 2404 
Q 1656 2128 1656 1613 
L 1656 0 
L 538 0 
L 538 3500 
L 1656 3500 
L 1656 2925 
Q 1872 3269 2151 3426 
Q 2431 3584 2822 3584 
Q 2878 3584 2943 3579 
Q 3009 3575 3134 3559 
L 3138 2547 
z
" transform="scale(0.015625)"/>
       <path id="DejaVuSans-Bold-61" d="M 2106 1575 
Q 1756 1575 1579 1456 
Q 1403 1338 1403 1106 
Q 1403 894 1545 773 
Q 1688 653 1941 653 
Q 2256 653 2472 879 
Q 2688 1106 2688 1447 
L 2688 1575 
L 2106 1575 
z
M 3816 1997 
L 3816 0 
L 2688 0 
L 2688 519 
Q 2463 200 2181 54 
Q 1900 -91 1497 -91 
Q 953 -91 614 226 
Q 275 544 275 1050 
Q 275 1666 698 1953 
Q 1122 2241 2028 2241 
L 2688 2241 
L 2688 2328 
Q 2688 2594 2478 2717 
Q 2269 2841 1825 2841 
Q 1466 2841 1156 2769 
Q 847 2697 581 2553 
L 581 3406 
Q 941 3494 1303 3539 
Q 1666 3584 2028 3584 
Q 2975 3584 3395 3211 
Q 3816 2838 3816 1997 
z
" transform="scale(0.015625)"/>
       <path id="DejaVuSans-Bold-6d" d="M 3781 2919 
Q 3994 3244 4286 3414 
Q 4578 3584 4928 3584 
Q 5531 3584 5847 3212 
Q 6163 2841 6163 2131 
L 6163 0 
L 5038 0 
L 5038 1825 
Q 5041 1866 5042 1909 
Q 5044 1953 5044 2034 
Q 5044 2406 4934 2573 
Q 4825 2741 4581 2741 
Q 4263 2741 4089 2478 
Q 3916 2216 3909 1719 
L 3909 0 
L 2784 0 
L 2784 1825 
Q 2784 2406 2684 2573 
Q 2584 2741 2328 2741 
Q 2006 2741 1831 2477 
Q 1656 2213 1656 1722 
L 1656 0 
L 531 0 
L 531 3500 
L 1656 3500 
L 1656 2988 
Q 1863 3284 2130 3434 
Q 2397 3584 2719 3584 
Q 3081 3584 3359 3409 
Q 3638 3234 3781 2919 
z
" transform="scale(0.015625)"/>
       <path id="DejaVuSans-Bold-65" d="M 4031 1759 
L 4031 1441 
L 1416 1441 
Q 1456 1047 1700 850 
Q 1944 653 2381 653 
Q 2734 653 3104 758 
Q 3475 863 3866 1075 
L 3866 213 
Q 3469 63 3072 -14 
Q 2675 -91 2278 -91 
Q 1328 -91 801 392 
Q 275 875 275 1747 
Q 275 2603 792 3093 
Q 1309 3584 2216 3584 
Q 3041 3584 3536 3087 
Q 4031 2591 4031 1759 
z
M 2881 2131 
Q 2881 2450 2695 2645 
Q 2509 2841 2209 2841 
Q 1884 2841 1681 2658 
Q 1478 2475 1428 2131 
L 2881 2131 
z
" transform="scale(0.015625)"/>
       <path id="DejaVuSans-Bold-77" d="M 225 3500 
L 1313 3500 
L 1900 1088 
L 2491 3500 
L 3425 3500 
L 4013 1113 
L 4603 3500 
L 5691 3500 
L 4769 0 
L 3547 0 
L 2956 2406 
L 2369 0 
L 1147 0 
L 225 3500 
z
" transform="scale(0.015625)"/>
       <path id="DejaVuSans-Bold-6f" d="M 2203 2784 
Q 1831 2784 1636 2517 
Q 1441 2250 1441 1747 
Q 1441 1244 1636 976 
Q 1831 709 2203 709 
Q 2569 709 2762 976 
Q 2956 1244 2956 1747 
Q 2956 2250 2762 2517 
Q 2569 2784 2203 2784 
z
M 2203 3584 
Q 3106 3584 3614 3096 
Q 4122 2609 4122 1747 
Q 4122 884 3614 396 
Q 3106 -91 2203 -91 
Q 1297 -91 786 396 
Q 275 884 275 1747 
Q 275 2609 786 3096 
Q 1297 3584 2203 3584 
z
" transform="scale(0.015625)"/>
       <path id="DejaVuSans-Bold-6b" d="M 538 4863 
L 1656 4863 
L 1656 2216 
L 2944 3500 
L 4244 3500 
L 2534 1894 
L 4378 0 
L 3022 0 
L 1656 1459 
L 1656 0 
L 538 0 
L 538 4863 
z
" transform="scale(0.015625)"/>
      </defs>
      <use xlink:href="#DejaVuSans-Bold-46"/>
      <use xlink:href="#DejaVuSans-Bold-72" transform="translate(61.935547 0)"/>
      <use xlink:href="#DejaVuSans-Bold-61" transform="translate(111.251953 0)"/>
      <use xlink:href="#DejaVuSans-Bold-6d" transform="translate(178.732422 0)"/>
      <use xlink:href="#DejaVuSans-Bold-65" transform="translate(282.931641 0)"/>
      <use xlink:href="#DejaVuSans-Bold-77" transform="translate(350.753906 0)"/>
      <use xlink:href="#DejaVuSans-Bold-6f" transform="translate(443.136719 0)"/>
      <use xlink:href="#DejaVuSans-Bold-72" transform="translate(511.837891 0)"/>
      <use xlink:href="#DejaVuSans-Bold-6b" transform="translate(561.154297 0)"/>
     </g>
    </g>
    <g id="patch_3">
     <path d="M 126.851291 160.247163 
L 222.572324 160.247163 
L 222.572324 136.706903 
L 126.851291 136.706903 
z
" style="fill: #333333; stroke: #000000; stroke-linejoin: miter"/>
    </g>
    <g id="text_2">
     <!-- Region -->
     <g style="fill: #ffffff" transform="translate(155.182901 151.197346) scale(0.1 -0.1)">
      <defs>
       <path id="DejaVuSans-Bold-52" d="M 2297 2597 
Q 2675 2597 2839 2737 
Q 3003 2878 3003 3200 
Q 3003 3519 2839 3656 
Q 2675 3794 2297 3794 
L 1791 3794 
L 1791 2597 
L 2297 2597 
z
M 1791 1766 
L 1791 0 
L 588 0 
L 588 4666 
L 2425 4666 
Q 3347 4666 3776 4356 
Q 4206 4047 4206 3378 
Q 4206 2916 3982 2619 
Q 3759 2322 3309 2181 
Q 3556 2125 3751 1926 
Q 3947 1728 4147 1325 
L 4800 0 
L 3519 0 
L 2950 1159 
Q 2778 1509 2601 1637 
Q 2425 1766 2131 1766 
L 1791 1766 
z
" transform="scale(0.015625)"/>
       <path id="DejaVuSans-Bold-67" d="M 2919 594 
Q 2688 288 2409 144 
Q 2131 0 1766 0 
Q 1125 0 706 504 
Q 288 1009 288 1791 
Q 288 2575 706 3076 
Q 1125 3578 1766 3578 
Q 2131 3578 2409 3434 
Q 2688 3291 2919 2981 
L 2919 3500 
L 4044 3500 
L 4044 353 
Q 4044 -491 3511 -936 
Q 2978 -1381 1966 -1381 
Q 1638 -1381 1331 -1331 
Q 1025 -1281 716 -1178 
L 716 -306 
Q 1009 -475 1290 -558 
Q 1572 -641 1856 -641 
Q 2406 -641 2662 -400 
Q 2919 -159 2919 353 
L 2919 594 
z
M 2181 2772 
Q 1834 2772 1640 2515 
Q 1447 2259 1447 1791 
Q 1447 1309 1634 1061 
Q 1822 813 2181 813 
Q 2531 813 2725 1069 
Q 2919 1325 2919 1791 
Q 2919 2259 2725 2515 
Q 2531 2772 2181 2772 
z
" transform="scale(0.015625)"/>
       <path id="DejaVuSans-Bold-69" d="M 538 3500 
L 1656 3500 
L 1656 0 
L 538 0 
L 538 3500 
z
M 538 4863 
L 1656 4863 
L 1656 3950 
L 538 3950 
L 538 4863 
z
" transform="scale(0.015625)"/>
       <path id="DejaVuSans-Bold-6e" d="M 4056 2131 
L 4056 0 
L 2931 0 
L 2931 347 
L 2931 1631 
Q 2931 2084 2911 2256 
Q 2891 2428 2841 2509 
Q 2775 2619 2662 2680 
Q 2550 2741 2406 2741 
Q 2056 2741 1856 2470 
Q 1656 2200 1656 1722 
L 1656 0 
L 538 0 
L 538 3500 
L 1656 3500 
L 1656 2988 
Q 1909 3294 2193 3439 
Q 2478 3584 2822 3584 
Q 3428 3584 3742 3212 
Q 4056 2841 4056 2131 
z
" transform="scale(0.015625)"/>
      </defs>
      <use xlink:href="#DejaVuSans-Bold-52"/>
      <use xlink:href="#DejaVuSans-Bold-65" transform="translate(77.001953 0)"/>
      <use xlink:href="#DejaVuSans-Bold-67" transform="translate(144.824219 0)"/>
      <use xlink:href="#DejaVuSans-Bold-69" transform="translate(216.40625 0)"/>
      <use xlink:href="#DejaVuSans-Bold-6f" transform="translate(250.683594 0)"/>
      <use xlink:href="#DejaVuSans-Bold-6e" transform="translate(319.384766 0)"/>
     </g>
    </g>
    <g id="patch_4">
     <path d="M 222.572324 160.247163 
L 342.223615 160.247163 
L 342.223615 136.706903 
L 222.572324 136.706903 
z
" style="fill: #333333; stroke: #000000; stroke-linejoin: miter"/>
    </g>
    <g id="text_3">
     <!-- Industry -->
     <g style="fill: #ffffff" transform="translate(258.749532 151.197346) scale(0.1 -0.1)">
      <defs>
       <path id="DejaVuSans-Bold-49" d="M 588 4666 
L 1791 4666 
L 1791 0 
L 588 0 
L 588 4666 
z
" transform="scale(0.015625)"/>
       <path id="DejaVuSans-Bold-64" d="M 2919 2988 
L 2919 4863 
L 4044 4863 
L 4044 0 
L 2919 0 
L 2919 506 
Q 2688 197 2409 53 
Q 2131 -91 1766 -91 
Q 1119 -91 703 423 
Q 288 938 288 1747 
Q 288 2556 703 3070 
Q 1119 3584 1766 3584 
Q 2128 3584 2408 3439 
Q 2688 3294 2919 2988 
z
M 2181 722 
Q 2541 722 2730 984 
Q 2919 1247 2919 1747 
Q 2919 2247 2730 2509 
Q 2541 2772 2181 2772 
Q 1825 2772 1636 2509 
Q 1447 2247 1447 1747 
Q 1447 1247 1636 984 
Q 1825 722 2181 722 
z
" transform="scale(0.015625)"/>
       <path id="DejaVuSans-Bold-75" d="M 500 1363 
L 500 3500 
L 1625 3500 
L 1625 3150 
Q 1625 2866 1622 2436 
Q 1619 2006 1619 1863 
Q 1619 1441 1641 1255 
Q 1663 1069 1716 984 
Q 1784 875 1895 815 
Q 2006 756 2150 756 
Q 2500 756 2700 1025 
Q 2900 1294 2900 1772 
L 2900 3500 
L 4019 3500 
L 4019 0 
L 2900 0 
L 2900 506 
Q 2647 200 2364 54 
Q 2081 -91 1741 -91 
Q 1134 -91 817 281 
Q 500 653 500 1363 
z
" transform="scale(0.015625)"/>
       <path id="DejaVuSans-Bold-73" d="M 3272 3391 
L 3272 2541 
Q 2913 2691 2578 2766 
Q 2244 2841 1947 2841 
Q 1628 2841 1473 2761 
Q 1319 2681 1319 2516 
Q 1319 2381 1436 2309 
Q 1553 2238 1856 2203 
L 2053 2175 
Q 2913 2066 3209 1816 
Q 3506 1566 3506 1031 
Q 3506 472 3093 190 
Q 2681 -91 1863 -91 
Q 1516 -91 1145 -36 
Q 775 19 384 128 
L 384 978 
Q 719 816 1070 734 
Q 1422 653 1784 653 
Q 2113 653 2278 743 
Q 2444 834 2444 1013 
Q 2444 1163 2330 1236 
Q 2216 1309 1875 1350 
L 1678 1375 
Q 931 1469 631 1722 
Q 331 1975 331 2491 
Q 331 3047 712 3315 
Q 1094 3584 1881 3584 
Q 2191 3584 2531 3537 
Q 2872 3491 3272 3391 
z
" transform="scale(0.015625)"/>
       <path id="DejaVuSans-Bold-74" d="M 1759 4494 
L 1759 3500 
L 2913 3500 
L 2913 2700 
L 1759 2700 
L 1759 1216 
Q 1759 972 1856 886 
Q 1953 800 2241 800 
L 2816 800 
L 2816 0 
L 1856 0 
Q 1194 0 917 276 
Q 641 553 641 1216 
L 641 2700 
L 84 2700 
L 84 3500 
L 641 3500 
L 641 4494 
L 1759 4494 
z
" transform="scale(0.015625)"/>
       <path id="DejaVuSans-Bold-79" d="M 78 3500 
L 1197 3500 
L 2138 1125 
L 2938 3500 
L 4056 3500 
L 2584 -331 
Q 2363 -916 2067 -1148 
Q 1772 -1381 1288 -1381 
L 641 -1381 
L 641 -647 
L 991 -647 
Q 1275 -647 1404 -556 
Q 1534 -466 1606 -231 
L 1638 -134 
L 78 3500 
z
" transform="scale(0.015625)"/>
      </defs>
      <use xlink:href="#DejaVuSans-Bold-49"/>
      <use xlink:href="#DejaVuSans-Bold-6e" transform="translate(37.207031 0)"/>
      <use xlink:href="#DejaVuSans-Bold-64" transform="translate(108.398438 0)"/>
      <use xlink:href="#DejaVuSans-Bold-75" transform="translate(179.980469 0)"/>
      <use xlink:href="#DejaVuSans-Bold-73" transform="translate(251.171875 0)"/>
      <use xlink:href="#DejaVuSans-Bold-74" transform="translate(310.693359 0)"/>
      <use xlink:href="#DejaVuSans-Bold-72" transform="translate(358.496094 0)"/>
      <use xlink:href="#DejaVuSans-Bold-79" transform="translate(407.8125 0)"/>
     </g>
    </g>
    <g id="patch_5">
     <path d="M 342.223615 160.247163 
L 485.805164 160.247163 
L 485.805164 136.706903 
L 342.223615 136.706903 
z
" style="fill: #333333; stroke: #000000; stroke-linejoin: miter"/>
    </g>
    <g id="text_4">
     <!-- Primary Focus -->
     <g style="fill: #ffffff" transform="translate(373.969858 151.197346) scale(0.1 -0.1)">
      <defs>
       <path id="DejaVuSans-Bold-50" d="M 588 4666 
L 2584 4666 
Q 3475 4666 3951 4270 
Q 4428 3875 4428 3144 
Q 4428 2409 3951 2014 
Q 3475 1619 2584 1619 
L 1791 1619 
L 1791 0 
L 588 0 
L 588 4666 
z
M 1791 3794 
L 1791 2491 
L 2456 2491 
Q 2806 2491 2997 2661 
Q 3188 2831 3188 3144 
Q 3188 3456 2997 3625 
Q 2806 3794 2456 3794 
L 1791 3794 
z
" transform="scale(0.015625)"/>
       <path id="DejaVuSans-Bold-20" transform="scale(0.015625)"/>
       <path id="DejaVuSans-Bold-63" d="M 3366 3391 
L 3366 2478 
Q 3138 2634 2908 2709 
Q 2678 2784 2431 2784 
Q 1963 2784 1702 2511 
Q 1441 2238 1441 1747 
Q 1441 1256 1702 982 
Q 1963 709 2431 709 
Q 2694 709 2930 787 
Q 3166 866 3366 1019 
L 3366 103 
Q 3103 6 2833 -42 
Q 2563 -91 2291 -91 
Q 1344 -91 809 395 
Q 275 881 275 1747 
Q 275 2613 809 3098 
Q 1344 3584 2291 3584 
Q 2566 3584 2833 3536 
Q 3100 3488 3366 3391 
z
" transform="scale(0.015625)"/>
      </defs>
      <use xlink:href="#DejaVuSans-Bold-50"/>
      <use xlink:href="#DejaVuSans-Bold-72" transform="translate(73.291016 0)"/>
      <use xlink:href="#DejaVuSans-Bold-69" transform="translate(122.607422 0)"/>
      <use xlink:href="#DejaVuSans-Bold-6d" transform="translate(156.884766 0)"/>
      <use xlink:href="#DejaVuSans-Bold-61" transform="translate(261.083984 0)"/>
      <use xlink:href="#DejaVuSans-Bold-72" transform="translate(328.564453 0)"/>
      <use xlink:href="#DejaVuSans-Bold-79" transform="translate(377.880859 0)"/>
      <use xlink:href="#DejaVuSans-Bold-20" transform="translate(443.066406 0)"/>
      <use xlink:href="#DejaVuSans-Bold-46" transform="translate(477.880859 0)"/>
      <use xlink:href="#DejaVuSans-Bold-6f" transform="translate(542.191406 0)"/>
      <use xlink:href="#DejaVuSans-Bold-63" transform="translate(610.892578 0)"/>
      <use xlink:href="#DejaVuSans-Bold-75" transform="translate(670.169922 0)"/>
      <use xlink:href="#DejaVuSans-Bold-73" transform="translate(741.361328 0)"/>
     </g>
    </g>
    <g id="patch_6">
     <path d="M 7.2 183.787423 
L 126.851291 183.787423 
L 126.851291 160.247163 
L 7.2 160.247163 
z
" style="fill: #0078d4; fill-opacity: 0.25098; stroke: #000000; stroke-linejoin: miter"/>
    </g>
    <g id="text_5">
     <!-- SOC 2 -->
     <g transform="translate(51.65377 174.776668) scale(0.1 -0.1)">
      <defs>
       <path id="DejaVuSans-53" d="M 3425 4513 
L 3425 3897 
Q 3066 4069 2747 4153 
Q 2428 4238 2131 4238 
Q 1616 4238 1336 4038 
Q 1056 3838 1056 3469 
Q 1056 3159 1242 3001 
Q 1428 2844 1947 2747 
L 2328 2669 
Q 3034 2534 3370 2195 
Q 3706 1856 3706 1288 
Q 3706 609 3251 259 
Q 2797 -91 1919 -91 
Q 1588 -91 1214 -16 
Q 841 59 441 206 
L 441 856 
Q 825 641 1194 531 
Q 1563 422 1919 422 
Q 2459 422 2753 634 
Q 3047 847 3047 1241 
Q 3047 1584 2836 1778 
Q 2625 1972 2144 2069 
L 1759 2144 
Q 1053 2284 737 2584 
Q 422 2884 422 3419 
Q 422 4038 858 4394 
Q 1294 4750 2059 4750 
Q 2388 4750 2728 4690 
Q 3069 4631 3425 4513 
z
" transform="scale(0.015625)"/>
       <path id="DejaVuSans-4f" d="M 2522 4238 
Q 1834 4238 1429 3725 
Q 1025 3213 1025 2328 
Q 1025 1447 1429 934 
Q 1834 422 2522 422 
Q 3209 422 3611 934 
Q 4013 1447 4013 2328 
Q 4013 3213 3611 3725 
Q 3209 4238 2522 4238 
z
M 2522 4750 
Q 3503 4750 4090 4092 
Q 4678 3434 4678 2328 
Q 4678 1225 4090 567 
Q 3503 -91 2522 -91 
Q 1538 -91 948 565 
Q 359 1222 359 2328 
Q 359 3434 948 4092 
Q 1538 4750 2522 4750 
z
" transform="scale(0.015625)"/>
       <path id="DejaVuSans-43" d="M 4122 4306 
L 4122 3641 
Q 3803 3938 3442 4084 
Q 3081 4231 2675 4231 
Q 1875 4231 1450 3742 
Q 1025 3253 1025 2328 
Q 1025 1406 1450 917 
Q 1875 428 2675 428 
Q 3081 428 3442 575 
Q 3803 722 4122 1019 
L 4122 359 
Q 3791 134 3420 21 
Q 3050 -91 2638 -91 
Q 1578 -91 968 557 
Q 359 1206 359 2328 
Q 359 3453 968 4101 
Q 1578 4750 2638 4750 
Q 3056 4750 3426 4639 
Q 3797 4528 4122 4306 
z
" transform="scale(0.015625)"/>
       <path id="DejaVuSans-20" transform="scale(0.015625)"/>
       <path id="DejaVuSans-32" d="M 1228 531 
L 3431 531 
L 3431 0 
L 469 0 
L 469 531 
Q 828 903 1448 1529 
Q 2069 2156 2228 2338 
Q 2531 2678 2651 2914 
Q 2772 3150 2772 3378 
Q 2772 3750 2511 3984 
Q 2250 4219 1831 4219 
Q 1534 4219 1204 4116 
Q 875 4013 500 3803 
L 500 4441 
Q 881 4594 1212 4672 
Q 1544 4750 1819 4750 
Q 2544 4750 2975 4387 
Q 3406 4025 3406 3419 
Q 3406 3131 3298 2873 
Q 3191 2616 2906 2266 
Q 2828 2175 2409 1742 
Q 1991 1309 1228 531 
z
" transform="scale(0.015625)"/>
      </defs>
      <use xlink:href="#DejaVuSans-53"/>
      <use xlink:href="#DejaVuSans-4f" transform="translate(63.476562 0)"/>
      <use xlink:href="#DejaVuSans-43" transform="translate(142.1875 0)"/>
      <use xlink:href="#DejaVuSans-20" transform="translate(212.011719 0)"/>
      <use xlink:href="#DejaVuSans-32" transform="translate(243.798828 0)"/>
     </g>
    </g>
    <g id="patch_7">
     <path d="M 126.851291 183.787423 
L 222.572324 183.787423 
L 222.572324 160.247163 
L 126.851291 160.247163 
z
" style="fill: #ffffff; stroke: #000000; stroke-linejoin: miter"/>
    </g>
    <g id="text_6">
     <!-- Global -->
     <g transform="translate(158.761807 174.776668) scale(0.1 -0.1)">
      <defs>
       <path id="DejaVuSans-47" d="M 3809 666 
L 3809 1919 
L 2778 1919 
L 2778 2438 
L 4434 2438 
L 4434 434 
Q 4069 175 3628 42 
Q 3188 -91 2688 -91 
Q 1594 -91 976 548 
Q 359 1188 359 2328 
Q 359 3472 976 4111 
Q 1594 4750 2688 4750 
Q 3144 4750 3555 4637 
Q 3966 4525 4313 4306 
L 4313 3634 
Q 3963 3931 3569 4081 
Q 3175 4231 2741 4231 
Q 1884 4231 1454 3753 
Q 1025 3275 1025 2328 
Q 1025 1384 1454 906 
Q 1884 428 2741 428 
Q 3075 428 3337 486 
Q 3600 544 3809 666 
z
" transform="scale(0.015625)"/>
       <path id="DejaVuSans-6c" d="M 603 4863 
L 1178 4863 
L 1178 0 
L 603 0 
L 603 4863 
z
" transform="scale(0.015625)"/>
       <path id="DejaVuSans-6f" d="M 1959 3097 
Q 1497 3097 1228 2736 
Q 959 2375 959 1747 
Q 959 1119 1226 758 
Q 1494 397 1959 397 
Q 2419 397 2687 759 
Q 2956 1122 2956 1747 
Q 2956 2369 2687 2733 
Q 2419 3097 1959 3097 
z
M 1959 3584 
Q 2709 3584 3137 3096 
Q 3566 2609 3566 1747 
Q 3566 888 3137 398 
Q 2709 -91 1959 -91 
Q 1206 -91 779 398 
Q 353 888 353 1747 
Q 353 2609 779 3096 
Q 1206 3584 1959 3584 
z
" transform="scale(0.015625)"/>
       <path id="DejaVuSans-62" d="M 3116 1747 
Q 3116 2381 2855 2742 
Q 2594 3103 2138 3103 
Q 1681 3103 1420 2742 
Q 1159 2381 1159 1747 
Q 1159 1113 1420 752 
Q 1681 391 2138 391 
Q 2594 391 2855 752 
Q 3116 1113 3116 1747 
z
M 1159 2969 
Q 1341 3281 1617 3432 
Q 1894 3584 2278 3584 
Q 2916 3584 3314 3078 
Q 3713 2572 3713 1747 
Q 3713 922 3314 415 
Q 2916 -91 2278 -91 
Q 1894 -91 1617 61 
Q 1341 213 1159 525 
L 1159 0 
L 581 0 
L 581 4863 
L 1159 4863 
L 1159 2969 
z
" transform="scale(0.015625)"/>
       <path id="DejaVuSans-61" d="M 2194 1759 
Q 1497 1759 1228 1600 
Q 959 1441 959 1056 
Q 959 750 1161 570 
Q 1363 391 1709 391 
Q 2188 391 2477 730 
Q 2766 1069 2766 1631 
L 2766 1759 
L 2194 1759 
z
M 3341 1997 
L 3341 0 
L 2766 0 
L 2766 531 
Q 2569 213 2275 61 
Q 1981 -91 1556 -91 
Q 1019 -91 701 211 
Q 384 513 384 1019 
Q 384 1609 779 1909 
Q 1175 2209 1959 2209 
L 2766 2209 
L 2766 2266 
Q 2766 2663 2505 2880 
Q 2244 3097 1772 3097 
Q 1472 3097 1187 3025 
Q 903 2953 641 2809 
L 641 3341 
Q 956 3463 1253 3523 
Q 1550 3584 1831 3584 
Q 2591 3584 2966 3190 
Q 3341 2797 3341 1997 
z
" transform="scale(0.015625)"/>
      </defs>
      <use xlink:href="#DejaVuSans-47"/>
      <use xlink:href="#DejaVuSans-6c" transform="translate(77.490234 0)"/>
      <use xlink:href="#DejaVuSans-6f" transform="translate(105.273438 0)"/>
      <use xlink:href="#DejaVuSans-62" transform="translate(166.455078 0)"/>
      <use xlink:href="#DejaVuSans-61" transform="translate(229.931641 0)"/>
      <use xlink:href="#DejaVuSans-6c" transform="translate(291.210938 0)"/>
     </g>
    </g>
    <g id="patch_8">
     <path d="M 222.572324 183.787423 
L 342.223615 183.787423 
L 342.223615 160.247163 
L 222.572324 160.247163 
z
" style="fill: #ffffff; stroke: #000000; stroke-linejoin: miter"/>
    </g>
    <g id="text_7">
     <!-- All -->
     <g transform="translate(276.199532 174.776668) scale(0.1 -0.1)">
      <defs>
       <path id="DejaVuSans-41" d="M 2188 4044 
L 1331 1722 
L 3047 1722 
L 2188 4044 
z
M 1831 4666 
L 2547 4666 
L 4325 0 
L 3669 0 
L 3244 1197 
L 1141 1197 
L 716 0 
L 50 0 
L 1831 4666 
z
" transform="scale(0.015625)"/>
      </defs>
      <use xlink:href="#DejaVuSans-41"/>
      <use xlink:href="#DejaVuSans-6c" transform="translate(68.408203 0)"/>
      <use xlink:href="#DejaVuSans-6c" transform="translate(96.191406 0)"/>
     </g>
    </g>
    <g id="patch_9">
     <path d="M 342.223615 183.787423 
L 485.805164 183.787423 
L 485.805164 160.247163 
L 342.223615 160.247163 
z
" style="fill: #ffffff; stroke: #000000; stroke-linejoin: miter"/>
    </g>
    <g id="text_8">
     <!-- Security Controls -->
     <g transform="translate(371.216733 174.776668) scale(0.1 -0.1)">
      <defs>
       <path id="DejaVuSans-65" d="M 3597 1894 
L 3597 1613 
L 953 1613 
Q 991 1019 1311 708 
Q 1631 397 2203 397 
Q 2534 397 2845 478 
Q 3156 559 3463 722 
L 3463 178 
Q 3153 47 2828 -22 
Q 2503 -91 2169 -91 
Q 1331 -91 842 396 
Q 353 884 353 1716 
Q 353 2575 817 3079 
Q 1281 3584 2069 3584 
Q 2775 3584 3186 3129 
Q 3597 2675 3597 1894 
z
M 3022 2063 
Q 3016 2534 2758 2815 
Q 2500 3097 2075 3097 
Q 1594 3097 1305 2825 
Q 1016 2553 972 2059 
L 3022 2063 
z
" transform="scale(0.015625)"/>
       <path id="DejaVuSans-63" d="M 3122 3366 
L 3122 2828 
Q 2878 2963 2633 3030 
Q 2388 3097 2138 3097 
Q 1578 3097 1268 2742 
Q 959 2388 959 1747 
Q 959 1106 1268 751 
Q 1578 397 2138 397 
Q 2388 397 2633 464 
Q 2878 531 3122 666 
L 3122 134 
Q 2881 22 2623 -34 
Q 2366 -91 2075 -91 
Q 1284 -91 818 406 
Q 353 903 353 1747 
Q 353 2603 823 3093 
Q 1294 3584 2113 3584 
Q 2378 3584 2631 3529 
Q 2884 3475 3122 3366 
z
" transform="scale(0.015625)"/>
       <path id="DejaVuSans-75" d="M 544 1381 
L 544 3500 
L 1119 3500 
L 1119 1403 
Q 1119 906 1312 657 
Q 1506 409 1894 409 
Q 2359 409 2629 706 
Q 2900 1003 2900 1516 
L 2900 3500 
L 3475 3500 
L 3475 0 
L 2900 0 
L 2900 538 
Q 2691 219 2414 64 
Q 2138 -91 1772 -91 
Q 1169 -91 856 284 
Q 544 659 544 1381 
z
M 1991 3584 
L 1991 3584 
z
" transform="scale(0.015625)"/>
       <path id="DejaVuSans-72" d="M 2631 2963 
Q 2534 3019 2420 3045 
Q 2306 3072 2169 3072 
Q 1681 3072 1420 2755 
Q 1159 2438 1159 1844 
L 1159 0 
L 581 0 
L 581 3500 
L 1159 3500 
L 1159 2956 
Q 1341 3275 1631 3429 
Q 1922 3584 2338 3584 
Q 2397 3584 2469 3576 
Q 2541 3569 2628 3553 
L 2631 2963 
z
" transform="scale(0.015625)"/>
       <path id="DejaVuSans-69" d="M 603 3500 
L 1178 3500 
L 1178 0 
L 603 0 
L 603 3500 
z
M 603 4863 
L 1178 4863 
L 1178 4134 
L 603 4134 
L 603 4863 
z
" transform="scale(0.015625)"/>
       <path id="DejaVuSans-74" d="M 1172 4494 
L 1172 3500 
L 2356 3500 
L 2356 3053 
L 1172 3053 
L 1172 1153 
Q 1172 725 1289 603 
Q 1406 481 1766 481 
L 2356 481 
L 2356 0 
L 1766 0 
Q 1100 0 847 248 
Q 594 497 594 1153 
L 594 3053 
L 172 3053 
L 172 3500 
L 594 3500 
L 594 4494 
L 1172 4494 
z
" transform="scale(0.015625)"/>
       <path id="DejaVuSans-79" d="M 2059 -325 
Q 1816 -950 1584 -1140 
Q 1353 -1331 966 -1331 
L 506 -1331 
L 506 -850 
L 844 -850 
Q 1081 -850 1212 -737 
Q 1344 -625 1503 -206 
L 1606 56 
L 191 3500 
L 800 3500 
L 1894 763 
L 2988 3500 
L 3597 3500 
L 2059 -325 
z
" transform="scale(0.015625)"/>
       <path id="DejaVuSans-6e" d="M 3513 2113 
L 3513 0 
L 2938 0 
L 2938 2094 
Q 2938 2591 2744 2837 
Q 2550 3084 2163 3084 
Q 1697 3084 1428 2787 
Q 1159 2491 1159 1978 
L 1159 0 
L 581 0 
L 581 3500 
L 1159 3500 
L 1159 2956 
Q 1366 3272 1645 3428 
Q 1925 3584 2291 3584 
Q 2894 3584 3203 3211 
Q 3513 2838 3513 2113 
z
" transform="scale(0.015625)"/>
       <path id="DejaVuSans-73" d="M 2834 3397 
L 2834 2853 
Q 2591 2978 2328 3040 
Q 2066 3103 1784 3103 
Q 1356 3103 1142 2972 
Q 928 2841 928 2578 
Q 928 2378 1081 2264 
Q 1234 2150 1697 2047 
L 1894 2003 
Q 2506 1872 2764 1633 
Q 3022 1394 3022 966 
Q 3022 478 2636 193 
Q 2250 -91 1575 -91 
Q 1294 -91 989 -36 
Q 684 19 347 128 
L 347 722 
Q 666 556 975 473 
Q 1284 391 1588 391 
Q 1994 391 2212 530 
Q 2431 669 2431 922 
Q 2431 1156 2273 1281 
Q 2116 1406 1581 1522 
L 1381 1569 
Q 847 1681 609 1914 
Q 372 2147 372 2553 
Q 372 3047 722 3315 
Q 1072 3584 1716 3584 
Q 2034 3584 2315 3537 
Q 2597 3491 2834 3397 
z
" transform="scale(0.015625)"/>
      </defs>
      <use xlink:href="#DejaVuSans-53"/>
      <use xlink:href="#DejaVuSans-65" transform="translate(63.476562 0)"/>
      <use xlink:href="#DejaVuSans-63" transform="translate(125 0)"/>
      <use xlink:href="#DejaVuSans-75" transform="translate(179.980469 0)"/>
      <use xlink:href="#DejaVuSans-72" transform="translate(243.359375 0)"/>
      <use xlink:href="#DejaVuSans-69" transform="translate(284.472656 0)"/>
      <use xlink:href="#DejaVuSans-74" transform="translate(312.255859 0)"/>
      <use xlink:href="#DejaVuSans-79" transform="translate(351.464844 0)"/>
      <use xlink:href="#DejaVuSans-20" transform="translate(410.644531 0)"/>
      <use xlink:href="#DejaVuSans-43" transform="translate(442.431641 0)"/>
      <use xlink:href="#DejaVuSans-6f" transform="translate(512.255859 0)"/>
      <use xlink:href="#DejaVuSans-6e" transform="translate(573.4375 0)"/>
      <use xlink:href="#DejaVuSans-74" transform="translate(636.816406 0)"/>
      <use xlink:href="#DejaVuSans-72" transform="translate(676.025391 0)"/>
      <use xlink:href="#DejaVuSans-6f" transform="translate(714.888672 0)"/>
      <use xlink:href="#DejaVuSans-6c" transform="translate(776.070312 0)"/>
      <use xlink:href="#DejaVuSans-73" transform="translate(803.853516 0)"/>
     </g>
    </g>
    <g id="patch_10">
     <path d="M 7.2 207.327683 
L 126.851291 207.327683 
L 126.851291 183.787423 
L 7.2 183.787423 
z
" style="fill: #00bcf2; fill-opacity: 0.25098; stroke: #000000; stroke-linejoin: miter"/>
    </g>
    <g id="text_9">
     <!-- ISO 27001 -->
     <g transform="translate(40.945177 198.316928) scale(0.1 -0.1)">
      <defs>
       <path id="DejaVuSans-49" d="M 628 4666 
L 1259 4666 
L 1259 0 
L 628 0 
L 628 4666 
z
" transform="scale(0.015625)"/>
       <path id="DejaVuSans-37" d="M 525 4666 
L 3525 4666 
L 3525 4397 
L 1831 0 
L 1172 0 
L 2766 4134 
L 525 4134 
L 525 4666 
z
" transform="scale(0.015625)"/>
       <path id="DejaVuSans-30" d="M 2034 4250 
Q 1547 4250 1301 3770 
Q 1056 3291 1056 2328 
Q 1056 1369 1301 889 
Q 1547 409 2034 409 
Q 2525 409 2770 889 
Q 3016 1369 3016 2328 
Q 3016 3291 2770 3770 
Q 2525 4250 2034 4250 
z
M 2034 4750 
Q 2819 4750 3233 4129 
Q 3647 3509 3647 2328 
Q 3647 1150 3233 529 
Q 2819 -91 2034 -91 
Q 1250 -91 836 529 
Q 422 1150 422 2328 
Q 422 3509 836 4129 
Q 1250 4750 2034 4750 
z
" transform="scale(0.015625)"/>
       <path id="DejaVuSans-31" d="M 794 531 
L 1825 531 
L 1825 4091 
L 703 3866 
L 703 4441 
L 1819 4666 
L 2450 4666 
L 2450 531 
L 3481 531 
L 3481 0 
L 794 0 
L 794 531 
z
" transform="scale(0.015625)"/>
      </defs>
      <use xlink:href="#DejaVuSans-49"/>
      <use xlink:href="#DejaVuSans-53" transform="translate(29.492188 0)"/>
      <use xlink:href="#DejaVuSans-4f" transform="translate(92.96875 0)"/>
      <use xlink:href="#DejaVuSans-20" transform="translate(171.679688 0)"/>
      <use xlink:href="#DejaVuSans-32" transform="translate(203.466797 0)"/>
      <use xlink:href="#DejaVuSans-37" transform="translate(267.089844 0)"/>
      <use xlink:href="#DejaVuSans-30" transform="translate(330.712891 0)"/>
      <use xlink:href="#DejaVuSans-30" transform="translate(394.335938 0)"/>
      <use xlink:href="#DejaVuSans-31" transform="translate(457.958984 0)"/>
     </g>
    </g>
    <g id="patch_11">
     <path d="M 126.851291 207.327683 
L 222.572324 207.327683 
L 222.572324 183.787423 
L 126.851291 183.787423 
z
" style="fill: #ffffff; stroke: #000000; stroke-linejoin: miter"/>
    </g>
    <g id="text_10">
     <!-- Global -->
     <g transform="translate(158.761807 198.316928) scale(0.1 -0.1)">
      <use xlink:href="#DejaVuSans-47"/>
      <use xlink:href="#DejaVuSans-6c" transform="translate(77.490234 0)"/>
      <use xlink:href="#DejaVuSans-6f" transform="translate(105.273438 0)"/>
      <use xlink:href="#DejaVuSans-62" transform="translate(166.455078 0)"/>
      <use xlink:href="#DejaVuSans-61" transform="translate(229.931641 0)"/>
      <use xlink:href="#DejaVuSans-6c" transform="translate(291.210938 0)"/>
     </g>
    </g>
    <g id="patch_12">
     <path d="M 222.572324 207.327683 
L 342.223615 207.327683 
L 342.223615 183.787423 
L 222.572324 183.787423 
z
" style="fill: #ffffff; stroke: #000000; stroke-linejoin: miter"/>
    </g>
    <g id="text_11">
     <!-- All -->
     <g transform="translate(276.199532 198.316928) scale(0.1 -0.1)">
      <use xlink:href="#DejaVuSans-41"/>
      <use xlink:href="#DejaVuSans-6c" transform="translate(68.408203 0)"/>
      <use xlink:href="#DejaVuSans-6c" transform="translate(96.191406 0)"/>
     </g>
    </g>
    <g id="patch_13">
     <path d="M 342.223615 207.327683 
L 485.805164 207.327683 
L 485.805164 183.787423 
L 342.223615 183.787423 
z
" style="fill: #ffffff; stroke: #000000; stroke-linejoin: miter"/>
    </g>
    <g id="text_12">
     <!-- ISMS -->
     <g transform="translate(401.876889 198.316928) scale(0.1 -0.1)">
      <defs>
       <path id="DejaVuSans-4d" d="M 628 4666 
L 1569 4666 
L 2759 1491 
L 3956 4666 
L 4897 4666 
L 4897 0 
L 4281 0 
L 4281 4097 
L 3078 897 
L 2444 897 
L 1241 4097 
L 1241 0 
L 628 0 
L 628 4666 
z
" transform="scale(0.015625)"/>
      </defs>
      <use xlink:href="#DejaVuSans-49"/>
      <use xlink:href="#DejaVuSans-53" transform="translate(29.492188 0)"/>
      <use xlink:href="#DejaVuSans-4d" transform="translate(92.96875 0)"/>
      <use xlink:href="#DejaVuSans-53" transform="translate(179.248047 0)"/>
     </g>
    </g>
    <g id="patch_14">
     <path d="M 7.2 230.867942 
L 126.851291 230.867942 
L 126.851291 207.327683 
L 7.2 207.327683 
z
" style="fill: #773adc; fill-opacity: 0.25098; stroke: #000000; stroke-linejoin: miter"/>
    </g>
    <g id="text_13">
     <!-- GDPR -->
     <g transform="translate(52.812364 221.857187) scale(0.1 -0.1)">
      <defs>
       <path id="DejaVuSans-44" d="M 1259 4147 
L 1259 519 
L 2022 519 
Q 2988 519 3436 956 
Q 3884 1394 3884 2338 
Q 3884 3275 3436 3711 
Q 2988 4147 2022 4147 
L 1259 4147 
z
M 628 4666 
L 1925 4666 
Q 3281 4666 3915 4102 
Q 4550 3538 4550 2338 
Q 4550 1131 3912 565 
Q 3275 0 1925 0 
L 628 0 
L 628 4666 
z
" transform="scale(0.015625)"/>
       <path id="DejaVuSans-50" d="M 1259 4147 
L 1259 2394 
L 2053 2394 
Q 2494 2394 2734 2622 
Q 2975 2850 2975 3272 
Q 2975 3691 2734 3919 
Q 2494 4147 2053 4147 
L 1259 4147 
z
M 628 4666 
L 2053 4666 
Q 2838 4666 3239 4311 
Q 3641 3956 3641 3272 
Q 3641 2581 3239 2228 
Q 2838 1875 2053 1875 
L 1259 1875 
L 1259 0 
L 628 0 
L 628 4666 
z
" transform="scale(0.015625)"/>
       <path id="DejaVuSans-52" d="M 2841 2188 
Q 3044 2119 3236 1894 
Q 3428 1669 3622 1275 
L 4263 0 
L 3584 0 
L 2988 1197 
Q 2756 1666 2539 1819 
Q 2322 1972 1947 1972 
L 1259 1972 
L 1259 0 
L 628 0 
L 628 4666 
L 2053 4666 
Q 2853 4666 3247 4331 
Q 3641 3997 3641 3322 
Q 3641 2881 3436 2590 
Q 3231 2300 2841 2188 
z
M 1259 4147 
L 1259 2491 
L 2053 2491 
Q 2509 2491 2742 2702 
Q 2975 2913 2975 3322 
Q 2975 3731 2742 3939 
Q 2509 4147 2053 4147 
L 1259 4147 
z
" transform="scale(0.015625)"/>
      </defs>
      <use xlink:href="#DejaVuSans-47"/>
      <use xlink:href="#DejaVuSans-44" transform="translate(77.490234 0)"/>
      <use xlink:href="#DejaVuSans-50" transform="translate(154.492188 0)"/>
      <use xlink:href="#DejaVuSans-52" transform="translate(214.794922 0)"/>
     </g>
    </g>
    <g id="patch_15">
     <path d="M 126.851291 230.867942 
L 222.572324 230.867942 
L 222.572324 207.327683 
L 126.851291 207.327683 
z
" style="fill: #ffffff; stroke: #000000; stroke-linejoin: miter"/>
    </g>
    <g id="text_14">
     <!-- EU -->
     <g transform="translate(167.893057 221.857187) scale(0.1 -0.1)">
      <defs>
       <path id="DejaVuSans-45" d="M 628 4666 
L 3578 4666 
L 3578 4134 
L 1259 4134 
L 1259 2753 
L 3481 2753 
L 3481 2222 
L 1259 2222 
L 1259 531 
L 3634 531 
L 3634 0 
L 628 0 
L 628 4666 
z
" transform="scale(0.015625)"/>
       <path id="DejaVuSans-55" d="M 556 4666 
L 1191 4666 
L 1191 1831 
Q 1191 1081 1462 751 
Q 1734 422 2344 422 
Q 2950 422 3222 751 
Q 3494 1081 3494 1831 
L 3494 4666 
L 4128 4666 
L 4128 1753 
Q 4128 841 3676 375 
Q 3225 -91 2344 -91 
Q 1459 -91 1007 375 
Q 556 841 556 1753 
L 556 4666 
z
" transform="scale(0.015625)"/>
      </defs>
      <use xlink:href="#DejaVuSans-45"/>
      <use xlink:href="#DejaVuSans-55" transform="translate(63.183594 0)"/>
     </g>
    </g>
    <g id="patch_16">
     <path d="M 222.572324 230.867942 
L 342.223615 230.867942 
L 342.223615 207.327683 
L 222.572324 207.327683 
z
" style="fill: #ffffff; stroke: #000000; stroke-linejoin: miter"/>
    </g>
    <g id="text_15">
     <!-- All -->
     <g transform="translate(276.199532 221.857187) scale(0.1 -0.1)">
      <use xlink:href="#DejaVuSans-41"/>
      <use xlink:href="#DejaVuSans-6c" transform="translate(68.408203 0)"/>
      <use xlink:href="#DejaVuSans-6c" transform="translate(96.191406 0)"/>
     </g>
    </g>
    <g id="patch_17">
     <path d="M 342.223615 230.867942 
L 485.805164 230.867942 
L 485.805164 207.327683 
L 342.223615 207.327683 
z
" style="fill: #ffffff; stroke: #000000; stroke-linejoin: miter"/>
    </g>
    <g id="text_16">
     <!-- Data Privacy -->
     <g transform="translate(382.383139 221.857187) scale(0.1 -0.1)">
      <defs>
       <path id="DejaVuSans-76" d="M 191 3500 
L 800 3500 
L 1894 563 
L 2988 3500 
L 3597 3500 
L 2284 0 
L 1503 0 
L 191 3500 
z
" transform="scale(0.015625)"/>
      </defs>
      <use xlink:href="#DejaVuSans-44"/>
      <use xlink:href="#DejaVuSans-61" transform="translate(77.001953 0)"/>
      <use xlink:href="#DejaVuSans-74" transform="translate(138.28125 0)"/>
      <use xlink:href="#DejaVuSans-61" transform="translate(177.490234 0)"/>
      <use xlink:href="#DejaVuSans-20" transform="translate(238.769531 0)"/>
      <use xlink:href="#DejaVuSans-50" transform="translate(270.556641 0)"/>
      <use xlink:href="#DejaVuSans-72" transform="translate(329.109375 0)"/>
      <use xlink:href="#DejaVuSans-69" transform="translate(370.222656 0)"/>
      <use xlink:href="#DejaVuSans-76" transform="translate(398.005859 0)"/>
      <use xlink:href="#DejaVuSans-61" transform="translate(457.185547 0)"/>
      <use xlink:href="#DejaVuSans-63" transform="translate(518.464844 0)"/>
      <use xlink:href="#DejaVuSans-79" transform="translate(573.445312 0)"/>
     </g>
    </g>
    <g id="patch_18">
     <path d="M 7.2 254.408202 
L 126.851291 254.408202 
L 126.851291 230.867942 
L 7.2 230.867942 
z
" style="fill: #107c10; fill-opacity: 0.25098; stroke: #000000; stroke-linejoin: miter"/>
    </g>
    <g id="text_17">
     <!-- HIPAA -->
     <g transform="translate(52.11627 245.397447) scale(0.1 -0.1)">
      <defs>
       <path id="DejaVuSans-48" d="M 628 4666 
L 1259 4666 
L 1259 2753 
L 3553 2753 
L 3553 4666 
L 4184 4666 
L 4184 0 
L 3553 0 
L 3553 2222 
L 1259 2222 
L 1259 0 
L 628 0 
L 628 4666 
z
" transform="scale(0.015625)"/>
      </defs>
      <use xlink:href="#DejaVuSans-48"/>
      <use xlink:href="#DejaVuSans-49" transform="translate(75.195312 0)"/>
      <use xlink:href="#DejaVuSans-50" transform="translate(104.6875 0)"/>
      <use xlink:href="#DejaVuSans-41" transform="translate(158.615234 0)"/>
      <use xlink:href="#DejaVuSans-41" transform="translate(229.773438 0)"/>
     </g>
    </g>
    <g id="patch_19">
     <path d="M 126.851291 254.408202 
L 222.572324 254.408202 
L 222.572324 230.867942 
L 126.851291 230.867942 
z
" style="fill: #ffffff; stroke: #000000; stroke-linejoin: miter"/>
    </g>
    <g id="text_18">
     <!-- US -->
     <g transform="translate(167.878214 245.397447) scale(0.1 -0.1)">
      <use xlink:href="#DejaVuSans-55"/>
      <use xlink:href="#DejaVuSans-53" transform="translate(73.193359 0)"/>
     </g>
    </g>
    <g id="patch_20">
     <path d="M 222.572324 254.408202 
L 342.223615 254.408202 
L 342.223615 230.867942 
L 222.572324 230.867942 
z
" style="fill: #ffffff; stroke: #000000; stroke-linejoin: miter"/>
    </g>
    <g id="text_19">
     <!-- Healthcare -->
     <g transform="translate(255.146407 245.397447) scale(0.1 -0.1)">
      <defs>
       <path id="DejaVuSans-68" d="M 3513 2113 
L 3513 0 
L 2938 0 
L 2938 2094 
Q 2938 2591 2744 2837 
Q 2550 3084 2163 3084 
Q 1697 3084 1428 2787 
Q 1159 2491 1159 1978 
L 1159 0 
L 581 0 
L 581 4863 
L 1159 4863 
L 1159 2956 
Q 1366 3272 1645 3428 
Q 1925 3584 2291 3584 
Q 2894 3584 3203 3211 
Q 3513 2838 3513 2113 
z
" transform="scale(0.015625)"/>
      </defs>
      <use xlink:href="#DejaVuSans-48"/>
      <use xlink:href="#DejaVuSans-65" transform="translate(75.195312 0)"/>
      <use xlink:href="#DejaVuSans-61" transform="translate(136.71875 0)"/>
      <use xlink:href="#DejaVuSans-6c" transform="translate(197.998047 0)"/>
      <use xlink:href="#DejaVuSans-74" transform="translate(225.78125 0)"/>
      <use xlink:href="#DejaVuSans-68" transform="translate(264.990234 0)"/>
      <use xlink:href="#DejaVuSans-63" transform="translate(328.369141 0)"/>
      <use xlink:href="#DejaVuSans-61" transform="translate(383.349609 0)"/>
      <use xlink:href="#DejaVuSans-72" transform="translate(444.628906 0)"/>
      <use xlink:href="#DejaVuSans-65" transform="translate(483.492188 0)"/>
     </g>
    </g>
    <g id="patch_21">
     <path d="M 342.223615 254.408202 
L 485.805164 254.408202 
L 485.805164 230.867942 
L 342.223615 230.867942 
z
" style="fill: #ffffff; stroke: #000000; stroke-linejoin: miter"/>
    </g>
    <g id="text_20">
     <!-- PHI Protection -->
     <g transform="translate(378.882358 245.397447) scale(0.1 -0.1)">
      <use xlink:href="#DejaVuSans-50"/>
      <use xlink:href="#DejaVuSans-48" transform="translate(60.302734 0)"/>
      <use xlink:href="#DejaVuSans-49" transform="translate(135.498047 0)"/>
      <use xlink:href="#DejaVuSans-20" transform="translate(164.990234 0)"/>
      <use xlink:href="#DejaVuSans-50" transform="translate(196.777344 0)"/>
      <use xlink:href="#DejaVuSans-72" transform="translate(255.330078 0)"/>
      <use xlink:href="#DejaVuSans-6f" transform="translate(294.193359 0)"/>
      <use xlink:href="#DejaVuSans-74" transform="translate(355.375 0)"/>
      <use xlink:href="#DejaVuSans-65" transform="translate(394.583984 0)"/>
      <use xlink:href="#DejaVuSans-63" transform="translate(456.107422 0)"/>
      <use xlink:href="#DejaVuSans-74" transform="translate(511.087891 0)"/>
      <use xlink:href="#DejaVuSans-69" transform="translate(550.296875 0)"/>
      <use xlink:href="#DejaVuSans-6f" transform="translate(578.080078 0)"/>
      <use xlink:href="#DejaVuSans-6e" transform="translate(639.261719 0)"/>
     </g>
    </g>
    <g id="patch_22">
     <path d="M 7.2 277.948462 
L 126.851291 277.948462 
L 126.851291 254.408202 
L 7.2 254.408202 
z
" style="fill: #e3008c; fill-opacity: 0.25098; stroke: #000000; stroke-linejoin: miter"/>
    </g>
    <g id="text_21">
     <!-- PCI DSS -->
     <g transform="translate(47.256895 268.937707) scale(0.1 -0.1)">
      <use xlink:href="#DejaVuSans-50"/>
      <use xlink:href="#DejaVuSans-43" transform="translate(60.302734 0)"/>
      <use xlink:href="#DejaVuSans-49" transform="translate(130.126953 0)"/>
      <use xlink:href="#DejaVuSans-20" transform="translate(159.619141 0)"/>
      <use xlink:href="#DejaVuSans-44" transform="translate(191.40625 0)"/>
      <use xlink:href="#DejaVuSans-53" transform="translate(268.408203 0)"/>
      <use xlink:href="#DejaVuSans-53" transform="translate(331.884766 0)"/>
     </g>
    </g>
    <g id="patch_23">
     <path d="M 126.851291 277.948462 
L 222.572324 277.948462 
L 222.572324 254.408202 
L 126.851291 254.408202 
z
" style="fill: #ffffff; stroke: #000000; stroke-linejoin: miter"/>
    </g>
    <g id="text_22">
     <!-- Global -->
     <g transform="translate(158.761807 268.937707) scale(0.1 -0.1)">
      <use xlink:href="#DejaVuSans-47"/>
      <use xlink:href="#DejaVuSans-6c" transform="translate(77.490234 0)"/>
      <use xlink:href="#DejaVuSans-6f" transform="translate(105.273438 0)"/>
      <use xlink:href="#DejaVuSans-62" transform="translate(166.455078 0)"/>
      <use xlink:href="#DejaVuSans-61" transform="translate(229.931641 0)"/>
      <use xlink:href="#DejaVuSans-6c" transform="translate(291.210938 0)"/>
     </g>
    </g>
    <g id="patch_24">
     <path d="M 222.572324 277.948462 
L 342.223615 277.948462 
L 342.223615 254.408202 
L 222.572324 254.408202 
z
" style="fill: #ffffff; stroke: #000000; stroke-linejoin: miter"/>
    </g>
    <g id="text_23">
     <!-- Payment -->
     <g transform="translate(260.508907 268.937707) scale(0.1 -0.1)">
      <defs>
       <path id="DejaVuSans-6d" d="M 3328 2828 
Q 3544 3216 3844 3400 
Q 4144 3584 4550 3584 
Q 5097 3584 5394 3201 
Q 5691 2819 5691 2113 
L 5691 0 
L 5113 0 
L 5113 2094 
Q 5113 2597 4934 2840 
Q 4756 3084 4391 3084 
Q 3944 3084 3684 2787 
Q 3425 2491 3425 1978 
L 3425 0 
L 2847 0 
L 2847 2094 
Q 2847 2600 2669 2842 
Q 2491 3084 2119 3084 
Q 1678 3084 1418 2786 
Q 1159 2488 1159 1978 
L 1159 0 
L 581 0 
L 581 3500 
L 1159 3500 
L 1159 2956 
Q 1356 3278 1631 3431 
Q 1906 3584 2284 3584 
Q 2666 3584 2933 3390 
Q 3200 3197 3328 2828 
z
" transform="scale(0.015625)"/>
      </defs>
      <use xlink:href="#DejaVuSans-50"/>
      <use xlink:href="#DejaVuSans-61" transform="translate(55.802734 0)"/>
      <use xlink:href="#DejaVuSans-79" transform="translate(117.082031 0)"/>
      <use xlink:href="#DejaVuSans-6d" transform="translate(176.261719 0)"/>
      <use xlink:href="#DejaVuSans-65" transform="translate(273.673828 0)"/>
      <use xlink:href="#DejaVuSans-6e" transform="translate(335.197266 0)"/>
      <use xlink:href="#DejaVuSans-74" transform="translate(398.576172 0)"/>
     </g>
    </g>
    <g id="patch_25">
     <path d="M 342.223615 277.948462 
L 485.805164 277.948462 
L 485.805164 254.408202 
L 342.223615 254.408202 
z
" style="fill: #ffffff; stroke: #000000; stroke-linejoin: miter"/>
    </g>
    <g id="text_24">
     <!-- Card Data -->
     <g transform="translate(388.789389 268.937707) scale(0.1 -0.1)">
      <defs>
       <path id="DejaVuSans-64" d="M 2906 2969 
L 2906 4863 
L 3481 4863 
L 3481 0 
L 2906 0 
L 2906 525 
Q 2725 213 2448 61 
Q 2172 -91 1784 -91 
Q 1150 -91 751 415 
Q 353 922 353 1747 
Q 353 2572 751 3078 
Q 1150 3584 1784 3584 
Q 2172 3584 2448 3432 
Q 2725 3281 2906 2969 
z
M 947 1747 
Q 947 1113 1208 752 
Q 1469 391 1925 391 
Q 2381 391 2643 752 
Q 2906 1113 2906 1747 
Q 2906 2381 2643 2742 
Q 2381 3103 1925 3103 
Q 1469 3103 1208 2742 
Q 947 2381 947 1747 
z
" transform="scale(0.015625)"/>
      </defs>
      <use xlink:href="#DejaVuSans-43"/>
      <use xlink:href="#DejaVuSans-61" transform="translate(69.824219 0)"/>
      <use xlink:href="#DejaVuSans-72" transform="translate(131.103516 0)"/>
      <use xlink:href="#DejaVuSans-64" transform="translate(170.466797 0)"/>
      <use xlink:href="#DejaVuSans-20" transform="translate(233.943359 0)"/>
      <use xlink:href="#DejaVuSans-44" transform="translate(265.730469 0)"/>
      <use xlink:href="#DejaVuSans-61" transform="translate(342.732422 0)"/>
      <use xlink:href="#DejaVuSans-74" transform="translate(404.011719 0)"/>
      <use xlink:href="#DejaVuSans-61" transform="translate(443.220703 0)"/>
     </g>
    </g>
    <g id="patch_26">
     <path d="M 7.2 301.488722 
L 126.851291 301.488722 
L 126.851291 277.948462 
L 7.2 277.948462 
z
" style="fill: #ff8c00; fill-opacity: 0.25098; stroke: #000000; stroke-linejoin: miter"/>
    </g>
    <g id="text_25">
     <!-- FedRAMP -->
     <g transform="translate(44.150645 292.477967) scale(0.1 -0.1)">
      <defs>
       <path id="DejaVuSans-46" d="M 628 4666 
L 3309 4666 
L 3309 4134 
L 1259 4134 
L 1259 2759 
L 3109 2759 
L 3109 2228 
L 1259 2228 
L 1259 0 
L 628 0 
L 628 4666 
z
" transform="scale(0.015625)"/>
      </defs>
      <use xlink:href="#DejaVuSans-46"/>
      <use xlink:href="#DejaVuSans-65" transform="translate(52.019531 0)"/>
      <use xlink:href="#DejaVuSans-64" transform="translate(113.542969 0)"/>
      <use xlink:href="#DejaVuSans-52" transform="translate(177.019531 0)"/>
      <use xlink:href="#DejaVuSans-41" transform="translate(242.501953 0)"/>
      <use xlink:href="#DejaVuSans-4d" transform="translate(310.910156 0)"/>
      <use xlink:href="#DejaVuSans-50" transform="translate(397.189453 0)"/>
     </g>
    </g>
    <g id="patch_27">
     <path d="M 126.851291 301.488722 
L 222.572324 301.488722 
L 222.572324 277.948462 
L 126.851291 277.948462 
z
" style="fill: #ffffff; stroke: #000000; stroke-linejoin: miter"/>
    </g>
    <g id="text_26">
     <!-- US -->
     <g transform="translate(167.878214 292.477967) scale(0.1 -0.1)">
      <use xlink:href="#DejaVuSans-55"/>
      <use xlink:href="#DejaVuSans-53" transform="translate(73.193359 0)"/>
     </g>
    </g>
    <g id="patch_28">
     <path d="M 222.572324 301.488722 
L 342.223615 301.488722 
L 342.223615 277.948462 
L 222.572324 277.948462 
z
" style="fill: #ffffff; stroke: #000000; stroke-linejoin: miter"/>
    </g>
    <g id="text_27">
     <!-- Government -->
     <g transform="translate(251.215938 292.477967) scale(0.1 -0.1)">
      <use xlink:href="#DejaVuSans-47"/>
      <use xlink:href="#DejaVuSans-6f" transform="translate(77.490234 0)"/>
      <use xlink:href="#DejaVuSans-76" transform="translate(138.671875 0)"/>
      <use xlink:href="#DejaVuSans-65" transform="translate(197.851562 0)"/>
      <use xlink:href="#DejaVuSans-72" transform="translate(259.375 0)"/>
      <use xlink:href="#DejaVuSans-6e" transform="translate(298.738281 0)"/>
      <use xlink:href="#DejaVuSans-6d" transform="translate(362.117188 0)"/>
      <use xlink:href="#DejaVuSans-65" transform="translate(459.529297 0)"/>
      <use xlink:href="#DejaVuSans-6e" transform="translate(521.052734 0)"/>
      <use xlink:href="#DejaVuSans-74" transform="translate(584.431641 0)"/>
     </g>
    </g>
    <g id="patch_29">
     <path d="M 342.223615 301.488722 
L 485.805164 301.488722 
L 485.805164 277.948462 
L 342.223615 277.948462 
z
" style="fill: #ffffff; stroke: #000000; stroke-linejoin: miter"/>
    </g>
    <g id="text_28">
     <!-- Cloud Security -->
     <g transform="translate(377.609702 292.477967) scale(0.1 -0.1)">
      <use xlink:href="#DejaVuSans-43"/>
      <use xlink:href="#DejaVuSans-6c" transform="translate(69.824219 0)"/>
      <use xlink:href="#DejaVuSans-6f" transform="translate(97.607422 0)"/>
      <use xlink:href="#DejaVuSans-75" transform="translate(158.789062 0)"/>
      <use xlink:href="#DejaVuSans-64" transform="translate(222.167969 0)"/>
      <use xlink:href="#DejaVuSans-20" transform="translate(285.644531 0)"/>
      <use xlink:href="#DejaVuSans-53" transform="translate(317.431641 0)"/>
      <use xlink:href="#DejaVuSans-65" transform="translate(380.908203 0)"/>
      <use xlink:href="#DejaVuSans-63" transform="translate(442.431641 0)"/>
      <use xlink:href="#DejaVuSans-75" transform="translate(497.412109 0)"/>
      <use xlink:href="#DejaVuSans-72" transform="translate(560.791016 0)"/>
      <use xlink:href="#DejaVuSans-69" transform="translate(601.904297 0)"/>
      <use xlink:href="#DejaVuSans-74" transform="translate(629.6875 0)"/>
      <use xlink:href="#DejaVuSans-79" transform="translate(668.896484 0)"/>
     </g>
    </g>
   </g>
   <g id="text_29">
    <!-- Compliance Frameworks Overview -->
    <g transform="translate(110.978207 17.837812) scale(0.14 -0.14)">
     <defs>
      <path id="DejaVuSans-Bold-43" d="M 4288 256 
Q 3956 84 3597 -3 
Q 3238 -91 2847 -91 
Q 1681 -91 1000 561 
Q 319 1213 319 2328 
Q 319 3447 1000 4098 
Q 1681 4750 2847 4750 
Q 3238 4750 3597 4662 
Q 3956 4575 4288 4403 
L 4288 3438 
Q 3953 3666 3628 3772 
Q 3303 3878 2944 3878 
Q 2300 3878 1931 3465 
Q 1563 3053 1563 2328 
Q 1563 1606 1931 1193 
Q 2300 781 2944 781 
Q 3303 781 3628 887 
Q 3953 994 4288 1222 
L 4288 256 
z
" transform="scale(0.015625)"/>
      <path id="DejaVuSans-Bold-70" d="M 1656 506 
L 1656 -1331 
L 538 -1331 
L 538 3500 
L 1656 3500 
L 1656 2988 
Q 1888 3294 2169 3439 
Q 2450 3584 2816 3584 
Q 3463 3584 3878 3070 
Q 4294 2556 4294 1747 
Q 4294 938 3878 423 
Q 3463 -91 2816 -91 
Q 2450 -91 2169 54 
Q 1888 200 1656 506 
z
M 2400 2772 
Q 2041 2772 1848 2508 
Q 1656 2244 1656 1747 
Q 1656 1250 1848 986 
Q 2041 722 2400 722 
Q 2759 722 2948 984 
Q 3138 1247 3138 1747 
Q 3138 2247 2948 2509 
Q 2759 2772 2400 2772 
z
" transform="scale(0.015625)"/>
      <path id="DejaVuSans-Bold-6c" d="M 538 4863 
L 1656 4863 
L 1656 0 
L 538 0 
L 538 4863 
z
" transform="scale(0.015625)"/>
      <path id="DejaVuSans-Bold-4f" d="M 2719 3878 
Q 2169 3878 1866 3472 
Q 1563 3066 1563 2328 
Q 1563 1594 1866 1187 
Q 2169 781 2719 781 
Q 3272 781 3575 1187 
Q 3878 1594 3878 2328 
Q 3878 3066 3575 3472 
Q 3272 3878 2719 3878 
z
M 2719 4750 
Q 3844 4750 4481 4106 
Q 5119 3463 5119 2328 
Q 5119 1197 4481 553 
Q 3844 -91 2719 -91 
Q 1597 -91 958 553 
Q 319 1197 319 2328 
Q 319 3463 958 4106 
Q 1597 4750 2719 4750 
z
" transform="scale(0.015625)"/>
      <path id="DejaVuSans-Bold-76" d="M 97 3500 
L 1216 3500 
L 2088 1081 
L 2956 3500 
L 4078 3500 
L 2700 0 
L 1472 0 
L 97 3500 
z
" transform="scale(0.015625)"/>
     </defs>
     <use xlink:href="#DejaVuSans-Bold-43"/>
     <use xlink:href="#DejaVuSans-Bold-6f" transform="translate(73.388672 0)"/>
     <use xlink:href="#DejaVuSans-Bold-6d" transform="translate(142.089844 0)"/>
     <use xlink:href="#DejaVuSans-Bold-70" transform="translate(246.289062 0)"/>
     <use xlink:href="#DejaVuSans-Bold-6c" transform="translate(317.871094 0)"/>
     <use xlink:href="#DejaVuSans-Bold-69" transform="translate(352.148438 0)"/>
     <use xlink:href="#DejaVuSans-Bold-61" transform="translate(386.425781 0)"/>
     <use xlink:href="#DejaVuSans-Bold-6e" transform="translate(453.90625 0)"/>
     <use xlink:href="#DejaVuSans-Bold-63" transform="translate(525.097656 0)"/>
     <use xlink:href="#DejaVuSans-Bold-65" transform="translate(584.375 0)"/>
     <use xlink:href="#DejaVuSans-Bold-20" transform="translate(652.197266 0)"/>
     <use xlink:href="#DejaVuSans-Bold-46" transform="translate(687.011719 0)"/>
     <use xlink:href="#DejaVuSans-Bold-72" transform="translate(748.947266 0)"/>
     <use xlink:href="#DejaVuSans-Bold-61" transform="translate(798.263672 0)"/>
     <use xlink:href="#DejaVuSans-Bold-6d" transform="translate(865.744141 0)"/>
     <use xlink:href="#DejaVuSans-Bold-65" transform="translate(969.943359 0)"/>
     <use xlink:href="#DejaVuSans-Bold-77" transform="translate(1037.765625 0)"/>
     <use xlink:href="#DejaVuSans-Bold-6f" transform="translate(1130.148438 0)"/>
     <use xlink:href="#DejaVuSans-Bold-72" transform="translate(1198.849609 0)"/>
     <use xlink:href="#DejaVuSans-Bold-6b" transform="translate(1248.166016 0)"/>
     <use xlink:href="#DejaVuSans-Bold-73" transform="translate(1314.669922 0)"/>
     <use xlink:href="#DejaVuSans-Bold-20" transform="translate(1374.191406 0)"/>
     <use xlink:href="#DejaVuSans-Bold-4f" transform="translate(1409.005859 0)"/>
     <use xlink:href="#DejaVuSans-Bold-76" transform="translate(1494.015625 0)"/>
     <use xlink:href="#DejaVuSans-Bold-65" transform="translate(1559.201172 0)"/>
     <use xlink:href="#DejaVuSans-Bold-72" transform="translate(1627.023438 0)"/>
     <use xlink:href="#DejaVuSans-Bold-76" transform="translate(1676.339844 0)"/>
     <use xlink:href="#DejaVuSans-Bold-69" transform="translate(1741.525391 0)"/>
     <use xlink:href="#DejaVuSans-Bold-65" transform="translate(1775.802734 0)"/>
     <use xlink:href="#DejaVuSans-Bold-77" transform="translate(1843.625 0)"/>
    </g>
   </g>
  </g>
  <g id="axes_2">
   <g id="patch_30">
    <path d="M 515.070491 400.357812 
L 913.908127 400.357812 
L 913.908127 37.837812 
L 515.070491 37.837812 
z
" style="fill: #ffffff"/>
   </g>
   <g id="matplotlib.axis_1">
    <g id="xtick_1">
     <g id="line2d_1">
      <defs>
       <path id="m759d469ec8" d="M 0 0 
L 0 3.5 
" style="stroke: #000000; stroke-width: 0.8"/>
      </defs>
      <g>
       <use xlink:href="#m759d469ec8" x="515.070491" y="400.357812" style="stroke: #000000; stroke-width: 0.8"/>
      </g>
     </g>
     <g id="text_30">
      <!-- 0.0 -->
      <g transform="translate(507.118928 414.95625) scale(0.1 -0.1)">
       <defs>
        <path id="DejaVuSans-2e" d="M 684 794 
L 1344 794 
L 1344 0 
L 684 0 
L 684 794 
z
" transform="scale(0.015625)"/>
       </defs>
       <use xlink:href="#DejaVuSans-30"/>
       <use xlink:href="#DejaVuSans-2e" transform="translate(63.623047 0)"/>
       <use xlink:href="#DejaVuSans-30" transform="translate(95.410156 0)"/>
      </g>
     </g>
    </g>
    <g id="xtick_2">
     <g id="line2d_2">
      <g>
       <use xlink:href="#m759d469ec8" x="594.838018" y="400.357812" style="stroke: #000000; stroke-width: 0.8"/>
      </g>
     </g>
     <g id="text_31">
      <!-- 0.2 -->
      <g transform="translate(586.886456 414.95625) scale(0.1 -0.1)">
       <use xlink:href="#DejaVuSans-30"/>
       <use xlink:href="#DejaVuSans-2e" transform="translate(63.623047 0)"/>
       <use xlink:href="#DejaVuSans-32" transform="translate(95.410156 0)"/>
      </g>
     </g>
    </g>
    <g id="xtick_3">
     <g id="line2d_3">
      <g>
       <use xlink:href="#m759d469ec8" x="674.605545" y="400.357812" style="stroke: #000000; stroke-width: 0.8"/>
      </g>
     </g>
     <g id="text_32">
      <!-- 0.4 -->
      <g transform="translate(666.653983 414.95625) scale(0.1 -0.1)">
       <defs>
        <path id="DejaVuSans-34" d="M 2419 4116 
L 825 1625 
L 2419 1625 
L 2419 4116 
z
M 2253 4666 
L 3047 4666 
L 3047 1625 
L 3713 1625 
L 3713 1100 
L 3047 1100 
L 3047 0 
L 2419 0 
L 2419 1100 
L 313 1100 
L 313 1709 
L 2253 4666 
z
" transform="scale(0.015625)"/>
       </defs>
       <use xlink:href="#DejaVuSans-30"/>
       <use xlink:href="#DejaVuSans-2e" transform="translate(63.623047 0)"/>
       <use xlink:href="#DejaVuSans-34" transform="translate(95.410156 0)"/>
      </g>
     </g>
    </g>
    <g id="xtick_4">
     <g id="line2d_4">
      <g>
       <use xlink:href="#m759d469ec8" x="754.373073" y="400.357812" style="stroke: #000000; stroke-width: 0.8"/>
      </g>
     </g>
     <g id="text_33">
      <!-- 0.6 -->
      <g transform="translate(746.42151 414.95625) scale(0.1 -0.1)">
       <defs>
        <path id="DejaVuSans-36" d="M 2113 2584 
Q 1688 2584 1439 2293 
Q 1191 2003 1191 1497 
Q 1191 994 1439 701 
Q 1688 409 2113 409 
Q 2538 409 2786 701 
Q 3034 994 3034 1497 
Q 3034 2003 2786 2293 
Q 2538 2584 2113 2584 
z
M 3366 4563 
L 3366 3988 
Q 3128 4100 2886 4159 
Q 2644 4219 2406 4219 
Q 1781 4219 1451 3797 
Q 1122 3375 1075 2522 
Q 1259 2794 1537 2939 
Q 1816 3084 2150 3084 
Q 2853 3084 3261 2657 
Q 3669 2231 3669 1497 
Q 3669 778 3244 343 
Q 2819 -91 2113 -91 
Q 1303 -91 875 529 
Q 447 1150 447 2328 
Q 447 3434 972 4092 
Q 1497 4750 2381 4750 
Q 2619 4750 2861 4703 
Q 3103 4656 3366 4563 
z
" transform="scale(0.015625)"/>
       </defs>
       <use xlink:href="#DejaVuSans-30"/>
       <use xlink:href="#DejaVuSans-2e" transform="translate(63.623047 0)"/>
       <use xlink:href="#DejaVuSans-36" transform="translate(95.410156 0)"/>
      </g>
     </g>
    </g>
    <g id="xtick_5">
     <g id="line2d_5">
      <g>
       <use xlink:href="#m759d469ec8" x="834.1406" y="400.357812" style="stroke: #000000; stroke-width: 0.8"/>
      </g>
     </g>
     <g id="text_34">
      <!-- 0.8 -->
      <g transform="translate(826.189037 414.95625) scale(0.1 -0.1)">
       <defs>
        <path id="DejaVuSans-38" d="M 2034 2216 
Q 1584 2216 1326 1975 
Q 1069 1734 1069 1313 
Q 1069 891 1326 650 
Q 1584 409 2034 409 
Q 2484 409 2743 651 
Q 3003 894 3003 1313 
Q 3003 1734 2745 1975 
Q 2488 2216 2034 2216 
z
M 1403 2484 
Q 997 2584 770 2862 
Q 544 3141 544 3541 
Q 544 4100 942 4425 
Q 1341 4750 2034 4750 
Q 2731 4750 3128 4425 
Q 3525 4100 3525 3541 
Q 3525 3141 3298 2862 
Q 3072 2584 2669 2484 
Q 3125 2378 3379 2068 
Q 3634 1759 3634 1313 
Q 3634 634 3220 271 
Q 2806 -91 2034 -91 
Q 1263 -91 848 271 
Q 434 634 434 1313 
Q 434 1759 690 2068 
Q 947 2378 1403 2484 
z
M 1172 3481 
Q 1172 3119 1398 2916 
Q 1625 2713 2034 2713 
Q 2441 2713 2670 2916 
Q 2900 3119 2900 3481 
Q 2900 3844 2670 4047 
Q 2441 4250 2034 4250 
Q 1625 4250 1398 4047 
Q 1172 3844 1172 3481 
z
" transform="scale(0.015625)"/>
       </defs>
       <use xlink:href="#DejaVuSans-30"/>
       <use xlink:href="#DejaVuSans-2e" transform="translate(63.623047 0)"/>
       <use xlink:href="#DejaVuSans-38" transform="translate(95.410156 0)"/>
      </g>
     </g>
    </g>
    <g id="xtick_6">
     <g id="line2d_6">
      <g>
       <use xlink:href="#m759d469ec8" x="913.908127" y="400.357812" style="stroke: #000000; stroke-width: 0.8"/>
      </g>
     </g>
     <g id="text_35">
      <!-- 1.0 -->
      <g transform="translate(905.956565 414.95625) scale(0.1 -0.1)">
       <use xlink:href="#DejaVuSans-31"/>
       <use xlink:href="#DejaVuSans-2e" transform="translate(63.623047 0)"/>
       <use xlink:href="#DejaVuSans-30" transform="translate(95.410156 0)"/>
      </g>
     </g>
    </g>
   </g>
   <g id="matplotlib.axis_2">
    <g id="ytick_1">
     <g id="line2d_7">
      <defs>
       <path id="ma4b6eb898f" d="M 0 0 
L -3.5 0 
" style="stroke: #000000; stroke-width: 0.8"/>
      </defs>
      <g>
       <use xlink:href="#ma4b6eb898f" x="515.070491" y="400.357812" style="stroke: #000000; stroke-width: 0.8"/>
      </g>
     </g>
     <g id="text_36">
      <!-- 0.0 -->
      <g transform="translate(492.167366 404.157031) scale(0.1 -0.1)">
       <use xlink:href="#DejaVuSans-30"/>
       <use xlink:href="#DejaVuSans-2e" transform="translate(63.623047 0)"/>
       <use xlink:href="#DejaVuSans-30" transform="translate(95.410156 0)"/>
      </g>
     </g>
    </g>
    <g id="ytick_2">
     <g id="line2d_8">
      <g>
       <use xlink:href="#ma4b6eb898f" x="515.070491" y="327.853812" style="stroke: #000000; stroke-width: 0.8"/>
      </g>
     </g>
     <g id="text_37">
      <!-- 0.2 -->
      <g transform="translate(492.167366 331.653031) scale(0.1 -0.1)">
       <use xlink:href="#DejaVuSans-30"/>
       <use xlink:href="#DejaVuSans-2e" transform="translate(63.623047 0)"/>
       <use xlink:href="#DejaVuSans-32" transform="translate(95.410156 0)"/>
      </g>
     </g>
    </g>
    <g id="ytick_3">
     <g id="line2d_9">
      <g>
       <use xlink:href="#ma4b6eb898f" x="515.070491" y="255.349812" style="stroke: #000000; stroke-width: 0.8"/>
      </g>
     </g>
     <g id="text_38">
      <!-- 0.4 -->
      <g transform="translate(492.167366 259.149031) scale(0.1 -0.1)">
       <use xlink:href="#DejaVuSans-30"/>
       <use xlink:href="#DejaVuSans-2e" transform="translate(63.623047 0)"/>
       <use xlink:href="#DejaVuSans-34" transform="translate(95.410156 0)"/>
      </g>
     </g>
    </g>
    <g id="ytick_4">
     <g id="line2d_10">
      <g>
       <use xlink:href="#ma4b6eb898f" x="515.070491" y="182.845812" style="stroke: #000000; stroke-width: 0.8"/>
      </g>
     </g>
     <g id="text_39">
      <!-- 0.6 -->
      <g transform="translate(492.167366 186.645031) scale(0.1 -0.1)">
       <use xlink:href="#DejaVuSans-30"/>
       <use xlink:href="#DejaVuSans-2e" transform="translate(63.623047 0)"/>
       <use xlink:href="#DejaVuSans-36" transform="translate(95.410156 0)"/>
      </g>
     </g>
    </g>
    <g id="ytick_5">
     <g id="line2d_11">
      <g>
       <use xlink:href="#ma4b6eb898f" x="515.070491" y="110.341812" style="stroke: #000000; stroke-width: 0.8"/>
      </g>
     </g>
     <g id="text_40">
      <!-- 0.8 -->
      <g transform="translate(492.167366 114.141031) scale(0.1 -0.1)">
       <use xlink:href="#DejaVuSans-30"/>
       <use xlink:href="#DejaVuSans-2e" transform="translate(63.623047 0)"/>
       <use xlink:href="#DejaVuSans-38" transform="translate(95.410156 0)"/>
      </g>
     </g>
    </g>
    <g id="ytick_6">
     <g id="line2d_12">
      <g>
       <use xlink:href="#ma4b6eb898f" x="515.070491" y="37.837812" style="stroke: #000000; stroke-width: 0.8"/>
      </g>
     </g>
     <g id="text_41">
      <!-- 1.0 -->
      <g transform="translate(492.167366 41.637031) scale(0.1 -0.1)">
       <use xlink:href="#DejaVuSans-31"/>
       <use xlink:href="#DejaVuSans-2e" transform="translate(63.623047 0)"/>
       <use xlink:href="#DejaVuSans-30" transform="translate(95.410156 0)"/>
      </g>
     </g>
    </g>
   </g>
   <g id="patch_31">
    <path d="M 515.070491 400.357812 
L 515.070491 37.837812 
" style="fill: none; stroke: #000000; stroke-width: 0.8; stroke-linejoin: miter; stroke-linecap: square"/>
   </g>
   <g id="patch_32">
    <path d="M 913.908127 400.357812 
L 913.908127 37.837812 
" style="fill: none; stroke: #000000; stroke-width: 0.8; stroke-linejoin: miter; stroke-linecap: square"/>
   </g>
   <g id="patch_33">
    <path d="M 515.070491 400.357812 
L 913.908127 400.357812 
" style="fill: none; stroke: #000000; stroke-width: 0.8; stroke-linejoin: miter; stroke-linecap: square"/>
   </g>
   <g id="patch_34">
    <path d="M 515.070491 37.837812 
L 913.908127 37.837812 
" style="fill: none; stroke: #000000; stroke-width: 0.8; stroke-linejoin: miter; stroke-linecap: square"/>
   </g>
  </g>
  <g id="axes_3">
   <g id="patch_35">
    <path d="M 895.749309 219.097812 
C 895.749309 195.294967 891.060668 171.723575 881.951713 149.732614 
C 872.842759 127.741652 859.490637 107.758791 842.659484 90.927637 
C 825.828331 74.096484 805.845469 60.744363 783.854508 51.635408 
C 761.863547 42.526454 738.292154 37.837812 714.489309 37.837812 
C 690.686464 37.837812 667.115072 42.526454 645.12411 51.635408 
C 623.133149 60.744363 603.150287 74.096484 586.319134 90.927637 
C 569.487981 107.758791 556.135859 127.741652 547.026905 149.732614 
C 537.917951 171.723575 533.229309 195.294967 533.229309 219.097812 
C 533.229309 242.900658 537.917951 266.47205 547.026905 288.463011 
C 556.135859 310.453973 569.487981 330.436834 586.319134 347.267988 
C 603.150287 364.099141 623.133149 377.451262 645.12411 386.560217 
C 667.115072 395.669171 690.686464 400.357812 714.489309 400.357812 
C 738.292154 400.357812 761.863547 395.669171 783.854508 386.560217 
C 805.845469 377.451262 825.828331 364.099141 842.659484 347.267988 
C 859.490637 330.436834 872.842759 310.453973 881.951713 288.463011 
C 891.060668 266.47205 895.749309 242.900658 895.749309 219.097812 
M 714.489309 219.097812 
C 714.489309 219.097812 714.489309 219.097812 714.489309 219.097812 
C 714.489309 219.097812 714.489309 219.097812 714.489309 219.097812 
C 714.489309 219.097812 714.489309 219.097812 714.489309 219.097812 
C 714.489309 219.097812 714.489309 219.097812 714.489309 219.097812 
C 714.489309 219.097812 714.489309 219.097812 714.489309 219.097812 
C 714.489309 219.097812 714.489309 219.097812 714.489309 219.097812 
C 714.489309 219.097812 714.489309 219.097812 714.489309 219.097812 
C 714.489309 219.097812 714.489309 219.097812 714.489309 219.097812 
C 714.489309 219.097812 714.489309 219.097812 714.489309 219.097812 
C 714.489309 219.097812 714.489309 219.097812 714.489309 219.097812 
C 714.489309 219.097812 714.489309 219.097812 714.489309 219.097812 
C 714.489309 219.097812 714.489309 219.097812 714.489309 219.097812 
C 714.489309 219.097812 714.489309 219.097812 714.489309 219.097812 
C 714.489309 219.097812 714.489309 219.097812 714.489309 219.097812 
C 714.489309 219.097812 714.489309 219.097812 714.489309 219.097812 
C 714.489309 219.097812 714.489309 219.097812 714.489309 219.097812 
z
" style="fill: #ffffff"/>
   </g>
   <g id="patch_36">
    <path d="M 895.749309 219.097812 
L 770.501729 46.709308 
L 567.846889 112.555858 
L 597.175373 304.331376 
L 759.299245 357.008616 
z
" clip-path="url(#pea2b122c5a)" style="fill: #0078d4; opacity: 0.15; stroke: #0078d4; stroke-linejoin: miter"/>
   </g>
   <g id="patch_37">
    <path d="M 895.749309 219.097812 
L 770.501729 46.709308 
L 597.175373 133.864249 
L 567.846889 325.639767 
L 770.501729 391.486317 
z
" clip-path="url(#pea2b122c5a)" style="fill: #00bcf2; opacity: 0.15; stroke: #00bcf2; stroke-linejoin: miter"/>
   </g>
   <g id="patch_38">
    <path d="M 895.749309 219.097812 
L 759.299245 81.187009 
L 597.175373 133.864249 
L 567.846889 325.639767 
L 748.096761 322.530915 
z
" clip-path="url(#pea2b122c5a)" style="fill: #773adc; opacity: 0.15; stroke: #773adc; stroke-linejoin: miter"/>
   </g>
   <g id="patch_39">
    <path d="M 895.749309 219.097812 
L 770.501729 46.709308 
L 567.846889 112.555858 
L 567.846889 325.639767 
L 770.501729 391.486317 
z
" clip-path="url(#pea2b122c5a)" style="fill: #107c10; opacity: 0.15; stroke: #107c10; stroke-linejoin: miter"/>
   </g>
   <g id="matplotlib.axis_3">
    <g id="xtick_7">
     <g id="line2d_13">
      <path d="M 714.489309 219.097812 
L 895.749309 219.097812 
" clip-path="url(#pea2b122c5a)" style="fill: none; stroke: #b0b0b0; stroke-width: 0.8; stroke-linecap: square"/>
     </g>
     <g id="text_42">
      <!-- Data Protection -->
      <g transform="translate(874.811028 221.58125) scale(0.09 -0.09)">
       <use xlink:href="#DejaVuSans-44"/>
       <use xlink:href="#DejaVuSans-61" transform="translate(77.001953 0)"/>
       <use xlink:href="#DejaVuSans-74" transform="translate(138.28125 0)"/>
       <use xlink:href="#DejaVuSans-61" transform="translate(177.490234 0)"/>
       <use xlink:href="#DejaVuSans-20" transform="translate(238.769531 0)"/>
       <use xlink:href="#DejaVuSans-50" transform="translate(270.556641 0)"/>
       <use xlink:href="#DejaVuSans-72" transform="translate(329.109375 0)"/>
       <use xlink:href="#DejaVuSans-6f" transform="translate(367.972656 0)"/>
       <use xlink:href="#DejaVuSans-74" transform="translate(429.154297 0)"/>
       <use xlink:href="#DejaVuSans-65" transform="translate(468.363281 0)"/>
       <use xlink:href="#DejaVuSans-63" transform="translate(529.886719 0)"/>
       <use xlink:href="#DejaVuSans-74" transform="translate(584.867188 0)"/>
       <use xlink:href="#DejaVuSans-69" transform="translate(624.076172 0)"/>
       <use xlink:href="#DejaVuSans-6f" transform="translate(651.859375 0)"/>
       <use xlink:href="#DejaVuSans-6e" transform="translate(713.041016 0)"/>
      </g>
     </g>
    </g>
    <g id="xtick_8">
     <g id="line2d_14">
      <path d="M 714.489309 219.097812 
L 770.501729 46.709308 
" clip-path="url(#pea2b122c5a)" style="fill: none; stroke: #b0b0b0; stroke-width: 0.8; stroke-linecap: square"/>
     </g>
     <g id="text_43">
      <!-- Access Control -->
      <g transform="translate(741.728358 35.877955) scale(0.09 -0.09)">
       <use xlink:href="#DejaVuSans-41"/>
       <use xlink:href="#DejaVuSans-63" transform="translate(66.658203 0)"/>
       <use xlink:href="#DejaVuSans-63" transform="translate(121.638672 0)"/>
       <use xlink:href="#DejaVuSans-65" transform="translate(176.619141 0)"/>
       <use xlink:href="#DejaVuSans-73" transform="translate(238.142578 0)"/>
       <use xlink:href="#DejaVuSans-73" transform="translate(290.242188 0)"/>
       <use xlink:href="#DejaVuSans-20" transform="translate(342.341797 0)"/>
       <use xlink:href="#DejaVuSans-43" transform="translate(374.128906 0)"/>
       <use xlink:href="#DejaVuSans-6f" transform="translate(443.953125 0)"/>
       <use xlink:href="#DejaVuSans-6e" transform="translate(505.134766 0)"/>
       <use xlink:href="#DejaVuSans-74" transform="translate(568.513672 0)"/>
       <use xlink:href="#DejaVuSans-72" transform="translate(607.722656 0)"/>
       <use xlink:href="#DejaVuSans-6f" transform="translate(646.585938 0)"/>
       <use xlink:href="#DejaVuSans-6c" transform="translate(707.767578 0)"/>
      </g>
     </g>
    </g>
    <g id="xtick_9">
     <g id="line2d_15">
      <path d="M 714.489309 219.097812 
L 567.846889 112.555858 
" clip-path="url(#pea2b122c5a)" style="fill: none; stroke: #b0b0b0; stroke-width: 0.8; stroke-linecap: square"/>
     </g>
     <g id="text_44">
      <!-- Audit Logging -->
      <g transform="translate(525.434791 106.810302) scale(0.09 -0.09)">
       <defs>
        <path id="DejaVuSans-4c" d="M 628 4666 
L 1259 4666 
L 1259 531 
L 3531 531 
L 3531 0 
L 628 0 
L 628 4666 
z
" transform="scale(0.015625)"/>
        <path id="DejaVuSans-67" d="M 2906 1791 
Q 2906 2416 2648 2759 
Q 2391 3103 1925 3103 
Q 1463 3103 1205 2759 
Q 947 2416 947 1791 
Q 947 1169 1205 825 
Q 1463 481 1925 481 
Q 2391 481 2648 825 
Q 2906 1169 2906 1791 
z
M 3481 434 
Q 3481 -459 3084 -895 
Q 2688 -1331 1869 -1331 
Q 1566 -1331 1297 -1286 
Q 1028 -1241 775 -1147 
L 775 -588 
Q 1028 -725 1275 -790 
Q 1522 -856 1778 -856 
Q 2344 -856 2625 -561 
Q 2906 -266 2906 331 
L 2906 616 
Q 2728 306 2450 153 
Q 2172 0 1784 0 
Q 1141 0 747 490 
Q 353 981 353 1791 
Q 353 2603 747 3093 
Q 1141 3584 1784 3584 
Q 2172 3584 2450 3431 
Q 2728 3278 2906 2969 
L 2906 3500 
L 3481 3500 
L 3481 434 
z
" transform="scale(0.015625)"/>
       </defs>
       <use xlink:href="#DejaVuSans-41"/>
       <use xlink:href="#DejaVuSans-75" transform="translate(68.408203 0)"/>
       <use xlink:href="#DejaVuSans-64" transform="translate(131.787109 0)"/>
       <use xlink:href="#DejaVuSans-69" transform="translate(195.263672 0)"/>
       <use xlink:href="#DejaVuSans-74" transform="translate(223.046875 0)"/>
       <use xlink:href="#DejaVuSans-20" transform="translate(262.255859 0)"/>
       <use xlink:href="#DejaVuSans-4c" transform="translate(294.042969 0)"/>
       <use xlink:href="#DejaVuSans-6f" transform="translate(348.005859 0)"/>
       <use xlink:href="#DejaVuSans-67" transform="translate(409.1875 0)"/>
       <use xlink:href="#DejaVuSans-67" transform="translate(472.664062 0)"/>
       <use xlink:href="#DejaVuSans-69" transform="translate(536.140625 0)"/>
       <use xlink:href="#DejaVuSans-6e" transform="translate(563.923828 0)"/>
       <use xlink:href="#DejaVuSans-67" transform="translate(627.302734 0)"/>
      </g>
     </g>
    </g>
    <g id="xtick_10">
     <g id="line2d_16">
      <path d="M 714.489309 219.097812 
L 567.846889 325.639767 
" clip-path="url(#pea2b122c5a)" style="fill: none; stroke: #b0b0b0; stroke-width: 0.8; stroke-linecap: square"/>
     </g>
     <g id="text_45">
      <!-- Encryption -->
      <g transform="translate(532.361276 336.352198) scale(0.09 -0.09)">
       <defs>
        <path id="DejaVuSans-70" d="M 1159 525 
L 1159 -1331 
L 581 -1331 
L 581 3500 
L 1159 3500 
L 1159 2969 
Q 1341 3281 1617 3432 
Q 1894 3584 2278 3584 
Q 2916 3584 3314 3078 
Q 3713 2572 3713 1747 
Q 3713 922 3314 415 
Q 2916 -91 2278 -91 
Q 1894 -91 1617 61 
Q 1341 213 1159 525 
z
M 3116 1747 
Q 3116 2381 2855 2742 
Q 2594 3103 2138 3103 
Q 1681 3103 1420 2742 
Q 1159 2381 1159 1747 
Q 1159 1113 1420 752 
Q 1681 391 2138 391 
Q 2594 391 2855 752 
Q 3116 1113 3116 1747 
z
" transform="scale(0.015625)"/>
       </defs>
       <use xlink:href="#DejaVuSans-45"/>
       <use xlink:href="#DejaVuSans-6e" transform="translate(63.183594 0)"/>
       <use xlink:href="#DejaVuSans-63" transform="translate(126.5625 0)"/>
       <use xlink:href="#DejaVuSans-72" transform="translate(181.542969 0)"/>
       <use xlink:href="#DejaVuSans-79" transform="translate(222.65625 0)"/>
       <use xlink:href="#DejaVuSans-70" transform="translate(281.835938 0)"/>
       <use xlink:href="#DejaVuSans-74" transform="translate(345.3125 0)"/>
       <use xlink:href="#DejaVuSans-69" transform="translate(384.521484 0)"/>
       <use xlink:href="#DejaVuSans-6f" transform="translate(412.304688 0)"/>
       <use xlink:href="#DejaVuSans-6e" transform="translate(473.486328 0)"/>
      </g>
     </g>
    </g>
    <g id="xtick_11">
     <g id="line2d_17">
      <path d="M 714.489309 219.097812 
L 770.501729 391.486317 
" clip-path="url(#pea2b122c5a)" style="fill: none; stroke: #b0b0b0; stroke-width: 0.8; stroke-linecap: square"/>
     </g>
     <g id="text_46">
      <!-- Incident Response -->
      <g transform="translate(733.639608 407.284545) scale(0.09 -0.09)">
       <use xlink:href="#DejaVuSans-49"/>
       <use xlink:href="#DejaVuSans-6e" transform="translate(29.492188 0)"/>
       <use xlink:href="#DejaVuSans-63" transform="translate(92.871094 0)"/>
       <use xlink:href="#DejaVuSans-69" transform="translate(147.851562 0)"/>
       <use xlink:href="#DejaVuSans-64" transform="translate(175.634766 0)"/>
       <use xlink:href="#DejaVuSans-65" transform="translate(239.111328 0)"/>
       <use xlink:href="#DejaVuSans-6e" transform="translate(300.634766 0)"/>
       <use xlink:href="#DejaVuSans-74" transform="translate(364.013672 0)"/>
       <use xlink:href="#DejaVuSans-20" transform="translate(403.222656 0)"/>
       <use xlink:href="#DejaVuSans-52" transform="translate(435.009766 0)"/>
       <use xlink:href="#DejaVuSans-65" transform="translate(499.992188 0)"/>
       <use xlink:href="#DejaVuSans-73" transform="translate(561.515625 0)"/>
       <use xlink:href="#DejaVuSans-70" transform="translate(613.615234 0)"/>
       <use xlink:href="#DejaVuSans-6f" transform="translate(677.091797 0)"/>
       <use xlink:href="#DejaVuSans-6e" transform="translate(738.273438 0)"/>
       <use xlink:href="#DejaVuSans-73" transform="translate(801.652344 0)"/>
       <use xlink:href="#DejaVuSans-65" transform="translate(853.751953 0)"/>
      </g>
     </g>
    </g>
   </g>
   <g id="matplotlib.axis_4">
    <g id="ytick_7">
     <g id="line2d_18">
      <path d="M 750.741309 219.097812 
C 750.741309 214.337243 749.803581 209.622965 747.98179 205.224773 
C 746.159999 200.82658 743.489575 196.830008 740.123344 193.463777 
C 736.757113 190.097547 732.760541 187.427123 728.362349 185.605332 
C 723.964157 183.783541 719.249878 182.845812 714.489309 182.845812 
C 709.72874 182.845812 705.014462 183.783541 700.616269 185.605332 
C 696.218077 187.427123 692.221505 190.097547 688.855274 193.463777 
C 685.489043 196.830008 682.818619 200.82658 680.996828 205.224773 
C 679.175037 209.622965 678.237309 214.337243 678.237309 219.097812 
C 678.237309 223.858382 679.175037 228.57266 680.996828 232.970852 
C 682.818619 237.369045 685.489043 241.365617 688.855274 244.731848 
C 692.221505 248.098078 696.218077 250.768502 700.616269 252.590293 
C 705.014462 254.412084 709.72874 255.349812 714.489309 255.349812 
C 719.249878 255.349812 723.964157 254.412084 728.362349 252.590293 
C 732.760541 250.768502 736.757113 248.098078 740.123344 244.731848 
C 743.489575 241.365617 746.159999 237.369045 747.98179 232.970852 
C 749.803581 228.57266 750.741309 223.858382 750.741309 219.097812 
" clip-path="url(#pea2b122c5a)" style="fill: none; stroke: #b0b0b0; stroke-width: 0.8; stroke-linecap: square"/>
     </g>
     <g id="text_47">
      <!-- 1 -->
      <g transform="translate(747.98179 203.561023) scale(0.08 -0.08)">
       <use xlink:href="#DejaVuSans-31"/>
      </g>
     </g>
    </g>
    <g id="ytick_8">
     <g id="line2d_19">
      <path d="M 786.993309 219.097812 
C 786.993309 209.576674 785.117853 200.148117 781.474271 191.351733 
C 777.830689 182.555348 772.48984 174.562204 765.757379 167.829742 
C 759.024918 161.097281 751.031773 155.756433 742.235389 152.112851 
C 733.439004 148.469269 724.010447 146.593812 714.489309 146.593812 
C 704.968171 146.593812 695.539614 148.469269 686.74323 152.112851 
C 677.946845 155.756433 669.9537 161.097281 663.221239 167.829742 
C 656.488778 174.562204 651.147929 182.555348 647.504347 191.351733 
C 643.860766 200.148117 641.985309 209.576674 641.985309 219.097812 
C 641.985309 228.618951 643.860766 238.047508 647.504347 246.843892 
C 651.147929 255.640277 656.488778 263.633421 663.221239 270.365883 
C 669.9537 277.098344 677.946845 282.439192 686.74323 286.082774 
C 695.539614 289.726356 704.968171 291.601812 714.489309 291.601812 
C 724.010447 291.601812 733.439004 289.726356 742.235389 286.082774 
C 751.031773 282.439192 759.024918 277.098344 765.757379 270.365883 
C 772.48984 263.633421 777.830689 255.640277 781.474271 246.843892 
C 785.117853 238.047508 786.993309 228.618951 786.993309 219.097812 
" clip-path="url(#pea2b122c5a)" style="fill: none; stroke: #b0b0b0; stroke-width: 0.8; stroke-linecap: square"/>
     </g>
     <g id="text_48">
      <!-- 2 -->
      <g transform="translate(781.474271 189.687983) scale(0.08 -0.08)">
       <use xlink:href="#DejaVuSans-32"/>
      </g>
     </g>
    </g>
    <g id="ytick_9">
     <g id="line2d_20">
      <path d="M 823.245309 219.097812 
C 823.245309 204.816105 820.432124 190.67327 814.966752 177.478693 
C 809.501379 164.284116 801.490106 152.294399 791.391414 142.195707 
C 781.292722 132.097015 769.303005 124.085743 756.108428 118.62037 
C 742.913852 113.154997 728.771016 110.341812 714.489309 110.341812 
C 700.207602 110.341812 686.064767 113.154997 672.87019 118.62037 
C 659.675613 124.085743 647.685896 132.097015 637.587204 142.195707 
C 627.488512 152.294399 619.477239 164.284116 614.011867 177.478693 
C 608.546494 190.67327 605.733309 204.816105 605.733309 219.097812 
C 605.733309 233.37952 608.546494 247.522355 614.011867 260.716932 
C 619.477239 273.911509 627.488512 285.901226 637.587204 295.999918 
C 647.685896 306.09861 659.675613 314.109882 672.87019 319.575255 
C 686.064767 325.040628 700.207602 327.853812 714.489309 327.853812 
C 728.771016 327.853812 742.913852 325.040628 756.108428 319.575255 
C 769.303005 314.109882 781.292722 306.09861 791.391414 295.999918 
C 801.490106 285.901226 809.501379 273.911509 814.966752 260.716932 
C 820.432124 247.522355 823.245309 233.37952 823.245309 219.097812 
" clip-path="url(#pea2b122c5a)" style="fill: none; stroke: #b0b0b0; stroke-width: 0.8; stroke-linecap: square"/>
     </g>
     <g id="text_49">
      <!-- 3 -->
      <g transform="translate(814.966752 175.814943) scale(0.08 -0.08)">
       <defs>
        <path id="DejaVuSans-33" d="M 2597 2516 
Q 3050 2419 3304 2112 
Q 3559 1806 3559 1356 
Q 3559 666 3084 287 
Q 2609 -91 1734 -91 
Q 1441 -91 1130 -33 
Q 819 25 488 141 
L 488 750 
Q 750 597 1062 519 
Q 1375 441 1716 441 
Q 2309 441 2620 675 
Q 2931 909 2931 1356 
Q 2931 1769 2642 2001 
Q 2353 2234 1838 2234 
L 1294 2234 
L 1294 2753 
L 1863 2753 
Q 2328 2753 2575 2939 
Q 2822 3125 2822 3475 
Q 2822 3834 2567 4026 
Q 2313 4219 1838 4219 
Q 1578 4219 1281 4162 
Q 984 4106 628 3988 
L 628 4550 
Q 988 4650 1302 4700 
Q 1616 4750 1894 4750 
Q 2613 4750 3031 4423 
Q 3450 4097 3450 3541 
Q 3450 3153 3228 2886 
Q 3006 2619 2597 2516 
z
" transform="scale(0.015625)"/>
       </defs>
       <use xlink:href="#DejaVuSans-33"/>
      </g>
     </g>
    </g>
    <g id="ytick_10">
     <g id="line2d_21">
      <path d="M 859.497309 219.097812 
C 859.497309 200.055536 855.746396 181.198422 848.459232 163.605653 
C 841.172069 146.012884 830.490372 130.026595 817.025449 116.561672 
C 803.560527 103.09675 787.574237 92.415053 769.981468 85.127889 
C 752.388699 77.840726 733.531585 74.089812 714.489309 74.089812 
C 695.447033 74.089812 676.589919 77.840726 658.99715 85.127889 
C 641.404381 92.415053 625.418092 103.09675 611.953169 116.561672 
C 598.488246 130.026595 587.806549 146.012884 580.519386 163.605653 
C 573.232222 181.198422 569.481309 200.055536 569.481309 219.097812 
C 569.481309 238.140089 573.232222 256.997203 580.519386 274.589972 
C 587.806549 292.182741 598.488246 308.16903 611.953169 321.633953 
C 625.418092 335.098875 641.404381 345.780572 658.99715 353.067736 
C 676.589919 360.354899 695.447033 364.105812 714.489309 364.105812 
C 733.531585 364.105812 752.388699 360.354899 769.981468 353.067736 
C 787.574237 345.780572 803.560527 335.098875 817.025449 321.633953 
C 830.490372 308.16903 841.172069 292.182741 848.459232 274.589972 
C 855.746396 256.997203 859.497309 238.140089 859.497309 219.097812 
" clip-path="url(#pea2b122c5a)" style="fill: none; stroke: #b0b0b0; stroke-width: 0.8; stroke-linecap: square"/>
     </g>
     <g id="text_50">
      <!-- 4 -->
      <g transform="translate(848.459232 161.941903) scale(0.08 -0.08)">
       <use xlink:href="#DejaVuSans-34"/>
      </g>
     </g>
    </g>
    <g id="ytick_11">
     <g id="line2d_22">
      <path d="M 895.749309 219.097812 
C 895.749309 195.294967 891.060668 171.723575 881.951713 149.732614 
C 872.842759 127.741652 859.490637 107.758791 842.659484 90.927637 
C 825.828331 74.096484 805.845469 60.744363 783.854508 51.635408 
C 761.863547 42.526454 738.292154 37.837812 714.489309 37.837812 
C 690.686464 37.837812 667.115072 42.526454 645.12411 51.635408 
C 623.133149 60.744363 603.150287 74.096484 586.319134 90.927637 
C 569.487981 107.758791 556.135859 127.741652 547.026905 149.732614 
C 537.917951 171.723575 533.229309 195.294967 533.229309 219.097812 
C 533.229309 242.900658 537.917951 266.47205 547.026905 288.463011 
C 556.135859 310.453973 569.487981 330.436834 586.319134 347.267988 
C 603.150287 364.099141 623.133149 377.451262 645.12411 386.560217 
C 667.115072 395.669171 690.686464 400.357812 714.489309 400.357812 
C 738.292154 400.357812 761.863547 395.669171 783.854508 386.560217 
C 805.845469 377.451262 825.828331 364.099141 842.659484 347.267988 
C 859.490637 330.436834 872.842759 310.453973 881.951713 288.463011 
C 891.060668 266.47205 895.749309 242.900658 895.749309 219.097812 
" clip-path="url(#pea2b122c5a)" style="fill: none; stroke: #b0b0b0; stroke-width: 0.8; stroke-linecap: square"/>
     </g>
     <g id="text_51">
      <!-- 5 -->
      <g transform="translate(881.951713 148.068864) scale(0.08 -0.08)">
       <defs>
        <path id="DejaVuSans-35" d="M 691 4666 
L 3169 4666 
L 3169 4134 
L 1269 4134 
L 1269 2991 
Q 1406 3038 1543 3061 
Q 1681 3084 1819 3084 
Q 2600 3084 3056 2656 
Q 3513 2228 3513 1497 
Q 3513 744 3044 326 
Q 2575 -91 1722 -91 
Q 1428 -91 1123 -41 
Q 819 9 494 109 
L 494 744 
Q 775 591 1075 516 
Q 1375 441 1709 441 
Q 2250 441 2565 725 
Q 2881 1009 2881 1497 
Q 2881 1984 2565 2268 
Q 2250 2553 1709 2553 
Q 1456 2553 1204 2497 
Q 953 2441 691 2322 
L 691 4666 
z
" transform="scale(0.015625)"/>
       </defs>
       <use xlink:href="#DejaVuSans-35"/>
      </g>
     </g>
    </g>
   </g>
   <g id="line2d_23">
    <path d="M 895.749309 219.097812 
L 770.501729 46.709308 
L 567.846889 112.555858 
L 597.175373 304.331376 
L 759.299245 357.008616 
L 895.749309 219.097812 
" clip-path="url(#pea2b122c5a)" style="fill: none; stroke: #0078d4; stroke-width: 2; stroke-linecap: square"/>
    <defs>
     <path id="mb7116c00dc" d="M 0 3 
C 0.795609 3 1.55874 2.683901 2.12132 2.12132 
C 2.683901 1.55874 3 0.795609 3 0 
C 3 -0.795609 2.683901 -1.55874 2.12132 -2.12132 
C 1.55874 -2.683901 0.795609 -3 0 -3 
C -0.795609 -3 -1.55874 -2.683901 -2.12132 -2.12132 
C -2.683901 -1.55874 -3 -0.795609 -3 0 
C -3 0.795609 -2.683901 1.55874 -2.12132 2.12132 
C -1.55874 2.683901 -0.795609 3 0 3 
z
" style="stroke: #0078d4"/>
    </defs>
    <g clip-path="url(#pea2b122c5a)">
     <use xlink:href="#mb7116c00dc" x="895.749309" y="219.097812" style="fill: #0078d4; stroke: #0078d4"/>
     <use xlink:href="#mb7116c00dc" x="770.501729" y="46.709308" style="fill: #0078d4; stroke: #0078d4"/>
     <use xlink:href="#mb7116c00dc" x="567.846889" y="112.555858" style="fill: #0078d4; stroke: #0078d4"/>
     <use xlink:href="#mb7116c00dc" x="597.175373" y="304.331376" style="fill: #0078d4; stroke: #0078d4"/>
     <use xlink:href="#mb7116c00dc" x="759.299245" y="357.008616" style="fill: #0078d4; stroke: #0078d4"/>
     <use xlink:href="#mb7116c00dc" x="895.749309" y="219.097812" style="fill: #0078d4; stroke: #0078d4"/>
    </g>
   </g>
   <g id="line2d_24">
    <path d="M 895.749309 219.097812 
L 770.501729 46.709308 
L 597.175373 133.864249 
L 567.846889 325.639767 
L 770.501729 391.486317 
L 895.749309 219.097812 
" clip-path="url(#pea2b122c5a)" style="fill: none; stroke: #00bcf2; stroke-width: 2; stroke-linecap: square"/>
    <defs>
     <path id="me0ad570ec1" d="M 0 3 
C 0.795609 3 1.55874 2.683901 2.12132 2.12132 
C 2.683901 1.55874 3 0.795609 3 0 
C 3 -0.795609 2.683901 -1.55874 2.12132 -2.12132 
C 1.55874 -2.683901 0.795609 -3 0 -3 
C -0.795609 -3 -1.55874 -2.683901 -2.12132 -2.12132 
C -2.683901 -1.55874 -3 -0.795609 -3 0 
C -3 0.795609 -2.683901 1.55874 -2.12132 2.12132 
C -1.55874 2.683901 -0.795609 3 0 3 
z
" style="stroke: #00bcf2"/>
    </defs>
    <g clip-path="url(#pea2b122c5a)">
     <use xlink:href="#me0ad570ec1" x="895.749309" y="219.097812" style="fill: #00bcf2; stroke: #00bcf2"/>
     <use xlink:href="#me0ad570ec1" x="770.501729" y="46.709308" style="fill: #00bcf2; stroke: #00bcf2"/>
     <use xlink:href="#me0ad570ec1" x="597.175373" y="133.864249" style="fill: #00bcf2; stroke: #00bcf2"/>
     <use xlink:href="#me0ad570ec1" x="567.846889" y="325.639767" style="fill: #00bcf2; stroke: #00bcf2"/>
     <use xlink:href="#me0ad570ec1" x="770.501729" y="391.486317" style="fill: #00bcf2; stroke: #00bcf2"/>
     <use xlink:href="#me0ad570ec1" x="895.749309" y="219.097812" style="fill: #00bcf2; stroke: #00bcf2"/>
    </g>
   </g>
   <g id="line2d_25">
    <path d="M 895.749309 219.097812 
L 759.299245 81.187009 
L 597.175373 133.864249 
L 567.846889 325.639767 
L 748.096761 322.530915 
L 895.749309 219.097812 
" clip-path="url(#pea2b122c5a)" style="fill: none; stroke: #773adc; stroke-width: 2; stroke-linecap: square"/>
    <defs>
     <path id="m14d6def40e" d="M 0 3 
C 0.795609 3 1.55874 2.683901 2.12132 2.12132 
C 2.683901 1.55874 3 0.795609 3 0 
C 3 -0.795609 2.683901 -1.55874 2.12132 -2.12132 
C 1.55874 -2.683901 0.795609 -3 0 -3 
C -0.795609 -3 -1.55874 -2.683901 -2.12132 -2.12132 
C -2.683901 -1.55874 -3 -0.795609 -3 0 
C -3 0.795609 -2.683901 1.55874 -2.12132 2.12132 
C -1.55874 2.683901 -0.795609 3 0 3 
z
" style="stroke: #773adc"/>
    </defs>
    <g clip-path="url(#pea2b122c5a)">
     <use xlink:href="#m14d6def40e" x="895.749309" y="219.097812" style="fill: #773adc; stroke: #773adc"/>
     <use xlink:href="#m14d6def40e" x="759.299245" y="81.187009" style="fill: #773adc; stroke: #773adc"/>
     <use xlink:href="#m14d6def40e" x="597.175373" y="133.864249" style="fill: #773adc; stroke: #773adc"/>
     <use xlink:href="#m14d6def40e" x="567.846889" y="325.639767" style="fill: #773adc; stroke: #773adc"/>
     <use xlink:href="#m14d6def40e" x="748.096761" y="322.530915" style="fill: #773adc; stroke: #773adc"/>
     <use xlink:href="#m14d6def40e" x="895.749309" y="219.097812" style="fill: #773adc; stroke: #773adc"/>
    </g>
   </g>
   <g id="line2d_26">
    <path d="M 895.749309 219.097812 
L 770.501729 46.709308 
L 567.846889 112.555858 
L 567.846889 325.639767 
L 770.501729 391.486317 
L 895.749309 219.097812 
" clip-path="url(#pea2b122c5a)" style="fill: none; stroke: #107c10; stroke-width: 2; stroke-linecap: square"/>
    <defs>
     <path id="m966213a9d6" d="M 0 3 
C 0.795609 3 1.55874 2.683901 2.12132 2.12132 
C 2.683901 1.55874 3 0.795609 3 0 
C 3 -0.795609 2.683901 -1.55874 2.12132 -2.12132 
C 1.55874 -2.683901 0.795609 -3 0 -3 
C -0.795609 -3 -1.55874 -2.683901 -2.12132 -2.12132 
C -2.683901 -1.55874 -3 -0.795609 -3 0 
C -3 0.795609 -2.683901 1.55874 -2.12132 2.12132 
C -1.55874 2.683901 -0.795609 3 0 3 
z
" style="stroke: #107c10"/>
    </defs>
    <g clip-path="url(#pea2b122c5a)">
     <use xlink:href="#m966213a9d6" x="895.749309" y="219.097812" style="fill: #107c10; stroke: #107c10"/>
     <use xlink:href="#m966213a9d6" x="770.501729" y="46.709308" style="fill: #107c10; stroke: #107c10"/>
     <use xlink:href="#m966213a9d6" x="567.846889" y="112.555858" style="fill: #107c10; stroke: #107c10"/>
     <use xlink:href="#m966213a9d6" x="567.846889" y="325.639767" style="fill: #107c10; stroke: #107c10"/>
     <use xlink:href="#m966213a9d6" x="770.501729" y="391.486317" style="fill: #107c10; stroke: #107c10"/>
     <use xlink:href="#m966213a9d6" x="895.749309" y="219.097812" style="fill: #107c10; stroke: #107c10"/>
    </g>
   </g>
   <g id="patch_40">
    <path d="M 895.749309 219.097812 
C 895.749309 195.294967 891.060668 171.723575 881.951713 149.732614 
C 872.842759 127.741652 859.490637 107.758791 842.659484 90.927637 
C 825.828331 74.096484 805.845469 60.744363 783.854508 51.635408 
C 761.863547 42.526454 738.292154 37.837812 714.489309 37.837812 
C 690.686464 37.837812 667.115072 42.526454 645.12411 51.635408 
C 623.133149 60.744363 603.150287 74.096484 586.319134 90.927637 
C 569.487981 107.758791 556.135859 127.741652 547.026905 149.732614 
C 537.917951 171.723575 533.229309 195.294967 533.229309 219.097812 
C 533.229309 242.900658 537.917951 266.47205 547.026905 288.463011 
C 556.135859 310.453973 569.487981 330.436834 586.319134 347.267988 
C 603.150287 364.099141 623.133149 377.451262 645.12411 386.560217 
C 667.115072 395.669171 690.686464 400.357812 714.489309 400.357812 
C 738.292154 400.357812 761.863547 395.669171 783.854508 386.560217 
C 805.845469 377.451262 825.828331 364.099141 842.659484 347.267988 
C 859.490637 330.436834 872.842759 310.453973 881.951713 288.463011 
C 891.060668 266.47205 895.749309 242.900658 895.749309 219.097812 
" style="fill: none; stroke: #000000; stroke-width: 0.8; stroke-linejoin: miter; stroke-linecap: square"/>
   </g>
   <g id="text_52">
    <!-- Control Area Coverage -->
    <g transform="translate(625.14634 17.837812) scale(0.14 -0.14)">
     <defs>
      <path id="DejaVuSans-Bold-41" d="M 3419 850 
L 1538 850 
L 1241 0 
L 31 0 
L 1759 4666 
L 3194 4666 
L 4922 0 
L 3713 0 
L 3419 850 
z
M 1838 1716 
L 3116 1716 
L 2478 3572 
L 1838 1716 
z
" transform="scale(0.015625)"/>
     </defs>
     <use xlink:href="#DejaVuSans-Bold-43"/>
     <use xlink:href="#DejaVuSans-Bold-6f" transform="translate(73.388672 0)"/>
     <use xlink:href="#DejaVuSans-Bold-6e" transform="translate(142.089844 0)"/>
     <use xlink:href="#DejaVuSans-Bold-74" transform="translate(213.28125 0)"/>
     <use xlink:href="#DejaVuSans-Bold-72" transform="translate(261.083984 0)"/>
     <use xlink:href="#DejaVuSans-Bold-6f" transform="translate(310.400391 0)"/>
     <use xlink:href="#DejaVuSans-Bold-6c" transform="translate(379.101562 0)"/>
     <use xlink:href="#DejaVuSans-Bold-20" transform="translate(413.378906 0)"/>
     <use xlink:href="#DejaVuSans-Bold-41" transform="translate(448.193359 0)"/>
     <use xlink:href="#DejaVuSans-Bold-72" transform="translate(525.585938 0)"/>
     <use xlink:href="#DejaVuSans-Bold-65" transform="translate(574.902344 0)"/>
     <use xlink:href="#DejaVuSans-Bold-61" transform="translate(642.724609 0)"/>
     <use xlink:href="#DejaVuSans-Bold-20" transform="translate(710.205078 0)"/>
     <use xlink:href="#DejaVuSans-Bold-43" transform="translate(745.019531 0)"/>
     <use xlink:href="#DejaVuSans-Bold-6f" transform="translate(818.408203 0)"/>
     <use xlink:href="#DejaVuSans-Bold-76" transform="translate(887.109375 0)"/>
     <use xlink:href="#DejaVuSans-Bold-65" transform="translate(952.294922 0)"/>
     <use xlink:href="#DejaVuSans-Bold-72" transform="translate(1020.117188 0)"/>
     <use xlink:href="#DejaVuSans-Bold-61" transform="translate(1069.433594 0)"/>
     <use xlink:href="#DejaVuSans-Bold-67" transform="translate(1136.914062 0)"/>
     <use xlink:href="#DejaVuSans-Bold-65" transform="translate(1208.496094 0)"/>
    </g>
   </g>
   <g id="legend_1">
    <g id="patch_41">
     <path d="M 922.460465 97.879062 
L 998.205309 97.879062 
Q 1000.005309 97.879062 1000.005309 96.079062 
L 1000.005309 44.137812 
Q 1000.005309 42.337812 998.205309 42.337812 
L 922.460465 42.337812 
Q 920.660465 42.337812 920.660465 44.137812 
L 920.660465 96.079062 
Q 920.660465 97.879062 922.460465 97.879062 
z
" style="fill: #ffffff; opacity: 0.8; stroke: #cccccc; stroke-linejoin: miter"/>
    </g>
    <g id="line2d_27">
     <path d="M 924.260465 49.626406 
L 933.260465 49.626406 
L 942.260465 49.626406 
" style="fill: none; stroke: #0078d4; stroke-width: 2; stroke-linecap: square"/>
     <g>
      <use xlink:href="#mb7116c00dc" x="933.260465" y="49.626406" style="fill: #0078d4; stroke: #0078d4"/>
     </g>
    </g>
    <g id="text_53">
     <!-- SOC 2 -->
     <g transform="translate(949.460465 52.776406) scale(0.09 -0.09)">
      <use xlink:href="#DejaVuSans-53"/>
      <use xlink:href="#DejaVuSans-4f" transform="translate(63.476562 0)"/>
      <use xlink:href="#DejaVuSans-43" transform="translate(142.1875 0)"/>
      <use xlink:href="#DejaVuSans-20" transform="translate(212.011719 0)"/>
      <use xlink:href="#DejaVuSans-32" transform="translate(243.798828 0)"/>
     </g>
    </g>
    <g id="line2d_28">
     <path d="M 924.260465 62.836719 
L 933.260465 62.836719 
L 942.260465 62.836719 
" style="fill: none; stroke: #00bcf2; stroke-width: 2; stroke-linecap: square"/>
     <g>
      <use xlink:href="#me0ad570ec1" x="933.260465" y="62.836719" style="fill: #00bcf2; stroke: #00bcf2"/>
     </g>
    </g>
    <g id="text_54">
     <!-- ISO 27001 -->
     <g transform="translate(949.460465 65.986719) scale(0.09 -0.09)">
      <use xlink:href="#DejaVuSans-49"/>
      <use xlink:href="#DejaVuSans-53" transform="translate(29.492188 0)"/>
      <use xlink:href="#DejaVuSans-4f" transform="translate(92.96875 0)"/>
      <use xlink:href="#DejaVuSans-20" transform="translate(171.679688 0)"/>
      <use xlink:href="#DejaVuSans-32" transform="translate(203.466797 0)"/>
      <use xlink:href="#DejaVuSans-37" transform="translate(267.089844 0)"/>
      <use xlink:href="#DejaVuSans-30" transform="translate(330.712891 0)"/>
      <use xlink:href="#DejaVuSans-30" transform="translate(394.335938 0)"/>
      <use xlink:href="#DejaVuSans-31" transform="translate(457.958984 0)"/>
     </g>
    </g>
    <g id="line2d_29">
     <path d="M 924.260465 76.047031 
L 933.260465 76.047031 
L 942.260465 76.047031 
" style="fill: none; stroke: #773adc; stroke-width: 2; stroke-linecap: square"/>
     <g>
      <use xlink:href="#m14d6def40e" x="933.260465" y="76.047031" style="fill: #773adc; stroke: #773adc"/>
     </g>
    </g>
    <g id="text_55">
     <!-- GDPR -->
     <g transform="translate(949.460465 79.197031) scale(0.09 -0.09)">
      <use xlink:href="#DejaVuSans-47"/>
      <use xlink:href="#DejaVuSans-44" transform="translate(77.490234 0)"/>
      <use xlink:href="#DejaVuSans-50" transform="translate(154.492188 0)"/>
      <use xlink:href="#DejaVuSans-52" transform="translate(214.794922 0)"/>
     </g>
    </g>
    <g id="line2d_30">
     <path d="M 924.260465 89.257344 
L 933.260465 89.257344 
L 942.260465 89.257344 
" style="fill: none; stroke: #107c10; stroke-width: 2; stroke-linecap: square"/>
     <g>
      <use xlink:href="#m966213a9d6" x="933.260465" y="89.257344" style="fill: #107c10; stroke: #107c10"/>
     </g>
    </g>
    <g id="text_56">
     <!-- HIPAA -->
     <g transform="translate(949.460465 92.407344) scale(0.09 -0.09)">
      <use xlink:href="#DejaVuSans-48"/>
      <use xlink:href="#DejaVuSans-49" transform="translate(75.195312 0)"/>
      <use xlink:href="#DejaVuSans-50" transform="translate(104.6875 0)"/>
      <use xlink:href="#DejaVuSans-41" transform="translate(158.615234 0)"/>
      <use xlink:href="#DejaVuSans-41" transform="translate(229.773438 0)"/>
     </g>
    </g>
   </g>
  </g>
 </g>
 <defs>
  <clipPath id="pea2b122c5a">
   <path d="M 895.749309 219.097812 
C 895.749309 195.294967 891.060668 171.723575 881.951713 149.732614 
C 872.842759 127.741652 859.490637 107.758791 842.659484 90.927637 
C 825.828331 74.096484 805.845469 60.744363 783.854508 51.635408 
C 761.863547 42.526454 738.292154 37.837812 714.489309 37.837812 
C 690.686464 37.837812 667.115072 42.526454 645.12411 51.635408 
C 623.133149 60.744363 603.150287 74.096484 586.319134 90.927637 
C 569.487981 107.758791 556.135859 127.741652 547.026905 149.732614 
C 537.917951 171.723575 533.229309 195.294967 533.229309 219.097812 
C 533.229309 242.900658 537.917951 266.47205 547.026905 288.463011 
C 556.135859 310.453973 569.487981 330.436834 586.319134 347.267988 
C 603.150287 364.099141 623.133149 377.451262 645.12411 386.560217 
C 667.115072 395.669171 690.686464 400.357812 714.489309 400.357812 
C 738.292154 400.357812 761.863547 395.669171 783.854508 386.560217 
C 805.845469 377.451262 825.828331 364.099141 842.659484 347.267988 
C 859.490637 330.436834 872.842759 310.453973 881.951713 288.463011 
C 891.060668 266.47205 895.749309 242.900658 895.749309 219.097812 
M 714.489309 219.097812 
C 714.489309 219.097812 714.489309 219.097812 714.489309 219.097812 
C 714.489309 219.097812 714.489309 219.097812 714.489309 219.097812 
C 714.489309 219.097812 714.489309 219.097812 714.489309 219.097812 
C 714.489309 219.097812 714.489309 219.097812 714.489309 219.097812 
C 714.489309 219.097812 714.489309 219.097812 714.489309 219.097812 
C 714.489309 219.097812 714.489309 219.097812 714.489309 219.097812 
C 714.489309 219.097812 714.489309 219.097812 714.489309 219.097812 
C 714.489309 219.097812 714.489309 219.097812 714.489309 219.097812 
C 714.489309 219.097812 714.489309 219.097812 714.489309 219.097812 
C 714.489309 219.097812 714.489309 219.097812 714.489309 219.097812 
C 714.489309 219.097812 714.489309 219.097812 714.489309 219.097812 
C 714.489309 219.097812 714.489309 219.097812 714.489309 219.097812 
C 714.489309 219.097812 714.489309 219.097812 714.489309 219.097812 
C 714.489309 219.097812 714.489309 219.097812 714.489309 219.097812 
C 714.489309 219.097812 714.489309 219.097812 714.489309 219.097812 
C 714.489309 219.097812 714.489309 219.097812 714.489309 219.097812 
z
"/>
  </clipPath>
 </defs>
</svg>
