<?xml version="1.0" encoding="utf-8" standalone="no"?>
<!DOCTYPE svg PUBLIC "-//W3C//DTD SVG 1.1//EN"
  "http://www.w3.org/Graphics/SVG/1.1/DTD/svg11.dtd">
<svg xmlns:xlink="http://www.w3.org/1999/xlink" width="1000.8pt" height="591.12pt" viewBox="0 0 1000.8 591.12" xmlns="http://www.w3.org/2000/svg" version="1.1">
 <metadata>
  <rdf:RDF xmlns:dc="http://purl.org/dc/elements/1.1/" xmlns:cc="http://creativecommons.org/ns#" xmlns:rdf="http://www.w3.org/1999/02/22-rdf-syntax-ns#">
   <cc:Work>
    <dc:type rdf:resource="http://purl.org/dc/dcmitype/StillImage"/>
    <dc:date>2025-11-27T19:16:51.430761</dc:date>
    <dc:format>image/svg+xml</dc:format>
    <dc:creator>
     <cc:Agent>
      <dc:title>Matplotlib v3.10.7, https://matplotlib.org/</dc:title>
     </cc:Agent>
    </dc:creator>
   </cc:Work>
  </rdf:RDF>
 </metadata>
 <defs>
  <style type="text/css">*{stroke-linejoin: round; stroke-linecap: butt}</style>
 </defs>
 <g id="figure_1">
  <g id="patch_1">
   <path d="M 0 591.12 
L 1000.8 591.12 
L 1000.8 0 
L 0 0 
z
" style="fill: #ffffff"/>
  </g>
  <g id="axes_1">
   <g id="patch_2">
    <path d="M 31.59 568.044 
L 470.61 568.044 
Q 480.366 568.044 480.366 557.46 
L 480.366 107.64 
Q 480.366 97.056 470.61 97.056 
L 31.59 97.056 
Q 21.834 97.056 21.834 107.64 
L 21.834 557.46 
Q 21.834 568.044 31.59 568.044 
z
" clip-path="url(#pd1de7ccab2)" style="fill: #d4e9d7; opacity: 0.5; stroke: #107c10; stroke-width: 3; stroke-linejoin: miter"/>
   </g>
   <g id="patch_3">
    <path d="M 55.98 536.292 
L 446.22 536.292 
Q 451.098 536.292 451.098 531 
L 451.098 467.496 
Q 451.098 462.204 446.22 462.204 
L 55.98 462.204 
Q 51.102 462.204 51.102 467.496 
L 51.102 531 
Q 51.102 536.292 55.98 536.292 
z
" clip-path="url(#pd1de7ccab2)" style="fill: #666666; stroke: #ffffff; stroke-width: 2; stroke-linejoin: miter"/>
   </g>
   <g id="patch_4">
    <path d="M 55.98 456.912 
L 446.22 456.912 
Q 451.098 456.912 451.098 451.62 
L 451.098 388.116 
Q 451.098 382.824 446.22 382.824 
L 55.98 382.824 
Q 51.102 382.824 51.102 388.116 
L 51.102 451.62 
Q 51.102 456.912 55.98 456.912 
z
" clip-path="url(#pd1de7ccab2)" style="fill: #107c10; stroke: #ffffff; stroke-width: 2; stroke-linejoin: miter"/>
   </g>
   <g id="patch_5">
    <path d="M 80.37 351.072 
L 187.686 351.072 
Q 192.564 351.072 192.564 345.78 
L 192.564 160.56 
Q 192.564 155.268 187.686 155.268 
L 80.37 155.268 
Q 75.492 155.268 75.492 160.56 
L 75.492 345.78 
Q 75.492 351.072 80.37 351.072 
z
" clip-path="url(#pd1de7ccab2)" style="fill: #0078d4; stroke: #ffffff; stroke-width: 2; stroke-linejoin: miter"/>
   </g>
   <g id="patch_6">
    <path d="M 216.954 351.072 
L 324.27 351.072 
Q 329.148 351.072 329.148 345.78 
L 329.148 160.56 
Q 329.148 155.268 324.27 155.268 
L 216.954 155.268 
Q 212.076 155.268 212.076 160.56 
L 212.076 345.78 
Q 212.076 351.072 216.954 351.072 
z
" clip-path="url(#pd1de7ccab2)" style="fill: #ff8c00; stroke: #ffffff; stroke-width: 2; stroke-linejoin: miter"/>
   </g>
   <g id="patch_7">
    <path d="M 353.538 351.072 
L 460.854 351.072 
Q 465.732 351.072 465.732 345.78 
L 465.732 160.56 
Q 465.732 155.268 460.854 155.268 
L 353.538 155.268 
Q 348.66 155.268 348.66 160.56 
L 348.66 345.78 
Q 348.66 351.072 353.538 351.072 
z
" clip-path="url(#pd1de7ccab2)" style="fill: #004578; stroke: #ffffff; stroke-width: 2; stroke-linejoin: miter"/>
   </g>
   <g id="text_1">
    <!-- Type 1: Bare Metal Hypervisor -->
    <g style="fill: #107c10" transform="translate(148.974375 90.298125) scale(0.12 -0.12)">
     <defs>
      <path id="DejaVuSans-Bold-54" d="M 31 4666 
L 4331 4666 
L 4331 3756 
L 2784 3756 
L 2784 0 
L 1581 0 
L 1581 3756 
L 31 3756 
L 31 4666 
z
" transform="scale(0.015625)"/>
      <path id="DejaVuSans-Bold-79" d="M 78 3500 
L 1197 3500 
L 2138 1125 
L 2938 3500 
L 4056 3500 
L 2584 -331 
Q 2363 -916 2067 -1148 
Q 1772 -1381 1288 -1381 
L 641 -1381 
L 641 -647 
L 991 -647 
Q 1275 -647 1404 -556 
Q 1534 -466 1606 -231 
L 1638 -134 
L 78 3500 
z
" transform="scale(0.015625)"/>
      <path id="DejaVuSans-Bold-70" d="M 1656 506 
L 1656 -1331 
L 538 -1331 
L 538 3500 
L 1656 3500 
L 1656 2988 
Q 1888 3294 2169 3439 
Q 2450 3584 2816 3584 
Q 3463 3584 3878 3070 
Q 4294 2556 4294 1747 
Q 4294 938 3878 423 
Q 3463 -91 2816 -91 
Q 2450 -91 2169 54 
Q 1888 200 1656 506 
z
M 2400 2772 
Q 2041 2772 1848 2508 
Q 1656 2244 1656 1747 
Q 1656 1250 1848 986 
Q 2041 722 2400 722 
Q 2759 722 2948 984 
Q 3138 1247 3138 1747 
Q 3138 2247 2948 2509 
Q 2759 2772 2400 2772 
z
" transform="scale(0.015625)"/>
      <path id="DejaVuSans-Bold-65" d="M 4031 1759 
L 4031 1441 
L 1416 1441 
Q 1456 1047 1700 850 
Q 1944 653 2381 653 
Q 2734 653 3104 758 
Q 3475 863 3866 1075 
L 3866 213 
Q 3469 63 3072 -14 
Q 2675 -91 2278 -91 
Q 1328 -91 801 392 
Q 275 875 275 1747 
Q 275 2603 792 3093 
Q 1309 3584 2216 3584 
Q 3041 3584 3536 3087 
Q 4031 2591 4031 1759 
z
M 2881 2131 
Q 2881 2450 2695 2645 
Q 2509 2841 2209 2841 
Q 1884 2841 1681 2658 
Q 1478 2475 1428 2131 
L 2881 2131 
z
" transform="scale(0.015625)"/>
      <path id="DejaVuSans-Bold-20" transform="scale(0.015625)"/>
      <path id="DejaVuSans-Bold-31" d="M 750 831 
L 1813 831 
L 1813 3847 
L 722 3622 
L 722 4441 
L 1806 4666 
L 2950 4666 
L 2950 831 
L 4013 831 
L 4013 0 
L 750 0 
L 750 831 
z
" transform="scale(0.015625)"/>
      <path id="DejaVuSans-Bold-3a" d="M 716 3500 
L 1844 3500 
L 1844 2291 
L 716 2291 
L 716 3500 
z
M 716 1209 
L 1844 1209 
L 1844 0 
L 716 0 
L 716 1209 
z
" transform="scale(0.015625)"/>
      <path id="DejaVuSans-Bold-42" d="M 2456 2859 
Q 2741 2859 2887 2984 
Q 3034 3109 3034 3353 
Q 3034 3594 2887 3720 
Q 2741 3847 2456 3847 
L 1791 3847 
L 1791 2859 
L 2456 2859 
z
M 2497 819 
Q 2859 819 3042 972 
Q 3225 1125 3225 1434 
Q 3225 1738 3044 1889 
Q 2863 2041 2497 2041 
L 1791 2041 
L 1791 819 
L 2497 819 
z
M 3616 2497 
Q 4003 2384 4215 2081 
Q 4428 1778 4428 1338 
Q 4428 663 3972 331 
Q 3516 0 2584 0 
L 588 0 
L 588 4666 
L 2394 4666 
Q 3366 4666 3802 4372 
Q 4238 4078 4238 3431 
Q 4238 3091 4078 2852 
Q 3919 2613 3616 2497 
z
" transform="scale(0.015625)"/>
      <path id="DejaVuSans-Bold-61" d="M 2106 1575 
Q 1756 1575 1579 1456 
Q 1403 1338 1403 1106 
Q 1403 894 1545 773 
Q 1688 653 1941 653 
Q 2256 653 2472 879 
Q 2688 1106 2688 1447 
L 2688 1575 
L 2106 1575 
z
M 3816 1997 
L 3816 0 
L 2688 0 
L 2688 519 
Q 2463 200 2181 54 
Q 1900 -91 1497 -91 
Q 953 -91 614 226 
Q 275 544 275 1050 
Q 275 1666 698 1953 
Q 1122 2241 2028 2241 
L 2688 2241 
L 2688 2328 
Q 2688 2594 2478 2717 
Q 2269 2841 1825 2841 
Q 1466 2841 1156 2769 
Q 847 2697 581 2553 
L 581 3406 
Q 941 3494 1303 3539 
Q 1666 3584 2028 3584 
Q 2975 3584 3395 3211 
Q 3816 2838 3816 1997 
z
" transform="scale(0.015625)"/>
      <path id="DejaVuSans-Bold-72" d="M 3138 2547 
Q 2991 2616 2845 2648 
Q 2700 2681 2553 2681 
Q 2122 2681 1889 2404 
Q 1656 2128 1656 1613 
L 1656 0 
L 538 0 
L 538 3500 
L 1656 3500 
L 1656 2925 
Q 1872 3269 2151 3426 
Q 2431 3584 2822 3584 
Q 2878 3584 2943 3579 
Q 3009 3575 3134 3559 
L 3138 2547 
z
" transform="scale(0.015625)"/>
      <path id="DejaVuSans-Bold-4d" d="M 588 4666 
L 2119 4666 
L 3181 2169 
L 4250 4666 
L 5778 4666 
L 5778 0 
L 4641 0 
L 4641 3413 
L 3566 897 
L 2803 897 
L 1728 3413 
L 1728 0 
L 588 0 
L 588 4666 
z
" transform="scale(0.015625)"/>
      <path id="DejaVuSans-Bold-74" d="M 1759 4494 
L 1759 3500 
L 2913 3500 
L 2913 2700 
L 1759 2700 
L 1759 1216 
Q 1759 972 1856 886 
Q 1953 800 2241 800 
L 2816 800 
L 2816 0 
L 1856 0 
Q 1194 0 917 276 
Q 641 553 641 1216 
L 641 2700 
L 84 2700 
L 84 3500 
L 641 3500 
L 641 4494 
L 1759 4494 
z
" transform="scale(0.015625)"/>
      <path id="DejaVuSans-Bold-6c" d="M 538 4863 
L 1656 4863 
L 1656 0 
L 538 0 
L 538 4863 
z
" transform="scale(0.015625)"/>
      <path id="DejaVuSans-Bold-48" d="M 588 4666 
L 1791 4666 
L 1791 2888 
L 3566 2888 
L 3566 4666 
L 4769 4666 
L 4769 0 
L 3566 0 
L 3566 1978 
L 1791 1978 
L 1791 0 
L 588 0 
L 588 4666 
z
" transform="scale(0.015625)"/>
      <path id="DejaVuSans-Bold-76" d="M 97 3500 
L 1216 3500 
L 2088 1081 
L 2956 3500 
L 4078 3500 
L 2700 0 
L 1472 0 
L 97 3500 
z
" transform="scale(0.015625)"/>
      <path id="DejaVuSans-Bold-69" d="M 538 3500 
L 1656 3500 
L 1656 0 
L 538 0 
L 538 3500 
z
M 538 4863 
L 1656 4863 
L 1656 3950 
L 538 3950 
L 538 4863 
z
" transform="scale(0.015625)"/>
      <path id="DejaVuSans-Bold-73" d="M 3272 3391 
L 3272 2541 
Q 2913 2691 2578 2766 
Q 2244 2841 1947 2841 
Q 1628 2841 1473 2761 
Q 1319 2681 1319 2516 
Q 1319 2381 1436 2309 
Q 1553 2238 1856 2203 
L 2053 2175 
Q 2913 2066 3209 1816 
Q 3506 1566 3506 1031 
Q 3506 472 3093 190 
Q 2681 -91 1863 -91 
Q 1516 -91 1145 -36 
Q 775 19 384 128 
L 384 978 
Q 719 816 1070 734 
Q 1422 653 1784 653 
Q 2113 653 2278 743 
Q 2444 834 2444 1013 
Q 2444 1163 2330 1236 
Q 2216 1309 1875 1350 
L 1678 1375 
Q 931 1469 631 1722 
Q 331 1975 331 2491 
Q 331 3047 712 3315 
Q 1094 3584 1881 3584 
Q 2191 3584 2531 3537 
Q 2872 3491 3272 3391 
z
" transform="scale(0.015625)"/>
      <path id="DejaVuSans-Bold-6f" d="M 2203 2784 
Q 1831 2784 1636 2517 
Q 1441 2250 1441 1747 
Q 1441 1244 1636 976 
Q 1831 709 2203 709 
Q 2569 709 2762 976 
Q 2956 1244 2956 1747 
Q 2956 2250 2762 2517 
Q 2569 2784 2203 2784 
z
M 2203 3584 
Q 3106 3584 3614 3096 
Q 4122 2609 4122 1747 
Q 4122 884 3614 396 
Q 3106 -91 2203 -91 
Q 1297 -91 786 396 
Q 275 884 275 1747 
Q 275 2609 786 3096 
Q 1297 3584 2203 3584 
z
" transform="scale(0.015625)"/>
     </defs>
     <use xlink:href="#DejaVuSans-Bold-54"/>
     <use xlink:href="#DejaVuSans-Bold-79" transform="translate(56.337891 0)"/>
     <use xlink:href="#DejaVuSans-Bold-70" transform="translate(121.523438 0)"/>
     <use xlink:href="#DejaVuSans-Bold-65" transform="translate(193.105469 0)"/>
     <use xlink:href="#DejaVuSans-Bold-20" transform="translate(260.927734 0)"/>
     <use xlink:href="#DejaVuSans-Bold-31" transform="translate(295.742188 0)"/>
     <use xlink:href="#DejaVuSans-Bold-3a" transform="translate(365.322266 0)"/>
     <use xlink:href="#DejaVuSans-Bold-20" transform="translate(405.3125 0)"/>
     <use xlink:href="#DejaVuSans-Bold-42" transform="translate(440.126953 0)"/>
     <use xlink:href="#DejaVuSans-Bold-61" transform="translate(516.347656 0)"/>
     <use xlink:href="#DejaVuSans-Bold-72" transform="translate(583.828125 0)"/>
     <use xlink:href="#DejaVuSans-Bold-65" transform="translate(633.144531 0)"/>
     <use xlink:href="#DejaVuSans-Bold-20" transform="translate(700.966797 0)"/>
     <use xlink:href="#DejaVuSans-Bold-4d" transform="translate(735.78125 0)"/>
     <use xlink:href="#DejaVuSans-Bold-65" transform="translate(835.292969 0)"/>
     <use xlink:href="#DejaVuSans-Bold-74" transform="translate(903.115234 0)"/>
     <use xlink:href="#DejaVuSans-Bold-61" transform="translate(950.917969 0)"/>
     <use xlink:href="#DejaVuSans-Bold-6c" transform="translate(1018.398438 0)"/>
     <use xlink:href="#DejaVuSans-Bold-20" transform="translate(1052.675781 0)"/>
     <use xlink:href="#DejaVuSans-Bold-48" transform="translate(1087.490234 0)"/>
     <use xlink:href="#DejaVuSans-Bold-79" transform="translate(1171.181641 0)"/>
     <use xlink:href="#DejaVuSans-Bold-70" transform="translate(1236.367188 0)"/>
     <use xlink:href="#DejaVuSans-Bold-65" transform="translate(1307.949219 0)"/>
     <use xlink:href="#DejaVuSans-Bold-72" transform="translate(1375.771484 0)"/>
     <use xlink:href="#DejaVuSans-Bold-76" transform="translate(1425.087891 0)"/>
     <use xlink:href="#DejaVuSans-Bold-69" transform="translate(1490.273438 0)"/>
     <use xlink:href="#DejaVuSans-Bold-73" transform="translate(1524.550781 0)"/>
     <use xlink:href="#DejaVuSans-Bold-6f" transform="translate(1584.072266 0)"/>
     <use xlink:href="#DejaVuSans-Bold-72" transform="translate(1652.773438 0)"/>
    </g>
   </g>
   <g id="text_2">
    <!-- Physical Hardware -->
    <g style="fill: #ffffff" transform="translate(203.921719 496.622109) scale(0.09 -0.09)">
     <defs>
      <path id="DejaVuSans-Bold-50" d="M 588 4666 
L 2584 4666 
Q 3475 4666 3951 4270 
Q 4428 3875 4428 3144 
Q 4428 2409 3951 2014 
Q 3475 1619 2584 1619 
L 1791 1619 
L 1791 0 
L 588 0 
L 588 4666 
z
M 1791 3794 
L 1791 2491 
L 2456 2491 
Q 2806 2491 2997 2661 
Q 3188 2831 3188 3144 
Q 3188 3456 2997 3625 
Q 2806 3794 2456 3794 
L 1791 3794 
z
" transform="scale(0.015625)"/>
      <path id="DejaVuSans-Bold-68" d="M 4056 2131 
L 4056 0 
L 2931 0 
L 2931 347 
L 2931 1625 
Q 2931 2084 2911 2256 
Q 2891 2428 2841 2509 
Q 2775 2619 2662 2680 
Q 2550 2741 2406 2741 
Q 2056 2741 1856 2470 
Q 1656 2200 1656 1722 
L 1656 0 
L 538 0 
L 538 4863 
L 1656 4863 
L 1656 2988 
Q 1909 3294 2193 3439 
Q 2478 3584 2822 3584 
Q 3428 3584 3742 3212 
Q 4056 2841 4056 2131 
z
" transform="scale(0.015625)"/>
      <path id="DejaVuSans-Bold-63" d="M 3366 3391 
L 3366 2478 
Q 3138 2634 2908 2709 
Q 2678 2784 2431 2784 
Q 1963 2784 1702 2511 
Q 1441 2238 1441 1747 
Q 1441 1256 1702 982 
Q 1963 709 2431 709 
Q 2694 709 2930 787 
Q 3166 866 3366 1019 
L 3366 103 
Q 3103 6 2833 -42 
Q 2563 -91 2291 -91 
Q 1344 -91 809 395 
Q 275 881 275 1747 
Q 275 2613 809 3098 
Q 1344 3584 2291 3584 
Q 2566 3584 2833 3536 
Q 3100 3488 3366 3391 
z
" transform="scale(0.015625)"/>
      <path id="DejaVuSans-Bold-64" d="M 2919 2988 
L 2919 4863 
L 4044 4863 
L 4044 0 
L 2919 0 
L 2919 506 
Q 2688 197 2409 53 
Q 2131 -91 1766 -91 
Q 1119 -91 703 423 
Q 288 938 288 1747 
Q 288 2556 703 3070 
Q 1119 3584 1766 3584 
Q 2128 3584 2408 3439 
Q 2688 3294 2919 2988 
z
M 2181 722 
Q 2541 722 2730 984 
Q 2919 1247 2919 1747 
Q 2919 2247 2730 2509 
Q 2541 2772 2181 2772 
Q 1825 2772 1636 2509 
Q 1447 2247 1447 1747 
Q 1447 1247 1636 984 
Q 1825 722 2181 722 
z
" transform="scale(0.015625)"/>
      <path id="DejaVuSans-Bold-77" d="M 225 3500 
L 1313 3500 
L 1900 1088 
L 2491 3500 
L 3425 3500 
L 4013 1113 
L 4603 3500 
L 5691 3500 
L 4769 0 
L 3547 0 
L 2956 2406 
L 2369 0 
L 1147 0 
L 225 3500 
z
" transform="scale(0.015625)"/>
     </defs>
     <use xlink:href="#DejaVuSans-Bold-50"/>
     <use xlink:href="#DejaVuSans-Bold-68" transform="translate(73.291016 0)"/>
     <use xlink:href="#DejaVuSans-Bold-79" transform="translate(144.482422 0)"/>
     <use xlink:href="#DejaVuSans-Bold-73" transform="translate(209.667969 0)"/>
     <use xlink:href="#DejaVuSans-Bold-69" transform="translate(269.189453 0)"/>
     <use xlink:href="#DejaVuSans-Bold-63" transform="translate(303.466797 0)"/>
     <use xlink:href="#DejaVuSans-Bold-61" transform="translate(362.744141 0)"/>
     <use xlink:href="#DejaVuSans-Bold-6c" transform="translate(430.224609 0)"/>
     <use xlink:href="#DejaVuSans-Bold-20" transform="translate(464.501953 0)"/>
     <use xlink:href="#DejaVuSans-Bold-48" transform="translate(499.316406 0)"/>
     <use xlink:href="#DejaVuSans-Bold-61" transform="translate(583.007812 0)"/>
     <use xlink:href="#DejaVuSans-Bold-72" transform="translate(650.488281 0)"/>
     <use xlink:href="#DejaVuSans-Bold-64" transform="translate(699.804688 0)"/>
     <use xlink:href="#DejaVuSans-Bold-77" transform="translate(771.386719 0)"/>
     <use xlink:href="#DejaVuSans-Bold-61" transform="translate(863.769531 0)"/>
     <use xlink:href="#DejaVuSans-Bold-72" transform="translate(931.25 0)"/>
     <use xlink:href="#DejaVuSans-Bold-65" transform="translate(980.566406 0)"/>
    </g>
    <!-- (CPU, RAM, Storage, Network) -->
    <g style="fill: #ffffff" transform="translate(174.036094 506.770453) scale(0.09 -0.09)">
     <defs>
      <path id="DejaVuSans-Bold-28" d="M 2413 -844 
L 1484 -844 
Q 1006 -72 778 623 
Q 550 1319 550 2003 
Q 550 2688 779 3389 
Q 1009 4091 1484 4856 
L 2413 4856 
Q 2013 4116 1813 3408 
Q 1613 2700 1613 2009 
Q 1613 1319 1811 609 
Q 2009 -100 2413 -844 
z
" transform="scale(0.015625)"/>
      <path id="DejaVuSans-Bold-43" d="M 4288 256 
Q 3956 84 3597 -3 
Q 3238 -91 2847 -91 
Q 1681 -91 1000 561 
Q 319 1213 319 2328 
Q 319 3447 1000 4098 
Q 1681 4750 2847 4750 
Q 3238 4750 3597 4662 
Q 3956 4575 4288 4403 
L 4288 3438 
Q 3953 3666 3628 3772 
Q 3303 3878 2944 3878 
Q 2300 3878 1931 3465 
Q 1563 3053 1563 2328 
Q 1563 1606 1931 1193 
Q 2300 781 2944 781 
Q 3303 781 3628 887 
Q 3953 994 4288 1222 
L 4288 256 
z
" transform="scale(0.015625)"/>
      <path id="DejaVuSans-Bold-55" d="M 588 4666 
L 1791 4666 
L 1791 1869 
Q 1791 1291 1980 1042 
Q 2169 794 2597 794 
Q 3028 794 3217 1042 
Q 3406 1291 3406 1869 
L 3406 4666 
L 4609 4666 
L 4609 1869 
Q 4609 878 4112 393 
Q 3616 -91 2597 -91 
Q 1581 -91 1084 393 
Q 588 878 588 1869 
L 588 4666 
z
" transform="scale(0.015625)"/>
      <path id="DejaVuSans-Bold-2c" d="M 653 1209 
L 1778 1209 
L 1778 256 
L 1006 -909 
L 341 -909 
L 653 256 
L 653 1209 
z
" transform="scale(0.015625)"/>
      <path id="DejaVuSans-Bold-52" d="M 2297 2597 
Q 2675 2597 2839 2737 
Q 3003 2878 3003 3200 
Q 3003 3519 2839 3656 
Q 2675 3794 2297 3794 
L 1791 3794 
L 1791 2597 
L 2297 2597 
z
M 1791 1766 
L 1791 0 
L 588 0 
L 588 4666 
L 2425 4666 
Q 3347 4666 3776 4356 
Q 4206 4047 4206 3378 
Q 4206 2916 3982 2619 
Q 3759 2322 3309 2181 
Q 3556 2125 3751 1926 
Q 3947 1728 4147 1325 
L 4800 0 
L 3519 0 
L 2950 1159 
Q 2778 1509 2601 1637 
Q 2425 1766 2131 1766 
L 1791 1766 
z
" transform="scale(0.015625)"/>
      <path id="DejaVuSans-Bold-41" d="M 3419 850 
L 1538 850 
L 1241 0 
L 31 0 
L 1759 4666 
L 3194 4666 
L 4922 0 
L 3713 0 
L 3419 850 
z
M 1838 1716 
L 3116 1716 
L 2478 3572 
L 1838 1716 
z
" transform="scale(0.015625)"/>
      <path id="DejaVuSans-Bold-53" d="M 3834 4519 
L 3834 3531 
Q 3450 3703 3084 3790 
Q 2719 3878 2394 3878 
Q 1963 3878 1756 3759 
Q 1550 3641 1550 3391 
Q 1550 3203 1689 3098 
Q 1828 2994 2194 2919 
L 2706 2816 
Q 3484 2659 3812 2340 
Q 4141 2022 4141 1434 
Q 4141 663 3683 286 
Q 3225 -91 2284 -91 
Q 1841 -91 1394 -6 
Q 947 78 500 244 
L 500 1259 
Q 947 1022 1364 901 
Q 1781 781 2169 781 
Q 2563 781 2772 912 
Q 2981 1044 2981 1288 
Q 2981 1506 2839 1625 
Q 2697 1744 2272 1838 
L 1806 1941 
Q 1106 2091 782 2419 
Q 459 2747 459 3303 
Q 459 4000 909 4375 
Q 1359 4750 2203 4750 
Q 2588 4750 2994 4692 
Q 3400 4634 3834 4519 
z
" transform="scale(0.015625)"/>
      <path id="DejaVuSans-Bold-67" d="M 2919 594 
Q 2688 288 2409 144 
Q 2131 0 1766 0 
Q 1125 0 706 504 
Q 288 1009 288 1791 
Q 288 2575 706 3076 
Q 1125 3578 1766 3578 
Q 2131 3578 2409 3434 
Q 2688 3291 2919 2981 
L 2919 3500 
L 4044 3500 
L 4044 353 
Q 4044 -491 3511 -936 
Q 2978 -1381 1966 -1381 
Q 1638 -1381 1331 -1331 
Q 1025 -1281 716 -1178 
L 716 -306 
Q 1009 -475 1290 -558 
Q 1572 -641 1856 -641 
Q 2406 -641 2662 -400 
Q 2919 -159 2919 353 
L 2919 594 
z
M 2181 2772 
Q 1834 2772 1640 2515 
Q 1447 2259 1447 1791 
Q 1447 1309 1634 1061 
Q 1822 813 2181 813 
Q 2531 813 2725 1069 
Q 2919 1325 2919 1791 
Q 2919 2259 2725 2515 
Q 2531 2772 2181 2772 
z
" transform="scale(0.015625)"/>
      <path id="DejaVuSans-Bold-4e" d="M 588 4666 
L 1931 4666 
L 3628 1466 
L 3628 4666 
L 4769 4666 
L 4769 0 
L 3425 0 
L 1728 3200 
L 1728 0 
L 588 0 
L 588 4666 
z
" transform="scale(0.015625)"/>
      <path id="DejaVuSans-Bold-6b" d="M 538 4863 
L 1656 4863 
L 1656 2216 
L 2944 3500 
L 4244 3500 
L 2534 1894 
L 4378 0 
L 3022 0 
L 1656 1459 
L 1656 0 
L 538 0 
L 538 4863 
z
" transform="scale(0.015625)"/>
      <path id="DejaVuSans-Bold-29" d="M 513 -844 
Q 913 -100 1113 609 
Q 1313 1319 1313 2009 
Q 1313 2700 1113 3408 
Q 913 4116 513 4856 
L 1441 4856 
Q 1916 4091 2145 3389 
Q 2375 2688 2375 2003 
Q 2375 1319 2147 623 
Q 1919 -72 1441 -844 
L 513 -844 
z
" transform="scale(0.015625)"/>
     </defs>
     <use xlink:href="#DejaVuSans-Bold-28"/>
     <use xlink:href="#DejaVuSans-Bold-43" transform="translate(45.703125 0)"/>
     <use xlink:href="#DejaVuSans-Bold-50" transform="translate(119.091797 0)"/>
     <use xlink:href="#DejaVuSans-Bold-55" transform="translate(192.382812 0)"/>
     <use xlink:href="#DejaVuSans-Bold-2c" transform="translate(273.583984 0)"/>
     <use xlink:href="#DejaVuSans-Bold-20" transform="translate(311.572266 0)"/>
     <use xlink:href="#DejaVuSans-Bold-52" transform="translate(346.386719 0)"/>
     <use xlink:href="#DejaVuSans-Bold-41" transform="translate(423.388672 0)"/>
     <use xlink:href="#DejaVuSans-Bold-4d" transform="translate(500.78125 0)"/>
     <use xlink:href="#DejaVuSans-Bold-2c" transform="translate(600.292969 0)"/>
     <use xlink:href="#DejaVuSans-Bold-20" transform="translate(638.28125 0)"/>
     <use xlink:href="#DejaVuSans-Bold-53" transform="translate(673.095703 0)"/>
     <use xlink:href="#DejaVuSans-Bold-74" transform="translate(745.117188 0)"/>
     <use xlink:href="#DejaVuSans-Bold-6f" transform="translate(792.919922 0)"/>
     <use xlink:href="#DejaVuSans-Bold-72" transform="translate(861.621094 0)"/>
     <use xlink:href="#DejaVuSans-Bold-61" transform="translate(910.9375 0)"/>
     <use xlink:href="#DejaVuSans-Bold-67" transform="translate(978.417969 0)"/>
     <use xlink:href="#DejaVuSans-Bold-65" transform="translate(1050 0)"/>
     <use xlink:href="#DejaVuSans-Bold-2c" transform="translate(1117.822266 0)"/>
     <use xlink:href="#DejaVuSans-Bold-20" transform="translate(1155.810547 0)"/>
     <use xlink:href="#DejaVuSans-Bold-4e" transform="translate(1190.625 0)"/>
     <use xlink:href="#DejaVuSans-Bold-65" transform="translate(1274.316406 0)"/>
     <use xlink:href="#DejaVuSans-Bold-74" transform="translate(1342.138672 0)"/>
     <use xlink:href="#DejaVuSans-Bold-77" transform="translate(1389.941406 0)"/>
     <use xlink:href="#DejaVuSans-Bold-6f" transform="translate(1482.324219 0)"/>
     <use xlink:href="#DejaVuSans-Bold-72" transform="translate(1551.025391 0)"/>
     <use xlink:href="#DejaVuSans-Bold-6b" transform="translate(1600.341797 0)"/>
     <use xlink:href="#DejaVuSans-Bold-29" transform="translate(1666.845703 0)"/>
    </g>
   </g>
   <g id="text_3">
    <!-- Hypervisor (Hyper-V, ESXi, KVM) -->
    <g style="fill: #ffffff" transform="translate(159.657031 422.588312) scale(0.1 -0.1)">
     <defs>
      <path id="DejaVuSans-Bold-2d" d="M 347 2297 
L 2309 2297 
L 2309 1388 
L 347 1388 
L 347 2297 
z
" transform="scale(0.015625)"/>
      <path id="DejaVuSans-Bold-56" d="M 31 4666 
L 1241 4666 
L 2478 1222 
L 3713 4666 
L 4922 4666 
L 3194 0 
L 1759 0 
L 31 4666 
z
" transform="scale(0.015625)"/>
      <path id="DejaVuSans-Bold-45" d="M 588 4666 
L 3834 4666 
L 3834 3756 
L 1791 3756 
L 1791 2888 
L 3713 2888 
L 3713 1978 
L 1791 1978 
L 1791 909 
L 3903 909 
L 3903 0 
L 588 0 
L 588 4666 
z
" transform="scale(0.015625)"/>
      <path id="DejaVuSans-Bold-58" d="M 3188 2381 
L 4806 0 
L 3553 0 
L 2463 1594 
L 1381 0 
L 122 0 
L 1741 2381 
L 184 4666 
L 1441 4666 
L 2463 3163 
L 3481 4666 
L 4744 4666 
L 3188 2381 
z
" transform="scale(0.015625)"/>
      <path id="DejaVuSans-Bold-4b" d="M 588 4666 
L 1791 4666 
L 1791 2963 
L 3525 4666 
L 4922 4666 
L 2675 2456 
L 5153 0 
L 3647 0 
L 1791 1838 
L 1791 0 
L 588 0 
L 588 4666 
z
" transform="scale(0.015625)"/>
     </defs>
     <use xlink:href="#DejaVuSans-Bold-48"/>
     <use xlink:href="#DejaVuSans-Bold-79" transform="translate(83.691406 0)"/>
     <use xlink:href="#DejaVuSans-Bold-70" transform="translate(148.876953 0)"/>
     <use xlink:href="#DejaVuSans-Bold-65" transform="translate(220.458984 0)"/>
     <use xlink:href="#DejaVuSans-Bold-72" transform="translate(288.28125 0)"/>
     <use xlink:href="#DejaVuSans-Bold-76" transform="translate(337.597656 0)"/>
     <use xlink:href="#DejaVuSans-Bold-69" transform="translate(402.783203 0)"/>
     <use xlink:href="#DejaVuSans-Bold-73" transform="translate(437.060547 0)"/>
     <use xlink:href="#DejaVuSans-Bold-6f" transform="translate(496.582031 0)"/>
     <use xlink:href="#DejaVuSans-Bold-72" transform="translate(565.283203 0)"/>
     <use xlink:href="#DejaVuSans-Bold-20" transform="translate(614.599609 0)"/>
     <use xlink:href="#DejaVuSans-Bold-28" transform="translate(649.414062 0)"/>
     <use xlink:href="#DejaVuSans-Bold-48" transform="translate(695.117188 0)"/>
     <use xlink:href="#DejaVuSans-Bold-79" transform="translate(778.808594 0)"/>
     <use xlink:href="#DejaVuSans-Bold-70" transform="translate(843.994141 0)"/>
     <use xlink:href="#DejaVuSans-Bold-65" transform="translate(915.576172 0)"/>
     <use xlink:href="#DejaVuSans-Bold-72" transform="translate(983.398438 0)"/>
     <use xlink:href="#DejaVuSans-Bold-2d" transform="translate(1032.714844 0)"/>
     <use xlink:href="#DejaVuSans-Bold-56" transform="translate(1066.96875 0)"/>
     <use xlink:href="#DejaVuSans-Bold-2c" transform="translate(1131.486328 0)"/>
     <use xlink:href="#DejaVuSans-Bold-20" transform="translate(1169.474609 0)"/>
     <use xlink:href="#DejaVuSans-Bold-45" transform="translate(1204.289062 0)"/>
     <use xlink:href="#DejaVuSans-Bold-53" transform="translate(1272.599609 0)"/>
     <use xlink:href="#DejaVuSans-Bold-58" transform="translate(1344.621094 0)"/>
     <use xlink:href="#DejaVuSans-Bold-69" transform="translate(1421.720703 0)"/>
     <use xlink:href="#DejaVuSans-Bold-2c" transform="translate(1455.998047 0)"/>
     <use xlink:href="#DejaVuSans-Bold-20" transform="translate(1493.986328 0)"/>
     <use xlink:href="#DejaVuSans-Bold-4b" transform="translate(1528.800781 0)"/>
     <use xlink:href="#DejaVuSans-Bold-56" transform="translate(1606.291016 0)"/>
     <use xlink:href="#DejaVuSans-Bold-4d" transform="translate(1683.683594 0)"/>
     <use xlink:href="#DejaVuSans-Bold-29" transform="translate(1783.195312 0)"/>
    </g>
   </g>
   <g id="text_4">
    <!-- VM 1 -->
    <g style="fill: #ffffff" transform="translate(121.369641 250.614422) scale(0.09 -0.09)">
     <use xlink:href="#DejaVuSans-Bold-56"/>
     <use xlink:href="#DejaVuSans-Bold-4d" transform="translate(77.392578 0)"/>
     <use xlink:href="#DejaVuSans-Bold-20" transform="translate(176.904297 0)"/>
     <use xlink:href="#DejaVuSans-Bold-31" transform="translate(211.71875 0)"/>
    </g>
    <!-- Windows -->
    <g style="fill: #ffffff" transform="translate(111.170109 260.692453) scale(0.09 -0.09)">
     <defs>
      <path id="DejaVuSans-Bold-57" d="M 191 4666 
L 1344 4666 
L 2150 1275 
L 2950 4666 
L 4109 4666 
L 4909 1275 
L 5716 4666 
L 6859 4666 
L 5759 0 
L 4372 0 
L 3525 3547 
L 2688 0 
L 1300 0 
L 191 4666 
z
" transform="scale(0.015625)"/>
      <path id="DejaVuSans-Bold-6e" d="M 4056 2131 
L 4056 0 
L 2931 0 
L 2931 347 
L 2931 1631 
Q 2931 2084 2911 2256 
Q 2891 2428 2841 2509 
Q 2775 2619 2662 2680 
Q 2550 2741 2406 2741 
Q 2056 2741 1856 2470 
Q 1656 2200 1656 1722 
L 1656 0 
L 538 0 
L 538 3500 
L 1656 3500 
L 1656 2988 
Q 1909 3294 2193 3439 
Q 2478 3584 2822 3584 
Q 3428 3584 3742 3212 
Q 4056 2841 4056 2131 
z
" transform="scale(0.015625)"/>
     </defs>
     <use xlink:href="#DejaVuSans-Bold-57"/>
     <use xlink:href="#DejaVuSans-Bold-69" transform="translate(110.302734 0)"/>
     <use xlink:href="#DejaVuSans-Bold-6e" transform="translate(144.580078 0)"/>
     <use xlink:href="#DejaVuSans-Bold-64" transform="translate(215.771484 0)"/>
     <use xlink:href="#DejaVuSans-Bold-6f" transform="translate(287.353516 0)"/>
     <use xlink:href="#DejaVuSans-Bold-77" transform="translate(356.054688 0)"/>
     <use xlink:href="#DejaVuSans-Bold-73" transform="translate(448.4375 0)"/>
    </g>
   </g>
   <g id="text_5">
    <!-- VM 2 -->
    <g style="fill: #ffffff" transform="translate(257.953641 250.614422) scale(0.09 -0.09)">
     <defs>
      <path id="DejaVuSans-Bold-32" d="M 1844 884 
L 3897 884 
L 3897 0 
L 506 0 
L 506 884 
L 2209 2388 
Q 2438 2594 2547 2791 
Q 2656 2988 2656 3200 
Q 2656 3528 2436 3728 
Q 2216 3928 1850 3928 
Q 1569 3928 1234 3808 
Q 900 3688 519 3450 
L 519 4475 
Q 925 4609 1322 4679 
Q 1719 4750 2100 4750 
Q 2938 4750 3402 4381 
Q 3866 4013 3866 3353 
Q 3866 2972 3669 2642 
Q 3472 2313 2841 1759 
L 1844 884 
z
" transform="scale(0.015625)"/>
     </defs>
     <use xlink:href="#DejaVuSans-Bold-56"/>
     <use xlink:href="#DejaVuSans-Bold-4d" transform="translate(77.392578 0)"/>
     <use xlink:href="#DejaVuSans-Bold-20" transform="translate(176.904297 0)"/>
     <use xlink:href="#DejaVuSans-Bold-32" transform="translate(211.71875 0)"/>
    </g>
    <!-- Linux -->
    <g style="fill: #ffffff" transform="translate(256.892625 260.692453) scale(0.09 -0.09)">
     <defs>
      <path id="DejaVuSans-Bold-4c" d="M 588 4666 
L 1791 4666 
L 1791 909 
L 3903 909 
L 3903 0 
L 588 0 
L 588 4666 
z
" transform="scale(0.015625)"/>
      <path id="DejaVuSans-Bold-75" d="M 500 1363 
L 500 3500 
L 1625 3500 
L 1625 3150 
Q 1625 2866 1622 2436 
Q 1619 2006 1619 1863 
Q 1619 1441 1641 1255 
Q 1663 1069 1716 984 
Q 1784 875 1895 815 
Q 2006 756 2150 756 
Q 2500 756 2700 1025 
Q 2900 1294 2900 1772 
L 2900 3500 
L 4019 3500 
L 4019 0 
L 2900 0 
L 2900 506 
Q 2647 200 2364 54 
Q 2081 -91 1741 -91 
Q 1134 -91 817 281 
Q 500 653 500 1363 
z
" transform="scale(0.015625)"/>
      <path id="DejaVuSans-Bold-78" d="M 1422 1791 
L 159 3500 
L 1344 3500 
L 2059 2463 
L 2784 3500 
L 3969 3500 
L 2706 1797 
L 4031 0 
L 2847 0 
L 2059 1106 
L 1281 0 
L 97 0 
L 1422 1791 
z
" transform="scale(0.015625)"/>
     </defs>
     <use xlink:href="#DejaVuSans-Bold-4c"/>
     <use xlink:href="#DejaVuSans-Bold-69" transform="translate(63.720703 0)"/>
     <use xlink:href="#DejaVuSans-Bold-6e" transform="translate(97.998047 0)"/>
     <use xlink:href="#DejaVuSans-Bold-75" transform="translate(169.189453 0)"/>
     <use xlink:href="#DejaVuSans-Bold-78" transform="translate(240.380859 0)"/>
    </g>
   </g>
   <g id="text_6">
    <!-- VM 3 -->
    <g style="fill: #ffffff" transform="translate(394.537641 250.614422) scale(0.09 -0.09)">
     <defs>
      <path id="DejaVuSans-Bold-33" d="M 2981 2516 
Q 3453 2394 3698 2092 
Q 3944 1791 3944 1325 
Q 3944 631 3412 270 
Q 2881 -91 1863 -91 
Q 1503 -91 1142 -33 
Q 781 25 428 141 
L 428 1069 
Q 766 900 1098 814 
Q 1431 728 1753 728 
Q 2231 728 2486 893 
Q 2741 1059 2741 1369 
Q 2741 1688 2480 1852 
Q 2219 2016 1709 2016 
L 1228 2016 
L 1228 2791 
L 1734 2791 
Q 2188 2791 2409 2933 
Q 2631 3075 2631 3366 
Q 2631 3634 2415 3781 
Q 2200 3928 1806 3928 
Q 1516 3928 1219 3862 
Q 922 3797 628 3669 
L 628 4550 
Q 984 4650 1334 4700 
Q 1684 4750 2022 4750 
Q 2931 4750 3382 4451 
Q 3834 4153 3834 3553 
Q 3834 3144 3618 2883 
Q 3403 2622 2981 2516 
z
" transform="scale(0.015625)"/>
     </defs>
     <use xlink:href="#DejaVuSans-Bold-56"/>
     <use xlink:href="#DejaVuSans-Bold-4d" transform="translate(77.392578 0)"/>
     <use xlink:href="#DejaVuSans-Bold-20" transform="translate(176.904297 0)"/>
     <use xlink:href="#DejaVuSans-Bold-33" transform="translate(211.71875 0)"/>
    </g>
    <!-- Windows -->
    <g style="fill: #ffffff" transform="translate(384.338109 260.692453) scale(0.09 -0.09)">
     <use xlink:href="#DejaVuSans-Bold-57"/>
     <use xlink:href="#DejaVuSans-Bold-69" transform="translate(110.302734 0)"/>
     <use xlink:href="#DejaVuSans-Bold-6e" transform="translate(144.580078 0)"/>
     <use xlink:href="#DejaVuSans-Bold-64" transform="translate(215.771484 0)"/>
     <use xlink:href="#DejaVuSans-Bold-6f" transform="translate(287.353516 0)"/>
     <use xlink:href="#DejaVuSans-Bold-77" transform="translate(356.054688 0)"/>
     <use xlink:href="#DejaVuSans-Bold-73" transform="translate(448.4375 0)"/>
    </g>
   </g>
   <g id="patch_8">
    <path d="M 134.028 386.11858 
Q 134.028 366.951353 134.028 350.020194 
" style="fill: none; stroke: #107c10; stroke-width: 2; stroke-linecap: round"/>
    <path d="M 132.028 354.020194 
L 134.028 350.020194 
L 136.028 354.020194 
" style="fill: none; stroke: #107c10; stroke-width: 2; stroke-linecap: round"/>
   </g>
   <g id="patch_9">
    <path d="M 270.612 386.11858 
Q 270.612 366.951353 270.612 350.020194 
" style="fill: none; stroke: #107c10; stroke-width: 2; stroke-linecap: round"/>
    <path d="M 268.612 354.020194 
L 270.612 350.020194 
L 272.612 354.020194 
" style="fill: none; stroke: #107c10; stroke-width: 2; stroke-linecap: round"/>
   </g>
   <g id="patch_10">
    <path d="M 407.196 386.11858 
Q 407.196 366.951353 407.196 350.020194 
" style="fill: none; stroke: #107c10; stroke-width: 2; stroke-linecap: round"/>
    <path d="M 405.196 354.020194 
L 407.196 350.020194 
L 409.196 354.020194 
" style="fill: none; stroke: #107c10; stroke-width: 2; stroke-linecap: round"/>
   </g>
   <g id="text_7">
    <!-- ✓ Better Performance  ✓ Direct Hardware Access  ✓ Enterprise Grade -->
    <g style="fill: #107c10" transform="translate(111.51625 120.4315) scale(0.08 -0.08)">
     <defs>
      <path id="DejaVuSans-2713" d="M 1416 2044 
Q 1538 2044 1600 1844 
Q 1725 1469 1778 1469 
Q 1819 1469 1863 1531 
Q 2741 2938 3488 3806 
Q 3681 4031 4103 4031 
Q 4203 4031 4237 4012 
Q 4272 3994 4272 3966 
Q 4272 3922 4169 3794 
Q 2963 2344 1931 731 
Q 1859 619 1638 619 
Q 1413 619 1372 638 
Q 1266 684 1122 1116 
Q 959 1594 959 1716 
Q 959 1847 1178 1969 
Q 1313 2044 1416 2044 
z
" transform="scale(0.015625)"/>
      <path id="DejaVuSans-20" transform="scale(0.015625)"/>
      <path id="DejaVuSans-42" d="M 1259 2228 
L 1259 519 
L 2272 519 
Q 2781 519 3026 730 
Q 3272 941 3272 1375 
Q 3272 1813 3026 2020 
Q 2781 2228 2272 2228 
L 1259 2228 
z
M 1259 4147 
L 1259 2741 
L 2194 2741 
Q 2656 2741 2882 2914 
Q 3109 3088 3109 3444 
Q 3109 3797 2882 3972 
Q 2656 4147 2194 4147 
L 1259 4147 
z
M 628 4666 
L 2241 4666 
Q 2963 4666 3353 4366 
Q 3744 4066 3744 3513 
Q 3744 3084 3544 2831 
Q 3344 2578 2956 2516 
Q 3422 2416 3680 2098 
Q 3938 1781 3938 1306 
Q 3938 681 3513 340 
Q 3088 0 2303 0 
L 628 0 
L 628 4666 
z
" transform="scale(0.015625)"/>
      <path id="DejaVuSans-65" d="M 3597 1894 
L 3597 1613 
L 953 1613 
Q 991 1019 1311 708 
Q 1631 397 2203 397 
Q 2534 397 2845 478 
Q 3156 559 3463 722 
L 3463 178 
Q 3153 47 2828 -22 
Q 2503 -91 2169 -91 
Q 1331 -91 842 396 
Q 353 884 353 1716 
Q 353 2575 817 3079 
Q 1281 3584 2069 3584 
Q 2775 3584 3186 3129 
Q 3597 2675 3597 1894 
z
M 3022 2063 
Q 3016 2534 2758 2815 
Q 2500 3097 2075 3097 
Q 1594 3097 1305 2825 
Q 1016 2553 972 2059 
L 3022 2063 
z
" transform="scale(0.015625)"/>
      <path id="DejaVuSans-74" d="M 1172 4494 
L 1172 3500 
L 2356 3500 
L 2356 3053 
L 1172 3053 
L 1172 1153 
Q 1172 725 1289 603 
Q 1406 481 1766 481 
L 2356 481 
L 2356 0 
L 1766 0 
Q 1100 0 847 248 
Q 594 497 594 1153 
L 594 3053 
L 172 3053 
L 172 3500 
L 594 3500 
L 594 4494 
L 1172 4494 
z
" transform="scale(0.015625)"/>
      <path id="DejaVuSans-72" d="M 2631 2963 
Q 2534 3019 2420 3045 
Q 2306 3072 2169 3072 
Q 1681 3072 1420 2755 
Q 1159 2438 1159 1844 
L 1159 0 
L 581 0 
L 581 3500 
L 1159 3500 
L 1159 2956 
Q 1341 3275 1631 3429 
Q 1922 3584 2338 3584 
Q 2397 3584 2469 3576 
Q 2541 3569 2628 3553 
L 2631 2963 
z
" transform="scale(0.015625)"/>
      <path id="DejaVuSans-50" d="M 1259 4147 
L 1259 2394 
L 2053 2394 
Q 2494 2394 2734 2622 
Q 2975 2850 2975 3272 
Q 2975 3691 2734 3919 
Q 2494 4147 2053 4147 
L 1259 4147 
z
M 628 4666 
L 2053 4666 
Q 2838 4666 3239 4311 
Q 3641 3956 3641 3272 
Q 3641 2581 3239 2228 
Q 2838 1875 2053 1875 
L 1259 1875 
L 1259 0 
L 628 0 
L 628 4666 
z
" transform="scale(0.015625)"/>
      <path id="DejaVuSans-66" d="M 2375 4863 
L 2375 4384 
L 1825 4384 
Q 1516 4384 1395 4259 
Q 1275 4134 1275 3809 
L 1275 3500 
L 2222 3500 
L 2222 3053 
L 1275 3053 
L 1275 0 
L 697 0 
L 697 3053 
L 147 3053 
L 147 3500 
L 697 3500 
L 697 3744 
Q 697 4328 969 4595 
Q 1241 4863 1831 4863 
L 2375 4863 
z
" transform="scale(0.015625)"/>
      <path id="DejaVuSans-6f" d="M 1959 3097 
Q 1497 3097 1228 2736 
Q 959 2375 959 1747 
Q 959 1119 1226 758 
Q 1494 397 1959 397 
Q 2419 397 2687 759 
Q 2956 1122 2956 1747 
Q 2956 2369 2687 2733 
Q 2419 3097 1959 3097 
z
M 1959 3584 
Q 2709 3584 3137 3096 
Q 3566 2609 3566 1747 
Q 3566 888 3137 398 
Q 2709 -91 1959 -91 
Q 1206 -91 779 398 
Q 353 888 353 1747 
Q 353 2609 779 3096 
Q 1206 3584 1959 3584 
z
" transform="scale(0.015625)"/>
      <path id="DejaVuSans-6d" d="M 3328 2828 
Q 3544 3216 3844 3400 
Q 4144 3584 4550 3584 
Q 5097 3584 5394 3201 
Q 5691 2819 5691 2113 
L 5691 0 
L 5113 0 
L 5113 2094 
Q 5113 2597 4934 2840 
Q 4756 3084 4391 3084 
Q 3944 3084 3684 2787 
Q 3425 2491 3425 1978 
L 3425 0 
L 2847 0 
L 2847 2094 
Q 2847 2600 2669 2842 
Q 2491 3084 2119 3084 
Q 1678 3084 1418 2786 
Q 1159 2488 1159 1978 
L 1159 0 
L 581 0 
L 581 3500 
L 1159 3500 
L 1159 2956 
Q 1356 3278 1631 3431 
Q 1906 3584 2284 3584 
Q 2666 3584 2933 3390 
Q 3200 3197 3328 2828 
z
" transform="scale(0.015625)"/>
      <path id="DejaVuSans-61" d="M 2194 1759 
Q 1497 1759 1228 1600 
Q 959 1441 959 1056 
Q 959 750 1161 570 
Q 1363 391 1709 391 
Q 2188 391 2477 730 
Q 2766 1069 2766 1631 
L 2766 1759 
L 2194 1759 
z
M 3341 1997 
L 3341 0 
L 2766 0 
L 2766 531 
Q 2569 213 2275 61 
Q 1981 -91 1556 -91 
Q 1019 -91 701 211 
Q 384 513 384 1019 
Q 384 1609 779 1909 
Q 1175 2209 1959 2209 
L 2766 2209 
L 2766 2266 
Q 2766 2663 2505 2880 
Q 2244 3097 1772 3097 
Q 1472 3097 1187 3025 
Q 903 2953 641 2809 
L 641 3341 
Q 956 3463 1253 3523 
Q 1550 3584 1831 3584 
Q 2591 3584 2966 3190 
Q 3341 2797 3341 1997 
z
" transform="scale(0.015625)"/>
      <path id="DejaVuSans-6e" d="M 3513 2113 
L 3513 0 
L 2938 0 
L 2938 2094 
Q 2938 2591 2744 2837 
Q 2550 3084 2163 3084 
Q 1697 3084 1428 2787 
Q 1159 2491 1159 1978 
L 1159 0 
L 581 0 
L 581 3500 
L 1159 3500 
L 1159 2956 
Q 1366 3272 1645 3428 
Q 1925 3584 2291 3584 
Q 2894 3584 3203 3211 
Q 3513 2838 3513 2113 
z
" transform="scale(0.015625)"/>
      <path id="DejaVuSans-63" d="M 3122 3366 
L 3122 2828 
Q 2878 2963 2633 3030 
Q 2388 3097 2138 3097 
Q 1578 3097 1268 2742 
Q 959 2388 959 1747 
Q 959 1106 1268 751 
Q 1578 397 2138 397 
Q 2388 397 2633 464 
Q 2878 531 3122 666 
L 3122 134 
Q 2881 22 2623 -34 
Q 2366 -91 2075 -91 
Q 1284 -91 818 406 
Q 353 903 353 1747 
Q 353 2603 823 3093 
Q 1294 3584 2113 3584 
Q 2378 3584 2631 3529 
Q 2884 3475 3122 3366 
z
" transform="scale(0.015625)"/>
      <path id="DejaVuSans-44" d="M 1259 4147 
L 1259 519 
L 2022 519 
Q 2988 519 3436 956 
Q 3884 1394 3884 2338 
Q 3884 3275 3436 3711 
Q 2988 4147 2022 4147 
L 1259 4147 
z
M 628 4666 
L 1925 4666 
Q 3281 4666 3915 4102 
Q 4550 3538 4550 2338 
Q 4550 1131 3912 565 
Q 3275 0 1925 0 
L 628 0 
L 628 4666 
z
" transform="scale(0.015625)"/>
      <path id="DejaVuSans-69" d="M 603 3500 
L 1178 3500 
L 1178 0 
L 603 0 
L 603 3500 
z
M 603 4863 
L 1178 4863 
L 1178 4134 
L 603 4134 
L 603 4863 
z
" transform="scale(0.015625)"/>
      <path id="DejaVuSans-48" d="M 628 4666 
L 1259 4666 
L 1259 2753 
L 3553 2753 
L 3553 4666 
L 4184 4666 
L 4184 0 
L 3553 0 
L 3553 2222 
L 1259 2222 
L 1259 0 
L 628 0 
L 628 4666 
z
" transform="scale(0.015625)"/>
      <path id="DejaVuSans-64" d="M 2906 2969 
L 2906 4863 
L 3481 4863 
L 3481 0 
L 2906 0 
L 2906 525 
Q 2725 213 2448 61 
Q 2172 -91 1784 -91 
Q 1150 -91 751 415 
Q 353 922 353 1747 
Q 353 2572 751 3078 
Q 1150 3584 1784 3584 
Q 2172 3584 2448 3432 
Q 2725 3281 2906 2969 
z
M 947 1747 
Q 947 1113 1208 752 
Q 1469 391 1925 391 
Q 2381 391 2643 752 
Q 2906 1113 2906 1747 
Q 2906 2381 2643 2742 
Q 2381 3103 1925 3103 
Q 1469 3103 1208 2742 
Q 947 2381 947 1747 
z
" transform="scale(0.015625)"/>
      <path id="DejaVuSans-77" d="M 269 3500 
L 844 3500 
L 1563 769 
L 2278 3500 
L 2956 3500 
L 3675 769 
L 4391 3500 
L 4966 3500 
L 4050 0 
L 3372 0 
L 2619 2869 
L 1863 0 
L 1184 0 
L 269 3500 
z
" transform="scale(0.015625)"/>
      <path id="DejaVuSans-41" d="M 2188 4044 
L 1331 1722 
L 3047 1722 
L 2188 4044 
z
M 1831 4666 
L 2547 4666 
L 4325 0 
L 3669 0 
L 3244 1197 
L 1141 1197 
L 716 0 
L 50 0 
L 1831 4666 
z
" transform="scale(0.015625)"/>
      <path id="DejaVuSans-73" d="M 2834 3397 
L 2834 2853 
Q 2591 2978 2328 3040 
Q 2066 3103 1784 3103 
Q 1356 3103 1142 2972 
Q 928 2841 928 2578 
Q 928 2378 1081 2264 
Q 1234 2150 1697 2047 
L 1894 2003 
Q 2506 1872 2764 1633 
Q 3022 1394 3022 966 
Q 3022 478 2636 193 
Q 2250 -91 1575 -91 
Q 1294 -91 989 -36 
Q 684 19 347 128 
L 347 722 
Q 666 556 975 473 
Q 1284 391 1588 391 
Q 1994 391 2212 530 
Q 2431 669 2431 922 
Q 2431 1156 2273 1281 
Q 2116 1406 1581 1522 
L 1381 1569 
Q 847 1681 609 1914 
Q 372 2147 372 2553 
Q 372 3047 722 3315 
Q 1072 3584 1716 3584 
Q 2034 3584 2315 3537 
Q 2597 3491 2834 3397 
z
" transform="scale(0.015625)"/>
      <path id="DejaVuSans-45" d="M 628 4666 
L 3578 4666 
L 3578 4134 
L 1259 4134 
L 1259 2753 
L 3481 2753 
L 3481 2222 
L 1259 2222 
L 1259 531 
L 3634 531 
L 3634 0 
L 628 0 
L 628 4666 
z
" transform="scale(0.015625)"/>
      <path id="DejaVuSans-70" d="M 1159 525 
L 1159 -1331 
L 581 -1331 
L 581 3500 
L 1159 3500 
L 1159 2969 
Q 1341 3281 1617 3432 
Q 1894 3584 2278 3584 
Q 2916 3584 3314 3078 
Q 3713 2572 3713 1747 
Q 3713 922 3314 415 
Q 2916 -91 2278 -91 
Q 1894 -91 1617 61 
Q 1341 213 1159 525 
z
M 3116 1747 
Q 3116 2381 2855 2742 
Q 2594 3103 2138 3103 
Q 1681 3103 1420 2742 
Q 1159 2381 1159 1747 
Q 1159 1113 1420 752 
Q 1681 391 2138 391 
Q 2594 391 2855 752 
Q 3116 1113 3116 1747 
z
" transform="scale(0.015625)"/>
      <path id="DejaVuSans-47" d="M 3809 666 
L 3809 1919 
L 2778 1919 
L 2778 2438 
L 4434 2438 
L 4434 434 
Q 4069 175 3628 42 
Q 3188 -91 2688 -91 
Q 1594 -91 976 548 
Q 359 1188 359 2328 
Q 359 3472 976 4111 
Q 1594 4750 2688 4750 
Q 3144 4750 3555 4637 
Q 3966 4525 4313 4306 
L 4313 3634 
Q 3963 3931 3569 4081 
Q 3175 4231 2741 4231 
Q 1884 4231 1454 3753 
Q 1025 3275 1025 2328 
Q 1025 1384 1454 906 
Q 1884 428 2741 428 
Q 3075 428 3337 486 
Q 3600 544 3809 666 
z
" transform="scale(0.015625)"/>
     </defs>
     <use xlink:href="#DejaVuSans-2713"/>
     <use xlink:href="#DejaVuSans-20" transform="translate(83.789062 0)"/>
     <use xlink:href="#DejaVuSans-42" transform="translate(115.576172 0)"/>
     <use xlink:href="#DejaVuSans-65" transform="translate(184.179688 0)"/>
     <use xlink:href="#DejaVuSans-74" transform="translate(245.703125 0)"/>
     <use xlink:href="#DejaVuSans-74" transform="translate(284.912109 0)"/>
     <use xlink:href="#DejaVuSans-65" transform="translate(324.121094 0)"/>
     <use xlink:href="#DejaVuSans-72" transform="translate(385.644531 0)"/>
     <use xlink:href="#DejaVuSans-20" transform="translate(426.757812 0)"/>
     <use xlink:href="#DejaVuSans-50" transform="translate(458.544922 0)"/>
     <use xlink:href="#DejaVuSans-65" transform="translate(515.222656 0)"/>
     <use xlink:href="#DejaVuSans-72" transform="translate(576.746094 0)"/>
     <use xlink:href="#DejaVuSans-66" transform="translate(617.859375 0)"/>
     <use xlink:href="#DejaVuSans-6f" transform="translate(653.064453 0)"/>
     <use xlink:href="#DejaVuSans-72" transform="translate(714.246094 0)"/>
     <use xlink:href="#DejaVuSans-6d" transform="translate(753.609375 0)"/>
     <use xlink:href="#DejaVuSans-61" transform="translate(851.021484 0)"/>
     <use xlink:href="#DejaVuSans-6e" transform="translate(912.300781 0)"/>
     <use xlink:href="#DejaVuSans-63" transform="translate(975.679688 0)"/>
     <use xlink:href="#DejaVuSans-65" transform="translate(1030.660156 0)"/>
     <use xlink:href="#DejaVuSans-20" transform="translate(1092.183594 0)"/>
     <use xlink:href="#DejaVuSans-20" transform="translate(1123.970703 0)"/>
     <use xlink:href="#DejaVuSans-2713" transform="translate(1155.757812 0)"/>
     <use xlink:href="#DejaVuSans-20" transform="translate(1239.546875 0)"/>
     <use xlink:href="#DejaVuSans-44" transform="translate(1271.333984 0)"/>
     <use xlink:href="#DejaVuSans-69" transform="translate(1348.335938 0)"/>
     <use xlink:href="#DejaVuSans-72" transform="translate(1376.119141 0)"/>
     <use xlink:href="#DejaVuSans-65" transform="translate(1414.982422 0)"/>
     <use xlink:href="#DejaVuSans-63" transform="translate(1476.505859 0)"/>
     <use xlink:href="#DejaVuSans-74" transform="translate(1531.486328 0)"/>
     <use xlink:href="#DejaVuSans-20" transform="translate(1570.695312 0)"/>
     <use xlink:href="#DejaVuSans-48" transform="translate(1602.482422 0)"/>
     <use xlink:href="#DejaVuSans-61" transform="translate(1677.677734 0)"/>
     <use xlink:href="#DejaVuSans-72" transform="translate(1738.957031 0)"/>
     <use xlink:href="#DejaVuSans-64" transform="translate(1778.320312 0)"/>
     <use xlink:href="#DejaVuSans-77" transform="translate(1841.796875 0)"/>
     <use xlink:href="#DejaVuSans-61" transform="translate(1923.583984 0)"/>
     <use xlink:href="#DejaVuSans-72" transform="translate(1984.863281 0)"/>
     <use xlink:href="#DejaVuSans-65" transform="translate(2023.726562 0)"/>
     <use xlink:href="#DejaVuSans-20" transform="translate(2085.25 0)"/>
     <use xlink:href="#DejaVuSans-41" transform="translate(2117.037109 0)"/>
     <use xlink:href="#DejaVuSans-63" transform="translate(2183.695312 0)"/>
     <use xlink:href="#DejaVuSans-63" transform="translate(2238.675781 0)"/>
     <use xlink:href="#DejaVuSans-65" transform="translate(2293.65625 0)"/>
     <use xlink:href="#DejaVuSans-73" transform="translate(2355.179688 0)"/>
     <use xlink:href="#DejaVuSans-73" transform="translate(2407.279297 0)"/>
     <use xlink:href="#DejaVuSans-20" transform="translate(2459.378906 0)"/>
     <use xlink:href="#DejaVuSans-20" transform="translate(2491.166016 0)"/>
     <use xlink:href="#DejaVuSans-2713" transform="translate(2522.953125 0)"/>
     <use xlink:href="#DejaVuSans-20" transform="translate(2606.742188 0)"/>
     <use xlink:href="#DejaVuSans-45" transform="translate(2638.529297 0)"/>
     <use xlink:href="#DejaVuSans-6e" transform="translate(2701.712891 0)"/>
     <use xlink:href="#DejaVuSans-74" transform="translate(2765.091797 0)"/>
     <use xlink:href="#DejaVuSans-65" transform="translate(2804.300781 0)"/>
     <use xlink:href="#DejaVuSans-72" transform="translate(2865.824219 0)"/>
     <use xlink:href="#DejaVuSans-70" transform="translate(2906.9375 0)"/>
     <use xlink:href="#DejaVuSans-72" transform="translate(2970.414062 0)"/>
     <use xlink:href="#DejaVuSans-69" transform="translate(3011.527344 0)"/>
     <use xlink:href="#DejaVuSans-73" transform="translate(3039.310547 0)"/>
     <use xlink:href="#DejaVuSans-65" transform="translate(3091.410156 0)"/>
     <use xlink:href="#DejaVuSans-20" transform="translate(3152.933594 0)"/>
     <use xlink:href="#DejaVuSans-47" transform="translate(3184.720703 0)"/>
     <use xlink:href="#DejaVuSans-72" transform="translate(3262.210938 0)"/>
     <use xlink:href="#DejaVuSans-61" transform="translate(3303.324219 0)"/>
     <use xlink:href="#DejaVuSans-64" transform="translate(3364.603516 0)"/>
     <use xlink:href="#DejaVuSans-65" transform="translate(3428.080078 0)"/>
    </g>
   </g>
  </g>
  <g id="axes_2">
   <g id="patch_11">
    <path d="M 530.19 568.044 
L 969.21 568.044 
Q 978.966 568.044 978.966 557.46 
L 978.966 107.64 
Q 978.966 97.056 969.21 97.056 
L 530.19 97.056 
Q 520.434 97.056 520.434 107.64 
L 520.434 557.46 
Q 520.434 568.044 530.19 568.044 
z
" clip-path="url(#p36a9eb82e4)" style="fill: #fff4e6; opacity: 0.5; stroke: #ff8c00; stroke-width: 3; stroke-linejoin: miter"/>
   </g>
   <g id="patch_12">
    <path d="M 554.58 536.292 
L 944.82 536.292 
Q 949.698 536.292 949.698 531 
L 949.698 478.08 
Q 949.698 472.788 944.82 472.788 
L 554.58 472.788 
Q 549.702 472.788 549.702 478.08 
L 549.702 531 
Q 549.702 536.292 554.58 536.292 
z
" clip-path="url(#p36a9eb82e4)" style="fill: #666666; stroke: #ffffff; stroke-width: 2; stroke-linejoin: miter"/>
   </g>
   <g id="patch_13">
    <path d="M 554.58 472.788 
L 944.82 472.788 
Q 949.698 472.788 949.698 467.496 
L 949.698 414.576 
Q 949.698 409.284 944.82 409.284 
L 554.58 409.284 
Q 549.702 409.284 549.702 414.576 
L 549.702 467.496 
Q 549.702 472.788 554.58 472.788 
z
" clip-path="url(#p36a9eb82e4)" style="fill: #5c2d91; stroke: #ffffff; stroke-width: 2; stroke-linejoin: miter"/>
   </g>
   <g id="patch_14">
    <path d="M 554.58 409.284 
L 944.82 409.284 
Q 949.698 409.284 949.698 403.992 
L 949.698 351.072 
Q 949.698 345.78 944.82 345.78 
L 554.58 345.78 
Q 549.702 345.78 549.702 351.072 
L 549.702 403.992 
Q 549.702 409.284 554.58 409.284 
z
" clip-path="url(#p36a9eb82e4)" style="fill: #ff8c00; stroke: #ffffff; stroke-width: 2; stroke-linejoin: miter"/>
   </g>
   <g id="patch_15">
    <path d="M 603.36 324.612 
L 725.31 324.612 
Q 730.188 324.612 730.188 319.32 
L 730.188 171.144 
Q 730.188 165.852 725.31 165.852 
L 603.36 165.852 
Q 598.482 165.852 598.482 171.144 
L 598.482 319.32 
Q 598.482 324.612 603.36 324.612 
z
" clip-path="url(#p36a9eb82e4)" style="fill: #0078d4; stroke: #ffffff; stroke-width: 2; stroke-linejoin: miter"/>
   </g>
   <g id="patch_16">
    <path d="M 774.09 324.612 
L 896.04 324.612 
Q 900.918 324.612 900.918 319.32 
L 900.918 171.144 
Q 900.918 165.852 896.04 165.852 
L 774.09 165.852 
Q 769.212 165.852 769.212 171.144 
L 769.212 319.32 
Q 769.212 324.612 774.09 324.612 
z
" clip-path="url(#p36a9eb82e4)" style="fill: #004578; stroke: #ffffff; stroke-width: 2; stroke-linejoin: miter"/>
   </g>
   <g id="text_8">
    <!-- Type 2: Hosted Hypervisor -->
    <g style="fill: #ff8c00" transform="translate(660.381563 90.298125) scale(0.12 -0.12)">
     <use xlink:href="#DejaVuSans-Bold-54"/>
     <use xlink:href="#DejaVuSans-Bold-79" transform="translate(56.337891 0)"/>
     <use xlink:href="#DejaVuSans-Bold-70" transform="translate(121.523438 0)"/>
     <use xlink:href="#DejaVuSans-Bold-65" transform="translate(193.105469 0)"/>
     <use xlink:href="#DejaVuSans-Bold-20" transform="translate(260.927734 0)"/>
     <use xlink:href="#DejaVuSans-Bold-32" transform="translate(295.742188 0)"/>
     <use xlink:href="#DejaVuSans-Bold-3a" transform="translate(365.322266 0)"/>
     <use xlink:href="#DejaVuSans-Bold-20" transform="translate(405.3125 0)"/>
     <use xlink:href="#DejaVuSans-Bold-48" transform="translate(440.126953 0)"/>
     <use xlink:href="#DejaVuSans-Bold-6f" transform="translate(523.818359 0)"/>
     <use xlink:href="#DejaVuSans-Bold-73" transform="translate(592.519531 0)"/>
     <use xlink:href="#DejaVuSans-Bold-74" transform="translate(652.041016 0)"/>
     <use xlink:href="#DejaVuSans-Bold-65" transform="translate(699.84375 0)"/>
     <use xlink:href="#DejaVuSans-Bold-64" transform="translate(767.666016 0)"/>
     <use xlink:href="#DejaVuSans-Bold-20" transform="translate(839.248047 0)"/>
     <use xlink:href="#DejaVuSans-Bold-48" transform="translate(874.0625 0)"/>
     <use xlink:href="#DejaVuSans-Bold-79" transform="translate(957.753906 0)"/>
     <use xlink:href="#DejaVuSans-Bold-70" transform="translate(1022.939453 0)"/>
     <use xlink:href="#DejaVuSans-Bold-65" transform="translate(1094.521484 0)"/>
     <use xlink:href="#DejaVuSans-Bold-72" transform="translate(1162.34375 0)"/>
     <use xlink:href="#DejaVuSans-Bold-76" transform="translate(1211.660156 0)"/>
     <use xlink:href="#DejaVuSans-Bold-69" transform="translate(1276.845703 0)"/>
     <use xlink:href="#DejaVuSans-Bold-73" transform="translate(1311.123047 0)"/>
     <use xlink:href="#DejaVuSans-Bold-6f" transform="translate(1370.644531 0)"/>
     <use xlink:href="#DejaVuSans-Bold-72" transform="translate(1439.345703 0)"/>
    </g>
   </g>
   <g id="text_9">
    <!-- Physical Hardware -->
    <g style="fill: #ffffff" transform="translate(702.521719 506.988281) scale(0.09 -0.09)">
     <use xlink:href="#DejaVuSans-Bold-50"/>
     <use xlink:href="#DejaVuSans-Bold-68" transform="translate(73.291016 0)"/>
     <use xlink:href="#DejaVuSans-Bold-79" transform="translate(144.482422 0)"/>
     <use xlink:href="#DejaVuSans-Bold-73" transform="translate(209.667969 0)"/>
     <use xlink:href="#DejaVuSans-Bold-69" transform="translate(269.189453 0)"/>
     <use xlink:href="#DejaVuSans-Bold-63" transform="translate(303.466797 0)"/>
     <use xlink:href="#DejaVuSans-Bold-61" transform="translate(362.744141 0)"/>
     <use xlink:href="#DejaVuSans-Bold-6c" transform="translate(430.224609 0)"/>
     <use xlink:href="#DejaVuSans-Bold-20" transform="translate(464.501953 0)"/>
     <use xlink:href="#DejaVuSans-Bold-48" transform="translate(499.316406 0)"/>
     <use xlink:href="#DejaVuSans-Bold-61" transform="translate(583.007812 0)"/>
     <use xlink:href="#DejaVuSans-Bold-72" transform="translate(650.488281 0)"/>
     <use xlink:href="#DejaVuSans-Bold-64" transform="translate(699.804688 0)"/>
     <use xlink:href="#DejaVuSans-Bold-77" transform="translate(771.386719 0)"/>
     <use xlink:href="#DejaVuSans-Bold-61" transform="translate(863.769531 0)"/>
     <use xlink:href="#DejaVuSans-Bold-72" transform="translate(931.25 0)"/>
     <use xlink:href="#DejaVuSans-Bold-65" transform="translate(980.566406 0)"/>
    </g>
   </g>
   <g id="text_10">
    <!-- Host Operating System (Windows, macOS, Linux) -->
    <g style="fill: #ffffff" transform="translate(624.393984 443.484281) scale(0.09 -0.09)">
     <defs>
      <path id="DejaVuSans-Bold-4f" d="M 2719 3878 
Q 2169 3878 1866 3472 
Q 1563 3066 1563 2328 
Q 1563 1594 1866 1187 
Q 2169 781 2719 781 
Q 3272 781 3575 1187 
Q 3878 1594 3878 2328 
Q 3878 3066 3575 3472 
Q 3272 3878 2719 3878 
z
M 2719 4750 
Q 3844 4750 4481 4106 
Q 5119 3463 5119 2328 
Q 5119 1197 4481 553 
Q 3844 -91 2719 -91 
Q 1597 -91 958 553 
Q 319 1197 319 2328 
Q 319 3463 958 4106 
Q 1597 4750 2719 4750 
z
" transform="scale(0.015625)"/>
      <path id="DejaVuSans-Bold-6d" d="M 3781 2919 
Q 3994 3244 4286 3414 
Q 4578 3584 4928 3584 
Q 5531 3584 5847 3212 
Q 6163 2841 6163 2131 
L 6163 0 
L 5038 0 
L 5038 1825 
Q 5041 1866 5042 1909 
Q 5044 1953 5044 2034 
Q 5044 2406 4934 2573 
Q 4825 2741 4581 2741 
Q 4263 2741 4089 2478 
Q 3916 2216 3909 1719 
L 3909 0 
L 2784 0 
L 2784 1825 
Q 2784 2406 2684 2573 
Q 2584 2741 2328 2741 
Q 2006 2741 1831 2477 
Q 1656 2213 1656 1722 
L 1656 0 
L 531 0 
L 531 3500 
L 1656 3500 
L 1656 2988 
Q 1863 3284 2130 3434 
Q 2397 3584 2719 3584 
Q 3081 3584 3359 3409 
Q 3638 3234 3781 2919 
z
" transform="scale(0.015625)"/>
     </defs>
     <use xlink:href="#DejaVuSans-Bold-48"/>
     <use xlink:href="#DejaVuSans-Bold-6f" transform="translate(83.691406 0)"/>
     <use xlink:href="#DejaVuSans-Bold-73" transform="translate(152.392578 0)"/>
     <use xlink:href="#DejaVuSans-Bold-74" transform="translate(211.914062 0)"/>
     <use xlink:href="#DejaVuSans-Bold-20" transform="translate(259.716797 0)"/>
     <use xlink:href="#DejaVuSans-Bold-4f" transform="translate(294.53125 0)"/>
     <use xlink:href="#DejaVuSans-Bold-70" transform="translate(379.541016 0)"/>
     <use xlink:href="#DejaVuSans-Bold-65" transform="translate(451.123047 0)"/>
     <use xlink:href="#DejaVuSans-Bold-72" transform="translate(518.945312 0)"/>
     <use xlink:href="#DejaVuSans-Bold-61" transform="translate(568.261719 0)"/>
     <use xlink:href="#DejaVuSans-Bold-74" transform="translate(635.742188 0)"/>
     <use xlink:href="#DejaVuSans-Bold-69" transform="translate(683.544922 0)"/>
     <use xlink:href="#DejaVuSans-Bold-6e" transform="translate(717.822266 0)"/>
     <use xlink:href="#DejaVuSans-Bold-67" transform="translate(789.013672 0)"/>
     <use xlink:href="#DejaVuSans-Bold-20" transform="translate(860.595703 0)"/>
     <use xlink:href="#DejaVuSans-Bold-53" transform="translate(895.410156 0)"/>
     <use xlink:href="#DejaVuSans-Bold-79" transform="translate(967.431641 0)"/>
     <use xlink:href="#DejaVuSans-Bold-73" transform="translate(1032.617188 0)"/>
     <use xlink:href="#DejaVuSans-Bold-74" transform="translate(1092.138672 0)"/>
     <use xlink:href="#DejaVuSans-Bold-65" transform="translate(1139.941406 0)"/>
     <use xlink:href="#DejaVuSans-Bold-6d" transform="translate(1207.763672 0)"/>
     <use xlink:href="#DejaVuSans-Bold-20" transform="translate(1311.962891 0)"/>
     <use xlink:href="#DejaVuSans-Bold-28" transform="translate(1346.777344 0)"/>
     <use xlink:href="#DejaVuSans-Bold-57" transform="translate(1392.480469 0)"/>
     <use xlink:href="#DejaVuSans-Bold-69" transform="translate(1502.783203 0)"/>
     <use xlink:href="#DejaVuSans-Bold-6e" transform="translate(1537.060547 0)"/>
     <use xlink:href="#DejaVuSans-Bold-64" transform="translate(1608.251953 0)"/>
     <use xlink:href="#DejaVuSans-Bold-6f" transform="translate(1679.833984 0)"/>
     <use xlink:href="#DejaVuSans-Bold-77" transform="translate(1748.535156 0)"/>
     <use xlink:href="#DejaVuSans-Bold-73" transform="translate(1840.917969 0)"/>
     <use xlink:href="#DejaVuSans-Bold-2c" transform="translate(1900.439453 0)"/>
     <use xlink:href="#DejaVuSans-Bold-20" transform="translate(1938.427734 0)"/>
     <use xlink:href="#DejaVuSans-Bold-6d" transform="translate(1973.242188 0)"/>
     <use xlink:href="#DejaVuSans-Bold-61" transform="translate(2077.441406 0)"/>
     <use xlink:href="#DejaVuSans-Bold-63" transform="translate(2144.921875 0)"/>
     <use xlink:href="#DejaVuSans-Bold-4f" transform="translate(2204.199219 0)"/>
     <use xlink:href="#DejaVuSans-Bold-53" transform="translate(2289.208984 0)"/>
     <use xlink:href="#DejaVuSans-Bold-2c" transform="translate(2361.230469 0)"/>
     <use xlink:href="#DejaVuSans-Bold-20" transform="translate(2399.21875 0)"/>
     <use xlink:href="#DejaVuSans-Bold-4c" transform="translate(2434.033203 0)"/>
     <use xlink:href="#DejaVuSans-Bold-69" transform="translate(2497.753906 0)"/>
     <use xlink:href="#DejaVuSans-Bold-6e" transform="translate(2532.03125 0)"/>
     <use xlink:href="#DejaVuSans-Bold-75" transform="translate(2603.222656 0)"/>
     <use xlink:href="#DejaVuSans-Bold-78" transform="translate(2674.414062 0)"/>
     <use xlink:href="#DejaVuSans-Bold-29" transform="translate(2738.916016 0)"/>
    </g>
   </g>
   <g id="text_11">
    <!-- Hypervisor (VirtualBox, VMware Workstation) -->
    <g style="fill: #ffffff" transform="translate(633.613359 379.980281) scale(0.09 -0.09)">
     <use xlink:href="#DejaVuSans-Bold-48"/>
     <use xlink:href="#DejaVuSans-Bold-79" transform="translate(83.691406 0)"/>
     <use xlink:href="#DejaVuSans-Bold-70" transform="translate(148.876953 0)"/>
     <use xlink:href="#DejaVuSans-Bold-65" transform="translate(220.458984 0)"/>
     <use xlink:href="#DejaVuSans-Bold-72" transform="translate(288.28125 0)"/>
     <use xlink:href="#DejaVuSans-Bold-76" transform="translate(337.597656 0)"/>
     <use xlink:href="#DejaVuSans-Bold-69" transform="translate(402.783203 0)"/>
     <use xlink:href="#DejaVuSans-Bold-73" transform="translate(437.060547 0)"/>
     <use xlink:href="#DejaVuSans-Bold-6f" transform="translate(496.582031 0)"/>
     <use xlink:href="#DejaVuSans-Bold-72" transform="translate(565.283203 0)"/>
     <use xlink:href="#DejaVuSans-Bold-20" transform="translate(614.599609 0)"/>
     <use xlink:href="#DejaVuSans-Bold-28" transform="translate(649.414062 0)"/>
     <use xlink:href="#DejaVuSans-Bold-56" transform="translate(695.117188 0)"/>
     <use xlink:href="#DejaVuSans-Bold-69" transform="translate(770.759766 0)"/>
     <use xlink:href="#DejaVuSans-Bold-72" transform="translate(805.037109 0)"/>
     <use xlink:href="#DejaVuSans-Bold-74" transform="translate(854.353516 0)"/>
     <use xlink:href="#DejaVuSans-Bold-75" transform="translate(902.15625 0)"/>
     <use xlink:href="#DejaVuSans-Bold-61" transform="translate(973.347656 0)"/>
     <use xlink:href="#DejaVuSans-Bold-6c" transform="translate(1040.828125 0)"/>
     <use xlink:href="#DejaVuSans-Bold-42" transform="translate(1075.105469 0)"/>
     <use xlink:href="#DejaVuSans-Bold-6f" transform="translate(1151.326172 0)"/>
     <use xlink:href="#DejaVuSans-Bold-78" transform="translate(1220.027344 0)"/>
     <use xlink:href="#DejaVuSans-Bold-2c" transform="translate(1284.529297 0)"/>
     <use xlink:href="#DejaVuSans-Bold-20" transform="translate(1322.517578 0)"/>
     <use xlink:href="#DejaVuSans-Bold-56" transform="translate(1357.332031 0)"/>
     <use xlink:href="#DejaVuSans-Bold-4d" transform="translate(1434.724609 0)"/>
     <use xlink:href="#DejaVuSans-Bold-77" transform="translate(1534.236328 0)"/>
     <use xlink:href="#DejaVuSans-Bold-61" transform="translate(1626.619141 0)"/>
     <use xlink:href="#DejaVuSans-Bold-72" transform="translate(1694.099609 0)"/>
     <use xlink:href="#DejaVuSans-Bold-65" transform="translate(1743.416016 0)"/>
     <use xlink:href="#DejaVuSans-Bold-20" transform="translate(1811.238281 0)"/>
     <use xlink:href="#DejaVuSans-Bold-57" transform="translate(1846.052734 0)"/>
     <use xlink:href="#DejaVuSans-Bold-6f" transform="translate(1952.730469 0)"/>
     <use xlink:href="#DejaVuSans-Bold-72" transform="translate(2021.431641 0)"/>
     <use xlink:href="#DejaVuSans-Bold-6b" transform="translate(2070.748047 0)"/>
     <use xlink:href="#DejaVuSans-Bold-73" transform="translate(2137.251953 0)"/>
     <use xlink:href="#DejaVuSans-Bold-74" transform="translate(2196.773438 0)"/>
     <use xlink:href="#DejaVuSans-Bold-61" transform="translate(2244.576172 0)"/>
     <use xlink:href="#DejaVuSans-Bold-74" transform="translate(2312.056641 0)"/>
     <use xlink:href="#DejaVuSans-Bold-69" transform="translate(2359.859375 0)"/>
     <use xlink:href="#DejaVuSans-Bold-6f" transform="translate(2394.136719 0)"/>
     <use xlink:href="#DejaVuSans-Bold-6e" transform="translate(2462.837891 0)"/>
     <use xlink:href="#DejaVuSans-Bold-29" transform="translate(2534.029297 0)"/>
    </g>
   </g>
   <g id="text_12">
    <!-- VM 1 -->
    <g style="fill: #ffffff" transform="translate(650.270156 247.991375) scale(0.1 -0.1)">
     <use xlink:href="#DejaVuSans-Bold-56"/>
     <use xlink:href="#DejaVuSans-Bold-4d" transform="translate(77.392578 0)"/>
     <use xlink:href="#DejaVuSans-Bold-20" transform="translate(176.904297 0)"/>
     <use xlink:href="#DejaVuSans-Bold-31" transform="translate(211.71875 0)"/>
    </g>
   </g>
   <g id="text_13">
    <!-- VM 2 -->
    <g style="fill: #ffffff" transform="translate(821.000156 247.991375) scale(0.1 -0.1)">
     <use xlink:href="#DejaVuSans-Bold-56"/>
     <use xlink:href="#DejaVuSans-Bold-4d" transform="translate(77.392578 0)"/>
     <use xlink:href="#DejaVuSans-Bold-20" transform="translate(176.904297 0)"/>
     <use xlink:href="#DejaVuSans-Bold-32" transform="translate(211.71875 0)"/>
    </g>
   </g>
   <g id="patch_17">
    <path d="M 664.335 349.075872 
Q 664.335 335.198637 664.335 323.55747 
" style="fill: none; stroke: #ff8c00; stroke-width: 2; stroke-linecap: round"/>
    <path d="M 662.335 327.55747 
L 664.335 323.55747 
L 666.335 327.55747 
" style="fill: none; stroke: #ff8c00; stroke-width: 2; stroke-linecap: round"/>
   </g>
   <g id="patch_18">
    <path d="M 835.065 349.075872 
Q 835.065 335.198637 835.065 323.55747 
" style="fill: none; stroke: #ff8c00; stroke-width: 2; stroke-linecap: round"/>
    <path d="M 833.065 327.55747 
L 835.065 323.55747 
L 837.065 327.55747 
" style="fill: none; stroke: #ff8c00; stroke-width: 2; stroke-linecap: round"/>
   </g>
   <g id="text_14">
    <!-- ✓ Easy Setup  ✓ Development/Testing  ✓ Desktop Use -->
    <g style="fill: #ff8c00" transform="translate(640.823125 120.4315) scale(0.08 -0.08)">
     <defs>
      <path id="DejaVuSans-79" d="M 2059 -325 
Q 1816 -950 1584 -1140 
Q 1353 -1331 966 -1331 
L 506 -1331 
L 506 -850 
L 844 -850 
Q 1081 -850 1212 -737 
Q 1344 -625 1503 -206 
L 1606 56 
L 191 3500 
L 800 3500 
L 1894 763 
L 2988 3500 
L 3597 3500 
L 2059 -325 
z
" transform="scale(0.015625)"/>
      <path id="DejaVuSans-53" d="M 3425 4513 
L 3425 3897 
Q 3066 4069 2747 4153 
Q 2428 4238 2131 4238 
Q 1616 4238 1336 4038 
Q 1056 3838 1056 3469 
Q 1056 3159 1242 3001 
Q 1428 2844 1947 2747 
L 2328 2669 
Q 3034 2534 3370 2195 
Q 3706 1856 3706 1288 
Q 3706 609 3251 259 
Q 2797 -91 1919 -91 
Q 1588 -91 1214 -16 
Q 841 59 441 206 
L 441 856 
Q 825 641 1194 531 
Q 1563 422 1919 422 
Q 2459 422 2753 634 
Q 3047 847 3047 1241 
Q 3047 1584 2836 1778 
Q 2625 1972 2144 2069 
L 1759 2144 
Q 1053 2284 737 2584 
Q 422 2884 422 3419 
Q 422 4038 858 4394 
Q 1294 4750 2059 4750 
Q 2388 4750 2728 4690 
Q 3069 4631 3425 4513 
z
" transform="scale(0.015625)"/>
      <path id="DejaVuSans-75" d="M 544 1381 
L 544 3500 
L 1119 3500 
L 1119 1403 
Q 1119 906 1312 657 
Q 1506 409 1894 409 
Q 2359 409 2629 706 
Q 2900 1003 2900 1516 
L 2900 3500 
L 3475 3500 
L 3475 0 
L 2900 0 
L 2900 538 
Q 2691 219 2414 64 
Q 2138 -91 1772 -91 
Q 1169 -91 856 284 
Q 544 659 544 1381 
z
M 1991 3584 
L 1991 3584 
z
" transform="scale(0.015625)"/>
      <path id="DejaVuSans-76" d="M 191 3500 
L 800 3500 
L 1894 563 
L 2988 3500 
L 3597 3500 
L 2284 0 
L 1503 0 
L 191 3500 
z
" transform="scale(0.015625)"/>
      <path id="DejaVuSans-6c" d="M 603 4863 
L 1178 4863 
L 1178 0 
L 603 0 
L 603 4863 
z
" transform="scale(0.015625)"/>
      <path id="DejaVuSans-2f" d="M 1625 4666 
L 2156 4666 
L 531 -594 
L 0 -594 
L 1625 4666 
z
" transform="scale(0.015625)"/>
      <path id="DejaVuSans-54" d="M -19 4666 
L 3928 4666 
L 3928 4134 
L 2272 4134 
L 2272 0 
L 1638 0 
L 1638 4134 
L -19 4134 
L -19 4666 
z
" transform="scale(0.015625)"/>
      <path id="DejaVuSans-67" d="M 2906 1791 
Q 2906 2416 2648 2759 
Q 2391 3103 1925 3103 
Q 1463 3103 1205 2759 
Q 947 2416 947 1791 
Q 947 1169 1205 825 
Q 1463 481 1925 481 
Q 2391 481 2648 825 
Q 2906 1169 2906 1791 
z
M 3481 434 
Q 3481 -459 3084 -895 
Q 2688 -1331 1869 -1331 
Q 1566 -1331 1297 -1286 
Q 1028 -1241 775 -1147 
L 775 -588 
Q 1028 -725 1275 -790 
Q 1522 -856 1778 -856 
Q 2344 -856 2625 -561 
Q 2906 -266 2906 331 
L 2906 616 
Q 2728 306 2450 153 
Q 2172 0 1784 0 
Q 1141 0 747 490 
Q 353 981 353 1791 
Q 353 2603 747 3093 
Q 1141 3584 1784 3584 
Q 2172 3584 2450 3431 
Q 2728 3278 2906 2969 
L 2906 3500 
L 3481 3500 
L 3481 434 
z
" transform="scale(0.015625)"/>
      <path id="DejaVuSans-6b" d="M 581 4863 
L 1159 4863 
L 1159 1991 
L 2875 3500 
L 3609 3500 
L 1753 1863 
L 3688 0 
L 2938 0 
L 1159 1709 
L 1159 0 
L 581 0 
L 581 4863 
z
" transform="scale(0.015625)"/>
      <path id="DejaVuSans-55" d="M 556 4666 
L 1191 4666 
L 1191 1831 
Q 1191 1081 1462 751 
Q 1734 422 2344 422 
Q 2950 422 3222 751 
Q 3494 1081 3494 1831 
L 3494 4666 
L 4128 4666 
L 4128 1753 
Q 4128 841 3676 375 
Q 3225 -91 2344 -91 
Q 1459 -91 1007 375 
Q 556 841 556 1753 
L 556 4666 
z
" transform="scale(0.015625)"/>
     </defs>
     <use xlink:href="#DejaVuSans-2713"/>
     <use xlink:href="#DejaVuSans-20" transform="translate(83.789062 0)"/>
     <use xlink:href="#DejaVuSans-45" transform="translate(115.576172 0)"/>
     <use xlink:href="#DejaVuSans-61" transform="translate(178.759766 0)"/>
     <use xlink:href="#DejaVuSans-73" transform="translate(240.039062 0)"/>
     <use xlink:href="#DejaVuSans-79" transform="translate(292.138672 0)"/>
     <use xlink:href="#DejaVuSans-20" transform="translate(351.318359 0)"/>
     <use xlink:href="#DejaVuSans-53" transform="translate(383.105469 0)"/>
     <use xlink:href="#DejaVuSans-65" transform="translate(446.582031 0)"/>
     <use xlink:href="#DejaVuSans-74" transform="translate(508.105469 0)"/>
     <use xlink:href="#DejaVuSans-75" transform="translate(547.314453 0)"/>
     <use xlink:href="#DejaVuSans-70" transform="translate(610.693359 0)"/>
     <use xlink:href="#DejaVuSans-20" transform="translate(674.169922 0)"/>
     <use xlink:href="#DejaVuSans-20" transform="translate(705.957031 0)"/>
     <use xlink:href="#DejaVuSans-2713" transform="translate(737.744141 0)"/>
     <use xlink:href="#DejaVuSans-20" transform="translate(821.533203 0)"/>
     <use xlink:href="#DejaVuSans-44" transform="translate(853.320312 0)"/>
     <use xlink:href="#DejaVuSans-65" transform="translate(930.322266 0)"/>
     <use xlink:href="#DejaVuSans-76" transform="translate(991.845703 0)"/>
     <use xlink:href="#DejaVuSans-65" transform="translate(1051.025391 0)"/>
     <use xlink:href="#DejaVuSans-6c" transform="translate(1112.548828 0)"/>
     <use xlink:href="#DejaVuSans-6f" transform="translate(1140.332031 0)"/>
     <use xlink:href="#DejaVuSans-70" transform="translate(1201.513672 0)"/>
     <use xlink:href="#DejaVuSans-6d" transform="translate(1264.990234 0)"/>
     <use xlink:href="#DejaVuSans-65" transform="translate(1362.402344 0)"/>
     <use xlink:href="#DejaVuSans-6e" transform="translate(1423.925781 0)"/>
     <use xlink:href="#DejaVuSans-74" transform="translate(1487.304688 0)"/>
     <use xlink:href="#DejaVuSans-2f" transform="translate(1526.513672 0)"/>
     <use xlink:href="#DejaVuSans-54" transform="translate(1560.205078 0)"/>
     <use xlink:href="#DejaVuSans-65" transform="translate(1604.289062 0)"/>
     <use xlink:href="#DejaVuSans-73" transform="translate(1665.8125 0)"/>
     <use xlink:href="#DejaVuSans-74" transform="translate(1717.912109 0)"/>
     <use xlink:href="#DejaVuSans-69" transform="translate(1757.121094 0)"/>
     <use xlink:href="#DejaVuSans-6e" transform="translate(1784.904297 0)"/>
     <use xlink:href="#DejaVuSans-67" transform="translate(1848.283203 0)"/>
     <use xlink:href="#DejaVuSans-20" transform="translate(1911.759766 0)"/>
     <use xlink:href="#DejaVuSans-20" transform="translate(1943.546875 0)"/>
     <use xlink:href="#DejaVuSans-2713" transform="translate(1975.333984 0)"/>
     <use xlink:href="#DejaVuSans-20" transform="translate(2059.123047 0)"/>
     <use xlink:href="#DejaVuSans-44" transform="translate(2090.910156 0)"/>
     <use xlink:href="#DejaVuSans-65" transform="translate(2167.912109 0)"/>
     <use xlink:href="#DejaVuSans-73" transform="translate(2229.435547 0)"/>
     <use xlink:href="#DejaVuSans-6b" transform="translate(2281.535156 0)"/>
     <use xlink:href="#DejaVuSans-74" transform="translate(2339.445312 0)"/>
     <use xlink:href="#DejaVuSans-6f" transform="translate(2378.654297 0)"/>
     <use xlink:href="#DejaVuSans-70" transform="translate(2439.835938 0)"/>
     <use xlink:href="#DejaVuSans-20" transform="translate(2503.3125 0)"/>
     <use xlink:href="#DejaVuSans-55" transform="translate(2535.099609 0)"/>
     <use xlink:href="#DejaVuSans-73" transform="translate(2608.292969 0)"/>
     <use xlink:href="#DejaVuSans-65" transform="translate(2660.392578 0)"/>
    </g>
   </g>
  </g>
  <g id="text_15">
   <!-- Hypervisor Types Comparison -->
   <g style="fill: #004578" transform="translate(366.5575 19.3575) scale(0.16 -0.16)">
    <use xlink:href="#DejaVuSans-Bold-48"/>
    <use xlink:href="#DejaVuSans-Bold-79" transform="translate(83.691406 0)"/>
    <use xlink:href="#DejaVuSans-Bold-70" transform="translate(148.876953 0)"/>
    <use xlink:href="#DejaVuSans-Bold-65" transform="translate(220.458984 0)"/>
    <use xlink:href="#DejaVuSans-Bold-72" transform="translate(288.28125 0)"/>
    <use xlink:href="#DejaVuSans-Bold-76" transform="translate(337.597656 0)"/>
    <use xlink:href="#DejaVuSans-Bold-69" transform="translate(402.783203 0)"/>
    <use xlink:href="#DejaVuSans-Bold-73" transform="translate(437.060547 0)"/>
    <use xlink:href="#DejaVuSans-Bold-6f" transform="translate(496.582031 0)"/>
    <use xlink:href="#DejaVuSans-Bold-72" transform="translate(565.283203 0)"/>
    <use xlink:href="#DejaVuSans-Bold-20" transform="translate(614.599609 0)"/>
    <use xlink:href="#DejaVuSans-Bold-54" transform="translate(649.414062 0)"/>
    <use xlink:href="#DejaVuSans-Bold-79" transform="translate(705.751953 0)"/>
    <use xlink:href="#DejaVuSans-Bold-70" transform="translate(770.9375 0)"/>
    <use xlink:href="#DejaVuSans-Bold-65" transform="translate(842.519531 0)"/>
    <use xlink:href="#DejaVuSans-Bold-73" transform="translate(910.341797 0)"/>
    <use xlink:href="#DejaVuSans-Bold-20" transform="translate(969.863281 0)"/>
    <use xlink:href="#DejaVuSans-Bold-43" transform="translate(1004.677734 0)"/>
    <use xlink:href="#DejaVuSans-Bold-6f" transform="translate(1078.066406 0)"/>
    <use xlink:href="#DejaVuSans-Bold-6d" transform="translate(1146.767578 0)"/>
    <use xlink:href="#DejaVuSans-Bold-70" transform="translate(1250.966797 0)"/>
    <use xlink:href="#DejaVuSans-Bold-61" transform="translate(1322.548828 0)"/>
    <use xlink:href="#DejaVuSans-Bold-72" transform="translate(1390.029297 0)"/>
    <use xlink:href="#DejaVuSans-Bold-69" transform="translate(1439.345703 0)"/>
    <use xlink:href="#DejaVuSans-Bold-73" transform="translate(1473.623047 0)"/>
    <use xlink:href="#DejaVuSans-Bold-6f" transform="translate(1533.144531 0)"/>
    <use xlink:href="#DejaVuSans-Bold-6e" transform="translate(1601.845703 0)"/>
   </g>
  </g>
 </g>
 <defs>
  <clipPath id="pd1de7ccab2">
   <rect x="7.2" y="54.72" width="487.8" height="529.2"/>
  </clipPath>
  <clipPath id="p36a9eb82e4">
   <rect x="505.8" y="54.72" width="487.8" height="529.2"/>
  </clipPath>
 </defs>
</svg>
